%TF.GenerationSoftware,KiCad,Pcbnew,(7.0.0)*%
%TF.CreationDate,2023-10-03T11:42:16+02:00*%
%TF.ProjectId,Lichten-PCB,4c696368-7465-46e2-9d50-43422e6b6963,rev?*%
%TF.SameCoordinates,Original*%
%TF.FileFunction,Soldermask,Top*%
%TF.FilePolarity,Negative*%
%FSLAX46Y46*%
G04 Gerber Fmt 4.6, Leading zero omitted, Abs format (unit mm)*
G04 Created by KiCad (PCBNEW (7.0.0)) date 2023-10-03 11:42:16*
%MOMM*%
%LPD*%
G01*
G04 APERTURE LIST*
G04 Aperture macros list*
%AMRoundRect*
0 Rectangle with rounded corners*
0 $1 Rounding radius*
0 $2 $3 $4 $5 $6 $7 $8 $9 X,Y pos of 4 corners*
0 Add a 4 corners polygon primitive as box body*
4,1,4,$2,$3,$4,$5,$6,$7,$8,$9,$2,$3,0*
0 Add four circle primitives for the rounded corners*
1,1,$1+$1,$2,$3*
1,1,$1+$1,$4,$5*
1,1,$1+$1,$6,$7*
1,1,$1+$1,$8,$9*
0 Add four rect primitives between the rounded corners*
20,1,$1+$1,$2,$3,$4,$5,0*
20,1,$1+$1,$4,$5,$6,$7,0*
20,1,$1+$1,$6,$7,$8,$9,0*
20,1,$1+$1,$8,$9,$2,$3,0*%
G04 Aperture macros list end*
%ADD10RoundRect,0.225000X-0.225000X-0.250000X0.225000X-0.250000X0.225000X0.250000X-0.225000X0.250000X0*%
%ADD11R,1.500000X0.900000*%
%ADD12R,0.900000X1.500000*%
%ADD13R,1.700000X1.700000*%
%ADD14O,1.700000X1.700000*%
G04 APERTURE END LIST*
D10*
%TO.C,C22*%
X154650000Y-73200000D03*
X156200000Y-73200000D03*
%TD*%
D11*
%TO.C,D19*%
X152699999Y-86099999D03*
X152699999Y-89399999D03*
X157599999Y-89399999D03*
X157599999Y-86099999D03*
%TD*%
%TO.C,D18*%
X142899999Y-86099999D03*
X142899999Y-89399999D03*
X147799999Y-89399999D03*
X147799999Y-86099999D03*
%TD*%
%TO.C,D6*%
X122349999Y-107199999D03*
X122349999Y-110499999D03*
X127249999Y-110499999D03*
X127249999Y-107199999D03*
%TD*%
D10*
%TO.C,C8*%
X144450000Y-104500000D03*
X146000000Y-104500000D03*
%TD*%
%TO.C,C19*%
X154450000Y-83200000D03*
X156000000Y-83200000D03*
%TD*%
D11*
%TO.C,D25*%
X122499999Y-76199999D03*
X122499999Y-79499999D03*
X127399999Y-79499999D03*
X127399999Y-76199999D03*
%TD*%
%TO.C,D13*%
X142849999Y-96999999D03*
X142849999Y-100299999D03*
X147749999Y-100299999D03*
X147749999Y-96999999D03*
%TD*%
D10*
%TO.C,C20*%
X164850000Y-83200000D03*
X166400000Y-83200000D03*
%TD*%
D11*
%TO.C,D22*%
X152899999Y-75899999D03*
X152899999Y-79199999D03*
X157799999Y-79199999D03*
X157799999Y-75899999D03*
%TD*%
D10*
%TO.C,C11*%
X165050000Y-94200000D03*
X166600000Y-94200000D03*
%TD*%
D11*
%TO.C,D3*%
X142849999Y-116999999D03*
X142849999Y-120299999D03*
X147749999Y-120299999D03*
X147749999Y-116999999D03*
%TD*%
%TO.C,D21*%
X163099999Y-75899999D03*
X163099999Y-79199999D03*
X167999999Y-79199999D03*
X167999999Y-75899999D03*
%TD*%
%TO.C,D5*%
X122599999Y-116949999D03*
X122599999Y-120249999D03*
X127499999Y-120249999D03*
X127499999Y-116949999D03*
%TD*%
%TO.C,D24*%
X132899999Y-76199999D03*
X132899999Y-79499999D03*
X137799999Y-79499999D03*
X137799999Y-76199999D03*
%TD*%
D10*
%TO.C,C2*%
X154700000Y-114250000D03*
X156250000Y-114250000D03*
%TD*%
D11*
%TO.C,D17*%
X132899999Y-86099999D03*
X132899999Y-89399999D03*
X137799999Y-89399999D03*
X137799999Y-86099999D03*
%TD*%
%TO.C,D12*%
X152849999Y-96999999D03*
X152849999Y-100299999D03*
X157749999Y-100299999D03*
X157749999Y-96999999D03*
%TD*%
D10*
%TO.C,C9*%
X154700000Y-104500000D03*
X156250000Y-104500000D03*
%TD*%
%TO.C,C16*%
X129050000Y-83400000D03*
X130600000Y-83400000D03*
%TD*%
%TO.C,C21*%
X164825000Y-73200000D03*
X166375000Y-73200000D03*
%TD*%
%TO.C,C10*%
X159450000Y-104400000D03*
X161000000Y-104400000D03*
%TD*%
D11*
%TO.C,D8*%
X142599999Y-107199999D03*
X142599999Y-110499999D03*
X147499999Y-110499999D03*
X147499999Y-107199999D03*
%TD*%
D10*
%TO.C,C13*%
X144650000Y-94200000D03*
X146200000Y-94200000D03*
%TD*%
%TO.C,C23*%
X144650000Y-73200000D03*
X146200000Y-73200000D03*
%TD*%
%TO.C,C17*%
X134850000Y-83200000D03*
X136400000Y-83200000D03*
%TD*%
D11*
%TO.C,D2*%
X152849999Y-116999999D03*
X152849999Y-120299999D03*
X157749999Y-120299999D03*
X157749999Y-116999999D03*
%TD*%
D10*
%TO.C,C4*%
X134700000Y-114250000D03*
X136250000Y-114250000D03*
%TD*%
D11*
%TO.C,D9*%
X152849999Y-107199999D03*
X152849999Y-110499999D03*
X157749999Y-110499999D03*
X157749999Y-107199999D03*
%TD*%
D10*
%TO.C,C7*%
X134700000Y-104500000D03*
X136250000Y-104500000D03*
%TD*%
%TO.C,C6*%
X124200000Y-104500000D03*
X125750000Y-104500000D03*
%TD*%
%TO.C,C12*%
X154650000Y-94200000D03*
X156200000Y-94200000D03*
%TD*%
%TO.C,C1*%
X164725000Y-114250000D03*
X166275000Y-114250000D03*
%TD*%
D11*
%TO.C,D14*%
X132849999Y-96949999D03*
X132849999Y-100249999D03*
X137749999Y-100249999D03*
X137749999Y-96949999D03*
%TD*%
%TO.C,D20*%
X163099999Y-86099999D03*
X163099999Y-89399999D03*
X167999999Y-89399999D03*
X167999999Y-86099999D03*
%TD*%
%TO.C,D11*%
X163099999Y-96949999D03*
X163099999Y-100249999D03*
X167999999Y-100249999D03*
X167999999Y-96949999D03*
%TD*%
%TO.C,D15*%
X122349999Y-96999999D03*
X122349999Y-100299999D03*
X127249999Y-100299999D03*
X127249999Y-96999999D03*
%TD*%
D12*
%TO.C,D10*%
X163799999Y-110499999D03*
X167099999Y-110499999D03*
X167099999Y-105599999D03*
X163799999Y-105599999D03*
%TD*%
D11*
%TO.C,D23*%
X142899999Y-75999999D03*
X142899999Y-79299999D03*
X147799999Y-79299999D03*
X147799999Y-75999999D03*
%TD*%
D12*
%TO.C,D16*%
X123099999Y-90199999D03*
X126399999Y-90199999D03*
X126399999Y-85299999D03*
X123099999Y-85299999D03*
%TD*%
D10*
%TO.C,C5*%
X124200000Y-114250000D03*
X125750000Y-114250000D03*
%TD*%
%TO.C,C14*%
X134450000Y-94200000D03*
X136000000Y-94200000D03*
%TD*%
D11*
%TO.C,D4*%
X132849999Y-116949999D03*
X132849999Y-120249999D03*
X137749999Y-120249999D03*
X137749999Y-116949999D03*
%TD*%
D10*
%TO.C,C15*%
X124250000Y-94200000D03*
X125800000Y-94200000D03*
%TD*%
D13*
%TO.C,J1*%
X161959999Y-129499999D03*
D14*
X164499999Y-129499999D03*
X167039999Y-129499999D03*
X169579999Y-129499999D03*
%TD*%
D10*
%TO.C,C3*%
X144700000Y-114250000D03*
X146250000Y-114250000D03*
%TD*%
%TO.C,C18*%
X144450000Y-83200000D03*
X146000000Y-83200000D03*
%TD*%
%TO.C,C25*%
X124250000Y-73200000D03*
X125800000Y-73200000D03*
%TD*%
D11*
%TO.C,D7*%
X132849999Y-107199999D03*
X132849999Y-110499999D03*
X137749999Y-110499999D03*
X137749999Y-107199999D03*
%TD*%
%TO.C,D1*%
X163099999Y-116999999D03*
X163099999Y-120299999D03*
X167999999Y-120299999D03*
X167999999Y-116999999D03*
%TD*%
D10*
%TO.C,C24*%
X134650000Y-73200000D03*
X136200000Y-73200000D03*
%TD*%
M02*
