G04 #@! TF.GenerationSoftware,KiCad,Pcbnew,7.0.5*
G04 #@! TF.CreationDate,2023-10-10T09:39:28+02:00*
G04 #@! TF.ProjectId,Lichten-PCB,4c696368-7465-46e2-9d50-43422e6b6963,rev?*
G04 #@! TF.SameCoordinates,Original*
G04 #@! TF.FileFunction,Copper,L2,Bot*
G04 #@! TF.FilePolarity,Positive*
%FSLAX46Y46*%
G04 Gerber Fmt 4.6, Leading zero omitted, Abs format (unit mm)*
G04 Created by KiCad (PCBNEW 7.0.5) date 2023-10-10 09:39:28*
%MOMM*%
%LPD*%
G01*
G04 APERTURE LIST*
G04 #@! TA.AperFunction,ComponentPad*
%ADD10C,3.800000*%
G04 #@! TD*
G04 #@! TA.AperFunction,ComponentPad*
%ADD11R,2.400000X2.400000*%
G04 #@! TD*
G04 #@! TA.AperFunction,ComponentPad*
%ADD12C,2.400000*%
G04 #@! TD*
G04 #@! TA.AperFunction,ViaPad*
%ADD13C,0.800000*%
G04 #@! TD*
G04 APERTURE END LIST*
D10*
X169610000Y-72860000D03*
X169000000Y-141400000D03*
X106400000Y-141600000D03*
D11*
X151810000Y-140230000D03*
D12*
X155310000Y-140230000D03*
X158810000Y-140230000D03*
X162310000Y-140230000D03*
D10*
X106260000Y-72780000D03*
D13*
X140320000Y-104530000D03*
X123900000Y-100850000D03*
X113400000Y-120450000D03*
X118900000Y-129900000D03*
X149950000Y-104490000D03*
X123950000Y-95600000D03*
X154940000Y-121666000D03*
X155956000Y-116332000D03*
X154800000Y-112000000D03*
X140462000Y-124968000D03*
X110400000Y-86950000D03*
X166450000Y-112200000D03*
X135100000Y-112000000D03*
X139800000Y-99550000D03*
X129050000Y-94500000D03*
X171300000Y-89450000D03*
X169450000Y-101950000D03*
X111800000Y-126550000D03*
X169500000Y-106550000D03*
X124206000Y-121412000D03*
X119050000Y-110400000D03*
X129550000Y-79500000D03*
X141300000Y-72000000D03*
X149860000Y-120396000D03*
X166550000Y-131350000D03*
X116000000Y-99550000D03*
X161544000Y-131064000D03*
X109200000Y-109300000D03*
X159600000Y-99550000D03*
X113300000Y-84550000D03*
X149700000Y-99200000D03*
X146900000Y-79150000D03*
X154450000Y-72000000D03*
X129794000Y-124968000D03*
X155500000Y-136600000D03*
X166100000Y-120950000D03*
X166850000Y-80400000D03*
X166200000Y-91250000D03*
X129000000Y-99500000D03*
X129910000Y-104370000D03*
X168600000Y-115850000D03*
X155800000Y-131200000D03*
X129350000Y-129850000D03*
X124000000Y-80150000D03*
X140716000Y-115316000D03*
X140550000Y-94300000D03*
X171400000Y-115200000D03*
X150114000Y-115062000D03*
X171600000Y-134700000D03*
X135700000Y-136300000D03*
X145550000Y-131150000D03*
X135050000Y-91250000D03*
X153416000Y-125730000D03*
X162500000Y-95200000D03*
X123950000Y-91100000D03*
X129550000Y-72000000D03*
X165250000Y-138350000D03*
X119126000Y-124714000D03*
X124550000Y-111950000D03*
X150600000Y-129600000D03*
X157734000Y-125222000D03*
X169400000Y-126350000D03*
X144780000Y-120396000D03*
X107350000Y-94750000D03*
X160020000Y-119888000D03*
X135550000Y-121750000D03*
X118350000Y-83850000D03*
X171350000Y-104600000D03*
X114250000Y-136300000D03*
X145100000Y-91300000D03*
X119126000Y-115062000D03*
X111506000Y-116332000D03*
X114250000Y-122050000D03*
X119126000Y-120396000D03*
X164950000Y-72000000D03*
X159950000Y-110600000D03*
X107500000Y-116300000D03*
X144800000Y-100900000D03*
X124850000Y-135700000D03*
X116840000Y-105970000D03*
X135300000Y-80250000D03*
X129450000Y-120100000D03*
X116050000Y-94550000D03*
X167000000Y-87300000D03*
X146150000Y-136000000D03*
X166300000Y-135100000D03*
X159910000Y-104690000D03*
X139600000Y-110450000D03*
X118700000Y-72000000D03*
X171600000Y-127750000D03*
X148082000Y-125222000D03*
X169300000Y-136500000D03*
X145000000Y-112000000D03*
X107650000Y-135900000D03*
X166950000Y-96350000D03*
X113250000Y-91150000D03*
X165250000Y-100900000D03*
X113850000Y-130950000D03*
X135250000Y-100750000D03*
X124400000Y-131150000D03*
X169250000Y-89550000D03*
X154450000Y-79000000D03*
X161150000Y-81650000D03*
X140000000Y-120100000D03*
X130048000Y-115062000D03*
X110950000Y-72050000D03*
X114200000Y-111950000D03*
X141400000Y-84200000D03*
X154600000Y-84150000D03*
X134900000Y-130700000D03*
X129200000Y-109800000D03*
X129700000Y-83800000D03*
X154700000Y-91150000D03*
X107550000Y-126400000D03*
X149450000Y-110300000D03*
X165120000Y-104720000D03*
X139900000Y-129900000D03*
X160200000Y-90700000D03*
X150050000Y-94600000D03*
X141350000Y-79300000D03*
X111900000Y-80000000D03*
G04 #@! TA.AperFunction,Conductor*
G36*
X168482379Y-70532185D02*
G01*
X168528134Y-70584989D01*
X168538078Y-70654147D01*
X168509053Y-70717703D01*
X168475077Y-70745162D01*
X168321479Y-70829602D01*
X168321461Y-70829614D01*
X168096565Y-70993010D01*
X168096564Y-70993012D01*
X169026693Y-71923140D01*
X169012590Y-71930411D01*
X168847460Y-72060271D01*
X168709890Y-72219035D01*
X168675334Y-72278886D01*
X167745312Y-71348864D01*
X167664516Y-71446530D01*
X167502707Y-71701502D01*
X167502704Y-71701508D01*
X167374127Y-71974747D01*
X167374125Y-71974752D01*
X167280805Y-72261959D01*
X167224216Y-72558609D01*
X167224215Y-72558616D01*
X167205255Y-72859994D01*
X167205255Y-72860005D01*
X167224215Y-73161383D01*
X167224216Y-73161390D01*
X167280805Y-73458040D01*
X167374125Y-73745247D01*
X167374127Y-73745252D01*
X167502704Y-74018491D01*
X167502707Y-74018497D01*
X167664513Y-74273464D01*
X167745312Y-74371133D01*
X168674211Y-73442235D01*
X168774894Y-73583624D01*
X168926932Y-73728592D01*
X169029222Y-73794329D01*
X168096564Y-74726986D01*
X168321474Y-74890393D01*
X168321485Y-74890400D01*
X168586109Y-75035878D01*
X168586117Y-75035882D01*
X168866889Y-75147047D01*
X168866892Y-75147048D01*
X169159399Y-75222150D01*
X169458995Y-75259999D01*
X169459007Y-75260000D01*
X169760993Y-75260000D01*
X169761004Y-75259999D01*
X170060600Y-75222150D01*
X170353107Y-75147048D01*
X170353110Y-75147047D01*
X170633882Y-75035882D01*
X170633890Y-75035878D01*
X170898514Y-74890400D01*
X170898525Y-74890393D01*
X171123433Y-74726986D01*
X171123434Y-74726986D01*
X170193306Y-73796859D01*
X170207410Y-73789589D01*
X170372540Y-73659729D01*
X170510110Y-73500965D01*
X170544665Y-73441112D01*
X171474686Y-74371133D01*
X171555483Y-74273469D01*
X171670803Y-74091753D01*
X171723345Y-74045697D01*
X171792445Y-74035358D01*
X171856166Y-74064019D01*
X171894275Y-74122581D01*
X171899500Y-74158195D01*
X171899500Y-144175500D01*
X171879815Y-144242539D01*
X171827011Y-144288294D01*
X171775500Y-144299500D01*
X103824500Y-144299500D01*
X103757461Y-144279815D01*
X103711706Y-144227011D01*
X103700500Y-144175500D01*
X103700500Y-141600005D01*
X103995255Y-141600005D01*
X104014215Y-141901383D01*
X104014216Y-141901390D01*
X104070805Y-142198040D01*
X104164125Y-142485247D01*
X104164127Y-142485252D01*
X104292704Y-142758491D01*
X104292707Y-142758497D01*
X104454513Y-143013464D01*
X104535312Y-143111133D01*
X105464211Y-142182235D01*
X105564894Y-142323624D01*
X105716932Y-142468592D01*
X105819222Y-142534329D01*
X104886564Y-143466986D01*
X105111474Y-143630393D01*
X105111485Y-143630400D01*
X105376109Y-143775878D01*
X105376117Y-143775882D01*
X105656889Y-143887047D01*
X105656892Y-143887048D01*
X105949399Y-143962150D01*
X106248995Y-143999999D01*
X106249007Y-144000000D01*
X106550993Y-144000000D01*
X106551004Y-143999999D01*
X106850600Y-143962150D01*
X107143107Y-143887048D01*
X107143110Y-143887047D01*
X107423882Y-143775882D01*
X107423890Y-143775878D01*
X107688514Y-143630400D01*
X107688525Y-143630393D01*
X107913433Y-143466986D01*
X107913434Y-143466986D01*
X106983306Y-142536859D01*
X106997410Y-142529589D01*
X107162540Y-142399729D01*
X107300110Y-142240965D01*
X107334665Y-142181113D01*
X108264686Y-143111133D01*
X108345483Y-143013469D01*
X108507292Y-142758497D01*
X108507295Y-142758491D01*
X108635872Y-142485252D01*
X108635874Y-142485247D01*
X108729194Y-142198040D01*
X108785783Y-141901390D01*
X108785784Y-141901383D01*
X108804745Y-141600005D01*
X108804745Y-141599994D01*
X108797062Y-141477870D01*
X150109500Y-141477870D01*
X150109501Y-141477876D01*
X150115908Y-141537483D01*
X150166202Y-141672328D01*
X150166206Y-141672335D01*
X150252452Y-141787544D01*
X150252455Y-141787547D01*
X150367664Y-141873793D01*
X150367671Y-141873797D01*
X150502517Y-141924091D01*
X150502516Y-141924091D01*
X150509444Y-141924835D01*
X150562127Y-141930500D01*
X153057872Y-141930499D01*
X153117483Y-141924091D01*
X153252331Y-141873796D01*
X153367546Y-141787546D01*
X153453796Y-141672331D01*
X153504091Y-141537483D01*
X153510500Y-141477873D01*
X153510499Y-140954854D01*
X153530183Y-140887818D01*
X153582987Y-140842063D01*
X153652146Y-140832119D01*
X153715702Y-140861144D01*
X153749927Y-140909553D01*
X153773607Y-140969888D01*
X153901041Y-141190612D01*
X154059950Y-141389877D01*
X154246783Y-141563232D01*
X154457366Y-141706805D01*
X154457371Y-141706807D01*
X154457372Y-141706808D01*
X154457373Y-141706809D01*
X154579328Y-141765538D01*
X154686992Y-141817387D01*
X154686993Y-141817387D01*
X154686996Y-141817389D01*
X154930542Y-141892513D01*
X155182565Y-141930500D01*
X155437435Y-141930500D01*
X155689458Y-141892513D01*
X155933004Y-141817389D01*
X156162634Y-141706805D01*
X156373217Y-141563232D01*
X156560050Y-141389877D01*
X156718959Y-141190612D01*
X156846393Y-140969888D01*
X156939508Y-140732637D01*
X156939510Y-140732624D01*
X156940878Y-140728196D01*
X156942324Y-140728642D01*
X156973213Y-140673412D01*
X157034873Y-140640552D01*
X157104510Y-140646243D01*
X157160016Y-140688680D01*
X157178192Y-140728482D01*
X157179122Y-140728196D01*
X157180492Y-140732637D01*
X157273607Y-140969888D01*
X157401041Y-141190612D01*
X157559950Y-141389877D01*
X157746783Y-141563232D01*
X157957366Y-141706805D01*
X157957371Y-141706807D01*
X157957372Y-141706808D01*
X157957373Y-141706809D01*
X158079328Y-141765538D01*
X158186992Y-141817387D01*
X158186993Y-141817387D01*
X158186996Y-141817389D01*
X158430542Y-141892513D01*
X158682565Y-141930500D01*
X158937435Y-141930500D01*
X159189458Y-141892513D01*
X159433004Y-141817389D01*
X159662634Y-141706805D01*
X159873217Y-141563232D01*
X160060050Y-141389877D01*
X160218959Y-141190612D01*
X160346393Y-140969888D01*
X160439508Y-140732637D01*
X160439510Y-140732624D01*
X160440878Y-140728196D01*
X160442008Y-140728544D01*
X160473464Y-140672295D01*
X160535121Y-140639430D01*
X160604759Y-140645117D01*
X160660268Y-140687551D01*
X160678868Y-140728269D01*
X160679600Y-140728044D01*
X160680973Y-140732494D01*
X160774058Y-140969671D01*
X160774057Y-140969671D01*
X160901457Y-141190332D01*
X160943452Y-141242993D01*
X160943453Y-141242993D01*
X161747226Y-140439219D01*
X161785901Y-140532588D01*
X161882075Y-140657925D01*
X162007412Y-140754099D01*
X162100779Y-140792772D01*
X161296813Y-141596737D01*
X161457623Y-141706375D01*
X161457624Y-141706376D01*
X161687176Y-141816921D01*
X161687174Y-141816921D01*
X161930652Y-141892024D01*
X161930658Y-141892026D01*
X162182595Y-141929999D01*
X162182604Y-141930000D01*
X162437396Y-141930000D01*
X162437404Y-141929999D01*
X162689341Y-141892026D01*
X162689347Y-141892024D01*
X162932824Y-141816921D01*
X163162381Y-141706373D01*
X163323185Y-141596737D01*
X163126453Y-141400005D01*
X166595255Y-141400005D01*
X166614215Y-141701383D01*
X166614216Y-141701390D01*
X166670805Y-141998040D01*
X166764125Y-142285247D01*
X166764127Y-142285252D01*
X166892704Y-142558491D01*
X166892707Y-142558497D01*
X167054513Y-142813464D01*
X167135312Y-142911133D01*
X168064211Y-141982235D01*
X168164894Y-142123624D01*
X168316932Y-142268592D01*
X168419222Y-142334329D01*
X167486564Y-143266986D01*
X167711474Y-143430393D01*
X167711485Y-143430400D01*
X167976109Y-143575878D01*
X167976117Y-143575882D01*
X168256889Y-143687047D01*
X168256892Y-143687048D01*
X168549399Y-143762150D01*
X168848995Y-143799999D01*
X168849007Y-143800000D01*
X169150993Y-143800000D01*
X169151004Y-143799999D01*
X169450600Y-143762150D01*
X169743107Y-143687048D01*
X169743110Y-143687047D01*
X170023882Y-143575882D01*
X170023890Y-143575878D01*
X170288514Y-143430400D01*
X170288525Y-143430393D01*
X170513433Y-143266986D01*
X170513434Y-143266986D01*
X169583306Y-142336859D01*
X169597410Y-142329589D01*
X169762540Y-142199729D01*
X169900110Y-142040965D01*
X169934665Y-141981112D01*
X170864686Y-142911133D01*
X170945483Y-142813469D01*
X171107292Y-142558497D01*
X171107295Y-142558491D01*
X171235872Y-142285252D01*
X171235874Y-142285247D01*
X171329194Y-141998040D01*
X171385783Y-141701390D01*
X171385784Y-141701383D01*
X171404745Y-141400005D01*
X171404745Y-141399994D01*
X171385784Y-141098616D01*
X171385783Y-141098609D01*
X171329194Y-140801959D01*
X171235874Y-140514752D01*
X171235872Y-140514747D01*
X171107295Y-140241508D01*
X171107292Y-140241502D01*
X170945486Y-139986535D01*
X170864685Y-139888864D01*
X169935787Y-140817762D01*
X169835106Y-140676376D01*
X169683068Y-140531408D01*
X169580777Y-140465669D01*
X170513434Y-139533012D01*
X170288530Y-139369609D01*
X170288520Y-139369602D01*
X170023890Y-139224121D01*
X170023882Y-139224117D01*
X169743110Y-139112952D01*
X169743107Y-139112951D01*
X169450600Y-139037849D01*
X169151004Y-139000000D01*
X168848995Y-139000000D01*
X168549399Y-139037849D01*
X168256892Y-139112951D01*
X168256889Y-139112952D01*
X167976117Y-139224117D01*
X167976109Y-139224121D01*
X167711479Y-139369602D01*
X167711461Y-139369614D01*
X167486565Y-139533010D01*
X167486564Y-139533012D01*
X168416693Y-140463140D01*
X168402590Y-140470411D01*
X168237460Y-140600271D01*
X168099890Y-140759035D01*
X168065334Y-140818886D01*
X167135312Y-139888864D01*
X167054516Y-139986530D01*
X166892707Y-140241502D01*
X166892704Y-140241508D01*
X166764127Y-140514747D01*
X166764125Y-140514752D01*
X166670805Y-140801959D01*
X166614216Y-141098609D01*
X166614215Y-141098616D01*
X166595255Y-141399994D01*
X166595255Y-141400005D01*
X163126453Y-141400005D01*
X162519220Y-140792772D01*
X162612588Y-140754099D01*
X162737925Y-140657925D01*
X162834099Y-140532589D01*
X162872772Y-140439220D01*
X163676545Y-141242993D01*
X163718545Y-141190327D01*
X163845941Y-140969671D01*
X163939026Y-140732494D01*
X163939031Y-140732477D01*
X163995726Y-140484079D01*
X164014767Y-140230004D01*
X164014767Y-140229995D01*
X163995726Y-139975920D01*
X163939031Y-139727522D01*
X163939026Y-139727505D01*
X163845941Y-139490328D01*
X163845942Y-139490328D01*
X163718544Y-139269671D01*
X163676545Y-139217005D01*
X162872772Y-140020778D01*
X162834099Y-139927412D01*
X162737925Y-139802075D01*
X162612588Y-139705901D01*
X162519220Y-139667227D01*
X163323185Y-138863261D01*
X163162377Y-138753624D01*
X163162376Y-138753623D01*
X162932823Y-138643078D01*
X162932825Y-138643078D01*
X162689347Y-138567975D01*
X162689341Y-138567973D01*
X162437404Y-138530000D01*
X162182595Y-138530000D01*
X161930658Y-138567973D01*
X161930652Y-138567975D01*
X161687175Y-138643078D01*
X161457624Y-138753623D01*
X161457616Y-138753628D01*
X161296813Y-138863261D01*
X162100779Y-139667227D01*
X162007412Y-139705901D01*
X161882075Y-139802075D01*
X161785901Y-139927411D01*
X161747226Y-140020779D01*
X160943453Y-139217006D01*
X160901455Y-139269670D01*
X160774058Y-139490328D01*
X160680973Y-139727505D01*
X160679600Y-139731956D01*
X160678432Y-139731595D01*
X160647026Y-139787726D01*
X160585360Y-139820575D01*
X160515724Y-139814871D01*
X160460226Y-139772423D01*
X160441581Y-139731587D01*
X160440878Y-139731804D01*
X160439509Y-139727371D01*
X160439508Y-139727363D01*
X160346393Y-139490112D01*
X160218959Y-139269388D01*
X160060050Y-139070123D01*
X159873217Y-138896768D01*
X159662634Y-138753195D01*
X159662630Y-138753193D01*
X159662627Y-138753191D01*
X159662626Y-138753190D01*
X159433006Y-138642612D01*
X159433008Y-138642612D01*
X159189466Y-138567489D01*
X159189462Y-138567488D01*
X159189458Y-138567487D01*
X159068231Y-138549214D01*
X158937440Y-138529500D01*
X158937435Y-138529500D01*
X158682565Y-138529500D01*
X158682559Y-138529500D01*
X158525609Y-138553157D01*
X158430542Y-138567487D01*
X158430538Y-138567488D01*
X158430539Y-138567488D01*
X158430533Y-138567489D01*
X158186992Y-138642612D01*
X157957373Y-138753190D01*
X157957372Y-138753191D01*
X157746782Y-138896768D01*
X157559952Y-139070121D01*
X157559950Y-139070123D01*
X157401041Y-139269388D01*
X157273608Y-139490109D01*
X157180492Y-139727362D01*
X157179122Y-139731804D01*
X157177686Y-139731361D01*
X157146749Y-139786623D01*
X157085075Y-139819458D01*
X157015440Y-139813737D01*
X156959952Y-139771277D01*
X156941809Y-139731516D01*
X156940878Y-139731804D01*
X156939509Y-139727371D01*
X156939508Y-139727363D01*
X156846393Y-139490112D01*
X156718959Y-139269388D01*
X156560050Y-139070123D01*
X156373217Y-138896768D01*
X156162634Y-138753195D01*
X156162630Y-138753193D01*
X156162627Y-138753191D01*
X156162626Y-138753190D01*
X155933006Y-138642612D01*
X155933008Y-138642612D01*
X155689466Y-138567489D01*
X155689462Y-138567488D01*
X155689458Y-138567487D01*
X155568231Y-138549214D01*
X155437440Y-138529500D01*
X155437435Y-138529500D01*
X155182565Y-138529500D01*
X155182559Y-138529500D01*
X155025609Y-138553157D01*
X154930542Y-138567487D01*
X154930538Y-138567488D01*
X154930539Y-138567488D01*
X154930533Y-138567489D01*
X154686992Y-138642612D01*
X154457373Y-138753190D01*
X154457372Y-138753191D01*
X154246782Y-138896768D01*
X154059952Y-139070121D01*
X154059950Y-139070123D01*
X153901041Y-139269388D01*
X153773608Y-139490109D01*
X153749927Y-139550447D01*
X153707110Y-139605661D01*
X153641240Y-139628961D01*
X153573230Y-139612950D01*
X153524672Y-139562711D01*
X153510499Y-139505144D01*
X153510499Y-138982129D01*
X153510498Y-138982123D01*
X153510497Y-138982116D01*
X153504091Y-138922517D01*
X153494487Y-138896768D01*
X153453797Y-138787671D01*
X153453793Y-138787664D01*
X153367547Y-138672455D01*
X153367544Y-138672452D01*
X153252335Y-138586206D01*
X153252328Y-138586202D01*
X153117482Y-138535908D01*
X153117483Y-138535908D01*
X153057883Y-138529501D01*
X153057881Y-138529500D01*
X153057873Y-138529500D01*
X153057864Y-138529500D01*
X150562129Y-138529500D01*
X150562123Y-138529501D01*
X150502516Y-138535908D01*
X150367671Y-138586202D01*
X150367664Y-138586206D01*
X150252455Y-138672452D01*
X150252452Y-138672455D01*
X150166206Y-138787664D01*
X150166202Y-138787671D01*
X150115908Y-138922517D01*
X150109501Y-138982116D01*
X150109501Y-138982123D01*
X150109500Y-138982135D01*
X150109500Y-141477870D01*
X108797062Y-141477870D01*
X108785784Y-141298616D01*
X108785783Y-141298609D01*
X108729194Y-141001959D01*
X108635874Y-140714752D01*
X108635872Y-140714747D01*
X108507295Y-140441508D01*
X108507292Y-140441502D01*
X108345486Y-140186535D01*
X108264685Y-140088864D01*
X107335787Y-141017762D01*
X107235106Y-140876376D01*
X107083068Y-140731408D01*
X106980777Y-140665669D01*
X107913434Y-139733012D01*
X107688530Y-139569609D01*
X107688520Y-139569602D01*
X107423890Y-139424121D01*
X107423882Y-139424117D01*
X107143110Y-139312952D01*
X107143107Y-139312951D01*
X106850600Y-139237849D01*
X106551004Y-139200000D01*
X106248995Y-139200000D01*
X105949399Y-139237849D01*
X105656892Y-139312951D01*
X105656889Y-139312952D01*
X105376117Y-139424117D01*
X105376109Y-139424121D01*
X105111479Y-139569602D01*
X105111461Y-139569614D01*
X104886565Y-139733010D01*
X104886564Y-139733012D01*
X105816693Y-140663140D01*
X105802590Y-140670411D01*
X105637460Y-140800271D01*
X105499890Y-140959035D01*
X105465334Y-141018886D01*
X104535312Y-140088864D01*
X104454516Y-140186530D01*
X104292707Y-140441502D01*
X104292704Y-140441508D01*
X104164127Y-140714747D01*
X104164125Y-140714752D01*
X104070805Y-141001959D01*
X104014216Y-141298609D01*
X104014215Y-141298616D01*
X103995255Y-141599994D01*
X103995255Y-141600005D01*
X103700500Y-141600005D01*
X103700500Y-73452137D01*
X103720185Y-73385098D01*
X103772989Y-73339343D01*
X103842147Y-73329399D01*
X103905703Y-73358424D01*
X103942431Y-73413819D01*
X104024125Y-73665247D01*
X104024127Y-73665252D01*
X104152704Y-73938491D01*
X104152707Y-73938497D01*
X104314513Y-74193464D01*
X104395312Y-74291133D01*
X105324211Y-73362235D01*
X105424894Y-73503624D01*
X105576932Y-73648592D01*
X105679222Y-73714329D01*
X104746564Y-74646986D01*
X104971474Y-74810393D01*
X104971485Y-74810400D01*
X105236109Y-74955878D01*
X105236117Y-74955882D01*
X105516889Y-75067047D01*
X105516892Y-75067048D01*
X105809399Y-75142150D01*
X106108995Y-75179999D01*
X106109007Y-75180000D01*
X106410993Y-75180000D01*
X106411004Y-75179999D01*
X106710600Y-75142150D01*
X107003107Y-75067048D01*
X107003110Y-75067047D01*
X107283882Y-74955882D01*
X107283890Y-74955878D01*
X107548514Y-74810400D01*
X107548525Y-74810393D01*
X107773433Y-74646986D01*
X107773434Y-74646986D01*
X106843306Y-73716859D01*
X106857410Y-73709589D01*
X107022540Y-73579729D01*
X107160110Y-73420965D01*
X107194665Y-73361112D01*
X108124686Y-74291133D01*
X108205483Y-74193469D01*
X108367292Y-73938497D01*
X108367295Y-73938491D01*
X108495872Y-73665252D01*
X108495874Y-73665247D01*
X108589194Y-73378040D01*
X108645783Y-73081390D01*
X108645784Y-73081383D01*
X108664745Y-72780005D01*
X108664745Y-72779994D01*
X108645784Y-72478616D01*
X108645783Y-72478609D01*
X108589194Y-72181959D01*
X108495874Y-71894752D01*
X108495872Y-71894747D01*
X108367295Y-71621508D01*
X108367292Y-71621502D01*
X108205486Y-71366535D01*
X108124685Y-71268864D01*
X107195787Y-72197763D01*
X107095106Y-72056376D01*
X106943068Y-71911408D01*
X106840776Y-71845669D01*
X107773434Y-70913012D01*
X107548530Y-70749609D01*
X107548526Y-70749606D01*
X107540443Y-70745163D01*
X107491178Y-70695617D01*
X107476521Y-70627302D01*
X107501124Y-70561908D01*
X107557176Y-70520195D01*
X107600179Y-70512500D01*
X168415340Y-70512500D01*
X168482379Y-70532185D01*
G37*
G04 #@! TD.AperFunction*
G04 #@! TA.AperFunction,Conductor*
G36*
X171842539Y-70532185D02*
G01*
X171888294Y-70584989D01*
X171899500Y-70636500D01*
X171899500Y-71561804D01*
X171879815Y-71628843D01*
X171827011Y-71674598D01*
X171757853Y-71684542D01*
X171694297Y-71655517D01*
X171670803Y-71628246D01*
X171555486Y-71446535D01*
X171474685Y-71348864D01*
X170545787Y-72277762D01*
X170445106Y-72136376D01*
X170293068Y-71991408D01*
X170190777Y-71925669D01*
X171123434Y-70993012D01*
X170898530Y-70829609D01*
X170898520Y-70829602D01*
X170744923Y-70745162D01*
X170695659Y-70695616D01*
X170681002Y-70627301D01*
X170705606Y-70561906D01*
X170761658Y-70520195D01*
X170804660Y-70512500D01*
X171775500Y-70512500D01*
X171842539Y-70532185D01*
G37*
G04 #@! TD.AperFunction*
G04 #@! TA.AperFunction,Conductor*
G36*
X104986860Y-70532185D02*
G01*
X105032615Y-70584989D01*
X105042559Y-70654147D01*
X105013534Y-70717703D01*
X104979557Y-70745163D01*
X104971473Y-70749606D01*
X104971461Y-70749614D01*
X104746565Y-70913010D01*
X104746564Y-70913012D01*
X105676692Y-71843140D01*
X105662590Y-71850411D01*
X105497460Y-71980271D01*
X105359890Y-72139035D01*
X105325334Y-72198886D01*
X104395312Y-71268864D01*
X104314516Y-71366530D01*
X104152707Y-71621502D01*
X104152704Y-71621508D01*
X104024127Y-71894747D01*
X104024125Y-71894752D01*
X103942431Y-72146180D01*
X103902993Y-72203856D01*
X103838635Y-72231054D01*
X103769788Y-72219139D01*
X103718313Y-72171895D01*
X103700500Y-72107862D01*
X103700500Y-70636500D01*
X103720185Y-70569461D01*
X103772989Y-70523706D01*
X103824500Y-70512500D01*
X104919821Y-70512500D01*
X104986860Y-70532185D01*
G37*
G04 #@! TD.AperFunction*
M02*
