M48
; DRILL file {KiCad (7.0.0)} date Tue Oct  3 11:42:20 2023
; FORMAT={-:-/ absolute / metric / decimal}
; #@! TF.CreationDate,2023-10-03T11:42:20+02:00
; #@! TF.GenerationSoftware,Kicad,Pcbnew,(7.0.0)
; #@! TF.FileFunction,Plated,1,2,PTH
FMAT,2
METRIC
; #@! TA.AperFunction,Plated,PTH,ViaDrill
T1C0.400
; #@! TA.AperFunction,Plated,PTH,ComponentDrill
T2C1.000
%
G90
G05
T1
X120.4Y-71.8
X120.6Y-77.8
X121.8Y-103.4
X122.2Y-83.2
X122.4Y-113.0
X123.8Y-87.4
X124.8Y-98.6
X125.0Y-77.8
X125.0Y-82.6
X125.0Y-118.6
X126.2Y-108.6
X126.8Y-123.6
X127.6Y-94.0
X127.6Y-114.2
X129.4Y-86.2
X129.6Y-107.0
X129.8Y-117.0
X129.8Y-123.6
X130.0Y-76.2
X130.0Y-92.8
X130.0Y-97.0
X130.0Y-103.2
X130.0Y-112.6
X130.2Y-71.8
X132.8Y-83.0
X135.2Y-123.8
X135.4Y-77.8
X135.4Y-98.6
X135.4Y-118.6
X135.6Y-86.4
X136.8Y-108.6
X139.6Y-107.0
X139.8Y-86.0
X139.8Y-117.0
X140.0Y-76.2
X140.0Y-123.6
X140.2Y-97.0
X140.2Y-103.0
X140.2Y-112.4
X140.4Y-71.8
X140.4Y-82.6
X140.4Y-92.6
X145.2Y-107.0
X145.4Y-77.6
X145.4Y-86.0
X145.4Y-98.6
X145.4Y-118.6
X145.4Y-123.6
X149.8Y-86.2
X149.8Y-117.0
X150.0Y-96.8
X150.0Y-106.8
X150.2Y-76.0
X150.2Y-82.6
X150.2Y-92.6
X150.2Y-112.4
X150.2Y-123.6
X150.4Y-102.8
X150.6Y-71.8
X155.2Y-86.2
X155.4Y-77.6
X155.4Y-98.6
X155.4Y-116.8
X155.4Y-118.6
X155.4Y-123.8
X156.2Y-108.0
X160.2Y-86.0
X160.2Y-96.8
X160.2Y-117.0
X160.4Y-76.0
X160.4Y-82.6
X160.4Y-101.4
X160.4Y-123.6
X160.6Y-92.6
X160.8Y-71.6
X160.8Y-113.0
X161.0Y-106.0
X161.6Y-110.2
X163.8Y-77.6
X165.6Y-85.8
X166.0Y-117.2
X166.0Y-123.8
X166.2Y-98.6
X166.4Y-107.6
X167.2Y-102.6
X168.2Y-82.0
X169.6Y-71.8
X169.6Y-113.2
X169.8Y-93.0
X170.0Y-125.6
X170.8Y-102.8
T2
X161.96Y-129.5
X164.5Y-129.5
X167.04Y-129.5
X169.58Y-129.5
T0
M30
