G04 #@! TF.GenerationSoftware,KiCad,Pcbnew,7.0.5*
G04 #@! TF.CreationDate,2023-10-10T09:39:28+02:00*
G04 #@! TF.ProjectId,Lichten-PCB,4c696368-7465-46e2-9d50-43422e6b6963,rev?*
G04 #@! TF.SameCoordinates,Original*
G04 #@! TF.FileFunction,Legend,Bot*
G04 #@! TF.FilePolarity,Positive*
%FSLAX46Y46*%
G04 Gerber Fmt 4.6, Leading zero omitted, Abs format (unit mm)*
G04 Created by KiCad (PCBNEW 7.0.5) date 2023-10-10 09:39:28*
%MOMM*%
%LPD*%
G01*
G04 APERTURE LIST*
%ADD10C,0.120000*%
%ADD11C,0.150000*%
%ADD12C,3.800000*%
%ADD13R,2.400000X2.400000*%
%ADD14C,2.400000*%
G04 APERTURE END LIST*
D10*
X161679624Y-142647688D02*
X161751053Y-142611974D01*
X161751053Y-142611974D02*
X161858195Y-142611974D01*
X161858195Y-142611974D02*
X161965338Y-142647688D01*
X161965338Y-142647688D02*
X162036767Y-142719117D01*
X162036767Y-142719117D02*
X162072481Y-142790545D01*
X162072481Y-142790545D02*
X162108195Y-142933402D01*
X162108195Y-142933402D02*
X162108195Y-143040545D01*
X162108195Y-143040545D02*
X162072481Y-143183402D01*
X162072481Y-143183402D02*
X162036767Y-143254831D01*
X162036767Y-143254831D02*
X161965338Y-143326260D01*
X161965338Y-143326260D02*
X161858195Y-143361974D01*
X161858195Y-143361974D02*
X161786767Y-143361974D01*
X161786767Y-143361974D02*
X161679624Y-143326260D01*
X161679624Y-143326260D02*
X161643910Y-143290545D01*
X161643910Y-143290545D02*
X161643910Y-143040545D01*
X161643910Y-143040545D02*
X161786767Y-143040545D01*
X161322481Y-143361974D02*
X161322481Y-142611974D01*
X161322481Y-142611974D02*
X160893910Y-143361974D01*
X160893910Y-143361974D02*
X160893910Y-142611974D01*
X160536767Y-143361974D02*
X160536767Y-142611974D01*
X160536767Y-142611974D02*
X160358196Y-142611974D01*
X160358196Y-142611974D02*
X160251053Y-142647688D01*
X160251053Y-142647688D02*
X160179624Y-142719117D01*
X160179624Y-142719117D02*
X160143910Y-142790545D01*
X160143910Y-142790545D02*
X160108196Y-142933402D01*
X160108196Y-142933402D02*
X160108196Y-143040545D01*
X160108196Y-143040545D02*
X160143910Y-143183402D01*
X160143910Y-143183402D02*
X160179624Y-143254831D01*
X160179624Y-143254831D02*
X160251053Y-143326260D01*
X160251053Y-143326260D02*
X160358196Y-143361974D01*
X160358196Y-143361974D02*
X160536767Y-143361974D01*
X159215338Y-143361974D02*
X159215338Y-142611974D01*
X159215338Y-142611974D02*
X159036767Y-142611974D01*
X159036767Y-142611974D02*
X158929624Y-142647688D01*
X158929624Y-142647688D02*
X158858195Y-142719117D01*
X158858195Y-142719117D02*
X158822481Y-142790545D01*
X158822481Y-142790545D02*
X158786767Y-142933402D01*
X158786767Y-142933402D02*
X158786767Y-143040545D01*
X158786767Y-143040545D02*
X158822481Y-143183402D01*
X158822481Y-143183402D02*
X158858195Y-143254831D01*
X158858195Y-143254831D02*
X158929624Y-143326260D01*
X158929624Y-143326260D02*
X159036767Y-143361974D01*
X159036767Y-143361974D02*
X159215338Y-143361974D01*
X158465338Y-143361974D02*
X158465338Y-142611974D01*
X158108195Y-143361974D02*
X158108195Y-142611974D01*
X158108195Y-142611974D02*
X157679624Y-143361974D01*
X157679624Y-143361974D02*
X157679624Y-142611974D01*
X156751052Y-143361974D02*
X156751052Y-142611974D01*
X156751052Y-142611974D02*
X156572481Y-142611974D01*
X156572481Y-142611974D02*
X156465338Y-142647688D01*
X156465338Y-142647688D02*
X156393909Y-142719117D01*
X156393909Y-142719117D02*
X156358195Y-142790545D01*
X156358195Y-142790545D02*
X156322481Y-142933402D01*
X156322481Y-142933402D02*
X156322481Y-143040545D01*
X156322481Y-143040545D02*
X156358195Y-143183402D01*
X156358195Y-143183402D02*
X156393909Y-143254831D01*
X156393909Y-143254831D02*
X156465338Y-143326260D01*
X156465338Y-143326260D02*
X156572481Y-143361974D01*
X156572481Y-143361974D02*
X156751052Y-143361974D01*
X155858195Y-142611974D02*
X155715338Y-142611974D01*
X155715338Y-142611974D02*
X155643909Y-142647688D01*
X155643909Y-142647688D02*
X155572481Y-142719117D01*
X155572481Y-142719117D02*
X155536766Y-142861974D01*
X155536766Y-142861974D02*
X155536766Y-143111974D01*
X155536766Y-143111974D02*
X155572481Y-143254831D01*
X155572481Y-143254831D02*
X155643909Y-143326260D01*
X155643909Y-143326260D02*
X155715338Y-143361974D01*
X155715338Y-143361974D02*
X155858195Y-143361974D01*
X155858195Y-143361974D02*
X155929624Y-143326260D01*
X155929624Y-143326260D02*
X156001052Y-143254831D01*
X156001052Y-143254831D02*
X156036766Y-143111974D01*
X156036766Y-143111974D02*
X156036766Y-142861974D01*
X156036766Y-142861974D02*
X156001052Y-142719117D01*
X156001052Y-142719117D02*
X155929624Y-142647688D01*
X155929624Y-142647688D02*
X155858195Y-142611974D01*
X155215338Y-142611974D02*
X155215338Y-143219117D01*
X155215338Y-143219117D02*
X155179624Y-143290545D01*
X155179624Y-143290545D02*
X155143910Y-143326260D01*
X155143910Y-143326260D02*
X155072481Y-143361974D01*
X155072481Y-143361974D02*
X154929624Y-143361974D01*
X154929624Y-143361974D02*
X154858195Y-143326260D01*
X154858195Y-143326260D02*
X154822481Y-143290545D01*
X154822481Y-143290545D02*
X154786767Y-143219117D01*
X154786767Y-143219117D02*
X154786767Y-142611974D01*
X154536767Y-142611974D02*
X154108196Y-142611974D01*
X154322481Y-143361974D02*
X154322481Y-142611974D01*
X153286766Y-143076260D02*
X152715338Y-143076260D01*
X153001052Y-143361974D02*
X153001052Y-142790545D01*
X152429624Y-142611974D02*
X151965338Y-142611974D01*
X151965338Y-142611974D02*
X152215338Y-142897688D01*
X152215338Y-142897688D02*
X152108195Y-142897688D01*
X152108195Y-142897688D02*
X152036767Y-142933402D01*
X152036767Y-142933402D02*
X152001052Y-142969117D01*
X152001052Y-142969117D02*
X151965338Y-143040545D01*
X151965338Y-143040545D02*
X151965338Y-143219117D01*
X151965338Y-143219117D02*
X152001052Y-143290545D01*
X152001052Y-143290545D02*
X152036767Y-143326260D01*
X152036767Y-143326260D02*
X152108195Y-143361974D01*
X152108195Y-143361974D02*
X152322481Y-143361974D01*
X152322481Y-143361974D02*
X152393909Y-143326260D01*
X152393909Y-143326260D02*
X152429624Y-143290545D01*
X151751052Y-142611974D02*
X151501052Y-143361974D01*
X151501052Y-143361974D02*
X151251052Y-142611974D01*
X151072481Y-142611974D02*
X150608195Y-142611974D01*
X150608195Y-142611974D02*
X150858195Y-142897688D01*
X150858195Y-142897688D02*
X150751052Y-142897688D01*
X150751052Y-142897688D02*
X150679624Y-142933402D01*
X150679624Y-142933402D02*
X150643909Y-142969117D01*
X150643909Y-142969117D02*
X150608195Y-143040545D01*
X150608195Y-143040545D02*
X150608195Y-143219117D01*
X150608195Y-143219117D02*
X150643909Y-143290545D01*
X150643909Y-143290545D02*
X150679624Y-143326260D01*
X150679624Y-143326260D02*
X150751052Y-143361974D01*
X150751052Y-143361974D02*
X150965338Y-143361974D01*
X150965338Y-143361974D02*
X151036766Y-143326260D01*
X151036766Y-143326260D02*
X151072481Y-143290545D01*
D11*
X148814411Y-124542438D02*
X148909649Y-124494819D01*
X148909649Y-124494819D02*
X149052506Y-124494819D01*
X149052506Y-124494819D02*
X149195363Y-124542438D01*
X149195363Y-124542438D02*
X149290601Y-124637676D01*
X149290601Y-124637676D02*
X149338220Y-124732914D01*
X149338220Y-124732914D02*
X149385839Y-124923390D01*
X149385839Y-124923390D02*
X149385839Y-125066247D01*
X149385839Y-125066247D02*
X149338220Y-125256723D01*
X149338220Y-125256723D02*
X149290601Y-125351961D01*
X149290601Y-125351961D02*
X149195363Y-125447200D01*
X149195363Y-125447200D02*
X149052506Y-125494819D01*
X149052506Y-125494819D02*
X148957268Y-125494819D01*
X148957268Y-125494819D02*
X148814411Y-125447200D01*
X148814411Y-125447200D02*
X148766792Y-125399580D01*
X148766792Y-125399580D02*
X148766792Y-125066247D01*
X148766792Y-125066247D02*
X148957268Y-125066247D01*
X148147744Y-124494819D02*
X147957268Y-124494819D01*
X147957268Y-124494819D02*
X147862030Y-124542438D01*
X147862030Y-124542438D02*
X147766792Y-124637676D01*
X147766792Y-124637676D02*
X147719173Y-124828152D01*
X147719173Y-124828152D02*
X147719173Y-125161485D01*
X147719173Y-125161485D02*
X147766792Y-125351961D01*
X147766792Y-125351961D02*
X147862030Y-125447200D01*
X147862030Y-125447200D02*
X147957268Y-125494819D01*
X147957268Y-125494819D02*
X148147744Y-125494819D01*
X148147744Y-125494819D02*
X148242982Y-125447200D01*
X148242982Y-125447200D02*
X148338220Y-125351961D01*
X148338220Y-125351961D02*
X148385839Y-125161485D01*
X148385839Y-125161485D02*
X148385839Y-124828152D01*
X148385839Y-124828152D02*
X148338220Y-124637676D01*
X148338220Y-124637676D02*
X148242982Y-124542438D01*
X148242982Y-124542438D02*
X148147744Y-124494819D01*
X147290601Y-125494819D02*
X147290601Y-124494819D01*
X147290601Y-124494819D02*
X147052506Y-124494819D01*
X147052506Y-124494819D02*
X146909649Y-124542438D01*
X146909649Y-124542438D02*
X146814411Y-124637676D01*
X146814411Y-124637676D02*
X146766792Y-124732914D01*
X146766792Y-124732914D02*
X146719173Y-124923390D01*
X146719173Y-124923390D02*
X146719173Y-125066247D01*
X146719173Y-125066247D02*
X146766792Y-125256723D01*
X146766792Y-125256723D02*
X146814411Y-125351961D01*
X146814411Y-125351961D02*
X146909649Y-125447200D01*
X146909649Y-125447200D02*
X147052506Y-125494819D01*
X147052506Y-125494819D02*
X147290601Y-125494819D01*
X145576315Y-125447200D02*
X145433458Y-125494819D01*
X145433458Y-125494819D02*
X145195363Y-125494819D01*
X145195363Y-125494819D02*
X145100125Y-125447200D01*
X145100125Y-125447200D02*
X145052506Y-125399580D01*
X145052506Y-125399580D02*
X145004887Y-125304342D01*
X145004887Y-125304342D02*
X145004887Y-125209104D01*
X145004887Y-125209104D02*
X145052506Y-125113866D01*
X145052506Y-125113866D02*
X145100125Y-125066247D01*
X145100125Y-125066247D02*
X145195363Y-125018628D01*
X145195363Y-125018628D02*
X145385839Y-124971009D01*
X145385839Y-124971009D02*
X145481077Y-124923390D01*
X145481077Y-124923390D02*
X145528696Y-124875771D01*
X145528696Y-124875771D02*
X145576315Y-124780533D01*
X145576315Y-124780533D02*
X145576315Y-124685295D01*
X145576315Y-124685295D02*
X145528696Y-124590057D01*
X145528696Y-124590057D02*
X145481077Y-124542438D01*
X145481077Y-124542438D02*
X145385839Y-124494819D01*
X145385839Y-124494819D02*
X145147744Y-124494819D01*
X145147744Y-124494819D02*
X145004887Y-124542438D01*
X144623934Y-125209104D02*
X144147744Y-125209104D01*
X144719172Y-125494819D02*
X144385839Y-124494819D01*
X144385839Y-124494819D02*
X144052506Y-125494819D01*
X143719172Y-125494819D02*
X143719172Y-124494819D01*
X143242982Y-125494819D02*
X143242982Y-124494819D01*
X143242982Y-124494819D02*
X143004887Y-124494819D01*
X143004887Y-124494819D02*
X142862030Y-124542438D01*
X142862030Y-124542438D02*
X142766792Y-124637676D01*
X142766792Y-124637676D02*
X142719173Y-124732914D01*
X142719173Y-124732914D02*
X142671554Y-124923390D01*
X142671554Y-124923390D02*
X142671554Y-125066247D01*
X142671554Y-125066247D02*
X142719173Y-125256723D01*
X142719173Y-125256723D02*
X142766792Y-125351961D01*
X142766792Y-125351961D02*
X142862030Y-125447200D01*
X142862030Y-125447200D02*
X143004887Y-125494819D01*
X143004887Y-125494819D02*
X143242982Y-125494819D01*
X141004887Y-125494819D02*
X141481077Y-125494819D01*
X141481077Y-125494819D02*
X141481077Y-124494819D01*
X140671553Y-124971009D02*
X140338220Y-124971009D01*
X140195363Y-125494819D02*
X140671553Y-125494819D01*
X140671553Y-125494819D02*
X140671553Y-124494819D01*
X140671553Y-124494819D02*
X140195363Y-124494819D01*
X139909648Y-124494819D02*
X139338220Y-124494819D01*
X139623934Y-125494819D02*
X139623934Y-124494819D01*
X138385838Y-124494819D02*
X137814410Y-124494819D01*
X138100124Y-125494819D02*
X138100124Y-124494819D01*
X137481076Y-125494819D02*
X137481076Y-124494819D01*
X137481076Y-124971009D02*
X136909648Y-124971009D01*
X136909648Y-125494819D02*
X136909648Y-124494819D01*
X136433457Y-124971009D02*
X136100124Y-124971009D01*
X135957267Y-125494819D02*
X136433457Y-125494819D01*
X136433457Y-125494819D02*
X136433457Y-124494819D01*
X136433457Y-124494819D02*
X135957267Y-124494819D01*
X134957267Y-125494819D02*
X135290600Y-125018628D01*
X135528695Y-125494819D02*
X135528695Y-124494819D01*
X135528695Y-124494819D02*
X135147743Y-124494819D01*
X135147743Y-124494819D02*
X135052505Y-124542438D01*
X135052505Y-124542438D02*
X135004886Y-124590057D01*
X135004886Y-124590057D02*
X134957267Y-124685295D01*
X134957267Y-124685295D02*
X134957267Y-124828152D01*
X134957267Y-124828152D02*
X135004886Y-124923390D01*
X135004886Y-124923390D02*
X135052505Y-124971009D01*
X135052505Y-124971009D02*
X135147743Y-125018628D01*
X135147743Y-125018628D02*
X135528695Y-125018628D01*
X134528695Y-124971009D02*
X134195362Y-124971009D01*
X134052505Y-125494819D02*
X134528695Y-125494819D01*
X134528695Y-125494819D02*
X134528695Y-124494819D01*
X134528695Y-124494819D02*
X134052505Y-124494819D01*
X132528695Y-124971009D02*
X132385838Y-125018628D01*
X132385838Y-125018628D02*
X132338219Y-125066247D01*
X132338219Y-125066247D02*
X132290600Y-125161485D01*
X132290600Y-125161485D02*
X132290600Y-125304342D01*
X132290600Y-125304342D02*
X132338219Y-125399580D01*
X132338219Y-125399580D02*
X132385838Y-125447200D01*
X132385838Y-125447200D02*
X132481076Y-125494819D01*
X132481076Y-125494819D02*
X132862028Y-125494819D01*
X132862028Y-125494819D02*
X132862028Y-124494819D01*
X132862028Y-124494819D02*
X132528695Y-124494819D01*
X132528695Y-124494819D02*
X132433457Y-124542438D01*
X132433457Y-124542438D02*
X132385838Y-124590057D01*
X132385838Y-124590057D02*
X132338219Y-124685295D01*
X132338219Y-124685295D02*
X132338219Y-124780533D01*
X132338219Y-124780533D02*
X132385838Y-124875771D01*
X132385838Y-124875771D02*
X132433457Y-124923390D01*
X132433457Y-124923390D02*
X132528695Y-124971009D01*
X132528695Y-124971009D02*
X132862028Y-124971009D01*
X131862028Y-124971009D02*
X131528695Y-124971009D01*
X131385838Y-125494819D02*
X131862028Y-125494819D01*
X131862028Y-125494819D02*
X131862028Y-124494819D01*
X131862028Y-124494819D02*
X131385838Y-124494819D01*
X129719171Y-125494819D02*
X130195361Y-125494819D01*
X130195361Y-125494819D02*
X130195361Y-124494819D01*
X129385837Y-125494819D02*
X129385837Y-124494819D01*
X128385838Y-124542438D02*
X128481076Y-124494819D01*
X128481076Y-124494819D02*
X128623933Y-124494819D01*
X128623933Y-124494819D02*
X128766790Y-124542438D01*
X128766790Y-124542438D02*
X128862028Y-124637676D01*
X128862028Y-124637676D02*
X128909647Y-124732914D01*
X128909647Y-124732914D02*
X128957266Y-124923390D01*
X128957266Y-124923390D02*
X128957266Y-125066247D01*
X128957266Y-125066247D02*
X128909647Y-125256723D01*
X128909647Y-125256723D02*
X128862028Y-125351961D01*
X128862028Y-125351961D02*
X128766790Y-125447200D01*
X128766790Y-125447200D02*
X128623933Y-125494819D01*
X128623933Y-125494819D02*
X128528695Y-125494819D01*
X128528695Y-125494819D02*
X128385838Y-125447200D01*
X128385838Y-125447200D02*
X128338219Y-125399580D01*
X128338219Y-125399580D02*
X128338219Y-125066247D01*
X128338219Y-125066247D02*
X128528695Y-125066247D01*
X127909647Y-125494819D02*
X127909647Y-124494819D01*
X127909647Y-124971009D02*
X127338219Y-124971009D01*
X127338219Y-125494819D02*
X127338219Y-124494819D01*
X127004885Y-124494819D02*
X126433457Y-124494819D01*
X126719171Y-125494819D02*
X126719171Y-124494819D01*
G36*
X161312371Y-101834672D02*
G01*
X161246908Y-101900136D01*
X161181444Y-101834672D01*
X161246908Y-101769208D01*
X161312371Y-101834672D01*
G37*
G36*
X161312371Y-99739827D02*
G01*
X161246908Y-99805291D01*
X161181444Y-99739827D01*
X161246908Y-99674363D01*
X161312371Y-99739827D01*
G37*
G36*
X139971134Y-107464569D02*
G01*
X139905670Y-107530033D01*
X139840207Y-107464569D01*
X139905670Y-107399105D01*
X139971134Y-107464569D01*
G37*
G36*
X161205993Y-94347811D02*
G01*
X161266595Y-94394938D01*
X161126890Y-94426913D01*
X160994095Y-94417656D01*
X160955048Y-94358147D01*
X161001368Y-94332203D01*
X161205993Y-94347811D01*
G37*
G36*
X156754446Y-94478739D02*
G01*
X156815048Y-94525866D01*
X156675344Y-94557841D01*
X156542549Y-94548584D01*
X156503501Y-94489075D01*
X156549822Y-94463130D01*
X156754446Y-94478739D01*
G37*
G36*
X138039949Y-106526827D02*
G01*
X138062158Y-106572290D01*
X137876289Y-106592866D01*
X137696182Y-106574615D01*
X137712629Y-106526827D01*
X137771894Y-106509535D01*
X138039949Y-106526827D01*
G37*
G36*
X160584722Y-94580388D02*
G01*
X160540416Y-94627199D01*
X160322686Y-94699105D01*
X160172061Y-94682321D01*
X160169154Y-94617249D01*
X160396057Y-94530194D01*
X160542829Y-94513477D01*
X160584722Y-94580388D01*
G37*
G36*
X160825911Y-100739433D02*
G01*
X160854124Y-100852714D01*
X160803025Y-100906820D01*
X160576814Y-100983641D01*
X160489554Y-100965994D01*
X160461341Y-100852714D01*
X160512440Y-100798607D01*
X160738650Y-100721786D01*
X160825911Y-100739433D01*
G37*
G36*
X160229725Y-102464044D02*
G01*
X160252236Y-102470522D01*
X160271620Y-102510372D01*
X160068557Y-102529251D01*
X160037551Y-102529431D01*
X159832589Y-102511877D01*
X159836942Y-102468895D01*
X159944524Y-102444876D01*
X160229725Y-102464044D01*
G37*
G36*
X159623124Y-101585643D02*
G01*
X159779950Y-101676610D01*
X159835634Y-101742999D01*
X159675774Y-101751518D01*
X159448245Y-101727142D01*
X159086598Y-101650568D01*
X158907065Y-101596031D01*
X158855206Y-101544052D01*
X159033949Y-101484693D01*
X159286477Y-101478856D01*
X159623124Y-101585643D01*
G37*
G36*
X158650625Y-93795213D02*
G01*
X158853770Y-93877505D01*
X158868228Y-93991224D01*
X158663025Y-94082739D01*
X158464051Y-94120770D01*
X158268299Y-94157564D01*
X158222423Y-94142995D01*
X158170103Y-93979002D01*
X158232236Y-93852290D01*
X158489696Y-93782610D01*
X158650625Y-93795213D01*
G37*
G36*
X140260167Y-97724990D02*
G01*
X140386340Y-97796861D01*
X140440928Y-97896264D01*
X140276533Y-98043994D01*
X140122918Y-98158591D01*
X140020232Y-98229993D01*
X140009540Y-98153706D01*
X140003866Y-97910990D01*
X140007927Y-97785488D01*
X140070673Y-97658907D01*
X140260167Y-97724990D01*
G37*
G36*
X117601597Y-93421478D02*
G01*
X117713402Y-93520755D01*
X117713245Y-93524441D01*
X117592000Y-93614433D01*
X117312892Y-93651683D01*
X117299190Y-93651619D01*
X117044461Y-93613481D01*
X116993299Y-93520755D01*
X117116584Y-93438102D01*
X117393810Y-93389827D01*
X117601597Y-93421478D01*
G37*
G36*
X160251416Y-98630279D02*
G01*
X160541580Y-98675881D01*
X160657732Y-98757868D01*
X160644378Y-98787217D01*
X160461970Y-98859758D01*
X160134021Y-98888796D01*
X160016626Y-98885457D01*
X159726462Y-98839856D01*
X159610310Y-98757868D01*
X159623664Y-98728520D01*
X159806072Y-98655979D01*
X160134021Y-98626940D01*
X160251416Y-98630279D01*
G37*
G36*
X157906877Y-94854603D02*
G01*
X157986778Y-94884050D01*
X157842784Y-94960961D01*
X157835489Y-94964022D01*
X157516749Y-95040271D01*
X157122681Y-95069636D01*
X157104362Y-95069475D01*
X156832891Y-95060581D01*
X156802098Y-95030007D01*
X156991753Y-94960961D01*
X157299333Y-94891907D01*
X157711856Y-94852286D01*
X157906877Y-94854603D01*
G37*
G36*
X154538088Y-94763811D02*
G01*
X154950512Y-94835300D01*
X155248352Y-94936112D01*
X155314675Y-94966700D01*
X155672958Y-95062122D01*
X156099383Y-95109124D01*
X156664433Y-95126360D01*
X156206186Y-95222817D01*
X155916259Y-95266987D01*
X155417634Y-95312247D01*
X154884468Y-95336509D01*
X154682300Y-95338832D01*
X154249613Y-95318390D01*
X153978443Y-95245586D01*
X153795784Y-95104887D01*
X153675653Y-94918918D01*
X153689487Y-94782535D01*
X153787821Y-94750017D01*
X154115663Y-94731948D01*
X154538088Y-94763811D01*
G37*
G36*
X122537713Y-87901913D02*
G01*
X122757975Y-87945652D01*
X123252294Y-88024850D01*
X123770583Y-88090798D01*
X124093062Y-88137953D01*
X124373885Y-88216132D01*
X124447320Y-88297987D01*
X124438852Y-88306397D01*
X124249559Y-88345904D01*
X123872467Y-88361812D01*
X123370494Y-88357243D01*
X122806558Y-88335315D01*
X122243577Y-88299150D01*
X121744467Y-88251867D01*
X121372148Y-88196587D01*
X121189536Y-88136429D01*
X121182377Y-88056825D01*
X121385928Y-88019781D01*
X121617063Y-87995468D01*
X121883074Y-87906001D01*
X121910147Y-87892346D01*
X122177099Y-87858807D01*
X122537713Y-87901913D01*
G37*
G36*
X117568771Y-87621668D02*
G01*
X117722666Y-87672730D01*
X118109049Y-87750836D01*
X118639402Y-87829471D01*
X119246470Y-87897576D01*
X119708792Y-87943153D01*
X120246349Y-88000812D01*
X120649750Y-88049589D01*
X120855670Y-88082217D01*
X120861069Y-88083962D01*
X120773044Y-88095529D01*
X120463307Y-88099491D01*
X119967919Y-88096073D01*
X119322941Y-88085497D01*
X118564433Y-88067989D01*
X117766211Y-88048010D01*
X117041324Y-88031350D01*
X116437840Y-88019000D01*
X116002542Y-88011917D01*
X115782217Y-88011058D01*
X115598397Y-87989651D01*
X115487629Y-87899446D01*
X115547885Y-87852767D01*
X115804788Y-87807411D01*
X116194978Y-87796601D01*
X116439789Y-87793463D01*
X116852612Y-87742686D01*
X117103104Y-87646533D01*
X117289233Y-87551175D01*
X117568771Y-87621668D01*
G37*
G36*
X161266033Y-95149569D02*
G01*
X161312371Y-95411305D01*
X161287033Y-95600359D01*
X161148185Y-95721281D01*
X160821392Y-95777857D01*
X160556408Y-95794767D01*
X160075558Y-95809533D01*
X159470604Y-95817895D01*
X158789789Y-95820284D01*
X158081356Y-95817129D01*
X157393547Y-95808860D01*
X156774605Y-95795908D01*
X156272773Y-95778701D01*
X155936295Y-95757669D01*
X155813413Y-95733243D01*
X155814607Y-95727643D01*
X155959258Y-95672223D01*
X156309004Y-95623940D01*
X156812084Y-95585166D01*
X157416737Y-95558271D01*
X158071204Y-95545624D01*
X158723724Y-95549595D01*
X159322537Y-95572556D01*
X159899671Y-95603081D01*
X160294784Y-95606726D01*
X160544378Y-95574347D01*
X160707123Y-95498133D01*
X160841684Y-95370272D01*
X160872134Y-95336808D01*
X161121864Y-95124962D01*
X161266033Y-95149569D01*
G37*
G36*
X159623586Y-88436986D02*
G01*
X159722101Y-88508096D01*
X159741237Y-88661339D01*
X159777723Y-88837483D01*
X159935129Y-88919024D01*
X160283247Y-88938281D01*
X160698884Y-88891101D01*
X161014038Y-88709157D01*
X161104958Y-88600809D01*
X161171193Y-88552668D01*
X161130777Y-88709157D01*
X161112345Y-88837693D01*
X161185553Y-88938281D01*
X161262219Y-88995453D01*
X161312371Y-89217472D01*
X161312371Y-89496663D01*
X156435310Y-89409474D01*
X156423211Y-89409257D01*
X155297362Y-89387371D01*
X154236713Y-89363474D01*
X153274033Y-89338547D01*
X152442096Y-89313575D01*
X151773671Y-89289540D01*
X151301531Y-89267424D01*
X151058446Y-89248211D01*
X150829493Y-89208264D01*
X150637600Y-89143927D01*
X150685330Y-89087409D01*
X150958665Y-89041998D01*
X151443585Y-89010985D01*
X152126073Y-88997660D01*
X152128889Y-88997647D01*
X153618273Y-88988278D01*
X154862348Y-88973818D01*
X155877592Y-88953555D01*
X156680486Y-88926780D01*
X157287510Y-88892783D01*
X157715144Y-88850854D01*
X157979868Y-88800283D01*
X158098162Y-88740360D01*
X158222990Y-88659320D01*
X158554471Y-88552263D01*
X158988402Y-88474299D01*
X159384031Y-88432690D01*
X159623586Y-88436986D01*
G37*
G36*
X148549005Y-98305347D02*
G01*
X148850473Y-98571390D01*
X149195617Y-99086880D01*
X149316909Y-99305674D01*
X149493172Y-99766033D01*
X149491775Y-100171912D01*
X149320166Y-100614660D01*
X149265380Y-100736596D01*
X149180480Y-101073696D01*
X149145553Y-101544600D01*
X149154079Y-102212024D01*
X149160681Y-102468462D01*
X149157594Y-102982968D01*
X149133027Y-103374676D01*
X149090227Y-103574271D01*
X149073916Y-103608762D01*
X149039368Y-103879625D01*
X149069161Y-104248206D01*
X149074668Y-104282266D01*
X149092395Y-104651635D01*
X149014393Y-104840303D01*
X148987957Y-104865910D01*
X148906880Y-105092611D01*
X148874227Y-105442915D01*
X148874191Y-105468092D01*
X148852852Y-105789990D01*
X148760688Y-105928979D01*
X148551514Y-105958899D01*
X148487038Y-105954148D01*
X148195663Y-105810516D01*
X148011024Y-105538455D01*
X148006429Y-105235279D01*
X148004079Y-105004395D01*
X147899361Y-104689067D01*
X147859560Y-104581353D01*
X147771889Y-104195745D01*
X147692734Y-103667652D01*
X147635437Y-103078487D01*
X147618912Y-102870336D01*
X147546085Y-102198703D01*
X147451919Y-101559607D01*
X147352528Y-101067596D01*
X147280390Y-100744434D01*
X147231944Y-100110490D01*
X147358803Y-99537745D01*
X147676924Y-98920589D01*
X147971820Y-98510073D01*
X148264893Y-98285868D01*
X148549005Y-98305347D01*
G37*
G36*
X141550098Y-95699330D02*
G01*
X141661891Y-95976694D01*
X141782290Y-96425879D01*
X141762693Y-96786224D01*
X141761963Y-96799647D01*
X141604370Y-97193236D01*
X141408283Y-97492194D01*
X141235843Y-97560808D01*
X141098137Y-97372699D01*
X141073196Y-97320919D01*
X140914711Y-97223981D01*
X140593150Y-97255565D01*
X140579849Y-97258411D01*
X140250380Y-97355442D01*
X140043145Y-97462383D01*
X139952892Y-97519266D01*
X139683093Y-97579518D01*
X139616195Y-97585631D01*
X139484200Y-97702466D01*
X139447423Y-98013673D01*
X139432901Y-98239981D01*
X139346783Y-98417834D01*
X139130812Y-98566965D01*
X138726869Y-98746481D01*
X138433537Y-98876456D01*
X137935617Y-99127186D01*
X137542704Y-99359748D01*
X137446642Y-99420701D01*
X137067114Y-99601581D01*
X136749861Y-99674363D01*
X136547437Y-99707770D01*
X136501547Y-99805291D01*
X136510066Y-99820457D01*
X136479999Y-99925443D01*
X136285596Y-99946116D01*
X135998516Y-99894640D01*
X135690414Y-99783179D01*
X135432948Y-99623895D01*
X135207976Y-99408167D01*
X135156428Y-99252880D01*
X135261980Y-99080070D01*
X135369186Y-98901530D01*
X135419214Y-98639559D01*
X135417780Y-98628029D01*
X135486413Y-98386350D01*
X135681077Y-98103229D01*
X135933665Y-97777997D01*
X136174227Y-97383126D01*
X136195379Y-97343936D01*
X136409048Y-97038007D01*
X136425083Y-97018695D01*
X140807652Y-97018695D01*
X140985825Y-97040619D01*
X141205988Y-96997655D01*
X141280413Y-96786224D01*
X141252270Y-96637484D01*
X141147349Y-96598879D01*
X141105843Y-96634009D01*
X141083488Y-96793089D01*
X141082519Y-96865981D01*
X140921964Y-96965246D01*
X140880865Y-96976472D01*
X140807652Y-97018695D01*
X136425083Y-97018695D01*
X136739099Y-96640503D01*
X137123454Y-96227033D01*
X137234427Y-96113423D01*
X137561698Y-95763845D01*
X137632639Y-95681064D01*
X140887629Y-95681064D01*
X140953093Y-95746528D01*
X141018557Y-95681064D01*
X140953093Y-95615600D01*
X140887629Y-95681064D01*
X137632639Y-95681064D01*
X137790311Y-95497078D01*
X137876289Y-95363562D01*
X137938338Y-95241806D01*
X138128616Y-95035048D01*
X138151821Y-95015274D01*
X138406760Y-94888003D01*
X138823414Y-94805216D01*
X139451319Y-94756481D01*
X140013677Y-94746085D01*
X140594090Y-94804550D01*
X141009541Y-94967598D01*
X141311164Y-95258201D01*
X141540204Y-95681064D01*
X141550098Y-95699330D01*
G37*
G36*
X131577501Y-82205145D02*
G01*
X132040752Y-82262735D01*
X132514569Y-82349139D01*
X132914933Y-82451173D01*
X133157825Y-82555652D01*
X133575216Y-82892459D01*
X134132142Y-83465588D01*
X134481826Y-84017023D01*
X134603093Y-84518013D01*
X134607373Y-84582625D01*
X134693227Y-84929145D01*
X134854628Y-85317521D01*
X134888607Y-85388079D01*
X135052592Y-85998025D01*
X135028484Y-86622230D01*
X134818259Y-87160477D01*
X134675483Y-87460275D01*
X134603093Y-87811965D01*
X134561096Y-88025984D01*
X134341237Y-88218178D01*
X134188357Y-88301267D01*
X134079382Y-88483797D01*
X134026059Y-88617962D01*
X133810993Y-88900999D01*
X133478059Y-89253044D01*
X133078182Y-89621299D01*
X132662285Y-89952971D01*
X132489461Y-90076027D01*
X132249496Y-90218651D01*
X132140925Y-90208392D01*
X132115464Y-90054185D01*
X132051100Y-89889903D01*
X131820050Y-89673325D01*
X131522126Y-89523225D01*
X131265444Y-89508951D01*
X131173768Y-89565600D01*
X131068042Y-89771195D01*
X131063793Y-89820225D01*
X130928632Y-90002570D01*
X130678795Y-90044955D01*
X130416891Y-89923396D01*
X130233044Y-89780683D01*
X130023605Y-89751028D01*
X129821802Y-89945698D01*
X129706502Y-90077038D01*
X129566637Y-90087862D01*
X129320331Y-89945262D01*
X129101465Y-89809310D01*
X129024140Y-89805448D01*
X129062927Y-89952536D01*
X129115374Y-90079601D01*
X129254241Y-90325069D01*
X129291276Y-90390723D01*
X129277559Y-90554193D01*
X129152455Y-90613421D01*
X128845000Y-90579225D01*
X128467589Y-90417957D01*
X128087825Y-90169188D01*
X127773313Y-89872486D01*
X127591657Y-89567421D01*
X127585359Y-89548437D01*
X127425841Y-89232002D01*
X127187755Y-88895503D01*
X127104520Y-88789526D01*
X126922224Y-88472393D01*
X126886967Y-88241796D01*
X127011773Y-88152714D01*
X127081476Y-88073646D01*
X127063043Y-87825394D01*
X127039081Y-87593019D01*
X127151697Y-87498074D01*
X127184186Y-87469854D01*
X127108660Y-87309672D01*
X126893136Y-87055081D01*
X126463770Y-86612088D01*
X126749354Y-86346026D01*
X126784146Y-86312655D01*
X126962295Y-86037057D01*
X126948653Y-85687111D01*
X126921965Y-85402507D01*
X127037162Y-85185084D01*
X127176512Y-85061868D01*
X127424510Y-84746388D01*
X127655545Y-84370059D01*
X127797823Y-84040878D01*
X127884505Y-83871291D01*
X128125143Y-83648094D01*
X128292937Y-83535902D01*
X128488723Y-83341116D01*
X128548224Y-83274774D01*
X128790988Y-83177456D01*
X128877662Y-83157401D01*
X129153300Y-83014186D01*
X129485010Y-82778491D01*
X129522416Y-82749105D01*
X129987823Y-82472033D01*
X130426559Y-82349851D01*
X130446898Y-82348405D01*
X130796006Y-82297976D01*
X131028605Y-82221522D01*
X131208836Y-82189554D01*
X131577501Y-82205145D01*
G37*
G36*
X141937398Y-108243965D02*
G01*
X141803981Y-108488274D01*
X141621514Y-108655748D01*
X141464641Y-108664131D01*
X141134389Y-108562654D01*
X140779425Y-108367816D01*
X140502010Y-108127841D01*
X140464327Y-108080939D01*
X140453994Y-108053745D01*
X141149485Y-108053745D01*
X141153290Y-108085040D01*
X141280413Y-108184672D01*
X141311708Y-108180868D01*
X141411341Y-108053745D01*
X141407536Y-108022449D01*
X141280413Y-107922817D01*
X141249118Y-107926621D01*
X141149485Y-108053745D01*
X140453994Y-108053745D01*
X140415303Y-107951914D01*
X140594472Y-107922817D01*
X140754572Y-107880724D01*
X140925565Y-107660961D01*
X141016656Y-107499201D01*
X141300887Y-107401110D01*
X141334807Y-107401587D01*
X141501248Y-107431268D01*
X141427299Y-107517400D01*
X141322563Y-107668199D01*
X141392460Y-107842190D01*
X141615459Y-107922817D01*
X141637586Y-107921889D01*
X141803112Y-107796916D01*
X141815870Y-107486027D01*
X141856961Y-107407105D01*
X142062222Y-107307097D01*
X142104473Y-107295838D01*
X142276276Y-107221795D01*
X142312492Y-107076358D01*
X142243377Y-106769793D01*
X142154265Y-106583333D01*
X141968438Y-106542267D01*
X141870923Y-106559192D01*
X141822564Y-106452833D01*
X141862339Y-106147887D01*
X141882085Y-106019658D01*
X141857376Y-105621427D01*
X141663024Y-105197063D01*
X141437757Y-104817486D01*
X141181473Y-104370753D01*
X141030312Y-104068153D01*
X140965332Y-103860952D01*
X140967592Y-103700412D01*
X141018152Y-103537800D01*
X141159075Y-103318450D01*
X141422318Y-103223335D01*
X141823340Y-103297048D01*
X142393299Y-103539632D01*
X142658153Y-103658875D01*
X143069660Y-103805211D01*
X143364949Y-103862857D01*
X143594774Y-103899782D01*
X143888660Y-104046792D01*
X143967769Y-104104460D01*
X144284439Y-104270630D01*
X144684536Y-104429915D01*
X145092887Y-104578351D01*
X145647937Y-104824974D01*
X146000990Y-105050079D01*
X146124743Y-105238340D01*
X146123932Y-105258500D01*
X146002785Y-105546113D01*
X145730013Y-105865089D01*
X145383480Y-106139594D01*
X145041049Y-106293792D01*
X144998171Y-106304500D01*
X144608571Y-106480021D01*
X144248818Y-106747340D01*
X144016614Y-106941188D01*
X143455821Y-107183988D01*
X142818815Y-107176589D01*
X142547247Y-107181263D01*
X142457234Y-107328497D01*
X142562407Y-107594567D01*
X142861302Y-107952714D01*
X143008327Y-108095904D01*
X143235964Y-108260253D01*
X143476960Y-108291108D01*
X143850985Y-108220895D01*
X143996226Y-108188732D01*
X144303927Y-108145882D01*
X144480894Y-108198871D01*
X144617931Y-108364728D01*
X144739203Y-108591506D01*
X144878022Y-108970239D01*
X144893191Y-109033965D01*
X144905155Y-109184898D01*
X144817449Y-109264531D01*
X144576012Y-109297081D01*
X144126784Y-109306764D01*
X143295254Y-109315969D01*
X142904542Y-108652917D01*
X142621554Y-108233821D01*
X142340047Y-107981604D01*
X142111761Y-107984886D01*
X142065418Y-108053745D01*
X141937398Y-108243965D01*
G37*
G36*
X143750452Y-112374363D02*
G01*
X143798623Y-112380090D01*
X144063266Y-112514467D01*
X144340629Y-112771311D01*
X144410574Y-112852529D01*
X144624555Y-113075870D01*
X144745638Y-113162928D01*
X144783766Y-113173496D01*
X145011241Y-113271251D01*
X145389166Y-113449761D01*
X145860567Y-113682475D01*
X146448270Y-113966940D01*
X146871176Y-114137851D01*
X147132873Y-114186413D01*
X147265974Y-114118443D01*
X147303093Y-113939758D01*
X147336021Y-113785570D01*
X147466753Y-113703570D01*
X147630014Y-113701357D01*
X147931283Y-113633029D01*
X148124418Y-113597387D01*
X148420953Y-113687769D01*
X148427469Y-113693136D01*
X148593819Y-113763956D01*
X148709258Y-113600390D01*
X148809066Y-113464438D01*
X149068826Y-113356322D01*
X149225276Y-113316278D01*
X149378560Y-113094466D01*
X149457223Y-112874702D01*
X149650728Y-112719641D01*
X149886983Y-112792706D01*
X150047279Y-112835366D01*
X150286849Y-112728566D01*
X150490348Y-112503301D01*
X150576289Y-112226505D01*
X150576464Y-112219143D01*
X150690835Y-111996654D01*
X150953189Y-111793402D01*
X151011926Y-111760596D01*
X151303056Y-111477104D01*
X151505484Y-111004472D01*
X151568118Y-110813568D01*
X151695824Y-110524326D01*
X151798486Y-110410446D01*
X151860797Y-110331577D01*
X151855438Y-110093147D01*
X151861793Y-109838508D01*
X152046896Y-109709920D01*
X152050889Y-109708867D01*
X152163984Y-109658917D01*
X152230948Y-109549155D01*
X152258193Y-109329269D01*
X152252128Y-108948950D01*
X152219163Y-108357889D01*
X152197192Y-108060680D01*
X152132042Y-107450359D01*
X152050983Y-106923696D01*
X151966588Y-106569707D01*
X151883002Y-106237365D01*
X151899475Y-105522285D01*
X151962034Y-105124834D01*
X152005569Y-104491443D01*
X151976391Y-103951108D01*
X151875485Y-103583360D01*
X151809682Y-103386260D01*
X151823443Y-103100988D01*
X151825135Y-103096551D01*
X151862309Y-102875422D01*
X151898313Y-102454000D01*
X151929115Y-101891089D01*
X151950683Y-101245497D01*
X151951805Y-101198112D01*
X151969458Y-100567830D01*
X151989198Y-100034386D01*
X152008693Y-99652769D01*
X152025613Y-99477971D01*
X152037086Y-99282931D01*
X152014027Y-98888945D01*
X151962023Y-98386660D01*
X151890656Y-97855214D01*
X151809509Y-97373748D01*
X151728164Y-97021399D01*
X151681981Y-96823339D01*
X151647564Y-96422729D01*
X151664517Y-95878458D01*
X151732985Y-95134002D01*
X151785723Y-94675997D01*
X151850428Y-94178267D01*
X151904879Y-93828716D01*
X151941019Y-93683516D01*
X152056434Y-93641998D01*
X152294603Y-93732333D01*
X152546352Y-93958202D01*
X152738823Y-94266376D01*
X152901094Y-94810122D01*
X152891176Y-95385091D01*
X152678455Y-96024598D01*
X152677660Y-96026376D01*
X152531165Y-96397224D01*
X152506461Y-96624658D01*
X152594452Y-96791731D01*
X152599319Y-96797504D01*
X152760322Y-97064575D01*
X152909647Y-97421616D01*
X152986444Y-97591218D01*
X153242153Y-97973483D01*
X153570870Y-98338111D01*
X153950444Y-98725332D01*
X154396294Y-99250853D01*
X154788617Y-99783642D01*
X155081951Y-100261182D01*
X155230837Y-100620953D01*
X155299050Y-100825140D01*
X155559383Y-101119561D01*
X155940730Y-101202522D01*
X156401897Y-101058628D01*
X156841846Y-100821700D01*
X157505975Y-101252040D01*
X157801816Y-101462382D01*
X158067655Y-101698816D01*
X158170103Y-101859324D01*
X158178975Y-101917179D01*
X158282416Y-102185602D01*
X158464691Y-102528130D01*
X158625309Y-102806585D01*
X158890991Y-103290156D01*
X159152062Y-103785866D01*
X159357152Y-104142322D01*
X159702198Y-104637628D01*
X160035825Y-105020442D01*
X160211166Y-105199812D01*
X160438029Y-105481813D01*
X160526804Y-105669931D01*
X160527112Y-105677222D01*
X160647392Y-105845481D01*
X160919588Y-105998976D01*
X161312371Y-106147236D01*
X161312371Y-114628841D01*
X161312371Y-123110446D01*
X158794788Y-123110446D01*
X158598358Y-123110404D01*
X157764034Y-123107789D01*
X157133748Y-123097577D01*
X156659360Y-123074879D01*
X156292726Y-123034806D01*
X155985705Y-122972470D01*
X155690154Y-122882983D01*
X155357932Y-122761456D01*
X155095329Y-122655037D01*
X154492161Y-122382518D01*
X153821769Y-122052974D01*
X153186740Y-121715807D01*
X152790970Y-121500024D01*
X152246009Y-121216577D01*
X151787085Y-120993232D01*
X151484678Y-120865211D01*
X151182337Y-120731886D01*
X150736038Y-120488192D01*
X150275855Y-120199949D01*
X149864671Y-119939235D01*
X149426492Y-119692892D01*
X149100603Y-119543407D01*
X148725178Y-119396906D01*
X148353615Y-119225743D01*
X148170838Y-119143950D01*
X147808810Y-119059683D01*
X147539547Y-119094965D01*
X147434021Y-119248074D01*
X147423101Y-119304677D01*
X147308411Y-119389407D01*
X147029447Y-119432469D01*
X146537818Y-119444466D01*
X146283321Y-119449373D01*
X145728487Y-119521838D01*
X145388832Y-119696757D01*
X145238024Y-119994378D01*
X145249733Y-120434949D01*
X145326441Y-120907645D01*
X144987635Y-120568839D01*
X144767685Y-120385349D01*
X144468633Y-120246817D01*
X144247717Y-120268854D01*
X144162830Y-120459157D01*
X144174408Y-120580203D01*
X144261026Y-120837225D01*
X144353558Y-120926215D01*
X144617167Y-121082431D01*
X144942171Y-121225054D01*
X145232969Y-121314193D01*
X145393961Y-121309956D01*
X145433544Y-121301019D01*
X145470103Y-121442674D01*
X145477972Y-121473848D01*
X145511868Y-121608124D01*
X145683726Y-121865158D01*
X145733591Y-121916978D01*
X145822666Y-122067305D01*
X145796535Y-122261525D01*
X145650995Y-122593111D01*
X145404640Y-123107441D01*
X130446134Y-123108943D01*
X115487629Y-123110446D01*
X115487629Y-121473848D01*
X137876289Y-121473848D01*
X137941753Y-121539312D01*
X138007217Y-121473848D01*
X137941753Y-121408384D01*
X137876289Y-121473848D01*
X115487629Y-121473848D01*
X115487629Y-112652250D01*
X115487687Y-111923357D01*
X115488534Y-110091642D01*
X115490634Y-108499174D01*
X115494291Y-107129374D01*
X115499814Y-105965665D01*
X115507508Y-104991469D01*
X115517681Y-104190210D01*
X115530638Y-103545308D01*
X115546686Y-103040186D01*
X115566131Y-102658267D01*
X115589281Y-102382973D01*
X115616442Y-102197726D01*
X115647919Y-102085949D01*
X115684021Y-102031064D01*
X115788905Y-101919111D01*
X115880413Y-101708005D01*
X115945807Y-101543284D01*
X116142268Y-101310961D01*
X116311933Y-101097712D01*
X116404124Y-100825041D01*
X116408845Y-100781084D01*
X116534265Y-100513357D01*
X116776986Y-100223426D01*
X116950208Y-100041589D01*
X117275491Y-99646192D01*
X117586255Y-99216116D01*
X117781932Y-98936546D01*
X118088625Y-98539988D01*
X118339900Y-98260518D01*
X118387852Y-98216974D01*
X118627940Y-98053967D01*
X118797218Y-98010260D01*
X118840642Y-98083944D01*
X118703168Y-98273110D01*
X118605087Y-98375849D01*
X118552965Y-98497601D01*
X118693158Y-98578748D01*
X118795890Y-98650463D01*
X118833510Y-98851727D01*
X118863284Y-99051696D01*
X119055109Y-99291291D01*
X119350000Y-99539859D01*
X119038529Y-99784069D01*
X118727058Y-100028280D01*
X119267653Y-100114724D01*
X119400421Y-100142847D01*
X119683489Y-100264821D01*
X119821435Y-100413050D01*
X119785367Y-100538180D01*
X119546392Y-100590858D01*
X119449222Y-100597424D01*
X119296625Y-100681404D01*
X119354869Y-100813104D01*
X119611856Y-100929877D01*
X119828319Y-101011342D01*
X119939176Y-101119940D01*
X119989618Y-101199432D01*
X120201031Y-101310961D01*
X120364922Y-101415658D01*
X120462887Y-101721175D01*
X120480206Y-101921959D01*
X120573862Y-102239157D01*
X120713432Y-102453882D01*
X120858401Y-102487624D01*
X120960286Y-102521431D01*
X121059776Y-102735287D01*
X121126245Y-102891890D01*
X121352228Y-103207679D01*
X121656761Y-103523650D01*
X121965750Y-103766783D01*
X122205102Y-103864054D01*
X122330296Y-103877151D01*
X122484997Y-103999794D01*
X122409637Y-104212059D01*
X122367870Y-104269192D01*
X122383585Y-104363258D01*
X122621173Y-104387765D01*
X122864511Y-104425152D01*
X122912905Y-104558785D01*
X122914125Y-104638347D01*
X123073746Y-104706321D01*
X123455340Y-104722445D01*
X123698232Y-104722025D01*
X123945194Y-104752300D01*
X124036411Y-104856528D01*
X124038753Y-105075136D01*
X124037219Y-105256000D01*
X124127107Y-105403268D01*
X124398805Y-105435188D01*
X124473718Y-105436727D01*
X124716506Y-105500832D01*
X124783506Y-105689317D01*
X124804752Y-105839780D01*
X124916569Y-106025683D01*
X124957887Y-106061647D01*
X124974306Y-106229802D01*
X124962943Y-106290271D01*
X125095076Y-106351683D01*
X125203564Y-106432932D01*
X125320438Y-106697990D01*
X125403581Y-107061321D01*
X125433678Y-107433428D01*
X125391415Y-107724817D01*
X125394934Y-107869885D01*
X125605914Y-107927525D01*
X125633290Y-107929158D01*
X125940609Y-108030046D01*
X126270106Y-108237925D01*
X126478796Y-108427911D01*
X126565348Y-108610833D01*
X126494623Y-108822391D01*
X126458838Y-108892015D01*
X126416931Y-109060020D01*
X126546425Y-109101167D01*
X126641061Y-109085646D01*
X126747423Y-108970239D01*
X126751228Y-108938944D01*
X126878351Y-108839312D01*
X126951689Y-108882132D01*
X127009279Y-109087159D01*
X127023043Y-109175998D01*
X127159736Y-109368689D01*
X127360998Y-109454636D01*
X127524666Y-109376491D01*
X127567861Y-109369497D01*
X127690931Y-109520690D01*
X127842691Y-109830304D01*
X127927638Y-110019945D01*
X128086032Y-110300205D01*
X128200598Y-110410446D01*
X128252107Y-110429380D01*
X128318557Y-110597905D01*
X128389208Y-110706863D01*
X128614249Y-110751579D01*
X128896733Y-110701982D01*
X129135404Y-110562464D01*
X129216914Y-110491607D01*
X129379233Y-110410446D01*
X129475283Y-110470621D01*
X129647257Y-110706757D01*
X129825075Y-111041746D01*
X129964332Y-111388953D01*
X130020619Y-111661744D01*
X130039569Y-111845015D01*
X130134003Y-111972223D01*
X130261024Y-111883099D01*
X130367578Y-111588796D01*
X130468399Y-111318196D01*
X130675593Y-111196013D01*
X130805036Y-111173299D01*
X131056299Y-111013769D01*
X131159594Y-110917801D01*
X131448516Y-110768512D01*
X131482946Y-110760169D01*
X131631202Y-110780866D01*
X131619371Y-110983487D01*
X131559919Y-111159412D01*
X131454252Y-111326940D01*
X131437007Y-111350183D01*
X131411480Y-111562744D01*
X131442767Y-111901400D01*
X131526289Y-112410395D01*
X131568141Y-112294599D01*
X132136035Y-112294599D01*
X132167290Y-112469831D01*
X132211984Y-112467804D01*
X132236056Y-112297988D01*
X132215090Y-112169293D01*
X132156953Y-112218886D01*
X132136035Y-112294599D01*
X131568141Y-112294599D01*
X131700413Y-111928630D01*
X131796345Y-111696540D01*
X131939201Y-111524707D01*
X132125928Y-111526653D01*
X132299635Y-111545168D01*
X132377320Y-111401227D01*
X132383980Y-111303437D01*
X132432076Y-111196013D01*
X132485218Y-111185863D01*
X132693931Y-111116541D01*
X132841565Y-111109182D01*
X132901031Y-111297662D01*
X132954237Y-111473142D01*
X133195619Y-111655878D01*
X133345018Y-111697346D01*
X133705147Y-111760823D01*
X134072522Y-111793131D01*
X134358966Y-111788422D01*
X134476303Y-111740844D01*
X134482122Y-111719934D01*
X134597266Y-111540826D01*
X134812355Y-111276755D01*
X134930296Y-111150292D01*
X135141496Y-111000947D01*
X135292650Y-111047632D01*
X135518310Y-111165892D01*
X135812849Y-111196096D01*
X136066418Y-111138771D01*
X136174227Y-110999621D01*
X136212380Y-110892819D01*
X136409897Y-110803229D01*
X136540109Y-110785339D01*
X136792593Y-110656203D01*
X136823972Y-110629236D01*
X137012774Y-110604570D01*
X137309758Y-110764625D01*
X137519765Y-110879881D01*
X138044777Y-111073142D01*
X138748181Y-111257963D01*
X139578351Y-111419441D01*
X139757431Y-111441586D01*
X140171781Y-111480376D01*
X140724567Y-111524653D01*
X141345877Y-111568522D01*
X141515633Y-111579888D01*
X142105010Y-111626141D01*
X142504185Y-111678621D01*
X142771127Y-111751879D01*
X142963803Y-111860466D01*
X143140183Y-112018933D01*
X143191408Y-112067901D01*
X143493539Y-112285833D01*
X143528813Y-112297988D01*
X143750452Y-112374363D01*
G37*
%LPC*%
D12*
X169610000Y-72860000D03*
X169000000Y-141400000D03*
X106400000Y-141600000D03*
D13*
X151810000Y-140230000D03*
D14*
X155310000Y-140230000D03*
X158810000Y-140230000D03*
X162310000Y-140230000D03*
D12*
X106260000Y-72780000D03*
%LPD*%
M02*
