G04 #@! TF.GenerationSoftware,KiCad,Pcbnew,7.0.5*
G04 #@! TF.CreationDate,2023-10-10T09:39:28+02:00*
G04 #@! TF.ProjectId,Lichten-PCB,4c696368-7465-46e2-9d50-43422e6b6963,rev?*
G04 #@! TF.SameCoordinates,Original*
G04 #@! TF.FileFunction,Legend,Top*
G04 #@! TF.FilePolarity,Positive*
%FSLAX46Y46*%
G04 Gerber Fmt 4.6, Leading zero omitted, Abs format (unit mm)*
G04 Created by KiCad (PCBNEW 7.0.5) date 2023-10-10 09:39:28*
%MOMM*%
%LPD*%
G01*
G04 APERTURE LIST*
G04 Aperture macros list*
%AMRoundRect*
0 Rectangle with rounded corners*
0 $1 Rounding radius*
0 $2 $3 $4 $5 $6 $7 $8 $9 X,Y pos of 4 corners*
0 Add a 4 corners polygon primitive as box body*
4,1,4,$2,$3,$4,$5,$6,$7,$8,$9,$2,$3,0*
0 Add four circle primitives for the rounded corners*
1,1,$1+$1,$2,$3*
1,1,$1+$1,$4,$5*
1,1,$1+$1,$6,$7*
1,1,$1+$1,$8,$9*
0 Add four rect primitives between the rounded corners*
20,1,$1+$1,$2,$3,$4,$5,0*
20,1,$1+$1,$4,$5,$6,$7,0*
20,1,$1+$1,$6,$7,$8,$9,0*
20,1,$1+$1,$8,$9,$2,$3,0*%
G04 Aperture macros list end*
%ADD10C,0.200000*%
%ADD11C,0.120000*%
%ADD12C,0.150000*%
%ADD13RoundRect,0.225000X0.250000X-0.225000X0.250000X0.225000X-0.250000X0.225000X-0.250000X-0.225000X0*%
%ADD14R,0.900000X1.500000*%
%ADD15R,1.500000X0.900000*%
%ADD16RoundRect,0.225000X0.225000X0.250000X-0.225000X0.250000X-0.225000X-0.250000X0.225000X-0.250000X0*%
%ADD17C,3.800000*%
%ADD18RoundRect,0.225000X-0.225000X-0.250000X0.225000X-0.250000X0.225000X0.250000X-0.225000X0.250000X0*%
%ADD19R,2.400000X2.400000*%
%ADD20C,2.400000*%
G04 APERTURE END LIST*
D10*
X120126816Y-141417219D02*
X120698244Y-141417219D01*
X120412530Y-142417219D02*
X120412530Y-141417219D01*
X121031578Y-142417219D02*
X121031578Y-141417219D01*
X121460149Y-142417219D02*
X121460149Y-141893409D01*
X121460149Y-141893409D02*
X121412530Y-141798171D01*
X121412530Y-141798171D02*
X121317292Y-141750552D01*
X121317292Y-141750552D02*
X121174435Y-141750552D01*
X121174435Y-141750552D02*
X121079197Y-141798171D01*
X121079197Y-141798171D02*
X121031578Y-141845790D01*
X122317292Y-142369600D02*
X122222054Y-142417219D01*
X122222054Y-142417219D02*
X122031578Y-142417219D01*
X122031578Y-142417219D02*
X121936340Y-142369600D01*
X121936340Y-142369600D02*
X121888721Y-142274361D01*
X121888721Y-142274361D02*
X121888721Y-141893409D01*
X121888721Y-141893409D02*
X121936340Y-141798171D01*
X121936340Y-141798171D02*
X122031578Y-141750552D01*
X122031578Y-141750552D02*
X122222054Y-141750552D01*
X122222054Y-141750552D02*
X122317292Y-141798171D01*
X122317292Y-141798171D02*
X122364911Y-141893409D01*
X122364911Y-141893409D02*
X122364911Y-141988647D01*
X122364911Y-141988647D02*
X121888721Y-142083885D01*
X124031578Y-142417219D02*
X123555388Y-142417219D01*
X123555388Y-142417219D02*
X123555388Y-141417219D01*
X124364912Y-142417219D02*
X124364912Y-141750552D01*
X124364912Y-141417219D02*
X124317293Y-141464838D01*
X124317293Y-141464838D02*
X124364912Y-141512457D01*
X124364912Y-141512457D02*
X124412531Y-141464838D01*
X124412531Y-141464838D02*
X124364912Y-141417219D01*
X124364912Y-141417219D02*
X124364912Y-141512457D01*
X125269673Y-141750552D02*
X125269673Y-142560076D01*
X125269673Y-142560076D02*
X125222054Y-142655314D01*
X125222054Y-142655314D02*
X125174435Y-142702933D01*
X125174435Y-142702933D02*
X125079197Y-142750552D01*
X125079197Y-142750552D02*
X124936340Y-142750552D01*
X124936340Y-142750552D02*
X124841102Y-142702933D01*
X125269673Y-142369600D02*
X125174435Y-142417219D01*
X125174435Y-142417219D02*
X124983959Y-142417219D01*
X124983959Y-142417219D02*
X124888721Y-142369600D01*
X124888721Y-142369600D02*
X124841102Y-142321980D01*
X124841102Y-142321980D02*
X124793483Y-142226742D01*
X124793483Y-142226742D02*
X124793483Y-141941028D01*
X124793483Y-141941028D02*
X124841102Y-141845790D01*
X124841102Y-141845790D02*
X124888721Y-141798171D01*
X124888721Y-141798171D02*
X124983959Y-141750552D01*
X124983959Y-141750552D02*
X125174435Y-141750552D01*
X125174435Y-141750552D02*
X125269673Y-141798171D01*
X125745864Y-142417219D02*
X125745864Y-141417219D01*
X126174435Y-142417219D02*
X126174435Y-141893409D01*
X126174435Y-141893409D02*
X126126816Y-141798171D01*
X126126816Y-141798171D02*
X126031578Y-141750552D01*
X126031578Y-141750552D02*
X125888721Y-141750552D01*
X125888721Y-141750552D02*
X125793483Y-141798171D01*
X125793483Y-141798171D02*
X125745864Y-141845790D01*
X126507769Y-141750552D02*
X126888721Y-141750552D01*
X126650626Y-141417219D02*
X126650626Y-142274361D01*
X126650626Y-142274361D02*
X126698245Y-142369600D01*
X126698245Y-142369600D02*
X126793483Y-142417219D01*
X126793483Y-142417219D02*
X126888721Y-142417219D01*
X127222055Y-142417219D02*
X127222055Y-141750552D01*
X127222055Y-141417219D02*
X127174436Y-141464838D01*
X127174436Y-141464838D02*
X127222055Y-141512457D01*
X127222055Y-141512457D02*
X127269674Y-141464838D01*
X127269674Y-141464838D02*
X127222055Y-141417219D01*
X127222055Y-141417219D02*
X127222055Y-141512457D01*
X127698245Y-141750552D02*
X127698245Y-142417219D01*
X127698245Y-141845790D02*
X127745864Y-141798171D01*
X127745864Y-141798171D02*
X127841102Y-141750552D01*
X127841102Y-141750552D02*
X127983959Y-141750552D01*
X127983959Y-141750552D02*
X128079197Y-141798171D01*
X128079197Y-141798171D02*
X128126816Y-141893409D01*
X128126816Y-141893409D02*
X128126816Y-142417219D01*
X129031578Y-141750552D02*
X129031578Y-142560076D01*
X129031578Y-142560076D02*
X128983959Y-142655314D01*
X128983959Y-142655314D02*
X128936340Y-142702933D01*
X128936340Y-142702933D02*
X128841102Y-142750552D01*
X128841102Y-142750552D02*
X128698245Y-142750552D01*
X128698245Y-142750552D02*
X128603007Y-142702933D01*
X129031578Y-142369600D02*
X128936340Y-142417219D01*
X128936340Y-142417219D02*
X128745864Y-142417219D01*
X128745864Y-142417219D02*
X128650626Y-142369600D01*
X128650626Y-142369600D02*
X128603007Y-142321980D01*
X128603007Y-142321980D02*
X128555388Y-142226742D01*
X128555388Y-142226742D02*
X128555388Y-141941028D01*
X128555388Y-141941028D02*
X128603007Y-141845790D01*
X128603007Y-141845790D02*
X128650626Y-141798171D01*
X128650626Y-141798171D02*
X128745864Y-141750552D01*
X128745864Y-141750552D02*
X128936340Y-141750552D01*
X128936340Y-141750552D02*
X129031578Y-141798171D01*
X130841102Y-142321980D02*
X130793483Y-142369600D01*
X130793483Y-142369600D02*
X130650626Y-142417219D01*
X130650626Y-142417219D02*
X130555388Y-142417219D01*
X130555388Y-142417219D02*
X130412531Y-142369600D01*
X130412531Y-142369600D02*
X130317293Y-142274361D01*
X130317293Y-142274361D02*
X130269674Y-142179123D01*
X130269674Y-142179123D02*
X130222055Y-141988647D01*
X130222055Y-141988647D02*
X130222055Y-141845790D01*
X130222055Y-141845790D02*
X130269674Y-141655314D01*
X130269674Y-141655314D02*
X130317293Y-141560076D01*
X130317293Y-141560076D02*
X130412531Y-141464838D01*
X130412531Y-141464838D02*
X130555388Y-141417219D01*
X130555388Y-141417219D02*
X130650626Y-141417219D01*
X130650626Y-141417219D02*
X130793483Y-141464838D01*
X130793483Y-141464838D02*
X130841102Y-141512457D01*
X131269674Y-142417219D02*
X131269674Y-141417219D01*
X131698245Y-142417219D02*
X131698245Y-141893409D01*
X131698245Y-141893409D02*
X131650626Y-141798171D01*
X131650626Y-141798171D02*
X131555388Y-141750552D01*
X131555388Y-141750552D02*
X131412531Y-141750552D01*
X131412531Y-141750552D02*
X131317293Y-141798171D01*
X131317293Y-141798171D02*
X131269674Y-141845790D01*
X132603007Y-142417219D02*
X132603007Y-141893409D01*
X132603007Y-141893409D02*
X132555388Y-141798171D01*
X132555388Y-141798171D02*
X132460150Y-141750552D01*
X132460150Y-141750552D02*
X132269674Y-141750552D01*
X132269674Y-141750552D02*
X132174436Y-141798171D01*
X132603007Y-142369600D02*
X132507769Y-142417219D01*
X132507769Y-142417219D02*
X132269674Y-142417219D01*
X132269674Y-142417219D02*
X132174436Y-142369600D01*
X132174436Y-142369600D02*
X132126817Y-142274361D01*
X132126817Y-142274361D02*
X132126817Y-142179123D01*
X132126817Y-142179123D02*
X132174436Y-142083885D01*
X132174436Y-142083885D02*
X132269674Y-142036266D01*
X132269674Y-142036266D02*
X132507769Y-142036266D01*
X132507769Y-142036266D02*
X132603007Y-141988647D01*
X133222055Y-142417219D02*
X133126817Y-142369600D01*
X133126817Y-142369600D02*
X133079198Y-142274361D01*
X133079198Y-142274361D02*
X133079198Y-141417219D01*
X133745865Y-142417219D02*
X133650627Y-142369600D01*
X133650627Y-142369600D02*
X133603008Y-142274361D01*
X133603008Y-142274361D02*
X133603008Y-141417219D01*
X134507770Y-142369600D02*
X134412532Y-142417219D01*
X134412532Y-142417219D02*
X134222056Y-142417219D01*
X134222056Y-142417219D02*
X134126818Y-142369600D01*
X134126818Y-142369600D02*
X134079199Y-142274361D01*
X134079199Y-142274361D02*
X134079199Y-141893409D01*
X134079199Y-141893409D02*
X134126818Y-141798171D01*
X134126818Y-141798171D02*
X134222056Y-141750552D01*
X134222056Y-141750552D02*
X134412532Y-141750552D01*
X134412532Y-141750552D02*
X134507770Y-141798171D01*
X134507770Y-141798171D02*
X134555389Y-141893409D01*
X134555389Y-141893409D02*
X134555389Y-141988647D01*
X134555389Y-141988647D02*
X134079199Y-142083885D01*
X134983961Y-141750552D02*
X134983961Y-142417219D01*
X134983961Y-141845790D02*
X135031580Y-141798171D01*
X135031580Y-141798171D02*
X135126818Y-141750552D01*
X135126818Y-141750552D02*
X135269675Y-141750552D01*
X135269675Y-141750552D02*
X135364913Y-141798171D01*
X135364913Y-141798171D02*
X135412532Y-141893409D01*
X135412532Y-141893409D02*
X135412532Y-142417219D01*
X136317294Y-141750552D02*
X136317294Y-142560076D01*
X136317294Y-142560076D02*
X136269675Y-142655314D01*
X136269675Y-142655314D02*
X136222056Y-142702933D01*
X136222056Y-142702933D02*
X136126818Y-142750552D01*
X136126818Y-142750552D02*
X135983961Y-142750552D01*
X135983961Y-142750552D02*
X135888723Y-142702933D01*
X136317294Y-142369600D02*
X136222056Y-142417219D01*
X136222056Y-142417219D02*
X136031580Y-142417219D01*
X136031580Y-142417219D02*
X135936342Y-142369600D01*
X135936342Y-142369600D02*
X135888723Y-142321980D01*
X135888723Y-142321980D02*
X135841104Y-142226742D01*
X135841104Y-142226742D02*
X135841104Y-141941028D01*
X135841104Y-141941028D02*
X135888723Y-141845790D01*
X135888723Y-141845790D02*
X135936342Y-141798171D01*
X135936342Y-141798171D02*
X136031580Y-141750552D01*
X136031580Y-141750552D02*
X136222056Y-141750552D01*
X136222056Y-141750552D02*
X136317294Y-141798171D01*
X137174437Y-142369600D02*
X137079199Y-142417219D01*
X137079199Y-142417219D02*
X136888723Y-142417219D01*
X136888723Y-142417219D02*
X136793485Y-142369600D01*
X136793485Y-142369600D02*
X136745866Y-142274361D01*
X136745866Y-142274361D02*
X136745866Y-141893409D01*
X136745866Y-141893409D02*
X136793485Y-141798171D01*
X136793485Y-141798171D02*
X136888723Y-141750552D01*
X136888723Y-141750552D02*
X137079199Y-141750552D01*
X137079199Y-141750552D02*
X137174437Y-141798171D01*
X137174437Y-141798171D02*
X137222056Y-141893409D01*
X137222056Y-141893409D02*
X137222056Y-141988647D01*
X137222056Y-141988647D02*
X136745866Y-142083885D01*
X138888723Y-142417219D02*
X138412533Y-142417219D01*
X138412533Y-142417219D02*
X138412533Y-141417219D01*
X139222057Y-142417219D02*
X139222057Y-141750552D01*
X139222057Y-141417219D02*
X139174438Y-141464838D01*
X139174438Y-141464838D02*
X139222057Y-141512457D01*
X139222057Y-141512457D02*
X139269676Y-141464838D01*
X139269676Y-141464838D02*
X139222057Y-141417219D01*
X139222057Y-141417219D02*
X139222057Y-141512457D01*
X139603009Y-141750552D02*
X139841104Y-142417219D01*
X139841104Y-142417219D02*
X140079199Y-141750552D01*
X140460152Y-142417219D02*
X140460152Y-141750552D01*
X140460152Y-141417219D02*
X140412533Y-141464838D01*
X140412533Y-141464838D02*
X140460152Y-141512457D01*
X140460152Y-141512457D02*
X140507771Y-141464838D01*
X140507771Y-141464838D02*
X140460152Y-141417219D01*
X140460152Y-141417219D02*
X140460152Y-141512457D01*
X140936342Y-141750552D02*
X140936342Y-142417219D01*
X140936342Y-141845790D02*
X140983961Y-141798171D01*
X140983961Y-141798171D02*
X141079199Y-141750552D01*
X141079199Y-141750552D02*
X141222056Y-141750552D01*
X141222056Y-141750552D02*
X141317294Y-141798171D01*
X141317294Y-141798171D02*
X141364913Y-141893409D01*
X141364913Y-141893409D02*
X141364913Y-142417219D01*
X142269675Y-141750552D02*
X142269675Y-142560076D01*
X142269675Y-142560076D02*
X142222056Y-142655314D01*
X142222056Y-142655314D02*
X142174437Y-142702933D01*
X142174437Y-142702933D02*
X142079199Y-142750552D01*
X142079199Y-142750552D02*
X141936342Y-142750552D01*
X141936342Y-142750552D02*
X141841104Y-142702933D01*
X142269675Y-142369600D02*
X142174437Y-142417219D01*
X142174437Y-142417219D02*
X141983961Y-142417219D01*
X141983961Y-142417219D02*
X141888723Y-142369600D01*
X141888723Y-142369600D02*
X141841104Y-142321980D01*
X141841104Y-142321980D02*
X141793485Y-142226742D01*
X141793485Y-142226742D02*
X141793485Y-141941028D01*
X141793485Y-141941028D02*
X141841104Y-141845790D01*
X141841104Y-141845790D02*
X141888723Y-141798171D01*
X141888723Y-141798171D02*
X141983961Y-141750552D01*
X141983961Y-141750552D02*
X142174437Y-141750552D01*
X142174437Y-141750552D02*
X142269675Y-141798171D01*
X143650628Y-142417219D02*
X143555390Y-142369600D01*
X143555390Y-142369600D02*
X143507771Y-142274361D01*
X143507771Y-142274361D02*
X143507771Y-141417219D01*
X144460152Y-142417219D02*
X144460152Y-141893409D01*
X144460152Y-141893409D02*
X144412533Y-141798171D01*
X144412533Y-141798171D02*
X144317295Y-141750552D01*
X144317295Y-141750552D02*
X144126819Y-141750552D01*
X144126819Y-141750552D02*
X144031581Y-141798171D01*
X144460152Y-142369600D02*
X144364914Y-142417219D01*
X144364914Y-142417219D02*
X144126819Y-142417219D01*
X144126819Y-142417219D02*
X144031581Y-142369600D01*
X144031581Y-142369600D02*
X143983962Y-142274361D01*
X143983962Y-142274361D02*
X143983962Y-142179123D01*
X143983962Y-142179123D02*
X144031581Y-142083885D01*
X144031581Y-142083885D02*
X144126819Y-142036266D01*
X144126819Y-142036266D02*
X144364914Y-142036266D01*
X144364914Y-142036266D02*
X144460152Y-141988647D01*
X144936343Y-142417219D02*
X144936343Y-141417219D01*
X144936343Y-141798171D02*
X145031581Y-141750552D01*
X145031581Y-141750552D02*
X145222057Y-141750552D01*
X145222057Y-141750552D02*
X145317295Y-141798171D01*
X145317295Y-141798171D02*
X145364914Y-141845790D01*
X145364914Y-141845790D02*
X145412533Y-141941028D01*
X145412533Y-141941028D02*
X145412533Y-142226742D01*
X145412533Y-142226742D02*
X145364914Y-142321980D01*
X145364914Y-142321980D02*
X145317295Y-142369600D01*
X145317295Y-142369600D02*
X145222057Y-142417219D01*
X145222057Y-142417219D02*
X145031581Y-142417219D01*
X145031581Y-142417219D02*
X144936343Y-142369600D01*
X145793486Y-142369600D02*
X145888724Y-142417219D01*
X145888724Y-142417219D02*
X146079200Y-142417219D01*
X146079200Y-142417219D02*
X146174438Y-142369600D01*
X146174438Y-142369600D02*
X146222057Y-142274361D01*
X146222057Y-142274361D02*
X146222057Y-142226742D01*
X146222057Y-142226742D02*
X146174438Y-142131504D01*
X146174438Y-142131504D02*
X146079200Y-142083885D01*
X146079200Y-142083885D02*
X145936343Y-142083885D01*
X145936343Y-142083885D02*
X145841105Y-142036266D01*
X145841105Y-142036266D02*
X145793486Y-141941028D01*
X145793486Y-141941028D02*
X145793486Y-141893409D01*
X145793486Y-141893409D02*
X145841105Y-141798171D01*
X145841105Y-141798171D02*
X145936343Y-141750552D01*
X145936343Y-141750552D02*
X146079200Y-141750552D01*
X146079200Y-141750552D02*
X146174438Y-141798171D01*
D11*
X151057518Y-143076260D02*
X151628947Y-143076260D01*
X151343232Y-143361974D02*
X151343232Y-142790545D01*
X151914660Y-142611974D02*
X152378946Y-142611974D01*
X152378946Y-142611974D02*
X152128946Y-142897688D01*
X152128946Y-142897688D02*
X152236089Y-142897688D01*
X152236089Y-142897688D02*
X152307518Y-142933402D01*
X152307518Y-142933402D02*
X152343232Y-142969117D01*
X152343232Y-142969117D02*
X152378946Y-143040545D01*
X152378946Y-143040545D02*
X152378946Y-143219117D01*
X152378946Y-143219117D02*
X152343232Y-143290545D01*
X152343232Y-143290545D02*
X152307518Y-143326260D01*
X152307518Y-143326260D02*
X152236089Y-143361974D01*
X152236089Y-143361974D02*
X152021803Y-143361974D01*
X152021803Y-143361974D02*
X151950375Y-143326260D01*
X151950375Y-143326260D02*
X151914660Y-143290545D01*
X152593232Y-142611974D02*
X152843232Y-143361974D01*
X152843232Y-143361974D02*
X153093232Y-142611974D01*
X153271803Y-142611974D02*
X153736089Y-142611974D01*
X153736089Y-142611974D02*
X153486089Y-142897688D01*
X153486089Y-142897688D02*
X153593232Y-142897688D01*
X153593232Y-142897688D02*
X153664661Y-142933402D01*
X153664661Y-142933402D02*
X153700375Y-142969117D01*
X153700375Y-142969117D02*
X153736089Y-143040545D01*
X153736089Y-143040545D02*
X153736089Y-143219117D01*
X153736089Y-143219117D02*
X153700375Y-143290545D01*
X153700375Y-143290545D02*
X153664661Y-143326260D01*
X153664661Y-143326260D02*
X153593232Y-143361974D01*
X153593232Y-143361974D02*
X153378946Y-143361974D01*
X153378946Y-143361974D02*
X153307518Y-143326260D01*
X153307518Y-143326260D02*
X153271803Y-143290545D01*
X154628947Y-143361974D02*
X154628947Y-142611974D01*
X154628947Y-142611974D02*
X154807518Y-142611974D01*
X154807518Y-142611974D02*
X154914661Y-142647688D01*
X154914661Y-142647688D02*
X154986090Y-142719117D01*
X154986090Y-142719117D02*
X155021804Y-142790545D01*
X155021804Y-142790545D02*
X155057518Y-142933402D01*
X155057518Y-142933402D02*
X155057518Y-143040545D01*
X155057518Y-143040545D02*
X155021804Y-143183402D01*
X155021804Y-143183402D02*
X154986090Y-143254831D01*
X154986090Y-143254831D02*
X154914661Y-143326260D01*
X154914661Y-143326260D02*
X154807518Y-143361974D01*
X154807518Y-143361974D02*
X154628947Y-143361974D01*
X155521804Y-142611974D02*
X155664661Y-142611974D01*
X155664661Y-142611974D02*
X155736090Y-142647688D01*
X155736090Y-142647688D02*
X155807518Y-142719117D01*
X155807518Y-142719117D02*
X155843233Y-142861974D01*
X155843233Y-142861974D02*
X155843233Y-143111974D01*
X155843233Y-143111974D02*
X155807518Y-143254831D01*
X155807518Y-143254831D02*
X155736090Y-143326260D01*
X155736090Y-143326260D02*
X155664661Y-143361974D01*
X155664661Y-143361974D02*
X155521804Y-143361974D01*
X155521804Y-143361974D02*
X155450376Y-143326260D01*
X155450376Y-143326260D02*
X155378947Y-143254831D01*
X155378947Y-143254831D02*
X155343233Y-143111974D01*
X155343233Y-143111974D02*
X155343233Y-142861974D01*
X155343233Y-142861974D02*
X155378947Y-142719117D01*
X155378947Y-142719117D02*
X155450376Y-142647688D01*
X155450376Y-142647688D02*
X155521804Y-142611974D01*
X156164661Y-142611974D02*
X156164661Y-143219117D01*
X156164661Y-143219117D02*
X156200375Y-143290545D01*
X156200375Y-143290545D02*
X156236090Y-143326260D01*
X156236090Y-143326260D02*
X156307518Y-143361974D01*
X156307518Y-143361974D02*
X156450375Y-143361974D01*
X156450375Y-143361974D02*
X156521804Y-143326260D01*
X156521804Y-143326260D02*
X156557518Y-143290545D01*
X156557518Y-143290545D02*
X156593232Y-143219117D01*
X156593232Y-143219117D02*
X156593232Y-142611974D01*
X156843232Y-142611974D02*
X157271804Y-142611974D01*
X157057518Y-143361974D02*
X157057518Y-142611974D01*
X158093233Y-143361974D02*
X158093233Y-142611974D01*
X158093233Y-142611974D02*
X158271804Y-142611974D01*
X158271804Y-142611974D02*
X158378947Y-142647688D01*
X158378947Y-142647688D02*
X158450376Y-142719117D01*
X158450376Y-142719117D02*
X158486090Y-142790545D01*
X158486090Y-142790545D02*
X158521804Y-142933402D01*
X158521804Y-142933402D02*
X158521804Y-143040545D01*
X158521804Y-143040545D02*
X158486090Y-143183402D01*
X158486090Y-143183402D02*
X158450376Y-143254831D01*
X158450376Y-143254831D02*
X158378947Y-143326260D01*
X158378947Y-143326260D02*
X158271804Y-143361974D01*
X158271804Y-143361974D02*
X158093233Y-143361974D01*
X158843233Y-143361974D02*
X158843233Y-142611974D01*
X159200376Y-143361974D02*
X159200376Y-142611974D01*
X159200376Y-142611974D02*
X159628947Y-143361974D01*
X159628947Y-143361974D02*
X159628947Y-142611974D01*
X160950376Y-142647688D02*
X160878948Y-142611974D01*
X160878948Y-142611974D02*
X160771805Y-142611974D01*
X160771805Y-142611974D02*
X160664662Y-142647688D01*
X160664662Y-142647688D02*
X160593233Y-142719117D01*
X160593233Y-142719117D02*
X160557519Y-142790545D01*
X160557519Y-142790545D02*
X160521805Y-142933402D01*
X160521805Y-142933402D02*
X160521805Y-143040545D01*
X160521805Y-143040545D02*
X160557519Y-143183402D01*
X160557519Y-143183402D02*
X160593233Y-143254831D01*
X160593233Y-143254831D02*
X160664662Y-143326260D01*
X160664662Y-143326260D02*
X160771805Y-143361974D01*
X160771805Y-143361974D02*
X160843233Y-143361974D01*
X160843233Y-143361974D02*
X160950376Y-143326260D01*
X160950376Y-143326260D02*
X160986090Y-143290545D01*
X160986090Y-143290545D02*
X160986090Y-143040545D01*
X160986090Y-143040545D02*
X160843233Y-143040545D01*
X161307519Y-143361974D02*
X161307519Y-142611974D01*
X161307519Y-142611974D02*
X161736090Y-143361974D01*
X161736090Y-143361974D02*
X161736090Y-142611974D01*
X162093233Y-143361974D02*
X162093233Y-142611974D01*
X162093233Y-142611974D02*
X162271804Y-142611974D01*
X162271804Y-142611974D02*
X162378947Y-142647688D01*
X162378947Y-142647688D02*
X162450376Y-142719117D01*
X162450376Y-142719117D02*
X162486090Y-142790545D01*
X162486090Y-142790545D02*
X162521804Y-142933402D01*
X162521804Y-142933402D02*
X162521804Y-143040545D01*
X162521804Y-143040545D02*
X162486090Y-143183402D01*
X162486090Y-143183402D02*
X162450376Y-143254831D01*
X162450376Y-143254831D02*
X162378947Y-143326260D01*
X162378947Y-143326260D02*
X162271804Y-143361974D01*
X162271804Y-143361974D02*
X162093233Y-143361974D01*
D12*
X110789160Y-141199104D02*
X111265350Y-141199104D01*
X110693922Y-141484819D02*
X111027255Y-140484819D01*
X111027255Y-140484819D02*
X111360588Y-141484819D01*
X111693922Y-141389580D02*
X111741541Y-141437200D01*
X111741541Y-141437200D02*
X111693922Y-141484819D01*
X111693922Y-141484819D02*
X111646303Y-141437200D01*
X111646303Y-141437200D02*
X111693922Y-141389580D01*
X111693922Y-141389580D02*
X111693922Y-141484819D01*
X112503445Y-140961009D02*
X112646302Y-141008628D01*
X112646302Y-141008628D02*
X112693921Y-141056247D01*
X112693921Y-141056247D02*
X112741540Y-141151485D01*
X112741540Y-141151485D02*
X112741540Y-141294342D01*
X112741540Y-141294342D02*
X112693921Y-141389580D01*
X112693921Y-141389580D02*
X112646302Y-141437200D01*
X112646302Y-141437200D02*
X112551064Y-141484819D01*
X112551064Y-141484819D02*
X112170112Y-141484819D01*
X112170112Y-141484819D02*
X112170112Y-140484819D01*
X112170112Y-140484819D02*
X112503445Y-140484819D01*
X112503445Y-140484819D02*
X112598683Y-140532438D01*
X112598683Y-140532438D02*
X112646302Y-140580057D01*
X112646302Y-140580057D02*
X112693921Y-140675295D01*
X112693921Y-140675295D02*
X112693921Y-140770533D01*
X112693921Y-140770533D02*
X112646302Y-140865771D01*
X112646302Y-140865771D02*
X112598683Y-140913390D01*
X112598683Y-140913390D02*
X112503445Y-140961009D01*
X112503445Y-140961009D02*
X112170112Y-140961009D01*
X113551064Y-141437200D02*
X113455826Y-141484819D01*
X113455826Y-141484819D02*
X113265350Y-141484819D01*
X113265350Y-141484819D02*
X113170112Y-141437200D01*
X113170112Y-141437200D02*
X113122493Y-141341961D01*
X113122493Y-141341961D02*
X113122493Y-140961009D01*
X113122493Y-140961009D02*
X113170112Y-140865771D01*
X113170112Y-140865771D02*
X113265350Y-140818152D01*
X113265350Y-140818152D02*
X113455826Y-140818152D01*
X113455826Y-140818152D02*
X113551064Y-140865771D01*
X113551064Y-140865771D02*
X113598683Y-140961009D01*
X113598683Y-140961009D02*
X113598683Y-141056247D01*
X113598683Y-141056247D02*
X113122493Y-141151485D01*
X114027255Y-140818152D02*
X114027255Y-141484819D01*
X114027255Y-140913390D02*
X114074874Y-140865771D01*
X114074874Y-140865771D02*
X114170112Y-140818152D01*
X114170112Y-140818152D02*
X114312969Y-140818152D01*
X114312969Y-140818152D02*
X114408207Y-140865771D01*
X114408207Y-140865771D02*
X114455826Y-140961009D01*
X114455826Y-140961009D02*
X114455826Y-141484819D01*
X115360588Y-141484819D02*
X115360588Y-140961009D01*
X115360588Y-140961009D02*
X115312969Y-140865771D01*
X115312969Y-140865771D02*
X115217731Y-140818152D01*
X115217731Y-140818152D02*
X115027255Y-140818152D01*
X115027255Y-140818152D02*
X114932017Y-140865771D01*
X115360588Y-141437200D02*
X115265350Y-141484819D01*
X115265350Y-141484819D02*
X115027255Y-141484819D01*
X115027255Y-141484819D02*
X114932017Y-141437200D01*
X114932017Y-141437200D02*
X114884398Y-141341961D01*
X114884398Y-141341961D02*
X114884398Y-141246723D01*
X114884398Y-141246723D02*
X114932017Y-141151485D01*
X114932017Y-141151485D02*
X115027255Y-141103866D01*
X115027255Y-141103866D02*
X115265350Y-141103866D01*
X115265350Y-141103866D02*
X115360588Y-141056247D01*
X115836779Y-141484819D02*
X115836779Y-140818152D01*
X115836779Y-140484819D02*
X115789160Y-140532438D01*
X115789160Y-140532438D02*
X115836779Y-140580057D01*
X115836779Y-140580057D02*
X115884398Y-140532438D01*
X115884398Y-140532438D02*
X115836779Y-140484819D01*
X115836779Y-140484819D02*
X115836779Y-140580057D01*
X116265350Y-141437200D02*
X116360588Y-141484819D01*
X116360588Y-141484819D02*
X116551064Y-141484819D01*
X116551064Y-141484819D02*
X116646302Y-141437200D01*
X116646302Y-141437200D02*
X116693921Y-141341961D01*
X116693921Y-141341961D02*
X116693921Y-141294342D01*
X116693921Y-141294342D02*
X116646302Y-141199104D01*
X116646302Y-141199104D02*
X116551064Y-141151485D01*
X116551064Y-141151485D02*
X116408207Y-141151485D01*
X116408207Y-141151485D02*
X116312969Y-141103866D01*
X116312969Y-141103866D02*
X116265350Y-141008628D01*
X116265350Y-141008628D02*
X116265350Y-140961009D01*
X116265350Y-140961009D02*
X116312969Y-140865771D01*
X116312969Y-140865771D02*
X116408207Y-140818152D01*
X116408207Y-140818152D02*
X116551064Y-140818152D01*
X116551064Y-140818152D02*
X116646302Y-140865771D01*
X117074874Y-141437200D02*
X117170112Y-141484819D01*
X117170112Y-141484819D02*
X117360588Y-141484819D01*
X117360588Y-141484819D02*
X117455826Y-141437200D01*
X117455826Y-141437200D02*
X117503445Y-141341961D01*
X117503445Y-141341961D02*
X117503445Y-141294342D01*
X117503445Y-141294342D02*
X117455826Y-141199104D01*
X117455826Y-141199104D02*
X117360588Y-141151485D01*
X117360588Y-141151485D02*
X117217731Y-141151485D01*
X117217731Y-141151485D02*
X117122493Y-141103866D01*
X117122493Y-141103866D02*
X117074874Y-141008628D01*
X117074874Y-141008628D02*
X117074874Y-140961009D01*
X117074874Y-140961009D02*
X117122493Y-140865771D01*
X117122493Y-140865771D02*
X117217731Y-140818152D01*
X117217731Y-140818152D02*
X117360588Y-140818152D01*
X117360588Y-140818152D02*
X117455826Y-140865771D01*
X118360588Y-141484819D02*
X118360588Y-140961009D01*
X118360588Y-140961009D02*
X118312969Y-140865771D01*
X118312969Y-140865771D02*
X118217731Y-140818152D01*
X118217731Y-140818152D02*
X118027255Y-140818152D01*
X118027255Y-140818152D02*
X117932017Y-140865771D01*
X118360588Y-141437200D02*
X118265350Y-141484819D01*
X118265350Y-141484819D02*
X118027255Y-141484819D01*
X118027255Y-141484819D02*
X117932017Y-141437200D01*
X117932017Y-141437200D02*
X117884398Y-141341961D01*
X117884398Y-141341961D02*
X117884398Y-141246723D01*
X117884398Y-141246723D02*
X117932017Y-141151485D01*
X117932017Y-141151485D02*
X118027255Y-141103866D01*
X118027255Y-141103866D02*
X118265350Y-141103866D01*
X118265350Y-141103866D02*
X118360588Y-141056247D01*
X110836779Y-143094819D02*
X110836779Y-142094819D01*
X110836779Y-142094819D02*
X111408207Y-143094819D01*
X111408207Y-143094819D02*
X111408207Y-142094819D01*
X111884398Y-142999580D02*
X111932017Y-143047200D01*
X111932017Y-143047200D02*
X111884398Y-143094819D01*
X111884398Y-143094819D02*
X111836779Y-143047200D01*
X111836779Y-143047200D02*
X111884398Y-142999580D01*
X111884398Y-142999580D02*
X111884398Y-143094819D01*
X112884397Y-142142438D02*
X112789159Y-142094819D01*
X112789159Y-142094819D02*
X112646302Y-142094819D01*
X112646302Y-142094819D02*
X112503445Y-142142438D01*
X112503445Y-142142438D02*
X112408207Y-142237676D01*
X112408207Y-142237676D02*
X112360588Y-142332914D01*
X112360588Y-142332914D02*
X112312969Y-142523390D01*
X112312969Y-142523390D02*
X112312969Y-142666247D01*
X112312969Y-142666247D02*
X112360588Y-142856723D01*
X112360588Y-142856723D02*
X112408207Y-142951961D01*
X112408207Y-142951961D02*
X112503445Y-143047200D01*
X112503445Y-143047200D02*
X112646302Y-143094819D01*
X112646302Y-143094819D02*
X112741540Y-143094819D01*
X112741540Y-143094819D02*
X112884397Y-143047200D01*
X112884397Y-143047200D02*
X112932016Y-142999580D01*
X112932016Y-142999580D02*
X112932016Y-142666247D01*
X112932016Y-142666247D02*
X112741540Y-142666247D01*
X113789159Y-143094819D02*
X113789159Y-142571009D01*
X113789159Y-142571009D02*
X113741540Y-142475771D01*
X113741540Y-142475771D02*
X113646302Y-142428152D01*
X113646302Y-142428152D02*
X113455826Y-142428152D01*
X113455826Y-142428152D02*
X113360588Y-142475771D01*
X113789159Y-143047200D02*
X113693921Y-143094819D01*
X113693921Y-143094819D02*
X113455826Y-143094819D01*
X113455826Y-143094819D02*
X113360588Y-143047200D01*
X113360588Y-143047200D02*
X113312969Y-142951961D01*
X113312969Y-142951961D02*
X113312969Y-142856723D01*
X113312969Y-142856723D02*
X113360588Y-142761485D01*
X113360588Y-142761485D02*
X113455826Y-142713866D01*
X113455826Y-142713866D02*
X113693921Y-142713866D01*
X113693921Y-142713866D02*
X113789159Y-142666247D01*
X114265350Y-142428152D02*
X114265350Y-143094819D01*
X114265350Y-142523390D02*
X114312969Y-142475771D01*
X114312969Y-142475771D02*
X114408207Y-142428152D01*
X114408207Y-142428152D02*
X114551064Y-142428152D01*
X114551064Y-142428152D02*
X114646302Y-142475771D01*
X114646302Y-142475771D02*
X114693921Y-142571009D01*
X114693921Y-142571009D02*
X114693921Y-143094819D01*
X115598683Y-142428152D02*
X115598683Y-143237676D01*
X115598683Y-143237676D02*
X115551064Y-143332914D01*
X115551064Y-143332914D02*
X115503445Y-143380533D01*
X115503445Y-143380533D02*
X115408207Y-143428152D01*
X115408207Y-143428152D02*
X115265350Y-143428152D01*
X115265350Y-143428152D02*
X115170112Y-143380533D01*
X115598683Y-143047200D02*
X115503445Y-143094819D01*
X115503445Y-143094819D02*
X115312969Y-143094819D01*
X115312969Y-143094819D02*
X115217731Y-143047200D01*
X115217731Y-143047200D02*
X115170112Y-142999580D01*
X115170112Y-142999580D02*
X115122493Y-142904342D01*
X115122493Y-142904342D02*
X115122493Y-142618628D01*
X115122493Y-142618628D02*
X115170112Y-142523390D01*
X115170112Y-142523390D02*
X115217731Y-142475771D01*
X115217731Y-142475771D02*
X115312969Y-142428152D01*
X115312969Y-142428152D02*
X115503445Y-142428152D01*
X115503445Y-142428152D02*
X115598683Y-142475771D01*
X116503445Y-143094819D02*
X116503445Y-142571009D01*
X116503445Y-142571009D02*
X116455826Y-142475771D01*
X116455826Y-142475771D02*
X116360588Y-142428152D01*
X116360588Y-142428152D02*
X116170112Y-142428152D01*
X116170112Y-142428152D02*
X116074874Y-142475771D01*
X116503445Y-143047200D02*
X116408207Y-143094819D01*
X116408207Y-143094819D02*
X116170112Y-143094819D01*
X116170112Y-143094819D02*
X116074874Y-143047200D01*
X116074874Y-143047200D02*
X116027255Y-142951961D01*
X116027255Y-142951961D02*
X116027255Y-142856723D01*
X116027255Y-142856723D02*
X116074874Y-142761485D01*
X116074874Y-142761485D02*
X116170112Y-142713866D01*
X116170112Y-142713866D02*
X116408207Y-142713866D01*
X116408207Y-142713866D02*
X116503445Y-142666247D01*
X142157142Y-96959580D02*
X142109523Y-97007200D01*
X142109523Y-97007200D02*
X141966666Y-97054819D01*
X141966666Y-97054819D02*
X141871428Y-97054819D01*
X141871428Y-97054819D02*
X141728571Y-97007200D01*
X141728571Y-97007200D02*
X141633333Y-96911961D01*
X141633333Y-96911961D02*
X141585714Y-96816723D01*
X141585714Y-96816723D02*
X141538095Y-96626247D01*
X141538095Y-96626247D02*
X141538095Y-96483390D01*
X141538095Y-96483390D02*
X141585714Y-96292914D01*
X141585714Y-96292914D02*
X141633333Y-96197676D01*
X141633333Y-96197676D02*
X141728571Y-96102438D01*
X141728571Y-96102438D02*
X141871428Y-96054819D01*
X141871428Y-96054819D02*
X141966666Y-96054819D01*
X141966666Y-96054819D02*
X142109523Y-96102438D01*
X142109523Y-96102438D02*
X142157142Y-96150057D01*
X142538095Y-96150057D02*
X142585714Y-96102438D01*
X142585714Y-96102438D02*
X142680952Y-96054819D01*
X142680952Y-96054819D02*
X142919047Y-96054819D01*
X142919047Y-96054819D02*
X143014285Y-96102438D01*
X143014285Y-96102438D02*
X143061904Y-96150057D01*
X143061904Y-96150057D02*
X143109523Y-96245295D01*
X143109523Y-96245295D02*
X143109523Y-96340533D01*
X143109523Y-96340533D02*
X143061904Y-96483390D01*
X143061904Y-96483390D02*
X142490476Y-97054819D01*
X142490476Y-97054819D02*
X143109523Y-97054819D01*
X143490476Y-96150057D02*
X143538095Y-96102438D01*
X143538095Y-96102438D02*
X143633333Y-96054819D01*
X143633333Y-96054819D02*
X143871428Y-96054819D01*
X143871428Y-96054819D02*
X143966666Y-96102438D01*
X143966666Y-96102438D02*
X144014285Y-96150057D01*
X144014285Y-96150057D02*
X144061904Y-96245295D01*
X144061904Y-96245295D02*
X144061904Y-96340533D01*
X144061904Y-96340533D02*
X144014285Y-96483390D01*
X144014285Y-96483390D02*
X143442857Y-97054819D01*
X143442857Y-97054819D02*
X144061904Y-97054819D01*
X110304819Y-81464285D02*
X109304819Y-81464285D01*
X109304819Y-81464285D02*
X109304819Y-81226190D01*
X109304819Y-81226190D02*
X109352438Y-81083333D01*
X109352438Y-81083333D02*
X109447676Y-80988095D01*
X109447676Y-80988095D02*
X109542914Y-80940476D01*
X109542914Y-80940476D02*
X109733390Y-80892857D01*
X109733390Y-80892857D02*
X109876247Y-80892857D01*
X109876247Y-80892857D02*
X110066723Y-80940476D01*
X110066723Y-80940476D02*
X110161961Y-80988095D01*
X110161961Y-80988095D02*
X110257200Y-81083333D01*
X110257200Y-81083333D02*
X110304819Y-81226190D01*
X110304819Y-81226190D02*
X110304819Y-81464285D01*
X109304819Y-80559523D02*
X109304819Y-79940476D01*
X109304819Y-79940476D02*
X109685771Y-80273809D01*
X109685771Y-80273809D02*
X109685771Y-80130952D01*
X109685771Y-80130952D02*
X109733390Y-80035714D01*
X109733390Y-80035714D02*
X109781009Y-79988095D01*
X109781009Y-79988095D02*
X109876247Y-79940476D01*
X109876247Y-79940476D02*
X110114342Y-79940476D01*
X110114342Y-79940476D02*
X110209580Y-79988095D01*
X110209580Y-79988095D02*
X110257200Y-80035714D01*
X110257200Y-80035714D02*
X110304819Y-80130952D01*
X110304819Y-80130952D02*
X110304819Y-80416666D01*
X110304819Y-80416666D02*
X110257200Y-80511904D01*
X110257200Y-80511904D02*
X110209580Y-80559523D01*
X110304819Y-78988095D02*
X110304819Y-79559523D01*
X110304819Y-79273809D02*
X109304819Y-79273809D01*
X109304819Y-79273809D02*
X109447676Y-79369047D01*
X109447676Y-79369047D02*
X109542914Y-79464285D01*
X109542914Y-79464285D02*
X109590533Y-79559523D01*
X112204819Y-84114285D02*
X112204819Y-84685713D01*
X112204819Y-84399999D02*
X111204819Y-84399999D01*
X111204819Y-84399999D02*
X111347676Y-84495237D01*
X111347676Y-84495237D02*
X111442914Y-84590475D01*
X111442914Y-84590475D02*
X111490533Y-84685713D01*
X161607142Y-86159580D02*
X161559523Y-86207200D01*
X161559523Y-86207200D02*
X161416666Y-86254819D01*
X161416666Y-86254819D02*
X161321428Y-86254819D01*
X161321428Y-86254819D02*
X161178571Y-86207200D01*
X161178571Y-86207200D02*
X161083333Y-86111961D01*
X161083333Y-86111961D02*
X161035714Y-86016723D01*
X161035714Y-86016723D02*
X160988095Y-85826247D01*
X160988095Y-85826247D02*
X160988095Y-85683390D01*
X160988095Y-85683390D02*
X161035714Y-85492914D01*
X161035714Y-85492914D02*
X161083333Y-85397676D01*
X161083333Y-85397676D02*
X161178571Y-85302438D01*
X161178571Y-85302438D02*
X161321428Y-85254819D01*
X161321428Y-85254819D02*
X161416666Y-85254819D01*
X161416666Y-85254819D02*
X161559523Y-85302438D01*
X161559523Y-85302438D02*
X161607142Y-85350057D01*
X161988095Y-85350057D02*
X162035714Y-85302438D01*
X162035714Y-85302438D02*
X162130952Y-85254819D01*
X162130952Y-85254819D02*
X162369047Y-85254819D01*
X162369047Y-85254819D02*
X162464285Y-85302438D01*
X162464285Y-85302438D02*
X162511904Y-85350057D01*
X162511904Y-85350057D02*
X162559523Y-85445295D01*
X162559523Y-85445295D02*
X162559523Y-85540533D01*
X162559523Y-85540533D02*
X162511904Y-85683390D01*
X162511904Y-85683390D02*
X161940476Y-86254819D01*
X161940476Y-86254819D02*
X162559523Y-86254819D01*
X163416666Y-85254819D02*
X163226190Y-85254819D01*
X163226190Y-85254819D02*
X163130952Y-85302438D01*
X163130952Y-85302438D02*
X163083333Y-85350057D01*
X163083333Y-85350057D02*
X162988095Y-85492914D01*
X162988095Y-85492914D02*
X162940476Y-85683390D01*
X162940476Y-85683390D02*
X162940476Y-86064342D01*
X162940476Y-86064342D02*
X162988095Y-86159580D01*
X162988095Y-86159580D02*
X163035714Y-86207200D01*
X163035714Y-86207200D02*
X163130952Y-86254819D01*
X163130952Y-86254819D02*
X163321428Y-86254819D01*
X163321428Y-86254819D02*
X163416666Y-86207200D01*
X163416666Y-86207200D02*
X163464285Y-86159580D01*
X163464285Y-86159580D02*
X163511904Y-86064342D01*
X163511904Y-86064342D02*
X163511904Y-85826247D01*
X163511904Y-85826247D02*
X163464285Y-85731009D01*
X163464285Y-85731009D02*
X163416666Y-85683390D01*
X163416666Y-85683390D02*
X163321428Y-85635771D01*
X163321428Y-85635771D02*
X163130952Y-85635771D01*
X163130952Y-85635771D02*
X163035714Y-85683390D01*
X163035714Y-85683390D02*
X162988095Y-85731009D01*
X162988095Y-85731009D02*
X162940476Y-85826247D01*
D11*
X111306379Y-97300000D02*
X110306379Y-97300000D01*
X110306379Y-97300000D02*
X110306379Y-97133333D01*
X110306379Y-97133333D02*
X110353998Y-97033333D01*
X110353998Y-97033333D02*
X110449236Y-96966667D01*
X110449236Y-96966667D02*
X110544474Y-96933333D01*
X110544474Y-96933333D02*
X110734950Y-96900000D01*
X110734950Y-96900000D02*
X110877807Y-96900000D01*
X110877807Y-96900000D02*
X111068283Y-96933333D01*
X111068283Y-96933333D02*
X111163521Y-96966667D01*
X111163521Y-96966667D02*
X111258760Y-97033333D01*
X111258760Y-97033333D02*
X111306379Y-97133333D01*
X111306379Y-97133333D02*
X111306379Y-97300000D01*
X111306379Y-96233333D02*
X111306379Y-96633333D01*
X111306379Y-96433333D02*
X110306379Y-96433333D01*
X110306379Y-96433333D02*
X110449236Y-96500000D01*
X110449236Y-96500000D02*
X110544474Y-96566667D01*
X110544474Y-96566667D02*
X110592093Y-96633333D01*
X111306379Y-95900000D02*
X111306379Y-95766666D01*
X111306379Y-95766666D02*
X111258760Y-95700000D01*
X111258760Y-95700000D02*
X111211140Y-95666666D01*
X111211140Y-95666666D02*
X111068283Y-95600000D01*
X111068283Y-95600000D02*
X110877807Y-95566666D01*
X110877807Y-95566666D02*
X110496855Y-95566666D01*
X110496855Y-95566666D02*
X110401617Y-95600000D01*
X110401617Y-95600000D02*
X110353998Y-95633333D01*
X110353998Y-95633333D02*
X110306379Y-95700000D01*
X110306379Y-95700000D02*
X110306379Y-95833333D01*
X110306379Y-95833333D02*
X110353998Y-95900000D01*
X110353998Y-95900000D02*
X110401617Y-95933333D01*
X110401617Y-95933333D02*
X110496855Y-95966666D01*
X110496855Y-95966666D02*
X110734950Y-95966666D01*
X110734950Y-95966666D02*
X110830188Y-95933333D01*
X110830188Y-95933333D02*
X110877807Y-95900000D01*
X110877807Y-95900000D02*
X110925426Y-95833333D01*
X110925426Y-95833333D02*
X110925426Y-95700000D01*
X110925426Y-95700000D02*
X110877807Y-95633333D01*
X110877807Y-95633333D02*
X110830188Y-95600000D01*
X110830188Y-95600000D02*
X110734950Y-95566666D01*
D12*
X109854819Y-104764285D02*
X109854819Y-105335713D01*
X109854819Y-105049999D02*
X108854819Y-105049999D01*
X108854819Y-105049999D02*
X108997676Y-105145237D01*
X108997676Y-105145237D02*
X109092914Y-105240475D01*
X109092914Y-105240475D02*
X109140533Y-105335713D01*
D11*
X117749999Y-112256379D02*
X117749999Y-111256379D01*
X117749999Y-111256379D02*
X117916666Y-111256379D01*
X117916666Y-111256379D02*
X118016666Y-111303998D01*
X118016666Y-111303998D02*
X118083333Y-111399236D01*
X118083333Y-111399236D02*
X118116666Y-111494474D01*
X118116666Y-111494474D02*
X118149999Y-111684950D01*
X118149999Y-111684950D02*
X118149999Y-111827807D01*
X118149999Y-111827807D02*
X118116666Y-112018283D01*
X118116666Y-112018283D02*
X118083333Y-112113521D01*
X118083333Y-112113521D02*
X118016666Y-112208760D01*
X118016666Y-112208760D02*
X117916666Y-112256379D01*
X117916666Y-112256379D02*
X117749999Y-112256379D01*
X118816666Y-112256379D02*
X118416666Y-112256379D01*
X118616666Y-112256379D02*
X118616666Y-111256379D01*
X118616666Y-111256379D02*
X118549999Y-111399236D01*
X118549999Y-111399236D02*
X118483333Y-111494474D01*
X118483333Y-111494474D02*
X118416666Y-111542093D01*
X119216666Y-111684950D02*
X119150000Y-111637331D01*
X119150000Y-111637331D02*
X119116666Y-111589712D01*
X119116666Y-111589712D02*
X119083333Y-111494474D01*
X119083333Y-111494474D02*
X119083333Y-111446855D01*
X119083333Y-111446855D02*
X119116666Y-111351617D01*
X119116666Y-111351617D02*
X119150000Y-111303998D01*
X119150000Y-111303998D02*
X119216666Y-111256379D01*
X119216666Y-111256379D02*
X119350000Y-111256379D01*
X119350000Y-111256379D02*
X119416666Y-111303998D01*
X119416666Y-111303998D02*
X119450000Y-111351617D01*
X119450000Y-111351617D02*
X119483333Y-111446855D01*
X119483333Y-111446855D02*
X119483333Y-111494474D01*
X119483333Y-111494474D02*
X119450000Y-111589712D01*
X119450000Y-111589712D02*
X119416666Y-111637331D01*
X119416666Y-111637331D02*
X119350000Y-111684950D01*
X119350000Y-111684950D02*
X119216666Y-111684950D01*
X119216666Y-111684950D02*
X119150000Y-111732569D01*
X119150000Y-111732569D02*
X119116666Y-111780188D01*
X119116666Y-111780188D02*
X119083333Y-111875426D01*
X119083333Y-111875426D02*
X119083333Y-112065902D01*
X119083333Y-112065902D02*
X119116666Y-112161140D01*
X119116666Y-112161140D02*
X119150000Y-112208760D01*
X119150000Y-112208760D02*
X119216666Y-112256379D01*
X119216666Y-112256379D02*
X119350000Y-112256379D01*
X119350000Y-112256379D02*
X119416666Y-112208760D01*
X119416666Y-112208760D02*
X119450000Y-112161140D01*
X119450000Y-112161140D02*
X119483333Y-112065902D01*
X119483333Y-112065902D02*
X119483333Y-111875426D01*
X119483333Y-111875426D02*
X119450000Y-111780188D01*
X119450000Y-111780188D02*
X119416666Y-111732569D01*
X119416666Y-111732569D02*
X119350000Y-111684950D01*
D12*
X110285714Y-110804819D02*
X109714286Y-110804819D01*
X110000000Y-110804819D02*
X110000000Y-109804819D01*
X110000000Y-109804819D02*
X109904762Y-109947676D01*
X109904762Y-109947676D02*
X109809524Y-110042914D01*
X109809524Y-110042914D02*
X109714286Y-110090533D01*
D11*
X117933333Y-131356379D02*
X117933333Y-130356379D01*
X117933333Y-130356379D02*
X118100000Y-130356379D01*
X118100000Y-130356379D02*
X118200000Y-130403998D01*
X118200000Y-130403998D02*
X118266667Y-130499236D01*
X118266667Y-130499236D02*
X118300000Y-130594474D01*
X118300000Y-130594474D02*
X118333333Y-130784950D01*
X118333333Y-130784950D02*
X118333333Y-130927807D01*
X118333333Y-130927807D02*
X118300000Y-131118283D01*
X118300000Y-131118283D02*
X118266667Y-131213521D01*
X118266667Y-131213521D02*
X118200000Y-131308760D01*
X118200000Y-131308760D02*
X118100000Y-131356379D01*
X118100000Y-131356379D02*
X117933333Y-131356379D01*
X118933333Y-130356379D02*
X118800000Y-130356379D01*
X118800000Y-130356379D02*
X118733333Y-130403998D01*
X118733333Y-130403998D02*
X118700000Y-130451617D01*
X118700000Y-130451617D02*
X118633333Y-130594474D01*
X118633333Y-130594474D02*
X118600000Y-130784950D01*
X118600000Y-130784950D02*
X118600000Y-131165902D01*
X118600000Y-131165902D02*
X118633333Y-131261140D01*
X118633333Y-131261140D02*
X118666667Y-131308760D01*
X118666667Y-131308760D02*
X118733333Y-131356379D01*
X118733333Y-131356379D02*
X118866667Y-131356379D01*
X118866667Y-131356379D02*
X118933333Y-131308760D01*
X118933333Y-131308760D02*
X118966667Y-131261140D01*
X118966667Y-131261140D02*
X119000000Y-131165902D01*
X119000000Y-131165902D02*
X119000000Y-130927807D01*
X119000000Y-130927807D02*
X118966667Y-130832569D01*
X118966667Y-130832569D02*
X118933333Y-130784950D01*
X118933333Y-130784950D02*
X118866667Y-130737331D01*
X118866667Y-130737331D02*
X118733333Y-130737331D01*
X118733333Y-130737331D02*
X118666667Y-130784950D01*
X118666667Y-130784950D02*
X118633333Y-130832569D01*
X118633333Y-130832569D02*
X118600000Y-130927807D01*
D12*
X110135714Y-129854819D02*
X109564286Y-129854819D01*
X109850000Y-129854819D02*
X109850000Y-128854819D01*
X109850000Y-128854819D02*
X109754762Y-128997676D01*
X109754762Y-128997676D02*
X109659524Y-129092914D01*
X109659524Y-129092914D02*
X109564286Y-129140533D01*
X121033333Y-117584580D02*
X120985714Y-117632200D01*
X120985714Y-117632200D02*
X120842857Y-117679819D01*
X120842857Y-117679819D02*
X120747619Y-117679819D01*
X120747619Y-117679819D02*
X120604762Y-117632200D01*
X120604762Y-117632200D02*
X120509524Y-117536961D01*
X120509524Y-117536961D02*
X120461905Y-117441723D01*
X120461905Y-117441723D02*
X120414286Y-117251247D01*
X120414286Y-117251247D02*
X120414286Y-117108390D01*
X120414286Y-117108390D02*
X120461905Y-116917914D01*
X120461905Y-116917914D02*
X120509524Y-116822676D01*
X120509524Y-116822676D02*
X120604762Y-116727438D01*
X120604762Y-116727438D02*
X120747619Y-116679819D01*
X120747619Y-116679819D02*
X120842857Y-116679819D01*
X120842857Y-116679819D02*
X120985714Y-116727438D01*
X120985714Y-116727438D02*
X121033333Y-116775057D01*
X121604762Y-117108390D02*
X121509524Y-117060771D01*
X121509524Y-117060771D02*
X121461905Y-117013152D01*
X121461905Y-117013152D02*
X121414286Y-116917914D01*
X121414286Y-116917914D02*
X121414286Y-116870295D01*
X121414286Y-116870295D02*
X121461905Y-116775057D01*
X121461905Y-116775057D02*
X121509524Y-116727438D01*
X121509524Y-116727438D02*
X121604762Y-116679819D01*
X121604762Y-116679819D02*
X121795238Y-116679819D01*
X121795238Y-116679819D02*
X121890476Y-116727438D01*
X121890476Y-116727438D02*
X121938095Y-116775057D01*
X121938095Y-116775057D02*
X121985714Y-116870295D01*
X121985714Y-116870295D02*
X121985714Y-116917914D01*
X121985714Y-116917914D02*
X121938095Y-117013152D01*
X121938095Y-117013152D02*
X121890476Y-117060771D01*
X121890476Y-117060771D02*
X121795238Y-117108390D01*
X121795238Y-117108390D02*
X121604762Y-117108390D01*
X121604762Y-117108390D02*
X121509524Y-117156009D01*
X121509524Y-117156009D02*
X121461905Y-117203628D01*
X121461905Y-117203628D02*
X121414286Y-117298866D01*
X121414286Y-117298866D02*
X121414286Y-117489342D01*
X121414286Y-117489342D02*
X121461905Y-117584580D01*
X121461905Y-117584580D02*
X121509524Y-117632200D01*
X121509524Y-117632200D02*
X121604762Y-117679819D01*
X121604762Y-117679819D02*
X121795238Y-117679819D01*
X121795238Y-117679819D02*
X121890476Y-117632200D01*
X121890476Y-117632200D02*
X121938095Y-117584580D01*
X121938095Y-117584580D02*
X121985714Y-117489342D01*
X121985714Y-117489342D02*
X121985714Y-117298866D01*
X121985714Y-117298866D02*
X121938095Y-117203628D01*
X121938095Y-117203628D02*
X121890476Y-117156009D01*
X121890476Y-117156009D02*
X121795238Y-117108390D01*
X111807142Y-107059580D02*
X111759523Y-107107200D01*
X111759523Y-107107200D02*
X111616666Y-107154819D01*
X111616666Y-107154819D02*
X111521428Y-107154819D01*
X111521428Y-107154819D02*
X111378571Y-107107200D01*
X111378571Y-107107200D02*
X111283333Y-107011961D01*
X111283333Y-107011961D02*
X111235714Y-106916723D01*
X111235714Y-106916723D02*
X111188095Y-106726247D01*
X111188095Y-106726247D02*
X111188095Y-106583390D01*
X111188095Y-106583390D02*
X111235714Y-106392914D01*
X111235714Y-106392914D02*
X111283333Y-106297676D01*
X111283333Y-106297676D02*
X111378571Y-106202438D01*
X111378571Y-106202438D02*
X111521428Y-106154819D01*
X111521428Y-106154819D02*
X111616666Y-106154819D01*
X111616666Y-106154819D02*
X111759523Y-106202438D01*
X111759523Y-106202438D02*
X111807142Y-106250057D01*
X112759523Y-107154819D02*
X112188095Y-107154819D01*
X112473809Y-107154819D02*
X112473809Y-106154819D01*
X112473809Y-106154819D02*
X112378571Y-106297676D01*
X112378571Y-106297676D02*
X112283333Y-106392914D01*
X112283333Y-106392914D02*
X112188095Y-106440533D01*
X113235714Y-107154819D02*
X113426190Y-107154819D01*
X113426190Y-107154819D02*
X113521428Y-107107200D01*
X113521428Y-107107200D02*
X113569047Y-107059580D01*
X113569047Y-107059580D02*
X113664285Y-106916723D01*
X113664285Y-106916723D02*
X113711904Y-106726247D01*
X113711904Y-106726247D02*
X113711904Y-106345295D01*
X113711904Y-106345295D02*
X113664285Y-106250057D01*
X113664285Y-106250057D02*
X113616666Y-106202438D01*
X113616666Y-106202438D02*
X113521428Y-106154819D01*
X113521428Y-106154819D02*
X113330952Y-106154819D01*
X113330952Y-106154819D02*
X113235714Y-106202438D01*
X113235714Y-106202438D02*
X113188095Y-106250057D01*
X113188095Y-106250057D02*
X113140476Y-106345295D01*
X113140476Y-106345295D02*
X113140476Y-106583390D01*
X113140476Y-106583390D02*
X113188095Y-106678628D01*
X113188095Y-106678628D02*
X113235714Y-106726247D01*
X113235714Y-106726247D02*
X113330952Y-106773866D01*
X113330952Y-106773866D02*
X113521428Y-106773866D01*
X113521428Y-106773866D02*
X113616666Y-106726247D01*
X113616666Y-106726247D02*
X113664285Y-106678628D01*
X113664285Y-106678628D02*
X113711904Y-106583390D01*
D11*
X168949999Y-91606379D02*
X168949999Y-90606379D01*
X168949999Y-90606379D02*
X169116666Y-90606379D01*
X169116666Y-90606379D02*
X169216666Y-90653998D01*
X169216666Y-90653998D02*
X169283333Y-90749236D01*
X169283333Y-90749236D02*
X169316666Y-90844474D01*
X169316666Y-90844474D02*
X169349999Y-91034950D01*
X169349999Y-91034950D02*
X169349999Y-91177807D01*
X169349999Y-91177807D02*
X169316666Y-91368283D01*
X169316666Y-91368283D02*
X169283333Y-91463521D01*
X169283333Y-91463521D02*
X169216666Y-91558760D01*
X169216666Y-91558760D02*
X169116666Y-91606379D01*
X169116666Y-91606379D02*
X168949999Y-91606379D01*
X169616666Y-90701617D02*
X169649999Y-90653998D01*
X169649999Y-90653998D02*
X169716666Y-90606379D01*
X169716666Y-90606379D02*
X169883333Y-90606379D01*
X169883333Y-90606379D02*
X169949999Y-90653998D01*
X169949999Y-90653998D02*
X169983333Y-90701617D01*
X169983333Y-90701617D02*
X170016666Y-90796855D01*
X170016666Y-90796855D02*
X170016666Y-90892093D01*
X170016666Y-90892093D02*
X169983333Y-91034950D01*
X169983333Y-91034950D02*
X169583333Y-91606379D01*
X169583333Y-91606379D02*
X170016666Y-91606379D01*
X170650000Y-90606379D02*
X170316666Y-90606379D01*
X170316666Y-90606379D02*
X170283333Y-91082569D01*
X170283333Y-91082569D02*
X170316666Y-91034950D01*
X170316666Y-91034950D02*
X170383333Y-90987331D01*
X170383333Y-90987331D02*
X170550000Y-90987331D01*
X170550000Y-90987331D02*
X170616666Y-91034950D01*
X170616666Y-91034950D02*
X170650000Y-91082569D01*
X170650000Y-91082569D02*
X170683333Y-91177807D01*
X170683333Y-91177807D02*
X170683333Y-91415902D01*
X170683333Y-91415902D02*
X170650000Y-91511140D01*
X170650000Y-91511140D02*
X170616666Y-91558760D01*
X170616666Y-91558760D02*
X170550000Y-91606379D01*
X170550000Y-91606379D02*
X170383333Y-91606379D01*
X170383333Y-91606379D02*
X170316666Y-91558760D01*
X170316666Y-91558760D02*
X170283333Y-91511140D01*
D12*
X161085714Y-90054819D02*
X160514286Y-90054819D01*
X160800000Y-90054819D02*
X160800000Y-89054819D01*
X160800000Y-89054819D02*
X160704762Y-89197676D01*
X160704762Y-89197676D02*
X160609524Y-89292914D01*
X160609524Y-89292914D02*
X160514286Y-89340533D01*
D11*
X169399999Y-112756379D02*
X169399999Y-111756379D01*
X169399999Y-111756379D02*
X169566666Y-111756379D01*
X169566666Y-111756379D02*
X169666666Y-111803998D01*
X169666666Y-111803998D02*
X169733333Y-111899236D01*
X169733333Y-111899236D02*
X169766666Y-111994474D01*
X169766666Y-111994474D02*
X169799999Y-112184950D01*
X169799999Y-112184950D02*
X169799999Y-112327807D01*
X169799999Y-112327807D02*
X169766666Y-112518283D01*
X169766666Y-112518283D02*
X169733333Y-112613521D01*
X169733333Y-112613521D02*
X169666666Y-112708760D01*
X169666666Y-112708760D02*
X169566666Y-112756379D01*
X169566666Y-112756379D02*
X169399999Y-112756379D01*
X170466666Y-112756379D02*
X170066666Y-112756379D01*
X170266666Y-112756379D02*
X170266666Y-111756379D01*
X170266666Y-111756379D02*
X170199999Y-111899236D01*
X170199999Y-111899236D02*
X170133333Y-111994474D01*
X170133333Y-111994474D02*
X170066666Y-112042093D01*
X170700000Y-111756379D02*
X171133333Y-111756379D01*
X171133333Y-111756379D02*
X170900000Y-112137331D01*
X170900000Y-112137331D02*
X171000000Y-112137331D01*
X171000000Y-112137331D02*
X171066666Y-112184950D01*
X171066666Y-112184950D02*
X171100000Y-112232569D01*
X171100000Y-112232569D02*
X171133333Y-112327807D01*
X171133333Y-112327807D02*
X171133333Y-112565902D01*
X171133333Y-112565902D02*
X171100000Y-112661140D01*
X171100000Y-112661140D02*
X171066666Y-112708760D01*
X171066666Y-112708760D02*
X171000000Y-112756379D01*
X171000000Y-112756379D02*
X170800000Y-112756379D01*
X170800000Y-112756379D02*
X170733333Y-112708760D01*
X170733333Y-112708760D02*
X170700000Y-112661140D01*
D12*
X161535714Y-111054819D02*
X160964286Y-111054819D01*
X161250000Y-111054819D02*
X161250000Y-110054819D01*
X161250000Y-110054819D02*
X161154762Y-110197676D01*
X161154762Y-110197676D02*
X161059524Y-110292914D01*
X161059524Y-110292914D02*
X160964286Y-110340533D01*
X117657142Y-96934580D02*
X117609523Y-96982200D01*
X117609523Y-96982200D02*
X117466666Y-97029819D01*
X117466666Y-97029819D02*
X117371428Y-97029819D01*
X117371428Y-97029819D02*
X117228571Y-96982200D01*
X117228571Y-96982200D02*
X117133333Y-96886961D01*
X117133333Y-96886961D02*
X117085714Y-96791723D01*
X117085714Y-96791723D02*
X117038095Y-96601247D01*
X117038095Y-96601247D02*
X117038095Y-96458390D01*
X117038095Y-96458390D02*
X117085714Y-96267914D01*
X117085714Y-96267914D02*
X117133333Y-96172676D01*
X117133333Y-96172676D02*
X117228571Y-96077438D01*
X117228571Y-96077438D02*
X117371428Y-96029819D01*
X117371428Y-96029819D02*
X117466666Y-96029819D01*
X117466666Y-96029819D02*
X117609523Y-96077438D01*
X117609523Y-96077438D02*
X117657142Y-96125057D01*
X118038095Y-96125057D02*
X118085714Y-96077438D01*
X118085714Y-96077438D02*
X118180952Y-96029819D01*
X118180952Y-96029819D02*
X118419047Y-96029819D01*
X118419047Y-96029819D02*
X118514285Y-96077438D01*
X118514285Y-96077438D02*
X118561904Y-96125057D01*
X118561904Y-96125057D02*
X118609523Y-96220295D01*
X118609523Y-96220295D02*
X118609523Y-96315533D01*
X118609523Y-96315533D02*
X118561904Y-96458390D01*
X118561904Y-96458390D02*
X117990476Y-97029819D01*
X117990476Y-97029819D02*
X118609523Y-97029819D01*
X119228571Y-96029819D02*
X119323809Y-96029819D01*
X119323809Y-96029819D02*
X119419047Y-96077438D01*
X119419047Y-96077438D02*
X119466666Y-96125057D01*
X119466666Y-96125057D02*
X119514285Y-96220295D01*
X119514285Y-96220295D02*
X119561904Y-96410771D01*
X119561904Y-96410771D02*
X119561904Y-96648866D01*
X119561904Y-96648866D02*
X119514285Y-96839342D01*
X119514285Y-96839342D02*
X119466666Y-96934580D01*
X119466666Y-96934580D02*
X119419047Y-96982200D01*
X119419047Y-96982200D02*
X119323809Y-97029819D01*
X119323809Y-97029819D02*
X119228571Y-97029819D01*
X119228571Y-97029819D02*
X119133333Y-96982200D01*
X119133333Y-96982200D02*
X119085714Y-96934580D01*
X119085714Y-96934580D02*
X119038095Y-96839342D01*
X119038095Y-96839342D02*
X118990476Y-96648866D01*
X118990476Y-96648866D02*
X118990476Y-96410771D01*
X118990476Y-96410771D02*
X119038095Y-96220295D01*
X119038095Y-96220295D02*
X119085714Y-96125057D01*
X119085714Y-96125057D02*
X119133333Y-96077438D01*
X119133333Y-96077438D02*
X119228571Y-96029819D01*
X159885714Y-77454819D02*
X159885714Y-76454819D01*
X159885714Y-76454819D02*
X160123809Y-76454819D01*
X160123809Y-76454819D02*
X160266666Y-76502438D01*
X160266666Y-76502438D02*
X160361904Y-76597676D01*
X160361904Y-76597676D02*
X160409523Y-76692914D01*
X160409523Y-76692914D02*
X160457142Y-76883390D01*
X160457142Y-76883390D02*
X160457142Y-77026247D01*
X160457142Y-77026247D02*
X160409523Y-77216723D01*
X160409523Y-77216723D02*
X160361904Y-77311961D01*
X160361904Y-77311961D02*
X160266666Y-77407200D01*
X160266666Y-77407200D02*
X160123809Y-77454819D01*
X160123809Y-77454819D02*
X159885714Y-77454819D01*
X160790476Y-76454819D02*
X161409523Y-76454819D01*
X161409523Y-76454819D02*
X161076190Y-76835771D01*
X161076190Y-76835771D02*
X161219047Y-76835771D01*
X161219047Y-76835771D02*
X161314285Y-76883390D01*
X161314285Y-76883390D02*
X161361904Y-76931009D01*
X161361904Y-76931009D02*
X161409523Y-77026247D01*
X161409523Y-77026247D02*
X161409523Y-77264342D01*
X161409523Y-77264342D02*
X161361904Y-77359580D01*
X161361904Y-77359580D02*
X161314285Y-77407200D01*
X161314285Y-77407200D02*
X161219047Y-77454819D01*
X161219047Y-77454819D02*
X160933333Y-77454819D01*
X160933333Y-77454819D02*
X160838095Y-77407200D01*
X160838095Y-77407200D02*
X160790476Y-77359580D01*
X162314285Y-76454819D02*
X161838095Y-76454819D01*
X161838095Y-76454819D02*
X161790476Y-76931009D01*
X161790476Y-76931009D02*
X161838095Y-76883390D01*
X161838095Y-76883390D02*
X161933333Y-76835771D01*
X161933333Y-76835771D02*
X162171428Y-76835771D01*
X162171428Y-76835771D02*
X162266666Y-76883390D01*
X162266666Y-76883390D02*
X162314285Y-76931009D01*
X162314285Y-76931009D02*
X162361904Y-77026247D01*
X162361904Y-77026247D02*
X162361904Y-77264342D01*
X162361904Y-77264342D02*
X162314285Y-77359580D01*
X162314285Y-77359580D02*
X162266666Y-77407200D01*
X162266666Y-77407200D02*
X162171428Y-77454819D01*
X162171428Y-77454819D02*
X161933333Y-77454819D01*
X161933333Y-77454819D02*
X161838095Y-77407200D01*
X161838095Y-77407200D02*
X161790476Y-77359580D01*
X157235714Y-79354819D02*
X156664286Y-79354819D01*
X156950000Y-79354819D02*
X156950000Y-78354819D01*
X156950000Y-78354819D02*
X156854762Y-78497676D01*
X156854762Y-78497676D02*
X156759524Y-78592914D01*
X156759524Y-78592914D02*
X156664286Y-78640533D01*
D11*
X148849999Y-101306379D02*
X148849999Y-100306379D01*
X148849999Y-100306379D02*
X149016666Y-100306379D01*
X149016666Y-100306379D02*
X149116666Y-100353998D01*
X149116666Y-100353998D02*
X149183333Y-100449236D01*
X149183333Y-100449236D02*
X149216666Y-100544474D01*
X149216666Y-100544474D02*
X149249999Y-100734950D01*
X149249999Y-100734950D02*
X149249999Y-100877807D01*
X149249999Y-100877807D02*
X149216666Y-101068283D01*
X149216666Y-101068283D02*
X149183333Y-101163521D01*
X149183333Y-101163521D02*
X149116666Y-101258760D01*
X149116666Y-101258760D02*
X149016666Y-101306379D01*
X149016666Y-101306379D02*
X148849999Y-101306379D01*
X149516666Y-100401617D02*
X149549999Y-100353998D01*
X149549999Y-100353998D02*
X149616666Y-100306379D01*
X149616666Y-100306379D02*
X149783333Y-100306379D01*
X149783333Y-100306379D02*
X149849999Y-100353998D01*
X149849999Y-100353998D02*
X149883333Y-100401617D01*
X149883333Y-100401617D02*
X149916666Y-100496855D01*
X149916666Y-100496855D02*
X149916666Y-100592093D01*
X149916666Y-100592093D02*
X149883333Y-100734950D01*
X149883333Y-100734950D02*
X149483333Y-101306379D01*
X149483333Y-101306379D02*
X149916666Y-101306379D01*
X150183333Y-100401617D02*
X150216666Y-100353998D01*
X150216666Y-100353998D02*
X150283333Y-100306379D01*
X150283333Y-100306379D02*
X150450000Y-100306379D01*
X150450000Y-100306379D02*
X150516666Y-100353998D01*
X150516666Y-100353998D02*
X150550000Y-100401617D01*
X150550000Y-100401617D02*
X150583333Y-100496855D01*
X150583333Y-100496855D02*
X150583333Y-100592093D01*
X150583333Y-100592093D02*
X150550000Y-100734950D01*
X150550000Y-100734950D02*
X150150000Y-101306379D01*
X150150000Y-101306379D02*
X150583333Y-101306379D01*
D12*
X141335714Y-99704819D02*
X140764286Y-99704819D01*
X141050000Y-99704819D02*
X141050000Y-98704819D01*
X141050000Y-98704819D02*
X140954762Y-98847676D01*
X140954762Y-98847676D02*
X140859524Y-98942914D01*
X140859524Y-98942914D02*
X140764286Y-98990533D01*
X120157142Y-86159580D02*
X120109523Y-86207200D01*
X120109523Y-86207200D02*
X119966666Y-86254819D01*
X119966666Y-86254819D02*
X119871428Y-86254819D01*
X119871428Y-86254819D02*
X119728571Y-86207200D01*
X119728571Y-86207200D02*
X119633333Y-86111961D01*
X119633333Y-86111961D02*
X119585714Y-86016723D01*
X119585714Y-86016723D02*
X119538095Y-85826247D01*
X119538095Y-85826247D02*
X119538095Y-85683390D01*
X119538095Y-85683390D02*
X119585714Y-85492914D01*
X119585714Y-85492914D02*
X119633333Y-85397676D01*
X119633333Y-85397676D02*
X119728571Y-85302438D01*
X119728571Y-85302438D02*
X119871428Y-85254819D01*
X119871428Y-85254819D02*
X119966666Y-85254819D01*
X119966666Y-85254819D02*
X120109523Y-85302438D01*
X120109523Y-85302438D02*
X120157142Y-85350057D01*
X120490476Y-85254819D02*
X121109523Y-85254819D01*
X121109523Y-85254819D02*
X120776190Y-85635771D01*
X120776190Y-85635771D02*
X120919047Y-85635771D01*
X120919047Y-85635771D02*
X121014285Y-85683390D01*
X121014285Y-85683390D02*
X121061904Y-85731009D01*
X121061904Y-85731009D02*
X121109523Y-85826247D01*
X121109523Y-85826247D02*
X121109523Y-86064342D01*
X121109523Y-86064342D02*
X121061904Y-86159580D01*
X121061904Y-86159580D02*
X121014285Y-86207200D01*
X121014285Y-86207200D02*
X120919047Y-86254819D01*
X120919047Y-86254819D02*
X120633333Y-86254819D01*
X120633333Y-86254819D02*
X120538095Y-86207200D01*
X120538095Y-86207200D02*
X120490476Y-86159580D01*
X121728571Y-85254819D02*
X121823809Y-85254819D01*
X121823809Y-85254819D02*
X121919047Y-85302438D01*
X121919047Y-85302438D02*
X121966666Y-85350057D01*
X121966666Y-85350057D02*
X122014285Y-85445295D01*
X122014285Y-85445295D02*
X122061904Y-85635771D01*
X122061904Y-85635771D02*
X122061904Y-85873866D01*
X122061904Y-85873866D02*
X122014285Y-86064342D01*
X122014285Y-86064342D02*
X121966666Y-86159580D01*
X121966666Y-86159580D02*
X121919047Y-86207200D01*
X121919047Y-86207200D02*
X121823809Y-86254819D01*
X121823809Y-86254819D02*
X121728571Y-86254819D01*
X121728571Y-86254819D02*
X121633333Y-86207200D01*
X121633333Y-86207200D02*
X121585714Y-86159580D01*
X121585714Y-86159580D02*
X121538095Y-86064342D01*
X121538095Y-86064342D02*
X121490476Y-85873866D01*
X121490476Y-85873866D02*
X121490476Y-85635771D01*
X121490476Y-85635771D02*
X121538095Y-85445295D01*
X121538095Y-85445295D02*
X121585714Y-85350057D01*
X121585714Y-85350057D02*
X121633333Y-85302438D01*
X121633333Y-85302438D02*
X121728571Y-85254819D01*
X111907142Y-86534580D02*
X111859523Y-86582200D01*
X111859523Y-86582200D02*
X111716666Y-86629819D01*
X111716666Y-86629819D02*
X111621428Y-86629819D01*
X111621428Y-86629819D02*
X111478571Y-86582200D01*
X111478571Y-86582200D02*
X111383333Y-86486961D01*
X111383333Y-86486961D02*
X111335714Y-86391723D01*
X111335714Y-86391723D02*
X111288095Y-86201247D01*
X111288095Y-86201247D02*
X111288095Y-86058390D01*
X111288095Y-86058390D02*
X111335714Y-85867914D01*
X111335714Y-85867914D02*
X111383333Y-85772676D01*
X111383333Y-85772676D02*
X111478571Y-85677438D01*
X111478571Y-85677438D02*
X111621428Y-85629819D01*
X111621428Y-85629819D02*
X111716666Y-85629819D01*
X111716666Y-85629819D02*
X111859523Y-85677438D01*
X111859523Y-85677438D02*
X111907142Y-85725057D01*
X112240476Y-85629819D02*
X112859523Y-85629819D01*
X112859523Y-85629819D02*
X112526190Y-86010771D01*
X112526190Y-86010771D02*
X112669047Y-86010771D01*
X112669047Y-86010771D02*
X112764285Y-86058390D01*
X112764285Y-86058390D02*
X112811904Y-86106009D01*
X112811904Y-86106009D02*
X112859523Y-86201247D01*
X112859523Y-86201247D02*
X112859523Y-86439342D01*
X112859523Y-86439342D02*
X112811904Y-86534580D01*
X112811904Y-86534580D02*
X112764285Y-86582200D01*
X112764285Y-86582200D02*
X112669047Y-86629819D01*
X112669047Y-86629819D02*
X112383333Y-86629819D01*
X112383333Y-86629819D02*
X112288095Y-86582200D01*
X112288095Y-86582200D02*
X112240476Y-86534580D01*
X113811904Y-86629819D02*
X113240476Y-86629819D01*
X113526190Y-86629819D02*
X113526190Y-85629819D01*
X113526190Y-85629819D02*
X113430952Y-85772676D01*
X113430952Y-85772676D02*
X113335714Y-85867914D01*
X113335714Y-85867914D02*
X113240476Y-85915533D01*
X151657142Y-117559580D02*
X151609523Y-117607200D01*
X151609523Y-117607200D02*
X151466666Y-117654819D01*
X151466666Y-117654819D02*
X151371428Y-117654819D01*
X151371428Y-117654819D02*
X151228571Y-117607200D01*
X151228571Y-117607200D02*
X151133333Y-117511961D01*
X151133333Y-117511961D02*
X151085714Y-117416723D01*
X151085714Y-117416723D02*
X151038095Y-117226247D01*
X151038095Y-117226247D02*
X151038095Y-117083390D01*
X151038095Y-117083390D02*
X151085714Y-116892914D01*
X151085714Y-116892914D02*
X151133333Y-116797676D01*
X151133333Y-116797676D02*
X151228571Y-116702438D01*
X151228571Y-116702438D02*
X151371428Y-116654819D01*
X151371428Y-116654819D02*
X151466666Y-116654819D01*
X151466666Y-116654819D02*
X151609523Y-116702438D01*
X151609523Y-116702438D02*
X151657142Y-116750057D01*
X152609523Y-117654819D02*
X152038095Y-117654819D01*
X152323809Y-117654819D02*
X152323809Y-116654819D01*
X152323809Y-116654819D02*
X152228571Y-116797676D01*
X152228571Y-116797676D02*
X152133333Y-116892914D01*
X152133333Y-116892914D02*
X152038095Y-116940533D01*
X153561904Y-117654819D02*
X152990476Y-117654819D01*
X153276190Y-117654819D02*
X153276190Y-116654819D01*
X153276190Y-116654819D02*
X153180952Y-116797676D01*
X153180952Y-116797676D02*
X153085714Y-116892914D01*
X153085714Y-116892914D02*
X152990476Y-116940533D01*
D11*
X149583333Y-131706379D02*
X149583333Y-130706379D01*
X149583333Y-130706379D02*
X149750000Y-130706379D01*
X149750000Y-130706379D02*
X149850000Y-130753998D01*
X149850000Y-130753998D02*
X149916667Y-130849236D01*
X149916667Y-130849236D02*
X149950000Y-130944474D01*
X149950000Y-130944474D02*
X149983333Y-131134950D01*
X149983333Y-131134950D02*
X149983333Y-131277807D01*
X149983333Y-131277807D02*
X149950000Y-131468283D01*
X149950000Y-131468283D02*
X149916667Y-131563521D01*
X149916667Y-131563521D02*
X149850000Y-131658760D01*
X149850000Y-131658760D02*
X149750000Y-131706379D01*
X149750000Y-131706379D02*
X149583333Y-131706379D01*
X150216667Y-130706379D02*
X150650000Y-130706379D01*
X150650000Y-130706379D02*
X150416667Y-131087331D01*
X150416667Y-131087331D02*
X150516667Y-131087331D01*
X150516667Y-131087331D02*
X150583333Y-131134950D01*
X150583333Y-131134950D02*
X150616667Y-131182569D01*
X150616667Y-131182569D02*
X150650000Y-131277807D01*
X150650000Y-131277807D02*
X150650000Y-131515902D01*
X150650000Y-131515902D02*
X150616667Y-131611140D01*
X150616667Y-131611140D02*
X150583333Y-131658760D01*
X150583333Y-131658760D02*
X150516667Y-131706379D01*
X150516667Y-131706379D02*
X150316667Y-131706379D01*
X150316667Y-131706379D02*
X150250000Y-131658760D01*
X150250000Y-131658760D02*
X150216667Y-131611140D01*
D12*
X141785714Y-130004819D02*
X141214286Y-130004819D01*
X141500000Y-130004819D02*
X141500000Y-129004819D01*
X141500000Y-129004819D02*
X141404762Y-129147676D01*
X141404762Y-129147676D02*
X141309524Y-129242914D01*
X141309524Y-129242914D02*
X141214286Y-129290533D01*
D11*
X139149999Y-101306379D02*
X139149999Y-100306379D01*
X139149999Y-100306379D02*
X139316666Y-100306379D01*
X139316666Y-100306379D02*
X139416666Y-100353998D01*
X139416666Y-100353998D02*
X139483333Y-100449236D01*
X139483333Y-100449236D02*
X139516666Y-100544474D01*
X139516666Y-100544474D02*
X139549999Y-100734950D01*
X139549999Y-100734950D02*
X139549999Y-100877807D01*
X139549999Y-100877807D02*
X139516666Y-101068283D01*
X139516666Y-101068283D02*
X139483333Y-101163521D01*
X139483333Y-101163521D02*
X139416666Y-101258760D01*
X139416666Y-101258760D02*
X139316666Y-101306379D01*
X139316666Y-101306379D02*
X139149999Y-101306379D01*
X139816666Y-100401617D02*
X139849999Y-100353998D01*
X139849999Y-100353998D02*
X139916666Y-100306379D01*
X139916666Y-100306379D02*
X140083333Y-100306379D01*
X140083333Y-100306379D02*
X140149999Y-100353998D01*
X140149999Y-100353998D02*
X140183333Y-100401617D01*
X140183333Y-100401617D02*
X140216666Y-100496855D01*
X140216666Y-100496855D02*
X140216666Y-100592093D01*
X140216666Y-100592093D02*
X140183333Y-100734950D01*
X140183333Y-100734950D02*
X139783333Y-101306379D01*
X139783333Y-101306379D02*
X140216666Y-101306379D01*
X140883333Y-101306379D02*
X140483333Y-101306379D01*
X140683333Y-101306379D02*
X140683333Y-100306379D01*
X140683333Y-100306379D02*
X140616666Y-100449236D01*
X140616666Y-100449236D02*
X140550000Y-100544474D01*
X140550000Y-100544474D02*
X140483333Y-100592093D01*
D12*
X131635714Y-99654819D02*
X131064286Y-99654819D01*
X131350000Y-99654819D02*
X131350000Y-98654819D01*
X131350000Y-98654819D02*
X131254762Y-98797676D01*
X131254762Y-98797676D02*
X131159524Y-98892914D01*
X131159524Y-98892914D02*
X131064286Y-98940533D01*
D11*
X128133333Y-131356379D02*
X128133333Y-130356379D01*
X128133333Y-130356379D02*
X128300000Y-130356379D01*
X128300000Y-130356379D02*
X128400000Y-130403998D01*
X128400000Y-130403998D02*
X128466667Y-130499236D01*
X128466667Y-130499236D02*
X128500000Y-130594474D01*
X128500000Y-130594474D02*
X128533333Y-130784950D01*
X128533333Y-130784950D02*
X128533333Y-130927807D01*
X128533333Y-130927807D02*
X128500000Y-131118283D01*
X128500000Y-131118283D02*
X128466667Y-131213521D01*
X128466667Y-131213521D02*
X128400000Y-131308760D01*
X128400000Y-131308760D02*
X128300000Y-131356379D01*
X128300000Y-131356379D02*
X128133333Y-131356379D01*
X129166667Y-130356379D02*
X128833333Y-130356379D01*
X128833333Y-130356379D02*
X128800000Y-130832569D01*
X128800000Y-130832569D02*
X128833333Y-130784950D01*
X128833333Y-130784950D02*
X128900000Y-130737331D01*
X128900000Y-130737331D02*
X129066667Y-130737331D01*
X129066667Y-130737331D02*
X129133333Y-130784950D01*
X129133333Y-130784950D02*
X129166667Y-130832569D01*
X129166667Y-130832569D02*
X129200000Y-130927807D01*
X129200000Y-130927807D02*
X129200000Y-131165902D01*
X129200000Y-131165902D02*
X129166667Y-131261140D01*
X129166667Y-131261140D02*
X129133333Y-131308760D01*
X129133333Y-131308760D02*
X129066667Y-131356379D01*
X129066667Y-131356379D02*
X128900000Y-131356379D01*
X128900000Y-131356379D02*
X128833333Y-131308760D01*
X128833333Y-131308760D02*
X128800000Y-131261140D01*
D12*
X120335714Y-129854819D02*
X119764286Y-129854819D01*
X120050000Y-129854819D02*
X120050000Y-128854819D01*
X120050000Y-128854819D02*
X119954762Y-128997676D01*
X119954762Y-128997676D02*
X119859524Y-129092914D01*
X119859524Y-129092914D02*
X119764286Y-129140533D01*
D11*
X168849999Y-101256379D02*
X168849999Y-100256379D01*
X168849999Y-100256379D02*
X169016666Y-100256379D01*
X169016666Y-100256379D02*
X169116666Y-100303998D01*
X169116666Y-100303998D02*
X169183333Y-100399236D01*
X169183333Y-100399236D02*
X169216666Y-100494474D01*
X169216666Y-100494474D02*
X169249999Y-100684950D01*
X169249999Y-100684950D02*
X169249999Y-100827807D01*
X169249999Y-100827807D02*
X169216666Y-101018283D01*
X169216666Y-101018283D02*
X169183333Y-101113521D01*
X169183333Y-101113521D02*
X169116666Y-101208760D01*
X169116666Y-101208760D02*
X169016666Y-101256379D01*
X169016666Y-101256379D02*
X168849999Y-101256379D01*
X169516666Y-100351617D02*
X169549999Y-100303998D01*
X169549999Y-100303998D02*
X169616666Y-100256379D01*
X169616666Y-100256379D02*
X169783333Y-100256379D01*
X169783333Y-100256379D02*
X169849999Y-100303998D01*
X169849999Y-100303998D02*
X169883333Y-100351617D01*
X169883333Y-100351617D02*
X169916666Y-100446855D01*
X169916666Y-100446855D02*
X169916666Y-100542093D01*
X169916666Y-100542093D02*
X169883333Y-100684950D01*
X169883333Y-100684950D02*
X169483333Y-101256379D01*
X169483333Y-101256379D02*
X169916666Y-101256379D01*
X170516666Y-100589712D02*
X170516666Y-101256379D01*
X170350000Y-100208760D02*
X170183333Y-100923045D01*
X170183333Y-100923045D02*
X170616666Y-100923045D01*
D12*
X161385714Y-99704819D02*
X160814286Y-99704819D01*
X161100000Y-99704819D02*
X161100000Y-98704819D01*
X161100000Y-98704819D02*
X161004762Y-98847676D01*
X161004762Y-98847676D02*
X160909524Y-98942914D01*
X160909524Y-98942914D02*
X160814286Y-98990533D01*
X151557142Y-86159580D02*
X151509523Y-86207200D01*
X151509523Y-86207200D02*
X151366666Y-86254819D01*
X151366666Y-86254819D02*
X151271428Y-86254819D01*
X151271428Y-86254819D02*
X151128571Y-86207200D01*
X151128571Y-86207200D02*
X151033333Y-86111961D01*
X151033333Y-86111961D02*
X150985714Y-86016723D01*
X150985714Y-86016723D02*
X150938095Y-85826247D01*
X150938095Y-85826247D02*
X150938095Y-85683390D01*
X150938095Y-85683390D02*
X150985714Y-85492914D01*
X150985714Y-85492914D02*
X151033333Y-85397676D01*
X151033333Y-85397676D02*
X151128571Y-85302438D01*
X151128571Y-85302438D02*
X151271428Y-85254819D01*
X151271428Y-85254819D02*
X151366666Y-85254819D01*
X151366666Y-85254819D02*
X151509523Y-85302438D01*
X151509523Y-85302438D02*
X151557142Y-85350057D01*
X151938095Y-85350057D02*
X151985714Y-85302438D01*
X151985714Y-85302438D02*
X152080952Y-85254819D01*
X152080952Y-85254819D02*
X152319047Y-85254819D01*
X152319047Y-85254819D02*
X152414285Y-85302438D01*
X152414285Y-85302438D02*
X152461904Y-85350057D01*
X152461904Y-85350057D02*
X152509523Y-85445295D01*
X152509523Y-85445295D02*
X152509523Y-85540533D01*
X152509523Y-85540533D02*
X152461904Y-85683390D01*
X152461904Y-85683390D02*
X151890476Y-86254819D01*
X151890476Y-86254819D02*
X152509523Y-86254819D01*
X152842857Y-85254819D02*
X153509523Y-85254819D01*
X153509523Y-85254819D02*
X153080952Y-86254819D01*
X162233333Y-127759580D02*
X162185714Y-127807200D01*
X162185714Y-127807200D02*
X162042857Y-127854819D01*
X162042857Y-127854819D02*
X161947619Y-127854819D01*
X161947619Y-127854819D02*
X161804762Y-127807200D01*
X161804762Y-127807200D02*
X161709524Y-127711961D01*
X161709524Y-127711961D02*
X161661905Y-127616723D01*
X161661905Y-127616723D02*
X161614286Y-127426247D01*
X161614286Y-127426247D02*
X161614286Y-127283390D01*
X161614286Y-127283390D02*
X161661905Y-127092914D01*
X161661905Y-127092914D02*
X161709524Y-126997676D01*
X161709524Y-126997676D02*
X161804762Y-126902438D01*
X161804762Y-126902438D02*
X161947619Y-126854819D01*
X161947619Y-126854819D02*
X162042857Y-126854819D01*
X162042857Y-126854819D02*
X162185714Y-126902438D01*
X162185714Y-126902438D02*
X162233333Y-126950057D01*
X162614286Y-126950057D02*
X162661905Y-126902438D01*
X162661905Y-126902438D02*
X162757143Y-126854819D01*
X162757143Y-126854819D02*
X162995238Y-126854819D01*
X162995238Y-126854819D02*
X163090476Y-126902438D01*
X163090476Y-126902438D02*
X163138095Y-126950057D01*
X163138095Y-126950057D02*
X163185714Y-127045295D01*
X163185714Y-127045295D02*
X163185714Y-127140533D01*
X163185714Y-127140533D02*
X163138095Y-127283390D01*
X163138095Y-127283390D02*
X162566667Y-127854819D01*
X162566667Y-127854819D02*
X163185714Y-127854819D01*
D11*
X128399999Y-112256379D02*
X128399999Y-111256379D01*
X128399999Y-111256379D02*
X128566666Y-111256379D01*
X128566666Y-111256379D02*
X128666666Y-111303998D01*
X128666666Y-111303998D02*
X128733333Y-111399236D01*
X128733333Y-111399236D02*
X128766666Y-111494474D01*
X128766666Y-111494474D02*
X128799999Y-111684950D01*
X128799999Y-111684950D02*
X128799999Y-111827807D01*
X128799999Y-111827807D02*
X128766666Y-112018283D01*
X128766666Y-112018283D02*
X128733333Y-112113521D01*
X128733333Y-112113521D02*
X128666666Y-112208760D01*
X128666666Y-112208760D02*
X128566666Y-112256379D01*
X128566666Y-112256379D02*
X128399999Y-112256379D01*
X129466666Y-112256379D02*
X129066666Y-112256379D01*
X129266666Y-112256379D02*
X129266666Y-111256379D01*
X129266666Y-111256379D02*
X129199999Y-111399236D01*
X129199999Y-111399236D02*
X129133333Y-111494474D01*
X129133333Y-111494474D02*
X129066666Y-111542093D01*
X129700000Y-111256379D02*
X130166666Y-111256379D01*
X130166666Y-111256379D02*
X129866666Y-112256379D01*
D12*
X120685714Y-110804819D02*
X120114286Y-110804819D01*
X120400000Y-110804819D02*
X120400000Y-109804819D01*
X120400000Y-109804819D02*
X120304762Y-109947676D01*
X120304762Y-109947676D02*
X120209524Y-110042914D01*
X120209524Y-110042914D02*
X120114286Y-110090533D01*
X153535714Y-88154819D02*
X153535714Y-87154819D01*
X153535714Y-87154819D02*
X153773809Y-87154819D01*
X153773809Y-87154819D02*
X153916666Y-87202438D01*
X153916666Y-87202438D02*
X154011904Y-87297676D01*
X154011904Y-87297676D02*
X154059523Y-87392914D01*
X154059523Y-87392914D02*
X154107142Y-87583390D01*
X154107142Y-87583390D02*
X154107142Y-87726247D01*
X154107142Y-87726247D02*
X154059523Y-87916723D01*
X154059523Y-87916723D02*
X154011904Y-88011961D01*
X154011904Y-88011961D02*
X153916666Y-88107200D01*
X153916666Y-88107200D02*
X153773809Y-88154819D01*
X153773809Y-88154819D02*
X153535714Y-88154819D01*
X154488095Y-87250057D02*
X154535714Y-87202438D01*
X154535714Y-87202438D02*
X154630952Y-87154819D01*
X154630952Y-87154819D02*
X154869047Y-87154819D01*
X154869047Y-87154819D02*
X154964285Y-87202438D01*
X154964285Y-87202438D02*
X155011904Y-87250057D01*
X155011904Y-87250057D02*
X155059523Y-87345295D01*
X155059523Y-87345295D02*
X155059523Y-87440533D01*
X155059523Y-87440533D02*
X155011904Y-87583390D01*
X155011904Y-87583390D02*
X154440476Y-88154819D01*
X154440476Y-88154819D02*
X155059523Y-88154819D01*
X155916666Y-87154819D02*
X155726190Y-87154819D01*
X155726190Y-87154819D02*
X155630952Y-87202438D01*
X155630952Y-87202438D02*
X155583333Y-87250057D01*
X155583333Y-87250057D02*
X155488095Y-87392914D01*
X155488095Y-87392914D02*
X155440476Y-87583390D01*
X155440476Y-87583390D02*
X155440476Y-87964342D01*
X155440476Y-87964342D02*
X155488095Y-88059580D01*
X155488095Y-88059580D02*
X155535714Y-88107200D01*
X155535714Y-88107200D02*
X155630952Y-88154819D01*
X155630952Y-88154819D02*
X155821428Y-88154819D01*
X155821428Y-88154819D02*
X155916666Y-88107200D01*
X155916666Y-88107200D02*
X155964285Y-88059580D01*
X155964285Y-88059580D02*
X156011904Y-87964342D01*
X156011904Y-87964342D02*
X156011904Y-87726247D01*
X156011904Y-87726247D02*
X155964285Y-87631009D01*
X155964285Y-87631009D02*
X155916666Y-87583390D01*
X155916666Y-87583390D02*
X155821428Y-87535771D01*
X155821428Y-87535771D02*
X155630952Y-87535771D01*
X155630952Y-87535771D02*
X155535714Y-87583390D01*
X155535714Y-87583390D02*
X155488095Y-87631009D01*
X155488095Y-87631009D02*
X155440476Y-87726247D01*
X150885714Y-90054819D02*
X150314286Y-90054819D01*
X150600000Y-90054819D02*
X150600000Y-89054819D01*
X150600000Y-89054819D02*
X150504762Y-89197676D01*
X150504762Y-89197676D02*
X150409524Y-89292914D01*
X150409524Y-89292914D02*
X150314286Y-89340533D01*
D11*
X168349999Y-121056379D02*
X168349999Y-120056379D01*
X168349999Y-120056379D02*
X168516666Y-120056379D01*
X168516666Y-120056379D02*
X168616666Y-120103998D01*
X168616666Y-120103998D02*
X168683333Y-120199236D01*
X168683333Y-120199236D02*
X168716666Y-120294474D01*
X168716666Y-120294474D02*
X168749999Y-120484950D01*
X168749999Y-120484950D02*
X168749999Y-120627807D01*
X168749999Y-120627807D02*
X168716666Y-120818283D01*
X168716666Y-120818283D02*
X168683333Y-120913521D01*
X168683333Y-120913521D02*
X168616666Y-121008760D01*
X168616666Y-121008760D02*
X168516666Y-121056379D01*
X168516666Y-121056379D02*
X168349999Y-121056379D01*
X169416666Y-121056379D02*
X169016666Y-121056379D01*
X169216666Y-121056379D02*
X169216666Y-120056379D01*
X169216666Y-120056379D02*
X169149999Y-120199236D01*
X169149999Y-120199236D02*
X169083333Y-120294474D01*
X169083333Y-120294474D02*
X169016666Y-120342093D01*
X169683333Y-120151617D02*
X169716666Y-120103998D01*
X169716666Y-120103998D02*
X169783333Y-120056379D01*
X169783333Y-120056379D02*
X169950000Y-120056379D01*
X169950000Y-120056379D02*
X170016666Y-120103998D01*
X170016666Y-120103998D02*
X170050000Y-120151617D01*
X170050000Y-120151617D02*
X170083333Y-120246855D01*
X170083333Y-120246855D02*
X170083333Y-120342093D01*
X170083333Y-120342093D02*
X170050000Y-120484950D01*
X170050000Y-120484950D02*
X169650000Y-121056379D01*
X169650000Y-121056379D02*
X170083333Y-121056379D01*
D12*
X164104819Y-124314285D02*
X164104819Y-124885713D01*
X164104819Y-124599999D02*
X163104819Y-124599999D01*
X163104819Y-124599999D02*
X163247676Y-124695237D01*
X163247676Y-124695237D02*
X163342914Y-124790475D01*
X163342914Y-124790475D02*
X163390533Y-124885713D01*
X132033333Y-117559580D02*
X131985714Y-117607200D01*
X131985714Y-117607200D02*
X131842857Y-117654819D01*
X131842857Y-117654819D02*
X131747619Y-117654819D01*
X131747619Y-117654819D02*
X131604762Y-117607200D01*
X131604762Y-117607200D02*
X131509524Y-117511961D01*
X131509524Y-117511961D02*
X131461905Y-117416723D01*
X131461905Y-117416723D02*
X131414286Y-117226247D01*
X131414286Y-117226247D02*
X131414286Y-117083390D01*
X131414286Y-117083390D02*
X131461905Y-116892914D01*
X131461905Y-116892914D02*
X131509524Y-116797676D01*
X131509524Y-116797676D02*
X131604762Y-116702438D01*
X131604762Y-116702438D02*
X131747619Y-116654819D01*
X131747619Y-116654819D02*
X131842857Y-116654819D01*
X131842857Y-116654819D02*
X131985714Y-116702438D01*
X131985714Y-116702438D02*
X132033333Y-116750057D01*
X132509524Y-117654819D02*
X132700000Y-117654819D01*
X132700000Y-117654819D02*
X132795238Y-117607200D01*
X132795238Y-117607200D02*
X132842857Y-117559580D01*
X132842857Y-117559580D02*
X132938095Y-117416723D01*
X132938095Y-117416723D02*
X132985714Y-117226247D01*
X132985714Y-117226247D02*
X132985714Y-116845295D01*
X132985714Y-116845295D02*
X132938095Y-116750057D01*
X132938095Y-116750057D02*
X132890476Y-116702438D01*
X132890476Y-116702438D02*
X132795238Y-116654819D01*
X132795238Y-116654819D02*
X132604762Y-116654819D01*
X132604762Y-116654819D02*
X132509524Y-116702438D01*
X132509524Y-116702438D02*
X132461905Y-116750057D01*
X132461905Y-116750057D02*
X132414286Y-116845295D01*
X132414286Y-116845295D02*
X132414286Y-117083390D01*
X132414286Y-117083390D02*
X132461905Y-117178628D01*
X132461905Y-117178628D02*
X132509524Y-117226247D01*
X132509524Y-117226247D02*
X132604762Y-117273866D01*
X132604762Y-117273866D02*
X132795238Y-117273866D01*
X132795238Y-117273866D02*
X132890476Y-117226247D01*
X132890476Y-117226247D02*
X132938095Y-117178628D01*
X132938095Y-117178628D02*
X132985714Y-117083390D01*
X141857142Y-107159580D02*
X141809523Y-107207200D01*
X141809523Y-107207200D02*
X141666666Y-107254819D01*
X141666666Y-107254819D02*
X141571428Y-107254819D01*
X141571428Y-107254819D02*
X141428571Y-107207200D01*
X141428571Y-107207200D02*
X141333333Y-107111961D01*
X141333333Y-107111961D02*
X141285714Y-107016723D01*
X141285714Y-107016723D02*
X141238095Y-106826247D01*
X141238095Y-106826247D02*
X141238095Y-106683390D01*
X141238095Y-106683390D02*
X141285714Y-106492914D01*
X141285714Y-106492914D02*
X141333333Y-106397676D01*
X141333333Y-106397676D02*
X141428571Y-106302438D01*
X141428571Y-106302438D02*
X141571428Y-106254819D01*
X141571428Y-106254819D02*
X141666666Y-106254819D01*
X141666666Y-106254819D02*
X141809523Y-106302438D01*
X141809523Y-106302438D02*
X141857142Y-106350057D01*
X142809523Y-107254819D02*
X142238095Y-107254819D01*
X142523809Y-107254819D02*
X142523809Y-106254819D01*
X142523809Y-106254819D02*
X142428571Y-106397676D01*
X142428571Y-106397676D02*
X142333333Y-106492914D01*
X142333333Y-106492914D02*
X142238095Y-106540533D01*
X143666666Y-106254819D02*
X143476190Y-106254819D01*
X143476190Y-106254819D02*
X143380952Y-106302438D01*
X143380952Y-106302438D02*
X143333333Y-106350057D01*
X143333333Y-106350057D02*
X143238095Y-106492914D01*
X143238095Y-106492914D02*
X143190476Y-106683390D01*
X143190476Y-106683390D02*
X143190476Y-107064342D01*
X143190476Y-107064342D02*
X143238095Y-107159580D01*
X143238095Y-107159580D02*
X143285714Y-107207200D01*
X143285714Y-107207200D02*
X143380952Y-107254819D01*
X143380952Y-107254819D02*
X143571428Y-107254819D01*
X143571428Y-107254819D02*
X143666666Y-107207200D01*
X143666666Y-107207200D02*
X143714285Y-107159580D01*
X143714285Y-107159580D02*
X143761904Y-107064342D01*
X143761904Y-107064342D02*
X143761904Y-106826247D01*
X143761904Y-106826247D02*
X143714285Y-106731009D01*
X143714285Y-106731009D02*
X143666666Y-106683390D01*
X143666666Y-106683390D02*
X143571428Y-106635771D01*
X143571428Y-106635771D02*
X143380952Y-106635771D01*
X143380952Y-106635771D02*
X143285714Y-106683390D01*
X143285714Y-106683390D02*
X143238095Y-106731009D01*
X143238095Y-106731009D02*
X143190476Y-106826247D01*
X130757142Y-96959580D02*
X130709523Y-97007200D01*
X130709523Y-97007200D02*
X130566666Y-97054819D01*
X130566666Y-97054819D02*
X130471428Y-97054819D01*
X130471428Y-97054819D02*
X130328571Y-97007200D01*
X130328571Y-97007200D02*
X130233333Y-96911961D01*
X130233333Y-96911961D02*
X130185714Y-96816723D01*
X130185714Y-96816723D02*
X130138095Y-96626247D01*
X130138095Y-96626247D02*
X130138095Y-96483390D01*
X130138095Y-96483390D02*
X130185714Y-96292914D01*
X130185714Y-96292914D02*
X130233333Y-96197676D01*
X130233333Y-96197676D02*
X130328571Y-96102438D01*
X130328571Y-96102438D02*
X130471428Y-96054819D01*
X130471428Y-96054819D02*
X130566666Y-96054819D01*
X130566666Y-96054819D02*
X130709523Y-96102438D01*
X130709523Y-96102438D02*
X130757142Y-96150057D01*
X131138095Y-96150057D02*
X131185714Y-96102438D01*
X131185714Y-96102438D02*
X131280952Y-96054819D01*
X131280952Y-96054819D02*
X131519047Y-96054819D01*
X131519047Y-96054819D02*
X131614285Y-96102438D01*
X131614285Y-96102438D02*
X131661904Y-96150057D01*
X131661904Y-96150057D02*
X131709523Y-96245295D01*
X131709523Y-96245295D02*
X131709523Y-96340533D01*
X131709523Y-96340533D02*
X131661904Y-96483390D01*
X131661904Y-96483390D02*
X131090476Y-97054819D01*
X131090476Y-97054819D02*
X131709523Y-97054819D01*
X132661904Y-97054819D02*
X132090476Y-97054819D01*
X132376190Y-97054819D02*
X132376190Y-96054819D01*
X132376190Y-96054819D02*
X132280952Y-96197676D01*
X132280952Y-96197676D02*
X132185714Y-96292914D01*
X132185714Y-96292914D02*
X132090476Y-96340533D01*
X142157142Y-117559580D02*
X142109523Y-117607200D01*
X142109523Y-117607200D02*
X141966666Y-117654819D01*
X141966666Y-117654819D02*
X141871428Y-117654819D01*
X141871428Y-117654819D02*
X141728571Y-117607200D01*
X141728571Y-117607200D02*
X141633333Y-117511961D01*
X141633333Y-117511961D02*
X141585714Y-117416723D01*
X141585714Y-117416723D02*
X141538095Y-117226247D01*
X141538095Y-117226247D02*
X141538095Y-117083390D01*
X141538095Y-117083390D02*
X141585714Y-116892914D01*
X141585714Y-116892914D02*
X141633333Y-116797676D01*
X141633333Y-116797676D02*
X141728571Y-116702438D01*
X141728571Y-116702438D02*
X141871428Y-116654819D01*
X141871428Y-116654819D02*
X141966666Y-116654819D01*
X141966666Y-116654819D02*
X142109523Y-116702438D01*
X142109523Y-116702438D02*
X142157142Y-116750057D01*
X143109523Y-117654819D02*
X142538095Y-117654819D01*
X142823809Y-117654819D02*
X142823809Y-116654819D01*
X142823809Y-116654819D02*
X142728571Y-116797676D01*
X142728571Y-116797676D02*
X142633333Y-116892914D01*
X142633333Y-116892914D02*
X142538095Y-116940533D01*
X143728571Y-116654819D02*
X143823809Y-116654819D01*
X143823809Y-116654819D02*
X143919047Y-116702438D01*
X143919047Y-116702438D02*
X143966666Y-116750057D01*
X143966666Y-116750057D02*
X144014285Y-116845295D01*
X144014285Y-116845295D02*
X144061904Y-117035771D01*
X144061904Y-117035771D02*
X144061904Y-117273866D01*
X144061904Y-117273866D02*
X144014285Y-117464342D01*
X144014285Y-117464342D02*
X143966666Y-117559580D01*
X143966666Y-117559580D02*
X143919047Y-117607200D01*
X143919047Y-117607200D02*
X143823809Y-117654819D01*
X143823809Y-117654819D02*
X143728571Y-117654819D01*
X143728571Y-117654819D02*
X143633333Y-117607200D01*
X143633333Y-117607200D02*
X143585714Y-117559580D01*
X143585714Y-117559580D02*
X143538095Y-117464342D01*
X143538095Y-117464342D02*
X143490476Y-117273866D01*
X143490476Y-117273866D02*
X143490476Y-117035771D01*
X143490476Y-117035771D02*
X143538095Y-116845295D01*
X143538095Y-116845295D02*
X143585714Y-116750057D01*
X143585714Y-116750057D02*
X143633333Y-116702438D01*
X143633333Y-116702438D02*
X143728571Y-116654819D01*
X122685714Y-88154819D02*
X122685714Y-87154819D01*
X122685714Y-87154819D02*
X122923809Y-87154819D01*
X122923809Y-87154819D02*
X123066666Y-87202438D01*
X123066666Y-87202438D02*
X123161904Y-87297676D01*
X123161904Y-87297676D02*
X123209523Y-87392914D01*
X123209523Y-87392914D02*
X123257142Y-87583390D01*
X123257142Y-87583390D02*
X123257142Y-87726247D01*
X123257142Y-87726247D02*
X123209523Y-87916723D01*
X123209523Y-87916723D02*
X123161904Y-88011961D01*
X123161904Y-88011961D02*
X123066666Y-88107200D01*
X123066666Y-88107200D02*
X122923809Y-88154819D01*
X122923809Y-88154819D02*
X122685714Y-88154819D01*
X123638095Y-87250057D02*
X123685714Y-87202438D01*
X123685714Y-87202438D02*
X123780952Y-87154819D01*
X123780952Y-87154819D02*
X124019047Y-87154819D01*
X124019047Y-87154819D02*
X124114285Y-87202438D01*
X124114285Y-87202438D02*
X124161904Y-87250057D01*
X124161904Y-87250057D02*
X124209523Y-87345295D01*
X124209523Y-87345295D02*
X124209523Y-87440533D01*
X124209523Y-87440533D02*
X124161904Y-87583390D01*
X124161904Y-87583390D02*
X123590476Y-88154819D01*
X123590476Y-88154819D02*
X124209523Y-88154819D01*
X124685714Y-88154819D02*
X124876190Y-88154819D01*
X124876190Y-88154819D02*
X124971428Y-88107200D01*
X124971428Y-88107200D02*
X125019047Y-88059580D01*
X125019047Y-88059580D02*
X125114285Y-87916723D01*
X125114285Y-87916723D02*
X125161904Y-87726247D01*
X125161904Y-87726247D02*
X125161904Y-87345295D01*
X125161904Y-87345295D02*
X125114285Y-87250057D01*
X125114285Y-87250057D02*
X125066666Y-87202438D01*
X125066666Y-87202438D02*
X124971428Y-87154819D01*
X124971428Y-87154819D02*
X124780952Y-87154819D01*
X124780952Y-87154819D02*
X124685714Y-87202438D01*
X124685714Y-87202438D02*
X124638095Y-87250057D01*
X124638095Y-87250057D02*
X124590476Y-87345295D01*
X124590476Y-87345295D02*
X124590476Y-87583390D01*
X124590476Y-87583390D02*
X124638095Y-87678628D01*
X124638095Y-87678628D02*
X124685714Y-87726247D01*
X124685714Y-87726247D02*
X124780952Y-87773866D01*
X124780952Y-87773866D02*
X124971428Y-87773866D01*
X124971428Y-87773866D02*
X125066666Y-87726247D01*
X125066666Y-87726247D02*
X125114285Y-87678628D01*
X125114285Y-87678628D02*
X125161904Y-87583390D01*
X120035714Y-90054819D02*
X119464286Y-90054819D01*
X119750000Y-90054819D02*
X119750000Y-89054819D01*
X119750000Y-89054819D02*
X119654762Y-89197676D01*
X119654762Y-89197676D02*
X119559524Y-89292914D01*
X119559524Y-89292914D02*
X119464286Y-89340533D01*
D11*
X128533333Y-122156379D02*
X128533333Y-121156379D01*
X128533333Y-121156379D02*
X128700000Y-121156379D01*
X128700000Y-121156379D02*
X128800000Y-121203998D01*
X128800000Y-121203998D02*
X128866667Y-121299236D01*
X128866667Y-121299236D02*
X128900000Y-121394474D01*
X128900000Y-121394474D02*
X128933333Y-121584950D01*
X128933333Y-121584950D02*
X128933333Y-121727807D01*
X128933333Y-121727807D02*
X128900000Y-121918283D01*
X128900000Y-121918283D02*
X128866667Y-122013521D01*
X128866667Y-122013521D02*
X128800000Y-122108760D01*
X128800000Y-122108760D02*
X128700000Y-122156379D01*
X128700000Y-122156379D02*
X128533333Y-122156379D01*
X129333333Y-121584950D02*
X129266667Y-121537331D01*
X129266667Y-121537331D02*
X129233333Y-121489712D01*
X129233333Y-121489712D02*
X129200000Y-121394474D01*
X129200000Y-121394474D02*
X129200000Y-121346855D01*
X129200000Y-121346855D02*
X129233333Y-121251617D01*
X129233333Y-121251617D02*
X129266667Y-121203998D01*
X129266667Y-121203998D02*
X129333333Y-121156379D01*
X129333333Y-121156379D02*
X129466667Y-121156379D01*
X129466667Y-121156379D02*
X129533333Y-121203998D01*
X129533333Y-121203998D02*
X129566667Y-121251617D01*
X129566667Y-121251617D02*
X129600000Y-121346855D01*
X129600000Y-121346855D02*
X129600000Y-121394474D01*
X129600000Y-121394474D02*
X129566667Y-121489712D01*
X129566667Y-121489712D02*
X129533333Y-121537331D01*
X129533333Y-121537331D02*
X129466667Y-121584950D01*
X129466667Y-121584950D02*
X129333333Y-121584950D01*
X129333333Y-121584950D02*
X129266667Y-121632569D01*
X129266667Y-121632569D02*
X129233333Y-121680188D01*
X129233333Y-121680188D02*
X129200000Y-121775426D01*
X129200000Y-121775426D02*
X129200000Y-121965902D01*
X129200000Y-121965902D02*
X129233333Y-122061140D01*
X129233333Y-122061140D02*
X129266667Y-122108760D01*
X129266667Y-122108760D02*
X129333333Y-122156379D01*
X129333333Y-122156379D02*
X129466667Y-122156379D01*
X129466667Y-122156379D02*
X129533333Y-122108760D01*
X129533333Y-122108760D02*
X129566667Y-122061140D01*
X129566667Y-122061140D02*
X129600000Y-121965902D01*
X129600000Y-121965902D02*
X129600000Y-121775426D01*
X129600000Y-121775426D02*
X129566667Y-121680188D01*
X129566667Y-121680188D02*
X129533333Y-121632569D01*
X129533333Y-121632569D02*
X129466667Y-121584950D01*
D12*
X120735714Y-120654819D02*
X120164286Y-120654819D01*
X120450000Y-120654819D02*
X120450000Y-119654819D01*
X120450000Y-119654819D02*
X120354762Y-119797676D01*
X120354762Y-119797676D02*
X120259524Y-119892914D01*
X120259524Y-119892914D02*
X120164286Y-119940533D01*
X166557142Y-107359580D02*
X166509523Y-107407200D01*
X166509523Y-107407200D02*
X166366666Y-107454819D01*
X166366666Y-107454819D02*
X166271428Y-107454819D01*
X166271428Y-107454819D02*
X166128571Y-107407200D01*
X166128571Y-107407200D02*
X166033333Y-107311961D01*
X166033333Y-107311961D02*
X165985714Y-107216723D01*
X165985714Y-107216723D02*
X165938095Y-107026247D01*
X165938095Y-107026247D02*
X165938095Y-106883390D01*
X165938095Y-106883390D02*
X165985714Y-106692914D01*
X165985714Y-106692914D02*
X166033333Y-106597676D01*
X166033333Y-106597676D02*
X166128571Y-106502438D01*
X166128571Y-106502438D02*
X166271428Y-106454819D01*
X166271428Y-106454819D02*
X166366666Y-106454819D01*
X166366666Y-106454819D02*
X166509523Y-106502438D01*
X166509523Y-106502438D02*
X166557142Y-106550057D01*
X167509523Y-107454819D02*
X166938095Y-107454819D01*
X167223809Y-107454819D02*
X167223809Y-106454819D01*
X167223809Y-106454819D02*
X167128571Y-106597676D01*
X167128571Y-106597676D02*
X167033333Y-106692914D01*
X167033333Y-106692914D02*
X166938095Y-106740533D01*
X167842857Y-106454819D02*
X168461904Y-106454819D01*
X168461904Y-106454819D02*
X168128571Y-106835771D01*
X168128571Y-106835771D02*
X168271428Y-106835771D01*
X168271428Y-106835771D02*
X168366666Y-106883390D01*
X168366666Y-106883390D02*
X168414285Y-106931009D01*
X168414285Y-106931009D02*
X168461904Y-107026247D01*
X168461904Y-107026247D02*
X168461904Y-107264342D01*
X168461904Y-107264342D02*
X168414285Y-107359580D01*
X168414285Y-107359580D02*
X168366666Y-107407200D01*
X168366666Y-107407200D02*
X168271428Y-107454819D01*
X168271428Y-107454819D02*
X167985714Y-107454819D01*
X167985714Y-107454819D02*
X167890476Y-107407200D01*
X167890476Y-107407200D02*
X167842857Y-107359580D01*
X151607142Y-97009580D02*
X151559523Y-97057200D01*
X151559523Y-97057200D02*
X151416666Y-97104819D01*
X151416666Y-97104819D02*
X151321428Y-97104819D01*
X151321428Y-97104819D02*
X151178571Y-97057200D01*
X151178571Y-97057200D02*
X151083333Y-96961961D01*
X151083333Y-96961961D02*
X151035714Y-96866723D01*
X151035714Y-96866723D02*
X150988095Y-96676247D01*
X150988095Y-96676247D02*
X150988095Y-96533390D01*
X150988095Y-96533390D02*
X151035714Y-96342914D01*
X151035714Y-96342914D02*
X151083333Y-96247676D01*
X151083333Y-96247676D02*
X151178571Y-96152438D01*
X151178571Y-96152438D02*
X151321428Y-96104819D01*
X151321428Y-96104819D02*
X151416666Y-96104819D01*
X151416666Y-96104819D02*
X151559523Y-96152438D01*
X151559523Y-96152438D02*
X151607142Y-96200057D01*
X151988095Y-96200057D02*
X152035714Y-96152438D01*
X152035714Y-96152438D02*
X152130952Y-96104819D01*
X152130952Y-96104819D02*
X152369047Y-96104819D01*
X152369047Y-96104819D02*
X152464285Y-96152438D01*
X152464285Y-96152438D02*
X152511904Y-96200057D01*
X152511904Y-96200057D02*
X152559523Y-96295295D01*
X152559523Y-96295295D02*
X152559523Y-96390533D01*
X152559523Y-96390533D02*
X152511904Y-96533390D01*
X152511904Y-96533390D02*
X151940476Y-97104819D01*
X151940476Y-97104819D02*
X152559523Y-97104819D01*
X152892857Y-96104819D02*
X153511904Y-96104819D01*
X153511904Y-96104819D02*
X153178571Y-96485771D01*
X153178571Y-96485771D02*
X153321428Y-96485771D01*
X153321428Y-96485771D02*
X153416666Y-96533390D01*
X153416666Y-96533390D02*
X153464285Y-96581009D01*
X153464285Y-96581009D02*
X153511904Y-96676247D01*
X153511904Y-96676247D02*
X153511904Y-96914342D01*
X153511904Y-96914342D02*
X153464285Y-97009580D01*
X153464285Y-97009580D02*
X153416666Y-97057200D01*
X153416666Y-97057200D02*
X153321428Y-97104819D01*
X153321428Y-97104819D02*
X153035714Y-97104819D01*
X153035714Y-97104819D02*
X152940476Y-97057200D01*
X152940476Y-97057200D02*
X152892857Y-97009580D01*
X143835714Y-88204819D02*
X143835714Y-87204819D01*
X143835714Y-87204819D02*
X144073809Y-87204819D01*
X144073809Y-87204819D02*
X144216666Y-87252438D01*
X144216666Y-87252438D02*
X144311904Y-87347676D01*
X144311904Y-87347676D02*
X144359523Y-87442914D01*
X144359523Y-87442914D02*
X144407142Y-87633390D01*
X144407142Y-87633390D02*
X144407142Y-87776247D01*
X144407142Y-87776247D02*
X144359523Y-87966723D01*
X144359523Y-87966723D02*
X144311904Y-88061961D01*
X144311904Y-88061961D02*
X144216666Y-88157200D01*
X144216666Y-88157200D02*
X144073809Y-88204819D01*
X144073809Y-88204819D02*
X143835714Y-88204819D01*
X144788095Y-87300057D02*
X144835714Y-87252438D01*
X144835714Y-87252438D02*
X144930952Y-87204819D01*
X144930952Y-87204819D02*
X145169047Y-87204819D01*
X145169047Y-87204819D02*
X145264285Y-87252438D01*
X145264285Y-87252438D02*
X145311904Y-87300057D01*
X145311904Y-87300057D02*
X145359523Y-87395295D01*
X145359523Y-87395295D02*
X145359523Y-87490533D01*
X145359523Y-87490533D02*
X145311904Y-87633390D01*
X145311904Y-87633390D02*
X144740476Y-88204819D01*
X144740476Y-88204819D02*
X145359523Y-88204819D01*
X145692857Y-87204819D02*
X146359523Y-87204819D01*
X146359523Y-87204819D02*
X145930952Y-88204819D01*
X141185714Y-90104819D02*
X140614286Y-90104819D01*
X140900000Y-90104819D02*
X140900000Y-89104819D01*
X140900000Y-89104819D02*
X140804762Y-89247676D01*
X140804762Y-89247676D02*
X140709524Y-89342914D01*
X140709524Y-89342914D02*
X140614286Y-89390533D01*
X118082142Y-75059580D02*
X118034523Y-75107200D01*
X118034523Y-75107200D02*
X117891666Y-75154819D01*
X117891666Y-75154819D02*
X117796428Y-75154819D01*
X117796428Y-75154819D02*
X117653571Y-75107200D01*
X117653571Y-75107200D02*
X117558333Y-75011961D01*
X117558333Y-75011961D02*
X117510714Y-74916723D01*
X117510714Y-74916723D02*
X117463095Y-74726247D01*
X117463095Y-74726247D02*
X117463095Y-74583390D01*
X117463095Y-74583390D02*
X117510714Y-74392914D01*
X117510714Y-74392914D02*
X117558333Y-74297676D01*
X117558333Y-74297676D02*
X117653571Y-74202438D01*
X117653571Y-74202438D02*
X117796428Y-74154819D01*
X117796428Y-74154819D02*
X117891666Y-74154819D01*
X117891666Y-74154819D02*
X118034523Y-74202438D01*
X118034523Y-74202438D02*
X118082142Y-74250057D01*
X118415476Y-74154819D02*
X119034523Y-74154819D01*
X119034523Y-74154819D02*
X118701190Y-74535771D01*
X118701190Y-74535771D02*
X118844047Y-74535771D01*
X118844047Y-74535771D02*
X118939285Y-74583390D01*
X118939285Y-74583390D02*
X118986904Y-74631009D01*
X118986904Y-74631009D02*
X119034523Y-74726247D01*
X119034523Y-74726247D02*
X119034523Y-74964342D01*
X119034523Y-74964342D02*
X118986904Y-75059580D01*
X118986904Y-75059580D02*
X118939285Y-75107200D01*
X118939285Y-75107200D02*
X118844047Y-75154819D01*
X118844047Y-75154819D02*
X118558333Y-75154819D01*
X118558333Y-75154819D02*
X118463095Y-75107200D01*
X118463095Y-75107200D02*
X118415476Y-75059580D01*
X119415476Y-74250057D02*
X119463095Y-74202438D01*
X119463095Y-74202438D02*
X119558333Y-74154819D01*
X119558333Y-74154819D02*
X119796428Y-74154819D01*
X119796428Y-74154819D02*
X119891666Y-74202438D01*
X119891666Y-74202438D02*
X119939285Y-74250057D01*
X119939285Y-74250057D02*
X119986904Y-74345295D01*
X119986904Y-74345295D02*
X119986904Y-74440533D01*
X119986904Y-74440533D02*
X119939285Y-74583390D01*
X119939285Y-74583390D02*
X119367857Y-75154819D01*
X119367857Y-75154819D02*
X119986904Y-75154819D01*
X116835714Y-91479819D02*
X116835714Y-90479819D01*
X116835714Y-90479819D02*
X117073809Y-90479819D01*
X117073809Y-90479819D02*
X117216666Y-90527438D01*
X117216666Y-90527438D02*
X117311904Y-90622676D01*
X117311904Y-90622676D02*
X117359523Y-90717914D01*
X117359523Y-90717914D02*
X117407142Y-90908390D01*
X117407142Y-90908390D02*
X117407142Y-91051247D01*
X117407142Y-91051247D02*
X117359523Y-91241723D01*
X117359523Y-91241723D02*
X117311904Y-91336961D01*
X117311904Y-91336961D02*
X117216666Y-91432200D01*
X117216666Y-91432200D02*
X117073809Y-91479819D01*
X117073809Y-91479819D02*
X116835714Y-91479819D01*
X117740476Y-90479819D02*
X118359523Y-90479819D01*
X118359523Y-90479819D02*
X118026190Y-90860771D01*
X118026190Y-90860771D02*
X118169047Y-90860771D01*
X118169047Y-90860771D02*
X118264285Y-90908390D01*
X118264285Y-90908390D02*
X118311904Y-90956009D01*
X118311904Y-90956009D02*
X118359523Y-91051247D01*
X118359523Y-91051247D02*
X118359523Y-91289342D01*
X118359523Y-91289342D02*
X118311904Y-91384580D01*
X118311904Y-91384580D02*
X118264285Y-91432200D01*
X118264285Y-91432200D02*
X118169047Y-91479819D01*
X118169047Y-91479819D02*
X117883333Y-91479819D01*
X117883333Y-91479819D02*
X117788095Y-91432200D01*
X117788095Y-91432200D02*
X117740476Y-91384580D01*
X118978571Y-90479819D02*
X119073809Y-90479819D01*
X119073809Y-90479819D02*
X119169047Y-90527438D01*
X119169047Y-90527438D02*
X119216666Y-90575057D01*
X119216666Y-90575057D02*
X119264285Y-90670295D01*
X119264285Y-90670295D02*
X119311904Y-90860771D01*
X119311904Y-90860771D02*
X119311904Y-91098866D01*
X119311904Y-91098866D02*
X119264285Y-91289342D01*
X119264285Y-91289342D02*
X119216666Y-91384580D01*
X119216666Y-91384580D02*
X119169047Y-91432200D01*
X119169047Y-91432200D02*
X119073809Y-91479819D01*
X119073809Y-91479819D02*
X118978571Y-91479819D01*
X118978571Y-91479819D02*
X118883333Y-91432200D01*
X118883333Y-91432200D02*
X118835714Y-91384580D01*
X118835714Y-91384580D02*
X118788095Y-91289342D01*
X118788095Y-91289342D02*
X118740476Y-91098866D01*
X118740476Y-91098866D02*
X118740476Y-90860771D01*
X118740476Y-90860771D02*
X118788095Y-90670295D01*
X118788095Y-90670295D02*
X118835714Y-90575057D01*
X118835714Y-90575057D02*
X118883333Y-90527438D01*
X118883333Y-90527438D02*
X118978571Y-90479819D01*
X109285714Y-90054819D02*
X108714286Y-90054819D01*
X109000000Y-90054819D02*
X109000000Y-89054819D01*
X109000000Y-89054819D02*
X108904762Y-89197676D01*
X108904762Y-89197676D02*
X108809524Y-89292914D01*
X108809524Y-89292914D02*
X108714286Y-89340533D01*
X156182142Y-76284580D02*
X156134523Y-76332200D01*
X156134523Y-76332200D02*
X155991666Y-76379819D01*
X155991666Y-76379819D02*
X155896428Y-76379819D01*
X155896428Y-76379819D02*
X155753571Y-76332200D01*
X155753571Y-76332200D02*
X155658333Y-76236961D01*
X155658333Y-76236961D02*
X155610714Y-76141723D01*
X155610714Y-76141723D02*
X155563095Y-75951247D01*
X155563095Y-75951247D02*
X155563095Y-75808390D01*
X155563095Y-75808390D02*
X155610714Y-75617914D01*
X155610714Y-75617914D02*
X155658333Y-75522676D01*
X155658333Y-75522676D02*
X155753571Y-75427438D01*
X155753571Y-75427438D02*
X155896428Y-75379819D01*
X155896428Y-75379819D02*
X155991666Y-75379819D01*
X155991666Y-75379819D02*
X156134523Y-75427438D01*
X156134523Y-75427438D02*
X156182142Y-75475057D01*
X156515476Y-75379819D02*
X157134523Y-75379819D01*
X157134523Y-75379819D02*
X156801190Y-75760771D01*
X156801190Y-75760771D02*
X156944047Y-75760771D01*
X156944047Y-75760771D02*
X157039285Y-75808390D01*
X157039285Y-75808390D02*
X157086904Y-75856009D01*
X157086904Y-75856009D02*
X157134523Y-75951247D01*
X157134523Y-75951247D02*
X157134523Y-76189342D01*
X157134523Y-76189342D02*
X157086904Y-76284580D01*
X157086904Y-76284580D02*
X157039285Y-76332200D01*
X157039285Y-76332200D02*
X156944047Y-76379819D01*
X156944047Y-76379819D02*
X156658333Y-76379819D01*
X156658333Y-76379819D02*
X156563095Y-76332200D01*
X156563095Y-76332200D02*
X156515476Y-76284580D01*
X158039285Y-75379819D02*
X157563095Y-75379819D01*
X157563095Y-75379819D02*
X157515476Y-75856009D01*
X157515476Y-75856009D02*
X157563095Y-75808390D01*
X157563095Y-75808390D02*
X157658333Y-75760771D01*
X157658333Y-75760771D02*
X157896428Y-75760771D01*
X157896428Y-75760771D02*
X157991666Y-75808390D01*
X157991666Y-75808390D02*
X158039285Y-75856009D01*
X158039285Y-75856009D02*
X158086904Y-75951247D01*
X158086904Y-75951247D02*
X158086904Y-76189342D01*
X158086904Y-76189342D02*
X158039285Y-76284580D01*
X158039285Y-76284580D02*
X157991666Y-76332200D01*
X157991666Y-76332200D02*
X157896428Y-76379819D01*
X157896428Y-76379819D02*
X157658333Y-76379819D01*
X157658333Y-76379819D02*
X157563095Y-76332200D01*
X157563095Y-76332200D02*
X157515476Y-76284580D01*
X131557142Y-107159580D02*
X131509523Y-107207200D01*
X131509523Y-107207200D02*
X131366666Y-107254819D01*
X131366666Y-107254819D02*
X131271428Y-107254819D01*
X131271428Y-107254819D02*
X131128571Y-107207200D01*
X131128571Y-107207200D02*
X131033333Y-107111961D01*
X131033333Y-107111961D02*
X130985714Y-107016723D01*
X130985714Y-107016723D02*
X130938095Y-106826247D01*
X130938095Y-106826247D02*
X130938095Y-106683390D01*
X130938095Y-106683390D02*
X130985714Y-106492914D01*
X130985714Y-106492914D02*
X131033333Y-106397676D01*
X131033333Y-106397676D02*
X131128571Y-106302438D01*
X131128571Y-106302438D02*
X131271428Y-106254819D01*
X131271428Y-106254819D02*
X131366666Y-106254819D01*
X131366666Y-106254819D02*
X131509523Y-106302438D01*
X131509523Y-106302438D02*
X131557142Y-106350057D01*
X132509523Y-107254819D02*
X131938095Y-107254819D01*
X132223809Y-107254819D02*
X132223809Y-106254819D01*
X132223809Y-106254819D02*
X132128571Y-106397676D01*
X132128571Y-106397676D02*
X132033333Y-106492914D01*
X132033333Y-106492914D02*
X131938095Y-106540533D01*
X132842857Y-106254819D02*
X133509523Y-106254819D01*
X133509523Y-106254819D02*
X133080952Y-107254819D01*
X133985714Y-77254819D02*
X133985714Y-76254819D01*
X133985714Y-76254819D02*
X134223809Y-76254819D01*
X134223809Y-76254819D02*
X134366666Y-76302438D01*
X134366666Y-76302438D02*
X134461904Y-76397676D01*
X134461904Y-76397676D02*
X134509523Y-76492914D01*
X134509523Y-76492914D02*
X134557142Y-76683390D01*
X134557142Y-76683390D02*
X134557142Y-76826247D01*
X134557142Y-76826247D02*
X134509523Y-77016723D01*
X134509523Y-77016723D02*
X134461904Y-77111961D01*
X134461904Y-77111961D02*
X134366666Y-77207200D01*
X134366666Y-77207200D02*
X134223809Y-77254819D01*
X134223809Y-77254819D02*
X133985714Y-77254819D01*
X134890476Y-76254819D02*
X135509523Y-76254819D01*
X135509523Y-76254819D02*
X135176190Y-76635771D01*
X135176190Y-76635771D02*
X135319047Y-76635771D01*
X135319047Y-76635771D02*
X135414285Y-76683390D01*
X135414285Y-76683390D02*
X135461904Y-76731009D01*
X135461904Y-76731009D02*
X135509523Y-76826247D01*
X135509523Y-76826247D02*
X135509523Y-77064342D01*
X135509523Y-77064342D02*
X135461904Y-77159580D01*
X135461904Y-77159580D02*
X135414285Y-77207200D01*
X135414285Y-77207200D02*
X135319047Y-77254819D01*
X135319047Y-77254819D02*
X135033333Y-77254819D01*
X135033333Y-77254819D02*
X134938095Y-77207200D01*
X134938095Y-77207200D02*
X134890476Y-77159580D01*
X135842857Y-76254819D02*
X136461904Y-76254819D01*
X136461904Y-76254819D02*
X136128571Y-76635771D01*
X136128571Y-76635771D02*
X136271428Y-76635771D01*
X136271428Y-76635771D02*
X136366666Y-76683390D01*
X136366666Y-76683390D02*
X136414285Y-76731009D01*
X136414285Y-76731009D02*
X136461904Y-76826247D01*
X136461904Y-76826247D02*
X136461904Y-77064342D01*
X136461904Y-77064342D02*
X136414285Y-77159580D01*
X136414285Y-77159580D02*
X136366666Y-77207200D01*
X136366666Y-77207200D02*
X136271428Y-77254819D01*
X136271428Y-77254819D02*
X135985714Y-77254819D01*
X135985714Y-77254819D02*
X135890476Y-77207200D01*
X135890476Y-77207200D02*
X135842857Y-77159580D01*
X131335714Y-79154819D02*
X130764286Y-79154819D01*
X131050000Y-79154819D02*
X131050000Y-78154819D01*
X131050000Y-78154819D02*
X130954762Y-78297676D01*
X130954762Y-78297676D02*
X130859524Y-78392914D01*
X130859524Y-78392914D02*
X130764286Y-78440533D01*
X131207142Y-86109580D02*
X131159523Y-86157200D01*
X131159523Y-86157200D02*
X131016666Y-86204819D01*
X131016666Y-86204819D02*
X130921428Y-86204819D01*
X130921428Y-86204819D02*
X130778571Y-86157200D01*
X130778571Y-86157200D02*
X130683333Y-86061961D01*
X130683333Y-86061961D02*
X130635714Y-85966723D01*
X130635714Y-85966723D02*
X130588095Y-85776247D01*
X130588095Y-85776247D02*
X130588095Y-85633390D01*
X130588095Y-85633390D02*
X130635714Y-85442914D01*
X130635714Y-85442914D02*
X130683333Y-85347676D01*
X130683333Y-85347676D02*
X130778571Y-85252438D01*
X130778571Y-85252438D02*
X130921428Y-85204819D01*
X130921428Y-85204819D02*
X131016666Y-85204819D01*
X131016666Y-85204819D02*
X131159523Y-85252438D01*
X131159523Y-85252438D02*
X131207142Y-85300057D01*
X131588095Y-85300057D02*
X131635714Y-85252438D01*
X131635714Y-85252438D02*
X131730952Y-85204819D01*
X131730952Y-85204819D02*
X131969047Y-85204819D01*
X131969047Y-85204819D02*
X132064285Y-85252438D01*
X132064285Y-85252438D02*
X132111904Y-85300057D01*
X132111904Y-85300057D02*
X132159523Y-85395295D01*
X132159523Y-85395295D02*
X132159523Y-85490533D01*
X132159523Y-85490533D02*
X132111904Y-85633390D01*
X132111904Y-85633390D02*
X131540476Y-86204819D01*
X131540476Y-86204819D02*
X132159523Y-86204819D01*
X132635714Y-86204819D02*
X132826190Y-86204819D01*
X132826190Y-86204819D02*
X132921428Y-86157200D01*
X132921428Y-86157200D02*
X132969047Y-86109580D01*
X132969047Y-86109580D02*
X133064285Y-85966723D01*
X133064285Y-85966723D02*
X133111904Y-85776247D01*
X133111904Y-85776247D02*
X133111904Y-85395295D01*
X133111904Y-85395295D02*
X133064285Y-85300057D01*
X133064285Y-85300057D02*
X133016666Y-85252438D01*
X133016666Y-85252438D02*
X132921428Y-85204819D01*
X132921428Y-85204819D02*
X132730952Y-85204819D01*
X132730952Y-85204819D02*
X132635714Y-85252438D01*
X132635714Y-85252438D02*
X132588095Y-85300057D01*
X132588095Y-85300057D02*
X132540476Y-85395295D01*
X132540476Y-85395295D02*
X132540476Y-85633390D01*
X132540476Y-85633390D02*
X132588095Y-85728628D01*
X132588095Y-85728628D02*
X132635714Y-85776247D01*
X132635714Y-85776247D02*
X132730952Y-85823866D01*
X132730952Y-85823866D02*
X132921428Y-85823866D01*
X132921428Y-85823866D02*
X133016666Y-85776247D01*
X133016666Y-85776247D02*
X133064285Y-85728628D01*
X133064285Y-85728628D02*
X133111904Y-85633390D01*
D11*
X159733333Y-131456379D02*
X159733333Y-130456379D01*
X159733333Y-130456379D02*
X159900000Y-130456379D01*
X159900000Y-130456379D02*
X160000000Y-130503998D01*
X160000000Y-130503998D02*
X160066667Y-130599236D01*
X160066667Y-130599236D02*
X160100000Y-130694474D01*
X160100000Y-130694474D02*
X160133333Y-130884950D01*
X160133333Y-130884950D02*
X160133333Y-131027807D01*
X160133333Y-131027807D02*
X160100000Y-131218283D01*
X160100000Y-131218283D02*
X160066667Y-131313521D01*
X160066667Y-131313521D02*
X160000000Y-131408760D01*
X160000000Y-131408760D02*
X159900000Y-131456379D01*
X159900000Y-131456379D02*
X159733333Y-131456379D01*
X160400000Y-130551617D02*
X160433333Y-130503998D01*
X160433333Y-130503998D02*
X160500000Y-130456379D01*
X160500000Y-130456379D02*
X160666667Y-130456379D01*
X160666667Y-130456379D02*
X160733333Y-130503998D01*
X160733333Y-130503998D02*
X160766667Y-130551617D01*
X160766667Y-130551617D02*
X160800000Y-130646855D01*
X160800000Y-130646855D02*
X160800000Y-130742093D01*
X160800000Y-130742093D02*
X160766667Y-130884950D01*
X160766667Y-130884950D02*
X160366667Y-131456379D01*
X160366667Y-131456379D02*
X160800000Y-131456379D01*
D12*
X151935714Y-130004819D02*
X151364286Y-130004819D01*
X151650000Y-130004819D02*
X151650000Y-129004819D01*
X151650000Y-129004819D02*
X151554762Y-129147676D01*
X151554762Y-129147676D02*
X151459524Y-129242914D01*
X151459524Y-129242914D02*
X151364286Y-129290533D01*
X131257142Y-76159580D02*
X131209523Y-76207200D01*
X131209523Y-76207200D02*
X131066666Y-76254819D01*
X131066666Y-76254819D02*
X130971428Y-76254819D01*
X130971428Y-76254819D02*
X130828571Y-76207200D01*
X130828571Y-76207200D02*
X130733333Y-76111961D01*
X130733333Y-76111961D02*
X130685714Y-76016723D01*
X130685714Y-76016723D02*
X130638095Y-75826247D01*
X130638095Y-75826247D02*
X130638095Y-75683390D01*
X130638095Y-75683390D02*
X130685714Y-75492914D01*
X130685714Y-75492914D02*
X130733333Y-75397676D01*
X130733333Y-75397676D02*
X130828571Y-75302438D01*
X130828571Y-75302438D02*
X130971428Y-75254819D01*
X130971428Y-75254819D02*
X131066666Y-75254819D01*
X131066666Y-75254819D02*
X131209523Y-75302438D01*
X131209523Y-75302438D02*
X131257142Y-75350057D01*
X131590476Y-75254819D02*
X132209523Y-75254819D01*
X132209523Y-75254819D02*
X131876190Y-75635771D01*
X131876190Y-75635771D02*
X132019047Y-75635771D01*
X132019047Y-75635771D02*
X132114285Y-75683390D01*
X132114285Y-75683390D02*
X132161904Y-75731009D01*
X132161904Y-75731009D02*
X132209523Y-75826247D01*
X132209523Y-75826247D02*
X132209523Y-76064342D01*
X132209523Y-76064342D02*
X132161904Y-76159580D01*
X132161904Y-76159580D02*
X132114285Y-76207200D01*
X132114285Y-76207200D02*
X132019047Y-76254819D01*
X132019047Y-76254819D02*
X131733333Y-76254819D01*
X131733333Y-76254819D02*
X131638095Y-76207200D01*
X131638095Y-76207200D02*
X131590476Y-76159580D01*
X132542857Y-75254819D02*
X133161904Y-75254819D01*
X133161904Y-75254819D02*
X132828571Y-75635771D01*
X132828571Y-75635771D02*
X132971428Y-75635771D01*
X132971428Y-75635771D02*
X133066666Y-75683390D01*
X133066666Y-75683390D02*
X133114285Y-75731009D01*
X133114285Y-75731009D02*
X133161904Y-75826247D01*
X133161904Y-75826247D02*
X133161904Y-76064342D01*
X133161904Y-76064342D02*
X133114285Y-76159580D01*
X133114285Y-76159580D02*
X133066666Y-76207200D01*
X133066666Y-76207200D02*
X132971428Y-76254819D01*
X132971428Y-76254819D02*
X132685714Y-76254819D01*
X132685714Y-76254819D02*
X132590476Y-76207200D01*
X132590476Y-76207200D02*
X132542857Y-76159580D01*
X142033333Y-127559580D02*
X141985714Y-127607200D01*
X141985714Y-127607200D02*
X141842857Y-127654819D01*
X141842857Y-127654819D02*
X141747619Y-127654819D01*
X141747619Y-127654819D02*
X141604762Y-127607200D01*
X141604762Y-127607200D02*
X141509524Y-127511961D01*
X141509524Y-127511961D02*
X141461905Y-127416723D01*
X141461905Y-127416723D02*
X141414286Y-127226247D01*
X141414286Y-127226247D02*
X141414286Y-127083390D01*
X141414286Y-127083390D02*
X141461905Y-126892914D01*
X141461905Y-126892914D02*
X141509524Y-126797676D01*
X141509524Y-126797676D02*
X141604762Y-126702438D01*
X141604762Y-126702438D02*
X141747619Y-126654819D01*
X141747619Y-126654819D02*
X141842857Y-126654819D01*
X141842857Y-126654819D02*
X141985714Y-126702438D01*
X141985714Y-126702438D02*
X142033333Y-126750057D01*
X142890476Y-126988152D02*
X142890476Y-127654819D01*
X142652381Y-126607200D02*
X142414286Y-127321485D01*
X142414286Y-127321485D02*
X143033333Y-127321485D01*
D11*
X139483333Y-122106379D02*
X139483333Y-121106379D01*
X139483333Y-121106379D02*
X139650000Y-121106379D01*
X139650000Y-121106379D02*
X139750000Y-121153998D01*
X139750000Y-121153998D02*
X139816667Y-121249236D01*
X139816667Y-121249236D02*
X139850000Y-121344474D01*
X139850000Y-121344474D02*
X139883333Y-121534950D01*
X139883333Y-121534950D02*
X139883333Y-121677807D01*
X139883333Y-121677807D02*
X139850000Y-121868283D01*
X139850000Y-121868283D02*
X139816667Y-121963521D01*
X139816667Y-121963521D02*
X139750000Y-122058760D01*
X139750000Y-122058760D02*
X139650000Y-122106379D01*
X139650000Y-122106379D02*
X139483333Y-122106379D01*
X140216667Y-122106379D02*
X140350000Y-122106379D01*
X140350000Y-122106379D02*
X140416667Y-122058760D01*
X140416667Y-122058760D02*
X140450000Y-122011140D01*
X140450000Y-122011140D02*
X140516667Y-121868283D01*
X140516667Y-121868283D02*
X140550000Y-121677807D01*
X140550000Y-121677807D02*
X140550000Y-121296855D01*
X140550000Y-121296855D02*
X140516667Y-121201617D01*
X140516667Y-121201617D02*
X140483333Y-121153998D01*
X140483333Y-121153998D02*
X140416667Y-121106379D01*
X140416667Y-121106379D02*
X140283333Y-121106379D01*
X140283333Y-121106379D02*
X140216667Y-121153998D01*
X140216667Y-121153998D02*
X140183333Y-121201617D01*
X140183333Y-121201617D02*
X140150000Y-121296855D01*
X140150000Y-121296855D02*
X140150000Y-121534950D01*
X140150000Y-121534950D02*
X140183333Y-121630188D01*
X140183333Y-121630188D02*
X140216667Y-121677807D01*
X140216667Y-121677807D02*
X140283333Y-121725426D01*
X140283333Y-121725426D02*
X140416667Y-121725426D01*
X140416667Y-121725426D02*
X140483333Y-121677807D01*
X140483333Y-121677807D02*
X140516667Y-121630188D01*
X140516667Y-121630188D02*
X140550000Y-121534950D01*
D12*
X131685714Y-120604819D02*
X131114286Y-120604819D01*
X131400000Y-120604819D02*
X131400000Y-119604819D01*
X131400000Y-119604819D02*
X131304762Y-119747676D01*
X131304762Y-119747676D02*
X131209524Y-119842914D01*
X131209524Y-119842914D02*
X131114286Y-119890533D01*
X115133333Y-117559580D02*
X115085714Y-117607200D01*
X115085714Y-117607200D02*
X114942857Y-117654819D01*
X114942857Y-117654819D02*
X114847619Y-117654819D01*
X114847619Y-117654819D02*
X114704762Y-117607200D01*
X114704762Y-117607200D02*
X114609524Y-117511961D01*
X114609524Y-117511961D02*
X114561905Y-117416723D01*
X114561905Y-117416723D02*
X114514286Y-117226247D01*
X114514286Y-117226247D02*
X114514286Y-117083390D01*
X114514286Y-117083390D02*
X114561905Y-116892914D01*
X114561905Y-116892914D02*
X114609524Y-116797676D01*
X114609524Y-116797676D02*
X114704762Y-116702438D01*
X114704762Y-116702438D02*
X114847619Y-116654819D01*
X114847619Y-116654819D02*
X114942857Y-116654819D01*
X114942857Y-116654819D02*
X115085714Y-116702438D01*
X115085714Y-116702438D02*
X115133333Y-116750057D01*
X115466667Y-116654819D02*
X116133333Y-116654819D01*
X116133333Y-116654819D02*
X115704762Y-117654819D01*
X120833333Y-127559580D02*
X120785714Y-127607200D01*
X120785714Y-127607200D02*
X120642857Y-127654819D01*
X120642857Y-127654819D02*
X120547619Y-127654819D01*
X120547619Y-127654819D02*
X120404762Y-127607200D01*
X120404762Y-127607200D02*
X120309524Y-127511961D01*
X120309524Y-127511961D02*
X120261905Y-127416723D01*
X120261905Y-127416723D02*
X120214286Y-127226247D01*
X120214286Y-127226247D02*
X120214286Y-127083390D01*
X120214286Y-127083390D02*
X120261905Y-126892914D01*
X120261905Y-126892914D02*
X120309524Y-126797676D01*
X120309524Y-126797676D02*
X120404762Y-126702438D01*
X120404762Y-126702438D02*
X120547619Y-126654819D01*
X120547619Y-126654819D02*
X120642857Y-126654819D01*
X120642857Y-126654819D02*
X120785714Y-126702438D01*
X120785714Y-126702438D02*
X120833333Y-126750057D01*
X121690476Y-126654819D02*
X121500000Y-126654819D01*
X121500000Y-126654819D02*
X121404762Y-126702438D01*
X121404762Y-126702438D02*
X121357143Y-126750057D01*
X121357143Y-126750057D02*
X121261905Y-126892914D01*
X121261905Y-126892914D02*
X121214286Y-127083390D01*
X121214286Y-127083390D02*
X121214286Y-127464342D01*
X121214286Y-127464342D02*
X121261905Y-127559580D01*
X121261905Y-127559580D02*
X121309524Y-127607200D01*
X121309524Y-127607200D02*
X121404762Y-127654819D01*
X121404762Y-127654819D02*
X121595238Y-127654819D01*
X121595238Y-127654819D02*
X121690476Y-127607200D01*
X121690476Y-127607200D02*
X121738095Y-127559580D01*
X121738095Y-127559580D02*
X121785714Y-127464342D01*
X121785714Y-127464342D02*
X121785714Y-127226247D01*
X121785714Y-127226247D02*
X121738095Y-127131009D01*
X121738095Y-127131009D02*
X121690476Y-127083390D01*
X121690476Y-127083390D02*
X121595238Y-127035771D01*
X121595238Y-127035771D02*
X121404762Y-127035771D01*
X121404762Y-127035771D02*
X121309524Y-127083390D01*
X121309524Y-127083390D02*
X121261905Y-127131009D01*
X121261905Y-127131009D02*
X121214286Y-127226247D01*
X142982142Y-76184580D02*
X142934523Y-76232200D01*
X142934523Y-76232200D02*
X142791666Y-76279819D01*
X142791666Y-76279819D02*
X142696428Y-76279819D01*
X142696428Y-76279819D02*
X142553571Y-76232200D01*
X142553571Y-76232200D02*
X142458333Y-76136961D01*
X142458333Y-76136961D02*
X142410714Y-76041723D01*
X142410714Y-76041723D02*
X142363095Y-75851247D01*
X142363095Y-75851247D02*
X142363095Y-75708390D01*
X142363095Y-75708390D02*
X142410714Y-75517914D01*
X142410714Y-75517914D02*
X142458333Y-75422676D01*
X142458333Y-75422676D02*
X142553571Y-75327438D01*
X142553571Y-75327438D02*
X142696428Y-75279819D01*
X142696428Y-75279819D02*
X142791666Y-75279819D01*
X142791666Y-75279819D02*
X142934523Y-75327438D01*
X142934523Y-75327438D02*
X142982142Y-75375057D01*
X143315476Y-75279819D02*
X143934523Y-75279819D01*
X143934523Y-75279819D02*
X143601190Y-75660771D01*
X143601190Y-75660771D02*
X143744047Y-75660771D01*
X143744047Y-75660771D02*
X143839285Y-75708390D01*
X143839285Y-75708390D02*
X143886904Y-75756009D01*
X143886904Y-75756009D02*
X143934523Y-75851247D01*
X143934523Y-75851247D02*
X143934523Y-76089342D01*
X143934523Y-76089342D02*
X143886904Y-76184580D01*
X143886904Y-76184580D02*
X143839285Y-76232200D01*
X143839285Y-76232200D02*
X143744047Y-76279819D01*
X143744047Y-76279819D02*
X143458333Y-76279819D01*
X143458333Y-76279819D02*
X143363095Y-76232200D01*
X143363095Y-76232200D02*
X143315476Y-76184580D01*
X144791666Y-75613152D02*
X144791666Y-76279819D01*
X144553571Y-75232200D02*
X144315476Y-75946485D01*
X144315476Y-75946485D02*
X144934523Y-75946485D01*
X159757142Y-118959580D02*
X159709523Y-119007200D01*
X159709523Y-119007200D02*
X159566666Y-119054819D01*
X159566666Y-119054819D02*
X159471428Y-119054819D01*
X159471428Y-119054819D02*
X159328571Y-119007200D01*
X159328571Y-119007200D02*
X159233333Y-118911961D01*
X159233333Y-118911961D02*
X159185714Y-118816723D01*
X159185714Y-118816723D02*
X159138095Y-118626247D01*
X159138095Y-118626247D02*
X159138095Y-118483390D01*
X159138095Y-118483390D02*
X159185714Y-118292914D01*
X159185714Y-118292914D02*
X159233333Y-118197676D01*
X159233333Y-118197676D02*
X159328571Y-118102438D01*
X159328571Y-118102438D02*
X159471428Y-118054819D01*
X159471428Y-118054819D02*
X159566666Y-118054819D01*
X159566666Y-118054819D02*
X159709523Y-118102438D01*
X159709523Y-118102438D02*
X159757142Y-118150057D01*
X160709523Y-119054819D02*
X160138095Y-119054819D01*
X160423809Y-119054819D02*
X160423809Y-118054819D01*
X160423809Y-118054819D02*
X160328571Y-118197676D01*
X160328571Y-118197676D02*
X160233333Y-118292914D01*
X160233333Y-118292914D02*
X160138095Y-118340533D01*
X161090476Y-118150057D02*
X161138095Y-118102438D01*
X161138095Y-118102438D02*
X161233333Y-118054819D01*
X161233333Y-118054819D02*
X161471428Y-118054819D01*
X161471428Y-118054819D02*
X161566666Y-118102438D01*
X161566666Y-118102438D02*
X161614285Y-118150057D01*
X161614285Y-118150057D02*
X161661904Y-118245295D01*
X161661904Y-118245295D02*
X161661904Y-118340533D01*
X161661904Y-118340533D02*
X161614285Y-118483390D01*
X161614285Y-118483390D02*
X161042857Y-119054819D01*
X161042857Y-119054819D02*
X161661904Y-119054819D01*
X168233333Y-127159580D02*
X168185714Y-127207200D01*
X168185714Y-127207200D02*
X168042857Y-127254819D01*
X168042857Y-127254819D02*
X167947619Y-127254819D01*
X167947619Y-127254819D02*
X167804762Y-127207200D01*
X167804762Y-127207200D02*
X167709524Y-127111961D01*
X167709524Y-127111961D02*
X167661905Y-127016723D01*
X167661905Y-127016723D02*
X167614286Y-126826247D01*
X167614286Y-126826247D02*
X167614286Y-126683390D01*
X167614286Y-126683390D02*
X167661905Y-126492914D01*
X167661905Y-126492914D02*
X167709524Y-126397676D01*
X167709524Y-126397676D02*
X167804762Y-126302438D01*
X167804762Y-126302438D02*
X167947619Y-126254819D01*
X167947619Y-126254819D02*
X168042857Y-126254819D01*
X168042857Y-126254819D02*
X168185714Y-126302438D01*
X168185714Y-126302438D02*
X168233333Y-126350057D01*
X169185714Y-127254819D02*
X168614286Y-127254819D01*
X168900000Y-127254819D02*
X168900000Y-126254819D01*
X168900000Y-126254819D02*
X168804762Y-126397676D01*
X168804762Y-126397676D02*
X168709524Y-126492914D01*
X168709524Y-126492914D02*
X168614286Y-126540533D01*
D11*
X158499999Y-112456379D02*
X158499999Y-111456379D01*
X158499999Y-111456379D02*
X158666666Y-111456379D01*
X158666666Y-111456379D02*
X158766666Y-111503998D01*
X158766666Y-111503998D02*
X158833333Y-111599236D01*
X158833333Y-111599236D02*
X158866666Y-111694474D01*
X158866666Y-111694474D02*
X158899999Y-111884950D01*
X158899999Y-111884950D02*
X158899999Y-112027807D01*
X158899999Y-112027807D02*
X158866666Y-112218283D01*
X158866666Y-112218283D02*
X158833333Y-112313521D01*
X158833333Y-112313521D02*
X158766666Y-112408760D01*
X158766666Y-112408760D02*
X158666666Y-112456379D01*
X158666666Y-112456379D02*
X158499999Y-112456379D01*
X159566666Y-112456379D02*
X159166666Y-112456379D01*
X159366666Y-112456379D02*
X159366666Y-111456379D01*
X159366666Y-111456379D02*
X159299999Y-111599236D01*
X159299999Y-111599236D02*
X159233333Y-111694474D01*
X159233333Y-111694474D02*
X159166666Y-111742093D01*
X160166666Y-111789712D02*
X160166666Y-112456379D01*
X160000000Y-111408760D02*
X159833333Y-112123045D01*
X159833333Y-112123045D02*
X160266666Y-112123045D01*
D12*
X150885714Y-110854819D02*
X150314286Y-110854819D01*
X150600000Y-110854819D02*
X150600000Y-109854819D01*
X150600000Y-109854819D02*
X150504762Y-109997676D01*
X150504762Y-109997676D02*
X150409524Y-110092914D01*
X150409524Y-110092914D02*
X150314286Y-110140533D01*
D11*
X126799999Y-101156379D02*
X126799999Y-100156379D01*
X126799999Y-100156379D02*
X126966666Y-100156379D01*
X126966666Y-100156379D02*
X127066666Y-100203998D01*
X127066666Y-100203998D02*
X127133333Y-100299236D01*
X127133333Y-100299236D02*
X127166666Y-100394474D01*
X127166666Y-100394474D02*
X127199999Y-100584950D01*
X127199999Y-100584950D02*
X127199999Y-100727807D01*
X127199999Y-100727807D02*
X127166666Y-100918283D01*
X127166666Y-100918283D02*
X127133333Y-101013521D01*
X127133333Y-101013521D02*
X127066666Y-101108760D01*
X127066666Y-101108760D02*
X126966666Y-101156379D01*
X126966666Y-101156379D02*
X126799999Y-101156379D01*
X127466666Y-100251617D02*
X127499999Y-100203998D01*
X127499999Y-100203998D02*
X127566666Y-100156379D01*
X127566666Y-100156379D02*
X127733333Y-100156379D01*
X127733333Y-100156379D02*
X127799999Y-100203998D01*
X127799999Y-100203998D02*
X127833333Y-100251617D01*
X127833333Y-100251617D02*
X127866666Y-100346855D01*
X127866666Y-100346855D02*
X127866666Y-100442093D01*
X127866666Y-100442093D02*
X127833333Y-100584950D01*
X127833333Y-100584950D02*
X127433333Y-101156379D01*
X127433333Y-101156379D02*
X127866666Y-101156379D01*
X128300000Y-100156379D02*
X128366666Y-100156379D01*
X128366666Y-100156379D02*
X128433333Y-100203998D01*
X128433333Y-100203998D02*
X128466666Y-100251617D01*
X128466666Y-100251617D02*
X128500000Y-100346855D01*
X128500000Y-100346855D02*
X128533333Y-100537331D01*
X128533333Y-100537331D02*
X128533333Y-100775426D01*
X128533333Y-100775426D02*
X128500000Y-100965902D01*
X128500000Y-100965902D02*
X128466666Y-101061140D01*
X128466666Y-101061140D02*
X128433333Y-101108760D01*
X128433333Y-101108760D02*
X128366666Y-101156379D01*
X128366666Y-101156379D02*
X128300000Y-101156379D01*
X128300000Y-101156379D02*
X128233333Y-101108760D01*
X128233333Y-101108760D02*
X128200000Y-101061140D01*
X128200000Y-101061140D02*
X128166666Y-100965902D01*
X128166666Y-100965902D02*
X128133333Y-100775426D01*
X128133333Y-100775426D02*
X128133333Y-100537331D01*
X128133333Y-100537331D02*
X128166666Y-100346855D01*
X128166666Y-100346855D02*
X128200000Y-100251617D01*
X128200000Y-100251617D02*
X128233333Y-100203998D01*
X128233333Y-100203998D02*
X128300000Y-100156379D01*
D12*
X119785714Y-99704819D02*
X119214286Y-99704819D01*
X119500000Y-99704819D02*
X119500000Y-98704819D01*
X119500000Y-98704819D02*
X119404762Y-98847676D01*
X119404762Y-98847676D02*
X119309524Y-98942914D01*
X119309524Y-98942914D02*
X119214286Y-98990533D01*
X146435714Y-77404819D02*
X146435714Y-76404819D01*
X146435714Y-76404819D02*
X146673809Y-76404819D01*
X146673809Y-76404819D02*
X146816666Y-76452438D01*
X146816666Y-76452438D02*
X146911904Y-76547676D01*
X146911904Y-76547676D02*
X146959523Y-76642914D01*
X146959523Y-76642914D02*
X147007142Y-76833390D01*
X147007142Y-76833390D02*
X147007142Y-76976247D01*
X147007142Y-76976247D02*
X146959523Y-77166723D01*
X146959523Y-77166723D02*
X146911904Y-77261961D01*
X146911904Y-77261961D02*
X146816666Y-77357200D01*
X146816666Y-77357200D02*
X146673809Y-77404819D01*
X146673809Y-77404819D02*
X146435714Y-77404819D01*
X147340476Y-76404819D02*
X147959523Y-76404819D01*
X147959523Y-76404819D02*
X147626190Y-76785771D01*
X147626190Y-76785771D02*
X147769047Y-76785771D01*
X147769047Y-76785771D02*
X147864285Y-76833390D01*
X147864285Y-76833390D02*
X147911904Y-76881009D01*
X147911904Y-76881009D02*
X147959523Y-76976247D01*
X147959523Y-76976247D02*
X147959523Y-77214342D01*
X147959523Y-77214342D02*
X147911904Y-77309580D01*
X147911904Y-77309580D02*
X147864285Y-77357200D01*
X147864285Y-77357200D02*
X147769047Y-77404819D01*
X147769047Y-77404819D02*
X147483333Y-77404819D01*
X147483333Y-77404819D02*
X147388095Y-77357200D01*
X147388095Y-77357200D02*
X147340476Y-77309580D01*
X148816666Y-76738152D02*
X148816666Y-77404819D01*
X148578571Y-76357200D02*
X148340476Y-77071485D01*
X148340476Y-77071485D02*
X148959523Y-77071485D01*
X143785714Y-79304819D02*
X143214286Y-79304819D01*
X143500000Y-79304819D02*
X143500000Y-78304819D01*
X143500000Y-78304819D02*
X143404762Y-78447676D01*
X143404762Y-78447676D02*
X143309524Y-78542914D01*
X143309524Y-78542914D02*
X143214286Y-78590533D01*
D11*
X157849999Y-122056379D02*
X157849999Y-121056379D01*
X157849999Y-121056379D02*
X158016666Y-121056379D01*
X158016666Y-121056379D02*
X158116666Y-121103998D01*
X158116666Y-121103998D02*
X158183333Y-121199236D01*
X158183333Y-121199236D02*
X158216666Y-121294474D01*
X158216666Y-121294474D02*
X158249999Y-121484950D01*
X158249999Y-121484950D02*
X158249999Y-121627807D01*
X158249999Y-121627807D02*
X158216666Y-121818283D01*
X158216666Y-121818283D02*
X158183333Y-121913521D01*
X158183333Y-121913521D02*
X158116666Y-122008760D01*
X158116666Y-122008760D02*
X158016666Y-122056379D01*
X158016666Y-122056379D02*
X157849999Y-122056379D01*
X158916666Y-122056379D02*
X158516666Y-122056379D01*
X158716666Y-122056379D02*
X158716666Y-121056379D01*
X158716666Y-121056379D02*
X158649999Y-121199236D01*
X158649999Y-121199236D02*
X158583333Y-121294474D01*
X158583333Y-121294474D02*
X158516666Y-121342093D01*
X159583333Y-122056379D02*
X159183333Y-122056379D01*
X159383333Y-122056379D02*
X159383333Y-121056379D01*
X159383333Y-121056379D02*
X159316666Y-121199236D01*
X159316666Y-121199236D02*
X159250000Y-121294474D01*
X159250000Y-121294474D02*
X159183333Y-121342093D01*
D12*
X151135714Y-120554819D02*
X150564286Y-120554819D01*
X150850000Y-120554819D02*
X150850000Y-119554819D01*
X150850000Y-119554819D02*
X150754762Y-119697676D01*
X150754762Y-119697676D02*
X150659524Y-119792914D01*
X150659524Y-119792914D02*
X150564286Y-119840533D01*
D11*
X148749999Y-112306379D02*
X148749999Y-111306379D01*
X148749999Y-111306379D02*
X148916666Y-111306379D01*
X148916666Y-111306379D02*
X149016666Y-111353998D01*
X149016666Y-111353998D02*
X149083333Y-111449236D01*
X149083333Y-111449236D02*
X149116666Y-111544474D01*
X149116666Y-111544474D02*
X149149999Y-111734950D01*
X149149999Y-111734950D02*
X149149999Y-111877807D01*
X149149999Y-111877807D02*
X149116666Y-112068283D01*
X149116666Y-112068283D02*
X149083333Y-112163521D01*
X149083333Y-112163521D02*
X149016666Y-112258760D01*
X149016666Y-112258760D02*
X148916666Y-112306379D01*
X148916666Y-112306379D02*
X148749999Y-112306379D01*
X149816666Y-112306379D02*
X149416666Y-112306379D01*
X149616666Y-112306379D02*
X149616666Y-111306379D01*
X149616666Y-111306379D02*
X149549999Y-111449236D01*
X149549999Y-111449236D02*
X149483333Y-111544474D01*
X149483333Y-111544474D02*
X149416666Y-111592093D01*
X150450000Y-111306379D02*
X150116666Y-111306379D01*
X150116666Y-111306379D02*
X150083333Y-111782569D01*
X150083333Y-111782569D02*
X150116666Y-111734950D01*
X150116666Y-111734950D02*
X150183333Y-111687331D01*
X150183333Y-111687331D02*
X150350000Y-111687331D01*
X150350000Y-111687331D02*
X150416666Y-111734950D01*
X150416666Y-111734950D02*
X150450000Y-111782569D01*
X150450000Y-111782569D02*
X150483333Y-111877807D01*
X150483333Y-111877807D02*
X150483333Y-112115902D01*
X150483333Y-112115902D02*
X150450000Y-112211140D01*
X150450000Y-112211140D02*
X150416666Y-112258760D01*
X150416666Y-112258760D02*
X150350000Y-112306379D01*
X150350000Y-112306379D02*
X150183333Y-112306379D01*
X150183333Y-112306379D02*
X150116666Y-112258760D01*
X150116666Y-112258760D02*
X150083333Y-112211140D01*
D12*
X141135714Y-110854819D02*
X140564286Y-110854819D01*
X140850000Y-110854819D02*
X140850000Y-109854819D01*
X140850000Y-109854819D02*
X140754762Y-109997676D01*
X140754762Y-109997676D02*
X140659524Y-110092914D01*
X140659524Y-110092914D02*
X140564286Y-110140533D01*
D11*
X148449999Y-122106379D02*
X148449999Y-121106379D01*
X148449999Y-121106379D02*
X148616666Y-121106379D01*
X148616666Y-121106379D02*
X148716666Y-121153998D01*
X148716666Y-121153998D02*
X148783333Y-121249236D01*
X148783333Y-121249236D02*
X148816666Y-121344474D01*
X148816666Y-121344474D02*
X148849999Y-121534950D01*
X148849999Y-121534950D02*
X148849999Y-121677807D01*
X148849999Y-121677807D02*
X148816666Y-121868283D01*
X148816666Y-121868283D02*
X148783333Y-121963521D01*
X148783333Y-121963521D02*
X148716666Y-122058760D01*
X148716666Y-122058760D02*
X148616666Y-122106379D01*
X148616666Y-122106379D02*
X148449999Y-122106379D01*
X149516666Y-122106379D02*
X149116666Y-122106379D01*
X149316666Y-122106379D02*
X149316666Y-121106379D01*
X149316666Y-121106379D02*
X149249999Y-121249236D01*
X149249999Y-121249236D02*
X149183333Y-121344474D01*
X149183333Y-121344474D02*
X149116666Y-121392093D01*
X149950000Y-121106379D02*
X150016666Y-121106379D01*
X150016666Y-121106379D02*
X150083333Y-121153998D01*
X150083333Y-121153998D02*
X150116666Y-121201617D01*
X150116666Y-121201617D02*
X150150000Y-121296855D01*
X150150000Y-121296855D02*
X150183333Y-121487331D01*
X150183333Y-121487331D02*
X150183333Y-121725426D01*
X150183333Y-121725426D02*
X150150000Y-121915902D01*
X150150000Y-121915902D02*
X150116666Y-122011140D01*
X150116666Y-122011140D02*
X150083333Y-122058760D01*
X150083333Y-122058760D02*
X150016666Y-122106379D01*
X150016666Y-122106379D02*
X149950000Y-122106379D01*
X149950000Y-122106379D02*
X149883333Y-122058760D01*
X149883333Y-122058760D02*
X149850000Y-122011140D01*
X149850000Y-122011140D02*
X149816666Y-121915902D01*
X149816666Y-121915902D02*
X149783333Y-121725426D01*
X149783333Y-121725426D02*
X149783333Y-121487331D01*
X149783333Y-121487331D02*
X149816666Y-121296855D01*
X149816666Y-121296855D02*
X149850000Y-121201617D01*
X149850000Y-121201617D02*
X149883333Y-121153998D01*
X149883333Y-121153998D02*
X149950000Y-121106379D01*
D12*
X141485714Y-120604819D02*
X140914286Y-120604819D01*
X141200000Y-120604819D02*
X141200000Y-119604819D01*
X141200000Y-119604819D02*
X141104762Y-119747676D01*
X141104762Y-119747676D02*
X141009524Y-119842914D01*
X141009524Y-119842914D02*
X140914286Y-119890533D01*
D11*
X158299999Y-101306379D02*
X158299999Y-100306379D01*
X158299999Y-100306379D02*
X158466666Y-100306379D01*
X158466666Y-100306379D02*
X158566666Y-100353998D01*
X158566666Y-100353998D02*
X158633333Y-100449236D01*
X158633333Y-100449236D02*
X158666666Y-100544474D01*
X158666666Y-100544474D02*
X158699999Y-100734950D01*
X158699999Y-100734950D02*
X158699999Y-100877807D01*
X158699999Y-100877807D02*
X158666666Y-101068283D01*
X158666666Y-101068283D02*
X158633333Y-101163521D01*
X158633333Y-101163521D02*
X158566666Y-101258760D01*
X158566666Y-101258760D02*
X158466666Y-101306379D01*
X158466666Y-101306379D02*
X158299999Y-101306379D01*
X158966666Y-100401617D02*
X158999999Y-100353998D01*
X158999999Y-100353998D02*
X159066666Y-100306379D01*
X159066666Y-100306379D02*
X159233333Y-100306379D01*
X159233333Y-100306379D02*
X159299999Y-100353998D01*
X159299999Y-100353998D02*
X159333333Y-100401617D01*
X159333333Y-100401617D02*
X159366666Y-100496855D01*
X159366666Y-100496855D02*
X159366666Y-100592093D01*
X159366666Y-100592093D02*
X159333333Y-100734950D01*
X159333333Y-100734950D02*
X158933333Y-101306379D01*
X158933333Y-101306379D02*
X159366666Y-101306379D01*
X159600000Y-100306379D02*
X160033333Y-100306379D01*
X160033333Y-100306379D02*
X159800000Y-100687331D01*
X159800000Y-100687331D02*
X159900000Y-100687331D01*
X159900000Y-100687331D02*
X159966666Y-100734950D01*
X159966666Y-100734950D02*
X160000000Y-100782569D01*
X160000000Y-100782569D02*
X160033333Y-100877807D01*
X160033333Y-100877807D02*
X160033333Y-101115902D01*
X160033333Y-101115902D02*
X160000000Y-101211140D01*
X160000000Y-101211140D02*
X159966666Y-101258760D01*
X159966666Y-101258760D02*
X159900000Y-101306379D01*
X159900000Y-101306379D02*
X159700000Y-101306379D01*
X159700000Y-101306379D02*
X159633333Y-101258760D01*
X159633333Y-101258760D02*
X159600000Y-101211140D01*
D12*
X150885714Y-99704819D02*
X150314286Y-99704819D01*
X150600000Y-99704819D02*
X150600000Y-98704819D01*
X150600000Y-98704819D02*
X150504762Y-98847676D01*
X150504762Y-98847676D02*
X150409524Y-98942914D01*
X150409524Y-98942914D02*
X150314286Y-98990533D01*
D11*
X138649999Y-112406379D02*
X138649999Y-111406379D01*
X138649999Y-111406379D02*
X138816666Y-111406379D01*
X138816666Y-111406379D02*
X138916666Y-111453998D01*
X138916666Y-111453998D02*
X138983333Y-111549236D01*
X138983333Y-111549236D02*
X139016666Y-111644474D01*
X139016666Y-111644474D02*
X139049999Y-111834950D01*
X139049999Y-111834950D02*
X139049999Y-111977807D01*
X139049999Y-111977807D02*
X139016666Y-112168283D01*
X139016666Y-112168283D02*
X138983333Y-112263521D01*
X138983333Y-112263521D02*
X138916666Y-112358760D01*
X138916666Y-112358760D02*
X138816666Y-112406379D01*
X138816666Y-112406379D02*
X138649999Y-112406379D01*
X139716666Y-112406379D02*
X139316666Y-112406379D01*
X139516666Y-112406379D02*
X139516666Y-111406379D01*
X139516666Y-111406379D02*
X139449999Y-111549236D01*
X139449999Y-111549236D02*
X139383333Y-111644474D01*
X139383333Y-111644474D02*
X139316666Y-111692093D01*
X140316666Y-111406379D02*
X140183333Y-111406379D01*
X140183333Y-111406379D02*
X140116666Y-111453998D01*
X140116666Y-111453998D02*
X140083333Y-111501617D01*
X140083333Y-111501617D02*
X140016666Y-111644474D01*
X140016666Y-111644474D02*
X139983333Y-111834950D01*
X139983333Y-111834950D02*
X139983333Y-112215902D01*
X139983333Y-112215902D02*
X140016666Y-112311140D01*
X140016666Y-112311140D02*
X140050000Y-112358760D01*
X140050000Y-112358760D02*
X140116666Y-112406379D01*
X140116666Y-112406379D02*
X140250000Y-112406379D01*
X140250000Y-112406379D02*
X140316666Y-112358760D01*
X140316666Y-112358760D02*
X140350000Y-112311140D01*
X140350000Y-112311140D02*
X140383333Y-112215902D01*
X140383333Y-112215902D02*
X140383333Y-111977807D01*
X140383333Y-111977807D02*
X140350000Y-111882569D01*
X140350000Y-111882569D02*
X140316666Y-111834950D01*
X140316666Y-111834950D02*
X140250000Y-111787331D01*
X140250000Y-111787331D02*
X140116666Y-111787331D01*
X140116666Y-111787331D02*
X140050000Y-111834950D01*
X140050000Y-111834950D02*
X140016666Y-111882569D01*
X140016666Y-111882569D02*
X139983333Y-111977807D01*
D12*
X131185714Y-110904819D02*
X130614286Y-110904819D01*
X130900000Y-110904819D02*
X130900000Y-109904819D01*
X130900000Y-109904819D02*
X130804762Y-110047676D01*
X130804762Y-110047676D02*
X130709524Y-110142914D01*
X130709524Y-110142914D02*
X130614286Y-110190533D01*
X131433333Y-127559580D02*
X131385714Y-127607200D01*
X131385714Y-127607200D02*
X131242857Y-127654819D01*
X131242857Y-127654819D02*
X131147619Y-127654819D01*
X131147619Y-127654819D02*
X131004762Y-127607200D01*
X131004762Y-127607200D02*
X130909524Y-127511961D01*
X130909524Y-127511961D02*
X130861905Y-127416723D01*
X130861905Y-127416723D02*
X130814286Y-127226247D01*
X130814286Y-127226247D02*
X130814286Y-127083390D01*
X130814286Y-127083390D02*
X130861905Y-126892914D01*
X130861905Y-126892914D02*
X130909524Y-126797676D01*
X130909524Y-126797676D02*
X131004762Y-126702438D01*
X131004762Y-126702438D02*
X131147619Y-126654819D01*
X131147619Y-126654819D02*
X131242857Y-126654819D01*
X131242857Y-126654819D02*
X131385714Y-126702438D01*
X131385714Y-126702438D02*
X131433333Y-126750057D01*
X132338095Y-126654819D02*
X131861905Y-126654819D01*
X131861905Y-126654819D02*
X131814286Y-127131009D01*
X131814286Y-127131009D02*
X131861905Y-127083390D01*
X131861905Y-127083390D02*
X131957143Y-127035771D01*
X131957143Y-127035771D02*
X132195238Y-127035771D01*
X132195238Y-127035771D02*
X132290476Y-127083390D01*
X132290476Y-127083390D02*
X132338095Y-127131009D01*
X132338095Y-127131009D02*
X132385714Y-127226247D01*
X132385714Y-127226247D02*
X132385714Y-127464342D01*
X132385714Y-127464342D02*
X132338095Y-127559580D01*
X132338095Y-127559580D02*
X132290476Y-127607200D01*
X132290476Y-127607200D02*
X132195238Y-127654819D01*
X132195238Y-127654819D02*
X131957143Y-127654819D01*
X131957143Y-127654819D02*
X131861905Y-127607200D01*
X131861905Y-127607200D02*
X131814286Y-127559580D01*
X161557142Y-107159580D02*
X161509523Y-107207200D01*
X161509523Y-107207200D02*
X161366666Y-107254819D01*
X161366666Y-107254819D02*
X161271428Y-107254819D01*
X161271428Y-107254819D02*
X161128571Y-107207200D01*
X161128571Y-107207200D02*
X161033333Y-107111961D01*
X161033333Y-107111961D02*
X160985714Y-107016723D01*
X160985714Y-107016723D02*
X160938095Y-106826247D01*
X160938095Y-106826247D02*
X160938095Y-106683390D01*
X160938095Y-106683390D02*
X160985714Y-106492914D01*
X160985714Y-106492914D02*
X161033333Y-106397676D01*
X161033333Y-106397676D02*
X161128571Y-106302438D01*
X161128571Y-106302438D02*
X161271428Y-106254819D01*
X161271428Y-106254819D02*
X161366666Y-106254819D01*
X161366666Y-106254819D02*
X161509523Y-106302438D01*
X161509523Y-106302438D02*
X161557142Y-106350057D01*
X162509523Y-107254819D02*
X161938095Y-107254819D01*
X162223809Y-107254819D02*
X162223809Y-106254819D01*
X162223809Y-106254819D02*
X162128571Y-106397676D01*
X162128571Y-106397676D02*
X162033333Y-106492914D01*
X162033333Y-106492914D02*
X161938095Y-106540533D01*
X163366666Y-106588152D02*
X163366666Y-107254819D01*
X163128571Y-106207200D02*
X162890476Y-106921485D01*
X162890476Y-106921485D02*
X163509523Y-106921485D01*
X122585714Y-77254819D02*
X122585714Y-76254819D01*
X122585714Y-76254819D02*
X122823809Y-76254819D01*
X122823809Y-76254819D02*
X122966666Y-76302438D01*
X122966666Y-76302438D02*
X123061904Y-76397676D01*
X123061904Y-76397676D02*
X123109523Y-76492914D01*
X123109523Y-76492914D02*
X123157142Y-76683390D01*
X123157142Y-76683390D02*
X123157142Y-76826247D01*
X123157142Y-76826247D02*
X123109523Y-77016723D01*
X123109523Y-77016723D02*
X123061904Y-77111961D01*
X123061904Y-77111961D02*
X122966666Y-77207200D01*
X122966666Y-77207200D02*
X122823809Y-77254819D01*
X122823809Y-77254819D02*
X122585714Y-77254819D01*
X123490476Y-76254819D02*
X124109523Y-76254819D01*
X124109523Y-76254819D02*
X123776190Y-76635771D01*
X123776190Y-76635771D02*
X123919047Y-76635771D01*
X123919047Y-76635771D02*
X124014285Y-76683390D01*
X124014285Y-76683390D02*
X124061904Y-76731009D01*
X124061904Y-76731009D02*
X124109523Y-76826247D01*
X124109523Y-76826247D02*
X124109523Y-77064342D01*
X124109523Y-77064342D02*
X124061904Y-77159580D01*
X124061904Y-77159580D02*
X124014285Y-77207200D01*
X124014285Y-77207200D02*
X123919047Y-77254819D01*
X123919047Y-77254819D02*
X123633333Y-77254819D01*
X123633333Y-77254819D02*
X123538095Y-77207200D01*
X123538095Y-77207200D02*
X123490476Y-77159580D01*
X124490476Y-76350057D02*
X124538095Y-76302438D01*
X124538095Y-76302438D02*
X124633333Y-76254819D01*
X124633333Y-76254819D02*
X124871428Y-76254819D01*
X124871428Y-76254819D02*
X124966666Y-76302438D01*
X124966666Y-76302438D02*
X125014285Y-76350057D01*
X125014285Y-76350057D02*
X125061904Y-76445295D01*
X125061904Y-76445295D02*
X125061904Y-76540533D01*
X125061904Y-76540533D02*
X125014285Y-76683390D01*
X125014285Y-76683390D02*
X124442857Y-77254819D01*
X124442857Y-77254819D02*
X125061904Y-77254819D01*
X119935714Y-79154819D02*
X119364286Y-79154819D01*
X119650000Y-79154819D02*
X119650000Y-78154819D01*
X119650000Y-78154819D02*
X119554762Y-78297676D01*
X119554762Y-78297676D02*
X119459524Y-78392914D01*
X119459524Y-78392914D02*
X119364286Y-78440533D01*
D11*
X138733333Y-131606379D02*
X138733333Y-130606379D01*
X138733333Y-130606379D02*
X138900000Y-130606379D01*
X138900000Y-130606379D02*
X139000000Y-130653998D01*
X139000000Y-130653998D02*
X139066667Y-130749236D01*
X139066667Y-130749236D02*
X139100000Y-130844474D01*
X139100000Y-130844474D02*
X139133333Y-131034950D01*
X139133333Y-131034950D02*
X139133333Y-131177807D01*
X139133333Y-131177807D02*
X139100000Y-131368283D01*
X139100000Y-131368283D02*
X139066667Y-131463521D01*
X139066667Y-131463521D02*
X139000000Y-131558760D01*
X139000000Y-131558760D02*
X138900000Y-131606379D01*
X138900000Y-131606379D02*
X138733333Y-131606379D01*
X139733333Y-130939712D02*
X139733333Y-131606379D01*
X139566667Y-130558760D02*
X139400000Y-131273045D01*
X139400000Y-131273045D02*
X139833333Y-131273045D01*
D12*
X130935714Y-129854819D02*
X130364286Y-129854819D01*
X130650000Y-129854819D02*
X130650000Y-128854819D01*
X130650000Y-128854819D02*
X130554762Y-128997676D01*
X130554762Y-128997676D02*
X130459524Y-129092914D01*
X130459524Y-129092914D02*
X130364286Y-129140533D01*
X151457142Y-107159580D02*
X151409523Y-107207200D01*
X151409523Y-107207200D02*
X151266666Y-107254819D01*
X151266666Y-107254819D02*
X151171428Y-107254819D01*
X151171428Y-107254819D02*
X151028571Y-107207200D01*
X151028571Y-107207200D02*
X150933333Y-107111961D01*
X150933333Y-107111961D02*
X150885714Y-107016723D01*
X150885714Y-107016723D02*
X150838095Y-106826247D01*
X150838095Y-106826247D02*
X150838095Y-106683390D01*
X150838095Y-106683390D02*
X150885714Y-106492914D01*
X150885714Y-106492914D02*
X150933333Y-106397676D01*
X150933333Y-106397676D02*
X151028571Y-106302438D01*
X151028571Y-106302438D02*
X151171428Y-106254819D01*
X151171428Y-106254819D02*
X151266666Y-106254819D01*
X151266666Y-106254819D02*
X151409523Y-106302438D01*
X151409523Y-106302438D02*
X151457142Y-106350057D01*
X152409523Y-107254819D02*
X151838095Y-107254819D01*
X152123809Y-107254819D02*
X152123809Y-106254819D01*
X152123809Y-106254819D02*
X152028571Y-106397676D01*
X152028571Y-106397676D02*
X151933333Y-106492914D01*
X151933333Y-106492914D02*
X151838095Y-106540533D01*
X153314285Y-106254819D02*
X152838095Y-106254819D01*
X152838095Y-106254819D02*
X152790476Y-106731009D01*
X152790476Y-106731009D02*
X152838095Y-106683390D01*
X152838095Y-106683390D02*
X152933333Y-106635771D01*
X152933333Y-106635771D02*
X153171428Y-106635771D01*
X153171428Y-106635771D02*
X153266666Y-106683390D01*
X153266666Y-106683390D02*
X153314285Y-106731009D01*
X153314285Y-106731009D02*
X153361904Y-106826247D01*
X153361904Y-106826247D02*
X153361904Y-107064342D01*
X153361904Y-107064342D02*
X153314285Y-107159580D01*
X153314285Y-107159580D02*
X153266666Y-107207200D01*
X153266666Y-107207200D02*
X153171428Y-107254819D01*
X153171428Y-107254819D02*
X152933333Y-107254819D01*
X152933333Y-107254819D02*
X152838095Y-107207200D01*
X152838095Y-107207200D02*
X152790476Y-107159580D01*
X133735714Y-88204819D02*
X133735714Y-87204819D01*
X133735714Y-87204819D02*
X133973809Y-87204819D01*
X133973809Y-87204819D02*
X134116666Y-87252438D01*
X134116666Y-87252438D02*
X134211904Y-87347676D01*
X134211904Y-87347676D02*
X134259523Y-87442914D01*
X134259523Y-87442914D02*
X134307142Y-87633390D01*
X134307142Y-87633390D02*
X134307142Y-87776247D01*
X134307142Y-87776247D02*
X134259523Y-87966723D01*
X134259523Y-87966723D02*
X134211904Y-88061961D01*
X134211904Y-88061961D02*
X134116666Y-88157200D01*
X134116666Y-88157200D02*
X133973809Y-88204819D01*
X133973809Y-88204819D02*
X133735714Y-88204819D01*
X134688095Y-87300057D02*
X134735714Y-87252438D01*
X134735714Y-87252438D02*
X134830952Y-87204819D01*
X134830952Y-87204819D02*
X135069047Y-87204819D01*
X135069047Y-87204819D02*
X135164285Y-87252438D01*
X135164285Y-87252438D02*
X135211904Y-87300057D01*
X135211904Y-87300057D02*
X135259523Y-87395295D01*
X135259523Y-87395295D02*
X135259523Y-87490533D01*
X135259523Y-87490533D02*
X135211904Y-87633390D01*
X135211904Y-87633390D02*
X134640476Y-88204819D01*
X134640476Y-88204819D02*
X135259523Y-88204819D01*
X135830952Y-87633390D02*
X135735714Y-87585771D01*
X135735714Y-87585771D02*
X135688095Y-87538152D01*
X135688095Y-87538152D02*
X135640476Y-87442914D01*
X135640476Y-87442914D02*
X135640476Y-87395295D01*
X135640476Y-87395295D02*
X135688095Y-87300057D01*
X135688095Y-87300057D02*
X135735714Y-87252438D01*
X135735714Y-87252438D02*
X135830952Y-87204819D01*
X135830952Y-87204819D02*
X136021428Y-87204819D01*
X136021428Y-87204819D02*
X136116666Y-87252438D01*
X136116666Y-87252438D02*
X136164285Y-87300057D01*
X136164285Y-87300057D02*
X136211904Y-87395295D01*
X136211904Y-87395295D02*
X136211904Y-87442914D01*
X136211904Y-87442914D02*
X136164285Y-87538152D01*
X136164285Y-87538152D02*
X136116666Y-87585771D01*
X136116666Y-87585771D02*
X136021428Y-87633390D01*
X136021428Y-87633390D02*
X135830952Y-87633390D01*
X135830952Y-87633390D02*
X135735714Y-87681009D01*
X135735714Y-87681009D02*
X135688095Y-87728628D01*
X135688095Y-87728628D02*
X135640476Y-87823866D01*
X135640476Y-87823866D02*
X135640476Y-88014342D01*
X135640476Y-88014342D02*
X135688095Y-88109580D01*
X135688095Y-88109580D02*
X135735714Y-88157200D01*
X135735714Y-88157200D02*
X135830952Y-88204819D01*
X135830952Y-88204819D02*
X136021428Y-88204819D01*
X136021428Y-88204819D02*
X136116666Y-88157200D01*
X136116666Y-88157200D02*
X136164285Y-88109580D01*
X136164285Y-88109580D02*
X136211904Y-88014342D01*
X136211904Y-88014342D02*
X136211904Y-87823866D01*
X136211904Y-87823866D02*
X136164285Y-87728628D01*
X136164285Y-87728628D02*
X136116666Y-87681009D01*
X136116666Y-87681009D02*
X136021428Y-87633390D01*
X131085714Y-90104819D02*
X130514286Y-90104819D01*
X130800000Y-90104819D02*
X130800000Y-89104819D01*
X130800000Y-89104819D02*
X130704762Y-89247676D01*
X130704762Y-89247676D02*
X130609524Y-89342914D01*
X130609524Y-89342914D02*
X130514286Y-89390533D01*
X152433333Y-127534580D02*
X152385714Y-127582200D01*
X152385714Y-127582200D02*
X152242857Y-127629819D01*
X152242857Y-127629819D02*
X152147619Y-127629819D01*
X152147619Y-127629819D02*
X152004762Y-127582200D01*
X152004762Y-127582200D02*
X151909524Y-127486961D01*
X151909524Y-127486961D02*
X151861905Y-127391723D01*
X151861905Y-127391723D02*
X151814286Y-127201247D01*
X151814286Y-127201247D02*
X151814286Y-127058390D01*
X151814286Y-127058390D02*
X151861905Y-126867914D01*
X151861905Y-126867914D02*
X151909524Y-126772676D01*
X151909524Y-126772676D02*
X152004762Y-126677438D01*
X152004762Y-126677438D02*
X152147619Y-126629819D01*
X152147619Y-126629819D02*
X152242857Y-126629819D01*
X152242857Y-126629819D02*
X152385714Y-126677438D01*
X152385714Y-126677438D02*
X152433333Y-126725057D01*
X152766667Y-126629819D02*
X153385714Y-126629819D01*
X153385714Y-126629819D02*
X153052381Y-127010771D01*
X153052381Y-127010771D02*
X153195238Y-127010771D01*
X153195238Y-127010771D02*
X153290476Y-127058390D01*
X153290476Y-127058390D02*
X153338095Y-127106009D01*
X153338095Y-127106009D02*
X153385714Y-127201247D01*
X153385714Y-127201247D02*
X153385714Y-127439342D01*
X153385714Y-127439342D02*
X153338095Y-127534580D01*
X153338095Y-127534580D02*
X153290476Y-127582200D01*
X153290476Y-127582200D02*
X153195238Y-127629819D01*
X153195238Y-127629819D02*
X152909524Y-127629819D01*
X152909524Y-127629819D02*
X152814286Y-127582200D01*
X152814286Y-127582200D02*
X152766667Y-127534580D01*
X120857142Y-107359580D02*
X120809523Y-107407200D01*
X120809523Y-107407200D02*
X120666666Y-107454819D01*
X120666666Y-107454819D02*
X120571428Y-107454819D01*
X120571428Y-107454819D02*
X120428571Y-107407200D01*
X120428571Y-107407200D02*
X120333333Y-107311961D01*
X120333333Y-107311961D02*
X120285714Y-107216723D01*
X120285714Y-107216723D02*
X120238095Y-107026247D01*
X120238095Y-107026247D02*
X120238095Y-106883390D01*
X120238095Y-106883390D02*
X120285714Y-106692914D01*
X120285714Y-106692914D02*
X120333333Y-106597676D01*
X120333333Y-106597676D02*
X120428571Y-106502438D01*
X120428571Y-106502438D02*
X120571428Y-106454819D01*
X120571428Y-106454819D02*
X120666666Y-106454819D01*
X120666666Y-106454819D02*
X120809523Y-106502438D01*
X120809523Y-106502438D02*
X120857142Y-106550057D01*
X121809523Y-107454819D02*
X121238095Y-107454819D01*
X121523809Y-107454819D02*
X121523809Y-106454819D01*
X121523809Y-106454819D02*
X121428571Y-106597676D01*
X121428571Y-106597676D02*
X121333333Y-106692914D01*
X121333333Y-106692914D02*
X121238095Y-106740533D01*
X122380952Y-106883390D02*
X122285714Y-106835771D01*
X122285714Y-106835771D02*
X122238095Y-106788152D01*
X122238095Y-106788152D02*
X122190476Y-106692914D01*
X122190476Y-106692914D02*
X122190476Y-106645295D01*
X122190476Y-106645295D02*
X122238095Y-106550057D01*
X122238095Y-106550057D02*
X122285714Y-106502438D01*
X122285714Y-106502438D02*
X122380952Y-106454819D01*
X122380952Y-106454819D02*
X122571428Y-106454819D01*
X122571428Y-106454819D02*
X122666666Y-106502438D01*
X122666666Y-106502438D02*
X122714285Y-106550057D01*
X122714285Y-106550057D02*
X122761904Y-106645295D01*
X122761904Y-106645295D02*
X122761904Y-106692914D01*
X122761904Y-106692914D02*
X122714285Y-106788152D01*
X122714285Y-106788152D02*
X122666666Y-106835771D01*
X122666666Y-106835771D02*
X122571428Y-106883390D01*
X122571428Y-106883390D02*
X122380952Y-106883390D01*
X122380952Y-106883390D02*
X122285714Y-106931009D01*
X122285714Y-106931009D02*
X122238095Y-106978628D01*
X122238095Y-106978628D02*
X122190476Y-107073866D01*
X122190476Y-107073866D02*
X122190476Y-107264342D01*
X122190476Y-107264342D02*
X122238095Y-107359580D01*
X122238095Y-107359580D02*
X122285714Y-107407200D01*
X122285714Y-107407200D02*
X122380952Y-107454819D01*
X122380952Y-107454819D02*
X122571428Y-107454819D01*
X122571428Y-107454819D02*
X122666666Y-107407200D01*
X122666666Y-107407200D02*
X122714285Y-107359580D01*
X122714285Y-107359580D02*
X122761904Y-107264342D01*
X122761904Y-107264342D02*
X122761904Y-107073866D01*
X122761904Y-107073866D02*
X122714285Y-106978628D01*
X122714285Y-106978628D02*
X122666666Y-106931009D01*
X122666666Y-106931009D02*
X122571428Y-106883390D01*
X166257142Y-86159580D02*
X166209523Y-86207200D01*
X166209523Y-86207200D02*
X166066666Y-86254819D01*
X166066666Y-86254819D02*
X165971428Y-86254819D01*
X165971428Y-86254819D02*
X165828571Y-86207200D01*
X165828571Y-86207200D02*
X165733333Y-86111961D01*
X165733333Y-86111961D02*
X165685714Y-86016723D01*
X165685714Y-86016723D02*
X165638095Y-85826247D01*
X165638095Y-85826247D02*
X165638095Y-85683390D01*
X165638095Y-85683390D02*
X165685714Y-85492914D01*
X165685714Y-85492914D02*
X165733333Y-85397676D01*
X165733333Y-85397676D02*
X165828571Y-85302438D01*
X165828571Y-85302438D02*
X165971428Y-85254819D01*
X165971428Y-85254819D02*
X166066666Y-85254819D01*
X166066666Y-85254819D02*
X166209523Y-85302438D01*
X166209523Y-85302438D02*
X166257142Y-85350057D01*
X166638095Y-85350057D02*
X166685714Y-85302438D01*
X166685714Y-85302438D02*
X166780952Y-85254819D01*
X166780952Y-85254819D02*
X167019047Y-85254819D01*
X167019047Y-85254819D02*
X167114285Y-85302438D01*
X167114285Y-85302438D02*
X167161904Y-85350057D01*
X167161904Y-85350057D02*
X167209523Y-85445295D01*
X167209523Y-85445295D02*
X167209523Y-85540533D01*
X167209523Y-85540533D02*
X167161904Y-85683390D01*
X167161904Y-85683390D02*
X166590476Y-86254819D01*
X166590476Y-86254819D02*
X167209523Y-86254819D01*
X168114285Y-85254819D02*
X167638095Y-85254819D01*
X167638095Y-85254819D02*
X167590476Y-85731009D01*
X167590476Y-85731009D02*
X167638095Y-85683390D01*
X167638095Y-85683390D02*
X167733333Y-85635771D01*
X167733333Y-85635771D02*
X167971428Y-85635771D01*
X167971428Y-85635771D02*
X168066666Y-85683390D01*
X168066666Y-85683390D02*
X168114285Y-85731009D01*
X168114285Y-85731009D02*
X168161904Y-85826247D01*
X168161904Y-85826247D02*
X168161904Y-86064342D01*
X168161904Y-86064342D02*
X168114285Y-86159580D01*
X168114285Y-86159580D02*
X168066666Y-86207200D01*
X168066666Y-86207200D02*
X167971428Y-86254819D01*
X167971428Y-86254819D02*
X167733333Y-86254819D01*
X167733333Y-86254819D02*
X167638095Y-86207200D01*
X167638095Y-86207200D02*
X167590476Y-86159580D01*
D11*
X117933333Y-122156379D02*
X117933333Y-121156379D01*
X117933333Y-121156379D02*
X118100000Y-121156379D01*
X118100000Y-121156379D02*
X118200000Y-121203998D01*
X118200000Y-121203998D02*
X118266667Y-121299236D01*
X118266667Y-121299236D02*
X118300000Y-121394474D01*
X118300000Y-121394474D02*
X118333333Y-121584950D01*
X118333333Y-121584950D02*
X118333333Y-121727807D01*
X118333333Y-121727807D02*
X118300000Y-121918283D01*
X118300000Y-121918283D02*
X118266667Y-122013521D01*
X118266667Y-122013521D02*
X118200000Y-122108760D01*
X118200000Y-122108760D02*
X118100000Y-122156379D01*
X118100000Y-122156379D02*
X117933333Y-122156379D01*
X118566667Y-121156379D02*
X119033333Y-121156379D01*
X119033333Y-121156379D02*
X118733333Y-122156379D01*
D12*
X110135714Y-120654819D02*
X109564286Y-120654819D01*
X109850000Y-120654819D02*
X109850000Y-119654819D01*
X109850000Y-119654819D02*
X109754762Y-119797676D01*
X109754762Y-119797676D02*
X109659524Y-119892914D01*
X109659524Y-119892914D02*
X109564286Y-119940533D01*
D11*
X169583333Y-131456379D02*
X169583333Y-130456379D01*
X169583333Y-130456379D02*
X169750000Y-130456379D01*
X169750000Y-130456379D02*
X169850000Y-130503998D01*
X169850000Y-130503998D02*
X169916667Y-130599236D01*
X169916667Y-130599236D02*
X169950000Y-130694474D01*
X169950000Y-130694474D02*
X169983333Y-130884950D01*
X169983333Y-130884950D02*
X169983333Y-131027807D01*
X169983333Y-131027807D02*
X169950000Y-131218283D01*
X169950000Y-131218283D02*
X169916667Y-131313521D01*
X169916667Y-131313521D02*
X169850000Y-131408760D01*
X169850000Y-131408760D02*
X169750000Y-131456379D01*
X169750000Y-131456379D02*
X169583333Y-131456379D01*
X170650000Y-131456379D02*
X170250000Y-131456379D01*
X170450000Y-131456379D02*
X170450000Y-130456379D01*
X170450000Y-130456379D02*
X170383333Y-130599236D01*
X170383333Y-130599236D02*
X170316667Y-130694474D01*
X170316667Y-130694474D02*
X170250000Y-130742093D01*
D12*
X161785714Y-130004819D02*
X161214286Y-130004819D01*
X161500000Y-130004819D02*
X161500000Y-129004819D01*
X161500000Y-129004819D02*
X161404762Y-129147676D01*
X161404762Y-129147676D02*
X161309524Y-129242914D01*
X161309524Y-129242914D02*
X161214286Y-129290533D01*
X161307142Y-97009580D02*
X161259523Y-97057200D01*
X161259523Y-97057200D02*
X161116666Y-97104819D01*
X161116666Y-97104819D02*
X161021428Y-97104819D01*
X161021428Y-97104819D02*
X160878571Y-97057200D01*
X160878571Y-97057200D02*
X160783333Y-96961961D01*
X160783333Y-96961961D02*
X160735714Y-96866723D01*
X160735714Y-96866723D02*
X160688095Y-96676247D01*
X160688095Y-96676247D02*
X160688095Y-96533390D01*
X160688095Y-96533390D02*
X160735714Y-96342914D01*
X160735714Y-96342914D02*
X160783333Y-96247676D01*
X160783333Y-96247676D02*
X160878571Y-96152438D01*
X160878571Y-96152438D02*
X161021428Y-96104819D01*
X161021428Y-96104819D02*
X161116666Y-96104819D01*
X161116666Y-96104819D02*
X161259523Y-96152438D01*
X161259523Y-96152438D02*
X161307142Y-96200057D01*
X161688095Y-96200057D02*
X161735714Y-96152438D01*
X161735714Y-96152438D02*
X161830952Y-96104819D01*
X161830952Y-96104819D02*
X162069047Y-96104819D01*
X162069047Y-96104819D02*
X162164285Y-96152438D01*
X162164285Y-96152438D02*
X162211904Y-96200057D01*
X162211904Y-96200057D02*
X162259523Y-96295295D01*
X162259523Y-96295295D02*
X162259523Y-96390533D01*
X162259523Y-96390533D02*
X162211904Y-96533390D01*
X162211904Y-96533390D02*
X161640476Y-97104819D01*
X161640476Y-97104819D02*
X162259523Y-97104819D01*
X163116666Y-96438152D02*
X163116666Y-97104819D01*
X162878571Y-96057200D02*
X162640476Y-96771485D01*
X162640476Y-96771485D02*
X163259523Y-96771485D01*
X141657142Y-86159580D02*
X141609523Y-86207200D01*
X141609523Y-86207200D02*
X141466666Y-86254819D01*
X141466666Y-86254819D02*
X141371428Y-86254819D01*
X141371428Y-86254819D02*
X141228571Y-86207200D01*
X141228571Y-86207200D02*
X141133333Y-86111961D01*
X141133333Y-86111961D02*
X141085714Y-86016723D01*
X141085714Y-86016723D02*
X141038095Y-85826247D01*
X141038095Y-85826247D02*
X141038095Y-85683390D01*
X141038095Y-85683390D02*
X141085714Y-85492914D01*
X141085714Y-85492914D02*
X141133333Y-85397676D01*
X141133333Y-85397676D02*
X141228571Y-85302438D01*
X141228571Y-85302438D02*
X141371428Y-85254819D01*
X141371428Y-85254819D02*
X141466666Y-85254819D01*
X141466666Y-85254819D02*
X141609523Y-85302438D01*
X141609523Y-85302438D02*
X141657142Y-85350057D01*
X142038095Y-85350057D02*
X142085714Y-85302438D01*
X142085714Y-85302438D02*
X142180952Y-85254819D01*
X142180952Y-85254819D02*
X142419047Y-85254819D01*
X142419047Y-85254819D02*
X142514285Y-85302438D01*
X142514285Y-85302438D02*
X142561904Y-85350057D01*
X142561904Y-85350057D02*
X142609523Y-85445295D01*
X142609523Y-85445295D02*
X142609523Y-85540533D01*
X142609523Y-85540533D02*
X142561904Y-85683390D01*
X142561904Y-85683390D02*
X141990476Y-86254819D01*
X141990476Y-86254819D02*
X142609523Y-86254819D01*
X143180952Y-85683390D02*
X143085714Y-85635771D01*
X143085714Y-85635771D02*
X143038095Y-85588152D01*
X143038095Y-85588152D02*
X142990476Y-85492914D01*
X142990476Y-85492914D02*
X142990476Y-85445295D01*
X142990476Y-85445295D02*
X143038095Y-85350057D01*
X143038095Y-85350057D02*
X143085714Y-85302438D01*
X143085714Y-85302438D02*
X143180952Y-85254819D01*
X143180952Y-85254819D02*
X143371428Y-85254819D01*
X143371428Y-85254819D02*
X143466666Y-85302438D01*
X143466666Y-85302438D02*
X143514285Y-85350057D01*
X143514285Y-85350057D02*
X143561904Y-85445295D01*
X143561904Y-85445295D02*
X143561904Y-85492914D01*
X143561904Y-85492914D02*
X143514285Y-85588152D01*
X143514285Y-85588152D02*
X143466666Y-85635771D01*
X143466666Y-85635771D02*
X143371428Y-85683390D01*
X143371428Y-85683390D02*
X143180952Y-85683390D01*
X143180952Y-85683390D02*
X143085714Y-85731009D01*
X143085714Y-85731009D02*
X143038095Y-85778628D01*
X143038095Y-85778628D02*
X142990476Y-85873866D01*
X142990476Y-85873866D02*
X142990476Y-86064342D01*
X142990476Y-86064342D02*
X143038095Y-86159580D01*
X143038095Y-86159580D02*
X143085714Y-86207200D01*
X143085714Y-86207200D02*
X143180952Y-86254819D01*
X143180952Y-86254819D02*
X143371428Y-86254819D01*
X143371428Y-86254819D02*
X143466666Y-86207200D01*
X143466666Y-86207200D02*
X143514285Y-86159580D01*
X143514285Y-86159580D02*
X143561904Y-86064342D01*
X143561904Y-86064342D02*
X143561904Y-85873866D01*
X143561904Y-85873866D02*
X143514285Y-85778628D01*
X143514285Y-85778628D02*
X143466666Y-85731009D01*
X143466666Y-85731009D02*
X143371428Y-85683390D01*
D11*
X139990000Y-97240580D02*
X139990000Y-96959420D01*
X141010000Y-97240580D02*
X141010000Y-96959420D01*
X110600000Y-83900000D02*
X110600000Y-76600000D01*
X116100000Y-83900000D02*
X116100000Y-76600000D01*
X116100000Y-76600000D02*
X114950000Y-76600000D01*
X159240000Y-86465580D02*
X159240000Y-86184420D01*
X160260000Y-86465580D02*
X160260000Y-86184420D01*
X108250000Y-104550000D02*
X108250000Y-97250000D01*
X113750000Y-104550000D02*
X113750000Y-97250000D01*
X113750000Y-97250000D02*
X112600000Y-97250000D01*
X110500000Y-109200000D02*
X117800000Y-109200000D01*
X110500000Y-114700000D02*
X117800000Y-114700000D01*
X117800000Y-114700000D02*
X117800000Y-113550000D01*
X110350000Y-128250000D02*
X117650000Y-128250000D01*
X110350000Y-133750000D02*
X117650000Y-133750000D01*
X117650000Y-133750000D02*
X117650000Y-132600000D01*
X118690000Y-117740580D02*
X118690000Y-117459420D01*
X119710000Y-117740580D02*
X119710000Y-117459420D01*
X109390580Y-107360000D02*
X109109420Y-107360000D01*
X109390580Y-106340000D02*
X109109420Y-106340000D01*
X161300000Y-88450000D02*
X168600000Y-88450000D01*
X161300000Y-93950000D02*
X168600000Y-93950000D01*
X168600000Y-93950000D02*
X168600000Y-92800000D01*
X161750000Y-109450000D02*
X169050000Y-109450000D01*
X161750000Y-114950000D02*
X169050000Y-114950000D01*
X169050000Y-114950000D02*
X169050000Y-113800000D01*
X115490000Y-97140580D02*
X115490000Y-96859420D01*
X116510000Y-97140580D02*
X116510000Y-96859420D01*
X157450000Y-77750000D02*
X164750000Y-77750000D01*
X157450000Y-83250000D02*
X164750000Y-83250000D01*
X164750000Y-83250000D02*
X164750000Y-82100000D01*
X141550000Y-98100000D02*
X148850000Y-98100000D01*
X141550000Y-103600000D02*
X148850000Y-103600000D01*
X148850000Y-103600000D02*
X148850000Y-102450000D01*
X117840000Y-86565580D02*
X117840000Y-86284420D01*
X118860000Y-86565580D02*
X118860000Y-86284420D01*
X114290000Y-86340580D02*
X114290000Y-86059420D01*
X115310000Y-86340580D02*
X115310000Y-86059420D01*
X149490000Y-117840580D02*
X149490000Y-117559420D01*
X150510000Y-117840580D02*
X150510000Y-117559420D01*
X142000000Y-128400000D02*
X149300000Y-128400000D01*
X142000000Y-133900000D02*
X149300000Y-133900000D01*
X149300000Y-133900000D02*
X149300000Y-132750000D01*
X131850000Y-98050000D02*
X139150000Y-98050000D01*
X131850000Y-103550000D02*
X139150000Y-103550000D01*
X139150000Y-103550000D02*
X139150000Y-102400000D01*
X120550000Y-128250000D02*
X127850000Y-128250000D01*
X120550000Y-133750000D02*
X127850000Y-133750000D01*
X127850000Y-133750000D02*
X127850000Y-132600000D01*
X161600000Y-98100000D02*
X168900000Y-98100000D01*
X161600000Y-103600000D02*
X168900000Y-103600000D01*
X168900000Y-103600000D02*
X168900000Y-102450000D01*
X149240000Y-86365580D02*
X149240000Y-86084420D01*
X150260000Y-86365580D02*
X150260000Y-86084420D01*
X160090000Y-127565580D02*
X160090000Y-127284420D01*
X161110000Y-127565580D02*
X161110000Y-127284420D01*
X120900000Y-109200000D02*
X128200000Y-109200000D01*
X120900000Y-114700000D02*
X128200000Y-114700000D01*
X128200000Y-114700000D02*
X128200000Y-113550000D01*
X151100000Y-88450000D02*
X158400000Y-88450000D01*
X151100000Y-93950000D02*
X158400000Y-93950000D01*
X158400000Y-93950000D02*
X158400000Y-92800000D01*
X162500000Y-124100000D02*
X162500000Y-116800000D01*
X168000000Y-124100000D02*
X168000000Y-116800000D01*
X168000000Y-116800000D02*
X166850000Y-116800000D01*
X129690000Y-117715580D02*
X129690000Y-117434420D01*
X130710000Y-117715580D02*
X130710000Y-117434420D01*
X139790000Y-107415580D02*
X139790000Y-107134420D01*
X140810000Y-107415580D02*
X140810000Y-107134420D01*
X128590000Y-97165580D02*
X128590000Y-96884420D01*
X129610000Y-97165580D02*
X129610000Y-96884420D01*
X140090000Y-117740580D02*
X140090000Y-117459420D01*
X141110000Y-117740580D02*
X141110000Y-117459420D01*
X120250000Y-88450000D02*
X127550000Y-88450000D01*
X120250000Y-93950000D02*
X127550000Y-93950000D01*
X127550000Y-93950000D02*
X127550000Y-92800000D01*
X120950000Y-119050000D02*
X128250000Y-119050000D01*
X120950000Y-124550000D02*
X128250000Y-124550000D01*
X128250000Y-124550000D02*
X128250000Y-123400000D01*
X164290000Y-107540580D02*
X164290000Y-107259420D01*
X165310000Y-107540580D02*
X165310000Y-107259420D01*
X149490000Y-97240580D02*
X149490000Y-96959420D01*
X150510000Y-97240580D02*
X150510000Y-96959420D01*
X141400000Y-88500000D02*
X148700000Y-88500000D01*
X141400000Y-94000000D02*
X148700000Y-94000000D01*
X148700000Y-94000000D02*
X148700000Y-92850000D01*
X118165000Y-77165580D02*
X118165000Y-76884420D01*
X119185000Y-77165580D02*
X119185000Y-76884420D01*
X109500000Y-88450000D02*
X116800000Y-88450000D01*
X109500000Y-93950000D02*
X116800000Y-93950000D01*
X116800000Y-93950000D02*
X116800000Y-92800000D01*
X153890000Y-76540580D02*
X153890000Y-76259420D01*
X154910000Y-76540580D02*
X154910000Y-76259420D01*
X129390000Y-107515580D02*
X129390000Y-107234420D01*
X130410000Y-107515580D02*
X130410000Y-107234420D01*
X131550000Y-77550000D02*
X138850000Y-77550000D01*
X131550000Y-83050000D02*
X138850000Y-83050000D01*
X138850000Y-83050000D02*
X138850000Y-81900000D01*
X129140000Y-86415580D02*
X129140000Y-86134420D01*
X130160000Y-86415580D02*
X130160000Y-86134420D01*
X152150000Y-128400000D02*
X159450000Y-128400000D01*
X152150000Y-133900000D02*
X159450000Y-133900000D01*
X159450000Y-133900000D02*
X159450000Y-132750000D01*
X129040000Y-76565580D02*
X129040000Y-76284420D01*
X130060000Y-76565580D02*
X130060000Y-76284420D01*
X139890000Y-127540580D02*
X139890000Y-127259420D01*
X140910000Y-127540580D02*
X140910000Y-127259420D01*
X131900000Y-119000000D02*
X139200000Y-119000000D01*
X131900000Y-124500000D02*
X139200000Y-124500000D01*
X139200000Y-124500000D02*
X139200000Y-123350000D01*
X113090000Y-117340580D02*
X113090000Y-117059420D01*
X114110000Y-117340580D02*
X114110000Y-117059420D01*
X118690000Y-127515580D02*
X118690000Y-127234420D01*
X119710000Y-127515580D02*
X119710000Y-127234420D01*
X140790000Y-76590580D02*
X140790000Y-76309420D01*
X141810000Y-76590580D02*
X141810000Y-76309420D01*
X158665580Y-117510000D02*
X158384420Y-117510000D01*
X158665580Y-116490000D02*
X158384420Y-116490000D01*
X165459420Y-126240000D02*
X165740580Y-126240000D01*
X165459420Y-127260000D02*
X165740580Y-127260000D01*
X151100000Y-109250000D02*
X158400000Y-109250000D01*
X151100000Y-114750000D02*
X158400000Y-114750000D01*
X158400000Y-114750000D02*
X158400000Y-113600000D01*
X120000000Y-98100000D02*
X127300000Y-98100000D01*
X120000000Y-103600000D02*
X127300000Y-103600000D01*
X127300000Y-103600000D02*
X127300000Y-102450000D01*
X144000000Y-77700000D02*
X151300000Y-77700000D01*
X144000000Y-83200000D02*
X151300000Y-83200000D01*
X151300000Y-83200000D02*
X151300000Y-82050000D01*
X151350000Y-118950000D02*
X158650000Y-118950000D01*
X151350000Y-124450000D02*
X158650000Y-124450000D01*
X158650000Y-124450000D02*
X158650000Y-123300000D01*
X141350000Y-109250000D02*
X148650000Y-109250000D01*
X141350000Y-114750000D02*
X148650000Y-114750000D01*
X148650000Y-114750000D02*
X148650000Y-113600000D01*
X141700000Y-119000000D02*
X149000000Y-119000000D01*
X141700000Y-124500000D02*
X149000000Y-124500000D01*
X149000000Y-124500000D02*
X149000000Y-123350000D01*
X151100000Y-98100000D02*
X158400000Y-98100000D01*
X151100000Y-103600000D02*
X158400000Y-103600000D01*
X158400000Y-103600000D02*
X158400000Y-102450000D01*
X131400000Y-109300000D02*
X138700000Y-109300000D01*
X131400000Y-114800000D02*
X138700000Y-114800000D01*
X138700000Y-114800000D02*
X138700000Y-113650000D01*
X129290000Y-127515580D02*
X129290000Y-127234420D01*
X130310000Y-127515580D02*
X130310000Y-127234420D01*
X159490000Y-107440580D02*
X159490000Y-107159420D01*
X160510000Y-107440580D02*
X160510000Y-107159420D01*
X120150000Y-77550000D02*
X127450000Y-77550000D01*
X120150000Y-83050000D02*
X127450000Y-83050000D01*
X127450000Y-83050000D02*
X127450000Y-81900000D01*
X131150000Y-128250000D02*
X138450000Y-128250000D01*
X131150000Y-133750000D02*
X138450000Y-133750000D01*
X138450000Y-133750000D02*
X138450000Y-132600000D01*
X149390000Y-107440580D02*
X149390000Y-107159420D01*
X150410000Y-107440580D02*
X150410000Y-107159420D01*
X131300000Y-88500000D02*
X138600000Y-88500000D01*
X131300000Y-94000000D02*
X138600000Y-94000000D01*
X138600000Y-94000000D02*
X138600000Y-92850000D01*
X149410000Y-142390000D02*
X149410000Y-144130000D01*
X149410000Y-144130000D02*
X150910000Y-144130000D01*
X149650000Y-136770000D02*
X149650000Y-143890000D01*
X149650000Y-136770000D02*
X164470000Y-136770000D01*
X149650000Y-142330000D02*
X164470000Y-142330000D01*
X149650000Y-143890000D02*
X164470000Y-143890000D01*
X164470000Y-136770000D02*
X164470000Y-143890000D01*
X150378000Y-139622000D02*
G75*
G03*
X150377891Y-140837742I1432000J-608000D01*
G01*
X152418000Y-138798000D02*
G75*
G03*
X151202258Y-138797891I-608000J-1432000D01*
G01*
X151202000Y-141661999D02*
G75*
G03*
X151837011Y-141785492I607998J1431987D01*
G01*
X151810000Y-141784999D02*
G75*
G03*
X152417587Y-141661384I0J1554999D01*
G01*
X153242000Y-140838000D02*
G75*
G03*
X153242109Y-139622258I-1432003J607999D01*
G01*
X156865000Y-140230000D02*
G75*
G03*
X156865000Y-140230000I-1555000J0D01*
G01*
X160365000Y-140230000D02*
G75*
G03*
X160365000Y-140230000I-1555000J0D01*
G01*
X163865000Y-140230000D02*
G75*
G03*
X163865000Y-140230000I-1555000J0D01*
G01*
X150290000Y-127315580D02*
X150290000Y-127034420D01*
X151310000Y-127315580D02*
X151310000Y-127034420D01*
X118790000Y-107465580D02*
X118790000Y-107184420D01*
X119810000Y-107465580D02*
X119810000Y-107184420D01*
X164190000Y-86590580D02*
X164190000Y-86309420D01*
X165210000Y-86590580D02*
X165210000Y-86309420D01*
X110350000Y-119050000D02*
X117650000Y-119050000D01*
X110350000Y-124550000D02*
X117650000Y-124550000D01*
X117650000Y-124550000D02*
X117650000Y-123400000D01*
X162000000Y-128400000D02*
X169300000Y-128400000D01*
X162000000Y-133900000D02*
X169300000Y-133900000D01*
X169300000Y-133900000D02*
X169300000Y-132750000D01*
X159290000Y-97215580D02*
X159290000Y-96934420D01*
X160310000Y-97215580D02*
X160310000Y-96934420D01*
X139540000Y-86465580D02*
X139540000Y-86184420D01*
X140560000Y-86465580D02*
X140560000Y-86184420D01*
%LPC*%
D13*
X140500000Y-97875000D03*
X140500000Y-96325000D03*
D14*
X111700000Y-82700000D03*
X115000000Y-82700000D03*
X115000000Y-77800000D03*
X111700000Y-77800000D03*
D13*
X159750000Y-87100000D03*
X159750000Y-85550000D03*
D14*
X109350000Y-103350000D03*
X112650000Y-103350000D03*
X112650000Y-98450000D03*
X109350000Y-98450000D03*
D15*
X111700000Y-110300000D03*
X111700000Y-113600000D03*
X116600000Y-113600000D03*
X116600000Y-110300000D03*
X111550000Y-129350000D03*
X111550000Y-132650000D03*
X116450000Y-132650000D03*
X116450000Y-129350000D03*
D13*
X119200000Y-118375000D03*
X119200000Y-116825000D03*
D16*
X110025000Y-106850000D03*
X108475000Y-106850000D03*
D15*
X162500000Y-89550000D03*
X162500000Y-92850000D03*
X167400000Y-92850000D03*
X167400000Y-89550000D03*
X162950000Y-110550000D03*
X162950000Y-113850000D03*
X167850000Y-113850000D03*
X167850000Y-110550000D03*
D13*
X116000000Y-97775000D03*
X116000000Y-96225000D03*
D15*
X158650000Y-78850000D03*
X158650000Y-82150000D03*
X163550000Y-82150000D03*
X163550000Y-78850000D03*
X142750000Y-99200000D03*
X142750000Y-102500000D03*
X147650000Y-102500000D03*
X147650000Y-99200000D03*
D13*
X118350000Y-87200000D03*
X118350000Y-85650000D03*
X114800000Y-86975000D03*
X114800000Y-85425000D03*
X150000000Y-118475000D03*
X150000000Y-116925000D03*
D15*
X143200000Y-129500000D03*
X143200000Y-132800000D03*
X148100000Y-132800000D03*
X148100000Y-129500000D03*
X133050000Y-99150000D03*
X133050000Y-102450000D03*
X137950000Y-102450000D03*
X137950000Y-99150000D03*
X121750000Y-129350000D03*
X121750000Y-132650000D03*
X126650000Y-132650000D03*
X126650000Y-129350000D03*
X162800000Y-99200000D03*
X162800000Y-102500000D03*
X167700000Y-102500000D03*
X167700000Y-99200000D03*
D13*
X149750000Y-87000000D03*
X149750000Y-85450000D03*
X160600000Y-128200000D03*
X160600000Y-126650000D03*
D15*
X122100000Y-110300000D03*
X122100000Y-113600000D03*
X127000000Y-113600000D03*
X127000000Y-110300000D03*
X152300000Y-89550000D03*
X152300000Y-92850000D03*
X157200000Y-92850000D03*
X157200000Y-89550000D03*
D14*
X163600000Y-122900000D03*
X166900000Y-122900000D03*
X166900000Y-118000000D03*
X163600000Y-118000000D03*
D13*
X130200000Y-118350000D03*
X130200000Y-116800000D03*
X140300000Y-108050000D03*
X140300000Y-106500000D03*
X129100000Y-97800000D03*
X129100000Y-96250000D03*
X140600000Y-118375000D03*
X140600000Y-116825000D03*
D15*
X121450000Y-89550000D03*
X121450000Y-92850000D03*
X126350000Y-92850000D03*
X126350000Y-89550000D03*
X122150000Y-120150000D03*
X122150000Y-123450000D03*
X127050000Y-123450000D03*
X127050000Y-120150000D03*
D13*
X164800000Y-108175000D03*
X164800000Y-106625000D03*
X150000000Y-97875000D03*
X150000000Y-96325000D03*
D17*
X169610000Y-72860000D03*
D15*
X142600000Y-89600000D03*
X142600000Y-92900000D03*
X147500000Y-92900000D03*
X147500000Y-89600000D03*
D17*
X169000000Y-141400000D03*
D13*
X118675000Y-77800000D03*
X118675000Y-76250000D03*
D15*
X110700000Y-89550000D03*
X110700000Y-92850000D03*
X115600000Y-92850000D03*
X115600000Y-89550000D03*
D13*
X154400000Y-77175000D03*
X154400000Y-75625000D03*
X129900000Y-108150000D03*
X129900000Y-106600000D03*
D15*
X132750000Y-78650000D03*
X132750000Y-81950000D03*
X137650000Y-81950000D03*
X137650000Y-78650000D03*
D13*
X129650000Y-87050000D03*
X129650000Y-85500000D03*
D15*
X153350000Y-129500000D03*
X153350000Y-132800000D03*
X158250000Y-132800000D03*
X158250000Y-129500000D03*
D13*
X129550000Y-77200000D03*
X129550000Y-75650000D03*
X140400000Y-128175000D03*
X140400000Y-126625000D03*
D15*
X133100000Y-120100000D03*
X133100000Y-123400000D03*
X138000000Y-123400000D03*
X138000000Y-120100000D03*
D13*
X113600000Y-117975000D03*
X113600000Y-116425000D03*
X119200000Y-128150000D03*
X119200000Y-126600000D03*
X141300000Y-77225000D03*
X141300000Y-75675000D03*
D16*
X159300000Y-117000000D03*
X157750000Y-117000000D03*
D17*
X106400000Y-141600000D03*
D18*
X164825000Y-126750000D03*
X166375000Y-126750000D03*
D15*
X152300000Y-110350000D03*
X152300000Y-113650000D03*
X157200000Y-113650000D03*
X157200000Y-110350000D03*
X121200000Y-99200000D03*
X121200000Y-102500000D03*
X126100000Y-102500000D03*
X126100000Y-99200000D03*
X145200000Y-78800000D03*
X145200000Y-82100000D03*
X150100000Y-82100000D03*
X150100000Y-78800000D03*
X152550000Y-120050000D03*
X152550000Y-123350000D03*
X157450000Y-123350000D03*
X157450000Y-120050000D03*
X142550000Y-110350000D03*
X142550000Y-113650000D03*
X147450000Y-113650000D03*
X147450000Y-110350000D03*
X142900000Y-120100000D03*
X142900000Y-123400000D03*
X147800000Y-123400000D03*
X147800000Y-120100000D03*
X152300000Y-99200000D03*
X152300000Y-102500000D03*
X157200000Y-102500000D03*
X157200000Y-99200000D03*
X132600000Y-110400000D03*
X132600000Y-113700000D03*
X137500000Y-113700000D03*
X137500000Y-110400000D03*
D13*
X129800000Y-128150000D03*
X129800000Y-126600000D03*
X160000000Y-108075000D03*
X160000000Y-106525000D03*
D15*
X121350000Y-78650000D03*
X121350000Y-81950000D03*
X126250000Y-81950000D03*
X126250000Y-78650000D03*
X132350000Y-129350000D03*
X132350000Y-132650000D03*
X137250000Y-132650000D03*
X137250000Y-129350000D03*
D13*
X149900000Y-108075000D03*
X149900000Y-106525000D03*
D15*
X132500000Y-89600000D03*
X132500000Y-92900000D03*
X137400000Y-92900000D03*
X137400000Y-89600000D03*
D19*
X151810000Y-140230000D03*
D20*
X155310000Y-140230000D03*
X158810000Y-140230000D03*
X162310000Y-140230000D03*
D13*
X150800000Y-127950000D03*
X150800000Y-126400000D03*
X119300000Y-108100000D03*
X119300000Y-106550000D03*
X164700000Y-87225000D03*
X164700000Y-85675000D03*
D15*
X111550000Y-120150000D03*
X111550000Y-123450000D03*
X116450000Y-123450000D03*
X116450000Y-120150000D03*
X163200000Y-129500000D03*
X163200000Y-132800000D03*
X168100000Y-132800000D03*
X168100000Y-129500000D03*
D17*
X106260000Y-72780000D03*
D13*
X159800000Y-97850000D03*
X159800000Y-96300000D03*
X140050000Y-87100000D03*
X140050000Y-85550000D03*
%LPD*%
M02*
