%TF.GenerationSoftware,KiCad,Pcbnew,(7.0.0)*%
%TF.CreationDate,2023-10-03T11:42:16+02:00*%
%TF.ProjectId,Lichten-PCB,4c696368-7465-46e2-9d50-43422e6b6963,rev?*%
%TF.SameCoordinates,Original*%
%TF.FileFunction,Legend,Bot*%
%TF.FilePolarity,Positive*%
%FSLAX46Y46*%
G04 Gerber Fmt 4.6, Leading zero omitted, Abs format (unit mm)*
G04 Created by KiCad (PCBNEW (7.0.0)) date 2023-10-03 11:42:16*
%MOMM*%
%LPD*%
G01*
G04 APERTURE LIST*
G04 APERTURE END LIST*
%TO.C,G\u002A\u002A\u002A*%
G36*
X159029730Y-84988919D02*
G01*
X158961081Y-85057568D01*
X158892433Y-84988919D01*
X158961081Y-84920270D01*
X159029730Y-84988919D01*
G37*
G36*
X158068649Y-98444054D02*
G01*
X158000000Y-98512703D01*
X157931352Y-98444054D01*
X158000000Y-98375405D01*
X158068649Y-98444054D01*
G37*
G36*
X157931352Y-86911081D02*
G01*
X157862703Y-86979730D01*
X157794054Y-86911081D01*
X157862703Y-86842432D01*
X157931352Y-86911081D01*
G37*
G36*
X157382162Y-83341351D02*
G01*
X157313514Y-83410000D01*
X157244865Y-83341351D01*
X157313514Y-83272703D01*
X157382162Y-83341351D01*
G37*
G36*
X155871892Y-105583513D02*
G01*
X155803243Y-105652162D01*
X155734595Y-105583513D01*
X155803243Y-105514865D01*
X155871892Y-105583513D01*
G37*
G36*
X154498919Y-101190000D02*
G01*
X154430270Y-101258649D01*
X154361622Y-101190000D01*
X154430270Y-101121351D01*
X154498919Y-101190000D01*
G37*
G36*
X153263243Y-82792162D02*
G01*
X153194595Y-82860811D01*
X153125946Y-82792162D01*
X153194595Y-82723513D01*
X153263243Y-82792162D01*
G37*
G36*
X149968108Y-86773784D02*
G01*
X149899460Y-86842432D01*
X149830811Y-86773784D01*
X149899460Y-86705135D01*
X149968108Y-86773784D01*
G37*
G36*
X149281622Y-107505676D02*
G01*
X149212973Y-107574324D01*
X149144325Y-107505676D01*
X149212973Y-107437027D01*
X149281622Y-107505676D01*
G37*
G36*
X146261081Y-101601892D02*
G01*
X146192433Y-101670540D01*
X146123784Y-101601892D01*
X146192433Y-101533243D01*
X146261081Y-101601892D01*
G37*
G36*
X145849189Y-101601892D02*
G01*
X145780541Y-101670540D01*
X145711892Y-101601892D01*
X145780541Y-101533243D01*
X145849189Y-101601892D01*
G37*
G36*
X144888108Y-96247297D02*
G01*
X144819460Y-96315946D01*
X144750811Y-96247297D01*
X144819460Y-96178649D01*
X144888108Y-96247297D01*
G37*
G36*
X144201622Y-101327297D02*
G01*
X144132973Y-101395946D01*
X144064325Y-101327297D01*
X144132973Y-101258649D01*
X144201622Y-101327297D01*
G37*
G36*
X135140000Y-81556486D02*
G01*
X135071352Y-81625135D01*
X135002703Y-81556486D01*
X135071352Y-81487838D01*
X135140000Y-81556486D01*
G37*
G36*
X134728108Y-86773784D02*
G01*
X134659460Y-86842432D01*
X134590811Y-86773784D01*
X134659460Y-86705135D01*
X134728108Y-86773784D01*
G37*
G36*
X134041622Y-80458108D02*
G01*
X133972973Y-80526757D01*
X133904325Y-80458108D01*
X133972973Y-80389459D01*
X134041622Y-80458108D01*
G37*
G36*
X133492433Y-82105676D02*
G01*
X133423784Y-82174324D01*
X133355135Y-82105676D01*
X133423784Y-82037027D01*
X133492433Y-82105676D01*
G37*
G36*
X133217838Y-110114324D02*
G01*
X133149189Y-110182973D01*
X133080541Y-110114324D01*
X133149189Y-110045676D01*
X133217838Y-110114324D01*
G37*
G36*
X130334595Y-86636486D02*
G01*
X130265946Y-86705135D01*
X130197297Y-86636486D01*
X130265946Y-86567838D01*
X130334595Y-86636486D01*
G37*
G36*
X130197297Y-82792162D02*
G01*
X130128649Y-82860811D01*
X130060000Y-82792162D01*
X130128649Y-82723513D01*
X130197297Y-82792162D01*
G37*
G36*
X129922703Y-82517568D02*
G01*
X129854054Y-82586216D01*
X129785406Y-82517568D01*
X129854054Y-82448919D01*
X129922703Y-82517568D01*
G37*
G36*
X158643581Y-91279453D02*
G01*
X158707132Y-91328873D01*
X158560631Y-91362404D01*
X158421375Y-91352696D01*
X158380428Y-91290293D01*
X158429002Y-91263086D01*
X158643581Y-91279453D01*
G37*
G36*
X156695676Y-101807838D02*
G01*
X156685767Y-101880523D01*
X156604144Y-101899369D01*
X156587713Y-101879246D01*
X156604144Y-101716306D01*
X156645441Y-101694827D01*
X156695676Y-101807838D01*
G37*
G36*
X156695676Y-100984054D02*
G01*
X156685767Y-101056739D01*
X156604144Y-101075586D01*
X156587713Y-101055462D01*
X156604144Y-100892522D01*
X156645441Y-100871043D01*
X156695676Y-100984054D01*
G37*
G36*
X156512613Y-102128198D02*
G01*
X156534093Y-102169495D01*
X156421081Y-102219730D01*
X156348397Y-102209821D01*
X156329550Y-102128198D01*
X156349673Y-102111766D01*
X156512613Y-102128198D01*
G37*
G36*
X156272945Y-107768829D02*
G01*
X156263237Y-107908084D01*
X156200834Y-107949031D01*
X156173626Y-107900457D01*
X156189994Y-107685878D01*
X156239414Y-107622328D01*
X156272945Y-107768829D01*
G37*
G36*
X154224325Y-81213243D02*
G01*
X154214416Y-81285928D01*
X154132793Y-81304775D01*
X154116361Y-81284651D01*
X154132793Y-81121712D01*
X154174090Y-81100232D01*
X154224325Y-81213243D01*
G37*
G36*
X151650000Y-81946098D02*
G01*
X151673290Y-81993772D01*
X151478379Y-82015348D01*
X151289509Y-81996210D01*
X151306757Y-81946098D01*
X151368905Y-81927964D01*
X151650000Y-81946098D01*
G37*
G36*
X145874933Y-101164859D02*
G01*
X145938483Y-101214279D01*
X145791982Y-101247809D01*
X145652727Y-101238101D01*
X145611779Y-101175698D01*
X145660353Y-101148491D01*
X145874933Y-101164859D01*
G37*
G36*
X144293153Y-101029820D02*
G01*
X144314633Y-101071116D01*
X144201622Y-101121351D01*
X144128937Y-101111443D01*
X144110090Y-101029820D01*
X144130214Y-101013388D01*
X144293153Y-101029820D01*
G37*
G36*
X137702883Y-80160631D02*
G01*
X137724363Y-80201927D01*
X137611352Y-80252162D01*
X137538667Y-80242254D01*
X137519820Y-80160631D01*
X137539943Y-80144199D01*
X137702883Y-80160631D01*
G37*
G36*
X134133153Y-81670901D02*
G01*
X134154633Y-81712197D01*
X134041622Y-81762432D01*
X133968937Y-81752524D01*
X133950090Y-81670901D01*
X133970214Y-81654469D01*
X134133153Y-81670901D01*
G37*
G36*
X133858559Y-82631982D02*
G01*
X133880038Y-82673279D01*
X133767027Y-82723513D01*
X133694342Y-82713605D01*
X133675496Y-82631982D01*
X133695619Y-82615550D01*
X133858559Y-82631982D01*
G37*
G36*
X132394054Y-83272703D02*
G01*
X132384146Y-83345387D01*
X132302523Y-83364234D01*
X132286091Y-83344111D01*
X132302523Y-83181171D01*
X132343819Y-83159691D01*
X132394054Y-83272703D01*
G37*
G36*
X130014234Y-83043874D02*
G01*
X130035714Y-83085170D01*
X129922703Y-83135405D01*
X129850018Y-83125497D01*
X129831171Y-83043874D01*
X129851295Y-83027442D01*
X130014234Y-83043874D01*
G37*
G36*
X135720981Y-81602007D02*
G01*
X135727351Y-81608478D01*
X135752833Y-81693226D01*
X135540886Y-81662039D01*
X135363952Y-81587718D01*
X135395825Y-81516977D01*
X135483632Y-81505222D01*
X135720981Y-81602007D01*
G37*
G36*
X135322865Y-116880990D02*
G01*
X135340083Y-117057325D01*
X135304132Y-117109992D01*
X135185248Y-117169458D01*
X135140000Y-116971086D01*
X135160137Y-116873106D01*
X135279537Y-116843276D01*
X135322865Y-116880990D01*
G37*
G36*
X134991225Y-116890169D02*
G01*
X134955325Y-117110565D01*
X134862434Y-117290296D01*
X134797276Y-117282915D01*
X134827048Y-117042392D01*
X134886273Y-116885263D01*
X134968453Y-116830525D01*
X134991225Y-116890169D01*
G37*
G36*
X158506633Y-93585490D02*
G01*
X158617838Y-93707297D01*
X158594603Y-93770458D01*
X158411892Y-93844595D01*
X158317151Y-93829105D01*
X158205946Y-93707297D01*
X158229181Y-93644137D01*
X158411892Y-93570000D01*
X158506633Y-93585490D01*
G37*
G36*
X157604628Y-83951085D02*
G01*
X157828379Y-84118266D01*
X157892570Y-84190212D01*
X157973105Y-84344733D01*
X157861889Y-84346695D01*
X157593551Y-84186093D01*
X157460228Y-84051456D01*
X157464336Y-83933277D01*
X157604628Y-83951085D01*
G37*
G36*
X156333013Y-105732357D02*
G01*
X156448335Y-105793995D01*
X156558379Y-105941446D01*
X156554014Y-106001492D01*
X156474681Y-106045381D01*
X156281175Y-105854965D01*
X156247997Y-105814296D01*
X156184791Y-105697152D01*
X156333013Y-105732357D01*
G37*
G36*
X156322539Y-102772849D02*
G01*
X156421081Y-102906216D01*
X156394885Y-102971831D01*
X156207032Y-103043513D01*
X156108963Y-103023756D01*
X156077838Y-102906216D01*
X156105940Y-102868720D01*
X156291887Y-102768919D01*
X156322539Y-102772849D01*
G37*
G36*
X153467522Y-83154922D02*
G01*
X153609571Y-83206655D01*
X153778172Y-83375676D01*
X153791679Y-83514075D01*
X153672818Y-83516932D01*
X153434768Y-83326544D01*
X153341559Y-83230472D01*
X153296205Y-83137774D01*
X153467522Y-83154922D01*
G37*
G36*
X151692258Y-87397800D02*
G01*
X151821622Y-87528919D01*
X151847195Y-87577529D01*
X151837828Y-87666216D01*
X151813688Y-87660038D01*
X151684325Y-87528919D01*
X151658751Y-87480308D01*
X151668119Y-87391622D01*
X151692258Y-87397800D01*
G37*
G36*
X143597705Y-99480102D02*
G01*
X143721081Y-99611081D01*
X143742534Y-99664265D01*
X143660536Y-99748378D01*
X143620683Y-99743102D01*
X143515135Y-99611081D01*
X143516709Y-99580009D01*
X143575681Y-99473784D01*
X143597705Y-99480102D01*
G37*
G36*
X130793686Y-84176181D02*
G01*
X130971342Y-84275576D01*
X130988201Y-84326150D01*
X130846121Y-84371081D01*
X130737538Y-84357371D01*
X130547990Y-84245836D01*
X130535483Y-84216165D01*
X130609213Y-84153625D01*
X130793686Y-84176181D01*
G37*
G36*
X130554462Y-86711453D02*
G01*
X130677838Y-86842432D01*
X130699291Y-86895616D01*
X130617292Y-86979730D01*
X130577440Y-86974454D01*
X130471892Y-86842432D01*
X130473466Y-86811361D01*
X130532438Y-86705135D01*
X130554462Y-86711453D01*
G37*
G36*
X130087300Y-83845263D02*
G01*
X130197297Y-84023529D01*
X130168479Y-84125041D01*
X129991352Y-84146137D01*
X129894668Y-84094591D01*
X129785406Y-83944500D01*
X129808528Y-83888225D01*
X129991352Y-83821892D01*
X130087300Y-83845263D01*
G37*
G36*
X156726999Y-99817027D02*
G01*
X156822370Y-100018091D01*
X156905649Y-100329515D01*
X156883989Y-100483611D01*
X156741204Y-100415677D01*
X156624466Y-100232682D01*
X156562554Y-99903189D01*
X156569179Y-99703414D01*
X156610637Y-99641446D01*
X156726999Y-99817027D01*
G37*
G36*
X142188482Y-116170658D02*
G01*
X142373467Y-116439445D01*
X142454790Y-116632195D01*
X142441390Y-116751683D01*
X142249179Y-116747293D01*
X142071419Y-116672088D01*
X141915763Y-116395676D01*
X141913524Y-116221348D01*
X142013815Y-116095917D01*
X142188482Y-116170658D01*
G37*
G36*
X135437731Y-104223870D02*
G01*
X135520295Y-104398777D01*
X135486177Y-104663331D01*
X135451001Y-104749099D01*
X135372692Y-104816366D01*
X135253837Y-104643525D01*
X135191035Y-104490474D01*
X135247574Y-104253994D01*
X135286800Y-104221497D01*
X135437731Y-104223870D01*
G37*
G36*
X134880107Y-80828968D02*
G01*
X135071352Y-80938649D01*
X135085263Y-80965593D01*
X135040449Y-81060829D01*
X134845956Y-81051847D01*
X134590811Y-80938649D01*
X134544619Y-80907507D01*
X134489821Y-80825280D01*
X134685681Y-80803454D01*
X134880107Y-80828968D01*
G37*
G36*
X133273193Y-110375717D02*
G01*
X133440332Y-110549823D01*
X133441328Y-110763790D01*
X133260000Y-110902822D01*
X133114611Y-110916920D01*
X132890688Y-110854979D01*
X132856432Y-110817565D01*
X132828974Y-110604069D01*
X132960127Y-110407007D01*
X133181522Y-110346024D01*
X133273193Y-110375717D01*
G37*
G36*
X154239719Y-80030357D02*
G01*
X154369448Y-80206943D01*
X154270090Y-80435225D01*
X154125243Y-80504670D01*
X153916661Y-80524593D01*
X153812433Y-80469337D01*
X153801789Y-80413609D01*
X153729095Y-80194743D01*
X153718503Y-80164165D01*
X153750451Y-80018386D01*
X154003689Y-79977568D01*
X154239719Y-80030357D01*
G37*
G36*
X147025020Y-101484588D02*
G01*
X147149205Y-101876486D01*
X147158635Y-101916618D01*
X147096014Y-102059227D01*
X146910428Y-102059667D01*
X146701137Y-101910422D01*
X146635580Y-101753327D01*
X146749196Y-101477455D01*
X146762958Y-101458557D01*
X146873236Y-101316863D01*
X146946810Y-101311793D01*
X147025020Y-101484588D01*
G37*
G36*
X135136321Y-111251525D02*
G01*
X135172515Y-111258081D01*
X135505908Y-111394755D01*
X135853760Y-111631371D01*
X136127455Y-111897786D01*
X136238379Y-112123857D01*
X136237838Y-112135600D01*
X136126559Y-112235091D01*
X135898438Y-112206429D01*
X135664672Y-112061667D01*
X135429903Y-111864745D01*
X135105676Y-111633985D01*
X134942035Y-111519945D01*
X134753464Y-111330082D01*
X134818336Y-111239236D01*
X135136321Y-111251525D01*
G37*
G36*
X138328412Y-115928716D02*
G01*
X138369000Y-116125375D01*
X138345743Y-116180427D01*
X138226464Y-116203209D01*
X138011802Y-116372793D01*
X137782389Y-116543279D01*
X137508379Y-116632893D01*
X137409038Y-116622142D01*
X137402324Y-116545757D01*
X137611352Y-116361351D01*
X137619841Y-116354732D01*
X137884599Y-116168635D01*
X138047501Y-116089810D01*
X138104000Y-116051897D01*
X138190350Y-115846486D01*
X138205380Y-115782694D01*
X138256390Y-115728063D01*
X138328412Y-115928716D01*
G37*
G36*
X160677297Y-83461101D02*
G01*
X160677080Y-83495505D01*
X160625953Y-83846677D01*
X160479454Y-83959189D01*
X160280806Y-83905311D01*
X160190378Y-83766816D01*
X160298874Y-83638512D01*
X160361712Y-83593071D01*
X160231081Y-83558136D01*
X160102949Y-83578385D01*
X159990811Y-83715105D01*
X159989701Y-83728410D01*
X159893521Y-83741031D01*
X159689520Y-83581622D01*
X159501183Y-83370588D01*
X159477735Y-83229719D01*
X159666913Y-83137634D01*
X160098938Y-83055496D01*
X160677297Y-82963013D01*
X160677297Y-83461101D01*
G37*
G36*
X136911777Y-80312911D02*
G01*
X137377899Y-80490550D01*
X137817297Y-80728938D01*
X137452638Y-80773019D01*
X137187647Y-80862341D01*
X137005022Y-81147622D01*
X136992680Y-81190327D01*
X136828845Y-81387935D01*
X136572297Y-81351525D01*
X136262521Y-81084454D01*
X136166800Y-80987453D01*
X136167651Y-81041622D01*
X136203211Y-81132130D01*
X136167332Y-81212759D01*
X136029982Y-81143010D01*
X135862567Y-80945402D01*
X135785851Y-80753426D01*
X135849096Y-80502890D01*
X136093649Y-80335208D01*
X136465785Y-80266506D01*
X136911777Y-80312911D01*
G37*
G36*
X144495649Y-100326586D02*
G01*
X144613514Y-100411664D01*
X144707462Y-100540172D01*
X144956757Y-100709459D01*
X145189090Y-100898402D01*
X145300000Y-101136449D01*
X145320151Y-101269598D01*
X145451956Y-101473654D01*
X145522376Y-101549716D01*
X145417631Y-101685600D01*
X145043492Y-101798265D01*
X144629816Y-101683521D01*
X144569961Y-101637544D01*
X144468692Y-101473668D01*
X144403703Y-101173157D01*
X144356441Y-100667032D01*
X144323843Y-100540261D01*
X144211109Y-100497650D01*
X144161603Y-100516307D01*
X143997060Y-100437104D01*
X144026767Y-100341602D01*
X144262168Y-100297568D01*
X144495649Y-100326586D01*
G37*
G36*
X139096321Y-113104883D02*
G01*
X139145924Y-113226912D01*
X139321622Y-113340811D01*
X139449973Y-113389129D01*
X139570231Y-113609735D01*
X139576604Y-113909900D01*
X139451888Y-114178934D01*
X139346268Y-114329215D01*
X139214571Y-114709143D01*
X139131082Y-115297297D01*
X139047974Y-115403608D01*
X138877489Y-115331469D01*
X138700545Y-115108513D01*
X138615667Y-114817804D01*
X138723694Y-114481746D01*
X138780658Y-114369186D01*
X138830389Y-114159321D01*
X138713047Y-114029347D01*
X138544051Y-113857978D01*
X138525782Y-113548773D01*
X138756788Y-113184632D01*
X138921710Y-113018753D01*
X139041239Y-112967663D01*
X139096321Y-113104883D01*
G37*
G36*
X134728860Y-81562393D02*
G01*
X134821581Y-81687961D01*
X134826343Y-81716012D01*
X134989391Y-81813269D01*
X135314497Y-81873865D01*
X135418685Y-81885038D01*
X135687990Y-81949234D01*
X135760755Y-82032307D01*
X135713534Y-82067971D01*
X135468030Y-82125160D01*
X135108972Y-82149664D01*
X134732935Y-82141693D01*
X134436492Y-82101457D01*
X134316216Y-82029165D01*
X134342353Y-81967375D01*
X134530265Y-81899730D01*
X134628246Y-81879593D01*
X134658076Y-81760193D01*
X134620362Y-81716865D01*
X134444027Y-81699647D01*
X134399494Y-81718549D01*
X134316216Y-81641771D01*
X134364221Y-81567075D01*
X134581310Y-81524872D01*
X134728860Y-81562393D01*
G37*
G36*
X132943243Y-82465125D02*
G01*
X132932665Y-82511291D01*
X132805946Y-82517568D01*
X132753644Y-82495139D01*
X132668649Y-82563229D01*
X132582509Y-82671085D01*
X132325406Y-82779894D01*
X132246741Y-82802689D01*
X132037210Y-82956981D01*
X131982162Y-83275318D01*
X131982398Y-83305399D01*
X132040843Y-83598614D01*
X132222433Y-83686697D01*
X132253212Y-83687141D01*
X132382976Y-83715492D01*
X132256757Y-83821892D01*
X132111318Y-83906607D01*
X131892176Y-83932727D01*
X131656081Y-83750791D01*
X131504503Y-83636387D01*
X131286945Y-83579170D01*
X131186856Y-83552542D01*
X131082554Y-83353614D01*
X131077476Y-83330300D01*
X130925888Y-83061490D01*
X130652424Y-82782407D01*
X130593363Y-82733709D01*
X130383962Y-82524771D01*
X130334595Y-82404491D01*
X130490932Y-82372205D01*
X130817649Y-82409178D01*
X131203315Y-82499978D01*
X131543741Y-82619455D01*
X131734737Y-82742459D01*
X131844056Y-82852960D01*
X131935408Y-82757838D01*
X131973589Y-82694659D01*
X132182738Y-82586216D01*
X132302495Y-82555105D01*
X132530097Y-82381782D01*
X132657381Y-82276970D01*
X132854493Y-82273369D01*
X132943243Y-82465125D01*
G37*
G36*
X154089290Y-83366575D02*
G01*
X154395946Y-83501136D01*
X154511505Y-83558342D01*
X154796666Y-83751002D01*
X154910811Y-83915970D01*
X154922039Y-83987269D01*
X155048108Y-84096486D01*
X155089339Y-84103530D01*
X155185406Y-84248473D01*
X155163294Y-84311688D01*
X154999664Y-84329184D01*
X154877215Y-84336827D01*
X154846554Y-84555174D01*
X154852307Y-84630890D01*
X154810736Y-84775658D01*
X154630061Y-84836981D01*
X154242836Y-84847521D01*
X154071115Y-84852262D01*
X153635388Y-84913214D01*
X153331892Y-85022790D01*
X153218383Y-85092294D01*
X153072971Y-85106916D01*
X153009514Y-84894489D01*
X153012826Y-84691958D01*
X153113342Y-84535462D01*
X153162150Y-84509247D01*
X153187347Y-84359354D01*
X153169038Y-84316907D01*
X153243699Y-84233784D01*
X153298920Y-84246324D01*
X153447295Y-84405405D01*
X153519646Y-84504687D01*
X153642940Y-84398158D01*
X153715197Y-84318335D01*
X153893663Y-84242795D01*
X154045666Y-84260277D01*
X154267069Y-84219811D01*
X154292973Y-84096486D01*
X154153476Y-84007489D01*
X153856167Y-83959189D01*
X153745594Y-83956557D01*
X153594845Y-83907752D01*
X153663372Y-83767417D01*
X153812072Y-83667794D01*
X154126400Y-83647278D01*
X154308419Y-83686447D01*
X154342385Y-83655382D01*
X154155676Y-83492865D01*
X154103428Y-83449440D01*
X154001405Y-83349674D01*
X154089290Y-83366575D01*
G37*
G36*
X160677297Y-81152306D02*
G01*
X160677297Y-82174324D01*
X160137657Y-82174324D01*
X159823011Y-82157662D01*
X159627338Y-82069276D01*
X159554144Y-81865405D01*
X159515761Y-81718649D01*
X159396139Y-81607735D01*
X159134454Y-81548838D01*
X158664440Y-81515929D01*
X158516493Y-81508972D01*
X158112972Y-81500919D01*
X157894224Y-81542362D01*
X157789637Y-81661162D01*
X157728602Y-81885179D01*
X157599013Y-82189749D01*
X157407405Y-82356025D01*
X157284389Y-82387128D01*
X157073243Y-82432992D01*
X157050059Y-82404785D01*
X157009121Y-82172316D01*
X156980830Y-81755066D01*
X156970270Y-81213243D01*
X156970270Y-79977568D01*
X157382162Y-79977568D01*
X157563489Y-79982975D01*
X157722138Y-80045049D01*
X157783650Y-80236428D01*
X157793867Y-80629730D01*
X157793680Y-81281892D01*
X158568994Y-81233702D01*
X158897202Y-81202315D01*
X159149297Y-81144510D01*
X159151715Y-81136454D01*
X159703959Y-81136454D01*
X159776890Y-81167568D01*
X160059460Y-81178619D01*
X160209200Y-81175058D01*
X160374224Y-81152306D01*
X160298129Y-81116138D01*
X160078650Y-81093335D01*
X159748940Y-81118909D01*
X159703959Y-81136454D01*
X159151715Y-81136454D01*
X159169429Y-81077430D01*
X159069404Y-80923978D01*
X159151135Y-80746772D01*
X159381076Y-80664054D01*
X159509981Y-80593058D01*
X159578919Y-80320811D01*
X159579115Y-80290919D01*
X159617009Y-80084671D01*
X159774275Y-79996302D01*
X160128108Y-79977568D01*
X160677297Y-79977568D01*
X160677297Y-81075946D01*
X160677297Y-81152306D01*
G37*
G36*
X153880304Y-108054865D02*
G01*
X154012469Y-108398108D01*
X154085643Y-108659126D01*
X154175822Y-108981622D01*
X154193607Y-109071946D01*
X154140676Y-109209305D01*
X153976425Y-109159166D01*
X153760175Y-108929034D01*
X153582913Y-108752023D01*
X153271849Y-108710234D01*
X153098951Y-108734183D01*
X152988649Y-108682732D01*
X152987402Y-108675128D01*
X152846278Y-108608384D01*
X152542433Y-108580741D01*
X152431711Y-108577878D01*
X151950508Y-108511327D01*
X151510977Y-108378303D01*
X151190507Y-108207753D01*
X151084653Y-108054865D01*
X152576757Y-108054865D01*
X152645406Y-108123513D01*
X152714054Y-108054865D01*
X152645406Y-107986216D01*
X152576757Y-108054865D01*
X151084653Y-108054865D01*
X151066487Y-108028628D01*
X151112222Y-107906448D01*
X151296911Y-107869132D01*
X151684325Y-107910391D01*
X152059650Y-107951315D01*
X152252100Y-107917507D01*
X152302162Y-107793513D01*
X152237097Y-107627441D01*
X152009019Y-107427100D01*
X151845514Y-107301043D01*
X151860018Y-107181129D01*
X151911944Y-107120970D01*
X151880536Y-106939032D01*
X151712319Y-106761675D01*
X151478379Y-106681892D01*
X151382116Y-106654333D01*
X151319777Y-106475946D01*
X151357674Y-106305218D01*
X151416122Y-105926309D01*
X151384454Y-105687629D01*
X151256766Y-105497554D01*
X151083988Y-105363694D01*
X150865358Y-105326069D01*
X150806704Y-105341299D01*
X150649606Y-105262287D01*
X150612915Y-105024464D01*
X150715439Y-104705664D01*
X150804463Y-104552791D01*
X150928601Y-104474942D01*
X151102698Y-104609609D01*
X151257022Y-104741940D01*
X151434247Y-104832403D01*
X151604432Y-104906762D01*
X151869987Y-105122750D01*
X152138857Y-105403809D01*
X152337665Y-105672081D01*
X152393032Y-105849710D01*
X152374774Y-105929239D01*
X152433603Y-106150297D01*
X152457355Y-106182319D01*
X152578774Y-106432264D01*
X152712453Y-106798006D01*
X152842095Y-107130842D01*
X152990124Y-107267404D01*
X153223465Y-107260607D01*
X153439656Y-107237587D01*
X153520292Y-107333468D01*
X153483266Y-107625034D01*
X153473099Y-107681287D01*
X153457972Y-107893666D01*
X153515825Y-107876744D01*
X153531249Y-107854866D01*
X153687350Y-107802115D01*
X153856067Y-107991919D01*
X153880304Y-108054865D01*
G37*
G36*
X147721201Y-79998632D02*
G01*
X148536452Y-80004711D01*
X149222203Y-80015639D01*
X149742182Y-80030513D01*
X150060115Y-80048433D01*
X150139730Y-80068497D01*
X150071918Y-80111779D01*
X149968108Y-80332252D01*
X149975917Y-80379089D01*
X150139505Y-80491593D01*
X150538577Y-80526757D01*
X150742590Y-80527721D01*
X150977380Y-80549393D01*
X151002220Y-80628256D01*
X150860541Y-80801351D01*
X150743753Y-80972867D01*
X150778429Y-81074859D01*
X150968870Y-81041806D01*
X151264350Y-80865633D01*
X151404259Y-80776727D01*
X151652170Y-80679909D01*
X151827563Y-80671698D01*
X151842835Y-80767027D01*
X151839254Y-80774876D01*
X151934639Y-80847613D01*
X152212300Y-80886637D01*
X152393769Y-80895012D01*
X152882630Y-80943974D01*
X153132841Y-81028085D01*
X153171619Y-81154959D01*
X153181221Y-81263675D01*
X153358326Y-81411400D01*
X153482766Y-81469975D01*
X153486727Y-81556115D01*
X153263243Y-81698847D01*
X153040702Y-81799281D01*
X152689829Y-81883290D01*
X152413936Y-81872973D01*
X152302162Y-81762432D01*
X152298012Y-81744414D01*
X152139245Y-81659619D01*
X151821622Y-81625135D01*
X151481141Y-81587425D01*
X151331124Y-81425822D01*
X151337832Y-81075946D01*
X151339908Y-81056353D01*
X151280024Y-81010101D01*
X151087980Y-81190155D01*
X150818351Y-81408304D01*
X150405639Y-81468018D01*
X150072733Y-81491067D01*
X149764790Y-81622954D01*
X149491579Y-81736516D01*
X149039145Y-81789745D01*
X148528954Y-81773781D01*
X148068206Y-81692537D01*
X147764103Y-81549927D01*
X147584175Y-81444351D01*
X147311824Y-81430124D01*
X147176469Y-81448698D01*
X147002684Y-81296137D01*
X146908424Y-81173214D01*
X146643595Y-81075946D01*
X146479871Y-81043010D01*
X146442066Y-80885540D01*
X146442944Y-80762573D01*
X146250809Y-80764256D01*
X146094679Y-80776311D01*
X145986487Y-80685359D01*
X145963991Y-80639035D01*
X145756752Y-80509744D01*
X145402973Y-80389754D01*
X145074079Y-80303176D01*
X144757255Y-80203400D01*
X144627224Y-80127398D01*
X144698610Y-80072133D01*
X144986038Y-80034568D01*
X145504131Y-80011665D01*
X146267514Y-80000388D01*
X147290811Y-79997699D01*
X147721201Y-79998632D01*
G37*
G36*
X158428850Y-85014424D02*
G01*
X158467507Y-85032822D01*
X158589141Y-85221612D01*
X158594039Y-85609567D01*
X158582566Y-85767194D01*
X158606887Y-86019975D01*
X158718775Y-86055909D01*
X158809890Y-85983248D01*
X158892433Y-85737468D01*
X158933409Y-85516194D01*
X159086347Y-85400162D01*
X159293192Y-85524694D01*
X159354502Y-85576670D01*
X159654109Y-85709682D01*
X160062496Y-85805981D01*
X160674522Y-85897760D01*
X160667926Y-89527934D01*
X160667342Y-89762858D01*
X160657935Y-90980675D01*
X160638345Y-91930786D01*
X160608641Y-92611513D01*
X160568890Y-93021180D01*
X160519162Y-93158108D01*
X160422737Y-93106282D01*
X160305187Y-92883513D01*
X160227863Y-92723949D01*
X160043446Y-92608919D01*
X159963771Y-92597558D01*
X159853514Y-92486506D01*
X159767293Y-92383950D01*
X159510270Y-92277944D01*
X159283524Y-92187251D01*
X159167027Y-92057114D01*
X159143813Y-91995183D01*
X158961081Y-91922432D01*
X158866340Y-91906942D01*
X158755135Y-91785135D01*
X158826771Y-91681208D01*
X159083162Y-91655363D01*
X159460409Y-91738561D01*
X159889374Y-91922432D01*
X160271477Y-92114002D01*
X160483910Y-92183361D01*
X160471348Y-92102549D01*
X160231081Y-91871966D01*
X160182241Y-91828908D01*
X159948573Y-91586517D01*
X159853514Y-91421694D01*
X159853059Y-91415611D01*
X159726025Y-91282968D01*
X159441622Y-91140676D01*
X159157406Y-90977930D01*
X159029730Y-90698683D01*
X158991359Y-90527108D01*
X158838308Y-90412162D01*
X158720337Y-90348507D01*
X158666687Y-90090762D01*
X158733945Y-89858946D01*
X158928897Y-89832741D01*
X159060874Y-89883242D01*
X159260338Y-90040175D01*
X159269875Y-90116834D01*
X159090762Y-90084994D01*
X159005585Y-90063864D01*
X159017134Y-90148263D01*
X159239861Y-90395371D01*
X159351823Y-90501602D01*
X159580329Y-90671896D01*
X159691683Y-90682173D01*
X159776445Y-90641075D01*
X159994358Y-90720835D01*
X160172117Y-90799673D01*
X160347375Y-90787850D01*
X160385078Y-90691007D01*
X160281570Y-90503804D01*
X160039123Y-90337948D01*
X159733729Y-90258938D01*
X159707563Y-90257666D01*
X159526022Y-90229344D01*
X159613243Y-90180222D01*
X159740703Y-90132404D01*
X159850136Y-90024527D01*
X159806459Y-89961669D01*
X159583134Y-89809969D01*
X159256128Y-89642445D01*
X158922884Y-89506887D01*
X158680844Y-89451081D01*
X158591186Y-89435482D01*
X158480541Y-89304532D01*
X158540351Y-89229343D01*
X158789460Y-89263458D01*
X159015958Y-89323724D01*
X159407297Y-89375683D01*
X159599890Y-89417573D01*
X159716216Y-89554054D01*
X159753111Y-89644833D01*
X159956487Y-89723573D01*
X159988739Y-89723097D01*
X160117277Y-89694267D01*
X159990811Y-89586276D01*
X159860174Y-89456326D01*
X159968093Y-89332832D01*
X159990706Y-89317456D01*
X160036948Y-89216039D01*
X159830796Y-89128761D01*
X159594481Y-89079808D01*
X159201352Y-89041064D01*
X159013959Y-89005074D01*
X158926757Y-88885384D01*
X158928037Y-88866977D01*
X158815700Y-88691173D01*
X158549189Y-88490000D01*
X158504029Y-88462457D01*
X158254910Y-88259748D01*
X158171622Y-88094616D01*
X158174466Y-88041351D01*
X158060546Y-87940811D01*
X158010886Y-87930031D01*
X158000000Y-87803513D01*
X158093248Y-87727483D01*
X158359449Y-87666216D01*
X158508272Y-87638002D01*
X158549189Y-87528919D01*
X158440647Y-87447034D01*
X158163519Y-87387447D01*
X158068605Y-87384763D01*
X157955329Y-87351413D01*
X158088961Y-87251169D01*
X158163370Y-87214194D01*
X158594498Y-87110635D01*
X159113467Y-87095066D01*
X159578919Y-87174737D01*
X159787873Y-87222344D01*
X159816626Y-87177285D01*
X159623633Y-87048861D01*
X159220027Y-86901686D01*
X158764211Y-86810641D01*
X158382915Y-86808338D01*
X158159036Y-86840966D01*
X158089407Y-86802150D01*
X158225285Y-86638589D01*
X158292412Y-86563863D01*
X158358037Y-86415944D01*
X158271234Y-86244531D01*
X158005835Y-85969889D01*
X157894820Y-85857065D01*
X157622351Y-85533826D01*
X157470079Y-85282564D01*
X157441408Y-85188363D01*
X157479134Y-85079591D01*
X157715439Y-85111446D01*
X157954397Y-85134434D01*
X158133280Y-85064068D01*
X158202293Y-85009490D01*
X158428850Y-85014424D01*
G37*
G36*
X143005148Y-107231081D02*
G01*
X143018848Y-107233265D01*
X143320581Y-107157684D01*
X143375239Y-107139148D01*
X143816964Y-107072190D01*
X144313367Y-107093443D01*
X144531950Y-107128114D01*
X144781470Y-107201642D01*
X144854508Y-107336952D01*
X144826123Y-107521140D01*
X144814321Y-107597720D01*
X144771461Y-107842243D01*
X144818241Y-107956882D01*
X145011495Y-107921983D01*
X145057405Y-107908491D01*
X145263630Y-107911339D01*
X145258793Y-108082222D01*
X145042440Y-108413917D01*
X144860807Y-108660384D01*
X144768809Y-108876125D01*
X144750811Y-109153243D01*
X144727922Y-109249109D01*
X144552968Y-109359189D01*
X144379835Y-109398133D01*
X144250228Y-109586123D01*
X144293346Y-109705615D01*
X144343911Y-109845744D01*
X144397365Y-109907680D01*
X144538929Y-110015058D01*
X144674986Y-109968622D01*
X144847608Y-109737430D01*
X145098870Y-109290542D01*
X145164466Y-109172755D01*
X145604376Y-108572514D01*
X146171725Y-108120721D01*
X146404086Y-107965009D01*
X146696971Y-107704914D01*
X146765968Y-107519612D01*
X146749830Y-107423682D01*
X146843958Y-107183664D01*
X146909854Y-107063568D01*
X146764580Y-106946298D01*
X146614658Y-106808242D01*
X146535676Y-106467717D01*
X146498614Y-106139550D01*
X146371860Y-105717439D01*
X146289923Y-105454911D01*
X146337536Y-105264762D01*
X146369056Y-105238381D01*
X146481951Y-105034324D01*
X146567531Y-104659566D01*
X146724127Y-104395525D01*
X146908192Y-104340073D01*
X147137716Y-104390527D01*
X147498620Y-104416486D01*
X147694643Y-104426654D01*
X147841873Y-104523696D01*
X147840094Y-104794054D01*
X147798965Y-105060577D01*
X147763649Y-105205946D01*
X147760294Y-105211037D01*
X147719865Y-105366126D01*
X147715973Y-105386828D01*
X147599730Y-105594955D01*
X147584902Y-105615119D01*
X147522201Y-105848568D01*
X147496757Y-106210300D01*
X147496757Y-106722671D01*
X148481252Y-106821540D01*
X149465746Y-106920409D01*
X148996117Y-107119290D01*
X148926951Y-107148778D01*
X148672663Y-107275900D01*
X148636162Y-107375727D01*
X148784594Y-107508751D01*
X148853134Y-107560998D01*
X148949230Y-107683242D01*
X148877566Y-107824008D01*
X148614607Y-108059549D01*
X148497906Y-108170410D01*
X148171533Y-108583151D01*
X147910283Y-109044229D01*
X147897271Y-109073755D01*
X147711241Y-109536392D01*
X147644839Y-109796093D01*
X147698916Y-109838532D01*
X147874325Y-109649383D01*
X147906652Y-109607079D01*
X148327302Y-109073206D01*
X148646090Y-108713262D01*
X148911855Y-108477057D01*
X149173438Y-108314404D01*
X149209212Y-108296277D01*
X149494362Y-108180271D01*
X149646614Y-108168146D01*
X149629957Y-108253409D01*
X149468259Y-108450349D01*
X149220934Y-108679037D01*
X148966672Y-108868384D01*
X148784166Y-108947297D01*
X148772627Y-108947752D01*
X148619068Y-109072801D01*
X148551295Y-109341586D01*
X148578552Y-109640667D01*
X148710080Y-109856604D01*
X148861104Y-109936563D01*
X149061051Y-109943638D01*
X149109273Y-109926111D01*
X149087955Y-110025808D01*
X149076041Y-110059152D01*
X149155960Y-110270828D01*
X149415783Y-110544646D01*
X149514550Y-110630753D01*
X149727396Y-110847144D01*
X149784544Y-110961492D01*
X149779160Y-110977343D01*
X149810163Y-111182046D01*
X149910681Y-111563106D01*
X149947086Y-111682946D01*
X150060204Y-112055314D01*
X150238222Y-112593464D01*
X150424225Y-113112347D01*
X150597702Y-113546757D01*
X150642060Y-113657328D01*
X150770980Y-114109968D01*
X150810231Y-114490179D01*
X150809150Y-114514889D01*
X150868131Y-114816651D01*
X151019547Y-115058886D01*
X151203094Y-115174787D01*
X151358467Y-115097545D01*
X151387314Y-115078951D01*
X151493547Y-115191751D01*
X151615523Y-115486816D01*
X151637275Y-115550320D01*
X151850569Y-115986847D01*
X152112132Y-116332583D01*
X152130284Y-116350206D01*
X152349250Y-116598035D01*
X152439460Y-116767570D01*
X152449105Y-116848590D01*
X152523506Y-117107102D01*
X152525158Y-117111612D01*
X152523922Y-117169896D01*
X152457670Y-117216107D01*
X152300208Y-117251298D01*
X152025340Y-117276520D01*
X151606873Y-117292827D01*
X151018613Y-117301271D01*
X150234365Y-117302905D01*
X149227936Y-117298782D01*
X147973130Y-117289953D01*
X143338709Y-117253784D01*
X143063198Y-116884691D01*
X142988500Y-116766668D01*
X142806870Y-116337590D01*
X142687105Y-115854961D01*
X142672749Y-115757247D01*
X142643030Y-115368651D01*
X142707943Y-115115980D01*
X142890591Y-114889623D01*
X142936037Y-114840929D01*
X143219371Y-114362024D01*
X143402424Y-113742686D01*
X143462819Y-113091754D01*
X143378180Y-112518064D01*
X143281386Y-112258931D01*
X143156473Y-112082944D01*
X143022209Y-112115414D01*
X142937930Y-112158523D01*
X142742683Y-112095253D01*
X142460301Y-111819598D01*
X142400781Y-111757733D01*
X142304896Y-111682946D01*
X143129559Y-111682946D01*
X143138313Y-111760876D01*
X143309189Y-111830540D01*
X143422544Y-111808139D01*
X143488820Y-111682946D01*
X143470175Y-111642240D01*
X143309189Y-111535351D01*
X143271302Y-111541096D01*
X143129559Y-111682946D01*
X142304896Y-111682946D01*
X142023212Y-111463243D01*
X141477989Y-111129212D01*
X140836928Y-110800715D01*
X140511789Y-110643835D01*
X139999809Y-110375390D01*
X139607597Y-110142528D01*
X139400949Y-109982730D01*
X139222953Y-109818458D01*
X139146152Y-109773861D01*
X140838940Y-109773861D01*
X140865552Y-109958975D01*
X140987938Y-110020424D01*
X141274365Y-110037350D01*
X141501442Y-109954144D01*
X141506222Y-109949267D01*
X141603946Y-109705615D01*
X141530335Y-109466838D01*
X141323209Y-109359189D01*
X141195620Y-109387121D01*
X140974190Y-109550181D01*
X140838940Y-109773861D01*
X139146152Y-109773861D01*
X138884532Y-109621943D01*
X138668065Y-109484040D01*
X138446976Y-109184387D01*
X138282341Y-108875983D01*
X137973022Y-108618744D01*
X137617940Y-108601963D01*
X137443992Y-108628472D01*
X137336757Y-108544657D01*
X137251486Y-108448249D01*
X136993514Y-108398108D01*
X136880431Y-108395866D01*
X136688364Y-108348250D01*
X136701492Y-108200625D01*
X136911585Y-107903267D01*
X137070947Y-107607679D01*
X137074250Y-107574324D01*
X142828649Y-107574324D01*
X142830223Y-107605396D01*
X142889195Y-107711622D01*
X142911218Y-107705304D01*
X143034595Y-107574324D01*
X143056048Y-107521140D01*
X142974049Y-107437027D01*
X142934196Y-107442303D01*
X142828649Y-107574324D01*
X137074250Y-107574324D01*
X137101581Y-107298340D01*
X137101555Y-107231081D01*
X142279460Y-107231081D01*
X142348108Y-107299730D01*
X142416757Y-107231081D01*
X142348108Y-107162432D01*
X142279460Y-107231081D01*
X137101555Y-107231081D01*
X137101484Y-107051720D01*
X137225633Y-106716459D01*
X137340833Y-106502983D01*
X137562628Y-105911736D01*
X137734910Y-105215427D01*
X137826267Y-104528479D01*
X137851381Y-104251306D01*
X137972298Y-103714346D01*
X138170944Y-103423502D01*
X138441857Y-103388890D01*
X138581121Y-103400382D01*
X138879324Y-103330590D01*
X139184051Y-103190202D01*
X139404356Y-103025065D01*
X139449296Y-102881024D01*
X139442309Y-102825626D01*
X139587237Y-102768919D01*
X139725761Y-102728338D01*
X139934408Y-102528649D01*
X139988214Y-102439711D01*
X140060959Y-102384504D01*
X140078528Y-102586068D01*
X140093510Y-102781919D01*
X140160238Y-103085810D01*
X140153561Y-103202731D01*
X139987121Y-103499714D01*
X139655471Y-103886499D01*
X139535304Y-104011627D01*
X139203422Y-104401258D01*
X139057972Y-104703610D01*
X139079174Y-104988405D01*
X139247246Y-105325367D01*
X139309114Y-105409989D01*
X139644606Y-105712716D01*
X140126004Y-106033322D01*
X140665267Y-106322889D01*
X141174352Y-106532502D01*
X141565217Y-106613243D01*
X141769306Y-106651390D01*
X141946434Y-106796306D01*
X141988483Y-106870031D01*
X142182395Y-106984789D01*
X142231916Y-106987257D01*
X142607429Y-107061629D01*
X142840040Y-107202078D01*
X142842532Y-107205157D01*
X143005148Y-107231081D01*
G37*
G36*
X134369159Y-87734865D02*
G01*
X134420919Y-87769849D01*
X134633460Y-87793769D01*
X134728108Y-87675468D01*
X134675402Y-87583534D01*
X134453514Y-87460270D01*
X134294636Y-87360278D01*
X134178919Y-87102944D01*
X134180314Y-87043086D01*
X134241054Y-86906156D01*
X134444488Y-86974899D01*
X134717380Y-87092907D01*
X134937469Y-87060085D01*
X135109727Y-86808108D01*
X135147930Y-86731524D01*
X135237591Y-86611521D01*
X135268005Y-86734629D01*
X135280754Y-86827578D01*
X135453266Y-87073434D01*
X135764341Y-87171281D01*
X136135549Y-87111492D01*
X136488456Y-86884439D01*
X136745399Y-86720661D01*
X136970547Y-86780020D01*
X137087367Y-87082703D01*
X137124405Y-87263965D01*
X137240311Y-87417860D01*
X137495125Y-87533085D01*
X137954595Y-87652867D01*
X138336163Y-87758638D01*
X138702335Y-87900208D01*
X138884983Y-88024733D01*
X138950612Y-88078108D01*
X138994135Y-88113505D01*
X139277680Y-88101079D01*
X139630338Y-87907789D01*
X139696166Y-87808844D01*
X139666630Y-87573378D01*
X139501586Y-87350770D01*
X139260217Y-87246728D01*
X139214316Y-87237148D01*
X138979843Y-87082422D01*
X138717461Y-86800511D01*
X138381949Y-86361892D01*
X138717461Y-86653654D01*
X138799139Y-86723507D01*
X139287765Y-87074693D01*
X139642777Y-87192809D01*
X139870477Y-87080185D01*
X139916045Y-87021880D01*
X140064806Y-86943035D01*
X140285155Y-87062802D01*
X140599493Y-87196964D01*
X141001377Y-87254324D01*
X141129858Y-87259455D01*
X141395172Y-87327982D01*
X141444750Y-87446913D01*
X141249730Y-87578569D01*
X141081398Y-87701667D01*
X141068504Y-87863134D01*
X141254039Y-87940811D01*
X141365539Y-87967546D01*
X141546778Y-88155759D01*
X141600450Y-88244895D01*
X141790869Y-88315392D01*
X142165055Y-88280186D01*
X142565367Y-88252414D01*
X142936370Y-88367535D01*
X143000879Y-88415705D01*
X143006408Y-88419834D01*
X143099175Y-88475049D01*
X143000270Y-88352946D01*
X142910261Y-88235383D01*
X142828649Y-88049342D01*
X142895985Y-87987834D01*
X143141577Y-87978602D01*
X143479178Y-88035001D01*
X143814887Y-88139718D01*
X144054802Y-88275436D01*
X144132038Y-88337183D01*
X144411344Y-88466847D01*
X144649830Y-88471875D01*
X144743133Y-88352703D01*
X151203784Y-88352703D01*
X151209371Y-88390334D01*
X151349184Y-88490000D01*
X151398844Y-88479220D01*
X151409730Y-88352703D01*
X151381550Y-88311615D01*
X151264330Y-88215405D01*
X151250628Y-88218975D01*
X151203784Y-88352703D01*
X144743133Y-88352703D01*
X144750811Y-88342896D01*
X144701618Y-88203126D01*
X144520345Y-87965328D01*
X144413135Y-87853765D01*
X144365632Y-87742214D01*
X144520345Y-87690473D01*
X144584890Y-87669798D01*
X144727584Y-87519920D01*
X144732752Y-87340959D01*
X144582964Y-87254324D01*
X144571736Y-87253709D01*
X144568459Y-87178874D01*
X144754586Y-87017151D01*
X144761757Y-87012106D01*
X145094696Y-86731809D01*
X145420057Y-86393514D01*
X145475886Y-86329055D01*
X145687451Y-86118867D01*
X145800969Y-86061960D01*
X145804348Y-86165533D01*
X145752899Y-86470701D01*
X145652806Y-86896517D01*
X145573935Y-87242345D01*
X145515095Y-87635140D01*
X145521031Y-87861964D01*
X145527331Y-87875920D01*
X145711072Y-87976257D01*
X146015009Y-87949146D01*
X146329730Y-87802615D01*
X146501636Y-87719718D01*
X146829768Y-87609508D01*
X147165651Y-87523976D01*
X147377631Y-87501013D01*
X147420664Y-87474497D01*
X147446280Y-87283264D01*
X147445402Y-87269539D01*
X147511717Y-87108578D01*
X147771352Y-87097550D01*
X147984725Y-87122111D01*
X148471898Y-87152869D01*
X148984186Y-87162327D01*
X149422033Y-87149631D01*
X149685881Y-87113930D01*
X149849653Y-87160062D01*
X149961611Y-87460270D01*
X149964589Y-87475930D01*
X150048126Y-87738019D01*
X150222826Y-87855802D01*
X150580163Y-87893321D01*
X150599370Y-87894110D01*
X151128626Y-87934106D01*
X151645499Y-87998303D01*
X151874488Y-88027089D01*
X152390265Y-88016662D01*
X152729348Y-87887536D01*
X152851352Y-87651332D01*
X152873619Y-87506015D01*
X152980546Y-87391622D01*
X153143240Y-87453127D01*
X153194105Y-87690351D01*
X153062908Y-88067258D01*
X153059949Y-88073007D01*
X152947545Y-88352703D01*
X152915757Y-88431800D01*
X152879851Y-88627297D01*
X152862191Y-88723452D01*
X152879942Y-88840642D01*
X152933007Y-88826741D01*
X152994925Y-88771658D01*
X153252891Y-88730851D01*
X153604202Y-88761021D01*
X153940728Y-88848599D01*
X153983037Y-88874628D01*
X154154340Y-88980015D01*
X154228130Y-89049410D01*
X154353522Y-89107838D01*
X154494974Y-89173749D01*
X154811007Y-89233525D01*
X155074921Y-89216086D01*
X155185406Y-89108778D01*
X155189091Y-89060578D01*
X155275887Y-88996699D01*
X155527578Y-89086431D01*
X155757915Y-89242178D01*
X155870821Y-89432770D01*
X155928232Y-89545880D01*
X156180811Y-89537618D01*
X156390245Y-89486840D01*
X156592703Y-89452956D01*
X156648987Y-89438678D01*
X156694903Y-89280468D01*
X156591914Y-88999296D01*
X156359249Y-88660436D01*
X156333647Y-88629907D01*
X156140328Y-88369685D01*
X156116277Y-88204879D01*
X156243668Y-88039769D01*
X156378820Y-87924909D01*
X156563764Y-87896419D01*
X156854690Y-88020689D01*
X156962797Y-88083400D01*
X157230429Y-88389009D01*
X157256307Y-88813371D01*
X157264232Y-88890931D01*
X157383113Y-89108983D01*
X157610342Y-89510120D01*
X157681893Y-90111768D01*
X157506958Y-90784570D01*
X157419508Y-91003173D01*
X157295512Y-91388133D01*
X157255872Y-91636102D01*
X157256879Y-91647569D01*
X157265206Y-91942605D01*
X157258573Y-92334324D01*
X157246094Y-92529736D01*
X157198960Y-92685274D01*
X157107568Y-92608919D01*
X157063892Y-92548091D01*
X156992874Y-92540843D01*
X156972373Y-92780540D01*
X157008360Y-93039687D01*
X157106680Y-93158108D01*
X157110900Y-93158456D01*
X157172066Y-93302614D01*
X157190282Y-93689254D01*
X157172259Y-94104167D01*
X157164152Y-94290811D01*
X157131748Y-94877089D01*
X157115620Y-95286216D01*
X157101645Y-95640731D01*
X157077298Y-96481339D01*
X157062066Y-97299950D01*
X157059172Y-97495214D01*
X157041447Y-98164716D01*
X157014908Y-98718602D01*
X156982634Y-99103882D01*
X156947705Y-99267560D01*
X156854018Y-99296865D01*
X156618449Y-99227193D01*
X156387757Y-99070167D01*
X156283784Y-98894289D01*
X156216053Y-98713262D01*
X156000595Y-98439321D01*
X155730930Y-98202016D01*
X155504716Y-98100811D01*
X155432183Y-98109744D01*
X155338962Y-98203784D01*
X155344137Y-98239422D01*
X155328067Y-98429507D01*
X155190985Y-98394326D01*
X154918551Y-98131409D01*
X154810042Y-98017972D01*
X154543481Y-97782617D01*
X154368198Y-97688919D01*
X154302329Y-97638186D01*
X154391345Y-97417751D01*
X154392177Y-97416417D01*
X154491740Y-97166179D01*
X154388608Y-96974500D01*
X154264728Y-96910719D01*
X153904632Y-96837019D01*
X153415420Y-96795010D01*
X152884303Y-96787821D01*
X152398490Y-96818581D01*
X152045192Y-96890418D01*
X151824224Y-96937950D01*
X151555609Y-96872257D01*
X151406733Y-96806324D01*
X151043220Y-96721096D01*
X150576904Y-96656146D01*
X150381174Y-96636638D01*
X149732248Y-96562756D01*
X149278517Y-96484488D01*
X148956690Y-96383432D01*
X148703479Y-96241186D01*
X148455594Y-96039348D01*
X148284694Y-95898325D01*
X147965583Y-95694140D01*
X147727525Y-95614572D01*
X147634054Y-95686879D01*
X147623411Y-95742607D01*
X147550716Y-95961473D01*
X147530725Y-96086511D01*
X147660149Y-96178649D01*
X147781988Y-96224596D01*
X148060139Y-96424039D01*
X148389189Y-96727838D01*
X148619295Y-96947620D01*
X148917906Y-97184873D01*
X149109781Y-97277027D01*
X149110942Y-97277033D01*
X149332164Y-97368411D01*
X149604511Y-97585946D01*
X149664313Y-97643204D01*
X150016639Y-97941002D01*
X150413207Y-98234701D01*
X150520731Y-98311937D01*
X150768571Y-98551562D01*
X150794397Y-98715630D01*
X150760840Y-98857728D01*
X150871893Y-99122847D01*
X150919826Y-99190051D01*
X150978942Y-99306212D01*
X151049679Y-99445208D01*
X150956118Y-99552448D01*
X150620270Y-99543305D01*
X150174054Y-99488575D01*
X150391432Y-99689081D01*
X150704018Y-99977405D01*
X150938351Y-100186116D01*
X151210762Y-100365062D01*
X151492073Y-100415353D01*
X151903518Y-100377418D01*
X152419525Y-100354182D01*
X152944850Y-100467634D01*
X153281697Y-100729446D01*
X153400541Y-101124877D01*
X153462842Y-101461150D01*
X153640811Y-101774841D01*
X153812586Y-102042324D01*
X153924169Y-102427004D01*
X154024420Y-102755933D01*
X154233088Y-103025936D01*
X154397248Y-103179301D01*
X154498919Y-103386692D01*
X154530842Y-103505089D01*
X154704865Y-103730000D01*
X154810895Y-103855730D01*
X154910811Y-104163534D01*
X154913486Y-104241839D01*
X154980242Y-104354830D01*
X155193161Y-104275039D01*
X155376042Y-104141799D01*
X155563797Y-103892640D01*
X155665116Y-103701208D01*
X155886446Y-103408972D01*
X156034141Y-103261690D01*
X156096673Y-103283426D01*
X156080546Y-103546270D01*
X156052696Y-103728668D01*
X155953594Y-104189821D01*
X155814426Y-104740279D01*
X155663492Y-105270914D01*
X155529095Y-105672599D01*
X155505301Y-105804488D01*
X155529701Y-105858108D01*
X155590177Y-105991005D01*
X155640848Y-106035675D01*
X155660083Y-106210838D01*
X155650042Y-106276316D01*
X155795141Y-106338649D01*
X155897435Y-106321845D01*
X156009189Y-106201351D01*
X156013179Y-106168534D01*
X156146487Y-106064054D01*
X156200394Y-106078568D01*
X156283784Y-106243758D01*
X156331446Y-106415197D01*
X156499084Y-106689975D01*
X156638080Y-106848944D01*
X156677732Y-106816038D01*
X156630876Y-106544595D01*
X156547368Y-106132703D01*
X156826563Y-106544595D01*
X156984763Y-106743596D01*
X157092559Y-106787414D01*
X157103483Y-106645522D01*
X157017099Y-106357423D01*
X156832973Y-105962617D01*
X156776730Y-105852534D01*
X156620945Y-105478247D01*
X156558379Y-105207979D01*
X156552406Y-105171622D01*
X156832973Y-105171622D01*
X156847955Y-105266297D01*
X156965961Y-105377568D01*
X157022775Y-105348413D01*
X157019921Y-105171622D01*
X156975463Y-105073036D01*
X156886933Y-104965676D01*
X156862348Y-104988438D01*
X156832973Y-105171622D01*
X156552406Y-105171622D01*
X156537206Y-105079107D01*
X156421081Y-104965676D01*
X156328545Y-104920291D01*
X156286599Y-104714997D01*
X156356674Y-104433307D01*
X156414303Y-104345078D01*
X156725010Y-104345078D01*
X156741442Y-104508018D01*
X156782738Y-104529498D01*
X156832973Y-104416486D01*
X156823065Y-104343802D01*
X156741442Y-104324955D01*
X156725010Y-104345078D01*
X156414303Y-104345078D01*
X156525631Y-104174639D01*
X156667277Y-103969282D01*
X156721430Y-103693684D01*
X156727323Y-103592703D01*
X158617838Y-103592703D01*
X158621828Y-103625520D01*
X158755135Y-103730000D01*
X158787953Y-103726010D01*
X158892433Y-103592703D01*
X158888443Y-103559885D01*
X158755135Y-103455405D01*
X158722318Y-103459395D01*
X158617838Y-103592703D01*
X156727323Y-103592703D01*
X156729466Y-103555977D01*
X156890686Y-103371955D01*
X156991848Y-103310612D01*
X157030028Y-103166424D01*
X157026478Y-103160601D01*
X157016739Y-103051432D01*
X157213243Y-103108586D01*
X157606227Y-103329306D01*
X157613369Y-103333706D01*
X157931582Y-103488690D01*
X158057732Y-103471944D01*
X157981128Y-103317481D01*
X157691081Y-103059315D01*
X157647602Y-103026821D01*
X157434602Y-102854994D01*
X157430251Y-102787303D01*
X157622433Y-102773268D01*
X157814859Y-102740473D01*
X157931352Y-102631622D01*
X157899466Y-102561929D01*
X157702523Y-102494324D01*
X157593316Y-102479548D01*
X157592870Y-102478301D01*
X158284498Y-102478301D01*
X158307794Y-102614995D01*
X158511020Y-102784508D01*
X158682528Y-102871972D01*
X158748028Y-102868349D01*
X158622364Y-102688424D01*
X158489011Y-102512025D01*
X158395842Y-102382217D01*
X158381399Y-102375906D01*
X158284498Y-102478301D01*
X157592870Y-102478301D01*
X157565707Y-102402311D01*
X157571461Y-102251796D01*
X157448127Y-101990419D01*
X157443844Y-101983846D01*
X157334464Y-101736175D01*
X157409013Y-101675758D01*
X157629298Y-101835297D01*
X157756474Y-101919756D01*
X157794054Y-101774751D01*
X157778838Y-101661248D01*
X157660431Y-101466865D01*
X157636138Y-101447497D01*
X157546861Y-101327297D01*
X158480541Y-101327297D01*
X158549189Y-101395946D01*
X158617838Y-101327297D01*
X158549189Y-101258649D01*
X158480541Y-101327297D01*
X157546861Y-101327297D01*
X157491341Y-101252546D01*
X159316136Y-101252546D01*
X159361170Y-101327297D01*
X159424585Y-101432558D01*
X159442667Y-101450298D01*
X159543245Y-101516102D01*
X159501443Y-101355700D01*
X159432972Y-101227569D01*
X159330840Y-101186367D01*
X159316136Y-101252546D01*
X157491341Y-101252546D01*
X157479740Y-101236927D01*
X157299605Y-100905488D01*
X157299566Y-100905406D01*
X157178307Y-100614192D01*
X158068649Y-100614192D01*
X158099864Y-100745073D01*
X158274595Y-100984054D01*
X158430800Y-101082048D01*
X158480541Y-100991058D01*
X158443893Y-100861359D01*
X158274595Y-100621197D01*
X158223116Y-100570816D01*
X158096741Y-100488636D01*
X158068649Y-100614192D01*
X157178307Y-100614192D01*
X157162368Y-100575913D01*
X157157627Y-100374579D01*
X157282724Y-100190509D01*
X157298614Y-100160270D01*
X158274595Y-100160270D01*
X158302652Y-100197374D01*
X158496746Y-100297568D01*
X158542913Y-100286989D01*
X158549189Y-100160270D01*
X158521132Y-100123166D01*
X158327038Y-100022973D01*
X158280871Y-100033551D01*
X158274595Y-100160270D01*
X157298614Y-100160270D01*
X157407785Y-99952519D01*
X157450726Y-99586161D01*
X157464019Y-99339064D01*
X157669259Y-98981929D01*
X157708465Y-98946842D01*
X157881270Y-98833230D01*
X158037946Y-98883347D01*
X158276213Y-99119312D01*
X158330742Y-99180871D01*
X158511369Y-99446514D01*
X158544423Y-99618793D01*
X158563470Y-99783248D01*
X158730403Y-100028056D01*
X158853579Y-100160270D01*
X158994274Y-100311288D01*
X158937148Y-99926860D01*
X158921994Y-99818999D01*
X158919685Y-99681217D01*
X158991414Y-99755492D01*
X159164101Y-100057297D01*
X159240208Y-100191715D01*
X159410105Y-100463892D01*
X159503966Y-100572162D01*
X159514925Y-100566255D01*
X159506972Y-100411988D01*
X159425078Y-100115714D01*
X159297701Y-99767796D01*
X159153294Y-99458597D01*
X159040830Y-99203669D01*
X159001862Y-98981046D01*
X158950956Y-98817264D01*
X158756073Y-98582200D01*
X158560932Y-98448080D01*
X158480541Y-98496201D01*
X158457332Y-98523704D01*
X158308908Y-98433200D01*
X158068649Y-98190436D01*
X157793215Y-97815674D01*
X157660698Y-97463305D01*
X157726080Y-97226412D01*
X157991897Y-97139730D01*
X158222637Y-97108712D01*
X158411892Y-97002432D01*
X158406841Y-96919302D01*
X158222152Y-96865135D01*
X158055113Y-96839786D01*
X157853629Y-96713156D01*
X157844109Y-96695998D01*
X157891723Y-96618186D01*
X158175699Y-96652546D01*
X158468115Y-96675426D01*
X158661763Y-96612330D01*
X158675786Y-96521892D01*
X158892433Y-96521892D01*
X158961081Y-96590540D01*
X159029730Y-96521892D01*
X159990811Y-96521892D01*
X160059460Y-96590540D01*
X160128108Y-96521892D01*
X160059460Y-96453243D01*
X159990811Y-96521892D01*
X159029730Y-96521892D01*
X158961081Y-96453243D01*
X158892433Y-96521892D01*
X158675786Y-96521892D01*
X158679181Y-96499997D01*
X158472508Y-96382045D01*
X158349204Y-96338481D01*
X158265112Y-96240255D01*
X158402057Y-96052219D01*
X158513078Y-95912869D01*
X158504800Y-95777962D01*
X158381030Y-95698108D01*
X159167027Y-95698108D01*
X159235676Y-95766757D01*
X159304325Y-95698108D01*
X159235676Y-95629459D01*
X159167027Y-95698108D01*
X158381030Y-95698108D01*
X158274786Y-95629562D01*
X158242589Y-95611917D01*
X157989363Y-95420866D01*
X157953646Y-95286216D01*
X158892433Y-95286216D01*
X158961081Y-95354865D01*
X159029730Y-95286216D01*
X158961081Y-95217568D01*
X158892433Y-95286216D01*
X157953646Y-95286216D01*
X157950777Y-95275400D01*
X158140531Y-95217568D01*
X158205127Y-95208650D01*
X158302235Y-95075137D01*
X158296756Y-94737027D01*
X158286537Y-94562820D01*
X158347423Y-94299946D01*
X158510325Y-94282928D01*
X158749835Y-94523727D01*
X158901430Y-94678231D01*
X159060777Y-94717839D01*
X159246815Y-94733416D01*
X159528819Y-94873853D01*
X159878536Y-95102996D01*
X159565610Y-94679741D01*
X159515150Y-94615399D01*
X159242983Y-94359989D01*
X159003910Y-94256486D01*
X158869102Y-94237490D01*
X158755135Y-94138228D01*
X158860868Y-94072593D01*
X159132703Y-94077932D01*
X159278498Y-94097595D01*
X159397282Y-94086121D01*
X159285324Y-93991997D01*
X159270157Y-93976049D01*
X159565977Y-93976049D01*
X159701404Y-94110034D01*
X159814394Y-94211429D01*
X159697428Y-94297676D01*
X159695828Y-94298318D01*
X159674300Y-94353668D01*
X159879735Y-94382944D01*
X160026511Y-94380549D01*
X160280272Y-94308626D01*
X160288794Y-94168750D01*
X160037412Y-93996828D01*
X159859976Y-93932200D01*
X159639399Y-93909842D01*
X159565977Y-93976049D01*
X159270157Y-93976049D01*
X159122741Y-93821045D01*
X159005951Y-93570000D01*
X159235676Y-93570000D01*
X159263856Y-93611088D01*
X159381076Y-93707297D01*
X159394778Y-93703728D01*
X159441622Y-93570000D01*
X159436034Y-93532368D01*
X159296222Y-93432703D01*
X159246562Y-93443483D01*
X159235676Y-93570000D01*
X159005951Y-93570000D01*
X158972571Y-93498249D01*
X158844908Y-93251258D01*
X158526313Y-93012113D01*
X158268108Y-92896485D01*
X158208330Y-92824210D01*
X158347679Y-92811696D01*
X158649567Y-92861363D01*
X159077407Y-92975634D01*
X159415926Y-93095515D01*
X159662552Y-93221546D01*
X159699743Y-93305586D01*
X159679394Y-93327263D01*
X159783846Y-93371461D01*
X160079507Y-93380981D01*
X160246498Y-93376820D01*
X160501450Y-93407848D01*
X160604912Y-93559182D01*
X160605958Y-93570000D01*
X160638613Y-93907835D01*
X160641429Y-93994859D01*
X160623799Y-94168750D01*
X160604582Y-94358304D01*
X160501316Y-94557895D01*
X160404720Y-94635987D01*
X160502507Y-94666276D01*
X160518834Y-94679590D01*
X160549079Y-94793491D01*
X160575392Y-95035928D01*
X160590069Y-95286216D01*
X160598002Y-95421507D01*
X160607747Y-95698108D01*
X160617144Y-95964834D01*
X160629525Y-96521892D01*
X160633050Y-96680513D01*
X160645952Y-97583150D01*
X160656082Y-98687351D01*
X160663674Y-100007720D01*
X160667024Y-100991058D01*
X160668813Y-101516102D01*
X160668959Y-101558863D01*
X160671299Y-102868349D01*
X160672170Y-103355385D01*
X160672328Y-103592703D01*
X160672876Y-104416486D01*
X160673497Y-105348413D01*
X160673539Y-105411892D01*
X160674180Y-108079099D01*
X160676119Y-116155405D01*
X160299141Y-115676476D01*
X160005568Y-115315390D01*
X159431428Y-114645858D01*
X158744441Y-113877332D01*
X157994410Y-113066216D01*
X157598328Y-112644281D01*
X157089324Y-112100759D01*
X156646982Y-111627171D01*
X156333648Y-111257789D01*
X156033986Y-110832124D01*
X155862470Y-110497666D01*
X155845648Y-110449398D01*
X155706912Y-110177503D01*
X155574928Y-110083197D01*
X155452892Y-110042609D01*
X155275602Y-109839730D01*
X155150513Y-109658811D01*
X154945135Y-109455340D01*
X154874745Y-109391815D01*
X154773514Y-109136614D01*
X154735071Y-108978677D01*
X154561030Y-108715199D01*
X154416511Y-108533668D01*
X154430815Y-108433148D01*
X154610708Y-108470064D01*
X154912500Y-108652241D01*
X154992714Y-108709119D01*
X155228042Y-108839954D01*
X155322703Y-108829901D01*
X155219494Y-108673618D01*
X154970788Y-108473700D01*
X154894697Y-108410670D01*
X154828247Y-108329846D01*
X155360903Y-108329846D01*
X155366563Y-108487734D01*
X155402081Y-108498437D01*
X155491335Y-108371631D01*
X155562501Y-108107904D01*
X155584915Y-107803365D01*
X155575685Y-107708956D01*
X155529227Y-107706948D01*
X155439791Y-107966948D01*
X155424883Y-108020524D01*
X155360903Y-108329846D01*
X154828247Y-108329846D01*
X154678745Y-108148003D01*
X154449818Y-107790945D01*
X154251690Y-107418499D01*
X154128136Y-107109672D01*
X154127638Y-107093784D01*
X154773514Y-107093784D01*
X154842162Y-107162432D01*
X154910811Y-107093784D01*
X154842162Y-107025135D01*
X154773514Y-107093784D01*
X154127638Y-107093784D01*
X154122930Y-106943467D01*
X154218819Y-106891027D01*
X154328809Y-106846017D01*
X155537353Y-106846017D01*
X155551589Y-107093784D01*
X155553179Y-107121458D01*
X155745589Y-107481261D01*
X155906971Y-107803365D01*
X155962164Y-107913524D01*
X156084863Y-108634389D01*
X156106637Y-108938830D01*
X156147087Y-109286279D01*
X156188220Y-109446688D01*
X156251985Y-109451224D01*
X156336631Y-109267258D01*
X156397644Y-108909916D01*
X156421081Y-108439514D01*
X156421160Y-108374309D01*
X156439254Y-108035305D01*
X156531023Y-107890366D01*
X156756625Y-107909464D01*
X157176216Y-108062569D01*
X157351761Y-108124695D01*
X157363099Y-108079099D01*
X157189261Y-107872200D01*
X156952132Y-107671089D01*
X156698329Y-107574324D01*
X156513991Y-107515629D01*
X156224080Y-107302371D01*
X155976642Y-107023565D01*
X155871892Y-106776016D01*
X155818744Y-106633005D01*
X155676737Y-106650091D01*
X155537353Y-106846017D01*
X154328809Y-106846017D01*
X154473310Y-106786884D01*
X154591521Y-106739310D01*
X154667952Y-106661035D01*
X154561178Y-106543266D01*
X154245326Y-106334685D01*
X154100523Y-106235604D01*
X153843278Y-105996435D01*
X153793253Y-105858108D01*
X154498919Y-105858108D01*
X154567568Y-105926757D01*
X154636216Y-105858108D01*
X154567568Y-105789459D01*
X154498919Y-105858108D01*
X153793253Y-105858108D01*
X153778469Y-105817228D01*
X153781497Y-105807959D01*
X153732615Y-105586231D01*
X153539489Y-105310676D01*
X153508000Y-105277138D01*
X153328829Y-105075250D01*
X153334654Y-105018777D01*
X153522119Y-105059080D01*
X153702562Y-105077478D01*
X153812433Y-105002968D01*
X153778045Y-104888280D01*
X153581441Y-104662491D01*
X153310092Y-104490238D01*
X153079620Y-104457571D01*
X152906825Y-104425034D01*
X152613500Y-104218747D01*
X152272437Y-103883404D01*
X151938145Y-103473497D01*
X151665128Y-103043513D01*
X151651687Y-103017671D01*
X151459012Y-102529213D01*
X151341081Y-102027472D01*
X151339296Y-102014028D01*
X151192938Y-101550431D01*
X150931489Y-101217225D01*
X150609775Y-101060984D01*
X150282621Y-101128285D01*
X150183530Y-101179789D01*
X149974657Y-101208019D01*
X149678124Y-101131097D01*
X149217597Y-100935183D01*
X148830856Y-100767792D01*
X148454759Y-100626474D01*
X148238466Y-100572162D01*
X148053347Y-100483292D01*
X147836472Y-100242803D01*
X147658968Y-100032125D01*
X147384332Y-99849238D01*
X146961648Y-99679579D01*
X146329730Y-99492685D01*
X146256661Y-99470976D01*
X145803101Y-99273172D01*
X145437297Y-99023987D01*
X145018158Y-98715889D01*
X146015821Y-98715889D01*
X146032252Y-98878829D01*
X146073549Y-98900308D01*
X146123784Y-98787297D01*
X146113876Y-98714612D01*
X146032252Y-98695766D01*
X146015821Y-98715889D01*
X145018158Y-98715889D01*
X144991132Y-98696023D01*
X144543815Y-98516773D01*
X144163108Y-98505291D01*
X143913634Y-98674548D01*
X143911677Y-98675876D01*
X143883785Y-98714189D01*
X143740055Y-98799024D01*
X143666581Y-98789542D01*
X143192744Y-98765479D01*
X142857523Y-98863859D01*
X142580914Y-99128930D01*
X142508278Y-99244955D01*
X142282913Y-99604941D01*
X142147303Y-99840050D01*
X142113806Y-99889985D01*
X141861878Y-100265539D01*
X141629271Y-100468069D01*
X141413346Y-100470191D01*
X141177967Y-100294453D01*
X141034271Y-100155270D01*
X140853411Y-100047013D01*
X140658084Y-100096993D01*
X140344411Y-100306743D01*
X140341205Y-100309017D01*
X139929577Y-100511120D01*
X139499433Y-100601360D01*
X139089663Y-100680591D01*
X139042208Y-100710502D01*
X138565094Y-101011228D01*
X138061678Y-101607200D01*
X137766925Y-101937032D01*
X137751260Y-101954561D01*
X137407721Y-102082432D01*
X136996605Y-102168131D01*
X136424150Y-102448783D01*
X135774935Y-102897913D01*
X135686177Y-102974865D01*
X135527815Y-103112162D01*
X135094446Y-103487886D01*
X134938224Y-103638468D01*
X134854399Y-103719266D01*
X134566760Y-104014336D01*
X134443536Y-104189491D01*
X134460177Y-104286782D01*
X134592134Y-104348258D01*
X134807791Y-104485104D01*
X134805381Y-104557624D01*
X134799364Y-104738641D01*
X134744526Y-104940333D01*
X134695280Y-105205946D01*
X134692675Y-105221136D01*
X134531635Y-105335305D01*
X134165288Y-105377568D01*
X134089379Y-105378276D01*
X133813809Y-105411335D01*
X133642449Y-105528344D01*
X133555920Y-105776637D01*
X133534843Y-106203553D01*
X133559838Y-106856426D01*
X133563889Y-106939899D01*
X133570101Y-107392403D01*
X133549079Y-107667013D01*
X133546988Y-107694334D01*
X133498615Y-107784091D01*
X133492164Y-107780216D01*
X133435751Y-107770244D01*
X133396475Y-107849353D01*
X133367853Y-108063886D01*
X133350760Y-108340901D01*
X133343399Y-108460185D01*
X133316627Y-109084595D01*
X133286487Y-109839730D01*
X132840270Y-109796622D01*
X132500018Y-109806849D01*
X132403658Y-109927140D01*
X132530828Y-110114324D01*
X132558811Y-110155513D01*
X132574734Y-110171813D01*
X132626432Y-110289158D01*
X132435190Y-110320270D01*
X132340534Y-110328984D01*
X132218156Y-110414327D01*
X132177251Y-110628273D01*
X132213940Y-111016478D01*
X132324343Y-111624595D01*
X132329160Y-111648256D01*
X132466489Y-112083149D01*
X132634271Y-112333738D01*
X132792291Y-112385686D01*
X132900334Y-112224657D01*
X132918184Y-111836312D01*
X132911725Y-111717387D01*
X132933438Y-111423294D01*
X133008879Y-111321447D01*
X133095316Y-111366652D01*
X133163806Y-111506267D01*
X133222128Y-111798783D01*
X133287369Y-112304522D01*
X133302474Y-112405300D01*
X133410585Y-112761264D01*
X133559113Y-112963506D01*
X133735899Y-113114503D01*
X133702451Y-113301926D01*
X133398334Y-113504941D01*
X133142962Y-113713760D01*
X132943921Y-114042215D01*
X132863405Y-114380784D01*
X132918202Y-114554967D01*
X132941793Y-114629955D01*
X132954832Y-114641104D01*
X133191610Y-114718670D01*
X133550663Y-114740603D01*
X133620323Y-114738941D01*
X133991621Y-114785573D01*
X134124678Y-114926333D01*
X134005792Y-115148931D01*
X133905751Y-115340093D01*
X133898206Y-115424633D01*
X133875875Y-115674865D01*
X133907379Y-115933232D01*
X133947291Y-116327027D01*
X133978248Y-116519133D01*
X134041622Y-116635946D01*
X134086708Y-116720886D01*
X134110270Y-116979189D01*
X134110270Y-117322432D01*
X131947838Y-117322432D01*
X129785406Y-117322432D01*
X129785406Y-116953714D01*
X129861262Y-116624087D01*
X130072960Y-116278908D01*
X130209092Y-116078234D01*
X130279346Y-115762319D01*
X130200542Y-115505965D01*
X130092985Y-115453923D01*
X132278329Y-115453923D01*
X132311104Y-115637680D01*
X132357972Y-115635554D01*
X132371862Y-115537568D01*
X132943243Y-115537568D01*
X132987828Y-115745838D01*
X133123915Y-115794593D01*
X133271797Y-115594987D01*
X133331793Y-115424633D01*
X133322827Y-115288766D01*
X133149189Y-115262973D01*
X133029092Y-115313939D01*
X132973989Y-115457477D01*
X132943243Y-115537568D01*
X132371862Y-115537568D01*
X132383215Y-115457477D01*
X132361229Y-115322521D01*
X132350560Y-115331622D01*
X132300265Y-115374527D01*
X132278329Y-115453923D01*
X130092985Y-115453923D01*
X129982099Y-115400270D01*
X129862772Y-115340811D01*
X129859738Y-115331622D01*
X131982162Y-115331622D01*
X132050811Y-115400270D01*
X132119460Y-115331622D01*
X132050811Y-115262973D01*
X131982162Y-115331622D01*
X129859738Y-115331622D01*
X129785406Y-115106487D01*
X129862214Y-114837065D01*
X130130246Y-114560726D01*
X130498114Y-114443556D01*
X130711102Y-114388441D01*
X130798365Y-114270613D01*
X132209629Y-114270613D01*
X132221798Y-114542162D01*
X132276766Y-114630490D01*
X132436904Y-114716242D01*
X132548514Y-114645135D01*
X132565912Y-114554967D01*
X132557830Y-114267734D01*
X132475075Y-114061233D01*
X132356618Y-113998993D01*
X132241433Y-114144547D01*
X132209629Y-114270613D01*
X130798365Y-114270613D01*
X130844958Y-114207700D01*
X130761983Y-113987875D01*
X130699434Y-113908267D01*
X130609189Y-113641573D01*
X130629269Y-113563584D01*
X130743513Y-113508190D01*
X130996527Y-113515021D01*
X131430619Y-113586459D01*
X132088092Y-113724887D01*
X132177793Y-113743498D01*
X132567304Y-113784928D01*
X132754003Y-113725673D01*
X132794677Y-113615837D01*
X132688395Y-113494002D01*
X132340316Y-113424369D01*
X132084165Y-113377189D01*
X131890411Y-113294825D01*
X131745968Y-113234514D01*
X131444415Y-113198946D01*
X131339532Y-113190689D01*
X130997235Y-113080602D01*
X130714203Y-112887065D01*
X130557472Y-112666973D01*
X130594076Y-112477222D01*
X130685746Y-112395153D01*
X130856325Y-112292612D01*
X130983259Y-112259279D01*
X131264550Y-112172789D01*
X131400069Y-112124854D01*
X131489774Y-112038105D01*
X131347277Y-111903702D01*
X131321266Y-111883747D01*
X131187964Y-111672696D01*
X131228146Y-111337038D01*
X131314308Y-111005387D01*
X131386452Y-110687192D01*
X131417971Y-110568033D01*
X131541713Y-110213391D01*
X131581697Y-110114324D01*
X132119460Y-110114324D01*
X132188108Y-110182973D01*
X132256757Y-110114324D01*
X132188108Y-110045676D01*
X132119460Y-110114324D01*
X131581697Y-110114324D01*
X131713769Y-109787096D01*
X131835224Y-109476421D01*
X131913767Y-109101603D01*
X131859006Y-108802336D01*
X131857545Y-108798690D01*
X131759085Y-108619346D01*
X131716271Y-108685748D01*
X131645665Y-108886333D01*
X131436211Y-109150313D01*
X131270916Y-109343501D01*
X131240675Y-109463661D01*
X131230855Y-109502680D01*
X131232972Y-109506509D01*
X131217345Y-109698157D01*
X131097338Y-109999196D01*
X130939958Y-110334600D01*
X130826462Y-110629189D01*
X130722436Y-110775770D01*
X130430435Y-110869459D01*
X130175693Y-110893632D01*
X129992893Y-111011001D01*
X130058865Y-111211335D01*
X130112409Y-111345820D01*
X129993391Y-111635859D01*
X129954285Y-111685360D01*
X129868441Y-111750472D01*
X129819481Y-111661910D01*
X129796795Y-111379381D01*
X129789772Y-110862595D01*
X129804448Y-110343375D01*
X129860096Y-109893430D01*
X129950162Y-109661243D01*
X130045683Y-109537012D01*
X129950162Y-109496486D01*
X129940145Y-109491009D01*
X129916504Y-109413536D01*
X130234482Y-109413536D01*
X130236608Y-109460404D01*
X130414685Y-109485647D01*
X130549641Y-109463661D01*
X130497635Y-109402697D01*
X130418240Y-109380761D01*
X130234482Y-109413536D01*
X129916504Y-109413536D01*
X129909775Y-109391484D01*
X129883299Y-109156281D01*
X129860504Y-108771508D01*
X129843335Y-108284381D01*
X130084775Y-108284381D01*
X130130997Y-108459514D01*
X130268394Y-108628523D01*
X130408020Y-108592781D01*
X130471892Y-108340901D01*
X130431313Y-108104647D01*
X130256397Y-107986216D01*
X130123469Y-108036669D01*
X130084775Y-108284381D01*
X129843335Y-108284381D01*
X129841181Y-108223275D01*
X129830361Y-107734504D01*
X131844865Y-107734504D01*
X131847344Y-107756800D01*
X131974059Y-107848919D01*
X132088680Y-107816144D01*
X132198559Y-107667013D01*
X132140849Y-107518895D01*
X132120347Y-107507901D01*
X131934429Y-107535531D01*
X131844865Y-107734504D01*
X129830361Y-107734504D01*
X129825118Y-107497690D01*
X129812105Y-106580862D01*
X129801931Y-105458901D01*
X129795689Y-104349703D01*
X130658665Y-104349703D01*
X130682467Y-104393876D01*
X130959297Y-104407194D01*
X131293700Y-104451415D01*
X131543574Y-104553021D01*
X131555606Y-104562718D01*
X131578657Y-104557624D01*
X131440325Y-104391802D01*
X131340067Y-104288212D01*
X131121134Y-104171036D01*
X130856049Y-104245976D01*
X130658665Y-104349703D01*
X129795689Y-104349703D01*
X129794385Y-104117914D01*
X129792957Y-103679765D01*
X133654016Y-103679765D01*
X133767027Y-103730000D01*
X133839712Y-103720091D01*
X133858559Y-103638468D01*
X133838435Y-103622037D01*
X133675496Y-103638468D01*
X133654016Y-103679765D01*
X129792957Y-103679765D01*
X129791107Y-103112162D01*
X134178919Y-103112162D01*
X134247568Y-103180811D01*
X134316216Y-103112162D01*
X134247568Y-103043513D01*
X134178919Y-103112162D01*
X129791107Y-103112162D01*
X129790660Y-102974865D01*
X133904325Y-102974865D01*
X133972973Y-103043513D01*
X134041622Y-102974865D01*
X133972973Y-102906216D01*
X133904325Y-102974865D01*
X129790660Y-102974865D01*
X129789256Y-102544012D01*
X129788418Y-102021887D01*
X132256757Y-102021887D01*
X132260327Y-102035589D01*
X132394054Y-102082432D01*
X132431686Y-102076845D01*
X132531352Y-101937032D01*
X132520571Y-101887372D01*
X132394054Y-101876486D01*
X132352966Y-101904666D01*
X132256757Y-102021887D01*
X129788418Y-102021887D01*
X129786888Y-101069514D01*
X136650270Y-101069514D01*
X136652525Y-101093606D01*
X136741978Y-101094534D01*
X136942378Y-100881081D01*
X137019075Y-100781601D01*
X137053169Y-100710502D01*
X136890541Y-100829244D01*
X136872742Y-100844517D01*
X136744096Y-100954907D01*
X136650270Y-101069514D01*
X129786888Y-101069514D01*
X129786654Y-100923508D01*
X131432973Y-100923508D01*
X131458729Y-100952214D01*
X131647022Y-100984054D01*
X131745003Y-100963917D01*
X131774832Y-100844517D01*
X131714611Y-100792497D01*
X131533581Y-100795353D01*
X131432973Y-100923508D01*
X129786654Y-100923508D01*
X129786333Y-100723304D01*
X129786322Y-100698222D01*
X132861598Y-100698222D01*
X132986600Y-100775901D01*
X133204727Y-100717562D01*
X133306989Y-100624139D01*
X133249817Y-100545473D01*
X133650581Y-100545473D01*
X133652136Y-100549324D01*
X133780558Y-100624139D01*
X133786308Y-100627489D01*
X133957241Y-100544483D01*
X134041622Y-100359084D01*
X134072928Y-100262640D01*
X134258143Y-100251975D01*
X134378914Y-100250417D01*
X134701336Y-100068641D01*
X134814639Y-99969014D01*
X136101081Y-99969014D01*
X136123844Y-99993598D01*
X136307027Y-100022973D01*
X136401703Y-100007991D01*
X136512973Y-99889985D01*
X136483819Y-99833171D01*
X136307027Y-99836025D01*
X136208442Y-99880484D01*
X136101081Y-99969014D01*
X134814639Y-99969014D01*
X135161347Y-99664153D01*
X135483174Y-99330827D01*
X135528051Y-99277443D01*
X137819958Y-99277443D01*
X137898216Y-99412718D01*
X137987676Y-99451356D01*
X137962030Y-99348517D01*
X137939237Y-99286251D01*
X140656178Y-99286251D01*
X140769189Y-99336486D01*
X140841874Y-99326578D01*
X140860721Y-99244955D01*
X140840598Y-99228523D01*
X140677658Y-99244955D01*
X140656178Y-99286251D01*
X137939237Y-99286251D01*
X137929123Y-99258621D01*
X138043790Y-99218413D01*
X138048896Y-99219343D01*
X138296726Y-99180397D01*
X138626892Y-99041587D01*
X138812711Y-98941406D01*
X140906487Y-98941406D01*
X140954828Y-99027884D01*
X141205486Y-99023083D01*
X141661622Y-98857069D01*
X142073514Y-98674548D01*
X141694163Y-98578294D01*
X141678775Y-98574560D01*
X141315685Y-98573916D01*
X141025276Y-98711401D01*
X140965484Y-98827173D01*
X140906487Y-98941406D01*
X138812711Y-98941406D01*
X139024595Y-98827173D01*
X138645015Y-98731904D01*
X138375997Y-98677330D01*
X138245850Y-98677642D01*
X138165063Y-98786008D01*
X137978512Y-99013937D01*
X137949115Y-99049690D01*
X137819958Y-99277443D01*
X135528051Y-99277443D01*
X135830930Y-98917148D01*
X136069348Y-98568520D01*
X136170038Y-98327865D01*
X136168073Y-98325170D01*
X145873475Y-98325170D01*
X145879538Y-98327865D01*
X145986487Y-98375405D01*
X146059171Y-98365497D01*
X146078018Y-98283874D01*
X146057895Y-98267442D01*
X145894955Y-98283874D01*
X145873475Y-98325170D01*
X136168073Y-98325170D01*
X136104607Y-98238108D01*
X136020621Y-98181292D01*
X135963784Y-97952072D01*
X135916275Y-97744788D01*
X135794055Y-97729719D01*
X135650474Y-97895873D01*
X135587194Y-98074766D01*
X135539141Y-98210610D01*
X135354605Y-98752052D01*
X135042580Y-99189894D01*
X134657723Y-99417839D01*
X134432609Y-99506528D01*
X134316216Y-99632521D01*
X134314091Y-99648563D01*
X134198107Y-99837643D01*
X133959500Y-100092083D01*
X133915865Y-100133797D01*
X133709348Y-100380092D01*
X133650581Y-100545473D01*
X133249817Y-100545473D01*
X133220533Y-100505179D01*
X133140807Y-100475721D01*
X132919317Y-100541169D01*
X132861598Y-100698222D01*
X129786322Y-100698222D01*
X129785562Y-98991698D01*
X132987641Y-98991698D01*
X133149329Y-99130606D01*
X133476331Y-99151962D01*
X133893623Y-99067829D01*
X134329038Y-98899838D01*
X134710408Y-98669621D01*
X134965567Y-98398811D01*
X135026086Y-98279875D01*
X135029708Y-98074766D01*
X134810115Y-97995737D01*
X134352876Y-98034200D01*
X133835676Y-98118205D01*
X134159805Y-97834913D01*
X134405390Y-97620270D01*
X140631892Y-97620270D01*
X140700541Y-97688919D01*
X140720062Y-97669398D01*
X141045689Y-97669398D01*
X141813798Y-97765367D01*
X141988197Y-97783051D01*
X142591393Y-97788567D01*
X143082846Y-97713117D01*
X143263427Y-97665532D01*
X143784366Y-97576613D01*
X144323453Y-97538573D01*
X144822614Y-97548456D01*
X145223780Y-97603309D01*
X145468878Y-97700175D01*
X145499837Y-97836101D01*
X145480222Y-97878406D01*
X145532168Y-97975083D01*
X145580228Y-97979528D01*
X145850801Y-98001719D01*
X146242526Y-98032083D01*
X146792215Y-98179951D01*
X146950807Y-98283874D01*
X147412226Y-98586236D01*
X147599745Y-98787297D01*
X148010930Y-99228178D01*
X148038142Y-99259336D01*
X148318351Y-99451754D01*
X148702156Y-99604979D01*
X148858462Y-99647327D01*
X149246587Y-99728182D01*
X149396652Y-99689081D01*
X149323761Y-99510962D01*
X149043016Y-99174762D01*
X148316759Y-98415890D01*
X148235967Y-98341021D01*
X148908693Y-98341021D01*
X149010469Y-98568575D01*
X149231840Y-98882134D01*
X149398069Y-99078108D01*
X149702355Y-99369299D01*
X149898570Y-99448906D01*
X149968108Y-99306212D01*
X149957469Y-99252346D01*
X149820818Y-99024617D01*
X149580165Y-98747268D01*
X149303783Y-98486793D01*
X149059947Y-98309686D01*
X148916930Y-98282440D01*
X148908693Y-98341021D01*
X148235967Y-98341021D01*
X147477004Y-97637696D01*
X146661518Y-96977932D01*
X145934172Y-96491723D01*
X145749264Y-96346695D01*
X145636015Y-96148480D01*
X145627841Y-96084848D01*
X145525432Y-95792246D01*
X145351396Y-95461993D01*
X145276474Y-95354865D01*
X146947568Y-95354865D01*
X146951557Y-95387682D01*
X147084865Y-95492162D01*
X147117683Y-95488172D01*
X147222162Y-95354865D01*
X147218173Y-95322047D01*
X147172455Y-95286216D01*
X152027568Y-95286216D01*
X152096216Y-95354865D01*
X152164865Y-95286216D01*
X152096216Y-95217568D01*
X152027568Y-95286216D01*
X147172455Y-95286216D01*
X147084865Y-95217568D01*
X147052048Y-95221557D01*
X146947568Y-95354865D01*
X145276474Y-95354865D01*
X145162587Y-95192023D01*
X145015861Y-95080270D01*
X144946498Y-95041547D01*
X144916414Y-94840000D01*
X144891240Y-94688728D01*
X144708904Y-94567165D01*
X144446462Y-94575740D01*
X144207121Y-94730401D01*
X144100736Y-94931073D01*
X144201622Y-95148919D01*
X144282620Y-95270395D01*
X144270270Y-95354865D01*
X144243067Y-95394773D01*
X144338919Y-95560811D01*
X144346032Y-95569422D01*
X144438654Y-95727222D01*
X144321406Y-95764654D01*
X144216840Y-95750514D01*
X143933583Y-95636416D01*
X143885418Y-95608104D01*
X143663581Y-95559673D01*
X143604602Y-95688622D01*
X143746462Y-95934459D01*
X143785016Y-95978674D01*
X143851325Y-96054718D01*
X143896824Y-96155600D01*
X143758095Y-96167267D01*
X143391902Y-96111283D01*
X142788128Y-96010369D01*
X142876501Y-96452236D01*
X142908634Y-96641865D01*
X142892211Y-96818513D01*
X142763861Y-96816966D01*
X142660334Y-96796234D01*
X142481700Y-96871131D01*
X142479293Y-96874758D01*
X142290933Y-96966360D01*
X141962438Y-97006747D01*
X141628868Y-97064997D01*
X141285007Y-97340230D01*
X141081407Y-97620270D01*
X141045689Y-97669398D01*
X140720062Y-97669398D01*
X140769189Y-97620270D01*
X140700541Y-97551622D01*
X140631892Y-97620270D01*
X134405390Y-97620270D01*
X134483934Y-97551622D01*
X133927638Y-97551622D01*
X133657919Y-97566021D01*
X133357065Y-97645805D01*
X133273162Y-97775951D01*
X133435002Y-97934103D01*
X133503581Y-97983249D01*
X133609697Y-98225774D01*
X133518010Y-98502034D01*
X133250845Y-98717103D01*
X133061419Y-98838690D01*
X132987641Y-98991698D01*
X129785562Y-98991698D01*
X129785406Y-98641897D01*
X129785417Y-98452092D01*
X129787387Y-96248319D01*
X129787620Y-96162949D01*
X139337271Y-96162949D01*
X139370150Y-96259033D01*
X139591228Y-96347459D01*
X139826748Y-96353458D01*
X139840081Y-96278796D01*
X140929187Y-96278796D01*
X140933000Y-96300728D01*
X140981361Y-96448690D01*
X141087955Y-96421741D01*
X141318379Y-96207937D01*
X141380345Y-96145284D01*
X141524082Y-95978674D01*
X141501727Y-95955513D01*
X141427757Y-95976268D01*
X141278619Y-95870585D01*
X141208558Y-95773432D01*
X141049322Y-95853894D01*
X140972250Y-95972703D01*
X140967033Y-95980745D01*
X140935908Y-96225862D01*
X140929187Y-96278796D01*
X139840081Y-96278796D01*
X139849533Y-96225862D01*
X139765630Y-96112540D01*
X139536843Y-96045978D01*
X139337271Y-96162949D01*
X129787620Y-96162949D01*
X129788139Y-95972703D01*
X134178919Y-95972703D01*
X134247568Y-96041351D01*
X134316216Y-95972703D01*
X135963784Y-95972703D01*
X136032433Y-96041351D01*
X136101081Y-95972703D01*
X136032433Y-95904054D01*
X135963784Y-95972703D01*
X134316216Y-95972703D01*
X134247568Y-95904054D01*
X134178919Y-95972703D01*
X129788139Y-95972703D01*
X129792720Y-94294344D01*
X129793867Y-94068954D01*
X142852935Y-94068954D01*
X142965946Y-94119189D01*
X143038631Y-94109281D01*
X143057478Y-94027658D01*
X143037354Y-94011226D01*
X142874415Y-94027658D01*
X142852935Y-94068954D01*
X129793867Y-94068954D01*
X129798739Y-93111555D01*
X132418349Y-93111555D01*
X132485744Y-93304717D01*
X132568604Y-93364798D01*
X132687527Y-93338178D01*
X132725462Y-93295392D01*
X132957756Y-93154581D01*
X133317827Y-92995138D01*
X133498382Y-92926881D01*
X133795556Y-92843302D01*
X133996327Y-92872138D01*
X134210259Y-93015943D01*
X134417937Y-93167398D01*
X134513865Y-93152955D01*
X134542505Y-92926363D01*
X134527992Y-92757594D01*
X134361356Y-92542640D01*
X134253457Y-92509068D01*
X151019646Y-92509068D01*
X151058719Y-92647540D01*
X151293314Y-92638531D01*
X151414934Y-92631054D01*
X151645282Y-92710361D01*
X151924943Y-92926363D01*
X151939524Y-92937625D01*
X152349487Y-93347645D01*
X152447240Y-93450334D01*
X152886103Y-93886119D01*
X153063053Y-94027658D01*
X153158540Y-94104036D01*
X153265049Y-94104167D01*
X153206127Y-93886593D01*
X152982272Y-93451396D01*
X152592666Y-92956930D01*
X152034646Y-92522014D01*
X151437996Y-92260502D01*
X151420180Y-92256142D01*
X151156216Y-92252565D01*
X151035288Y-92438798D01*
X151019646Y-92509068D01*
X134253457Y-92509068D01*
X133989027Y-92426792D01*
X133381366Y-92396524D01*
X133032765Y-92420356D01*
X132762400Y-92530371D01*
X132561746Y-92777839D01*
X132543880Y-92807656D01*
X132418349Y-93111555D01*
X129798739Y-93111555D01*
X129801377Y-92593266D01*
X129813318Y-91148181D01*
X129828504Y-89962186D01*
X129843601Y-89203946D01*
X139945406Y-89203946D01*
X139961710Y-89274366D01*
X140094186Y-89320764D01*
X140274184Y-89229650D01*
X140352783Y-89107838D01*
X144750811Y-89107838D01*
X144819460Y-89176486D01*
X144888108Y-89107838D01*
X144819460Y-89039189D01*
X144750811Y-89107838D01*
X140352783Y-89107838D01*
X140397079Y-89039189D01*
X140420638Y-88874628D01*
X140371903Y-88764595D01*
X140237942Y-88822110D01*
X140040695Y-89011427D01*
X139945406Y-89203946D01*
X129843601Y-89203946D01*
X129846897Y-89038380D01*
X129862695Y-88555889D01*
X150272037Y-88555889D01*
X150288469Y-88718829D01*
X150329765Y-88740308D01*
X150380000Y-88627297D01*
X150370092Y-88554612D01*
X150288469Y-88535766D01*
X150272037Y-88555889D01*
X129862695Y-88555889D01*
X129868458Y-88379859D01*
X129878352Y-88223508D01*
X140357297Y-88223508D01*
X140404152Y-88396231D01*
X140641144Y-88490000D01*
X140702400Y-88488283D01*
X140858194Y-88415705D01*
X140830034Y-88181081D01*
X140737180Y-87913239D01*
X140643679Y-87811832D01*
X140503729Y-87866517D01*
X140424778Y-87957649D01*
X140357297Y-88223508D01*
X129878352Y-88223508D01*
X129891898Y-88009459D01*
X130609189Y-88009459D01*
X130677838Y-88078108D01*
X130746487Y-88009459D01*
X130743728Y-88006700D01*
X132697983Y-88006700D01*
X132698261Y-88009459D01*
X132714415Y-88169640D01*
X132755711Y-88191119D01*
X132805946Y-88078108D01*
X132796038Y-88005423D01*
X132714415Y-87986577D01*
X132697983Y-88006700D01*
X130743728Y-88006700D01*
X130677838Y-87940811D01*
X130609189Y-88009459D01*
X129891898Y-88009459D01*
X129893147Y-87989721D01*
X129920925Y-87871064D01*
X130100000Y-87850917D01*
X130270687Y-87734865D01*
X133629730Y-87734865D01*
X133698379Y-87803513D01*
X133767027Y-87734865D01*
X133698379Y-87666216D01*
X133629730Y-87734865D01*
X130270687Y-87734865D01*
X130351559Y-87679879D01*
X130472037Y-87580847D01*
X130770392Y-87464536D01*
X131197592Y-87481997D01*
X131539178Y-87515439D01*
X131678413Y-87473828D01*
X131663700Y-87338041D01*
X131656349Y-87317094D01*
X131682586Y-87149052D01*
X131853792Y-87129588D01*
X132082608Y-87272392D01*
X132143407Y-87315594D01*
X132278777Y-87258850D01*
X132438656Y-86963473D01*
X132447914Y-86942317D01*
X132654613Y-86543934D01*
X132870122Y-86224595D01*
X133006177Y-86082894D01*
X133010857Y-86126660D01*
X132995987Y-86167973D01*
X132974862Y-86456515D01*
X133012743Y-86847471D01*
X133028231Y-86936412D01*
X133111631Y-87241479D01*
X133261607Y-87367129D01*
X133556338Y-87391622D01*
X133564810Y-87391657D01*
X133929367Y-87453395D01*
X134178919Y-87597567D01*
X134197589Y-87618903D01*
X134369159Y-87734865D01*
G37*
%TD*%
M02*
