%TF.GenerationSoftware,KiCad,Pcbnew,(7.0.0)*%
%TF.CreationDate,2023-10-03T11:42:16+02:00*%
%TF.ProjectId,Lichten-PCB,4c696368-7465-46e2-9d50-43422e6b6963,rev?*%
%TF.SameCoordinates,Original*%
%TF.FileFunction,Legend,Top*%
%TF.FilePolarity,Positive*%
%FSLAX46Y46*%
G04 Gerber Fmt 4.6, Leading zero omitted, Abs format (unit mm)*
G04 Created by KiCad (PCBNEW (7.0.0)) date 2023-10-03 11:42:16*
%MOMM*%
%LPD*%
G01*
G04 APERTURE LIST*
%ADD10C,0.200000*%
%ADD11C,0.120000*%
%ADD12C,0.150000*%
G04 APERTURE END LIST*
D10*
X129361904Y-125830000D02*
X129266666Y-125782380D01*
X129266666Y-125782380D02*
X129123809Y-125782380D01*
X129123809Y-125782380D02*
X128980952Y-125830000D01*
X128980952Y-125830000D02*
X128885714Y-125925238D01*
X128885714Y-125925238D02*
X128838095Y-126020476D01*
X128838095Y-126020476D02*
X128790476Y-126210952D01*
X128790476Y-126210952D02*
X128790476Y-126353809D01*
X128790476Y-126353809D02*
X128838095Y-126544285D01*
X128838095Y-126544285D02*
X128885714Y-126639523D01*
X128885714Y-126639523D02*
X128980952Y-126734761D01*
X128980952Y-126734761D02*
X129123809Y-126782380D01*
X129123809Y-126782380D02*
X129219047Y-126782380D01*
X129219047Y-126782380D02*
X129361904Y-126734761D01*
X129361904Y-126734761D02*
X129409523Y-126687142D01*
X129409523Y-126687142D02*
X129409523Y-126353809D01*
X129409523Y-126353809D02*
X129219047Y-126353809D01*
X130028571Y-125782380D02*
X130219047Y-125782380D01*
X130219047Y-125782380D02*
X130314285Y-125830000D01*
X130314285Y-125830000D02*
X130409523Y-125925238D01*
X130409523Y-125925238D02*
X130457142Y-126115714D01*
X130457142Y-126115714D02*
X130457142Y-126449047D01*
X130457142Y-126449047D02*
X130409523Y-126639523D01*
X130409523Y-126639523D02*
X130314285Y-126734761D01*
X130314285Y-126734761D02*
X130219047Y-126782380D01*
X130219047Y-126782380D02*
X130028571Y-126782380D01*
X130028571Y-126782380D02*
X129933333Y-126734761D01*
X129933333Y-126734761D02*
X129838095Y-126639523D01*
X129838095Y-126639523D02*
X129790476Y-126449047D01*
X129790476Y-126449047D02*
X129790476Y-126115714D01*
X129790476Y-126115714D02*
X129838095Y-125925238D01*
X129838095Y-125925238D02*
X129933333Y-125830000D01*
X129933333Y-125830000D02*
X130028571Y-125782380D01*
X130885714Y-126782380D02*
X130885714Y-125782380D01*
X130885714Y-125782380D02*
X131123809Y-125782380D01*
X131123809Y-125782380D02*
X131266666Y-125830000D01*
X131266666Y-125830000D02*
X131361904Y-125925238D01*
X131361904Y-125925238D02*
X131409523Y-126020476D01*
X131409523Y-126020476D02*
X131457142Y-126210952D01*
X131457142Y-126210952D02*
X131457142Y-126353809D01*
X131457142Y-126353809D02*
X131409523Y-126544285D01*
X131409523Y-126544285D02*
X131361904Y-126639523D01*
X131361904Y-126639523D02*
X131266666Y-126734761D01*
X131266666Y-126734761D02*
X131123809Y-126782380D01*
X131123809Y-126782380D02*
X130885714Y-126782380D01*
X132438095Y-126734761D02*
X132580952Y-126782380D01*
X132580952Y-126782380D02*
X132819047Y-126782380D01*
X132819047Y-126782380D02*
X132914285Y-126734761D01*
X132914285Y-126734761D02*
X132961904Y-126687142D01*
X132961904Y-126687142D02*
X133009523Y-126591904D01*
X133009523Y-126591904D02*
X133009523Y-126496666D01*
X133009523Y-126496666D02*
X132961904Y-126401428D01*
X132961904Y-126401428D02*
X132914285Y-126353809D01*
X132914285Y-126353809D02*
X132819047Y-126306190D01*
X132819047Y-126306190D02*
X132628571Y-126258571D01*
X132628571Y-126258571D02*
X132533333Y-126210952D01*
X132533333Y-126210952D02*
X132485714Y-126163333D01*
X132485714Y-126163333D02*
X132438095Y-126068095D01*
X132438095Y-126068095D02*
X132438095Y-125972857D01*
X132438095Y-125972857D02*
X132485714Y-125877619D01*
X132485714Y-125877619D02*
X132533333Y-125830000D01*
X132533333Y-125830000D02*
X132628571Y-125782380D01*
X132628571Y-125782380D02*
X132866666Y-125782380D01*
X132866666Y-125782380D02*
X133009523Y-125830000D01*
X133390476Y-126496666D02*
X133866666Y-126496666D01*
X133295238Y-126782380D02*
X133628571Y-125782380D01*
X133628571Y-125782380D02*
X133961904Y-126782380D01*
X134295238Y-126782380D02*
X134295238Y-125782380D01*
X134771428Y-126782380D02*
X134771428Y-125782380D01*
X134771428Y-125782380D02*
X135009523Y-125782380D01*
X135009523Y-125782380D02*
X135152380Y-125830000D01*
X135152380Y-125830000D02*
X135247618Y-125925238D01*
X135247618Y-125925238D02*
X135295237Y-126020476D01*
X135295237Y-126020476D02*
X135342856Y-126210952D01*
X135342856Y-126210952D02*
X135342856Y-126353809D01*
X135342856Y-126353809D02*
X135295237Y-126544285D01*
X135295237Y-126544285D02*
X135247618Y-126639523D01*
X135247618Y-126639523D02*
X135152380Y-126734761D01*
X135152380Y-126734761D02*
X135009523Y-126782380D01*
X135009523Y-126782380D02*
X134771428Y-126782380D01*
X136323809Y-126496666D02*
X136799999Y-126496666D01*
X136228571Y-126782380D02*
X136561904Y-125782380D01*
X136561904Y-125782380D02*
X136895237Y-126782380D01*
X137228571Y-126782380D02*
X137228571Y-125782380D01*
X137228571Y-125782380D02*
X137799999Y-126782380D01*
X137799999Y-126782380D02*
X137799999Y-125782380D01*
X138276190Y-126782380D02*
X138276190Y-125782380D01*
X138276190Y-125782380D02*
X138514285Y-125782380D01*
X138514285Y-125782380D02*
X138657142Y-125830000D01*
X138657142Y-125830000D02*
X138752380Y-125925238D01*
X138752380Y-125925238D02*
X138799999Y-126020476D01*
X138799999Y-126020476D02*
X138847618Y-126210952D01*
X138847618Y-126210952D02*
X138847618Y-126353809D01*
X138847618Y-126353809D02*
X138799999Y-126544285D01*
X138799999Y-126544285D02*
X138752380Y-126639523D01*
X138752380Y-126639523D02*
X138657142Y-126734761D01*
X138657142Y-126734761D02*
X138514285Y-126782380D01*
X138514285Y-126782380D02*
X138276190Y-126782380D01*
X139733333Y-125782380D02*
X140304761Y-125782380D01*
X140019047Y-126782380D02*
X140019047Y-125782380D01*
X140638095Y-126782380D02*
X140638095Y-125782380D01*
X140638095Y-126258571D02*
X141209523Y-126258571D01*
X141209523Y-126782380D02*
X141209523Y-125782380D01*
X141685714Y-126258571D02*
X142019047Y-126258571D01*
X142161904Y-126782380D02*
X141685714Y-126782380D01*
X141685714Y-126782380D02*
X141685714Y-125782380D01*
X141685714Y-125782380D02*
X142161904Y-125782380D01*
X143161904Y-126782380D02*
X142828571Y-126306190D01*
X142590476Y-126782380D02*
X142590476Y-125782380D01*
X142590476Y-125782380D02*
X142971428Y-125782380D01*
X142971428Y-125782380D02*
X143066666Y-125830000D01*
X143066666Y-125830000D02*
X143114285Y-125877619D01*
X143114285Y-125877619D02*
X143161904Y-125972857D01*
X143161904Y-125972857D02*
X143161904Y-126115714D01*
X143161904Y-126115714D02*
X143114285Y-126210952D01*
X143114285Y-126210952D02*
X143066666Y-126258571D01*
X143066666Y-126258571D02*
X142971428Y-126306190D01*
X142971428Y-126306190D02*
X142590476Y-126306190D01*
X143590476Y-126258571D02*
X143923809Y-126258571D01*
X144066666Y-126782380D02*
X143590476Y-126782380D01*
X143590476Y-126782380D02*
X143590476Y-125782380D01*
X143590476Y-125782380D02*
X144066666Y-125782380D01*
X145095238Y-126782380D02*
X145095238Y-125782380D01*
X145523809Y-126734761D02*
X145666666Y-126782380D01*
X145666666Y-126782380D02*
X145904761Y-126782380D01*
X145904761Y-126782380D02*
X145999999Y-126734761D01*
X145999999Y-126734761D02*
X146047618Y-126687142D01*
X146047618Y-126687142D02*
X146095237Y-126591904D01*
X146095237Y-126591904D02*
X146095237Y-126496666D01*
X146095237Y-126496666D02*
X146047618Y-126401428D01*
X146047618Y-126401428D02*
X145999999Y-126353809D01*
X145999999Y-126353809D02*
X145904761Y-126306190D01*
X145904761Y-126306190D02*
X145714285Y-126258571D01*
X145714285Y-126258571D02*
X145619047Y-126210952D01*
X145619047Y-126210952D02*
X145571428Y-126163333D01*
X145571428Y-126163333D02*
X145523809Y-126068095D01*
X145523809Y-126068095D02*
X145523809Y-125972857D01*
X145523809Y-125972857D02*
X145571428Y-125877619D01*
X145571428Y-125877619D02*
X145619047Y-125830000D01*
X145619047Y-125830000D02*
X145714285Y-125782380D01*
X145714285Y-125782380D02*
X145952380Y-125782380D01*
X145952380Y-125782380D02*
X146095237Y-125830000D01*
X147599999Y-126782380D02*
X147123809Y-126782380D01*
X147123809Y-126782380D02*
X147123809Y-125782380D01*
X147933333Y-126782380D02*
X147933333Y-125782380D01*
X148933332Y-125830000D02*
X148838094Y-125782380D01*
X148838094Y-125782380D02*
X148695237Y-125782380D01*
X148695237Y-125782380D02*
X148552380Y-125830000D01*
X148552380Y-125830000D02*
X148457142Y-125925238D01*
X148457142Y-125925238D02*
X148409523Y-126020476D01*
X148409523Y-126020476D02*
X148361904Y-126210952D01*
X148361904Y-126210952D02*
X148361904Y-126353809D01*
X148361904Y-126353809D02*
X148409523Y-126544285D01*
X148409523Y-126544285D02*
X148457142Y-126639523D01*
X148457142Y-126639523D02*
X148552380Y-126734761D01*
X148552380Y-126734761D02*
X148695237Y-126782380D01*
X148695237Y-126782380D02*
X148790475Y-126782380D01*
X148790475Y-126782380D02*
X148933332Y-126734761D01*
X148933332Y-126734761D02*
X148980951Y-126687142D01*
X148980951Y-126687142D02*
X148980951Y-126353809D01*
X148980951Y-126353809D02*
X148790475Y-126353809D01*
X149409523Y-126782380D02*
X149409523Y-125782380D01*
X149409523Y-126258571D02*
X149980951Y-126258571D01*
X149980951Y-126782380D02*
X149980951Y-125782380D01*
X150980951Y-125830000D02*
X150885713Y-125782380D01*
X150885713Y-125782380D02*
X150742856Y-125782380D01*
X150742856Y-125782380D02*
X150599999Y-125830000D01*
X150599999Y-125830000D02*
X150504761Y-125925238D01*
X150504761Y-125925238D02*
X150457142Y-126020476D01*
X150457142Y-126020476D02*
X150409523Y-126210952D01*
X150409523Y-126210952D02*
X150409523Y-126353809D01*
X150409523Y-126353809D02*
X150457142Y-126544285D01*
X150457142Y-126544285D02*
X150504761Y-126639523D01*
X150504761Y-126639523D02*
X150599999Y-126734761D01*
X150599999Y-126734761D02*
X150742856Y-126782380D01*
X150742856Y-126782380D02*
X150838094Y-126782380D01*
X150838094Y-126782380D02*
X150980951Y-126734761D01*
X150980951Y-126734761D02*
X151028570Y-126687142D01*
X151028570Y-126687142D02*
X151028570Y-126353809D01*
X151028570Y-126353809D02*
X150838094Y-126353809D01*
X151314285Y-125782380D02*
X151885713Y-125782380D01*
X151599999Y-126782380D02*
X151599999Y-125782380D01*
D11*
X159378571Y-126951071D02*
X159950000Y-126951071D01*
X159664285Y-127236785D02*
X159664285Y-126665357D01*
X160235713Y-126486785D02*
X160699999Y-126486785D01*
X160699999Y-126486785D02*
X160449999Y-126772500D01*
X160449999Y-126772500D02*
X160557142Y-126772500D01*
X160557142Y-126772500D02*
X160628571Y-126808214D01*
X160628571Y-126808214D02*
X160664285Y-126843928D01*
X160664285Y-126843928D02*
X160699999Y-126915357D01*
X160699999Y-126915357D02*
X160699999Y-127093928D01*
X160699999Y-127093928D02*
X160664285Y-127165357D01*
X160664285Y-127165357D02*
X160628571Y-127201071D01*
X160628571Y-127201071D02*
X160557142Y-127236785D01*
X160557142Y-127236785D02*
X160342856Y-127236785D01*
X160342856Y-127236785D02*
X160271428Y-127201071D01*
X160271428Y-127201071D02*
X160235713Y-127165357D01*
X160914285Y-126486785D02*
X161164285Y-127236785D01*
X161164285Y-127236785D02*
X161414285Y-126486785D01*
X161592856Y-126486785D02*
X162057142Y-126486785D01*
X162057142Y-126486785D02*
X161807142Y-126772500D01*
X161807142Y-126772500D02*
X161914285Y-126772500D01*
X161914285Y-126772500D02*
X161985714Y-126808214D01*
X161985714Y-126808214D02*
X162021428Y-126843928D01*
X162021428Y-126843928D02*
X162057142Y-126915357D01*
X162057142Y-126915357D02*
X162057142Y-127093928D01*
X162057142Y-127093928D02*
X162021428Y-127165357D01*
X162021428Y-127165357D02*
X161985714Y-127201071D01*
X161985714Y-127201071D02*
X161914285Y-127236785D01*
X161914285Y-127236785D02*
X161699999Y-127236785D01*
X161699999Y-127236785D02*
X161628571Y-127201071D01*
X161628571Y-127201071D02*
X161592856Y-127165357D01*
X162828571Y-127236785D02*
X162828571Y-126486785D01*
X162828571Y-126486785D02*
X163007142Y-126486785D01*
X163007142Y-126486785D02*
X163114285Y-126522500D01*
X163114285Y-126522500D02*
X163185714Y-126593928D01*
X163185714Y-126593928D02*
X163221428Y-126665357D01*
X163221428Y-126665357D02*
X163257142Y-126808214D01*
X163257142Y-126808214D02*
X163257142Y-126915357D01*
X163257142Y-126915357D02*
X163221428Y-127058214D01*
X163221428Y-127058214D02*
X163185714Y-127129642D01*
X163185714Y-127129642D02*
X163114285Y-127201071D01*
X163114285Y-127201071D02*
X163007142Y-127236785D01*
X163007142Y-127236785D02*
X162828571Y-127236785D01*
X163721428Y-126486785D02*
X163864285Y-126486785D01*
X163864285Y-126486785D02*
X163935714Y-126522500D01*
X163935714Y-126522500D02*
X164007142Y-126593928D01*
X164007142Y-126593928D02*
X164042857Y-126736785D01*
X164042857Y-126736785D02*
X164042857Y-126986785D01*
X164042857Y-126986785D02*
X164007142Y-127129642D01*
X164007142Y-127129642D02*
X163935714Y-127201071D01*
X163935714Y-127201071D02*
X163864285Y-127236785D01*
X163864285Y-127236785D02*
X163721428Y-127236785D01*
X163721428Y-127236785D02*
X163650000Y-127201071D01*
X163650000Y-127201071D02*
X163578571Y-127129642D01*
X163578571Y-127129642D02*
X163542857Y-126986785D01*
X163542857Y-126986785D02*
X163542857Y-126736785D01*
X163542857Y-126736785D02*
X163578571Y-126593928D01*
X163578571Y-126593928D02*
X163650000Y-126522500D01*
X163650000Y-126522500D02*
X163721428Y-126486785D01*
X164364285Y-126486785D02*
X164364285Y-127093928D01*
X164364285Y-127093928D02*
X164399999Y-127165357D01*
X164399999Y-127165357D02*
X164435714Y-127201071D01*
X164435714Y-127201071D02*
X164507142Y-127236785D01*
X164507142Y-127236785D02*
X164649999Y-127236785D01*
X164649999Y-127236785D02*
X164721428Y-127201071D01*
X164721428Y-127201071D02*
X164757142Y-127165357D01*
X164757142Y-127165357D02*
X164792856Y-127093928D01*
X164792856Y-127093928D02*
X164792856Y-126486785D01*
X165042856Y-126486785D02*
X165471428Y-126486785D01*
X165257142Y-127236785D02*
X165257142Y-126486785D01*
X166171428Y-127236785D02*
X166171428Y-126486785D01*
X166171428Y-126486785D02*
X166349999Y-126486785D01*
X166349999Y-126486785D02*
X166457142Y-126522500D01*
X166457142Y-126522500D02*
X166528571Y-126593928D01*
X166528571Y-126593928D02*
X166564285Y-126665357D01*
X166564285Y-126665357D02*
X166599999Y-126808214D01*
X166599999Y-126808214D02*
X166599999Y-126915357D01*
X166599999Y-126915357D02*
X166564285Y-127058214D01*
X166564285Y-127058214D02*
X166528571Y-127129642D01*
X166528571Y-127129642D02*
X166457142Y-127201071D01*
X166457142Y-127201071D02*
X166349999Y-127236785D01*
X166349999Y-127236785D02*
X166171428Y-127236785D01*
X166921428Y-127236785D02*
X166921428Y-126486785D01*
X167278571Y-127236785D02*
X167278571Y-126486785D01*
X167278571Y-126486785D02*
X167707142Y-127236785D01*
X167707142Y-127236785D02*
X167707142Y-126486785D01*
X168907142Y-126522500D02*
X168835714Y-126486785D01*
X168835714Y-126486785D02*
X168728571Y-126486785D01*
X168728571Y-126486785D02*
X168621428Y-126522500D01*
X168621428Y-126522500D02*
X168549999Y-126593928D01*
X168549999Y-126593928D02*
X168514285Y-126665357D01*
X168514285Y-126665357D02*
X168478571Y-126808214D01*
X168478571Y-126808214D02*
X168478571Y-126915357D01*
X168478571Y-126915357D02*
X168514285Y-127058214D01*
X168514285Y-127058214D02*
X168549999Y-127129642D01*
X168549999Y-127129642D02*
X168621428Y-127201071D01*
X168621428Y-127201071D02*
X168728571Y-127236785D01*
X168728571Y-127236785D02*
X168799999Y-127236785D01*
X168799999Y-127236785D02*
X168907142Y-127201071D01*
X168907142Y-127201071D02*
X168942856Y-127165357D01*
X168942856Y-127165357D02*
X168942856Y-126915357D01*
X168942856Y-126915357D02*
X168799999Y-126915357D01*
X169264285Y-127236785D02*
X169264285Y-126486785D01*
X169264285Y-126486785D02*
X169692856Y-127236785D01*
X169692856Y-127236785D02*
X169692856Y-126486785D01*
X170049999Y-127236785D02*
X170049999Y-126486785D01*
X170049999Y-126486785D02*
X170228570Y-126486785D01*
X170228570Y-126486785D02*
X170335713Y-126522500D01*
X170335713Y-126522500D02*
X170407142Y-126593928D01*
X170407142Y-126593928D02*
X170442856Y-126665357D01*
X170442856Y-126665357D02*
X170478570Y-126808214D01*
X170478570Y-126808214D02*
X170478570Y-126915357D01*
X170478570Y-126915357D02*
X170442856Y-127058214D01*
X170442856Y-127058214D02*
X170407142Y-127129642D01*
X170407142Y-127129642D02*
X170335713Y-127201071D01*
X170335713Y-127201071D02*
X170228570Y-127236785D01*
X170228570Y-127236785D02*
X170049999Y-127236785D01*
D12*
X119190476Y-129076666D02*
X119666666Y-129076666D01*
X119095238Y-129362380D02*
X119428571Y-128362380D01*
X119428571Y-128362380D02*
X119761904Y-129362380D01*
X120095238Y-129267142D02*
X120142857Y-129314761D01*
X120142857Y-129314761D02*
X120095238Y-129362380D01*
X120095238Y-129362380D02*
X120047619Y-129314761D01*
X120047619Y-129314761D02*
X120095238Y-129267142D01*
X120095238Y-129267142D02*
X120095238Y-129362380D01*
X120904761Y-128838571D02*
X121047618Y-128886190D01*
X121047618Y-128886190D02*
X121095237Y-128933809D01*
X121095237Y-128933809D02*
X121142856Y-129029047D01*
X121142856Y-129029047D02*
X121142856Y-129171904D01*
X121142856Y-129171904D02*
X121095237Y-129267142D01*
X121095237Y-129267142D02*
X121047618Y-129314761D01*
X121047618Y-129314761D02*
X120952380Y-129362380D01*
X120952380Y-129362380D02*
X120571428Y-129362380D01*
X120571428Y-129362380D02*
X120571428Y-128362380D01*
X120571428Y-128362380D02*
X120904761Y-128362380D01*
X120904761Y-128362380D02*
X120999999Y-128410000D01*
X120999999Y-128410000D02*
X121047618Y-128457619D01*
X121047618Y-128457619D02*
X121095237Y-128552857D01*
X121095237Y-128552857D02*
X121095237Y-128648095D01*
X121095237Y-128648095D02*
X121047618Y-128743333D01*
X121047618Y-128743333D02*
X120999999Y-128790952D01*
X120999999Y-128790952D02*
X120904761Y-128838571D01*
X120904761Y-128838571D02*
X120571428Y-128838571D01*
X121952380Y-129314761D02*
X121857142Y-129362380D01*
X121857142Y-129362380D02*
X121666666Y-129362380D01*
X121666666Y-129362380D02*
X121571428Y-129314761D01*
X121571428Y-129314761D02*
X121523809Y-129219523D01*
X121523809Y-129219523D02*
X121523809Y-128838571D01*
X121523809Y-128838571D02*
X121571428Y-128743333D01*
X121571428Y-128743333D02*
X121666666Y-128695714D01*
X121666666Y-128695714D02*
X121857142Y-128695714D01*
X121857142Y-128695714D02*
X121952380Y-128743333D01*
X121952380Y-128743333D02*
X121999999Y-128838571D01*
X121999999Y-128838571D02*
X121999999Y-128933809D01*
X121999999Y-128933809D02*
X121523809Y-129029047D01*
X122428571Y-128695714D02*
X122428571Y-129362380D01*
X122428571Y-128790952D02*
X122476190Y-128743333D01*
X122476190Y-128743333D02*
X122571428Y-128695714D01*
X122571428Y-128695714D02*
X122714285Y-128695714D01*
X122714285Y-128695714D02*
X122809523Y-128743333D01*
X122809523Y-128743333D02*
X122857142Y-128838571D01*
X122857142Y-128838571D02*
X122857142Y-129362380D01*
X123761904Y-129362380D02*
X123761904Y-128838571D01*
X123761904Y-128838571D02*
X123714285Y-128743333D01*
X123714285Y-128743333D02*
X123619047Y-128695714D01*
X123619047Y-128695714D02*
X123428571Y-128695714D01*
X123428571Y-128695714D02*
X123333333Y-128743333D01*
X123761904Y-129314761D02*
X123666666Y-129362380D01*
X123666666Y-129362380D02*
X123428571Y-129362380D01*
X123428571Y-129362380D02*
X123333333Y-129314761D01*
X123333333Y-129314761D02*
X123285714Y-129219523D01*
X123285714Y-129219523D02*
X123285714Y-129124285D01*
X123285714Y-129124285D02*
X123333333Y-129029047D01*
X123333333Y-129029047D02*
X123428571Y-128981428D01*
X123428571Y-128981428D02*
X123666666Y-128981428D01*
X123666666Y-128981428D02*
X123761904Y-128933809D01*
X124238095Y-129362380D02*
X124238095Y-128695714D01*
X124238095Y-128362380D02*
X124190476Y-128410000D01*
X124190476Y-128410000D02*
X124238095Y-128457619D01*
X124238095Y-128457619D02*
X124285714Y-128410000D01*
X124285714Y-128410000D02*
X124238095Y-128362380D01*
X124238095Y-128362380D02*
X124238095Y-128457619D01*
X124666666Y-129314761D02*
X124761904Y-129362380D01*
X124761904Y-129362380D02*
X124952380Y-129362380D01*
X124952380Y-129362380D02*
X125047618Y-129314761D01*
X125047618Y-129314761D02*
X125095237Y-129219523D01*
X125095237Y-129219523D02*
X125095237Y-129171904D01*
X125095237Y-129171904D02*
X125047618Y-129076666D01*
X125047618Y-129076666D02*
X124952380Y-129029047D01*
X124952380Y-129029047D02*
X124809523Y-129029047D01*
X124809523Y-129029047D02*
X124714285Y-128981428D01*
X124714285Y-128981428D02*
X124666666Y-128886190D01*
X124666666Y-128886190D02*
X124666666Y-128838571D01*
X124666666Y-128838571D02*
X124714285Y-128743333D01*
X124714285Y-128743333D02*
X124809523Y-128695714D01*
X124809523Y-128695714D02*
X124952380Y-128695714D01*
X124952380Y-128695714D02*
X125047618Y-128743333D01*
X125476190Y-129314761D02*
X125571428Y-129362380D01*
X125571428Y-129362380D02*
X125761904Y-129362380D01*
X125761904Y-129362380D02*
X125857142Y-129314761D01*
X125857142Y-129314761D02*
X125904761Y-129219523D01*
X125904761Y-129219523D02*
X125904761Y-129171904D01*
X125904761Y-129171904D02*
X125857142Y-129076666D01*
X125857142Y-129076666D02*
X125761904Y-129029047D01*
X125761904Y-129029047D02*
X125619047Y-129029047D01*
X125619047Y-129029047D02*
X125523809Y-128981428D01*
X125523809Y-128981428D02*
X125476190Y-128886190D01*
X125476190Y-128886190D02*
X125476190Y-128838571D01*
X125476190Y-128838571D02*
X125523809Y-128743333D01*
X125523809Y-128743333D02*
X125619047Y-128695714D01*
X125619047Y-128695714D02*
X125761904Y-128695714D01*
X125761904Y-128695714D02*
X125857142Y-128743333D01*
X126761904Y-129362380D02*
X126761904Y-128838571D01*
X126761904Y-128838571D02*
X126714285Y-128743333D01*
X126714285Y-128743333D02*
X126619047Y-128695714D01*
X126619047Y-128695714D02*
X126428571Y-128695714D01*
X126428571Y-128695714D02*
X126333333Y-128743333D01*
X126761904Y-129314761D02*
X126666666Y-129362380D01*
X126666666Y-129362380D02*
X126428571Y-129362380D01*
X126428571Y-129362380D02*
X126333333Y-129314761D01*
X126333333Y-129314761D02*
X126285714Y-129219523D01*
X126285714Y-129219523D02*
X126285714Y-129124285D01*
X126285714Y-129124285D02*
X126333333Y-129029047D01*
X126333333Y-129029047D02*
X126428571Y-128981428D01*
X126428571Y-128981428D02*
X126666666Y-128981428D01*
X126666666Y-128981428D02*
X126761904Y-128933809D01*
X119238095Y-130982380D02*
X119238095Y-129982380D01*
X119238095Y-129982380D02*
X119809523Y-130982380D01*
X119809523Y-130982380D02*
X119809523Y-129982380D01*
X120285714Y-130887142D02*
X120333333Y-130934761D01*
X120333333Y-130934761D02*
X120285714Y-130982380D01*
X120285714Y-130982380D02*
X120238095Y-130934761D01*
X120238095Y-130934761D02*
X120285714Y-130887142D01*
X120285714Y-130887142D02*
X120285714Y-130982380D01*
X121285713Y-130030000D02*
X121190475Y-129982380D01*
X121190475Y-129982380D02*
X121047618Y-129982380D01*
X121047618Y-129982380D02*
X120904761Y-130030000D01*
X120904761Y-130030000D02*
X120809523Y-130125238D01*
X120809523Y-130125238D02*
X120761904Y-130220476D01*
X120761904Y-130220476D02*
X120714285Y-130410952D01*
X120714285Y-130410952D02*
X120714285Y-130553809D01*
X120714285Y-130553809D02*
X120761904Y-130744285D01*
X120761904Y-130744285D02*
X120809523Y-130839523D01*
X120809523Y-130839523D02*
X120904761Y-130934761D01*
X120904761Y-130934761D02*
X121047618Y-130982380D01*
X121047618Y-130982380D02*
X121142856Y-130982380D01*
X121142856Y-130982380D02*
X121285713Y-130934761D01*
X121285713Y-130934761D02*
X121333332Y-130887142D01*
X121333332Y-130887142D02*
X121333332Y-130553809D01*
X121333332Y-130553809D02*
X121142856Y-130553809D01*
X122190475Y-130982380D02*
X122190475Y-130458571D01*
X122190475Y-130458571D02*
X122142856Y-130363333D01*
X122142856Y-130363333D02*
X122047618Y-130315714D01*
X122047618Y-130315714D02*
X121857142Y-130315714D01*
X121857142Y-130315714D02*
X121761904Y-130363333D01*
X122190475Y-130934761D02*
X122095237Y-130982380D01*
X122095237Y-130982380D02*
X121857142Y-130982380D01*
X121857142Y-130982380D02*
X121761904Y-130934761D01*
X121761904Y-130934761D02*
X121714285Y-130839523D01*
X121714285Y-130839523D02*
X121714285Y-130744285D01*
X121714285Y-130744285D02*
X121761904Y-130649047D01*
X121761904Y-130649047D02*
X121857142Y-130601428D01*
X121857142Y-130601428D02*
X122095237Y-130601428D01*
X122095237Y-130601428D02*
X122190475Y-130553809D01*
X122666666Y-130315714D02*
X122666666Y-130982380D01*
X122666666Y-130410952D02*
X122714285Y-130363333D01*
X122714285Y-130363333D02*
X122809523Y-130315714D01*
X122809523Y-130315714D02*
X122952380Y-130315714D01*
X122952380Y-130315714D02*
X123047618Y-130363333D01*
X123047618Y-130363333D02*
X123095237Y-130458571D01*
X123095237Y-130458571D02*
X123095237Y-130982380D01*
X123999999Y-130315714D02*
X123999999Y-131125238D01*
X123999999Y-131125238D02*
X123952380Y-131220476D01*
X123952380Y-131220476D02*
X123904761Y-131268095D01*
X123904761Y-131268095D02*
X123809523Y-131315714D01*
X123809523Y-131315714D02*
X123666666Y-131315714D01*
X123666666Y-131315714D02*
X123571428Y-131268095D01*
X123999999Y-130934761D02*
X123904761Y-130982380D01*
X123904761Y-130982380D02*
X123714285Y-130982380D01*
X123714285Y-130982380D02*
X123619047Y-130934761D01*
X123619047Y-130934761D02*
X123571428Y-130887142D01*
X123571428Y-130887142D02*
X123523809Y-130791904D01*
X123523809Y-130791904D02*
X123523809Y-130506190D01*
X123523809Y-130506190D02*
X123571428Y-130410952D01*
X123571428Y-130410952D02*
X123619047Y-130363333D01*
X123619047Y-130363333D02*
X123714285Y-130315714D01*
X123714285Y-130315714D02*
X123904761Y-130315714D01*
X123904761Y-130315714D02*
X123999999Y-130363333D01*
X124904761Y-130982380D02*
X124904761Y-130458571D01*
X124904761Y-130458571D02*
X124857142Y-130363333D01*
X124857142Y-130363333D02*
X124761904Y-130315714D01*
X124761904Y-130315714D02*
X124571428Y-130315714D01*
X124571428Y-130315714D02*
X124476190Y-130363333D01*
X124904761Y-130934761D02*
X124809523Y-130982380D01*
X124809523Y-130982380D02*
X124571428Y-130982380D01*
X124571428Y-130982380D02*
X124476190Y-130934761D01*
X124476190Y-130934761D02*
X124428571Y-130839523D01*
X124428571Y-130839523D02*
X124428571Y-130744285D01*
X124428571Y-130744285D02*
X124476190Y-130649047D01*
X124476190Y-130649047D02*
X124571428Y-130601428D01*
X124571428Y-130601428D02*
X124809523Y-130601428D01*
X124809523Y-130601428D02*
X124904761Y-130553809D01*
%TO.C,C22*%
X154782142Y-72042142D02*
X154734523Y-72089761D01*
X154734523Y-72089761D02*
X154591666Y-72137380D01*
X154591666Y-72137380D02*
X154496428Y-72137380D01*
X154496428Y-72137380D02*
X154353571Y-72089761D01*
X154353571Y-72089761D02*
X154258333Y-71994523D01*
X154258333Y-71994523D02*
X154210714Y-71899285D01*
X154210714Y-71899285D02*
X154163095Y-71708809D01*
X154163095Y-71708809D02*
X154163095Y-71565952D01*
X154163095Y-71565952D02*
X154210714Y-71375476D01*
X154210714Y-71375476D02*
X154258333Y-71280238D01*
X154258333Y-71280238D02*
X154353571Y-71185000D01*
X154353571Y-71185000D02*
X154496428Y-71137380D01*
X154496428Y-71137380D02*
X154591666Y-71137380D01*
X154591666Y-71137380D02*
X154734523Y-71185000D01*
X154734523Y-71185000D02*
X154782142Y-71232619D01*
X155163095Y-71232619D02*
X155210714Y-71185000D01*
X155210714Y-71185000D02*
X155305952Y-71137380D01*
X155305952Y-71137380D02*
X155544047Y-71137380D01*
X155544047Y-71137380D02*
X155639285Y-71185000D01*
X155639285Y-71185000D02*
X155686904Y-71232619D01*
X155686904Y-71232619D02*
X155734523Y-71327857D01*
X155734523Y-71327857D02*
X155734523Y-71423095D01*
X155734523Y-71423095D02*
X155686904Y-71565952D01*
X155686904Y-71565952D02*
X155115476Y-72137380D01*
X155115476Y-72137380D02*
X155734523Y-72137380D01*
X156115476Y-71232619D02*
X156163095Y-71185000D01*
X156163095Y-71185000D02*
X156258333Y-71137380D01*
X156258333Y-71137380D02*
X156496428Y-71137380D01*
X156496428Y-71137380D02*
X156591666Y-71185000D01*
X156591666Y-71185000D02*
X156639285Y-71232619D01*
X156639285Y-71232619D02*
X156686904Y-71327857D01*
X156686904Y-71327857D02*
X156686904Y-71423095D01*
X156686904Y-71423095D02*
X156639285Y-71565952D01*
X156639285Y-71565952D02*
X156067857Y-72137380D01*
X156067857Y-72137380D02*
X156686904Y-72137380D01*
%TO.C,D19*%
X158785714Y-87967380D02*
X158785714Y-86967380D01*
X158785714Y-86967380D02*
X159023809Y-86967380D01*
X159023809Y-86967380D02*
X159166666Y-87015000D01*
X159166666Y-87015000D02*
X159261904Y-87110238D01*
X159261904Y-87110238D02*
X159309523Y-87205476D01*
X159309523Y-87205476D02*
X159357142Y-87395952D01*
X159357142Y-87395952D02*
X159357142Y-87538809D01*
X159357142Y-87538809D02*
X159309523Y-87729285D01*
X159309523Y-87729285D02*
X159261904Y-87824523D01*
X159261904Y-87824523D02*
X159166666Y-87919761D01*
X159166666Y-87919761D02*
X159023809Y-87967380D01*
X159023809Y-87967380D02*
X158785714Y-87967380D01*
X160309523Y-87967380D02*
X159738095Y-87967380D01*
X160023809Y-87967380D02*
X160023809Y-86967380D01*
X160023809Y-86967380D02*
X159928571Y-87110238D01*
X159928571Y-87110238D02*
X159833333Y-87205476D01*
X159833333Y-87205476D02*
X159738095Y-87253095D01*
X160785714Y-87967380D02*
X160976190Y-87967380D01*
X160976190Y-87967380D02*
X161071428Y-87919761D01*
X161071428Y-87919761D02*
X161119047Y-87872142D01*
X161119047Y-87872142D02*
X161214285Y-87729285D01*
X161214285Y-87729285D02*
X161261904Y-87538809D01*
X161261904Y-87538809D02*
X161261904Y-87157857D01*
X161261904Y-87157857D02*
X161214285Y-87062619D01*
X161214285Y-87062619D02*
X161166666Y-87015000D01*
X161166666Y-87015000D02*
X161071428Y-86967380D01*
X161071428Y-86967380D02*
X160880952Y-86967380D01*
X160880952Y-86967380D02*
X160785714Y-87015000D01*
X160785714Y-87015000D02*
X160738095Y-87062619D01*
X160738095Y-87062619D02*
X160690476Y-87157857D01*
X160690476Y-87157857D02*
X160690476Y-87395952D01*
X160690476Y-87395952D02*
X160738095Y-87491190D01*
X160738095Y-87491190D02*
X160785714Y-87538809D01*
X160785714Y-87538809D02*
X160880952Y-87586428D01*
X160880952Y-87586428D02*
X161071428Y-87586428D01*
X161071428Y-87586428D02*
X161166666Y-87538809D01*
X161166666Y-87538809D02*
X161214285Y-87491190D01*
X161214285Y-87491190D02*
X161261904Y-87395952D01*
X151285714Y-86517380D02*
X150714286Y-86517380D01*
X151000000Y-86517380D02*
X151000000Y-85517380D01*
X151000000Y-85517380D02*
X150904762Y-85660238D01*
X150904762Y-85660238D02*
X150809524Y-85755476D01*
X150809524Y-85755476D02*
X150714286Y-85803095D01*
%TO.C,D18*%
X148985714Y-87967380D02*
X148985714Y-86967380D01*
X148985714Y-86967380D02*
X149223809Y-86967380D01*
X149223809Y-86967380D02*
X149366666Y-87015000D01*
X149366666Y-87015000D02*
X149461904Y-87110238D01*
X149461904Y-87110238D02*
X149509523Y-87205476D01*
X149509523Y-87205476D02*
X149557142Y-87395952D01*
X149557142Y-87395952D02*
X149557142Y-87538809D01*
X149557142Y-87538809D02*
X149509523Y-87729285D01*
X149509523Y-87729285D02*
X149461904Y-87824523D01*
X149461904Y-87824523D02*
X149366666Y-87919761D01*
X149366666Y-87919761D02*
X149223809Y-87967380D01*
X149223809Y-87967380D02*
X148985714Y-87967380D01*
X150509523Y-87967380D02*
X149938095Y-87967380D01*
X150223809Y-87967380D02*
X150223809Y-86967380D01*
X150223809Y-86967380D02*
X150128571Y-87110238D01*
X150128571Y-87110238D02*
X150033333Y-87205476D01*
X150033333Y-87205476D02*
X149938095Y-87253095D01*
X151080952Y-87395952D02*
X150985714Y-87348333D01*
X150985714Y-87348333D02*
X150938095Y-87300714D01*
X150938095Y-87300714D02*
X150890476Y-87205476D01*
X150890476Y-87205476D02*
X150890476Y-87157857D01*
X150890476Y-87157857D02*
X150938095Y-87062619D01*
X150938095Y-87062619D02*
X150985714Y-87015000D01*
X150985714Y-87015000D02*
X151080952Y-86967380D01*
X151080952Y-86967380D02*
X151271428Y-86967380D01*
X151271428Y-86967380D02*
X151366666Y-87015000D01*
X151366666Y-87015000D02*
X151414285Y-87062619D01*
X151414285Y-87062619D02*
X151461904Y-87157857D01*
X151461904Y-87157857D02*
X151461904Y-87205476D01*
X151461904Y-87205476D02*
X151414285Y-87300714D01*
X151414285Y-87300714D02*
X151366666Y-87348333D01*
X151366666Y-87348333D02*
X151271428Y-87395952D01*
X151271428Y-87395952D02*
X151080952Y-87395952D01*
X151080952Y-87395952D02*
X150985714Y-87443571D01*
X150985714Y-87443571D02*
X150938095Y-87491190D01*
X150938095Y-87491190D02*
X150890476Y-87586428D01*
X150890476Y-87586428D02*
X150890476Y-87776904D01*
X150890476Y-87776904D02*
X150938095Y-87872142D01*
X150938095Y-87872142D02*
X150985714Y-87919761D01*
X150985714Y-87919761D02*
X151080952Y-87967380D01*
X151080952Y-87967380D02*
X151271428Y-87967380D01*
X151271428Y-87967380D02*
X151366666Y-87919761D01*
X151366666Y-87919761D02*
X151414285Y-87872142D01*
X151414285Y-87872142D02*
X151461904Y-87776904D01*
X151461904Y-87776904D02*
X151461904Y-87586428D01*
X151461904Y-87586428D02*
X151414285Y-87491190D01*
X151414285Y-87491190D02*
X151366666Y-87443571D01*
X151366666Y-87443571D02*
X151271428Y-87395952D01*
X141485714Y-86517380D02*
X140914286Y-86517380D01*
X141200000Y-86517380D02*
X141200000Y-85517380D01*
X141200000Y-85517380D02*
X141104762Y-85660238D01*
X141104762Y-85660238D02*
X141009524Y-85755476D01*
X141009524Y-85755476D02*
X140914286Y-85803095D01*
%TO.C,D6*%
X128511905Y-109117380D02*
X128511905Y-108117380D01*
X128511905Y-108117380D02*
X128750000Y-108117380D01*
X128750000Y-108117380D02*
X128892857Y-108165000D01*
X128892857Y-108165000D02*
X128988095Y-108260238D01*
X128988095Y-108260238D02*
X129035714Y-108355476D01*
X129035714Y-108355476D02*
X129083333Y-108545952D01*
X129083333Y-108545952D02*
X129083333Y-108688809D01*
X129083333Y-108688809D02*
X129035714Y-108879285D01*
X129035714Y-108879285D02*
X128988095Y-108974523D01*
X128988095Y-108974523D02*
X128892857Y-109069761D01*
X128892857Y-109069761D02*
X128750000Y-109117380D01*
X128750000Y-109117380D02*
X128511905Y-109117380D01*
X129940476Y-108117380D02*
X129750000Y-108117380D01*
X129750000Y-108117380D02*
X129654762Y-108165000D01*
X129654762Y-108165000D02*
X129607143Y-108212619D01*
X129607143Y-108212619D02*
X129511905Y-108355476D01*
X129511905Y-108355476D02*
X129464286Y-108545952D01*
X129464286Y-108545952D02*
X129464286Y-108926904D01*
X129464286Y-108926904D02*
X129511905Y-109022142D01*
X129511905Y-109022142D02*
X129559524Y-109069761D01*
X129559524Y-109069761D02*
X129654762Y-109117380D01*
X129654762Y-109117380D02*
X129845238Y-109117380D01*
X129845238Y-109117380D02*
X129940476Y-109069761D01*
X129940476Y-109069761D02*
X129988095Y-109022142D01*
X129988095Y-109022142D02*
X130035714Y-108926904D01*
X130035714Y-108926904D02*
X130035714Y-108688809D01*
X130035714Y-108688809D02*
X129988095Y-108593571D01*
X129988095Y-108593571D02*
X129940476Y-108545952D01*
X129940476Y-108545952D02*
X129845238Y-108498333D01*
X129845238Y-108498333D02*
X129654762Y-108498333D01*
X129654762Y-108498333D02*
X129559524Y-108545952D01*
X129559524Y-108545952D02*
X129511905Y-108593571D01*
X129511905Y-108593571D02*
X129464286Y-108688809D01*
X120935714Y-107617380D02*
X120364286Y-107617380D01*
X120650000Y-107617380D02*
X120650000Y-106617380D01*
X120650000Y-106617380D02*
X120554762Y-106760238D01*
X120554762Y-106760238D02*
X120459524Y-106855476D01*
X120459524Y-106855476D02*
X120364286Y-106903095D01*
%TO.C,C8*%
X145058333Y-103342142D02*
X145010714Y-103389761D01*
X145010714Y-103389761D02*
X144867857Y-103437380D01*
X144867857Y-103437380D02*
X144772619Y-103437380D01*
X144772619Y-103437380D02*
X144629762Y-103389761D01*
X144629762Y-103389761D02*
X144534524Y-103294523D01*
X144534524Y-103294523D02*
X144486905Y-103199285D01*
X144486905Y-103199285D02*
X144439286Y-103008809D01*
X144439286Y-103008809D02*
X144439286Y-102865952D01*
X144439286Y-102865952D02*
X144486905Y-102675476D01*
X144486905Y-102675476D02*
X144534524Y-102580238D01*
X144534524Y-102580238D02*
X144629762Y-102485000D01*
X144629762Y-102485000D02*
X144772619Y-102437380D01*
X144772619Y-102437380D02*
X144867857Y-102437380D01*
X144867857Y-102437380D02*
X145010714Y-102485000D01*
X145010714Y-102485000D02*
X145058333Y-102532619D01*
X145629762Y-102865952D02*
X145534524Y-102818333D01*
X145534524Y-102818333D02*
X145486905Y-102770714D01*
X145486905Y-102770714D02*
X145439286Y-102675476D01*
X145439286Y-102675476D02*
X145439286Y-102627857D01*
X145439286Y-102627857D02*
X145486905Y-102532619D01*
X145486905Y-102532619D02*
X145534524Y-102485000D01*
X145534524Y-102485000D02*
X145629762Y-102437380D01*
X145629762Y-102437380D02*
X145820238Y-102437380D01*
X145820238Y-102437380D02*
X145915476Y-102485000D01*
X145915476Y-102485000D02*
X145963095Y-102532619D01*
X145963095Y-102532619D02*
X146010714Y-102627857D01*
X146010714Y-102627857D02*
X146010714Y-102675476D01*
X146010714Y-102675476D02*
X145963095Y-102770714D01*
X145963095Y-102770714D02*
X145915476Y-102818333D01*
X145915476Y-102818333D02*
X145820238Y-102865952D01*
X145820238Y-102865952D02*
X145629762Y-102865952D01*
X145629762Y-102865952D02*
X145534524Y-102913571D01*
X145534524Y-102913571D02*
X145486905Y-102961190D01*
X145486905Y-102961190D02*
X145439286Y-103056428D01*
X145439286Y-103056428D02*
X145439286Y-103246904D01*
X145439286Y-103246904D02*
X145486905Y-103342142D01*
X145486905Y-103342142D02*
X145534524Y-103389761D01*
X145534524Y-103389761D02*
X145629762Y-103437380D01*
X145629762Y-103437380D02*
X145820238Y-103437380D01*
X145820238Y-103437380D02*
X145915476Y-103389761D01*
X145915476Y-103389761D02*
X145963095Y-103342142D01*
X145963095Y-103342142D02*
X146010714Y-103246904D01*
X146010714Y-103246904D02*
X146010714Y-103056428D01*
X146010714Y-103056428D02*
X145963095Y-102961190D01*
X145963095Y-102961190D02*
X145915476Y-102913571D01*
X145915476Y-102913571D02*
X145820238Y-102865952D01*
%TO.C,C19*%
X154582142Y-82042142D02*
X154534523Y-82089761D01*
X154534523Y-82089761D02*
X154391666Y-82137380D01*
X154391666Y-82137380D02*
X154296428Y-82137380D01*
X154296428Y-82137380D02*
X154153571Y-82089761D01*
X154153571Y-82089761D02*
X154058333Y-81994523D01*
X154058333Y-81994523D02*
X154010714Y-81899285D01*
X154010714Y-81899285D02*
X153963095Y-81708809D01*
X153963095Y-81708809D02*
X153963095Y-81565952D01*
X153963095Y-81565952D02*
X154010714Y-81375476D01*
X154010714Y-81375476D02*
X154058333Y-81280238D01*
X154058333Y-81280238D02*
X154153571Y-81185000D01*
X154153571Y-81185000D02*
X154296428Y-81137380D01*
X154296428Y-81137380D02*
X154391666Y-81137380D01*
X154391666Y-81137380D02*
X154534523Y-81185000D01*
X154534523Y-81185000D02*
X154582142Y-81232619D01*
X155534523Y-82137380D02*
X154963095Y-82137380D01*
X155248809Y-82137380D02*
X155248809Y-81137380D01*
X155248809Y-81137380D02*
X155153571Y-81280238D01*
X155153571Y-81280238D02*
X155058333Y-81375476D01*
X155058333Y-81375476D02*
X154963095Y-81423095D01*
X156010714Y-82137380D02*
X156201190Y-82137380D01*
X156201190Y-82137380D02*
X156296428Y-82089761D01*
X156296428Y-82089761D02*
X156344047Y-82042142D01*
X156344047Y-82042142D02*
X156439285Y-81899285D01*
X156439285Y-81899285D02*
X156486904Y-81708809D01*
X156486904Y-81708809D02*
X156486904Y-81327857D01*
X156486904Y-81327857D02*
X156439285Y-81232619D01*
X156439285Y-81232619D02*
X156391666Y-81185000D01*
X156391666Y-81185000D02*
X156296428Y-81137380D01*
X156296428Y-81137380D02*
X156105952Y-81137380D01*
X156105952Y-81137380D02*
X156010714Y-81185000D01*
X156010714Y-81185000D02*
X155963095Y-81232619D01*
X155963095Y-81232619D02*
X155915476Y-81327857D01*
X155915476Y-81327857D02*
X155915476Y-81565952D01*
X155915476Y-81565952D02*
X155963095Y-81661190D01*
X155963095Y-81661190D02*
X156010714Y-81708809D01*
X156010714Y-81708809D02*
X156105952Y-81756428D01*
X156105952Y-81756428D02*
X156296428Y-81756428D01*
X156296428Y-81756428D02*
X156391666Y-81708809D01*
X156391666Y-81708809D02*
X156439285Y-81661190D01*
X156439285Y-81661190D02*
X156486904Y-81565952D01*
%TO.C,D25*%
X128585714Y-78167380D02*
X128585714Y-77167380D01*
X128585714Y-77167380D02*
X128823809Y-77167380D01*
X128823809Y-77167380D02*
X128966666Y-77215000D01*
X128966666Y-77215000D02*
X129061904Y-77310238D01*
X129061904Y-77310238D02*
X129109523Y-77405476D01*
X129109523Y-77405476D02*
X129157142Y-77595952D01*
X129157142Y-77595952D02*
X129157142Y-77738809D01*
X129157142Y-77738809D02*
X129109523Y-77929285D01*
X129109523Y-77929285D02*
X129061904Y-78024523D01*
X129061904Y-78024523D02*
X128966666Y-78119761D01*
X128966666Y-78119761D02*
X128823809Y-78167380D01*
X128823809Y-78167380D02*
X128585714Y-78167380D01*
X129538095Y-77262619D02*
X129585714Y-77215000D01*
X129585714Y-77215000D02*
X129680952Y-77167380D01*
X129680952Y-77167380D02*
X129919047Y-77167380D01*
X129919047Y-77167380D02*
X130014285Y-77215000D01*
X130014285Y-77215000D02*
X130061904Y-77262619D01*
X130061904Y-77262619D02*
X130109523Y-77357857D01*
X130109523Y-77357857D02*
X130109523Y-77453095D01*
X130109523Y-77453095D02*
X130061904Y-77595952D01*
X130061904Y-77595952D02*
X129490476Y-78167380D01*
X129490476Y-78167380D02*
X130109523Y-78167380D01*
X131014285Y-77167380D02*
X130538095Y-77167380D01*
X130538095Y-77167380D02*
X130490476Y-77643571D01*
X130490476Y-77643571D02*
X130538095Y-77595952D01*
X130538095Y-77595952D02*
X130633333Y-77548333D01*
X130633333Y-77548333D02*
X130871428Y-77548333D01*
X130871428Y-77548333D02*
X130966666Y-77595952D01*
X130966666Y-77595952D02*
X131014285Y-77643571D01*
X131014285Y-77643571D02*
X131061904Y-77738809D01*
X131061904Y-77738809D02*
X131061904Y-77976904D01*
X131061904Y-77976904D02*
X131014285Y-78072142D01*
X131014285Y-78072142D02*
X130966666Y-78119761D01*
X130966666Y-78119761D02*
X130871428Y-78167380D01*
X130871428Y-78167380D02*
X130633333Y-78167380D01*
X130633333Y-78167380D02*
X130538095Y-78119761D01*
X130538095Y-78119761D02*
X130490476Y-78072142D01*
X121085714Y-76617380D02*
X120514286Y-76617380D01*
X120800000Y-76617380D02*
X120800000Y-75617380D01*
X120800000Y-75617380D02*
X120704762Y-75760238D01*
X120704762Y-75760238D02*
X120609524Y-75855476D01*
X120609524Y-75855476D02*
X120514286Y-75903095D01*
%TO.C,D13*%
X149035714Y-99117380D02*
X149035714Y-98117380D01*
X149035714Y-98117380D02*
X149273809Y-98117380D01*
X149273809Y-98117380D02*
X149416666Y-98165000D01*
X149416666Y-98165000D02*
X149511904Y-98260238D01*
X149511904Y-98260238D02*
X149559523Y-98355476D01*
X149559523Y-98355476D02*
X149607142Y-98545952D01*
X149607142Y-98545952D02*
X149607142Y-98688809D01*
X149607142Y-98688809D02*
X149559523Y-98879285D01*
X149559523Y-98879285D02*
X149511904Y-98974523D01*
X149511904Y-98974523D02*
X149416666Y-99069761D01*
X149416666Y-99069761D02*
X149273809Y-99117380D01*
X149273809Y-99117380D02*
X149035714Y-99117380D01*
X150559523Y-99117380D02*
X149988095Y-99117380D01*
X150273809Y-99117380D02*
X150273809Y-98117380D01*
X150273809Y-98117380D02*
X150178571Y-98260238D01*
X150178571Y-98260238D02*
X150083333Y-98355476D01*
X150083333Y-98355476D02*
X149988095Y-98403095D01*
X150892857Y-98117380D02*
X151511904Y-98117380D01*
X151511904Y-98117380D02*
X151178571Y-98498333D01*
X151178571Y-98498333D02*
X151321428Y-98498333D01*
X151321428Y-98498333D02*
X151416666Y-98545952D01*
X151416666Y-98545952D02*
X151464285Y-98593571D01*
X151464285Y-98593571D02*
X151511904Y-98688809D01*
X151511904Y-98688809D02*
X151511904Y-98926904D01*
X151511904Y-98926904D02*
X151464285Y-99022142D01*
X151464285Y-99022142D02*
X151416666Y-99069761D01*
X151416666Y-99069761D02*
X151321428Y-99117380D01*
X151321428Y-99117380D02*
X151035714Y-99117380D01*
X151035714Y-99117380D02*
X150940476Y-99069761D01*
X150940476Y-99069761D02*
X150892857Y-99022142D01*
X141435714Y-97417380D02*
X140864286Y-97417380D01*
X141150000Y-97417380D02*
X141150000Y-96417380D01*
X141150000Y-96417380D02*
X141054762Y-96560238D01*
X141054762Y-96560238D02*
X140959524Y-96655476D01*
X140959524Y-96655476D02*
X140864286Y-96703095D01*
%TO.C,C20*%
X164982142Y-82042142D02*
X164934523Y-82089761D01*
X164934523Y-82089761D02*
X164791666Y-82137380D01*
X164791666Y-82137380D02*
X164696428Y-82137380D01*
X164696428Y-82137380D02*
X164553571Y-82089761D01*
X164553571Y-82089761D02*
X164458333Y-81994523D01*
X164458333Y-81994523D02*
X164410714Y-81899285D01*
X164410714Y-81899285D02*
X164363095Y-81708809D01*
X164363095Y-81708809D02*
X164363095Y-81565952D01*
X164363095Y-81565952D02*
X164410714Y-81375476D01*
X164410714Y-81375476D02*
X164458333Y-81280238D01*
X164458333Y-81280238D02*
X164553571Y-81185000D01*
X164553571Y-81185000D02*
X164696428Y-81137380D01*
X164696428Y-81137380D02*
X164791666Y-81137380D01*
X164791666Y-81137380D02*
X164934523Y-81185000D01*
X164934523Y-81185000D02*
X164982142Y-81232619D01*
X165363095Y-81232619D02*
X165410714Y-81185000D01*
X165410714Y-81185000D02*
X165505952Y-81137380D01*
X165505952Y-81137380D02*
X165744047Y-81137380D01*
X165744047Y-81137380D02*
X165839285Y-81185000D01*
X165839285Y-81185000D02*
X165886904Y-81232619D01*
X165886904Y-81232619D02*
X165934523Y-81327857D01*
X165934523Y-81327857D02*
X165934523Y-81423095D01*
X165934523Y-81423095D02*
X165886904Y-81565952D01*
X165886904Y-81565952D02*
X165315476Y-82137380D01*
X165315476Y-82137380D02*
X165934523Y-82137380D01*
X166553571Y-81137380D02*
X166648809Y-81137380D01*
X166648809Y-81137380D02*
X166744047Y-81185000D01*
X166744047Y-81185000D02*
X166791666Y-81232619D01*
X166791666Y-81232619D02*
X166839285Y-81327857D01*
X166839285Y-81327857D02*
X166886904Y-81518333D01*
X166886904Y-81518333D02*
X166886904Y-81756428D01*
X166886904Y-81756428D02*
X166839285Y-81946904D01*
X166839285Y-81946904D02*
X166791666Y-82042142D01*
X166791666Y-82042142D02*
X166744047Y-82089761D01*
X166744047Y-82089761D02*
X166648809Y-82137380D01*
X166648809Y-82137380D02*
X166553571Y-82137380D01*
X166553571Y-82137380D02*
X166458333Y-82089761D01*
X166458333Y-82089761D02*
X166410714Y-82042142D01*
X166410714Y-82042142D02*
X166363095Y-81946904D01*
X166363095Y-81946904D02*
X166315476Y-81756428D01*
X166315476Y-81756428D02*
X166315476Y-81518333D01*
X166315476Y-81518333D02*
X166363095Y-81327857D01*
X166363095Y-81327857D02*
X166410714Y-81232619D01*
X166410714Y-81232619D02*
X166458333Y-81185000D01*
X166458333Y-81185000D02*
X166553571Y-81137380D01*
%TO.C,D22*%
X158985714Y-77967380D02*
X158985714Y-76967380D01*
X158985714Y-76967380D02*
X159223809Y-76967380D01*
X159223809Y-76967380D02*
X159366666Y-77015000D01*
X159366666Y-77015000D02*
X159461904Y-77110238D01*
X159461904Y-77110238D02*
X159509523Y-77205476D01*
X159509523Y-77205476D02*
X159557142Y-77395952D01*
X159557142Y-77395952D02*
X159557142Y-77538809D01*
X159557142Y-77538809D02*
X159509523Y-77729285D01*
X159509523Y-77729285D02*
X159461904Y-77824523D01*
X159461904Y-77824523D02*
X159366666Y-77919761D01*
X159366666Y-77919761D02*
X159223809Y-77967380D01*
X159223809Y-77967380D02*
X158985714Y-77967380D01*
X159938095Y-77062619D02*
X159985714Y-77015000D01*
X159985714Y-77015000D02*
X160080952Y-76967380D01*
X160080952Y-76967380D02*
X160319047Y-76967380D01*
X160319047Y-76967380D02*
X160414285Y-77015000D01*
X160414285Y-77015000D02*
X160461904Y-77062619D01*
X160461904Y-77062619D02*
X160509523Y-77157857D01*
X160509523Y-77157857D02*
X160509523Y-77253095D01*
X160509523Y-77253095D02*
X160461904Y-77395952D01*
X160461904Y-77395952D02*
X159890476Y-77967380D01*
X159890476Y-77967380D02*
X160509523Y-77967380D01*
X160890476Y-77062619D02*
X160938095Y-77015000D01*
X160938095Y-77015000D02*
X161033333Y-76967380D01*
X161033333Y-76967380D02*
X161271428Y-76967380D01*
X161271428Y-76967380D02*
X161366666Y-77015000D01*
X161366666Y-77015000D02*
X161414285Y-77062619D01*
X161414285Y-77062619D02*
X161461904Y-77157857D01*
X161461904Y-77157857D02*
X161461904Y-77253095D01*
X161461904Y-77253095D02*
X161414285Y-77395952D01*
X161414285Y-77395952D02*
X160842857Y-77967380D01*
X160842857Y-77967380D02*
X161461904Y-77967380D01*
X151485714Y-76317380D02*
X150914286Y-76317380D01*
X151200000Y-76317380D02*
X151200000Y-75317380D01*
X151200000Y-75317380D02*
X151104762Y-75460238D01*
X151104762Y-75460238D02*
X151009524Y-75555476D01*
X151009524Y-75555476D02*
X150914286Y-75603095D01*
%TO.C,C11*%
X165182142Y-93042142D02*
X165134523Y-93089761D01*
X165134523Y-93089761D02*
X164991666Y-93137380D01*
X164991666Y-93137380D02*
X164896428Y-93137380D01*
X164896428Y-93137380D02*
X164753571Y-93089761D01*
X164753571Y-93089761D02*
X164658333Y-92994523D01*
X164658333Y-92994523D02*
X164610714Y-92899285D01*
X164610714Y-92899285D02*
X164563095Y-92708809D01*
X164563095Y-92708809D02*
X164563095Y-92565952D01*
X164563095Y-92565952D02*
X164610714Y-92375476D01*
X164610714Y-92375476D02*
X164658333Y-92280238D01*
X164658333Y-92280238D02*
X164753571Y-92185000D01*
X164753571Y-92185000D02*
X164896428Y-92137380D01*
X164896428Y-92137380D02*
X164991666Y-92137380D01*
X164991666Y-92137380D02*
X165134523Y-92185000D01*
X165134523Y-92185000D02*
X165182142Y-92232619D01*
X166134523Y-93137380D02*
X165563095Y-93137380D01*
X165848809Y-93137380D02*
X165848809Y-92137380D01*
X165848809Y-92137380D02*
X165753571Y-92280238D01*
X165753571Y-92280238D02*
X165658333Y-92375476D01*
X165658333Y-92375476D02*
X165563095Y-92423095D01*
X167086904Y-93137380D02*
X166515476Y-93137380D01*
X166801190Y-93137380D02*
X166801190Y-92137380D01*
X166801190Y-92137380D02*
X166705952Y-92280238D01*
X166705952Y-92280238D02*
X166610714Y-92375476D01*
X166610714Y-92375476D02*
X166515476Y-92423095D01*
%TO.C,D3*%
X149011905Y-119117380D02*
X149011905Y-118117380D01*
X149011905Y-118117380D02*
X149250000Y-118117380D01*
X149250000Y-118117380D02*
X149392857Y-118165000D01*
X149392857Y-118165000D02*
X149488095Y-118260238D01*
X149488095Y-118260238D02*
X149535714Y-118355476D01*
X149535714Y-118355476D02*
X149583333Y-118545952D01*
X149583333Y-118545952D02*
X149583333Y-118688809D01*
X149583333Y-118688809D02*
X149535714Y-118879285D01*
X149535714Y-118879285D02*
X149488095Y-118974523D01*
X149488095Y-118974523D02*
X149392857Y-119069761D01*
X149392857Y-119069761D02*
X149250000Y-119117380D01*
X149250000Y-119117380D02*
X149011905Y-119117380D01*
X149916667Y-118117380D02*
X150535714Y-118117380D01*
X150535714Y-118117380D02*
X150202381Y-118498333D01*
X150202381Y-118498333D02*
X150345238Y-118498333D01*
X150345238Y-118498333D02*
X150440476Y-118545952D01*
X150440476Y-118545952D02*
X150488095Y-118593571D01*
X150488095Y-118593571D02*
X150535714Y-118688809D01*
X150535714Y-118688809D02*
X150535714Y-118926904D01*
X150535714Y-118926904D02*
X150488095Y-119022142D01*
X150488095Y-119022142D02*
X150440476Y-119069761D01*
X150440476Y-119069761D02*
X150345238Y-119117380D01*
X150345238Y-119117380D02*
X150059524Y-119117380D01*
X150059524Y-119117380D02*
X149964286Y-119069761D01*
X149964286Y-119069761D02*
X149916667Y-119022142D01*
X141435714Y-117417380D02*
X140864286Y-117417380D01*
X141150000Y-117417380D02*
X141150000Y-116417380D01*
X141150000Y-116417380D02*
X141054762Y-116560238D01*
X141054762Y-116560238D02*
X140959524Y-116655476D01*
X140959524Y-116655476D02*
X140864286Y-116703095D01*
%TO.C,D21*%
X169185714Y-77967380D02*
X169185714Y-76967380D01*
X169185714Y-76967380D02*
X169423809Y-76967380D01*
X169423809Y-76967380D02*
X169566666Y-77015000D01*
X169566666Y-77015000D02*
X169661904Y-77110238D01*
X169661904Y-77110238D02*
X169709523Y-77205476D01*
X169709523Y-77205476D02*
X169757142Y-77395952D01*
X169757142Y-77395952D02*
X169757142Y-77538809D01*
X169757142Y-77538809D02*
X169709523Y-77729285D01*
X169709523Y-77729285D02*
X169661904Y-77824523D01*
X169661904Y-77824523D02*
X169566666Y-77919761D01*
X169566666Y-77919761D02*
X169423809Y-77967380D01*
X169423809Y-77967380D02*
X169185714Y-77967380D01*
X170138095Y-77062619D02*
X170185714Y-77015000D01*
X170185714Y-77015000D02*
X170280952Y-76967380D01*
X170280952Y-76967380D02*
X170519047Y-76967380D01*
X170519047Y-76967380D02*
X170614285Y-77015000D01*
X170614285Y-77015000D02*
X170661904Y-77062619D01*
X170661904Y-77062619D02*
X170709523Y-77157857D01*
X170709523Y-77157857D02*
X170709523Y-77253095D01*
X170709523Y-77253095D02*
X170661904Y-77395952D01*
X170661904Y-77395952D02*
X170090476Y-77967380D01*
X170090476Y-77967380D02*
X170709523Y-77967380D01*
X171661904Y-77967380D02*
X171090476Y-77967380D01*
X171376190Y-77967380D02*
X171376190Y-76967380D01*
X171376190Y-76967380D02*
X171280952Y-77110238D01*
X171280952Y-77110238D02*
X171185714Y-77205476D01*
X171185714Y-77205476D02*
X171090476Y-77253095D01*
X161685714Y-76317380D02*
X161114286Y-76317380D01*
X161400000Y-76317380D02*
X161400000Y-75317380D01*
X161400000Y-75317380D02*
X161304762Y-75460238D01*
X161304762Y-75460238D02*
X161209524Y-75555476D01*
X161209524Y-75555476D02*
X161114286Y-75603095D01*
%TO.C,D5*%
X128761905Y-118867380D02*
X128761905Y-117867380D01*
X128761905Y-117867380D02*
X129000000Y-117867380D01*
X129000000Y-117867380D02*
X129142857Y-117915000D01*
X129142857Y-117915000D02*
X129238095Y-118010238D01*
X129238095Y-118010238D02*
X129285714Y-118105476D01*
X129285714Y-118105476D02*
X129333333Y-118295952D01*
X129333333Y-118295952D02*
X129333333Y-118438809D01*
X129333333Y-118438809D02*
X129285714Y-118629285D01*
X129285714Y-118629285D02*
X129238095Y-118724523D01*
X129238095Y-118724523D02*
X129142857Y-118819761D01*
X129142857Y-118819761D02*
X129000000Y-118867380D01*
X129000000Y-118867380D02*
X128761905Y-118867380D01*
X130238095Y-117867380D02*
X129761905Y-117867380D01*
X129761905Y-117867380D02*
X129714286Y-118343571D01*
X129714286Y-118343571D02*
X129761905Y-118295952D01*
X129761905Y-118295952D02*
X129857143Y-118248333D01*
X129857143Y-118248333D02*
X130095238Y-118248333D01*
X130095238Y-118248333D02*
X130190476Y-118295952D01*
X130190476Y-118295952D02*
X130238095Y-118343571D01*
X130238095Y-118343571D02*
X130285714Y-118438809D01*
X130285714Y-118438809D02*
X130285714Y-118676904D01*
X130285714Y-118676904D02*
X130238095Y-118772142D01*
X130238095Y-118772142D02*
X130190476Y-118819761D01*
X130190476Y-118819761D02*
X130095238Y-118867380D01*
X130095238Y-118867380D02*
X129857143Y-118867380D01*
X129857143Y-118867380D02*
X129761905Y-118819761D01*
X129761905Y-118819761D02*
X129714286Y-118772142D01*
X121185714Y-117367380D02*
X120614286Y-117367380D01*
X120900000Y-117367380D02*
X120900000Y-116367380D01*
X120900000Y-116367380D02*
X120804762Y-116510238D01*
X120804762Y-116510238D02*
X120709524Y-116605476D01*
X120709524Y-116605476D02*
X120614286Y-116653095D01*
%TO.C,D24*%
X138985714Y-78167380D02*
X138985714Y-77167380D01*
X138985714Y-77167380D02*
X139223809Y-77167380D01*
X139223809Y-77167380D02*
X139366666Y-77215000D01*
X139366666Y-77215000D02*
X139461904Y-77310238D01*
X139461904Y-77310238D02*
X139509523Y-77405476D01*
X139509523Y-77405476D02*
X139557142Y-77595952D01*
X139557142Y-77595952D02*
X139557142Y-77738809D01*
X139557142Y-77738809D02*
X139509523Y-77929285D01*
X139509523Y-77929285D02*
X139461904Y-78024523D01*
X139461904Y-78024523D02*
X139366666Y-78119761D01*
X139366666Y-78119761D02*
X139223809Y-78167380D01*
X139223809Y-78167380D02*
X138985714Y-78167380D01*
X139938095Y-77262619D02*
X139985714Y-77215000D01*
X139985714Y-77215000D02*
X140080952Y-77167380D01*
X140080952Y-77167380D02*
X140319047Y-77167380D01*
X140319047Y-77167380D02*
X140414285Y-77215000D01*
X140414285Y-77215000D02*
X140461904Y-77262619D01*
X140461904Y-77262619D02*
X140509523Y-77357857D01*
X140509523Y-77357857D02*
X140509523Y-77453095D01*
X140509523Y-77453095D02*
X140461904Y-77595952D01*
X140461904Y-77595952D02*
X139890476Y-78167380D01*
X139890476Y-78167380D02*
X140509523Y-78167380D01*
X141366666Y-77500714D02*
X141366666Y-78167380D01*
X141128571Y-77119761D02*
X140890476Y-77834047D01*
X140890476Y-77834047D02*
X141509523Y-77834047D01*
X131485714Y-76617380D02*
X130914286Y-76617380D01*
X131200000Y-76617380D02*
X131200000Y-75617380D01*
X131200000Y-75617380D02*
X131104762Y-75760238D01*
X131104762Y-75760238D02*
X131009524Y-75855476D01*
X131009524Y-75855476D02*
X130914286Y-75903095D01*
%TO.C,C2*%
X155308333Y-113092142D02*
X155260714Y-113139761D01*
X155260714Y-113139761D02*
X155117857Y-113187380D01*
X155117857Y-113187380D02*
X155022619Y-113187380D01*
X155022619Y-113187380D02*
X154879762Y-113139761D01*
X154879762Y-113139761D02*
X154784524Y-113044523D01*
X154784524Y-113044523D02*
X154736905Y-112949285D01*
X154736905Y-112949285D02*
X154689286Y-112758809D01*
X154689286Y-112758809D02*
X154689286Y-112615952D01*
X154689286Y-112615952D02*
X154736905Y-112425476D01*
X154736905Y-112425476D02*
X154784524Y-112330238D01*
X154784524Y-112330238D02*
X154879762Y-112235000D01*
X154879762Y-112235000D02*
X155022619Y-112187380D01*
X155022619Y-112187380D02*
X155117857Y-112187380D01*
X155117857Y-112187380D02*
X155260714Y-112235000D01*
X155260714Y-112235000D02*
X155308333Y-112282619D01*
X155689286Y-112282619D02*
X155736905Y-112235000D01*
X155736905Y-112235000D02*
X155832143Y-112187380D01*
X155832143Y-112187380D02*
X156070238Y-112187380D01*
X156070238Y-112187380D02*
X156165476Y-112235000D01*
X156165476Y-112235000D02*
X156213095Y-112282619D01*
X156213095Y-112282619D02*
X156260714Y-112377857D01*
X156260714Y-112377857D02*
X156260714Y-112473095D01*
X156260714Y-112473095D02*
X156213095Y-112615952D01*
X156213095Y-112615952D02*
X155641667Y-113187380D01*
X155641667Y-113187380D02*
X156260714Y-113187380D01*
%TO.C,D17*%
X138985714Y-87967380D02*
X138985714Y-86967380D01*
X138985714Y-86967380D02*
X139223809Y-86967380D01*
X139223809Y-86967380D02*
X139366666Y-87015000D01*
X139366666Y-87015000D02*
X139461904Y-87110238D01*
X139461904Y-87110238D02*
X139509523Y-87205476D01*
X139509523Y-87205476D02*
X139557142Y-87395952D01*
X139557142Y-87395952D02*
X139557142Y-87538809D01*
X139557142Y-87538809D02*
X139509523Y-87729285D01*
X139509523Y-87729285D02*
X139461904Y-87824523D01*
X139461904Y-87824523D02*
X139366666Y-87919761D01*
X139366666Y-87919761D02*
X139223809Y-87967380D01*
X139223809Y-87967380D02*
X138985714Y-87967380D01*
X140509523Y-87967380D02*
X139938095Y-87967380D01*
X140223809Y-87967380D02*
X140223809Y-86967380D01*
X140223809Y-86967380D02*
X140128571Y-87110238D01*
X140128571Y-87110238D02*
X140033333Y-87205476D01*
X140033333Y-87205476D02*
X139938095Y-87253095D01*
X140842857Y-86967380D02*
X141509523Y-86967380D01*
X141509523Y-86967380D02*
X141080952Y-87967380D01*
X131485714Y-86517380D02*
X130914286Y-86517380D01*
X131200000Y-86517380D02*
X131200000Y-85517380D01*
X131200000Y-85517380D02*
X131104762Y-85660238D01*
X131104762Y-85660238D02*
X131009524Y-85755476D01*
X131009524Y-85755476D02*
X130914286Y-85803095D01*
%TO.C,D12*%
X159035714Y-99117380D02*
X159035714Y-98117380D01*
X159035714Y-98117380D02*
X159273809Y-98117380D01*
X159273809Y-98117380D02*
X159416666Y-98165000D01*
X159416666Y-98165000D02*
X159511904Y-98260238D01*
X159511904Y-98260238D02*
X159559523Y-98355476D01*
X159559523Y-98355476D02*
X159607142Y-98545952D01*
X159607142Y-98545952D02*
X159607142Y-98688809D01*
X159607142Y-98688809D02*
X159559523Y-98879285D01*
X159559523Y-98879285D02*
X159511904Y-98974523D01*
X159511904Y-98974523D02*
X159416666Y-99069761D01*
X159416666Y-99069761D02*
X159273809Y-99117380D01*
X159273809Y-99117380D02*
X159035714Y-99117380D01*
X160559523Y-99117380D02*
X159988095Y-99117380D01*
X160273809Y-99117380D02*
X160273809Y-98117380D01*
X160273809Y-98117380D02*
X160178571Y-98260238D01*
X160178571Y-98260238D02*
X160083333Y-98355476D01*
X160083333Y-98355476D02*
X159988095Y-98403095D01*
X160940476Y-98212619D02*
X160988095Y-98165000D01*
X160988095Y-98165000D02*
X161083333Y-98117380D01*
X161083333Y-98117380D02*
X161321428Y-98117380D01*
X161321428Y-98117380D02*
X161416666Y-98165000D01*
X161416666Y-98165000D02*
X161464285Y-98212619D01*
X161464285Y-98212619D02*
X161511904Y-98307857D01*
X161511904Y-98307857D02*
X161511904Y-98403095D01*
X161511904Y-98403095D02*
X161464285Y-98545952D01*
X161464285Y-98545952D02*
X160892857Y-99117380D01*
X160892857Y-99117380D02*
X161511904Y-99117380D01*
X151435714Y-97417380D02*
X150864286Y-97417380D01*
X151150000Y-97417380D02*
X151150000Y-96417380D01*
X151150000Y-96417380D02*
X151054762Y-96560238D01*
X151054762Y-96560238D02*
X150959524Y-96655476D01*
X150959524Y-96655476D02*
X150864286Y-96703095D01*
%TO.C,C9*%
X155308333Y-103342142D02*
X155260714Y-103389761D01*
X155260714Y-103389761D02*
X155117857Y-103437380D01*
X155117857Y-103437380D02*
X155022619Y-103437380D01*
X155022619Y-103437380D02*
X154879762Y-103389761D01*
X154879762Y-103389761D02*
X154784524Y-103294523D01*
X154784524Y-103294523D02*
X154736905Y-103199285D01*
X154736905Y-103199285D02*
X154689286Y-103008809D01*
X154689286Y-103008809D02*
X154689286Y-102865952D01*
X154689286Y-102865952D02*
X154736905Y-102675476D01*
X154736905Y-102675476D02*
X154784524Y-102580238D01*
X154784524Y-102580238D02*
X154879762Y-102485000D01*
X154879762Y-102485000D02*
X155022619Y-102437380D01*
X155022619Y-102437380D02*
X155117857Y-102437380D01*
X155117857Y-102437380D02*
X155260714Y-102485000D01*
X155260714Y-102485000D02*
X155308333Y-102532619D01*
X155784524Y-103437380D02*
X155975000Y-103437380D01*
X155975000Y-103437380D02*
X156070238Y-103389761D01*
X156070238Y-103389761D02*
X156117857Y-103342142D01*
X156117857Y-103342142D02*
X156213095Y-103199285D01*
X156213095Y-103199285D02*
X156260714Y-103008809D01*
X156260714Y-103008809D02*
X156260714Y-102627857D01*
X156260714Y-102627857D02*
X156213095Y-102532619D01*
X156213095Y-102532619D02*
X156165476Y-102485000D01*
X156165476Y-102485000D02*
X156070238Y-102437380D01*
X156070238Y-102437380D02*
X155879762Y-102437380D01*
X155879762Y-102437380D02*
X155784524Y-102485000D01*
X155784524Y-102485000D02*
X155736905Y-102532619D01*
X155736905Y-102532619D02*
X155689286Y-102627857D01*
X155689286Y-102627857D02*
X155689286Y-102865952D01*
X155689286Y-102865952D02*
X155736905Y-102961190D01*
X155736905Y-102961190D02*
X155784524Y-103008809D01*
X155784524Y-103008809D02*
X155879762Y-103056428D01*
X155879762Y-103056428D02*
X156070238Y-103056428D01*
X156070238Y-103056428D02*
X156165476Y-103008809D01*
X156165476Y-103008809D02*
X156213095Y-102961190D01*
X156213095Y-102961190D02*
X156260714Y-102865952D01*
%TO.C,C16*%
X129182142Y-82242142D02*
X129134523Y-82289761D01*
X129134523Y-82289761D02*
X128991666Y-82337380D01*
X128991666Y-82337380D02*
X128896428Y-82337380D01*
X128896428Y-82337380D02*
X128753571Y-82289761D01*
X128753571Y-82289761D02*
X128658333Y-82194523D01*
X128658333Y-82194523D02*
X128610714Y-82099285D01*
X128610714Y-82099285D02*
X128563095Y-81908809D01*
X128563095Y-81908809D02*
X128563095Y-81765952D01*
X128563095Y-81765952D02*
X128610714Y-81575476D01*
X128610714Y-81575476D02*
X128658333Y-81480238D01*
X128658333Y-81480238D02*
X128753571Y-81385000D01*
X128753571Y-81385000D02*
X128896428Y-81337380D01*
X128896428Y-81337380D02*
X128991666Y-81337380D01*
X128991666Y-81337380D02*
X129134523Y-81385000D01*
X129134523Y-81385000D02*
X129182142Y-81432619D01*
X130134523Y-82337380D02*
X129563095Y-82337380D01*
X129848809Y-82337380D02*
X129848809Y-81337380D01*
X129848809Y-81337380D02*
X129753571Y-81480238D01*
X129753571Y-81480238D02*
X129658333Y-81575476D01*
X129658333Y-81575476D02*
X129563095Y-81623095D01*
X130991666Y-81337380D02*
X130801190Y-81337380D01*
X130801190Y-81337380D02*
X130705952Y-81385000D01*
X130705952Y-81385000D02*
X130658333Y-81432619D01*
X130658333Y-81432619D02*
X130563095Y-81575476D01*
X130563095Y-81575476D02*
X130515476Y-81765952D01*
X130515476Y-81765952D02*
X130515476Y-82146904D01*
X130515476Y-82146904D02*
X130563095Y-82242142D01*
X130563095Y-82242142D02*
X130610714Y-82289761D01*
X130610714Y-82289761D02*
X130705952Y-82337380D01*
X130705952Y-82337380D02*
X130896428Y-82337380D01*
X130896428Y-82337380D02*
X130991666Y-82289761D01*
X130991666Y-82289761D02*
X131039285Y-82242142D01*
X131039285Y-82242142D02*
X131086904Y-82146904D01*
X131086904Y-82146904D02*
X131086904Y-81908809D01*
X131086904Y-81908809D02*
X131039285Y-81813571D01*
X131039285Y-81813571D02*
X130991666Y-81765952D01*
X130991666Y-81765952D02*
X130896428Y-81718333D01*
X130896428Y-81718333D02*
X130705952Y-81718333D01*
X130705952Y-81718333D02*
X130610714Y-81765952D01*
X130610714Y-81765952D02*
X130563095Y-81813571D01*
X130563095Y-81813571D02*
X130515476Y-81908809D01*
%TO.C,C21*%
X164957142Y-72042142D02*
X164909523Y-72089761D01*
X164909523Y-72089761D02*
X164766666Y-72137380D01*
X164766666Y-72137380D02*
X164671428Y-72137380D01*
X164671428Y-72137380D02*
X164528571Y-72089761D01*
X164528571Y-72089761D02*
X164433333Y-71994523D01*
X164433333Y-71994523D02*
X164385714Y-71899285D01*
X164385714Y-71899285D02*
X164338095Y-71708809D01*
X164338095Y-71708809D02*
X164338095Y-71565952D01*
X164338095Y-71565952D02*
X164385714Y-71375476D01*
X164385714Y-71375476D02*
X164433333Y-71280238D01*
X164433333Y-71280238D02*
X164528571Y-71185000D01*
X164528571Y-71185000D02*
X164671428Y-71137380D01*
X164671428Y-71137380D02*
X164766666Y-71137380D01*
X164766666Y-71137380D02*
X164909523Y-71185000D01*
X164909523Y-71185000D02*
X164957142Y-71232619D01*
X165338095Y-71232619D02*
X165385714Y-71185000D01*
X165385714Y-71185000D02*
X165480952Y-71137380D01*
X165480952Y-71137380D02*
X165719047Y-71137380D01*
X165719047Y-71137380D02*
X165814285Y-71185000D01*
X165814285Y-71185000D02*
X165861904Y-71232619D01*
X165861904Y-71232619D02*
X165909523Y-71327857D01*
X165909523Y-71327857D02*
X165909523Y-71423095D01*
X165909523Y-71423095D02*
X165861904Y-71565952D01*
X165861904Y-71565952D02*
X165290476Y-72137380D01*
X165290476Y-72137380D02*
X165909523Y-72137380D01*
X166861904Y-72137380D02*
X166290476Y-72137380D01*
X166576190Y-72137380D02*
X166576190Y-71137380D01*
X166576190Y-71137380D02*
X166480952Y-71280238D01*
X166480952Y-71280238D02*
X166385714Y-71375476D01*
X166385714Y-71375476D02*
X166290476Y-71423095D01*
%TO.C,C10*%
X159582142Y-103242142D02*
X159534523Y-103289761D01*
X159534523Y-103289761D02*
X159391666Y-103337380D01*
X159391666Y-103337380D02*
X159296428Y-103337380D01*
X159296428Y-103337380D02*
X159153571Y-103289761D01*
X159153571Y-103289761D02*
X159058333Y-103194523D01*
X159058333Y-103194523D02*
X159010714Y-103099285D01*
X159010714Y-103099285D02*
X158963095Y-102908809D01*
X158963095Y-102908809D02*
X158963095Y-102765952D01*
X158963095Y-102765952D02*
X159010714Y-102575476D01*
X159010714Y-102575476D02*
X159058333Y-102480238D01*
X159058333Y-102480238D02*
X159153571Y-102385000D01*
X159153571Y-102385000D02*
X159296428Y-102337380D01*
X159296428Y-102337380D02*
X159391666Y-102337380D01*
X159391666Y-102337380D02*
X159534523Y-102385000D01*
X159534523Y-102385000D02*
X159582142Y-102432619D01*
X160534523Y-103337380D02*
X159963095Y-103337380D01*
X160248809Y-103337380D02*
X160248809Y-102337380D01*
X160248809Y-102337380D02*
X160153571Y-102480238D01*
X160153571Y-102480238D02*
X160058333Y-102575476D01*
X160058333Y-102575476D02*
X159963095Y-102623095D01*
X161153571Y-102337380D02*
X161248809Y-102337380D01*
X161248809Y-102337380D02*
X161344047Y-102385000D01*
X161344047Y-102385000D02*
X161391666Y-102432619D01*
X161391666Y-102432619D02*
X161439285Y-102527857D01*
X161439285Y-102527857D02*
X161486904Y-102718333D01*
X161486904Y-102718333D02*
X161486904Y-102956428D01*
X161486904Y-102956428D02*
X161439285Y-103146904D01*
X161439285Y-103146904D02*
X161391666Y-103242142D01*
X161391666Y-103242142D02*
X161344047Y-103289761D01*
X161344047Y-103289761D02*
X161248809Y-103337380D01*
X161248809Y-103337380D02*
X161153571Y-103337380D01*
X161153571Y-103337380D02*
X161058333Y-103289761D01*
X161058333Y-103289761D02*
X161010714Y-103242142D01*
X161010714Y-103242142D02*
X160963095Y-103146904D01*
X160963095Y-103146904D02*
X160915476Y-102956428D01*
X160915476Y-102956428D02*
X160915476Y-102718333D01*
X160915476Y-102718333D02*
X160963095Y-102527857D01*
X160963095Y-102527857D02*
X161010714Y-102432619D01*
X161010714Y-102432619D02*
X161058333Y-102385000D01*
X161058333Y-102385000D02*
X161153571Y-102337380D01*
%TO.C,D8*%
X148761905Y-109117380D02*
X148761905Y-108117380D01*
X148761905Y-108117380D02*
X149000000Y-108117380D01*
X149000000Y-108117380D02*
X149142857Y-108165000D01*
X149142857Y-108165000D02*
X149238095Y-108260238D01*
X149238095Y-108260238D02*
X149285714Y-108355476D01*
X149285714Y-108355476D02*
X149333333Y-108545952D01*
X149333333Y-108545952D02*
X149333333Y-108688809D01*
X149333333Y-108688809D02*
X149285714Y-108879285D01*
X149285714Y-108879285D02*
X149238095Y-108974523D01*
X149238095Y-108974523D02*
X149142857Y-109069761D01*
X149142857Y-109069761D02*
X149000000Y-109117380D01*
X149000000Y-109117380D02*
X148761905Y-109117380D01*
X149904762Y-108545952D02*
X149809524Y-108498333D01*
X149809524Y-108498333D02*
X149761905Y-108450714D01*
X149761905Y-108450714D02*
X149714286Y-108355476D01*
X149714286Y-108355476D02*
X149714286Y-108307857D01*
X149714286Y-108307857D02*
X149761905Y-108212619D01*
X149761905Y-108212619D02*
X149809524Y-108165000D01*
X149809524Y-108165000D02*
X149904762Y-108117380D01*
X149904762Y-108117380D02*
X150095238Y-108117380D01*
X150095238Y-108117380D02*
X150190476Y-108165000D01*
X150190476Y-108165000D02*
X150238095Y-108212619D01*
X150238095Y-108212619D02*
X150285714Y-108307857D01*
X150285714Y-108307857D02*
X150285714Y-108355476D01*
X150285714Y-108355476D02*
X150238095Y-108450714D01*
X150238095Y-108450714D02*
X150190476Y-108498333D01*
X150190476Y-108498333D02*
X150095238Y-108545952D01*
X150095238Y-108545952D02*
X149904762Y-108545952D01*
X149904762Y-108545952D02*
X149809524Y-108593571D01*
X149809524Y-108593571D02*
X149761905Y-108641190D01*
X149761905Y-108641190D02*
X149714286Y-108736428D01*
X149714286Y-108736428D02*
X149714286Y-108926904D01*
X149714286Y-108926904D02*
X149761905Y-109022142D01*
X149761905Y-109022142D02*
X149809524Y-109069761D01*
X149809524Y-109069761D02*
X149904762Y-109117380D01*
X149904762Y-109117380D02*
X150095238Y-109117380D01*
X150095238Y-109117380D02*
X150190476Y-109069761D01*
X150190476Y-109069761D02*
X150238095Y-109022142D01*
X150238095Y-109022142D02*
X150285714Y-108926904D01*
X150285714Y-108926904D02*
X150285714Y-108736428D01*
X150285714Y-108736428D02*
X150238095Y-108641190D01*
X150238095Y-108641190D02*
X150190476Y-108593571D01*
X150190476Y-108593571D02*
X150095238Y-108545952D01*
X141185714Y-107617380D02*
X140614286Y-107617380D01*
X140900000Y-107617380D02*
X140900000Y-106617380D01*
X140900000Y-106617380D02*
X140804762Y-106760238D01*
X140804762Y-106760238D02*
X140709524Y-106855476D01*
X140709524Y-106855476D02*
X140614286Y-106903095D01*
%TO.C,C13*%
X144782142Y-93042142D02*
X144734523Y-93089761D01*
X144734523Y-93089761D02*
X144591666Y-93137380D01*
X144591666Y-93137380D02*
X144496428Y-93137380D01*
X144496428Y-93137380D02*
X144353571Y-93089761D01*
X144353571Y-93089761D02*
X144258333Y-92994523D01*
X144258333Y-92994523D02*
X144210714Y-92899285D01*
X144210714Y-92899285D02*
X144163095Y-92708809D01*
X144163095Y-92708809D02*
X144163095Y-92565952D01*
X144163095Y-92565952D02*
X144210714Y-92375476D01*
X144210714Y-92375476D02*
X144258333Y-92280238D01*
X144258333Y-92280238D02*
X144353571Y-92185000D01*
X144353571Y-92185000D02*
X144496428Y-92137380D01*
X144496428Y-92137380D02*
X144591666Y-92137380D01*
X144591666Y-92137380D02*
X144734523Y-92185000D01*
X144734523Y-92185000D02*
X144782142Y-92232619D01*
X145734523Y-93137380D02*
X145163095Y-93137380D01*
X145448809Y-93137380D02*
X145448809Y-92137380D01*
X145448809Y-92137380D02*
X145353571Y-92280238D01*
X145353571Y-92280238D02*
X145258333Y-92375476D01*
X145258333Y-92375476D02*
X145163095Y-92423095D01*
X146067857Y-92137380D02*
X146686904Y-92137380D01*
X146686904Y-92137380D02*
X146353571Y-92518333D01*
X146353571Y-92518333D02*
X146496428Y-92518333D01*
X146496428Y-92518333D02*
X146591666Y-92565952D01*
X146591666Y-92565952D02*
X146639285Y-92613571D01*
X146639285Y-92613571D02*
X146686904Y-92708809D01*
X146686904Y-92708809D02*
X146686904Y-92946904D01*
X146686904Y-92946904D02*
X146639285Y-93042142D01*
X146639285Y-93042142D02*
X146591666Y-93089761D01*
X146591666Y-93089761D02*
X146496428Y-93137380D01*
X146496428Y-93137380D02*
X146210714Y-93137380D01*
X146210714Y-93137380D02*
X146115476Y-93089761D01*
X146115476Y-93089761D02*
X146067857Y-93042142D01*
%TO.C,C23*%
X144782142Y-72042142D02*
X144734523Y-72089761D01*
X144734523Y-72089761D02*
X144591666Y-72137380D01*
X144591666Y-72137380D02*
X144496428Y-72137380D01*
X144496428Y-72137380D02*
X144353571Y-72089761D01*
X144353571Y-72089761D02*
X144258333Y-71994523D01*
X144258333Y-71994523D02*
X144210714Y-71899285D01*
X144210714Y-71899285D02*
X144163095Y-71708809D01*
X144163095Y-71708809D02*
X144163095Y-71565952D01*
X144163095Y-71565952D02*
X144210714Y-71375476D01*
X144210714Y-71375476D02*
X144258333Y-71280238D01*
X144258333Y-71280238D02*
X144353571Y-71185000D01*
X144353571Y-71185000D02*
X144496428Y-71137380D01*
X144496428Y-71137380D02*
X144591666Y-71137380D01*
X144591666Y-71137380D02*
X144734523Y-71185000D01*
X144734523Y-71185000D02*
X144782142Y-71232619D01*
X145163095Y-71232619D02*
X145210714Y-71185000D01*
X145210714Y-71185000D02*
X145305952Y-71137380D01*
X145305952Y-71137380D02*
X145544047Y-71137380D01*
X145544047Y-71137380D02*
X145639285Y-71185000D01*
X145639285Y-71185000D02*
X145686904Y-71232619D01*
X145686904Y-71232619D02*
X145734523Y-71327857D01*
X145734523Y-71327857D02*
X145734523Y-71423095D01*
X145734523Y-71423095D02*
X145686904Y-71565952D01*
X145686904Y-71565952D02*
X145115476Y-72137380D01*
X145115476Y-72137380D02*
X145734523Y-72137380D01*
X146067857Y-71137380D02*
X146686904Y-71137380D01*
X146686904Y-71137380D02*
X146353571Y-71518333D01*
X146353571Y-71518333D02*
X146496428Y-71518333D01*
X146496428Y-71518333D02*
X146591666Y-71565952D01*
X146591666Y-71565952D02*
X146639285Y-71613571D01*
X146639285Y-71613571D02*
X146686904Y-71708809D01*
X146686904Y-71708809D02*
X146686904Y-71946904D01*
X146686904Y-71946904D02*
X146639285Y-72042142D01*
X146639285Y-72042142D02*
X146591666Y-72089761D01*
X146591666Y-72089761D02*
X146496428Y-72137380D01*
X146496428Y-72137380D02*
X146210714Y-72137380D01*
X146210714Y-72137380D02*
X146115476Y-72089761D01*
X146115476Y-72089761D02*
X146067857Y-72042142D01*
%TO.C,C17*%
X134982142Y-82042142D02*
X134934523Y-82089761D01*
X134934523Y-82089761D02*
X134791666Y-82137380D01*
X134791666Y-82137380D02*
X134696428Y-82137380D01*
X134696428Y-82137380D02*
X134553571Y-82089761D01*
X134553571Y-82089761D02*
X134458333Y-81994523D01*
X134458333Y-81994523D02*
X134410714Y-81899285D01*
X134410714Y-81899285D02*
X134363095Y-81708809D01*
X134363095Y-81708809D02*
X134363095Y-81565952D01*
X134363095Y-81565952D02*
X134410714Y-81375476D01*
X134410714Y-81375476D02*
X134458333Y-81280238D01*
X134458333Y-81280238D02*
X134553571Y-81185000D01*
X134553571Y-81185000D02*
X134696428Y-81137380D01*
X134696428Y-81137380D02*
X134791666Y-81137380D01*
X134791666Y-81137380D02*
X134934523Y-81185000D01*
X134934523Y-81185000D02*
X134982142Y-81232619D01*
X135934523Y-82137380D02*
X135363095Y-82137380D01*
X135648809Y-82137380D02*
X135648809Y-81137380D01*
X135648809Y-81137380D02*
X135553571Y-81280238D01*
X135553571Y-81280238D02*
X135458333Y-81375476D01*
X135458333Y-81375476D02*
X135363095Y-81423095D01*
X136267857Y-81137380D02*
X136934523Y-81137380D01*
X136934523Y-81137380D02*
X136505952Y-82137380D01*
%TO.C,D2*%
X159011905Y-118867380D02*
X159011905Y-117867380D01*
X159011905Y-117867380D02*
X159250000Y-117867380D01*
X159250000Y-117867380D02*
X159392857Y-117915000D01*
X159392857Y-117915000D02*
X159488095Y-118010238D01*
X159488095Y-118010238D02*
X159535714Y-118105476D01*
X159535714Y-118105476D02*
X159583333Y-118295952D01*
X159583333Y-118295952D02*
X159583333Y-118438809D01*
X159583333Y-118438809D02*
X159535714Y-118629285D01*
X159535714Y-118629285D02*
X159488095Y-118724523D01*
X159488095Y-118724523D02*
X159392857Y-118819761D01*
X159392857Y-118819761D02*
X159250000Y-118867380D01*
X159250000Y-118867380D02*
X159011905Y-118867380D01*
X159964286Y-117962619D02*
X160011905Y-117915000D01*
X160011905Y-117915000D02*
X160107143Y-117867380D01*
X160107143Y-117867380D02*
X160345238Y-117867380D01*
X160345238Y-117867380D02*
X160440476Y-117915000D01*
X160440476Y-117915000D02*
X160488095Y-117962619D01*
X160488095Y-117962619D02*
X160535714Y-118057857D01*
X160535714Y-118057857D02*
X160535714Y-118153095D01*
X160535714Y-118153095D02*
X160488095Y-118295952D01*
X160488095Y-118295952D02*
X159916667Y-118867380D01*
X159916667Y-118867380D02*
X160535714Y-118867380D01*
X151435714Y-117417380D02*
X150864286Y-117417380D01*
X151150000Y-117417380D02*
X151150000Y-116417380D01*
X151150000Y-116417380D02*
X151054762Y-116560238D01*
X151054762Y-116560238D02*
X150959524Y-116655476D01*
X150959524Y-116655476D02*
X150864286Y-116703095D01*
%TO.C,C4*%
X135308333Y-113092142D02*
X135260714Y-113139761D01*
X135260714Y-113139761D02*
X135117857Y-113187380D01*
X135117857Y-113187380D02*
X135022619Y-113187380D01*
X135022619Y-113187380D02*
X134879762Y-113139761D01*
X134879762Y-113139761D02*
X134784524Y-113044523D01*
X134784524Y-113044523D02*
X134736905Y-112949285D01*
X134736905Y-112949285D02*
X134689286Y-112758809D01*
X134689286Y-112758809D02*
X134689286Y-112615952D01*
X134689286Y-112615952D02*
X134736905Y-112425476D01*
X134736905Y-112425476D02*
X134784524Y-112330238D01*
X134784524Y-112330238D02*
X134879762Y-112235000D01*
X134879762Y-112235000D02*
X135022619Y-112187380D01*
X135022619Y-112187380D02*
X135117857Y-112187380D01*
X135117857Y-112187380D02*
X135260714Y-112235000D01*
X135260714Y-112235000D02*
X135308333Y-112282619D01*
X136165476Y-112520714D02*
X136165476Y-113187380D01*
X135927381Y-112139761D02*
X135689286Y-112854047D01*
X135689286Y-112854047D02*
X136308333Y-112854047D01*
%TO.C,D9*%
X159011905Y-109117380D02*
X159011905Y-108117380D01*
X159011905Y-108117380D02*
X159250000Y-108117380D01*
X159250000Y-108117380D02*
X159392857Y-108165000D01*
X159392857Y-108165000D02*
X159488095Y-108260238D01*
X159488095Y-108260238D02*
X159535714Y-108355476D01*
X159535714Y-108355476D02*
X159583333Y-108545952D01*
X159583333Y-108545952D02*
X159583333Y-108688809D01*
X159583333Y-108688809D02*
X159535714Y-108879285D01*
X159535714Y-108879285D02*
X159488095Y-108974523D01*
X159488095Y-108974523D02*
X159392857Y-109069761D01*
X159392857Y-109069761D02*
X159250000Y-109117380D01*
X159250000Y-109117380D02*
X159011905Y-109117380D01*
X160059524Y-109117380D02*
X160250000Y-109117380D01*
X160250000Y-109117380D02*
X160345238Y-109069761D01*
X160345238Y-109069761D02*
X160392857Y-109022142D01*
X160392857Y-109022142D02*
X160488095Y-108879285D01*
X160488095Y-108879285D02*
X160535714Y-108688809D01*
X160535714Y-108688809D02*
X160535714Y-108307857D01*
X160535714Y-108307857D02*
X160488095Y-108212619D01*
X160488095Y-108212619D02*
X160440476Y-108165000D01*
X160440476Y-108165000D02*
X160345238Y-108117380D01*
X160345238Y-108117380D02*
X160154762Y-108117380D01*
X160154762Y-108117380D02*
X160059524Y-108165000D01*
X160059524Y-108165000D02*
X160011905Y-108212619D01*
X160011905Y-108212619D02*
X159964286Y-108307857D01*
X159964286Y-108307857D02*
X159964286Y-108545952D01*
X159964286Y-108545952D02*
X160011905Y-108641190D01*
X160011905Y-108641190D02*
X160059524Y-108688809D01*
X160059524Y-108688809D02*
X160154762Y-108736428D01*
X160154762Y-108736428D02*
X160345238Y-108736428D01*
X160345238Y-108736428D02*
X160440476Y-108688809D01*
X160440476Y-108688809D02*
X160488095Y-108641190D01*
X160488095Y-108641190D02*
X160535714Y-108545952D01*
X151435714Y-107617380D02*
X150864286Y-107617380D01*
X151150000Y-107617380D02*
X151150000Y-106617380D01*
X151150000Y-106617380D02*
X151054762Y-106760238D01*
X151054762Y-106760238D02*
X150959524Y-106855476D01*
X150959524Y-106855476D02*
X150864286Y-106903095D01*
%TO.C,C7*%
X135308333Y-103342142D02*
X135260714Y-103389761D01*
X135260714Y-103389761D02*
X135117857Y-103437380D01*
X135117857Y-103437380D02*
X135022619Y-103437380D01*
X135022619Y-103437380D02*
X134879762Y-103389761D01*
X134879762Y-103389761D02*
X134784524Y-103294523D01*
X134784524Y-103294523D02*
X134736905Y-103199285D01*
X134736905Y-103199285D02*
X134689286Y-103008809D01*
X134689286Y-103008809D02*
X134689286Y-102865952D01*
X134689286Y-102865952D02*
X134736905Y-102675476D01*
X134736905Y-102675476D02*
X134784524Y-102580238D01*
X134784524Y-102580238D02*
X134879762Y-102485000D01*
X134879762Y-102485000D02*
X135022619Y-102437380D01*
X135022619Y-102437380D02*
X135117857Y-102437380D01*
X135117857Y-102437380D02*
X135260714Y-102485000D01*
X135260714Y-102485000D02*
X135308333Y-102532619D01*
X135641667Y-102437380D02*
X136308333Y-102437380D01*
X136308333Y-102437380D02*
X135879762Y-103437380D01*
%TO.C,C6*%
X124808333Y-103342142D02*
X124760714Y-103389761D01*
X124760714Y-103389761D02*
X124617857Y-103437380D01*
X124617857Y-103437380D02*
X124522619Y-103437380D01*
X124522619Y-103437380D02*
X124379762Y-103389761D01*
X124379762Y-103389761D02*
X124284524Y-103294523D01*
X124284524Y-103294523D02*
X124236905Y-103199285D01*
X124236905Y-103199285D02*
X124189286Y-103008809D01*
X124189286Y-103008809D02*
X124189286Y-102865952D01*
X124189286Y-102865952D02*
X124236905Y-102675476D01*
X124236905Y-102675476D02*
X124284524Y-102580238D01*
X124284524Y-102580238D02*
X124379762Y-102485000D01*
X124379762Y-102485000D02*
X124522619Y-102437380D01*
X124522619Y-102437380D02*
X124617857Y-102437380D01*
X124617857Y-102437380D02*
X124760714Y-102485000D01*
X124760714Y-102485000D02*
X124808333Y-102532619D01*
X125665476Y-102437380D02*
X125475000Y-102437380D01*
X125475000Y-102437380D02*
X125379762Y-102485000D01*
X125379762Y-102485000D02*
X125332143Y-102532619D01*
X125332143Y-102532619D02*
X125236905Y-102675476D01*
X125236905Y-102675476D02*
X125189286Y-102865952D01*
X125189286Y-102865952D02*
X125189286Y-103246904D01*
X125189286Y-103246904D02*
X125236905Y-103342142D01*
X125236905Y-103342142D02*
X125284524Y-103389761D01*
X125284524Y-103389761D02*
X125379762Y-103437380D01*
X125379762Y-103437380D02*
X125570238Y-103437380D01*
X125570238Y-103437380D02*
X125665476Y-103389761D01*
X125665476Y-103389761D02*
X125713095Y-103342142D01*
X125713095Y-103342142D02*
X125760714Y-103246904D01*
X125760714Y-103246904D02*
X125760714Y-103008809D01*
X125760714Y-103008809D02*
X125713095Y-102913571D01*
X125713095Y-102913571D02*
X125665476Y-102865952D01*
X125665476Y-102865952D02*
X125570238Y-102818333D01*
X125570238Y-102818333D02*
X125379762Y-102818333D01*
X125379762Y-102818333D02*
X125284524Y-102865952D01*
X125284524Y-102865952D02*
X125236905Y-102913571D01*
X125236905Y-102913571D02*
X125189286Y-103008809D01*
%TO.C,C12*%
X154782142Y-93042142D02*
X154734523Y-93089761D01*
X154734523Y-93089761D02*
X154591666Y-93137380D01*
X154591666Y-93137380D02*
X154496428Y-93137380D01*
X154496428Y-93137380D02*
X154353571Y-93089761D01*
X154353571Y-93089761D02*
X154258333Y-92994523D01*
X154258333Y-92994523D02*
X154210714Y-92899285D01*
X154210714Y-92899285D02*
X154163095Y-92708809D01*
X154163095Y-92708809D02*
X154163095Y-92565952D01*
X154163095Y-92565952D02*
X154210714Y-92375476D01*
X154210714Y-92375476D02*
X154258333Y-92280238D01*
X154258333Y-92280238D02*
X154353571Y-92185000D01*
X154353571Y-92185000D02*
X154496428Y-92137380D01*
X154496428Y-92137380D02*
X154591666Y-92137380D01*
X154591666Y-92137380D02*
X154734523Y-92185000D01*
X154734523Y-92185000D02*
X154782142Y-92232619D01*
X155734523Y-93137380D02*
X155163095Y-93137380D01*
X155448809Y-93137380D02*
X155448809Y-92137380D01*
X155448809Y-92137380D02*
X155353571Y-92280238D01*
X155353571Y-92280238D02*
X155258333Y-92375476D01*
X155258333Y-92375476D02*
X155163095Y-92423095D01*
X156115476Y-92232619D02*
X156163095Y-92185000D01*
X156163095Y-92185000D02*
X156258333Y-92137380D01*
X156258333Y-92137380D02*
X156496428Y-92137380D01*
X156496428Y-92137380D02*
X156591666Y-92185000D01*
X156591666Y-92185000D02*
X156639285Y-92232619D01*
X156639285Y-92232619D02*
X156686904Y-92327857D01*
X156686904Y-92327857D02*
X156686904Y-92423095D01*
X156686904Y-92423095D02*
X156639285Y-92565952D01*
X156639285Y-92565952D02*
X156067857Y-93137380D01*
X156067857Y-93137380D02*
X156686904Y-93137380D01*
%TO.C,C1*%
X165333333Y-113092142D02*
X165285714Y-113139761D01*
X165285714Y-113139761D02*
X165142857Y-113187380D01*
X165142857Y-113187380D02*
X165047619Y-113187380D01*
X165047619Y-113187380D02*
X164904762Y-113139761D01*
X164904762Y-113139761D02*
X164809524Y-113044523D01*
X164809524Y-113044523D02*
X164761905Y-112949285D01*
X164761905Y-112949285D02*
X164714286Y-112758809D01*
X164714286Y-112758809D02*
X164714286Y-112615952D01*
X164714286Y-112615952D02*
X164761905Y-112425476D01*
X164761905Y-112425476D02*
X164809524Y-112330238D01*
X164809524Y-112330238D02*
X164904762Y-112235000D01*
X164904762Y-112235000D02*
X165047619Y-112187380D01*
X165047619Y-112187380D02*
X165142857Y-112187380D01*
X165142857Y-112187380D02*
X165285714Y-112235000D01*
X165285714Y-112235000D02*
X165333333Y-112282619D01*
X166285714Y-113187380D02*
X165714286Y-113187380D01*
X166000000Y-113187380D02*
X166000000Y-112187380D01*
X166000000Y-112187380D02*
X165904762Y-112330238D01*
X165904762Y-112330238D02*
X165809524Y-112425476D01*
X165809524Y-112425476D02*
X165714286Y-112473095D01*
%TO.C,D14*%
X139035714Y-99117380D02*
X139035714Y-98117380D01*
X139035714Y-98117380D02*
X139273809Y-98117380D01*
X139273809Y-98117380D02*
X139416666Y-98165000D01*
X139416666Y-98165000D02*
X139511904Y-98260238D01*
X139511904Y-98260238D02*
X139559523Y-98355476D01*
X139559523Y-98355476D02*
X139607142Y-98545952D01*
X139607142Y-98545952D02*
X139607142Y-98688809D01*
X139607142Y-98688809D02*
X139559523Y-98879285D01*
X139559523Y-98879285D02*
X139511904Y-98974523D01*
X139511904Y-98974523D02*
X139416666Y-99069761D01*
X139416666Y-99069761D02*
X139273809Y-99117380D01*
X139273809Y-99117380D02*
X139035714Y-99117380D01*
X140559523Y-99117380D02*
X139988095Y-99117380D01*
X140273809Y-99117380D02*
X140273809Y-98117380D01*
X140273809Y-98117380D02*
X140178571Y-98260238D01*
X140178571Y-98260238D02*
X140083333Y-98355476D01*
X140083333Y-98355476D02*
X139988095Y-98403095D01*
X141416666Y-98450714D02*
X141416666Y-99117380D01*
X141178571Y-98069761D02*
X140940476Y-98784047D01*
X140940476Y-98784047D02*
X141559523Y-98784047D01*
X131435714Y-97367380D02*
X130864286Y-97367380D01*
X131150000Y-97367380D02*
X131150000Y-96367380D01*
X131150000Y-96367380D02*
X131054762Y-96510238D01*
X131054762Y-96510238D02*
X130959524Y-96605476D01*
X130959524Y-96605476D02*
X130864286Y-96653095D01*
%TO.C,D20*%
X169185714Y-87967380D02*
X169185714Y-86967380D01*
X169185714Y-86967380D02*
X169423809Y-86967380D01*
X169423809Y-86967380D02*
X169566666Y-87015000D01*
X169566666Y-87015000D02*
X169661904Y-87110238D01*
X169661904Y-87110238D02*
X169709523Y-87205476D01*
X169709523Y-87205476D02*
X169757142Y-87395952D01*
X169757142Y-87395952D02*
X169757142Y-87538809D01*
X169757142Y-87538809D02*
X169709523Y-87729285D01*
X169709523Y-87729285D02*
X169661904Y-87824523D01*
X169661904Y-87824523D02*
X169566666Y-87919761D01*
X169566666Y-87919761D02*
X169423809Y-87967380D01*
X169423809Y-87967380D02*
X169185714Y-87967380D01*
X170138095Y-87062619D02*
X170185714Y-87015000D01*
X170185714Y-87015000D02*
X170280952Y-86967380D01*
X170280952Y-86967380D02*
X170519047Y-86967380D01*
X170519047Y-86967380D02*
X170614285Y-87015000D01*
X170614285Y-87015000D02*
X170661904Y-87062619D01*
X170661904Y-87062619D02*
X170709523Y-87157857D01*
X170709523Y-87157857D02*
X170709523Y-87253095D01*
X170709523Y-87253095D02*
X170661904Y-87395952D01*
X170661904Y-87395952D02*
X170090476Y-87967380D01*
X170090476Y-87967380D02*
X170709523Y-87967380D01*
X171328571Y-86967380D02*
X171423809Y-86967380D01*
X171423809Y-86967380D02*
X171519047Y-87015000D01*
X171519047Y-87015000D02*
X171566666Y-87062619D01*
X171566666Y-87062619D02*
X171614285Y-87157857D01*
X171614285Y-87157857D02*
X171661904Y-87348333D01*
X171661904Y-87348333D02*
X171661904Y-87586428D01*
X171661904Y-87586428D02*
X171614285Y-87776904D01*
X171614285Y-87776904D02*
X171566666Y-87872142D01*
X171566666Y-87872142D02*
X171519047Y-87919761D01*
X171519047Y-87919761D02*
X171423809Y-87967380D01*
X171423809Y-87967380D02*
X171328571Y-87967380D01*
X171328571Y-87967380D02*
X171233333Y-87919761D01*
X171233333Y-87919761D02*
X171185714Y-87872142D01*
X171185714Y-87872142D02*
X171138095Y-87776904D01*
X171138095Y-87776904D02*
X171090476Y-87586428D01*
X171090476Y-87586428D02*
X171090476Y-87348333D01*
X171090476Y-87348333D02*
X171138095Y-87157857D01*
X171138095Y-87157857D02*
X171185714Y-87062619D01*
X171185714Y-87062619D02*
X171233333Y-87015000D01*
X171233333Y-87015000D02*
X171328571Y-86967380D01*
X161685714Y-86517380D02*
X161114286Y-86517380D01*
X161400000Y-86517380D02*
X161400000Y-85517380D01*
X161400000Y-85517380D02*
X161304762Y-85660238D01*
X161304762Y-85660238D02*
X161209524Y-85755476D01*
X161209524Y-85755476D02*
X161114286Y-85803095D01*
%TO.C,D11*%
X169285714Y-98867380D02*
X169285714Y-97867380D01*
X169285714Y-97867380D02*
X169523809Y-97867380D01*
X169523809Y-97867380D02*
X169666666Y-97915000D01*
X169666666Y-97915000D02*
X169761904Y-98010238D01*
X169761904Y-98010238D02*
X169809523Y-98105476D01*
X169809523Y-98105476D02*
X169857142Y-98295952D01*
X169857142Y-98295952D02*
X169857142Y-98438809D01*
X169857142Y-98438809D02*
X169809523Y-98629285D01*
X169809523Y-98629285D02*
X169761904Y-98724523D01*
X169761904Y-98724523D02*
X169666666Y-98819761D01*
X169666666Y-98819761D02*
X169523809Y-98867380D01*
X169523809Y-98867380D02*
X169285714Y-98867380D01*
X170809523Y-98867380D02*
X170238095Y-98867380D01*
X170523809Y-98867380D02*
X170523809Y-97867380D01*
X170523809Y-97867380D02*
X170428571Y-98010238D01*
X170428571Y-98010238D02*
X170333333Y-98105476D01*
X170333333Y-98105476D02*
X170238095Y-98153095D01*
X171761904Y-98867380D02*
X171190476Y-98867380D01*
X171476190Y-98867380D02*
X171476190Y-97867380D01*
X171476190Y-97867380D02*
X171380952Y-98010238D01*
X171380952Y-98010238D02*
X171285714Y-98105476D01*
X171285714Y-98105476D02*
X171190476Y-98153095D01*
X161685714Y-97367380D02*
X161114286Y-97367380D01*
X161400000Y-97367380D02*
X161400000Y-96367380D01*
X161400000Y-96367380D02*
X161304762Y-96510238D01*
X161304762Y-96510238D02*
X161209524Y-96605476D01*
X161209524Y-96605476D02*
X161114286Y-96653095D01*
%TO.C,D15*%
X128535714Y-98867380D02*
X128535714Y-97867380D01*
X128535714Y-97867380D02*
X128773809Y-97867380D01*
X128773809Y-97867380D02*
X128916666Y-97915000D01*
X128916666Y-97915000D02*
X129011904Y-98010238D01*
X129011904Y-98010238D02*
X129059523Y-98105476D01*
X129059523Y-98105476D02*
X129107142Y-98295952D01*
X129107142Y-98295952D02*
X129107142Y-98438809D01*
X129107142Y-98438809D02*
X129059523Y-98629285D01*
X129059523Y-98629285D02*
X129011904Y-98724523D01*
X129011904Y-98724523D02*
X128916666Y-98819761D01*
X128916666Y-98819761D02*
X128773809Y-98867380D01*
X128773809Y-98867380D02*
X128535714Y-98867380D01*
X130059523Y-98867380D02*
X129488095Y-98867380D01*
X129773809Y-98867380D02*
X129773809Y-97867380D01*
X129773809Y-97867380D02*
X129678571Y-98010238D01*
X129678571Y-98010238D02*
X129583333Y-98105476D01*
X129583333Y-98105476D02*
X129488095Y-98153095D01*
X130964285Y-97867380D02*
X130488095Y-97867380D01*
X130488095Y-97867380D02*
X130440476Y-98343571D01*
X130440476Y-98343571D02*
X130488095Y-98295952D01*
X130488095Y-98295952D02*
X130583333Y-98248333D01*
X130583333Y-98248333D02*
X130821428Y-98248333D01*
X130821428Y-98248333D02*
X130916666Y-98295952D01*
X130916666Y-98295952D02*
X130964285Y-98343571D01*
X130964285Y-98343571D02*
X131011904Y-98438809D01*
X131011904Y-98438809D02*
X131011904Y-98676904D01*
X131011904Y-98676904D02*
X130964285Y-98772142D01*
X130964285Y-98772142D02*
X130916666Y-98819761D01*
X130916666Y-98819761D02*
X130821428Y-98867380D01*
X130821428Y-98867380D02*
X130583333Y-98867380D01*
X130583333Y-98867380D02*
X130488095Y-98819761D01*
X130488095Y-98819761D02*
X130440476Y-98772142D01*
X120935714Y-97417380D02*
X120364286Y-97417380D01*
X120650000Y-97417380D02*
X120650000Y-96417380D01*
X120650000Y-96417380D02*
X120554762Y-96560238D01*
X120554762Y-96560238D02*
X120459524Y-96655476D01*
X120459524Y-96655476D02*
X120364286Y-96703095D01*
%TO.C,D10*%
X168485714Y-108567380D02*
X168485714Y-107567380D01*
X168485714Y-107567380D02*
X168723809Y-107567380D01*
X168723809Y-107567380D02*
X168866666Y-107615000D01*
X168866666Y-107615000D02*
X168961904Y-107710238D01*
X168961904Y-107710238D02*
X169009523Y-107805476D01*
X169009523Y-107805476D02*
X169057142Y-107995952D01*
X169057142Y-107995952D02*
X169057142Y-108138809D01*
X169057142Y-108138809D02*
X169009523Y-108329285D01*
X169009523Y-108329285D02*
X168961904Y-108424523D01*
X168961904Y-108424523D02*
X168866666Y-108519761D01*
X168866666Y-108519761D02*
X168723809Y-108567380D01*
X168723809Y-108567380D02*
X168485714Y-108567380D01*
X170009523Y-108567380D02*
X169438095Y-108567380D01*
X169723809Y-108567380D02*
X169723809Y-107567380D01*
X169723809Y-107567380D02*
X169628571Y-107710238D01*
X169628571Y-107710238D02*
X169533333Y-107805476D01*
X169533333Y-107805476D02*
X169438095Y-107853095D01*
X170628571Y-107567380D02*
X170723809Y-107567380D01*
X170723809Y-107567380D02*
X170819047Y-107615000D01*
X170819047Y-107615000D02*
X170866666Y-107662619D01*
X170866666Y-107662619D02*
X170914285Y-107757857D01*
X170914285Y-107757857D02*
X170961904Y-107948333D01*
X170961904Y-107948333D02*
X170961904Y-108186428D01*
X170961904Y-108186428D02*
X170914285Y-108376904D01*
X170914285Y-108376904D02*
X170866666Y-108472142D01*
X170866666Y-108472142D02*
X170819047Y-108519761D01*
X170819047Y-108519761D02*
X170723809Y-108567380D01*
X170723809Y-108567380D02*
X170628571Y-108567380D01*
X170628571Y-108567380D02*
X170533333Y-108519761D01*
X170533333Y-108519761D02*
X170485714Y-108472142D01*
X170485714Y-108472142D02*
X170438095Y-108376904D01*
X170438095Y-108376904D02*
X170390476Y-108186428D01*
X170390476Y-108186428D02*
X170390476Y-107948333D01*
X170390476Y-107948333D02*
X170438095Y-107757857D01*
X170438095Y-107757857D02*
X170485714Y-107662619D01*
X170485714Y-107662619D02*
X170533333Y-107615000D01*
X170533333Y-107615000D02*
X170628571Y-107567380D01*
X164217380Y-111914285D02*
X164217380Y-112485713D01*
X164217380Y-112199999D02*
X163217380Y-112199999D01*
X163217380Y-112199999D02*
X163360238Y-112295237D01*
X163360238Y-112295237D02*
X163455476Y-112390475D01*
X163455476Y-112390475D02*
X163503095Y-112485713D01*
%TO.C,D23*%
X148985714Y-78167380D02*
X148985714Y-77167380D01*
X148985714Y-77167380D02*
X149223809Y-77167380D01*
X149223809Y-77167380D02*
X149366666Y-77215000D01*
X149366666Y-77215000D02*
X149461904Y-77310238D01*
X149461904Y-77310238D02*
X149509523Y-77405476D01*
X149509523Y-77405476D02*
X149557142Y-77595952D01*
X149557142Y-77595952D02*
X149557142Y-77738809D01*
X149557142Y-77738809D02*
X149509523Y-77929285D01*
X149509523Y-77929285D02*
X149461904Y-78024523D01*
X149461904Y-78024523D02*
X149366666Y-78119761D01*
X149366666Y-78119761D02*
X149223809Y-78167380D01*
X149223809Y-78167380D02*
X148985714Y-78167380D01*
X149938095Y-77262619D02*
X149985714Y-77215000D01*
X149985714Y-77215000D02*
X150080952Y-77167380D01*
X150080952Y-77167380D02*
X150319047Y-77167380D01*
X150319047Y-77167380D02*
X150414285Y-77215000D01*
X150414285Y-77215000D02*
X150461904Y-77262619D01*
X150461904Y-77262619D02*
X150509523Y-77357857D01*
X150509523Y-77357857D02*
X150509523Y-77453095D01*
X150509523Y-77453095D02*
X150461904Y-77595952D01*
X150461904Y-77595952D02*
X149890476Y-78167380D01*
X149890476Y-78167380D02*
X150509523Y-78167380D01*
X150842857Y-77167380D02*
X151461904Y-77167380D01*
X151461904Y-77167380D02*
X151128571Y-77548333D01*
X151128571Y-77548333D02*
X151271428Y-77548333D01*
X151271428Y-77548333D02*
X151366666Y-77595952D01*
X151366666Y-77595952D02*
X151414285Y-77643571D01*
X151414285Y-77643571D02*
X151461904Y-77738809D01*
X151461904Y-77738809D02*
X151461904Y-77976904D01*
X151461904Y-77976904D02*
X151414285Y-78072142D01*
X151414285Y-78072142D02*
X151366666Y-78119761D01*
X151366666Y-78119761D02*
X151271428Y-78167380D01*
X151271428Y-78167380D02*
X150985714Y-78167380D01*
X150985714Y-78167380D02*
X150890476Y-78119761D01*
X150890476Y-78119761D02*
X150842857Y-78072142D01*
X141485714Y-76417380D02*
X140914286Y-76417380D01*
X141200000Y-76417380D02*
X141200000Y-75417380D01*
X141200000Y-75417380D02*
X141104762Y-75560238D01*
X141104762Y-75560238D02*
X141009524Y-75655476D01*
X141009524Y-75655476D02*
X140914286Y-75703095D01*
%TO.C,D16*%
X127785714Y-87967380D02*
X127785714Y-86967380D01*
X127785714Y-86967380D02*
X128023809Y-86967380D01*
X128023809Y-86967380D02*
X128166666Y-87015000D01*
X128166666Y-87015000D02*
X128261904Y-87110238D01*
X128261904Y-87110238D02*
X128309523Y-87205476D01*
X128309523Y-87205476D02*
X128357142Y-87395952D01*
X128357142Y-87395952D02*
X128357142Y-87538809D01*
X128357142Y-87538809D02*
X128309523Y-87729285D01*
X128309523Y-87729285D02*
X128261904Y-87824523D01*
X128261904Y-87824523D02*
X128166666Y-87919761D01*
X128166666Y-87919761D02*
X128023809Y-87967380D01*
X128023809Y-87967380D02*
X127785714Y-87967380D01*
X129309523Y-87967380D02*
X128738095Y-87967380D01*
X129023809Y-87967380D02*
X129023809Y-86967380D01*
X129023809Y-86967380D02*
X128928571Y-87110238D01*
X128928571Y-87110238D02*
X128833333Y-87205476D01*
X128833333Y-87205476D02*
X128738095Y-87253095D01*
X130166666Y-86967380D02*
X129976190Y-86967380D01*
X129976190Y-86967380D02*
X129880952Y-87015000D01*
X129880952Y-87015000D02*
X129833333Y-87062619D01*
X129833333Y-87062619D02*
X129738095Y-87205476D01*
X129738095Y-87205476D02*
X129690476Y-87395952D01*
X129690476Y-87395952D02*
X129690476Y-87776904D01*
X129690476Y-87776904D02*
X129738095Y-87872142D01*
X129738095Y-87872142D02*
X129785714Y-87919761D01*
X129785714Y-87919761D02*
X129880952Y-87967380D01*
X129880952Y-87967380D02*
X130071428Y-87967380D01*
X130071428Y-87967380D02*
X130166666Y-87919761D01*
X130166666Y-87919761D02*
X130214285Y-87872142D01*
X130214285Y-87872142D02*
X130261904Y-87776904D01*
X130261904Y-87776904D02*
X130261904Y-87538809D01*
X130261904Y-87538809D02*
X130214285Y-87443571D01*
X130214285Y-87443571D02*
X130166666Y-87395952D01*
X130166666Y-87395952D02*
X130071428Y-87348333D01*
X130071428Y-87348333D02*
X129880952Y-87348333D01*
X129880952Y-87348333D02*
X129785714Y-87395952D01*
X129785714Y-87395952D02*
X129738095Y-87443571D01*
X129738095Y-87443571D02*
X129690476Y-87538809D01*
X123517380Y-91614285D02*
X123517380Y-92185713D01*
X123517380Y-91899999D02*
X122517380Y-91899999D01*
X122517380Y-91899999D02*
X122660238Y-91995237D01*
X122660238Y-91995237D02*
X122755476Y-92090475D01*
X122755476Y-92090475D02*
X122803095Y-92185713D01*
%TO.C,C5*%
X124808333Y-113092142D02*
X124760714Y-113139761D01*
X124760714Y-113139761D02*
X124617857Y-113187380D01*
X124617857Y-113187380D02*
X124522619Y-113187380D01*
X124522619Y-113187380D02*
X124379762Y-113139761D01*
X124379762Y-113139761D02*
X124284524Y-113044523D01*
X124284524Y-113044523D02*
X124236905Y-112949285D01*
X124236905Y-112949285D02*
X124189286Y-112758809D01*
X124189286Y-112758809D02*
X124189286Y-112615952D01*
X124189286Y-112615952D02*
X124236905Y-112425476D01*
X124236905Y-112425476D02*
X124284524Y-112330238D01*
X124284524Y-112330238D02*
X124379762Y-112235000D01*
X124379762Y-112235000D02*
X124522619Y-112187380D01*
X124522619Y-112187380D02*
X124617857Y-112187380D01*
X124617857Y-112187380D02*
X124760714Y-112235000D01*
X124760714Y-112235000D02*
X124808333Y-112282619D01*
X125713095Y-112187380D02*
X125236905Y-112187380D01*
X125236905Y-112187380D02*
X125189286Y-112663571D01*
X125189286Y-112663571D02*
X125236905Y-112615952D01*
X125236905Y-112615952D02*
X125332143Y-112568333D01*
X125332143Y-112568333D02*
X125570238Y-112568333D01*
X125570238Y-112568333D02*
X125665476Y-112615952D01*
X125665476Y-112615952D02*
X125713095Y-112663571D01*
X125713095Y-112663571D02*
X125760714Y-112758809D01*
X125760714Y-112758809D02*
X125760714Y-112996904D01*
X125760714Y-112996904D02*
X125713095Y-113092142D01*
X125713095Y-113092142D02*
X125665476Y-113139761D01*
X125665476Y-113139761D02*
X125570238Y-113187380D01*
X125570238Y-113187380D02*
X125332143Y-113187380D01*
X125332143Y-113187380D02*
X125236905Y-113139761D01*
X125236905Y-113139761D02*
X125189286Y-113092142D01*
%TO.C,C14*%
X134582142Y-93042142D02*
X134534523Y-93089761D01*
X134534523Y-93089761D02*
X134391666Y-93137380D01*
X134391666Y-93137380D02*
X134296428Y-93137380D01*
X134296428Y-93137380D02*
X134153571Y-93089761D01*
X134153571Y-93089761D02*
X134058333Y-92994523D01*
X134058333Y-92994523D02*
X134010714Y-92899285D01*
X134010714Y-92899285D02*
X133963095Y-92708809D01*
X133963095Y-92708809D02*
X133963095Y-92565952D01*
X133963095Y-92565952D02*
X134010714Y-92375476D01*
X134010714Y-92375476D02*
X134058333Y-92280238D01*
X134058333Y-92280238D02*
X134153571Y-92185000D01*
X134153571Y-92185000D02*
X134296428Y-92137380D01*
X134296428Y-92137380D02*
X134391666Y-92137380D01*
X134391666Y-92137380D02*
X134534523Y-92185000D01*
X134534523Y-92185000D02*
X134582142Y-92232619D01*
X135534523Y-93137380D02*
X134963095Y-93137380D01*
X135248809Y-93137380D02*
X135248809Y-92137380D01*
X135248809Y-92137380D02*
X135153571Y-92280238D01*
X135153571Y-92280238D02*
X135058333Y-92375476D01*
X135058333Y-92375476D02*
X134963095Y-92423095D01*
X136391666Y-92470714D02*
X136391666Y-93137380D01*
X136153571Y-92089761D02*
X135915476Y-92804047D01*
X135915476Y-92804047D02*
X136534523Y-92804047D01*
%TO.C,D4*%
X139011905Y-119117380D02*
X139011905Y-118117380D01*
X139011905Y-118117380D02*
X139250000Y-118117380D01*
X139250000Y-118117380D02*
X139392857Y-118165000D01*
X139392857Y-118165000D02*
X139488095Y-118260238D01*
X139488095Y-118260238D02*
X139535714Y-118355476D01*
X139535714Y-118355476D02*
X139583333Y-118545952D01*
X139583333Y-118545952D02*
X139583333Y-118688809D01*
X139583333Y-118688809D02*
X139535714Y-118879285D01*
X139535714Y-118879285D02*
X139488095Y-118974523D01*
X139488095Y-118974523D02*
X139392857Y-119069761D01*
X139392857Y-119069761D02*
X139250000Y-119117380D01*
X139250000Y-119117380D02*
X139011905Y-119117380D01*
X140440476Y-118450714D02*
X140440476Y-119117380D01*
X140202381Y-118069761D02*
X139964286Y-118784047D01*
X139964286Y-118784047D02*
X140583333Y-118784047D01*
X131435714Y-117367380D02*
X130864286Y-117367380D01*
X131150000Y-117367380D02*
X131150000Y-116367380D01*
X131150000Y-116367380D02*
X131054762Y-116510238D01*
X131054762Y-116510238D02*
X130959524Y-116605476D01*
X130959524Y-116605476D02*
X130864286Y-116653095D01*
%TO.C,C15*%
X124382142Y-93042142D02*
X124334523Y-93089761D01*
X124334523Y-93089761D02*
X124191666Y-93137380D01*
X124191666Y-93137380D02*
X124096428Y-93137380D01*
X124096428Y-93137380D02*
X123953571Y-93089761D01*
X123953571Y-93089761D02*
X123858333Y-92994523D01*
X123858333Y-92994523D02*
X123810714Y-92899285D01*
X123810714Y-92899285D02*
X123763095Y-92708809D01*
X123763095Y-92708809D02*
X123763095Y-92565952D01*
X123763095Y-92565952D02*
X123810714Y-92375476D01*
X123810714Y-92375476D02*
X123858333Y-92280238D01*
X123858333Y-92280238D02*
X123953571Y-92185000D01*
X123953571Y-92185000D02*
X124096428Y-92137380D01*
X124096428Y-92137380D02*
X124191666Y-92137380D01*
X124191666Y-92137380D02*
X124334523Y-92185000D01*
X124334523Y-92185000D02*
X124382142Y-92232619D01*
X125334523Y-93137380D02*
X124763095Y-93137380D01*
X125048809Y-93137380D02*
X125048809Y-92137380D01*
X125048809Y-92137380D02*
X124953571Y-92280238D01*
X124953571Y-92280238D02*
X124858333Y-92375476D01*
X124858333Y-92375476D02*
X124763095Y-92423095D01*
X126239285Y-92137380D02*
X125763095Y-92137380D01*
X125763095Y-92137380D02*
X125715476Y-92613571D01*
X125715476Y-92613571D02*
X125763095Y-92565952D01*
X125763095Y-92565952D02*
X125858333Y-92518333D01*
X125858333Y-92518333D02*
X126096428Y-92518333D01*
X126096428Y-92518333D02*
X126191666Y-92565952D01*
X126191666Y-92565952D02*
X126239285Y-92613571D01*
X126239285Y-92613571D02*
X126286904Y-92708809D01*
X126286904Y-92708809D02*
X126286904Y-92946904D01*
X126286904Y-92946904D02*
X126239285Y-93042142D01*
X126239285Y-93042142D02*
X126191666Y-93089761D01*
X126191666Y-93089761D02*
X126096428Y-93137380D01*
X126096428Y-93137380D02*
X125858333Y-93137380D01*
X125858333Y-93137380D02*
X125763095Y-93089761D01*
X125763095Y-93089761D02*
X125715476Y-93042142D01*
%TO.C,J1*%
X158997380Y-129833333D02*
X159711666Y-129833333D01*
X159711666Y-129833333D02*
X159854523Y-129880952D01*
X159854523Y-129880952D02*
X159949761Y-129976190D01*
X159949761Y-129976190D02*
X159997380Y-130119047D01*
X159997380Y-130119047D02*
X159997380Y-130214285D01*
X159997380Y-128833333D02*
X159997380Y-129404761D01*
X159997380Y-129119047D02*
X158997380Y-129119047D01*
X158997380Y-129119047D02*
X159140238Y-129214285D01*
X159140238Y-129214285D02*
X159235476Y-129309523D01*
X159235476Y-129309523D02*
X159283095Y-129404761D01*
%TO.C,C3*%
X145308333Y-113092142D02*
X145260714Y-113139761D01*
X145260714Y-113139761D02*
X145117857Y-113187380D01*
X145117857Y-113187380D02*
X145022619Y-113187380D01*
X145022619Y-113187380D02*
X144879762Y-113139761D01*
X144879762Y-113139761D02*
X144784524Y-113044523D01*
X144784524Y-113044523D02*
X144736905Y-112949285D01*
X144736905Y-112949285D02*
X144689286Y-112758809D01*
X144689286Y-112758809D02*
X144689286Y-112615952D01*
X144689286Y-112615952D02*
X144736905Y-112425476D01*
X144736905Y-112425476D02*
X144784524Y-112330238D01*
X144784524Y-112330238D02*
X144879762Y-112235000D01*
X144879762Y-112235000D02*
X145022619Y-112187380D01*
X145022619Y-112187380D02*
X145117857Y-112187380D01*
X145117857Y-112187380D02*
X145260714Y-112235000D01*
X145260714Y-112235000D02*
X145308333Y-112282619D01*
X145641667Y-112187380D02*
X146260714Y-112187380D01*
X146260714Y-112187380D02*
X145927381Y-112568333D01*
X145927381Y-112568333D02*
X146070238Y-112568333D01*
X146070238Y-112568333D02*
X146165476Y-112615952D01*
X146165476Y-112615952D02*
X146213095Y-112663571D01*
X146213095Y-112663571D02*
X146260714Y-112758809D01*
X146260714Y-112758809D02*
X146260714Y-112996904D01*
X146260714Y-112996904D02*
X146213095Y-113092142D01*
X146213095Y-113092142D02*
X146165476Y-113139761D01*
X146165476Y-113139761D02*
X146070238Y-113187380D01*
X146070238Y-113187380D02*
X145784524Y-113187380D01*
X145784524Y-113187380D02*
X145689286Y-113139761D01*
X145689286Y-113139761D02*
X145641667Y-113092142D01*
%TO.C,C18*%
X144582142Y-82042142D02*
X144534523Y-82089761D01*
X144534523Y-82089761D02*
X144391666Y-82137380D01*
X144391666Y-82137380D02*
X144296428Y-82137380D01*
X144296428Y-82137380D02*
X144153571Y-82089761D01*
X144153571Y-82089761D02*
X144058333Y-81994523D01*
X144058333Y-81994523D02*
X144010714Y-81899285D01*
X144010714Y-81899285D02*
X143963095Y-81708809D01*
X143963095Y-81708809D02*
X143963095Y-81565952D01*
X143963095Y-81565952D02*
X144010714Y-81375476D01*
X144010714Y-81375476D02*
X144058333Y-81280238D01*
X144058333Y-81280238D02*
X144153571Y-81185000D01*
X144153571Y-81185000D02*
X144296428Y-81137380D01*
X144296428Y-81137380D02*
X144391666Y-81137380D01*
X144391666Y-81137380D02*
X144534523Y-81185000D01*
X144534523Y-81185000D02*
X144582142Y-81232619D01*
X145534523Y-82137380D02*
X144963095Y-82137380D01*
X145248809Y-82137380D02*
X145248809Y-81137380D01*
X145248809Y-81137380D02*
X145153571Y-81280238D01*
X145153571Y-81280238D02*
X145058333Y-81375476D01*
X145058333Y-81375476D02*
X144963095Y-81423095D01*
X146105952Y-81565952D02*
X146010714Y-81518333D01*
X146010714Y-81518333D02*
X145963095Y-81470714D01*
X145963095Y-81470714D02*
X145915476Y-81375476D01*
X145915476Y-81375476D02*
X145915476Y-81327857D01*
X145915476Y-81327857D02*
X145963095Y-81232619D01*
X145963095Y-81232619D02*
X146010714Y-81185000D01*
X146010714Y-81185000D02*
X146105952Y-81137380D01*
X146105952Y-81137380D02*
X146296428Y-81137380D01*
X146296428Y-81137380D02*
X146391666Y-81185000D01*
X146391666Y-81185000D02*
X146439285Y-81232619D01*
X146439285Y-81232619D02*
X146486904Y-81327857D01*
X146486904Y-81327857D02*
X146486904Y-81375476D01*
X146486904Y-81375476D02*
X146439285Y-81470714D01*
X146439285Y-81470714D02*
X146391666Y-81518333D01*
X146391666Y-81518333D02*
X146296428Y-81565952D01*
X146296428Y-81565952D02*
X146105952Y-81565952D01*
X146105952Y-81565952D02*
X146010714Y-81613571D01*
X146010714Y-81613571D02*
X145963095Y-81661190D01*
X145963095Y-81661190D02*
X145915476Y-81756428D01*
X145915476Y-81756428D02*
X145915476Y-81946904D01*
X145915476Y-81946904D02*
X145963095Y-82042142D01*
X145963095Y-82042142D02*
X146010714Y-82089761D01*
X146010714Y-82089761D02*
X146105952Y-82137380D01*
X146105952Y-82137380D02*
X146296428Y-82137380D01*
X146296428Y-82137380D02*
X146391666Y-82089761D01*
X146391666Y-82089761D02*
X146439285Y-82042142D01*
X146439285Y-82042142D02*
X146486904Y-81946904D01*
X146486904Y-81946904D02*
X146486904Y-81756428D01*
X146486904Y-81756428D02*
X146439285Y-81661190D01*
X146439285Y-81661190D02*
X146391666Y-81613571D01*
X146391666Y-81613571D02*
X146296428Y-81565952D01*
%TO.C,C25*%
X124382142Y-72042142D02*
X124334523Y-72089761D01*
X124334523Y-72089761D02*
X124191666Y-72137380D01*
X124191666Y-72137380D02*
X124096428Y-72137380D01*
X124096428Y-72137380D02*
X123953571Y-72089761D01*
X123953571Y-72089761D02*
X123858333Y-71994523D01*
X123858333Y-71994523D02*
X123810714Y-71899285D01*
X123810714Y-71899285D02*
X123763095Y-71708809D01*
X123763095Y-71708809D02*
X123763095Y-71565952D01*
X123763095Y-71565952D02*
X123810714Y-71375476D01*
X123810714Y-71375476D02*
X123858333Y-71280238D01*
X123858333Y-71280238D02*
X123953571Y-71185000D01*
X123953571Y-71185000D02*
X124096428Y-71137380D01*
X124096428Y-71137380D02*
X124191666Y-71137380D01*
X124191666Y-71137380D02*
X124334523Y-71185000D01*
X124334523Y-71185000D02*
X124382142Y-71232619D01*
X124763095Y-71232619D02*
X124810714Y-71185000D01*
X124810714Y-71185000D02*
X124905952Y-71137380D01*
X124905952Y-71137380D02*
X125144047Y-71137380D01*
X125144047Y-71137380D02*
X125239285Y-71185000D01*
X125239285Y-71185000D02*
X125286904Y-71232619D01*
X125286904Y-71232619D02*
X125334523Y-71327857D01*
X125334523Y-71327857D02*
X125334523Y-71423095D01*
X125334523Y-71423095D02*
X125286904Y-71565952D01*
X125286904Y-71565952D02*
X124715476Y-72137380D01*
X124715476Y-72137380D02*
X125334523Y-72137380D01*
X126239285Y-71137380D02*
X125763095Y-71137380D01*
X125763095Y-71137380D02*
X125715476Y-71613571D01*
X125715476Y-71613571D02*
X125763095Y-71565952D01*
X125763095Y-71565952D02*
X125858333Y-71518333D01*
X125858333Y-71518333D02*
X126096428Y-71518333D01*
X126096428Y-71518333D02*
X126191666Y-71565952D01*
X126191666Y-71565952D02*
X126239285Y-71613571D01*
X126239285Y-71613571D02*
X126286904Y-71708809D01*
X126286904Y-71708809D02*
X126286904Y-71946904D01*
X126286904Y-71946904D02*
X126239285Y-72042142D01*
X126239285Y-72042142D02*
X126191666Y-72089761D01*
X126191666Y-72089761D02*
X126096428Y-72137380D01*
X126096428Y-72137380D02*
X125858333Y-72137380D01*
X125858333Y-72137380D02*
X125763095Y-72089761D01*
X125763095Y-72089761D02*
X125715476Y-72042142D01*
%TO.C,D7*%
X139011905Y-109117380D02*
X139011905Y-108117380D01*
X139011905Y-108117380D02*
X139250000Y-108117380D01*
X139250000Y-108117380D02*
X139392857Y-108165000D01*
X139392857Y-108165000D02*
X139488095Y-108260238D01*
X139488095Y-108260238D02*
X139535714Y-108355476D01*
X139535714Y-108355476D02*
X139583333Y-108545952D01*
X139583333Y-108545952D02*
X139583333Y-108688809D01*
X139583333Y-108688809D02*
X139535714Y-108879285D01*
X139535714Y-108879285D02*
X139488095Y-108974523D01*
X139488095Y-108974523D02*
X139392857Y-109069761D01*
X139392857Y-109069761D02*
X139250000Y-109117380D01*
X139250000Y-109117380D02*
X139011905Y-109117380D01*
X139916667Y-108117380D02*
X140583333Y-108117380D01*
X140583333Y-108117380D02*
X140154762Y-109117380D01*
X131435714Y-107617380D02*
X130864286Y-107617380D01*
X131150000Y-107617380D02*
X131150000Y-106617380D01*
X131150000Y-106617380D02*
X131054762Y-106760238D01*
X131054762Y-106760238D02*
X130959524Y-106855476D01*
X130959524Y-106855476D02*
X130864286Y-106903095D01*
%TO.C,D1*%
X169261905Y-118867380D02*
X169261905Y-117867380D01*
X169261905Y-117867380D02*
X169500000Y-117867380D01*
X169500000Y-117867380D02*
X169642857Y-117915000D01*
X169642857Y-117915000D02*
X169738095Y-118010238D01*
X169738095Y-118010238D02*
X169785714Y-118105476D01*
X169785714Y-118105476D02*
X169833333Y-118295952D01*
X169833333Y-118295952D02*
X169833333Y-118438809D01*
X169833333Y-118438809D02*
X169785714Y-118629285D01*
X169785714Y-118629285D02*
X169738095Y-118724523D01*
X169738095Y-118724523D02*
X169642857Y-118819761D01*
X169642857Y-118819761D02*
X169500000Y-118867380D01*
X169500000Y-118867380D02*
X169261905Y-118867380D01*
X170785714Y-118867380D02*
X170214286Y-118867380D01*
X170500000Y-118867380D02*
X170500000Y-117867380D01*
X170500000Y-117867380D02*
X170404762Y-118010238D01*
X170404762Y-118010238D02*
X170309524Y-118105476D01*
X170309524Y-118105476D02*
X170214286Y-118153095D01*
X161685714Y-117417380D02*
X161114286Y-117417380D01*
X161400000Y-117417380D02*
X161400000Y-116417380D01*
X161400000Y-116417380D02*
X161304762Y-116560238D01*
X161304762Y-116560238D02*
X161209524Y-116655476D01*
X161209524Y-116655476D02*
X161114286Y-116703095D01*
%TO.C,C24*%
X134782142Y-72042142D02*
X134734523Y-72089761D01*
X134734523Y-72089761D02*
X134591666Y-72137380D01*
X134591666Y-72137380D02*
X134496428Y-72137380D01*
X134496428Y-72137380D02*
X134353571Y-72089761D01*
X134353571Y-72089761D02*
X134258333Y-71994523D01*
X134258333Y-71994523D02*
X134210714Y-71899285D01*
X134210714Y-71899285D02*
X134163095Y-71708809D01*
X134163095Y-71708809D02*
X134163095Y-71565952D01*
X134163095Y-71565952D02*
X134210714Y-71375476D01*
X134210714Y-71375476D02*
X134258333Y-71280238D01*
X134258333Y-71280238D02*
X134353571Y-71185000D01*
X134353571Y-71185000D02*
X134496428Y-71137380D01*
X134496428Y-71137380D02*
X134591666Y-71137380D01*
X134591666Y-71137380D02*
X134734523Y-71185000D01*
X134734523Y-71185000D02*
X134782142Y-71232619D01*
X135163095Y-71232619D02*
X135210714Y-71185000D01*
X135210714Y-71185000D02*
X135305952Y-71137380D01*
X135305952Y-71137380D02*
X135544047Y-71137380D01*
X135544047Y-71137380D02*
X135639285Y-71185000D01*
X135639285Y-71185000D02*
X135686904Y-71232619D01*
X135686904Y-71232619D02*
X135734523Y-71327857D01*
X135734523Y-71327857D02*
X135734523Y-71423095D01*
X135734523Y-71423095D02*
X135686904Y-71565952D01*
X135686904Y-71565952D02*
X135115476Y-72137380D01*
X135115476Y-72137380D02*
X135734523Y-72137380D01*
X136591666Y-71470714D02*
X136591666Y-72137380D01*
X136353571Y-71089761D02*
X136115476Y-71804047D01*
X136115476Y-71804047D02*
X136734523Y-71804047D01*
D11*
%TO.C,C22*%
X155284420Y-72690000D02*
X155565580Y-72690000D01*
X155284420Y-73710000D02*
X155565580Y-73710000D01*
%TO.C,D19*%
X151500000Y-85000000D02*
X158800000Y-85000000D01*
X151500000Y-90500000D02*
X158800000Y-90500000D01*
X158800000Y-90500000D02*
X158800000Y-89350000D01*
%TO.C,D18*%
X141700000Y-85000000D02*
X149000000Y-85000000D01*
X141700000Y-90500000D02*
X149000000Y-90500000D01*
X149000000Y-90500000D02*
X149000000Y-89350000D01*
%TO.C,D6*%
X121150000Y-106100000D02*
X128450000Y-106100000D01*
X121150000Y-111600000D02*
X128450000Y-111600000D01*
X128450000Y-111600000D02*
X128450000Y-110450000D01*
%TO.C,C8*%
X145084420Y-103990000D02*
X145365580Y-103990000D01*
X145084420Y-105010000D02*
X145365580Y-105010000D01*
%TO.C,C19*%
X155084420Y-82690000D02*
X155365580Y-82690000D01*
X155084420Y-83710000D02*
X155365580Y-83710000D01*
%TO.C,D25*%
X121300000Y-75100000D02*
X128600000Y-75100000D01*
X121300000Y-80600000D02*
X128600000Y-80600000D01*
X128600000Y-80600000D02*
X128600000Y-79450000D01*
%TO.C,D13*%
X141650000Y-95900000D02*
X148950000Y-95900000D01*
X141650000Y-101400000D02*
X148950000Y-101400000D01*
X148950000Y-101400000D02*
X148950000Y-100250000D01*
%TO.C,C20*%
X165484420Y-82690000D02*
X165765580Y-82690000D01*
X165484420Y-83710000D02*
X165765580Y-83710000D01*
%TO.C,D22*%
X151700000Y-74800000D02*
X159000000Y-74800000D01*
X151700000Y-80300000D02*
X159000000Y-80300000D01*
X159000000Y-80300000D02*
X159000000Y-79150000D01*
%TO.C,C11*%
X165684420Y-93690000D02*
X165965580Y-93690000D01*
X165684420Y-94710000D02*
X165965580Y-94710000D01*
%TO.C,D3*%
X141650000Y-115900000D02*
X148950000Y-115900000D01*
X141650000Y-121400000D02*
X148950000Y-121400000D01*
X148950000Y-121400000D02*
X148950000Y-120250000D01*
%TO.C,D21*%
X161900000Y-74800000D02*
X169200000Y-74800000D01*
X161900000Y-80300000D02*
X169200000Y-80300000D01*
X169200000Y-80300000D02*
X169200000Y-79150000D01*
%TO.C,D5*%
X121400000Y-115850000D02*
X128700000Y-115850000D01*
X121400000Y-121350000D02*
X128700000Y-121350000D01*
X128700000Y-121350000D02*
X128700000Y-120200000D01*
%TO.C,D24*%
X131700000Y-75100000D02*
X139000000Y-75100000D01*
X131700000Y-80600000D02*
X139000000Y-80600000D01*
X139000000Y-80600000D02*
X139000000Y-79450000D01*
%TO.C,C2*%
X155334420Y-113740000D02*
X155615580Y-113740000D01*
X155334420Y-114760000D02*
X155615580Y-114760000D01*
%TO.C,D17*%
X131700000Y-85000000D02*
X139000000Y-85000000D01*
X131700000Y-90500000D02*
X139000000Y-90500000D01*
X139000000Y-90500000D02*
X139000000Y-89350000D01*
%TO.C,D12*%
X151650000Y-95900000D02*
X158950000Y-95900000D01*
X151650000Y-101400000D02*
X158950000Y-101400000D01*
X158950000Y-101400000D02*
X158950000Y-100250000D01*
%TO.C,C9*%
X155334420Y-103990000D02*
X155615580Y-103990000D01*
X155334420Y-105010000D02*
X155615580Y-105010000D01*
%TO.C,C16*%
X129684420Y-82890000D02*
X129965580Y-82890000D01*
X129684420Y-83910000D02*
X129965580Y-83910000D01*
%TO.C,C21*%
X165459420Y-72690000D02*
X165740580Y-72690000D01*
X165459420Y-73710000D02*
X165740580Y-73710000D01*
%TO.C,C10*%
X160084420Y-103890000D02*
X160365580Y-103890000D01*
X160084420Y-104910000D02*
X160365580Y-104910000D01*
%TO.C,D8*%
X141400000Y-106100000D02*
X148700000Y-106100000D01*
X141400000Y-111600000D02*
X148700000Y-111600000D01*
X148700000Y-111600000D02*
X148700000Y-110450000D01*
%TO.C,C13*%
X145284420Y-93690000D02*
X145565580Y-93690000D01*
X145284420Y-94710000D02*
X145565580Y-94710000D01*
%TO.C,C23*%
X145284420Y-72690000D02*
X145565580Y-72690000D01*
X145284420Y-73710000D02*
X145565580Y-73710000D01*
%TO.C,C17*%
X135484420Y-82690000D02*
X135765580Y-82690000D01*
X135484420Y-83710000D02*
X135765580Y-83710000D01*
%TO.C,D2*%
X151650000Y-115900000D02*
X158950000Y-115900000D01*
X151650000Y-121400000D02*
X158950000Y-121400000D01*
X158950000Y-121400000D02*
X158950000Y-120250000D01*
%TO.C,C4*%
X135334420Y-113740000D02*
X135615580Y-113740000D01*
X135334420Y-114760000D02*
X135615580Y-114760000D01*
%TO.C,D9*%
X151650000Y-106100000D02*
X158950000Y-106100000D01*
X151650000Y-111600000D02*
X158950000Y-111600000D01*
X158950000Y-111600000D02*
X158950000Y-110450000D01*
%TO.C,C7*%
X135334420Y-103990000D02*
X135615580Y-103990000D01*
X135334420Y-105010000D02*
X135615580Y-105010000D01*
%TO.C,C6*%
X124834420Y-103990000D02*
X125115580Y-103990000D01*
X124834420Y-105010000D02*
X125115580Y-105010000D01*
%TO.C,C12*%
X155284420Y-93690000D02*
X155565580Y-93690000D01*
X155284420Y-94710000D02*
X155565580Y-94710000D01*
%TO.C,C1*%
X165359420Y-113740000D02*
X165640580Y-113740000D01*
X165359420Y-114760000D02*
X165640580Y-114760000D01*
%TO.C,D14*%
X131650000Y-95850000D02*
X138950000Y-95850000D01*
X131650000Y-101350000D02*
X138950000Y-101350000D01*
X138950000Y-101350000D02*
X138950000Y-100200000D01*
%TO.C,D20*%
X161900000Y-85000000D02*
X169200000Y-85000000D01*
X161900000Y-90500000D02*
X169200000Y-90500000D01*
X169200000Y-90500000D02*
X169200000Y-89350000D01*
%TO.C,D11*%
X161900000Y-95850000D02*
X169200000Y-95850000D01*
X161900000Y-101350000D02*
X169200000Y-101350000D01*
X169200000Y-101350000D02*
X169200000Y-100200000D01*
%TO.C,D15*%
X121150000Y-95900000D02*
X128450000Y-95900000D01*
X121150000Y-101400000D02*
X128450000Y-101400000D01*
X128450000Y-101400000D02*
X128450000Y-100250000D01*
%TO.C,D10*%
X162700000Y-111700000D02*
X162700000Y-104400000D01*
X168200000Y-111700000D02*
X168200000Y-104400000D01*
X168200000Y-104400000D02*
X167050000Y-104400000D01*
%TO.C,D23*%
X141700000Y-74900000D02*
X149000000Y-74900000D01*
X141700000Y-80400000D02*
X149000000Y-80400000D01*
X149000000Y-80400000D02*
X149000000Y-79250000D01*
%TO.C,D16*%
X122000000Y-91400000D02*
X122000000Y-84100000D01*
X127500000Y-91400000D02*
X127500000Y-84100000D01*
X127500000Y-84100000D02*
X126350000Y-84100000D01*
%TO.C,C5*%
X124834420Y-113740000D02*
X125115580Y-113740000D01*
X124834420Y-114760000D02*
X125115580Y-114760000D01*
%TO.C,C14*%
X135084420Y-93690000D02*
X135365580Y-93690000D01*
X135084420Y-94710000D02*
X135365580Y-94710000D01*
%TO.C,D4*%
X131650000Y-115850000D02*
X138950000Y-115850000D01*
X131650000Y-121350000D02*
X138950000Y-121350000D01*
X138950000Y-121350000D02*
X138950000Y-120200000D01*
%TO.C,C15*%
X124884420Y-93690000D02*
X125165580Y-93690000D01*
X124884420Y-94710000D02*
X125165580Y-94710000D01*
%TO.C,J1*%
X160630000Y-130830000D02*
X160630000Y-129500000D01*
X161960000Y-130830000D02*
X160630000Y-130830000D01*
X163230000Y-130830000D02*
X170910000Y-130830000D01*
X163230000Y-130830000D02*
X163230000Y-128170000D01*
X170910000Y-130830000D02*
X170910000Y-128170000D01*
X163230000Y-128170000D02*
X170910000Y-128170000D01*
%TO.C,C3*%
X145334420Y-113740000D02*
X145615580Y-113740000D01*
X145334420Y-114760000D02*
X145615580Y-114760000D01*
%TO.C,C18*%
X145084420Y-82690000D02*
X145365580Y-82690000D01*
X145084420Y-83710000D02*
X145365580Y-83710000D01*
%TO.C,C25*%
X124884420Y-72690000D02*
X125165580Y-72690000D01*
X124884420Y-73710000D02*
X125165580Y-73710000D01*
%TO.C,D7*%
X131650000Y-106100000D02*
X138950000Y-106100000D01*
X131650000Y-111600000D02*
X138950000Y-111600000D01*
X138950000Y-111600000D02*
X138950000Y-110450000D01*
%TO.C,D1*%
X161900000Y-115900000D02*
X169200000Y-115900000D01*
X161900000Y-121400000D02*
X169200000Y-121400000D01*
X169200000Y-121400000D02*
X169200000Y-120250000D01*
%TO.C,C24*%
X135284420Y-72690000D02*
X135565580Y-72690000D01*
X135284420Y-73710000D02*
X135565580Y-73710000D01*
%TD*%
M02*
