%TF.GenerationSoftware,KiCad,Pcbnew,(7.0.0)*%
%TF.CreationDate,2023-10-03T11:42:16+02:00*%
%TF.ProjectId,Lichten-PCB,4c696368-7465-46e2-9d50-43422e6b6963,rev?*%
%TF.SameCoordinates,Original*%
%TF.FileFunction,Copper,L2,Bot*%
%TF.FilePolarity,Positive*%
%FSLAX46Y46*%
G04 Gerber Fmt 4.6, Leading zero omitted, Abs format (unit mm)*
G04 Created by KiCad (PCBNEW (7.0.0)) date 2023-10-03 11:42:16*
%MOMM*%
%LPD*%
G01*
G04 APERTURE LIST*
%TA.AperFunction,ComponentPad*%
%ADD10R,1.700000X1.700000*%
%TD*%
%TA.AperFunction,ComponentPad*%
%ADD11O,1.700000X1.700000*%
%TD*%
%TA.AperFunction,ViaPad*%
%ADD12C,0.800000*%
%TD*%
G04 APERTURE END LIST*
D10*
%TO.P,J1,1,Pin_1*%
%TO.N,+3V3*%
X161959999Y-129499999D03*
D11*
%TO.P,J1,2,Pin_2*%
%TO.N,DOUT*%
X164499999Y-129499999D03*
%TO.P,J1,3,Pin_3*%
%TO.N,DIN*%
X167039999Y-129499999D03*
%TO.P,J1,4,Pin_4*%
%TO.N,GND*%
X169579999Y-129499999D03*
%TD*%
D12*
%TO.N,GND*%
X127600000Y-94000000D03*
X160400000Y-76000000D03*
X139600000Y-107000000D03*
X130000000Y-76200000D03*
X150600000Y-71800000D03*
X122200000Y-83200000D03*
X126800000Y-123600000D03*
X160400000Y-82600000D03*
X150200000Y-92600000D03*
X169600000Y-71800000D03*
X150400000Y-102800000D03*
X161000000Y-106000000D03*
X135400000Y-77800000D03*
X125000000Y-77800000D03*
X126200000Y-108600000D03*
X121800000Y-103400000D03*
X166400000Y-107600000D03*
X150200000Y-123600000D03*
X170000000Y-125600000D03*
X129400000Y-86200000D03*
X130200000Y-71800000D03*
X145400000Y-86000000D03*
X149800000Y-117000000D03*
X160400000Y-101400000D03*
X130000000Y-112600000D03*
X120600000Y-77800000D03*
X160200000Y-117000000D03*
X140400000Y-92600000D03*
X155400000Y-77600000D03*
X124800000Y-98600000D03*
X145400000Y-77600000D03*
X135600000Y-86400000D03*
X127600000Y-114200000D03*
X140200000Y-97000000D03*
X135200000Y-123800000D03*
X140200000Y-103000000D03*
X145400000Y-123600000D03*
X169600000Y-113200000D03*
X165600000Y-85800000D03*
X129800000Y-117000000D03*
X160200000Y-96800000D03*
X125000000Y-118600000D03*
X123800000Y-87400000D03*
X130000000Y-103200000D03*
X130000000Y-97000000D03*
X166000000Y-123800000D03*
X132800000Y-83000000D03*
X166000000Y-117200000D03*
X139800000Y-86000000D03*
X155200000Y-86200000D03*
X160800000Y-71600000D03*
X166200000Y-98600000D03*
X168200000Y-82000000D03*
X129800000Y-123600000D03*
X160200000Y-86000000D03*
X140000000Y-123600000D03*
X155400000Y-116800000D03*
X150200000Y-76000000D03*
X155400000Y-118600000D03*
X167200000Y-102600000D03*
X140400000Y-71800000D03*
X139800000Y-117000000D03*
X150000000Y-106800000D03*
X156200000Y-108000000D03*
X160600000Y-92600000D03*
X145200000Y-107000000D03*
X149800000Y-86200000D03*
X125000000Y-82600000D03*
X150200000Y-112400000D03*
X150200000Y-82600000D03*
X122400000Y-113000000D03*
X135400000Y-98600000D03*
X140200000Y-112400000D03*
X160800000Y-113000000D03*
X145400000Y-118600000D03*
X145400000Y-98600000D03*
X140000000Y-76200000D03*
X163800000Y-77600000D03*
X155400000Y-98600000D03*
X135400000Y-118600000D03*
X129600000Y-107000000D03*
X136800000Y-108600000D03*
X160400000Y-123600000D03*
X140400000Y-82600000D03*
X130000000Y-92800000D03*
X161600000Y-110200000D03*
X150000000Y-96800000D03*
X155400000Y-123800000D03*
X120400000Y-71800000D03*
X169800000Y-93000000D03*
X170800000Y-102800000D03*
%TD*%
%TA.AperFunction,Conductor*%
%TO.N,GND*%
G36*
X171837500Y-70517113D02*
G01*
X171882887Y-70562500D01*
X171899500Y-70624500D01*
X171899500Y-131575500D01*
X171882887Y-131637500D01*
X171837500Y-131682887D01*
X171775500Y-131699500D01*
X118824500Y-131699500D01*
X118762500Y-131682887D01*
X118717113Y-131637500D01*
X118700500Y-131575500D01*
X118700500Y-130394578D01*
X160609500Y-130394578D01*
X160609501Y-130397872D01*
X160609853Y-130401150D01*
X160609854Y-130401161D01*
X160615079Y-130449768D01*
X160615080Y-130449773D01*
X160615909Y-130457483D01*
X160618619Y-130464749D01*
X160618620Y-130464753D01*
X160644552Y-130534278D01*
X160666204Y-130592331D01*
X160671518Y-130599430D01*
X160671519Y-130599431D01*
X160727367Y-130674035D01*
X160752454Y-130707546D01*
X160867669Y-130793796D01*
X161002517Y-130844091D01*
X161062127Y-130850500D01*
X162857872Y-130850499D01*
X162917483Y-130844091D01*
X163052331Y-130793796D01*
X163167546Y-130707546D01*
X163253796Y-130592331D01*
X163302810Y-130460916D01*
X163337789Y-130410537D01*
X163392634Y-130383084D01*
X163453927Y-130385273D01*
X163506673Y-130416568D01*
X163628599Y-130538495D01*
X163633031Y-130541598D01*
X163633033Y-130541600D01*
X163777260Y-130642589D01*
X163822170Y-130674035D01*
X164036337Y-130773903D01*
X164264592Y-130835063D01*
X164500000Y-130855659D01*
X164735408Y-130835063D01*
X164963663Y-130773903D01*
X165177830Y-130674035D01*
X165371401Y-130538495D01*
X165538495Y-130371401D01*
X165668424Y-130185842D01*
X165712743Y-130146976D01*
X165770000Y-130132965D01*
X165827257Y-130146976D01*
X165871575Y-130185842D01*
X165998395Y-130366961D01*
X165998401Y-130366968D01*
X166001505Y-130371401D01*
X166168599Y-130538495D01*
X166173031Y-130541598D01*
X166173033Y-130541600D01*
X166317260Y-130642589D01*
X166362170Y-130674035D01*
X166576337Y-130773903D01*
X166804592Y-130835063D01*
X167040000Y-130855659D01*
X167275408Y-130835063D01*
X167503663Y-130773903D01*
X167717830Y-130674035D01*
X167911401Y-130538495D01*
X168078495Y-130371401D01*
X168208730Y-130185405D01*
X168253048Y-130146540D01*
X168310305Y-130132529D01*
X168367562Y-130146540D01*
X168411880Y-130185405D01*
X168538784Y-130366643D01*
X168545721Y-130374909D01*
X168705090Y-130534278D01*
X168713356Y-130541215D01*
X168897991Y-130670498D01*
X168907323Y-130675886D01*
X169111602Y-130771143D01*
X169121736Y-130774831D01*
X169316219Y-130826943D01*
X169327448Y-130827311D01*
X169330000Y-130816369D01*
X169830000Y-130816369D01*
X169832551Y-130827311D01*
X169843780Y-130826943D01*
X170038263Y-130774831D01*
X170048397Y-130771143D01*
X170252676Y-130675886D01*
X170262008Y-130670498D01*
X170446643Y-130541215D01*
X170454909Y-130534278D01*
X170614278Y-130374909D01*
X170621215Y-130366643D01*
X170750498Y-130182008D01*
X170755886Y-130172676D01*
X170851143Y-129968397D01*
X170854831Y-129958263D01*
X170906943Y-129763780D01*
X170907311Y-129752551D01*
X170896369Y-129750000D01*
X169846326Y-129750000D01*
X169833450Y-129753450D01*
X169830000Y-129766326D01*
X169830000Y-130816369D01*
X169330000Y-130816369D01*
X169330000Y-129233674D01*
X169830000Y-129233674D01*
X169833450Y-129246549D01*
X169846326Y-129250000D01*
X170896369Y-129250000D01*
X170907311Y-129247448D01*
X170906943Y-129236219D01*
X170854831Y-129041736D01*
X170851143Y-129031602D01*
X170755889Y-128827332D01*
X170750491Y-128817982D01*
X170621215Y-128633357D01*
X170614280Y-128625092D01*
X170454909Y-128465721D01*
X170446643Y-128458784D01*
X170262008Y-128329501D01*
X170252676Y-128324113D01*
X170048397Y-128228856D01*
X170038263Y-128225168D01*
X169843780Y-128173056D01*
X169832551Y-128172688D01*
X169830000Y-128183631D01*
X169830000Y-129233674D01*
X169330000Y-129233674D01*
X169330000Y-128183631D01*
X169327448Y-128172688D01*
X169316219Y-128173056D01*
X169121736Y-128225168D01*
X169111602Y-128228856D01*
X168907332Y-128324110D01*
X168897982Y-128329508D01*
X168713357Y-128458784D01*
X168705092Y-128465719D01*
X168545719Y-128625092D01*
X168538788Y-128633352D01*
X168411880Y-128814596D01*
X168367562Y-128853461D01*
X168310305Y-128867472D01*
X168253048Y-128853461D01*
X168208730Y-128814595D01*
X168208425Y-128814159D01*
X168078495Y-128628599D01*
X167911401Y-128461505D01*
X167906970Y-128458402D01*
X167906966Y-128458399D01*
X167722259Y-128329066D01*
X167722257Y-128329064D01*
X167717830Y-128325965D01*
X167712933Y-128323681D01*
X167712927Y-128323678D01*
X167508572Y-128228386D01*
X167508570Y-128228385D01*
X167503663Y-128226097D01*
X167498438Y-128224697D01*
X167498430Y-128224694D01*
X167280634Y-128166337D01*
X167280630Y-128166336D01*
X167275408Y-128164937D01*
X167270020Y-128164465D01*
X167270017Y-128164465D01*
X167045395Y-128144813D01*
X167040000Y-128144341D01*
X167034605Y-128144813D01*
X166809982Y-128164465D01*
X166809977Y-128164465D01*
X166804592Y-128164937D01*
X166799371Y-128166335D01*
X166799365Y-128166337D01*
X166581569Y-128224694D01*
X166581557Y-128224698D01*
X166576337Y-128226097D01*
X166571432Y-128228383D01*
X166571427Y-128228386D01*
X166367081Y-128323675D01*
X166367077Y-128323677D01*
X166362171Y-128325965D01*
X166357738Y-128329068D01*
X166357731Y-128329073D01*
X166173034Y-128458399D01*
X166173029Y-128458402D01*
X166168599Y-128461505D01*
X166164775Y-128465328D01*
X166164769Y-128465334D01*
X166005334Y-128624769D01*
X166005328Y-128624775D01*
X166001505Y-128628599D01*
X165998402Y-128633029D01*
X165998399Y-128633034D01*
X165871575Y-128814159D01*
X165827257Y-128853025D01*
X165770000Y-128867036D01*
X165712743Y-128853025D01*
X165668425Y-128814159D01*
X165657327Y-128798310D01*
X165538495Y-128628599D01*
X165371401Y-128461505D01*
X165366970Y-128458402D01*
X165366966Y-128458399D01*
X165182259Y-128329066D01*
X165182257Y-128329064D01*
X165177830Y-128325965D01*
X165172933Y-128323681D01*
X165172927Y-128323678D01*
X164968572Y-128228386D01*
X164968570Y-128228385D01*
X164963663Y-128226097D01*
X164958438Y-128224697D01*
X164958430Y-128224694D01*
X164740634Y-128166337D01*
X164740630Y-128166336D01*
X164735408Y-128164937D01*
X164730020Y-128164465D01*
X164730017Y-128164465D01*
X164505395Y-128144813D01*
X164500000Y-128144341D01*
X164494605Y-128144813D01*
X164269982Y-128164465D01*
X164269977Y-128164465D01*
X164264592Y-128164937D01*
X164259371Y-128166335D01*
X164259365Y-128166337D01*
X164041569Y-128224694D01*
X164041557Y-128224698D01*
X164036337Y-128226097D01*
X164031432Y-128228383D01*
X164031427Y-128228386D01*
X163827081Y-128323675D01*
X163827077Y-128323677D01*
X163822171Y-128325965D01*
X163817738Y-128329068D01*
X163817731Y-128329073D01*
X163633034Y-128458399D01*
X163633029Y-128458402D01*
X163628599Y-128461505D01*
X163624774Y-128465329D01*
X163624775Y-128465329D01*
X163506673Y-128583431D01*
X163453926Y-128614726D01*
X163392633Y-128616915D01*
X163337789Y-128589462D01*
X163302810Y-128539082D01*
X163275304Y-128465336D01*
X163253796Y-128407669D01*
X163167546Y-128292454D01*
X163077030Y-128224694D01*
X163059431Y-128211519D01*
X163059430Y-128211518D01*
X163052331Y-128206204D01*
X162945442Y-128166337D01*
X162924752Y-128158620D01*
X162924750Y-128158619D01*
X162917483Y-128155909D01*
X162909770Y-128155079D01*
X162909767Y-128155079D01*
X162861180Y-128149855D01*
X162861169Y-128149854D01*
X162857873Y-128149500D01*
X162854550Y-128149500D01*
X161065439Y-128149500D01*
X161065420Y-128149500D01*
X161062128Y-128149501D01*
X161058850Y-128149853D01*
X161058838Y-128149854D01*
X161010231Y-128155079D01*
X161010225Y-128155080D01*
X161002517Y-128155909D01*
X160995252Y-128158618D01*
X160995246Y-128158620D01*
X160875980Y-128203104D01*
X160875978Y-128203104D01*
X160867669Y-128206204D01*
X160860572Y-128211516D01*
X160860568Y-128211519D01*
X160759550Y-128287141D01*
X160759546Y-128287144D01*
X160752454Y-128292454D01*
X160747144Y-128299546D01*
X160747141Y-128299550D01*
X160671519Y-128400568D01*
X160671516Y-128400572D01*
X160666204Y-128407669D01*
X160663104Y-128415978D01*
X160663104Y-128415980D01*
X160618620Y-128535247D01*
X160618619Y-128535250D01*
X160615909Y-128542517D01*
X160615079Y-128550227D01*
X160615079Y-128550232D01*
X160609855Y-128598819D01*
X160609854Y-128598831D01*
X160609500Y-128602127D01*
X160609500Y-128605448D01*
X160609500Y-128605449D01*
X160609500Y-130394560D01*
X160609500Y-130394578D01*
X118700500Y-130394578D01*
X118700500Y-70624500D01*
X118717113Y-70562500D01*
X118762500Y-70517113D01*
X118824500Y-70500500D01*
X171775500Y-70500500D01*
X171837500Y-70517113D01*
G37*
%TD.AperFunction*%
%TD*%
M02*
