M48
; DRILL file {KiCad 7.0.5} date Tue Oct 10 09:41:25 2023
; FORMAT={-:-/ absolute / inch / decimal}
; #@! TF.CreationDate,2023-10-10T09:41:25+02:00
; #@! TF.GenerationSoftware,Kicad,Pcbnew,7.0.5
; #@! TF.FileFunction,Plated,1,2,PTH
FMAT,2
INCH
; #@! TA.AperFunction,Plated,PTH,ViaDrill
T1C0.0157
; #@! TA.AperFunction,Plated,PTH,ComponentDrill
T2C0.0472
; #@! TA.AperFunction,Plated,PTH,ComponentDrill
T3C0.0866
%
G90
G05
T1
X4.2264Y-3.7303
X4.2323Y-4.5787
X4.2343Y-4.9764
X4.2382Y-5.3504
X4.2992Y-4.3031
X4.3465Y-3.4232
X4.3681Y-2.8366
X4.39Y-4.58
X4.4016Y-4.9823
X4.4055Y-3.1496
X4.4587Y-3.5886
X4.4606Y-3.3287
X4.4646Y-4.7421
X4.4823Y-5.1555
X4.4961Y-4.4075
X4.498Y-4.8051
X4.498Y-5.3661
X4.5669Y-3.9193
X4.5689Y-3.7224
X4.6Y-4.172
X4.6594Y-3.3012
X4.6732Y-2.8346
X4.6811Y-5.1142
X4.687Y-4.3465
X4.69Y-4.53
X4.69Y-4.74
X4.69Y-4.91
X4.878Y-3.9705
X4.8799Y-3.5866
X4.8799Y-3.7638
X4.8819Y-3.1555
X4.89Y-4.78
X4.8976Y-5.1634
X4.9035Y-4.4075
X4.9154Y-5.3425
X5.0787Y-3.9173
X5.0807Y-3.7205
X5.0866Y-4.3228
X5.0925Y-5.1122
X5.0965Y-4.7283
X5.1004Y-2.8346
X5.1004Y-3.1299
X5.1063Y-3.2992
X5.11Y-4.92
X5.1146Y-4.1091
X5.12Y-4.53
X5.311Y-5.1457
X5.3169Y-3.5925
X5.3189Y-4.4094
X5.3248Y-3.9665
X5.3268Y-3.1594
X5.3366Y-4.7933
X5.3425Y-5.3661
X5.4961Y-4.3484
X5.5039Y-3.9193
X5.5079Y-5.1142
X5.5118Y-4.7283
X5.5244Y-4.1154
X5.53Y-4.92
X5.5335Y-3.7126
X5.54Y-4.54
X5.563Y-2.8346
X5.565Y-3.122
X5.5669Y-3.315
X5.7Y-4.74
X5.7008Y-3.9724
X5.7087Y-4.4094
X5.7126Y-3.5945
X5.7303Y-5.1634
X5.7539Y-5.3543
X5.7835Y-3.1161
X5.83Y-4.93
X5.8839Y-4.3425
X5.8937Y-3.9055
X5.9Y-4.74
X5.9035Y-4.1138
X5.9075Y-3.7244
X5.91Y-4.53
X5.9291Y-5.1024
X6.04Y-4.95
X6.0807Y-2.8346
X6.0807Y-3.1102
X6.0866Y-3.313
X6.0906Y-3.5886
X6.0945Y-4.4094
X6.1Y-4.79
X6.122Y-5.378
X6.1339Y-5.1654
X6.14Y-4.58
X6.21Y-4.93
X6.2835Y-3.9193
X6.2957Y-4.1217
X6.2972Y-4.3543
X6.3Y-4.72
X6.3071Y-3.5709
X6.3445Y-3.2146
X6.36Y-5.16
X6.3976Y-3.748
X6.4941Y-2.8346
X6.5008Y-4.1228
X6.5059Y-3.9724
X6.5059Y-5.4469
X6.5394Y-4.7618
X6.5433Y-3.5925
X6.5472Y-5.3189
X6.5531Y-4.4173
X6.5571Y-5.1713
X6.5689Y-3.1654
X6.5728Y-3.7933
X6.5748Y-3.437
X6.6378Y-4.561
X6.6634Y-3.5256
X6.6654Y-5.374
X6.6693Y-4.9744
X6.6713Y-4.0138
X6.6732Y-4.1949
X6.7441Y-3.5217
X6.7461Y-4.1181
X6.748Y-4.5354
X6.7559Y-5.0295
X6.7559Y-5.3031
T2
X5.9768Y-5.5209
X6.1146Y-5.5209
X6.2524Y-5.5209
X6.3902Y-5.5209
T3
X4.1835Y-2.8654
X4.189Y-5.5748
X6.6535Y-5.5669
X6.6776Y-2.8685
T0
M30
