M48
; DRILL file {KiCad (7.0.0)} date Tue Nov 14 13:44:48 2023
; FORMAT={-:-/ absolute / metric / decimal}
; #@! TF.CreationDate,2023-11-14T13:44:48+01:00
; #@! TF.GenerationSoftware,Kicad,Pcbnew,(7.0.0)
; #@! TF.FileFunction,Plated,1,2,PTH
FMAT,2
METRIC
; #@! TA.AperFunction,Plated,PTH,ComponentDrill
T1C0.700
; #@! TA.AperFunction,Plated,PTH,ComponentDrill
T2C0.750
; #@! TA.AperFunction,Plated,PTH,ComponentDrill
T3C0.800
; #@! TA.AperFunction,Plated,PTH,ComponentDrill
T4C2.200
%
G90
G05
T1
X209.16Y-68.75
X209.51Y-53.6
X214.24Y-68.75
X214.59Y-53.6
X218.95Y-54.56
X218.95Y-59.64
X219.0Y-61.71
X219.0Y-66.79
T2
X204.21Y-60.58
X204.21Y-61.85
X204.21Y-63.12
T3
X202.8Y-66.75
X202.8Y-68.75
X202.8Y-70.75
X208.0Y-57.65
X208.0Y-60.19
X208.0Y-62.73
X208.0Y-65.27
X215.62Y-57.65
X215.62Y-60.19
X215.62Y-62.73
X215.62Y-65.27
T4
X203.25Y-54.9
X220.9Y-70.3
T0
M30
