%TF.GenerationSoftware,KiCad,Pcbnew,(7.0.0)*%
%TF.CreationDate,2023-11-14T13:44:42+01:00*%
%TF.ProjectId,LDR,4c44522e-6b69-4636-9164-5f7063625858,rev?*%
%TF.SameCoordinates,Original*%
%TF.FileFunction,Copper,L1,Top*%
%TF.FilePolarity,Positive*%
%FSLAX46Y46*%
G04 Gerber Fmt 4.6, Leading zero omitted, Abs format (unit mm)*
G04 Created by KiCad (PCBNEW (7.0.0)) date 2023-11-14 13:44:42*
%MOMM*%
%LPD*%
G01*
G04 APERTURE LIST*
%TA.AperFunction,ComponentPad*%
%ADD10C,3.800000*%
%TD*%
%TA.AperFunction,ComponentPad*%
%ADD11C,1.400000*%
%TD*%
%TA.AperFunction,ComponentPad*%
%ADD12O,1.400000X1.400000*%
%TD*%
%TA.AperFunction,ComponentPad*%
%ADD13R,1.500000X1.050000*%
%TD*%
%TA.AperFunction,ComponentPad*%
%ADD14O,1.500000X1.050000*%
%TD*%
%TA.AperFunction,ComponentPad*%
%ADD15R,1.600000X1.600000*%
%TD*%
%TA.AperFunction,ComponentPad*%
%ADD16O,1.600000X1.600000*%
%TD*%
%TA.AperFunction,ComponentPad*%
%ADD17R,1.350000X1.350000*%
%TD*%
%TA.AperFunction,ComponentPad*%
%ADD18O,1.350000X1.350000*%
%TD*%
%TA.AperFunction,Conductor*%
%ADD19C,0.250000*%
%TD*%
G04 APERTURE END LIST*
D10*
%TO.P,H1,1,1*%
%TO.N,GND*%
X203250000Y-54900000D03*
%TD*%
D11*
%TO.P,R1,1*%
%TO.N,Net-(U1--A)*%
X209510000Y-53600000D03*
D12*
%TO.P,R1,2*%
%TO.N,GND*%
X214589999Y-53599999D03*
%TD*%
D11*
%TO.P,R2,1*%
%TO.N,+3V3*%
X218950000Y-59640000D03*
D12*
%TO.P,R2,2*%
%TO.N,Net-(U1-+A)*%
X218949999Y-54559999D03*
%TD*%
D11*
%TO.P,R3,1*%
%TO.N,+3V3*%
X214240000Y-68750000D03*
D12*
%TO.P,R3,2*%
%TO.N,Net-(U1--A)*%
X209159999Y-68749999D03*
%TD*%
D11*
%TO.P,R4,1*%
%TO.N,Net-(U1-+A)*%
X219000000Y-61710000D03*
D12*
%TO.P,R4,2*%
%TO.N,GND*%
X218999999Y-66789999D03*
%TD*%
D13*
%TO.P,Q1,1,E*%
%TO.N,GND*%
X204209999Y-63119999D03*
D14*
%TO.P,Q1,2,B*%
%TO.N,Net-(Q1-B)*%
X204209999Y-61849999D03*
%TO.P,Q1,3,C*%
%TO.N,3V3_en*%
X204209999Y-60579999D03*
%TD*%
D10*
%TO.P,H2,1,1*%
%TO.N,GND*%
X220900000Y-70300000D03*
%TD*%
D15*
%TO.P,U1,1,OUT-A*%
%TO.N,Net-(Q1-B)*%
X207999999Y-57649999D03*
D16*
%TO.P,U1,2,-A*%
%TO.N,Net-(U1--A)*%
X207999999Y-60189999D03*
%TO.P,U1,3,+A*%
%TO.N,Net-(U1-+A)*%
X207999999Y-62729999D03*
%TO.P,U1,4,GND*%
%TO.N,GND*%
X207999999Y-65269999D03*
%TO.P,U1,5*%
%TO.N,N/C*%
X215619999Y-65269999D03*
%TO.P,U1,6*%
X215619999Y-62729999D03*
%TO.P,U1,7*%
X215619999Y-60189999D03*
%TO.P,U1,8,V+*%
%TO.N,+3V3*%
X215619999Y-57649999D03*
%TD*%
D17*
%TO.P,J1,1,Pin_1*%
%TO.N,+3V3*%
X202799999Y-70749999D03*
D18*
%TO.P,J1,2,Pin_2*%
%TO.N,GND*%
X202799999Y-68749999D03*
%TO.P,J1,3,Pin_3*%
%TO.N,3V3_en*%
X202799999Y-66749999D03*
%TD*%
D19*
%TO.N,3V3_en*%
X202200000Y-66150000D02*
X202800000Y-66750000D01*
X203965000Y-60600000D02*
X202700000Y-60600000D01*
X202700000Y-60600000D02*
X202300000Y-61000000D01*
X202300000Y-61000000D02*
X202200000Y-61000000D01*
X202200000Y-61000000D02*
X202200000Y-66150000D01*
X204210000Y-60580000D02*
X203985000Y-60580000D01*
X203985000Y-60580000D02*
X203965000Y-60600000D01*
%TO.N,Net-(Q1-B)*%
X204367082Y-61850000D02*
X204210000Y-61850000D01*
X208000000Y-58217082D02*
X204367082Y-61850000D01*
X208000000Y-57650000D02*
X208000000Y-58217082D01*
%TO.N,+3V3*%
X218950000Y-59640000D02*
X217200000Y-61390000D01*
X214240000Y-68750000D02*
X215500000Y-68750000D01*
X217200000Y-61390000D02*
X217200000Y-61800000D01*
X212240000Y-70750000D02*
X214240000Y-68750000D01*
X202800000Y-70750000D02*
X212240000Y-70750000D01*
X217200000Y-67050000D02*
X217200000Y-61800000D01*
X217200000Y-61800000D02*
X217200000Y-59230000D01*
X217200000Y-59230000D02*
X215620000Y-57650000D01*
X215500000Y-68750000D02*
X217200000Y-67050000D01*
%TO.N,Net-(U1--A)*%
X206875000Y-67625000D02*
X206875000Y-61315000D01*
X208000000Y-68750000D02*
X206875000Y-67625000D01*
X209160000Y-68750000D02*
X208000000Y-68750000D01*
X209510000Y-58680000D02*
X208000000Y-60190000D01*
X206875000Y-61315000D02*
X208000000Y-60190000D01*
X209510000Y-53600000D02*
X209510000Y-58680000D01*
%TO.N,Net-(U1-+A)*%
X220400000Y-60310000D02*
X220400000Y-56010000D01*
X216170000Y-54560000D02*
X208000000Y-62730000D01*
X219000000Y-61710000D02*
X220400000Y-60310000D01*
X218950000Y-54560000D02*
X216170000Y-54560000D01*
X220400000Y-56010000D02*
X218950000Y-54560000D01*
%TD*%
M02*
