%TF.GenerationSoftware,KiCad,Pcbnew,(7.0.0)*%
%TF.CreationDate,2023-12-23T17:06:12+01:00*%
%TF.ProjectId,PCB-light-challenge,5043422d-6c69-4676-9874-2d6368616c6c,rev?*%
%TF.SameCoordinates,Original*%
%TF.FileFunction,Legend,Bot*%
%TF.FilePolarity,Positive*%
%FSLAX46Y46*%
G04 Gerber Fmt 4.6, Leading zero omitted, Abs format (unit mm)*
G04 Created by KiCad (PCBNEW (7.0.0)) date 2023-12-23 17:06:12*
%MOMM*%
%LPD*%
G01*
G04 APERTURE LIST*
%ADD10C,0.150000*%
G04 APERTURE END LIST*
D10*
X223196161Y-126448380D02*
X222624733Y-126448380D01*
X222910447Y-127448380D02*
X222910447Y-126448380D01*
X222291399Y-127448380D02*
X222291399Y-126448380D01*
X221862828Y-127448380D02*
X221862828Y-126924571D01*
X221862828Y-126924571D02*
X221910447Y-126829333D01*
X221910447Y-126829333D02*
X222005685Y-126781714D01*
X222005685Y-126781714D02*
X222148542Y-126781714D01*
X222148542Y-126781714D02*
X222243780Y-126829333D01*
X222243780Y-126829333D02*
X222291399Y-126876952D01*
X221005685Y-127400761D02*
X221100923Y-127448380D01*
X221100923Y-127448380D02*
X221291399Y-127448380D01*
X221291399Y-127448380D02*
X221386637Y-127400761D01*
X221386637Y-127400761D02*
X221434256Y-127305523D01*
X221434256Y-127305523D02*
X221434256Y-126924571D01*
X221434256Y-126924571D02*
X221386637Y-126829333D01*
X221386637Y-126829333D02*
X221291399Y-126781714D01*
X221291399Y-126781714D02*
X221100923Y-126781714D01*
X221100923Y-126781714D02*
X221005685Y-126829333D01*
X221005685Y-126829333D02*
X220958066Y-126924571D01*
X220958066Y-126924571D02*
X220958066Y-127019809D01*
X220958066Y-127019809D02*
X221434256Y-127115047D01*
X219453304Y-127448380D02*
X219929494Y-127448380D01*
X219929494Y-127448380D02*
X219929494Y-126448380D01*
X219119970Y-127448380D02*
X219119970Y-126781714D01*
X219119970Y-126448380D02*
X219167589Y-126496000D01*
X219167589Y-126496000D02*
X219119970Y-126543619D01*
X219119970Y-126543619D02*
X219072351Y-126496000D01*
X219072351Y-126496000D02*
X219119970Y-126448380D01*
X219119970Y-126448380D02*
X219119970Y-126543619D01*
X218215209Y-126781714D02*
X218215209Y-127591238D01*
X218215209Y-127591238D02*
X218262828Y-127686476D01*
X218262828Y-127686476D02*
X218310447Y-127734095D01*
X218310447Y-127734095D02*
X218405685Y-127781714D01*
X218405685Y-127781714D02*
X218548542Y-127781714D01*
X218548542Y-127781714D02*
X218643780Y-127734095D01*
X218215209Y-127400761D02*
X218310447Y-127448380D01*
X218310447Y-127448380D02*
X218500923Y-127448380D01*
X218500923Y-127448380D02*
X218596161Y-127400761D01*
X218596161Y-127400761D02*
X218643780Y-127353142D01*
X218643780Y-127353142D02*
X218691399Y-127257904D01*
X218691399Y-127257904D02*
X218691399Y-126972190D01*
X218691399Y-126972190D02*
X218643780Y-126876952D01*
X218643780Y-126876952D02*
X218596161Y-126829333D01*
X218596161Y-126829333D02*
X218500923Y-126781714D01*
X218500923Y-126781714D02*
X218310447Y-126781714D01*
X218310447Y-126781714D02*
X218215209Y-126829333D01*
X217739018Y-127448380D02*
X217739018Y-126448380D01*
X217310447Y-127448380D02*
X217310447Y-126924571D01*
X217310447Y-126924571D02*
X217358066Y-126829333D01*
X217358066Y-126829333D02*
X217453304Y-126781714D01*
X217453304Y-126781714D02*
X217596161Y-126781714D01*
X217596161Y-126781714D02*
X217691399Y-126829333D01*
X217691399Y-126829333D02*
X217739018Y-126876952D01*
X216977113Y-126781714D02*
X216596161Y-126781714D01*
X216834256Y-126448380D02*
X216834256Y-127305523D01*
X216834256Y-127305523D02*
X216786637Y-127400761D01*
X216786637Y-127400761D02*
X216691399Y-127448380D01*
X216691399Y-127448380D02*
X216596161Y-127448380D01*
X215091399Y-127353142D02*
X215139018Y-127400761D01*
X215139018Y-127400761D02*
X215281875Y-127448380D01*
X215281875Y-127448380D02*
X215377113Y-127448380D01*
X215377113Y-127448380D02*
X215519970Y-127400761D01*
X215519970Y-127400761D02*
X215615208Y-127305523D01*
X215615208Y-127305523D02*
X215662827Y-127210285D01*
X215662827Y-127210285D02*
X215710446Y-127019809D01*
X215710446Y-127019809D02*
X215710446Y-126876952D01*
X215710446Y-126876952D02*
X215662827Y-126686476D01*
X215662827Y-126686476D02*
X215615208Y-126591238D01*
X215615208Y-126591238D02*
X215519970Y-126496000D01*
X215519970Y-126496000D02*
X215377113Y-126448380D01*
X215377113Y-126448380D02*
X215281875Y-126448380D01*
X215281875Y-126448380D02*
X215139018Y-126496000D01*
X215139018Y-126496000D02*
X215091399Y-126543619D01*
X214662827Y-127448380D02*
X214662827Y-126448380D01*
X214234256Y-127448380D02*
X214234256Y-126924571D01*
X214234256Y-126924571D02*
X214281875Y-126829333D01*
X214281875Y-126829333D02*
X214377113Y-126781714D01*
X214377113Y-126781714D02*
X214519970Y-126781714D01*
X214519970Y-126781714D02*
X214615208Y-126829333D01*
X214615208Y-126829333D02*
X214662827Y-126876952D01*
X213329494Y-127448380D02*
X213329494Y-126924571D01*
X213329494Y-126924571D02*
X213377113Y-126829333D01*
X213377113Y-126829333D02*
X213472351Y-126781714D01*
X213472351Y-126781714D02*
X213662827Y-126781714D01*
X213662827Y-126781714D02*
X213758065Y-126829333D01*
X213329494Y-127400761D02*
X213424732Y-127448380D01*
X213424732Y-127448380D02*
X213662827Y-127448380D01*
X213662827Y-127448380D02*
X213758065Y-127400761D01*
X213758065Y-127400761D02*
X213805684Y-127305523D01*
X213805684Y-127305523D02*
X213805684Y-127210285D01*
X213805684Y-127210285D02*
X213758065Y-127115047D01*
X213758065Y-127115047D02*
X213662827Y-127067428D01*
X213662827Y-127067428D02*
X213424732Y-127067428D01*
X213424732Y-127067428D02*
X213329494Y-127019809D01*
X212710446Y-127448380D02*
X212805684Y-127400761D01*
X212805684Y-127400761D02*
X212853303Y-127305523D01*
X212853303Y-127305523D02*
X212853303Y-126448380D01*
X212186636Y-127448380D02*
X212281874Y-127400761D01*
X212281874Y-127400761D02*
X212329493Y-127305523D01*
X212329493Y-127305523D02*
X212329493Y-126448380D01*
X211424731Y-127400761D02*
X211519969Y-127448380D01*
X211519969Y-127448380D02*
X211710445Y-127448380D01*
X211710445Y-127448380D02*
X211805683Y-127400761D01*
X211805683Y-127400761D02*
X211853302Y-127305523D01*
X211853302Y-127305523D02*
X211853302Y-126924571D01*
X211853302Y-126924571D02*
X211805683Y-126829333D01*
X211805683Y-126829333D02*
X211710445Y-126781714D01*
X211710445Y-126781714D02*
X211519969Y-126781714D01*
X211519969Y-126781714D02*
X211424731Y-126829333D01*
X211424731Y-126829333D02*
X211377112Y-126924571D01*
X211377112Y-126924571D02*
X211377112Y-127019809D01*
X211377112Y-127019809D02*
X211853302Y-127115047D01*
X210948540Y-126781714D02*
X210948540Y-127448380D01*
X210948540Y-126876952D02*
X210900921Y-126829333D01*
X210900921Y-126829333D02*
X210805683Y-126781714D01*
X210805683Y-126781714D02*
X210662826Y-126781714D01*
X210662826Y-126781714D02*
X210567588Y-126829333D01*
X210567588Y-126829333D02*
X210519969Y-126924571D01*
X210519969Y-126924571D02*
X210519969Y-127448380D01*
X209615207Y-126781714D02*
X209615207Y-127591238D01*
X209615207Y-127591238D02*
X209662826Y-127686476D01*
X209662826Y-127686476D02*
X209710445Y-127734095D01*
X209710445Y-127734095D02*
X209805683Y-127781714D01*
X209805683Y-127781714D02*
X209948540Y-127781714D01*
X209948540Y-127781714D02*
X210043778Y-127734095D01*
X209615207Y-127400761D02*
X209710445Y-127448380D01*
X209710445Y-127448380D02*
X209900921Y-127448380D01*
X209900921Y-127448380D02*
X209996159Y-127400761D01*
X209996159Y-127400761D02*
X210043778Y-127353142D01*
X210043778Y-127353142D02*
X210091397Y-127257904D01*
X210091397Y-127257904D02*
X210091397Y-126972190D01*
X210091397Y-126972190D02*
X210043778Y-126876952D01*
X210043778Y-126876952D02*
X209996159Y-126829333D01*
X209996159Y-126829333D02*
X209900921Y-126781714D01*
X209900921Y-126781714D02*
X209710445Y-126781714D01*
X209710445Y-126781714D02*
X209615207Y-126829333D01*
X208758064Y-127400761D02*
X208853302Y-127448380D01*
X208853302Y-127448380D02*
X209043778Y-127448380D01*
X209043778Y-127448380D02*
X209139016Y-127400761D01*
X209139016Y-127400761D02*
X209186635Y-127305523D01*
X209186635Y-127305523D02*
X209186635Y-126924571D01*
X209186635Y-126924571D02*
X209139016Y-126829333D01*
X209139016Y-126829333D02*
X209043778Y-126781714D01*
X209043778Y-126781714D02*
X208853302Y-126781714D01*
X208853302Y-126781714D02*
X208758064Y-126829333D01*
X208758064Y-126829333D02*
X208710445Y-126924571D01*
X208710445Y-126924571D02*
X208710445Y-127019809D01*
X208710445Y-127019809D02*
X209186635Y-127115047D01*
X223196161Y-128068380D02*
X222862828Y-129068380D01*
X222862828Y-129068380D02*
X222529495Y-128068380D01*
X221672352Y-129068380D02*
X222243780Y-129068380D01*
X221958066Y-129068380D02*
X221958066Y-128068380D01*
X221958066Y-128068380D02*
X222053304Y-128211238D01*
X222053304Y-128211238D02*
X222148542Y-128306476D01*
X222148542Y-128306476D02*
X222243780Y-128354095D01*
X221243780Y-128973142D02*
X221196161Y-129020761D01*
X221196161Y-129020761D02*
X221243780Y-129068380D01*
X221243780Y-129068380D02*
X221291399Y-129020761D01*
X221291399Y-129020761D02*
X221243780Y-128973142D01*
X221243780Y-128973142D02*
X221243780Y-129068380D01*
X220815209Y-128163619D02*
X220767590Y-128116000D01*
X220767590Y-128116000D02*
X220672352Y-128068380D01*
X220672352Y-128068380D02*
X220434257Y-128068380D01*
X220434257Y-128068380D02*
X220339019Y-128116000D01*
X220339019Y-128116000D02*
X220291400Y-128163619D01*
X220291400Y-128163619D02*
X220243781Y-128258857D01*
X220243781Y-128258857D02*
X220243781Y-128354095D01*
X220243781Y-128354095D02*
X220291400Y-128496952D01*
X220291400Y-128496952D02*
X220862828Y-129068380D01*
X220862828Y-129068380D02*
X220243781Y-129068380D01*
X218430504Y-132138780D02*
X218430504Y-131138780D01*
X218430504Y-131138780D02*
X218097171Y-131853066D01*
X218097171Y-131853066D02*
X217763838Y-131138780D01*
X217763838Y-131138780D02*
X217763838Y-132138780D01*
X216859076Y-132138780D02*
X216859076Y-131614971D01*
X216859076Y-131614971D02*
X216906695Y-131519733D01*
X216906695Y-131519733D02*
X217001933Y-131472114D01*
X217001933Y-131472114D02*
X217192409Y-131472114D01*
X217192409Y-131472114D02*
X217287647Y-131519733D01*
X216859076Y-132091161D02*
X216954314Y-132138780D01*
X216954314Y-132138780D02*
X217192409Y-132138780D01*
X217192409Y-132138780D02*
X217287647Y-132091161D01*
X217287647Y-132091161D02*
X217335266Y-131995923D01*
X217335266Y-131995923D02*
X217335266Y-131900685D01*
X217335266Y-131900685D02*
X217287647Y-131805447D01*
X217287647Y-131805447D02*
X217192409Y-131757828D01*
X217192409Y-131757828D02*
X216954314Y-131757828D01*
X216954314Y-131757828D02*
X216859076Y-131710209D01*
X216382885Y-132138780D02*
X216382885Y-131472114D01*
X216382885Y-131138780D02*
X216430504Y-131186400D01*
X216430504Y-131186400D02*
X216382885Y-131234019D01*
X216382885Y-131234019D02*
X216335266Y-131186400D01*
X216335266Y-131186400D02*
X216382885Y-131138780D01*
X216382885Y-131138780D02*
X216382885Y-131234019D01*
X215906695Y-131472114D02*
X215906695Y-132138780D01*
X215906695Y-131567352D02*
X215859076Y-131519733D01*
X215859076Y-131519733D02*
X215763838Y-131472114D01*
X215763838Y-131472114D02*
X215620981Y-131472114D01*
X215620981Y-131472114D02*
X215525743Y-131519733D01*
X215525743Y-131519733D02*
X215478124Y-131614971D01*
X215478124Y-131614971D02*
X215478124Y-132138780D01*
X214401933Y-132138780D02*
X214401933Y-131138780D01*
X214401933Y-131519733D02*
X214306695Y-131472114D01*
X214306695Y-131472114D02*
X214116219Y-131472114D01*
X214116219Y-131472114D02*
X214020981Y-131519733D01*
X214020981Y-131519733D02*
X213973362Y-131567352D01*
X213973362Y-131567352D02*
X213925743Y-131662590D01*
X213925743Y-131662590D02*
X213925743Y-131948304D01*
X213925743Y-131948304D02*
X213973362Y-132043542D01*
X213973362Y-132043542D02*
X214020981Y-132091161D01*
X214020981Y-132091161D02*
X214116219Y-132138780D01*
X214116219Y-132138780D02*
X214306695Y-132138780D01*
X214306695Y-132138780D02*
X214401933Y-132091161D01*
X213354314Y-132138780D02*
X213449552Y-132091161D01*
X213449552Y-132091161D02*
X213497171Y-132043542D01*
X213497171Y-132043542D02*
X213544790Y-131948304D01*
X213544790Y-131948304D02*
X213544790Y-131662590D01*
X213544790Y-131662590D02*
X213497171Y-131567352D01*
X213497171Y-131567352D02*
X213449552Y-131519733D01*
X213449552Y-131519733D02*
X213354314Y-131472114D01*
X213354314Y-131472114D02*
X213211457Y-131472114D01*
X213211457Y-131472114D02*
X213116219Y-131519733D01*
X213116219Y-131519733D02*
X213068600Y-131567352D01*
X213068600Y-131567352D02*
X213020981Y-131662590D01*
X213020981Y-131662590D02*
X213020981Y-131948304D01*
X213020981Y-131948304D02*
X213068600Y-132043542D01*
X213068600Y-132043542D02*
X213116219Y-132091161D01*
X213116219Y-132091161D02*
X213211457Y-132138780D01*
X213211457Y-132138780D02*
X213354314Y-132138780D01*
X212163838Y-132138780D02*
X212163838Y-131614971D01*
X212163838Y-131614971D02*
X212211457Y-131519733D01*
X212211457Y-131519733D02*
X212306695Y-131472114D01*
X212306695Y-131472114D02*
X212497171Y-131472114D01*
X212497171Y-131472114D02*
X212592409Y-131519733D01*
X212163838Y-132091161D02*
X212259076Y-132138780D01*
X212259076Y-132138780D02*
X212497171Y-132138780D01*
X212497171Y-132138780D02*
X212592409Y-132091161D01*
X212592409Y-132091161D02*
X212640028Y-131995923D01*
X212640028Y-131995923D02*
X212640028Y-131900685D01*
X212640028Y-131900685D02*
X212592409Y-131805447D01*
X212592409Y-131805447D02*
X212497171Y-131757828D01*
X212497171Y-131757828D02*
X212259076Y-131757828D01*
X212259076Y-131757828D02*
X212163838Y-131710209D01*
X211687647Y-132138780D02*
X211687647Y-131472114D01*
X211687647Y-131662590D02*
X211640028Y-131567352D01*
X211640028Y-131567352D02*
X211592409Y-131519733D01*
X211592409Y-131519733D02*
X211497171Y-131472114D01*
X211497171Y-131472114D02*
X211401933Y-131472114D01*
X210640028Y-132138780D02*
X210640028Y-131138780D01*
X210640028Y-132091161D02*
X210735266Y-132138780D01*
X210735266Y-132138780D02*
X210925742Y-132138780D01*
X210925742Y-132138780D02*
X211020980Y-132091161D01*
X211020980Y-132091161D02*
X211068599Y-132043542D01*
X211068599Y-132043542D02*
X211116218Y-131948304D01*
X211116218Y-131948304D02*
X211116218Y-131662590D01*
X211116218Y-131662590D02*
X211068599Y-131567352D01*
X211068599Y-131567352D02*
X211020980Y-131519733D01*
X211020980Y-131519733D02*
X210925742Y-131472114D01*
X210925742Y-131472114D02*
X210735266Y-131472114D01*
X210735266Y-131472114D02*
X210640028Y-131519733D01*
X218430504Y-133758780D02*
X218430504Y-132758780D01*
X218430504Y-132758780D02*
X218097171Y-133473066D01*
X218097171Y-133473066D02*
X217763838Y-132758780D01*
X217763838Y-132758780D02*
X217763838Y-133758780D01*
X216859076Y-133758780D02*
X216859076Y-133234971D01*
X216859076Y-133234971D02*
X216906695Y-133139733D01*
X216906695Y-133139733D02*
X217001933Y-133092114D01*
X217001933Y-133092114D02*
X217192409Y-133092114D01*
X217192409Y-133092114D02*
X217287647Y-133139733D01*
X216859076Y-133711161D02*
X216954314Y-133758780D01*
X216954314Y-133758780D02*
X217192409Y-133758780D01*
X217192409Y-133758780D02*
X217287647Y-133711161D01*
X217287647Y-133711161D02*
X217335266Y-133615923D01*
X217335266Y-133615923D02*
X217335266Y-133520685D01*
X217335266Y-133520685D02*
X217287647Y-133425447D01*
X217287647Y-133425447D02*
X217192409Y-133377828D01*
X217192409Y-133377828D02*
X216954314Y-133377828D01*
X216954314Y-133377828D02*
X216859076Y-133330209D01*
X215954314Y-133758780D02*
X215954314Y-132758780D01*
X215954314Y-133711161D02*
X216049552Y-133758780D01*
X216049552Y-133758780D02*
X216240028Y-133758780D01*
X216240028Y-133758780D02*
X216335266Y-133711161D01*
X216335266Y-133711161D02*
X216382885Y-133663542D01*
X216382885Y-133663542D02*
X216430504Y-133568304D01*
X216430504Y-133568304D02*
X216430504Y-133282590D01*
X216430504Y-133282590D02*
X216382885Y-133187352D01*
X216382885Y-133187352D02*
X216335266Y-133139733D01*
X216335266Y-133139733D02*
X216240028Y-133092114D01*
X216240028Y-133092114D02*
X216049552Y-133092114D01*
X216049552Y-133092114D02*
X215954314Y-133139733D01*
X215097171Y-133711161D02*
X215192409Y-133758780D01*
X215192409Y-133758780D02*
X215382885Y-133758780D01*
X215382885Y-133758780D02*
X215478123Y-133711161D01*
X215478123Y-133711161D02*
X215525742Y-133615923D01*
X215525742Y-133615923D02*
X215525742Y-133234971D01*
X215525742Y-133234971D02*
X215478123Y-133139733D01*
X215478123Y-133139733D02*
X215382885Y-133092114D01*
X215382885Y-133092114D02*
X215192409Y-133092114D01*
X215192409Y-133092114D02*
X215097171Y-133139733D01*
X215097171Y-133139733D02*
X215049552Y-133234971D01*
X215049552Y-133234971D02*
X215049552Y-133330209D01*
X215049552Y-133330209D02*
X215525742Y-133425447D01*
X214020980Y-133758780D02*
X214020980Y-132758780D01*
X214020980Y-133139733D02*
X213925742Y-133092114D01*
X213925742Y-133092114D02*
X213735266Y-133092114D01*
X213735266Y-133092114D02*
X213640028Y-133139733D01*
X213640028Y-133139733D02*
X213592409Y-133187352D01*
X213592409Y-133187352D02*
X213544790Y-133282590D01*
X213544790Y-133282590D02*
X213544790Y-133568304D01*
X213544790Y-133568304D02*
X213592409Y-133663542D01*
X213592409Y-133663542D02*
X213640028Y-133711161D01*
X213640028Y-133711161D02*
X213735266Y-133758780D01*
X213735266Y-133758780D02*
X213925742Y-133758780D01*
X213925742Y-133758780D02*
X214020980Y-133711161D01*
X213211456Y-133092114D02*
X212973361Y-133758780D01*
X212735266Y-133092114D02*
X212973361Y-133758780D01*
X212973361Y-133758780D02*
X213068599Y-133996876D01*
X213068599Y-133996876D02*
X213116218Y-134044495D01*
X213116218Y-134044495D02*
X213211456Y-134092114D01*
X212354313Y-133663542D02*
X212306694Y-133711161D01*
X212306694Y-133711161D02*
X212354313Y-133758780D01*
X212354313Y-133758780D02*
X212401932Y-133711161D01*
X212401932Y-133711161D02*
X212354313Y-133663542D01*
X212354313Y-133663542D02*
X212354313Y-133758780D01*
X212354313Y-133139733D02*
X212306694Y-133187352D01*
X212306694Y-133187352D02*
X212354313Y-133234971D01*
X212354313Y-133234971D02*
X212401932Y-133187352D01*
X212401932Y-133187352D02*
X212354313Y-133139733D01*
X212354313Y-133139733D02*
X212354313Y-133234971D01*
X211278123Y-133758780D02*
X211278123Y-132758780D01*
X211278123Y-132758780D02*
X210706695Y-133758780D01*
X210706695Y-133758780D02*
X210706695Y-132758780D01*
X210230504Y-133663542D02*
X210182885Y-133711161D01*
X210182885Y-133711161D02*
X210230504Y-133758780D01*
X210230504Y-133758780D02*
X210278123Y-133711161D01*
X210278123Y-133711161D02*
X210230504Y-133663542D01*
X210230504Y-133663542D02*
X210230504Y-133758780D01*
X209230505Y-132806400D02*
X209325743Y-132758780D01*
X209325743Y-132758780D02*
X209468600Y-132758780D01*
X209468600Y-132758780D02*
X209611457Y-132806400D01*
X209611457Y-132806400D02*
X209706695Y-132901638D01*
X209706695Y-132901638D02*
X209754314Y-132996876D01*
X209754314Y-132996876D02*
X209801933Y-133187352D01*
X209801933Y-133187352D02*
X209801933Y-133330209D01*
X209801933Y-133330209D02*
X209754314Y-133520685D01*
X209754314Y-133520685D02*
X209706695Y-133615923D01*
X209706695Y-133615923D02*
X209611457Y-133711161D01*
X209611457Y-133711161D02*
X209468600Y-133758780D01*
X209468600Y-133758780D02*
X209373362Y-133758780D01*
X209373362Y-133758780D02*
X209230505Y-133711161D01*
X209230505Y-133711161D02*
X209182886Y-133663542D01*
X209182886Y-133663542D02*
X209182886Y-133330209D01*
X209182886Y-133330209D02*
X209373362Y-133330209D01*
X208325743Y-133758780D02*
X208325743Y-133234971D01*
X208325743Y-133234971D02*
X208373362Y-133139733D01*
X208373362Y-133139733D02*
X208468600Y-133092114D01*
X208468600Y-133092114D02*
X208659076Y-133092114D01*
X208659076Y-133092114D02*
X208754314Y-133139733D01*
X208325743Y-133711161D02*
X208420981Y-133758780D01*
X208420981Y-133758780D02*
X208659076Y-133758780D01*
X208659076Y-133758780D02*
X208754314Y-133711161D01*
X208754314Y-133711161D02*
X208801933Y-133615923D01*
X208801933Y-133615923D02*
X208801933Y-133520685D01*
X208801933Y-133520685D02*
X208754314Y-133425447D01*
X208754314Y-133425447D02*
X208659076Y-133377828D01*
X208659076Y-133377828D02*
X208420981Y-133377828D01*
X208420981Y-133377828D02*
X208325743Y-133330209D01*
X207849552Y-133092114D02*
X207849552Y-133758780D01*
X207849552Y-133187352D02*
X207801933Y-133139733D01*
X207801933Y-133139733D02*
X207706695Y-133092114D01*
X207706695Y-133092114D02*
X207563838Y-133092114D01*
X207563838Y-133092114D02*
X207468600Y-133139733D01*
X207468600Y-133139733D02*
X207420981Y-133234971D01*
X207420981Y-133234971D02*
X207420981Y-133758780D01*
X206516219Y-133092114D02*
X206516219Y-133901638D01*
X206516219Y-133901638D02*
X206563838Y-133996876D01*
X206563838Y-133996876D02*
X206611457Y-134044495D01*
X206611457Y-134044495D02*
X206706695Y-134092114D01*
X206706695Y-134092114D02*
X206849552Y-134092114D01*
X206849552Y-134092114D02*
X206944790Y-134044495D01*
X206516219Y-133711161D02*
X206611457Y-133758780D01*
X206611457Y-133758780D02*
X206801933Y-133758780D01*
X206801933Y-133758780D02*
X206897171Y-133711161D01*
X206897171Y-133711161D02*
X206944790Y-133663542D01*
X206944790Y-133663542D02*
X206992409Y-133568304D01*
X206992409Y-133568304D02*
X206992409Y-133282590D01*
X206992409Y-133282590D02*
X206944790Y-133187352D01*
X206944790Y-133187352D02*
X206897171Y-133139733D01*
X206897171Y-133139733D02*
X206801933Y-133092114D01*
X206801933Y-133092114D02*
X206611457Y-133092114D01*
X206611457Y-133092114D02*
X206516219Y-133139733D01*
X205611457Y-133758780D02*
X205611457Y-133234971D01*
X205611457Y-133234971D02*
X205659076Y-133139733D01*
X205659076Y-133139733D02*
X205754314Y-133092114D01*
X205754314Y-133092114D02*
X205944790Y-133092114D01*
X205944790Y-133092114D02*
X206040028Y-133139733D01*
X205611457Y-133711161D02*
X205706695Y-133758780D01*
X205706695Y-133758780D02*
X205944790Y-133758780D01*
X205944790Y-133758780D02*
X206040028Y-133711161D01*
X206040028Y-133711161D02*
X206087647Y-133615923D01*
X206087647Y-133615923D02*
X206087647Y-133520685D01*
X206087647Y-133520685D02*
X206040028Y-133425447D01*
X206040028Y-133425447D02*
X205944790Y-133377828D01*
X205944790Y-133377828D02*
X205706695Y-133377828D01*
X205706695Y-133377828D02*
X205611457Y-133330209D01*
X205087647Y-133711161D02*
X205087647Y-133758780D01*
X205087647Y-133758780D02*
X205135266Y-133854019D01*
X205135266Y-133854019D02*
X205182885Y-133901638D01*
X218478123Y-135093066D02*
X218001933Y-135093066D01*
X218573361Y-135378780D02*
X218240028Y-134378780D01*
X218240028Y-134378780D02*
X217906695Y-135378780D01*
X217573361Y-135283542D02*
X217525742Y-135331161D01*
X217525742Y-135331161D02*
X217573361Y-135378780D01*
X217573361Y-135378780D02*
X217620980Y-135331161D01*
X217620980Y-135331161D02*
X217573361Y-135283542D01*
X217573361Y-135283542D02*
X217573361Y-135378780D01*
X216763838Y-134854971D02*
X216620981Y-134902590D01*
X216620981Y-134902590D02*
X216573362Y-134950209D01*
X216573362Y-134950209D02*
X216525743Y-135045447D01*
X216525743Y-135045447D02*
X216525743Y-135188304D01*
X216525743Y-135188304D02*
X216573362Y-135283542D01*
X216573362Y-135283542D02*
X216620981Y-135331161D01*
X216620981Y-135331161D02*
X216716219Y-135378780D01*
X216716219Y-135378780D02*
X217097171Y-135378780D01*
X217097171Y-135378780D02*
X217097171Y-134378780D01*
X217097171Y-134378780D02*
X216763838Y-134378780D01*
X216763838Y-134378780D02*
X216668600Y-134426400D01*
X216668600Y-134426400D02*
X216620981Y-134474019D01*
X216620981Y-134474019D02*
X216573362Y-134569257D01*
X216573362Y-134569257D02*
X216573362Y-134664495D01*
X216573362Y-134664495D02*
X216620981Y-134759733D01*
X216620981Y-134759733D02*
X216668600Y-134807352D01*
X216668600Y-134807352D02*
X216763838Y-134854971D01*
X216763838Y-134854971D02*
X217097171Y-134854971D01*
X215716219Y-135331161D02*
X215811457Y-135378780D01*
X215811457Y-135378780D02*
X216001933Y-135378780D01*
X216001933Y-135378780D02*
X216097171Y-135331161D01*
X216097171Y-135331161D02*
X216144790Y-135235923D01*
X216144790Y-135235923D02*
X216144790Y-134854971D01*
X216144790Y-134854971D02*
X216097171Y-134759733D01*
X216097171Y-134759733D02*
X216001933Y-134712114D01*
X216001933Y-134712114D02*
X215811457Y-134712114D01*
X215811457Y-134712114D02*
X215716219Y-134759733D01*
X215716219Y-134759733D02*
X215668600Y-134854971D01*
X215668600Y-134854971D02*
X215668600Y-134950209D01*
X215668600Y-134950209D02*
X216144790Y-135045447D01*
X215240028Y-134712114D02*
X215240028Y-135378780D01*
X215240028Y-134807352D02*
X215192409Y-134759733D01*
X215192409Y-134759733D02*
X215097171Y-134712114D01*
X215097171Y-134712114D02*
X214954314Y-134712114D01*
X214954314Y-134712114D02*
X214859076Y-134759733D01*
X214859076Y-134759733D02*
X214811457Y-134854971D01*
X214811457Y-134854971D02*
X214811457Y-135378780D01*
X213906695Y-135378780D02*
X213906695Y-134854971D01*
X213906695Y-134854971D02*
X213954314Y-134759733D01*
X213954314Y-134759733D02*
X214049552Y-134712114D01*
X214049552Y-134712114D02*
X214240028Y-134712114D01*
X214240028Y-134712114D02*
X214335266Y-134759733D01*
X213906695Y-135331161D02*
X214001933Y-135378780D01*
X214001933Y-135378780D02*
X214240028Y-135378780D01*
X214240028Y-135378780D02*
X214335266Y-135331161D01*
X214335266Y-135331161D02*
X214382885Y-135235923D01*
X214382885Y-135235923D02*
X214382885Y-135140685D01*
X214382885Y-135140685D02*
X214335266Y-135045447D01*
X214335266Y-135045447D02*
X214240028Y-134997828D01*
X214240028Y-134997828D02*
X214001933Y-134997828D01*
X214001933Y-134997828D02*
X213906695Y-134950209D01*
X213430504Y-135378780D02*
X213430504Y-134712114D01*
X213430504Y-134378780D02*
X213478123Y-134426400D01*
X213478123Y-134426400D02*
X213430504Y-134474019D01*
X213430504Y-134474019D02*
X213382885Y-134426400D01*
X213382885Y-134426400D02*
X213430504Y-134378780D01*
X213430504Y-134378780D02*
X213430504Y-134474019D01*
X213001933Y-135331161D02*
X212906695Y-135378780D01*
X212906695Y-135378780D02*
X212716219Y-135378780D01*
X212716219Y-135378780D02*
X212620981Y-135331161D01*
X212620981Y-135331161D02*
X212573362Y-135235923D01*
X212573362Y-135235923D02*
X212573362Y-135188304D01*
X212573362Y-135188304D02*
X212620981Y-135093066D01*
X212620981Y-135093066D02*
X212716219Y-135045447D01*
X212716219Y-135045447D02*
X212859076Y-135045447D01*
X212859076Y-135045447D02*
X212954314Y-134997828D01*
X212954314Y-134997828D02*
X213001933Y-134902590D01*
X213001933Y-134902590D02*
X213001933Y-134854971D01*
X213001933Y-134854971D02*
X212954314Y-134759733D01*
X212954314Y-134759733D02*
X212859076Y-134712114D01*
X212859076Y-134712114D02*
X212716219Y-134712114D01*
X212716219Y-134712114D02*
X212620981Y-134759733D01*
X212192409Y-135331161D02*
X212097171Y-135378780D01*
X212097171Y-135378780D02*
X211906695Y-135378780D01*
X211906695Y-135378780D02*
X211811457Y-135331161D01*
X211811457Y-135331161D02*
X211763838Y-135235923D01*
X211763838Y-135235923D02*
X211763838Y-135188304D01*
X211763838Y-135188304D02*
X211811457Y-135093066D01*
X211811457Y-135093066D02*
X211906695Y-135045447D01*
X211906695Y-135045447D02*
X212049552Y-135045447D01*
X212049552Y-135045447D02*
X212144790Y-134997828D01*
X212144790Y-134997828D02*
X212192409Y-134902590D01*
X212192409Y-134902590D02*
X212192409Y-134854971D01*
X212192409Y-134854971D02*
X212144790Y-134759733D01*
X212144790Y-134759733D02*
X212049552Y-134712114D01*
X212049552Y-134712114D02*
X211906695Y-134712114D01*
X211906695Y-134712114D02*
X211811457Y-134759733D01*
X210906695Y-135378780D02*
X210906695Y-134854971D01*
X210906695Y-134854971D02*
X210954314Y-134759733D01*
X210954314Y-134759733D02*
X211049552Y-134712114D01*
X211049552Y-134712114D02*
X211240028Y-134712114D01*
X211240028Y-134712114D02*
X211335266Y-134759733D01*
X210906695Y-135331161D02*
X211001933Y-135378780D01*
X211001933Y-135378780D02*
X211240028Y-135378780D01*
X211240028Y-135378780D02*
X211335266Y-135331161D01*
X211335266Y-135331161D02*
X211382885Y-135235923D01*
X211382885Y-135235923D02*
X211382885Y-135140685D01*
X211382885Y-135140685D02*
X211335266Y-135045447D01*
X211335266Y-135045447D02*
X211240028Y-134997828D01*
X211240028Y-134997828D02*
X211001933Y-134997828D01*
X211001933Y-134997828D02*
X210906695Y-134950209D01*
X210382885Y-135331161D02*
X210382885Y-135378780D01*
X210382885Y-135378780D02*
X210430504Y-135474019D01*
X210430504Y-135474019D02*
X210478123Y-135521638D01*
X218144790Y-135998780D02*
X218144790Y-136713066D01*
X218144790Y-136713066D02*
X218192409Y-136855923D01*
X218192409Y-136855923D02*
X218287647Y-136951161D01*
X218287647Y-136951161D02*
X218430504Y-136998780D01*
X218430504Y-136998780D02*
X218525742Y-136998780D01*
X217668599Y-136903542D02*
X217620980Y-136951161D01*
X217620980Y-136951161D02*
X217668599Y-136998780D01*
X217668599Y-136998780D02*
X217716218Y-136951161D01*
X217716218Y-136951161D02*
X217668599Y-136903542D01*
X217668599Y-136903542D02*
X217668599Y-136998780D01*
X217192409Y-136998780D02*
X217192409Y-135998780D01*
X217192409Y-135998780D02*
X216859076Y-136713066D01*
X216859076Y-136713066D02*
X216525743Y-135998780D01*
X216525743Y-135998780D02*
X216525743Y-136998780D01*
X215668600Y-136951161D02*
X215763838Y-136998780D01*
X215763838Y-136998780D02*
X215954314Y-136998780D01*
X215954314Y-136998780D02*
X216049552Y-136951161D01*
X216049552Y-136951161D02*
X216097171Y-136855923D01*
X216097171Y-136855923D02*
X216097171Y-136474971D01*
X216097171Y-136474971D02*
X216049552Y-136379733D01*
X216049552Y-136379733D02*
X215954314Y-136332114D01*
X215954314Y-136332114D02*
X215763838Y-136332114D01*
X215763838Y-136332114D02*
X215668600Y-136379733D01*
X215668600Y-136379733D02*
X215620981Y-136474971D01*
X215620981Y-136474971D02*
X215620981Y-136570209D01*
X215620981Y-136570209D02*
X216097171Y-136665447D01*
X215192409Y-136998780D02*
X215192409Y-136332114D01*
X215192409Y-135998780D02*
X215240028Y-136046400D01*
X215240028Y-136046400D02*
X215192409Y-136094019D01*
X215192409Y-136094019D02*
X215144790Y-136046400D01*
X215144790Y-136046400D02*
X215192409Y-135998780D01*
X215192409Y-135998780D02*
X215192409Y-136094019D01*
X214716219Y-136332114D02*
X214716219Y-137189257D01*
X214716219Y-137189257D02*
X214763838Y-137284495D01*
X214763838Y-137284495D02*
X214859076Y-137332114D01*
X214859076Y-137332114D02*
X214906695Y-137332114D01*
X214716219Y-135998780D02*
X214763838Y-136046400D01*
X214763838Y-136046400D02*
X214716219Y-136094019D01*
X214716219Y-136094019D02*
X214668600Y-136046400D01*
X214668600Y-136046400D02*
X214716219Y-135998780D01*
X214716219Y-135998780D02*
X214716219Y-136094019D01*
X213859077Y-136951161D02*
X213954315Y-136998780D01*
X213954315Y-136998780D02*
X214144791Y-136998780D01*
X214144791Y-136998780D02*
X214240029Y-136951161D01*
X214240029Y-136951161D02*
X214287648Y-136855923D01*
X214287648Y-136855923D02*
X214287648Y-136474971D01*
X214287648Y-136474971D02*
X214240029Y-136379733D01*
X214240029Y-136379733D02*
X214144791Y-136332114D01*
X214144791Y-136332114D02*
X213954315Y-136332114D01*
X213954315Y-136332114D02*
X213859077Y-136379733D01*
X213859077Y-136379733D02*
X213811458Y-136474971D01*
X213811458Y-136474971D02*
X213811458Y-136570209D01*
X213811458Y-136570209D02*
X214287648Y-136665447D01*
X213382886Y-136998780D02*
X213382886Y-136332114D01*
X213382886Y-136522590D02*
X213335267Y-136427352D01*
X213335267Y-136427352D02*
X213287648Y-136379733D01*
X213287648Y-136379733D02*
X213192410Y-136332114D01*
X213192410Y-136332114D02*
X213097172Y-136332114D01*
X211354314Y-136998780D02*
X211401934Y-136998780D01*
X211401934Y-136998780D02*
X211497172Y-136951161D01*
X211497172Y-136951161D02*
X211640029Y-136808304D01*
X211640029Y-136808304D02*
X211878124Y-136522590D01*
X211878124Y-136522590D02*
X211973362Y-136379733D01*
X211973362Y-136379733D02*
X212020981Y-136236876D01*
X212020981Y-136236876D02*
X212020981Y-136141638D01*
X212020981Y-136141638D02*
X211973362Y-136046400D01*
X211973362Y-136046400D02*
X211878124Y-135998780D01*
X211878124Y-135998780D02*
X211830505Y-135998780D01*
X211830505Y-135998780D02*
X211735267Y-136046400D01*
X211735267Y-136046400D02*
X211687648Y-136141638D01*
X211687648Y-136141638D02*
X211687648Y-136189257D01*
X211687648Y-136189257D02*
X211735267Y-136284495D01*
X211735267Y-136284495D02*
X211782886Y-136332114D01*
X211782886Y-136332114D02*
X212068600Y-136522590D01*
X212068600Y-136522590D02*
X212116219Y-136570209D01*
X212116219Y-136570209D02*
X212163838Y-136665447D01*
X212163838Y-136665447D02*
X212163838Y-136808304D01*
X212163838Y-136808304D02*
X212116219Y-136903542D01*
X212116219Y-136903542D02*
X212068600Y-136951161D01*
X212068600Y-136951161D02*
X211973362Y-136998780D01*
X211973362Y-136998780D02*
X211830505Y-136998780D01*
X211830505Y-136998780D02*
X211735267Y-136951161D01*
X211735267Y-136951161D02*
X211687648Y-136903542D01*
X211687648Y-136903542D02*
X211544791Y-136713066D01*
X211544791Y-136713066D02*
X211497172Y-136570209D01*
X211497172Y-136570209D02*
X211497172Y-136474971D01*
X218240028Y-138142590D02*
X218240028Y-138618780D01*
X218573361Y-137618780D02*
X218240028Y-138142590D01*
X218240028Y-138142590D02*
X217906695Y-137618780D01*
X217573361Y-138523542D02*
X217525742Y-138571161D01*
X217525742Y-138571161D02*
X217573361Y-138618780D01*
X217573361Y-138618780D02*
X217620980Y-138571161D01*
X217620980Y-138571161D02*
X217573361Y-138523542D01*
X217573361Y-138523542D02*
X217573361Y-138618780D01*
X217097171Y-138618780D02*
X217097171Y-137618780D01*
X216525743Y-138618780D02*
X216954314Y-138047352D01*
X216525743Y-137618780D02*
X217097171Y-138190209D01*
X215716219Y-138571161D02*
X215811457Y-138618780D01*
X215811457Y-138618780D02*
X216001933Y-138618780D01*
X216001933Y-138618780D02*
X216097171Y-138571161D01*
X216097171Y-138571161D02*
X216144790Y-138475923D01*
X216144790Y-138475923D02*
X216144790Y-138094971D01*
X216144790Y-138094971D02*
X216097171Y-137999733D01*
X216097171Y-137999733D02*
X216001933Y-137952114D01*
X216001933Y-137952114D02*
X215811457Y-137952114D01*
X215811457Y-137952114D02*
X215716219Y-137999733D01*
X215716219Y-137999733D02*
X215668600Y-138094971D01*
X215668600Y-138094971D02*
X215668600Y-138190209D01*
X215668600Y-138190209D02*
X216144790Y-138285447D01*
X215240028Y-138618780D02*
X215240028Y-137952114D01*
X215240028Y-138142590D02*
X215192409Y-138047352D01*
X215192409Y-138047352D02*
X215144790Y-137999733D01*
X215144790Y-137999733D02*
X215049552Y-137952114D01*
X215049552Y-137952114D02*
X214954314Y-137952114D01*
X214668599Y-138571161D02*
X214573361Y-138618780D01*
X214573361Y-138618780D02*
X214382885Y-138618780D01*
X214382885Y-138618780D02*
X214287647Y-138571161D01*
X214287647Y-138571161D02*
X214240028Y-138475923D01*
X214240028Y-138475923D02*
X214240028Y-138428304D01*
X214240028Y-138428304D02*
X214287647Y-138333066D01*
X214287647Y-138333066D02*
X214382885Y-138285447D01*
X214382885Y-138285447D02*
X214525742Y-138285447D01*
X214525742Y-138285447D02*
X214620980Y-138237828D01*
X214620980Y-138237828D02*
X214668599Y-138142590D01*
X214668599Y-138142590D02*
X214668599Y-138094971D01*
X214668599Y-138094971D02*
X214620980Y-137999733D01*
X214620980Y-137999733D02*
X214525742Y-137952114D01*
X214525742Y-137952114D02*
X214382885Y-137952114D01*
X214382885Y-137952114D02*
X214287647Y-137999733D01*
X213954313Y-137952114D02*
X213573361Y-137952114D01*
X213811456Y-137618780D02*
X213811456Y-138475923D01*
X213811456Y-138475923D02*
X213763837Y-138571161D01*
X213763837Y-138571161D02*
X213668599Y-138618780D01*
X213668599Y-138618780D02*
X213573361Y-138618780D01*
X212859075Y-138571161D02*
X212954313Y-138618780D01*
X212954313Y-138618780D02*
X213144789Y-138618780D01*
X213144789Y-138618780D02*
X213240027Y-138571161D01*
X213240027Y-138571161D02*
X213287646Y-138475923D01*
X213287646Y-138475923D02*
X213287646Y-138094971D01*
X213287646Y-138094971D02*
X213240027Y-137999733D01*
X213240027Y-137999733D02*
X213144789Y-137952114D01*
X213144789Y-137952114D02*
X212954313Y-137952114D01*
X212954313Y-137952114D02*
X212859075Y-137999733D01*
X212859075Y-137999733D02*
X212811456Y-138094971D01*
X212811456Y-138094971D02*
X212811456Y-138190209D01*
X212811456Y-138190209D02*
X213287646Y-138285447D01*
X212382884Y-137952114D02*
X212382884Y-138618780D01*
X212382884Y-138047352D02*
X212335265Y-137999733D01*
X212335265Y-137999733D02*
X212240027Y-137952114D01*
X212240027Y-137952114D02*
X212097170Y-137952114D01*
X212097170Y-137952114D02*
X212001932Y-137999733D01*
X212001932Y-137999733D02*
X211954313Y-138094971D01*
X211954313Y-138094971D02*
X211954313Y-138618780D01*
M02*
