%TF.GenerationSoftware,KiCad,Pcbnew,(7.0.0)*%
%TF.CreationDate,2023-12-23T17:06:12+01:00*%
%TF.ProjectId,PCB-light-challenge,5043422d-6c69-4676-9874-2d6368616c6c,rev?*%
%TF.SameCoordinates,Original*%
%TF.FileFunction,Legend,Top*%
%TF.FilePolarity,Positive*%
%FSLAX46Y46*%
G04 Gerber Fmt 4.6, Leading zero omitted, Abs format (unit mm)*
G04 Created by KiCad (PCBNEW (7.0.0)) date 2023-12-23 17:06:12*
%MOMM*%
%LPD*%
G01*
G04 APERTURE LIST*
%ADD10C,0.150000*%
%ADD11C,0.300000*%
%ADD12C,0.254000*%
%ADD13C,0.100000*%
%ADD14C,0.120000*%
%ADD15C,0.127000*%
%ADD16C,0.200000*%
G04 APERTURE END LIST*
D10*
X192318000Y-126870000D02*
X192278000Y-137910000D01*
X184818000Y-137980000D02*
X184828000Y-126890000D01*
X184828000Y-126890000D02*
X192318000Y-126870000D01*
X192278000Y-137910000D02*
X184818000Y-137980000D01*
X183854095Y-125387085D02*
X183854095Y-125882323D01*
X183854095Y-125882323D02*
X183549333Y-125615657D01*
X183549333Y-125615657D02*
X183549333Y-125729942D01*
X183549333Y-125729942D02*
X183511238Y-125806133D01*
X183511238Y-125806133D02*
X183473142Y-125844228D01*
X183473142Y-125844228D02*
X183396952Y-125882323D01*
X183396952Y-125882323D02*
X183206476Y-125882323D01*
X183206476Y-125882323D02*
X183130285Y-125844228D01*
X183130285Y-125844228D02*
X183092190Y-125806133D01*
X183092190Y-125806133D02*
X183054095Y-125729942D01*
X183054095Y-125729942D02*
X183054095Y-125501371D01*
X183054095Y-125501371D02*
X183092190Y-125425180D01*
X183092190Y-125425180D02*
X183130285Y-125387085D01*
X183854095Y-126110895D02*
X183054095Y-126377562D01*
X183054095Y-126377562D02*
X183854095Y-126644228D01*
X183854095Y-126834704D02*
X183854095Y-127329942D01*
X183854095Y-127329942D02*
X183549333Y-127063276D01*
X183549333Y-127063276D02*
X183549333Y-127177561D01*
X183549333Y-127177561D02*
X183511238Y-127253752D01*
X183511238Y-127253752D02*
X183473142Y-127291847D01*
X183473142Y-127291847D02*
X183396952Y-127329942D01*
X183396952Y-127329942D02*
X183206476Y-127329942D01*
X183206476Y-127329942D02*
X183130285Y-127291847D01*
X183130285Y-127291847D02*
X183092190Y-127253752D01*
X183092190Y-127253752D02*
X183054095Y-127177561D01*
X183054095Y-127177561D02*
X183054095Y-126948990D01*
X183054095Y-126948990D02*
X183092190Y-126872799D01*
X183092190Y-126872799D02*
X183130285Y-126834704D01*
X181311400Y-125780733D02*
X181344733Y-125714066D01*
X181344733Y-125714066D02*
X181344733Y-125614066D01*
X181344733Y-125614066D02*
X181311400Y-125514066D01*
X181311400Y-125514066D02*
X181244733Y-125447400D01*
X181244733Y-125447400D02*
X181178066Y-125414066D01*
X181178066Y-125414066D02*
X181044733Y-125380733D01*
X181044733Y-125380733D02*
X180944733Y-125380733D01*
X180944733Y-125380733D02*
X180811400Y-125414066D01*
X180811400Y-125414066D02*
X180744733Y-125447400D01*
X180744733Y-125447400D02*
X180678066Y-125514066D01*
X180678066Y-125514066D02*
X180644733Y-125614066D01*
X180644733Y-125614066D02*
X180644733Y-125680733D01*
X180644733Y-125680733D02*
X180678066Y-125780733D01*
X180678066Y-125780733D02*
X180711400Y-125814066D01*
X180711400Y-125814066D02*
X180944733Y-125814066D01*
X180944733Y-125814066D02*
X180944733Y-125680733D01*
X180644733Y-126114066D02*
X181344733Y-126114066D01*
X181344733Y-126114066D02*
X180644733Y-126514066D01*
X180644733Y-126514066D02*
X181344733Y-126514066D01*
X180644733Y-126847399D02*
X181344733Y-126847399D01*
X181344733Y-126847399D02*
X181344733Y-127014066D01*
X181344733Y-127014066D02*
X181311400Y-127114066D01*
X181311400Y-127114066D02*
X181244733Y-127180733D01*
X181244733Y-127180733D02*
X181178066Y-127214066D01*
X181178066Y-127214066D02*
X181044733Y-127247399D01*
X181044733Y-127247399D02*
X180944733Y-127247399D01*
X180944733Y-127247399D02*
X180811400Y-127214066D01*
X180811400Y-127214066D02*
X180744733Y-127180733D01*
X180744733Y-127180733D02*
X180678066Y-127114066D01*
X180678066Y-127114066D02*
X180644733Y-127014066D01*
X180644733Y-127014066D02*
X180644733Y-126847399D01*
X247345133Y-111957000D02*
X247278466Y-111923666D01*
X247278466Y-111923666D02*
X247178466Y-111923666D01*
X247178466Y-111923666D02*
X247078466Y-111957000D01*
X247078466Y-111957000D02*
X247011800Y-112023666D01*
X247011800Y-112023666D02*
X246978466Y-112090333D01*
X246978466Y-112090333D02*
X246945133Y-112223666D01*
X246945133Y-112223666D02*
X246945133Y-112323666D01*
X246945133Y-112323666D02*
X246978466Y-112457000D01*
X246978466Y-112457000D02*
X247011800Y-112523666D01*
X247011800Y-112523666D02*
X247078466Y-112590333D01*
X247078466Y-112590333D02*
X247178466Y-112623666D01*
X247178466Y-112623666D02*
X247245133Y-112623666D01*
X247245133Y-112623666D02*
X247345133Y-112590333D01*
X247345133Y-112590333D02*
X247378466Y-112557000D01*
X247378466Y-112557000D02*
X247378466Y-112323666D01*
X247378466Y-112323666D02*
X247245133Y-112323666D01*
X247678466Y-112623666D02*
X247678466Y-111923666D01*
X247678466Y-111923666D02*
X247945133Y-111923666D01*
X247945133Y-111923666D02*
X248011800Y-111957000D01*
X248011800Y-111957000D02*
X248045133Y-111990333D01*
X248045133Y-111990333D02*
X248078466Y-112057000D01*
X248078466Y-112057000D02*
X248078466Y-112157000D01*
X248078466Y-112157000D02*
X248045133Y-112223666D01*
X248045133Y-112223666D02*
X248011800Y-112257000D01*
X248011800Y-112257000D02*
X247945133Y-112290333D01*
X247945133Y-112290333D02*
X247678466Y-112290333D01*
X222376933Y-112033200D02*
X222310266Y-111999866D01*
X222310266Y-111999866D02*
X222210266Y-111999866D01*
X222210266Y-111999866D02*
X222110266Y-112033200D01*
X222110266Y-112033200D02*
X222043600Y-112099866D01*
X222043600Y-112099866D02*
X222010266Y-112166533D01*
X222010266Y-112166533D02*
X221976933Y-112299866D01*
X221976933Y-112299866D02*
X221976933Y-112399866D01*
X221976933Y-112399866D02*
X222010266Y-112533200D01*
X222010266Y-112533200D02*
X222043600Y-112599866D01*
X222043600Y-112599866D02*
X222110266Y-112666533D01*
X222110266Y-112666533D02*
X222210266Y-112699866D01*
X222210266Y-112699866D02*
X222276933Y-112699866D01*
X222276933Y-112699866D02*
X222376933Y-112666533D01*
X222376933Y-112666533D02*
X222410266Y-112633200D01*
X222410266Y-112633200D02*
X222410266Y-112399866D01*
X222410266Y-112399866D02*
X222276933Y-112399866D01*
X222710266Y-112699866D02*
X222710266Y-111999866D01*
X222710266Y-111999866D02*
X223110266Y-112699866D01*
X223110266Y-112699866D02*
X223110266Y-111999866D01*
X223443599Y-112699866D02*
X223443599Y-111999866D01*
X223443599Y-111999866D02*
X223610266Y-111999866D01*
X223610266Y-111999866D02*
X223710266Y-112033200D01*
X223710266Y-112033200D02*
X223776933Y-112099866D01*
X223776933Y-112099866D02*
X223810266Y-112166533D01*
X223810266Y-112166533D02*
X223843599Y-112299866D01*
X223843599Y-112299866D02*
X223843599Y-112399866D01*
X223843599Y-112399866D02*
X223810266Y-112533200D01*
X223810266Y-112533200D02*
X223776933Y-112599866D01*
X223776933Y-112599866D02*
X223710266Y-112666533D01*
X223710266Y-112666533D02*
X223610266Y-112699866D01*
X223610266Y-112699866D02*
X223443599Y-112699866D01*
X231825780Y-115561095D02*
X231863876Y-115523000D01*
X231863876Y-115523000D02*
X231940066Y-115484904D01*
X231940066Y-115484904D02*
X232130542Y-115484904D01*
X232130542Y-115484904D02*
X232206733Y-115523000D01*
X232206733Y-115523000D02*
X232244828Y-115561095D01*
X232244828Y-115561095D02*
X232282923Y-115637285D01*
X232282923Y-115637285D02*
X232282923Y-115713476D01*
X232282923Y-115713476D02*
X232244828Y-115827761D01*
X232244828Y-115827761D02*
X231787685Y-116284904D01*
X231787685Y-116284904D02*
X232282923Y-116284904D01*
X232778162Y-115484904D02*
X232854352Y-115484904D01*
X232854352Y-115484904D02*
X232930543Y-115523000D01*
X232930543Y-115523000D02*
X232968638Y-115561095D01*
X232968638Y-115561095D02*
X233006733Y-115637285D01*
X233006733Y-115637285D02*
X233044828Y-115789666D01*
X233044828Y-115789666D02*
X233044828Y-115980142D01*
X233044828Y-115980142D02*
X233006733Y-116132523D01*
X233006733Y-116132523D02*
X232968638Y-116208714D01*
X232968638Y-116208714D02*
X232930543Y-116246809D01*
X232930543Y-116246809D02*
X232854352Y-116284904D01*
X232854352Y-116284904D02*
X232778162Y-116284904D01*
X232778162Y-116284904D02*
X232701971Y-116246809D01*
X232701971Y-116246809D02*
X232663876Y-116208714D01*
X232663876Y-116208714D02*
X232625781Y-116132523D01*
X232625781Y-116132523D02*
X232587685Y-115980142D01*
X232587685Y-115980142D02*
X232587685Y-115789666D01*
X232587685Y-115789666D02*
X232625781Y-115637285D01*
X232625781Y-115637285D02*
X232663876Y-115561095D01*
X232663876Y-115561095D02*
X232701971Y-115523000D01*
X232701971Y-115523000D02*
X232778162Y-115484904D01*
X230144000Y-147710476D02*
X230105904Y-147786666D01*
X230105904Y-147786666D02*
X230105904Y-147900952D01*
X230105904Y-147900952D02*
X230144000Y-148015238D01*
X230144000Y-148015238D02*
X230220190Y-148091428D01*
X230220190Y-148091428D02*
X230296380Y-148129523D01*
X230296380Y-148129523D02*
X230448761Y-148167619D01*
X230448761Y-148167619D02*
X230563047Y-148167619D01*
X230563047Y-148167619D02*
X230715428Y-148129523D01*
X230715428Y-148129523D02*
X230791619Y-148091428D01*
X230791619Y-148091428D02*
X230867809Y-148015238D01*
X230867809Y-148015238D02*
X230905904Y-147900952D01*
X230905904Y-147900952D02*
X230905904Y-147824761D01*
X230905904Y-147824761D02*
X230867809Y-147710476D01*
X230867809Y-147710476D02*
X230829714Y-147672380D01*
X230829714Y-147672380D02*
X230563047Y-147672380D01*
X230563047Y-147672380D02*
X230563047Y-147824761D01*
X230905904Y-147329523D02*
X230105904Y-147329523D01*
X230105904Y-147329523D02*
X230105904Y-147024761D01*
X230105904Y-147024761D02*
X230144000Y-146948571D01*
X230144000Y-146948571D02*
X230182095Y-146910476D01*
X230182095Y-146910476D02*
X230258285Y-146872380D01*
X230258285Y-146872380D02*
X230372571Y-146872380D01*
X230372571Y-146872380D02*
X230448761Y-146910476D01*
X230448761Y-146910476D02*
X230486857Y-146948571D01*
X230486857Y-146948571D02*
X230524952Y-147024761D01*
X230524952Y-147024761D02*
X230524952Y-147329523D01*
X230905904Y-146110476D02*
X230905904Y-146567619D01*
X230905904Y-146339047D02*
X230105904Y-146339047D01*
X230105904Y-146339047D02*
X230220190Y-146415238D01*
X230220190Y-146415238D02*
X230296380Y-146491428D01*
X230296380Y-146491428D02*
X230334476Y-146567619D01*
X230372571Y-145424761D02*
X230905904Y-145424761D01*
X230067809Y-145615237D02*
X230639238Y-145805714D01*
X230639238Y-145805714D02*
X230639238Y-145310475D01*
X214914000Y-147530476D02*
X214875904Y-147606666D01*
X214875904Y-147606666D02*
X214875904Y-147720952D01*
X214875904Y-147720952D02*
X214914000Y-147835238D01*
X214914000Y-147835238D02*
X214990190Y-147911428D01*
X214990190Y-147911428D02*
X215066380Y-147949523D01*
X215066380Y-147949523D02*
X215218761Y-147987619D01*
X215218761Y-147987619D02*
X215333047Y-147987619D01*
X215333047Y-147987619D02*
X215485428Y-147949523D01*
X215485428Y-147949523D02*
X215561619Y-147911428D01*
X215561619Y-147911428D02*
X215637809Y-147835238D01*
X215637809Y-147835238D02*
X215675904Y-147720952D01*
X215675904Y-147720952D02*
X215675904Y-147644761D01*
X215675904Y-147644761D02*
X215637809Y-147530476D01*
X215637809Y-147530476D02*
X215599714Y-147492380D01*
X215599714Y-147492380D02*
X215333047Y-147492380D01*
X215333047Y-147492380D02*
X215333047Y-147644761D01*
X215675904Y-147149523D02*
X214875904Y-147149523D01*
X214875904Y-147149523D02*
X214875904Y-146844761D01*
X214875904Y-146844761D02*
X214914000Y-146768571D01*
X214914000Y-146768571D02*
X214952095Y-146730476D01*
X214952095Y-146730476D02*
X215028285Y-146692380D01*
X215028285Y-146692380D02*
X215142571Y-146692380D01*
X215142571Y-146692380D02*
X215218761Y-146730476D01*
X215218761Y-146730476D02*
X215256857Y-146768571D01*
X215256857Y-146768571D02*
X215294952Y-146844761D01*
X215294952Y-146844761D02*
X215294952Y-147149523D01*
X215218761Y-146235238D02*
X215180666Y-146311428D01*
X215180666Y-146311428D02*
X215142571Y-146349523D01*
X215142571Y-146349523D02*
X215066380Y-146387619D01*
X215066380Y-146387619D02*
X215028285Y-146387619D01*
X215028285Y-146387619D02*
X214952095Y-146349523D01*
X214952095Y-146349523D02*
X214914000Y-146311428D01*
X214914000Y-146311428D02*
X214875904Y-146235238D01*
X214875904Y-146235238D02*
X214875904Y-146082857D01*
X214875904Y-146082857D02*
X214914000Y-146006666D01*
X214914000Y-146006666D02*
X214952095Y-145968571D01*
X214952095Y-145968571D02*
X215028285Y-145930476D01*
X215028285Y-145930476D02*
X215066380Y-145930476D01*
X215066380Y-145930476D02*
X215142571Y-145968571D01*
X215142571Y-145968571D02*
X215180666Y-146006666D01*
X215180666Y-146006666D02*
X215218761Y-146082857D01*
X215218761Y-146082857D02*
X215218761Y-146235238D01*
X215218761Y-146235238D02*
X215256857Y-146311428D01*
X215256857Y-146311428D02*
X215294952Y-146349523D01*
X215294952Y-146349523D02*
X215371142Y-146387619D01*
X215371142Y-146387619D02*
X215523523Y-146387619D01*
X215523523Y-146387619D02*
X215599714Y-146349523D01*
X215599714Y-146349523D02*
X215637809Y-146311428D01*
X215637809Y-146311428D02*
X215675904Y-146235238D01*
X215675904Y-146235238D02*
X215675904Y-146082857D01*
X215675904Y-146082857D02*
X215637809Y-146006666D01*
X215637809Y-146006666D02*
X215599714Y-145968571D01*
X215599714Y-145968571D02*
X215523523Y-145930476D01*
X215523523Y-145930476D02*
X215371142Y-145930476D01*
X215371142Y-145930476D02*
X215294952Y-145968571D01*
X215294952Y-145968571D02*
X215256857Y-146006666D01*
X215256857Y-146006666D02*
X215218761Y-146082857D01*
X242341380Y-133455333D02*
X242722333Y-133455333D01*
X242265190Y-133683904D02*
X242531857Y-132883904D01*
X242531857Y-132883904D02*
X242798523Y-133683904D01*
X243065190Y-133683904D02*
X243065190Y-132883904D01*
X243065190Y-132883904D02*
X243255666Y-132883904D01*
X243255666Y-132883904D02*
X243369952Y-132922000D01*
X243369952Y-132922000D02*
X243446142Y-132998190D01*
X243446142Y-132998190D02*
X243484237Y-133074380D01*
X243484237Y-133074380D02*
X243522333Y-133226761D01*
X243522333Y-133226761D02*
X243522333Y-133341047D01*
X243522333Y-133341047D02*
X243484237Y-133493428D01*
X243484237Y-133493428D02*
X243446142Y-133569619D01*
X243446142Y-133569619D02*
X243369952Y-133645809D01*
X243369952Y-133645809D02*
X243255666Y-133683904D01*
X243255666Y-133683904D02*
X243065190Y-133683904D01*
X244322333Y-133607714D02*
X244284237Y-133645809D01*
X244284237Y-133645809D02*
X244169952Y-133683904D01*
X244169952Y-133683904D02*
X244093761Y-133683904D01*
X244093761Y-133683904D02*
X243979475Y-133645809D01*
X243979475Y-133645809D02*
X243903285Y-133569619D01*
X243903285Y-133569619D02*
X243865190Y-133493428D01*
X243865190Y-133493428D02*
X243827094Y-133341047D01*
X243827094Y-133341047D02*
X243827094Y-133226761D01*
X243827094Y-133226761D02*
X243865190Y-133074380D01*
X243865190Y-133074380D02*
X243903285Y-132998190D01*
X243903285Y-132998190D02*
X243979475Y-132922000D01*
X243979475Y-132922000D02*
X244093761Y-132883904D01*
X244093761Y-132883904D02*
X244169952Y-132883904D01*
X244169952Y-132883904D02*
X244284237Y-132922000D01*
X244284237Y-132922000D02*
X244322333Y-132960095D01*
X245030904Y-132883904D02*
X245297571Y-133683904D01*
X245297571Y-133683904D02*
X245564237Y-132883904D01*
X246288047Y-133683904D02*
X246021380Y-133302952D01*
X245830904Y-133683904D02*
X245830904Y-132883904D01*
X245830904Y-132883904D02*
X246135666Y-132883904D01*
X246135666Y-132883904D02*
X246211856Y-132922000D01*
X246211856Y-132922000D02*
X246249951Y-132960095D01*
X246249951Y-132960095D02*
X246288047Y-133036285D01*
X246288047Y-133036285D02*
X246288047Y-133150571D01*
X246288047Y-133150571D02*
X246249951Y-133226761D01*
X246249951Y-133226761D02*
X246211856Y-133264857D01*
X246211856Y-133264857D02*
X246135666Y-133302952D01*
X246135666Y-133302952D02*
X245830904Y-133302952D01*
X246630904Y-133264857D02*
X246897570Y-133264857D01*
X247011856Y-133683904D02*
X246630904Y-133683904D01*
X246630904Y-133683904D02*
X246630904Y-132883904D01*
X246630904Y-132883904D02*
X247011856Y-132883904D01*
X247621380Y-133264857D02*
X247354714Y-133264857D01*
X247354714Y-133683904D02*
X247354714Y-132883904D01*
X247354714Y-132883904D02*
X247735666Y-132883904D01*
X245402523Y-122906000D02*
X245326333Y-122867904D01*
X245326333Y-122867904D02*
X245212047Y-122867904D01*
X245212047Y-122867904D02*
X245097761Y-122906000D01*
X245097761Y-122906000D02*
X245021571Y-122982190D01*
X245021571Y-122982190D02*
X244983476Y-123058380D01*
X244983476Y-123058380D02*
X244945380Y-123210761D01*
X244945380Y-123210761D02*
X244945380Y-123325047D01*
X244945380Y-123325047D02*
X244983476Y-123477428D01*
X244983476Y-123477428D02*
X245021571Y-123553619D01*
X245021571Y-123553619D02*
X245097761Y-123629809D01*
X245097761Y-123629809D02*
X245212047Y-123667904D01*
X245212047Y-123667904D02*
X245288238Y-123667904D01*
X245288238Y-123667904D02*
X245402523Y-123629809D01*
X245402523Y-123629809D02*
X245440619Y-123591714D01*
X245440619Y-123591714D02*
X245440619Y-123325047D01*
X245440619Y-123325047D02*
X245288238Y-123325047D01*
X245783476Y-123667904D02*
X245783476Y-122867904D01*
X245783476Y-122867904D02*
X246088238Y-122867904D01*
X246088238Y-122867904D02*
X246164428Y-122906000D01*
X246164428Y-122906000D02*
X246202523Y-122944095D01*
X246202523Y-122944095D02*
X246240619Y-123020285D01*
X246240619Y-123020285D02*
X246240619Y-123134571D01*
X246240619Y-123134571D02*
X246202523Y-123210761D01*
X246202523Y-123210761D02*
X246164428Y-123248857D01*
X246164428Y-123248857D02*
X246088238Y-123286952D01*
X246088238Y-123286952D02*
X245783476Y-123286952D01*
X246545380Y-122944095D02*
X246583476Y-122906000D01*
X246583476Y-122906000D02*
X246659666Y-122867904D01*
X246659666Y-122867904D02*
X246850142Y-122867904D01*
X246850142Y-122867904D02*
X246926333Y-122906000D01*
X246926333Y-122906000D02*
X246964428Y-122944095D01*
X246964428Y-122944095D02*
X247002523Y-123020285D01*
X247002523Y-123020285D02*
X247002523Y-123096476D01*
X247002523Y-123096476D02*
X246964428Y-123210761D01*
X246964428Y-123210761D02*
X246507285Y-123667904D01*
X246507285Y-123667904D02*
X247002523Y-123667904D01*
X247307285Y-122944095D02*
X247345381Y-122906000D01*
X247345381Y-122906000D02*
X247421571Y-122867904D01*
X247421571Y-122867904D02*
X247612047Y-122867904D01*
X247612047Y-122867904D02*
X247688238Y-122906000D01*
X247688238Y-122906000D02*
X247726333Y-122944095D01*
X247726333Y-122944095D02*
X247764428Y-123020285D01*
X247764428Y-123020285D02*
X247764428Y-123096476D01*
X247764428Y-123096476D02*
X247726333Y-123210761D01*
X247726333Y-123210761D02*
X247269190Y-123667904D01*
X247269190Y-123667904D02*
X247764428Y-123667904D01*
X238074123Y-116259504D02*
X237616980Y-116259504D01*
X237845552Y-116259504D02*
X237845552Y-115459504D01*
X237845552Y-115459504D02*
X237769361Y-115573790D01*
X237769361Y-115573790D02*
X237693171Y-115649980D01*
X237693171Y-115649980D02*
X237616980Y-115688076D01*
X238455076Y-116259504D02*
X238607457Y-116259504D01*
X238607457Y-116259504D02*
X238683647Y-116221409D01*
X238683647Y-116221409D02*
X238721743Y-116183314D01*
X238721743Y-116183314D02*
X238797933Y-116069028D01*
X238797933Y-116069028D02*
X238836028Y-115916647D01*
X238836028Y-115916647D02*
X238836028Y-115611885D01*
X238836028Y-115611885D02*
X238797933Y-115535695D01*
X238797933Y-115535695D02*
X238759838Y-115497600D01*
X238759838Y-115497600D02*
X238683647Y-115459504D01*
X238683647Y-115459504D02*
X238531266Y-115459504D01*
X238531266Y-115459504D02*
X238455076Y-115497600D01*
X238455076Y-115497600D02*
X238416981Y-115535695D01*
X238416981Y-115535695D02*
X238378885Y-115611885D01*
X238378885Y-115611885D02*
X238378885Y-115802361D01*
X238378885Y-115802361D02*
X238416981Y-115878552D01*
X238416981Y-115878552D02*
X238455076Y-115916647D01*
X238455076Y-115916647D02*
X238531266Y-115954742D01*
X238531266Y-115954742D02*
X238683647Y-115954742D01*
X238683647Y-115954742D02*
X238759838Y-115916647D01*
X238759838Y-115916647D02*
X238797933Y-115878552D01*
X238797933Y-115878552D02*
X238836028Y-115802361D01*
D11*
X175987057Y-138347571D02*
X176844200Y-138347571D01*
X176415628Y-139847571D02*
X176415628Y-138347571D01*
X177344199Y-139847571D02*
X177344199Y-138347571D01*
X177987057Y-139847571D02*
X177987057Y-139061857D01*
X177987057Y-139061857D02*
X177915628Y-138919000D01*
X177915628Y-138919000D02*
X177772771Y-138847571D01*
X177772771Y-138847571D02*
X177558485Y-138847571D01*
X177558485Y-138847571D02*
X177415628Y-138919000D01*
X177415628Y-138919000D02*
X177344199Y-138990428D01*
X179272771Y-139776142D02*
X179129914Y-139847571D01*
X179129914Y-139847571D02*
X178844200Y-139847571D01*
X178844200Y-139847571D02*
X178701342Y-139776142D01*
X178701342Y-139776142D02*
X178629914Y-139633285D01*
X178629914Y-139633285D02*
X178629914Y-139061857D01*
X178629914Y-139061857D02*
X178701342Y-138919000D01*
X178701342Y-138919000D02*
X178844200Y-138847571D01*
X178844200Y-138847571D02*
X179129914Y-138847571D01*
X179129914Y-138847571D02*
X179272771Y-138919000D01*
X179272771Y-138919000D02*
X179344200Y-139061857D01*
X179344200Y-139061857D02*
X179344200Y-139204714D01*
X179344200Y-139204714D02*
X178629914Y-139347571D01*
X181601342Y-139847571D02*
X180887056Y-139847571D01*
X180887056Y-139847571D02*
X180887056Y-138347571D01*
X182101342Y-139847571D02*
X182101342Y-138847571D01*
X182101342Y-138347571D02*
X182029914Y-138419000D01*
X182029914Y-138419000D02*
X182101342Y-138490428D01*
X182101342Y-138490428D02*
X182172771Y-138419000D01*
X182172771Y-138419000D02*
X182101342Y-138347571D01*
X182101342Y-138347571D02*
X182101342Y-138490428D01*
X183458486Y-138847571D02*
X183458486Y-140061857D01*
X183458486Y-140061857D02*
X183387057Y-140204714D01*
X183387057Y-140204714D02*
X183315628Y-140276142D01*
X183315628Y-140276142D02*
X183172771Y-140347571D01*
X183172771Y-140347571D02*
X182958486Y-140347571D01*
X182958486Y-140347571D02*
X182815628Y-140276142D01*
X183458486Y-139776142D02*
X183315628Y-139847571D01*
X183315628Y-139847571D02*
X183029914Y-139847571D01*
X183029914Y-139847571D02*
X182887057Y-139776142D01*
X182887057Y-139776142D02*
X182815628Y-139704714D01*
X182815628Y-139704714D02*
X182744200Y-139561857D01*
X182744200Y-139561857D02*
X182744200Y-139133285D01*
X182744200Y-139133285D02*
X182815628Y-138990428D01*
X182815628Y-138990428D02*
X182887057Y-138919000D01*
X182887057Y-138919000D02*
X183029914Y-138847571D01*
X183029914Y-138847571D02*
X183315628Y-138847571D01*
X183315628Y-138847571D02*
X183458486Y-138919000D01*
X184172771Y-139847571D02*
X184172771Y-138347571D01*
X184815629Y-139847571D02*
X184815629Y-139061857D01*
X184815629Y-139061857D02*
X184744200Y-138919000D01*
X184744200Y-138919000D02*
X184601343Y-138847571D01*
X184601343Y-138847571D02*
X184387057Y-138847571D01*
X184387057Y-138847571D02*
X184244200Y-138919000D01*
X184244200Y-138919000D02*
X184172771Y-138990428D01*
X185315629Y-138847571D02*
X185887057Y-138847571D01*
X185529914Y-138347571D02*
X185529914Y-139633285D01*
X185529914Y-139633285D02*
X185601343Y-139776142D01*
X185601343Y-139776142D02*
X185744200Y-139847571D01*
X185744200Y-139847571D02*
X185887057Y-139847571D01*
X177058485Y-142134714D02*
X176987057Y-142206142D01*
X176987057Y-142206142D02*
X176772771Y-142277571D01*
X176772771Y-142277571D02*
X176629914Y-142277571D01*
X176629914Y-142277571D02*
X176415628Y-142206142D01*
X176415628Y-142206142D02*
X176272771Y-142063285D01*
X176272771Y-142063285D02*
X176201342Y-141920428D01*
X176201342Y-141920428D02*
X176129914Y-141634714D01*
X176129914Y-141634714D02*
X176129914Y-141420428D01*
X176129914Y-141420428D02*
X176201342Y-141134714D01*
X176201342Y-141134714D02*
X176272771Y-140991857D01*
X176272771Y-140991857D02*
X176415628Y-140849000D01*
X176415628Y-140849000D02*
X176629914Y-140777571D01*
X176629914Y-140777571D02*
X176772771Y-140777571D01*
X176772771Y-140777571D02*
X176987057Y-140849000D01*
X176987057Y-140849000D02*
X177058485Y-140920428D01*
X177701342Y-142277571D02*
X177701342Y-140777571D01*
X178344200Y-142277571D02*
X178344200Y-141491857D01*
X178344200Y-141491857D02*
X178272771Y-141349000D01*
X178272771Y-141349000D02*
X178129914Y-141277571D01*
X178129914Y-141277571D02*
X177915628Y-141277571D01*
X177915628Y-141277571D02*
X177772771Y-141349000D01*
X177772771Y-141349000D02*
X177701342Y-141420428D01*
X179701343Y-142277571D02*
X179701343Y-141491857D01*
X179701343Y-141491857D02*
X179629914Y-141349000D01*
X179629914Y-141349000D02*
X179487057Y-141277571D01*
X179487057Y-141277571D02*
X179201343Y-141277571D01*
X179201343Y-141277571D02*
X179058485Y-141349000D01*
X179701343Y-142206142D02*
X179558485Y-142277571D01*
X179558485Y-142277571D02*
X179201343Y-142277571D01*
X179201343Y-142277571D02*
X179058485Y-142206142D01*
X179058485Y-142206142D02*
X178987057Y-142063285D01*
X178987057Y-142063285D02*
X178987057Y-141920428D01*
X178987057Y-141920428D02*
X179058485Y-141777571D01*
X179058485Y-141777571D02*
X179201343Y-141706142D01*
X179201343Y-141706142D02*
X179558485Y-141706142D01*
X179558485Y-141706142D02*
X179701343Y-141634714D01*
X180629914Y-142277571D02*
X180487057Y-142206142D01*
X180487057Y-142206142D02*
X180415628Y-142063285D01*
X180415628Y-142063285D02*
X180415628Y-140777571D01*
X181415628Y-142277571D02*
X181272771Y-142206142D01*
X181272771Y-142206142D02*
X181201342Y-142063285D01*
X181201342Y-142063285D02*
X181201342Y-140777571D01*
X182558485Y-142206142D02*
X182415628Y-142277571D01*
X182415628Y-142277571D02*
X182129914Y-142277571D01*
X182129914Y-142277571D02*
X181987056Y-142206142D01*
X181987056Y-142206142D02*
X181915628Y-142063285D01*
X181915628Y-142063285D02*
X181915628Y-141491857D01*
X181915628Y-141491857D02*
X181987056Y-141349000D01*
X181987056Y-141349000D02*
X182129914Y-141277571D01*
X182129914Y-141277571D02*
X182415628Y-141277571D01*
X182415628Y-141277571D02*
X182558485Y-141349000D01*
X182558485Y-141349000D02*
X182629914Y-141491857D01*
X182629914Y-141491857D02*
X182629914Y-141634714D01*
X182629914Y-141634714D02*
X181915628Y-141777571D01*
X183272770Y-141277571D02*
X183272770Y-142277571D01*
X183272770Y-141420428D02*
X183344199Y-141349000D01*
X183344199Y-141349000D02*
X183487056Y-141277571D01*
X183487056Y-141277571D02*
X183701342Y-141277571D01*
X183701342Y-141277571D02*
X183844199Y-141349000D01*
X183844199Y-141349000D02*
X183915628Y-141491857D01*
X183915628Y-141491857D02*
X183915628Y-142277571D01*
X185272771Y-141277571D02*
X185272771Y-142491857D01*
X185272771Y-142491857D02*
X185201342Y-142634714D01*
X185201342Y-142634714D02*
X185129913Y-142706142D01*
X185129913Y-142706142D02*
X184987056Y-142777571D01*
X184987056Y-142777571D02*
X184772771Y-142777571D01*
X184772771Y-142777571D02*
X184629913Y-142706142D01*
X185272771Y-142206142D02*
X185129913Y-142277571D01*
X185129913Y-142277571D02*
X184844199Y-142277571D01*
X184844199Y-142277571D02*
X184701342Y-142206142D01*
X184701342Y-142206142D02*
X184629913Y-142134714D01*
X184629913Y-142134714D02*
X184558485Y-141991857D01*
X184558485Y-141991857D02*
X184558485Y-141563285D01*
X184558485Y-141563285D02*
X184629913Y-141420428D01*
X184629913Y-141420428D02*
X184701342Y-141349000D01*
X184701342Y-141349000D02*
X184844199Y-141277571D01*
X184844199Y-141277571D02*
X185129913Y-141277571D01*
X185129913Y-141277571D02*
X185272771Y-141349000D01*
X186558485Y-142206142D02*
X186415628Y-142277571D01*
X186415628Y-142277571D02*
X186129914Y-142277571D01*
X186129914Y-142277571D02*
X185987056Y-142206142D01*
X185987056Y-142206142D02*
X185915628Y-142063285D01*
X185915628Y-142063285D02*
X185915628Y-141491857D01*
X185915628Y-141491857D02*
X185987056Y-141349000D01*
X185987056Y-141349000D02*
X186129914Y-141277571D01*
X186129914Y-141277571D02*
X186415628Y-141277571D01*
X186415628Y-141277571D02*
X186558485Y-141349000D01*
X186558485Y-141349000D02*
X186629914Y-141491857D01*
X186629914Y-141491857D02*
X186629914Y-141634714D01*
X186629914Y-141634714D02*
X185915628Y-141777571D01*
X175987057Y-143207571D02*
X176487057Y-144707571D01*
X176487057Y-144707571D02*
X176987057Y-143207571D01*
X178272771Y-144707571D02*
X177415628Y-144707571D01*
X177844199Y-144707571D02*
X177844199Y-143207571D01*
X177844199Y-143207571D02*
X177701342Y-143421857D01*
X177701342Y-143421857D02*
X177558485Y-143564714D01*
X177558485Y-143564714D02*
X177415628Y-143636142D01*
X178915627Y-144564714D02*
X178987056Y-144636142D01*
X178987056Y-144636142D02*
X178915627Y-144707571D01*
X178915627Y-144707571D02*
X178844199Y-144636142D01*
X178844199Y-144636142D02*
X178915627Y-144564714D01*
X178915627Y-144564714D02*
X178915627Y-144707571D01*
X179558485Y-143350428D02*
X179629913Y-143279000D01*
X179629913Y-143279000D02*
X179772771Y-143207571D01*
X179772771Y-143207571D02*
X180129913Y-143207571D01*
X180129913Y-143207571D02*
X180272771Y-143279000D01*
X180272771Y-143279000D02*
X180344199Y-143350428D01*
X180344199Y-143350428D02*
X180415628Y-143493285D01*
X180415628Y-143493285D02*
X180415628Y-143636142D01*
X180415628Y-143636142D02*
X180344199Y-143850428D01*
X180344199Y-143850428D02*
X179487056Y-144707571D01*
X179487056Y-144707571D02*
X180415628Y-144707571D01*
D10*
X246011619Y-126140104D02*
X245744952Y-125759152D01*
X245554476Y-126140104D02*
X245554476Y-125340104D01*
X245554476Y-125340104D02*
X245859238Y-125340104D01*
X245859238Y-125340104D02*
X245935428Y-125378200D01*
X245935428Y-125378200D02*
X245973523Y-125416295D01*
X245973523Y-125416295D02*
X246011619Y-125492485D01*
X246011619Y-125492485D02*
X246011619Y-125606771D01*
X246011619Y-125606771D02*
X245973523Y-125682961D01*
X245973523Y-125682961D02*
X245935428Y-125721057D01*
X245935428Y-125721057D02*
X245859238Y-125759152D01*
X245859238Y-125759152D02*
X245554476Y-125759152D01*
X246354476Y-125340104D02*
X246354476Y-125987723D01*
X246354476Y-125987723D02*
X246392571Y-126063914D01*
X246392571Y-126063914D02*
X246430666Y-126102009D01*
X246430666Y-126102009D02*
X246506857Y-126140104D01*
X246506857Y-126140104D02*
X246659238Y-126140104D01*
X246659238Y-126140104D02*
X246735428Y-126102009D01*
X246735428Y-126102009D02*
X246773523Y-126063914D01*
X246773523Y-126063914D02*
X246811619Y-125987723D01*
X246811619Y-125987723D02*
X246811619Y-125340104D01*
X247192571Y-126140104D02*
X247192571Y-125340104D01*
X247192571Y-125340104D02*
X247649714Y-126140104D01*
X247649714Y-126140104D02*
X247649714Y-125340104D01*
X226186980Y-117770895D02*
X226225076Y-117732800D01*
X226225076Y-117732800D02*
X226301266Y-117694704D01*
X226301266Y-117694704D02*
X226491742Y-117694704D01*
X226491742Y-117694704D02*
X226567933Y-117732800D01*
X226567933Y-117732800D02*
X226606028Y-117770895D01*
X226606028Y-117770895D02*
X226644123Y-117847085D01*
X226644123Y-117847085D02*
X226644123Y-117923276D01*
X226644123Y-117923276D02*
X226606028Y-118037561D01*
X226606028Y-118037561D02*
X226148885Y-118494704D01*
X226148885Y-118494704D02*
X226644123Y-118494704D01*
X227406028Y-118494704D02*
X226948885Y-118494704D01*
X227177457Y-118494704D02*
X227177457Y-117694704D01*
X227177457Y-117694704D02*
X227101266Y-117808990D01*
X227101266Y-117808990D02*
X227025076Y-117885180D01*
X227025076Y-117885180D02*
X226948885Y-117923276D01*
X245482523Y-120386000D02*
X245406333Y-120347904D01*
X245406333Y-120347904D02*
X245292047Y-120347904D01*
X245292047Y-120347904D02*
X245177761Y-120386000D01*
X245177761Y-120386000D02*
X245101571Y-120462190D01*
X245101571Y-120462190D02*
X245063476Y-120538380D01*
X245063476Y-120538380D02*
X245025380Y-120690761D01*
X245025380Y-120690761D02*
X245025380Y-120805047D01*
X245025380Y-120805047D02*
X245063476Y-120957428D01*
X245063476Y-120957428D02*
X245101571Y-121033619D01*
X245101571Y-121033619D02*
X245177761Y-121109809D01*
X245177761Y-121109809D02*
X245292047Y-121147904D01*
X245292047Y-121147904D02*
X245368238Y-121147904D01*
X245368238Y-121147904D02*
X245482523Y-121109809D01*
X245482523Y-121109809D02*
X245520619Y-121071714D01*
X245520619Y-121071714D02*
X245520619Y-120805047D01*
X245520619Y-120805047D02*
X245368238Y-120805047D01*
X245863476Y-121147904D02*
X245863476Y-120347904D01*
X245863476Y-120347904D02*
X246168238Y-120347904D01*
X246168238Y-120347904D02*
X246244428Y-120386000D01*
X246244428Y-120386000D02*
X246282523Y-120424095D01*
X246282523Y-120424095D02*
X246320619Y-120500285D01*
X246320619Y-120500285D02*
X246320619Y-120614571D01*
X246320619Y-120614571D02*
X246282523Y-120690761D01*
X246282523Y-120690761D02*
X246244428Y-120728857D01*
X246244428Y-120728857D02*
X246168238Y-120766952D01*
X246168238Y-120766952D02*
X245863476Y-120766952D01*
X247082523Y-121147904D02*
X246625380Y-121147904D01*
X246853952Y-121147904D02*
X246853952Y-120347904D01*
X246853952Y-120347904D02*
X246777761Y-120462190D01*
X246777761Y-120462190D02*
X246701571Y-120538380D01*
X246701571Y-120538380D02*
X246625380Y-120576476D01*
X247768238Y-120347904D02*
X247615857Y-120347904D01*
X247615857Y-120347904D02*
X247539666Y-120386000D01*
X247539666Y-120386000D02*
X247501571Y-120424095D01*
X247501571Y-120424095D02*
X247425381Y-120538380D01*
X247425381Y-120538380D02*
X247387285Y-120690761D01*
X247387285Y-120690761D02*
X247387285Y-120995523D01*
X247387285Y-120995523D02*
X247425381Y-121071714D01*
X247425381Y-121071714D02*
X247463476Y-121109809D01*
X247463476Y-121109809D02*
X247539666Y-121147904D01*
X247539666Y-121147904D02*
X247692047Y-121147904D01*
X247692047Y-121147904D02*
X247768238Y-121109809D01*
X247768238Y-121109809D02*
X247806333Y-121071714D01*
X247806333Y-121071714D02*
X247844428Y-120995523D01*
X247844428Y-120995523D02*
X247844428Y-120805047D01*
X247844428Y-120805047D02*
X247806333Y-120728857D01*
X247806333Y-120728857D02*
X247768238Y-120690761D01*
X247768238Y-120690761D02*
X247692047Y-120652666D01*
X247692047Y-120652666D02*
X247539666Y-120652666D01*
X247539666Y-120652666D02*
X247463476Y-120690761D01*
X247463476Y-120690761D02*
X247425381Y-120728857D01*
X247425381Y-120728857D02*
X247387285Y-120805047D01*
X227494000Y-147680476D02*
X227455904Y-147756666D01*
X227455904Y-147756666D02*
X227455904Y-147870952D01*
X227455904Y-147870952D02*
X227494000Y-147985238D01*
X227494000Y-147985238D02*
X227570190Y-148061428D01*
X227570190Y-148061428D02*
X227646380Y-148099523D01*
X227646380Y-148099523D02*
X227798761Y-148137619D01*
X227798761Y-148137619D02*
X227913047Y-148137619D01*
X227913047Y-148137619D02*
X228065428Y-148099523D01*
X228065428Y-148099523D02*
X228141619Y-148061428D01*
X228141619Y-148061428D02*
X228217809Y-147985238D01*
X228217809Y-147985238D02*
X228255904Y-147870952D01*
X228255904Y-147870952D02*
X228255904Y-147794761D01*
X228255904Y-147794761D02*
X228217809Y-147680476D01*
X228217809Y-147680476D02*
X228179714Y-147642380D01*
X228179714Y-147642380D02*
X227913047Y-147642380D01*
X227913047Y-147642380D02*
X227913047Y-147794761D01*
X228255904Y-147299523D02*
X227455904Y-147299523D01*
X227455904Y-147299523D02*
X227455904Y-146994761D01*
X227455904Y-146994761D02*
X227494000Y-146918571D01*
X227494000Y-146918571D02*
X227532095Y-146880476D01*
X227532095Y-146880476D02*
X227608285Y-146842380D01*
X227608285Y-146842380D02*
X227722571Y-146842380D01*
X227722571Y-146842380D02*
X227798761Y-146880476D01*
X227798761Y-146880476D02*
X227836857Y-146918571D01*
X227836857Y-146918571D02*
X227874952Y-146994761D01*
X227874952Y-146994761D02*
X227874952Y-147299523D01*
X228255904Y-146080476D02*
X228255904Y-146537619D01*
X228255904Y-146309047D02*
X227455904Y-146309047D01*
X227455904Y-146309047D02*
X227570190Y-146385238D01*
X227570190Y-146385238D02*
X227646380Y-146461428D01*
X227646380Y-146461428D02*
X227684476Y-146537619D01*
X227455904Y-145813809D02*
X227455904Y-145318571D01*
X227455904Y-145318571D02*
X227760666Y-145585237D01*
X227760666Y-145585237D02*
X227760666Y-145470952D01*
X227760666Y-145470952D02*
X227798761Y-145394761D01*
X227798761Y-145394761D02*
X227836857Y-145356666D01*
X227836857Y-145356666D02*
X227913047Y-145318571D01*
X227913047Y-145318571D02*
X228103523Y-145318571D01*
X228103523Y-145318571D02*
X228179714Y-145356666D01*
X228179714Y-145356666D02*
X228217809Y-145394761D01*
X228217809Y-145394761D02*
X228255904Y-145470952D01*
X228255904Y-145470952D02*
X228255904Y-145699523D01*
X228255904Y-145699523D02*
X228217809Y-145775714D01*
X228217809Y-145775714D02*
X228179714Y-145813809D01*
X194494000Y-147230476D02*
X194455904Y-147306666D01*
X194455904Y-147306666D02*
X194455904Y-147420952D01*
X194455904Y-147420952D02*
X194494000Y-147535238D01*
X194494000Y-147535238D02*
X194570190Y-147611428D01*
X194570190Y-147611428D02*
X194646380Y-147649523D01*
X194646380Y-147649523D02*
X194798761Y-147687619D01*
X194798761Y-147687619D02*
X194913047Y-147687619D01*
X194913047Y-147687619D02*
X195065428Y-147649523D01*
X195065428Y-147649523D02*
X195141619Y-147611428D01*
X195141619Y-147611428D02*
X195217809Y-147535238D01*
X195217809Y-147535238D02*
X195255904Y-147420952D01*
X195255904Y-147420952D02*
X195255904Y-147344761D01*
X195255904Y-147344761D02*
X195217809Y-147230476D01*
X195217809Y-147230476D02*
X195179714Y-147192380D01*
X195179714Y-147192380D02*
X194913047Y-147192380D01*
X194913047Y-147192380D02*
X194913047Y-147344761D01*
X195255904Y-146849523D02*
X194455904Y-146849523D01*
X194455904Y-146849523D02*
X194455904Y-146544761D01*
X194455904Y-146544761D02*
X194494000Y-146468571D01*
X194494000Y-146468571D02*
X194532095Y-146430476D01*
X194532095Y-146430476D02*
X194608285Y-146392380D01*
X194608285Y-146392380D02*
X194722571Y-146392380D01*
X194722571Y-146392380D02*
X194798761Y-146430476D01*
X194798761Y-146430476D02*
X194836857Y-146468571D01*
X194836857Y-146468571D02*
X194874952Y-146544761D01*
X194874952Y-146544761D02*
X194874952Y-146849523D01*
X194455904Y-145897142D02*
X194455904Y-145820952D01*
X194455904Y-145820952D02*
X194494000Y-145744761D01*
X194494000Y-145744761D02*
X194532095Y-145706666D01*
X194532095Y-145706666D02*
X194608285Y-145668571D01*
X194608285Y-145668571D02*
X194760666Y-145630476D01*
X194760666Y-145630476D02*
X194951142Y-145630476D01*
X194951142Y-145630476D02*
X195103523Y-145668571D01*
X195103523Y-145668571D02*
X195179714Y-145706666D01*
X195179714Y-145706666D02*
X195217809Y-145744761D01*
X195217809Y-145744761D02*
X195255904Y-145820952D01*
X195255904Y-145820952D02*
X195255904Y-145897142D01*
X195255904Y-145897142D02*
X195217809Y-145973333D01*
X195217809Y-145973333D02*
X195179714Y-146011428D01*
X195179714Y-146011428D02*
X195103523Y-146049523D01*
X195103523Y-146049523D02*
X194951142Y-146087619D01*
X194951142Y-146087619D02*
X194760666Y-146087619D01*
X194760666Y-146087619D02*
X194608285Y-146049523D01*
X194608285Y-146049523D02*
X194532095Y-146011428D01*
X194532095Y-146011428D02*
X194494000Y-145973333D01*
X194494000Y-145973333D02*
X194455904Y-145897142D01*
X222554000Y-147690476D02*
X222515904Y-147766666D01*
X222515904Y-147766666D02*
X222515904Y-147880952D01*
X222515904Y-147880952D02*
X222554000Y-147995238D01*
X222554000Y-147995238D02*
X222630190Y-148071428D01*
X222630190Y-148071428D02*
X222706380Y-148109523D01*
X222706380Y-148109523D02*
X222858761Y-148147619D01*
X222858761Y-148147619D02*
X222973047Y-148147619D01*
X222973047Y-148147619D02*
X223125428Y-148109523D01*
X223125428Y-148109523D02*
X223201619Y-148071428D01*
X223201619Y-148071428D02*
X223277809Y-147995238D01*
X223277809Y-147995238D02*
X223315904Y-147880952D01*
X223315904Y-147880952D02*
X223315904Y-147804761D01*
X223315904Y-147804761D02*
X223277809Y-147690476D01*
X223277809Y-147690476D02*
X223239714Y-147652380D01*
X223239714Y-147652380D02*
X222973047Y-147652380D01*
X222973047Y-147652380D02*
X222973047Y-147804761D01*
X223315904Y-147309523D02*
X222515904Y-147309523D01*
X222515904Y-147309523D02*
X222515904Y-147004761D01*
X222515904Y-147004761D02*
X222554000Y-146928571D01*
X222554000Y-146928571D02*
X222592095Y-146890476D01*
X222592095Y-146890476D02*
X222668285Y-146852380D01*
X222668285Y-146852380D02*
X222782571Y-146852380D01*
X222782571Y-146852380D02*
X222858761Y-146890476D01*
X222858761Y-146890476D02*
X222896857Y-146928571D01*
X222896857Y-146928571D02*
X222934952Y-147004761D01*
X222934952Y-147004761D02*
X222934952Y-147309523D01*
X223315904Y-146090476D02*
X223315904Y-146547619D01*
X223315904Y-146319047D02*
X222515904Y-146319047D01*
X222515904Y-146319047D02*
X222630190Y-146395238D01*
X222630190Y-146395238D02*
X222706380Y-146471428D01*
X222706380Y-146471428D02*
X222744476Y-146547619D01*
X223315904Y-145328571D02*
X223315904Y-145785714D01*
X223315904Y-145557142D02*
X222515904Y-145557142D01*
X222515904Y-145557142D02*
X222630190Y-145633333D01*
X222630190Y-145633333D02*
X222706380Y-145709523D01*
X222706380Y-145709523D02*
X222744476Y-145785714D01*
X197104000Y-147200476D02*
X197065904Y-147276666D01*
X197065904Y-147276666D02*
X197065904Y-147390952D01*
X197065904Y-147390952D02*
X197104000Y-147505238D01*
X197104000Y-147505238D02*
X197180190Y-147581428D01*
X197180190Y-147581428D02*
X197256380Y-147619523D01*
X197256380Y-147619523D02*
X197408761Y-147657619D01*
X197408761Y-147657619D02*
X197523047Y-147657619D01*
X197523047Y-147657619D02*
X197675428Y-147619523D01*
X197675428Y-147619523D02*
X197751619Y-147581428D01*
X197751619Y-147581428D02*
X197827809Y-147505238D01*
X197827809Y-147505238D02*
X197865904Y-147390952D01*
X197865904Y-147390952D02*
X197865904Y-147314761D01*
X197865904Y-147314761D02*
X197827809Y-147200476D01*
X197827809Y-147200476D02*
X197789714Y-147162380D01*
X197789714Y-147162380D02*
X197523047Y-147162380D01*
X197523047Y-147162380D02*
X197523047Y-147314761D01*
X197865904Y-146819523D02*
X197065904Y-146819523D01*
X197065904Y-146819523D02*
X197065904Y-146514761D01*
X197065904Y-146514761D02*
X197104000Y-146438571D01*
X197104000Y-146438571D02*
X197142095Y-146400476D01*
X197142095Y-146400476D02*
X197218285Y-146362380D01*
X197218285Y-146362380D02*
X197332571Y-146362380D01*
X197332571Y-146362380D02*
X197408761Y-146400476D01*
X197408761Y-146400476D02*
X197446857Y-146438571D01*
X197446857Y-146438571D02*
X197484952Y-146514761D01*
X197484952Y-146514761D02*
X197484952Y-146819523D01*
X197865904Y-145600476D02*
X197865904Y-146057619D01*
X197865904Y-145829047D02*
X197065904Y-145829047D01*
X197065904Y-145829047D02*
X197180190Y-145905238D01*
X197180190Y-145905238D02*
X197256380Y-145981428D01*
X197256380Y-145981428D02*
X197294476Y-146057619D01*
X179654248Y-96176228D02*
X180416153Y-96176228D01*
X180035200Y-96557180D02*
X180035200Y-95795276D01*
X212304000Y-147410476D02*
X212265904Y-147486666D01*
X212265904Y-147486666D02*
X212265904Y-147600952D01*
X212265904Y-147600952D02*
X212304000Y-147715238D01*
X212304000Y-147715238D02*
X212380190Y-147791428D01*
X212380190Y-147791428D02*
X212456380Y-147829523D01*
X212456380Y-147829523D02*
X212608761Y-147867619D01*
X212608761Y-147867619D02*
X212723047Y-147867619D01*
X212723047Y-147867619D02*
X212875428Y-147829523D01*
X212875428Y-147829523D02*
X212951619Y-147791428D01*
X212951619Y-147791428D02*
X213027809Y-147715238D01*
X213027809Y-147715238D02*
X213065904Y-147600952D01*
X213065904Y-147600952D02*
X213065904Y-147524761D01*
X213065904Y-147524761D02*
X213027809Y-147410476D01*
X213027809Y-147410476D02*
X212989714Y-147372380D01*
X212989714Y-147372380D02*
X212723047Y-147372380D01*
X212723047Y-147372380D02*
X212723047Y-147524761D01*
X213065904Y-147029523D02*
X212265904Y-147029523D01*
X212265904Y-147029523D02*
X212265904Y-146724761D01*
X212265904Y-146724761D02*
X212304000Y-146648571D01*
X212304000Y-146648571D02*
X212342095Y-146610476D01*
X212342095Y-146610476D02*
X212418285Y-146572380D01*
X212418285Y-146572380D02*
X212532571Y-146572380D01*
X212532571Y-146572380D02*
X212608761Y-146610476D01*
X212608761Y-146610476D02*
X212646857Y-146648571D01*
X212646857Y-146648571D02*
X212684952Y-146724761D01*
X212684952Y-146724761D02*
X212684952Y-147029523D01*
X212265904Y-146305714D02*
X212265904Y-145772380D01*
X212265904Y-145772380D02*
X213065904Y-146115238D01*
X217514000Y-147490476D02*
X217475904Y-147566666D01*
X217475904Y-147566666D02*
X217475904Y-147680952D01*
X217475904Y-147680952D02*
X217514000Y-147795238D01*
X217514000Y-147795238D02*
X217590190Y-147871428D01*
X217590190Y-147871428D02*
X217666380Y-147909523D01*
X217666380Y-147909523D02*
X217818761Y-147947619D01*
X217818761Y-147947619D02*
X217933047Y-147947619D01*
X217933047Y-147947619D02*
X218085428Y-147909523D01*
X218085428Y-147909523D02*
X218161619Y-147871428D01*
X218161619Y-147871428D02*
X218237809Y-147795238D01*
X218237809Y-147795238D02*
X218275904Y-147680952D01*
X218275904Y-147680952D02*
X218275904Y-147604761D01*
X218275904Y-147604761D02*
X218237809Y-147490476D01*
X218237809Y-147490476D02*
X218199714Y-147452380D01*
X218199714Y-147452380D02*
X217933047Y-147452380D01*
X217933047Y-147452380D02*
X217933047Y-147604761D01*
X218275904Y-147109523D02*
X217475904Y-147109523D01*
X217475904Y-147109523D02*
X217475904Y-146804761D01*
X217475904Y-146804761D02*
X217514000Y-146728571D01*
X217514000Y-146728571D02*
X217552095Y-146690476D01*
X217552095Y-146690476D02*
X217628285Y-146652380D01*
X217628285Y-146652380D02*
X217742571Y-146652380D01*
X217742571Y-146652380D02*
X217818761Y-146690476D01*
X217818761Y-146690476D02*
X217856857Y-146728571D01*
X217856857Y-146728571D02*
X217894952Y-146804761D01*
X217894952Y-146804761D02*
X217894952Y-147109523D01*
X218275904Y-146271428D02*
X218275904Y-146119047D01*
X218275904Y-146119047D02*
X218237809Y-146042857D01*
X218237809Y-146042857D02*
X218199714Y-146004761D01*
X218199714Y-146004761D02*
X218085428Y-145928571D01*
X218085428Y-145928571D02*
X217933047Y-145890476D01*
X217933047Y-145890476D02*
X217628285Y-145890476D01*
X217628285Y-145890476D02*
X217552095Y-145928571D01*
X217552095Y-145928571D02*
X217514000Y-145966666D01*
X217514000Y-145966666D02*
X217475904Y-146042857D01*
X217475904Y-146042857D02*
X217475904Y-146195238D01*
X217475904Y-146195238D02*
X217514000Y-146271428D01*
X217514000Y-146271428D02*
X217552095Y-146309523D01*
X217552095Y-146309523D02*
X217628285Y-146347619D01*
X217628285Y-146347619D02*
X217818761Y-146347619D01*
X217818761Y-146347619D02*
X217894952Y-146309523D01*
X217894952Y-146309523D02*
X217933047Y-146271428D01*
X217933047Y-146271428D02*
X217971142Y-146195238D01*
X217971142Y-146195238D02*
X217971142Y-146042857D01*
X217971142Y-146042857D02*
X217933047Y-145966666D01*
X217933047Y-145966666D02*
X217894952Y-145928571D01*
X217894952Y-145928571D02*
X217818761Y-145890476D01*
X243039885Y-135550904D02*
X243535123Y-135550904D01*
X243535123Y-135550904D02*
X243268457Y-135855666D01*
X243268457Y-135855666D02*
X243382742Y-135855666D01*
X243382742Y-135855666D02*
X243458933Y-135893761D01*
X243458933Y-135893761D02*
X243497028Y-135931857D01*
X243497028Y-135931857D02*
X243535123Y-136008047D01*
X243535123Y-136008047D02*
X243535123Y-136198523D01*
X243535123Y-136198523D02*
X243497028Y-136274714D01*
X243497028Y-136274714D02*
X243458933Y-136312809D01*
X243458933Y-136312809D02*
X243382742Y-136350904D01*
X243382742Y-136350904D02*
X243154171Y-136350904D01*
X243154171Y-136350904D02*
X243077980Y-136312809D01*
X243077980Y-136312809D02*
X243039885Y-136274714D01*
X243763695Y-135550904D02*
X244030362Y-136350904D01*
X244030362Y-136350904D02*
X244297028Y-135550904D01*
X244487504Y-135550904D02*
X244982742Y-135550904D01*
X244982742Y-135550904D02*
X244716076Y-135855666D01*
X244716076Y-135855666D02*
X244830361Y-135855666D01*
X244830361Y-135855666D02*
X244906552Y-135893761D01*
X244906552Y-135893761D02*
X244944647Y-135931857D01*
X244944647Y-135931857D02*
X244982742Y-136008047D01*
X244982742Y-136008047D02*
X244982742Y-136198523D01*
X244982742Y-136198523D02*
X244944647Y-136274714D01*
X244944647Y-136274714D02*
X244906552Y-136312809D01*
X244906552Y-136312809D02*
X244830361Y-136350904D01*
X244830361Y-136350904D02*
X244601790Y-136350904D01*
X244601790Y-136350904D02*
X244525599Y-136312809D01*
X244525599Y-136312809D02*
X244487504Y-136274714D01*
X245957981Y-135550904D02*
X246110362Y-135550904D01*
X246110362Y-135550904D02*
X246186552Y-135589000D01*
X246186552Y-135589000D02*
X246262743Y-135665190D01*
X246262743Y-135665190D02*
X246300838Y-135817571D01*
X246300838Y-135817571D02*
X246300838Y-136084238D01*
X246300838Y-136084238D02*
X246262743Y-136236619D01*
X246262743Y-136236619D02*
X246186552Y-136312809D01*
X246186552Y-136312809D02*
X246110362Y-136350904D01*
X246110362Y-136350904D02*
X245957981Y-136350904D01*
X245957981Y-136350904D02*
X245881790Y-136312809D01*
X245881790Y-136312809D02*
X245805600Y-136236619D01*
X245805600Y-136236619D02*
X245767504Y-136084238D01*
X245767504Y-136084238D02*
X245767504Y-135817571D01*
X245767504Y-135817571D02*
X245805600Y-135665190D01*
X245805600Y-135665190D02*
X245881790Y-135589000D01*
X245881790Y-135589000D02*
X245957981Y-135550904D01*
X246643695Y-135550904D02*
X246643695Y-136198523D01*
X246643695Y-136198523D02*
X246681790Y-136274714D01*
X246681790Y-136274714D02*
X246719885Y-136312809D01*
X246719885Y-136312809D02*
X246796076Y-136350904D01*
X246796076Y-136350904D02*
X246948457Y-136350904D01*
X246948457Y-136350904D02*
X247024647Y-136312809D01*
X247024647Y-136312809D02*
X247062742Y-136274714D01*
X247062742Y-136274714D02*
X247100838Y-136198523D01*
X247100838Y-136198523D02*
X247100838Y-135550904D01*
X247367504Y-135550904D02*
X247824647Y-135550904D01*
X247596075Y-136350904D02*
X247596075Y-135550904D01*
X247268933Y-109442400D02*
X247202266Y-109409066D01*
X247202266Y-109409066D02*
X247102266Y-109409066D01*
X247102266Y-109409066D02*
X247002266Y-109442400D01*
X247002266Y-109442400D02*
X246935600Y-109509066D01*
X246935600Y-109509066D02*
X246902266Y-109575733D01*
X246902266Y-109575733D02*
X246868933Y-109709066D01*
X246868933Y-109709066D02*
X246868933Y-109809066D01*
X246868933Y-109809066D02*
X246902266Y-109942400D01*
X246902266Y-109942400D02*
X246935600Y-110009066D01*
X246935600Y-110009066D02*
X247002266Y-110075733D01*
X247002266Y-110075733D02*
X247102266Y-110109066D01*
X247102266Y-110109066D02*
X247168933Y-110109066D01*
X247168933Y-110109066D02*
X247268933Y-110075733D01*
X247268933Y-110075733D02*
X247302266Y-110042400D01*
X247302266Y-110042400D02*
X247302266Y-109809066D01*
X247302266Y-109809066D02*
X247168933Y-109809066D01*
X247602266Y-110109066D02*
X247602266Y-109409066D01*
X247602266Y-109409066D02*
X248002266Y-110109066D01*
X248002266Y-110109066D02*
X248002266Y-109409066D01*
X248335599Y-110109066D02*
X248335599Y-109409066D01*
X248335599Y-109409066D02*
X248502266Y-109409066D01*
X248502266Y-109409066D02*
X248602266Y-109442400D01*
X248602266Y-109442400D02*
X248668933Y-109509066D01*
X248668933Y-109509066D02*
X248702266Y-109575733D01*
X248702266Y-109575733D02*
X248735599Y-109709066D01*
X248735599Y-109709066D02*
X248735599Y-109809066D01*
X248735599Y-109809066D02*
X248702266Y-109942400D01*
X248702266Y-109942400D02*
X248668933Y-110009066D01*
X248668933Y-110009066D02*
X248602266Y-110075733D01*
X248602266Y-110075733D02*
X248502266Y-110109066D01*
X248502266Y-110109066D02*
X248335599Y-110109066D01*
X245592523Y-117936000D02*
X245516333Y-117897904D01*
X245516333Y-117897904D02*
X245402047Y-117897904D01*
X245402047Y-117897904D02*
X245287761Y-117936000D01*
X245287761Y-117936000D02*
X245211571Y-118012190D01*
X245211571Y-118012190D02*
X245173476Y-118088380D01*
X245173476Y-118088380D02*
X245135380Y-118240761D01*
X245135380Y-118240761D02*
X245135380Y-118355047D01*
X245135380Y-118355047D02*
X245173476Y-118507428D01*
X245173476Y-118507428D02*
X245211571Y-118583619D01*
X245211571Y-118583619D02*
X245287761Y-118659809D01*
X245287761Y-118659809D02*
X245402047Y-118697904D01*
X245402047Y-118697904D02*
X245478238Y-118697904D01*
X245478238Y-118697904D02*
X245592523Y-118659809D01*
X245592523Y-118659809D02*
X245630619Y-118621714D01*
X245630619Y-118621714D02*
X245630619Y-118355047D01*
X245630619Y-118355047D02*
X245478238Y-118355047D01*
X245973476Y-118697904D02*
X245973476Y-117897904D01*
X245973476Y-117897904D02*
X246278238Y-117897904D01*
X246278238Y-117897904D02*
X246354428Y-117936000D01*
X246354428Y-117936000D02*
X246392523Y-117974095D01*
X246392523Y-117974095D02*
X246430619Y-118050285D01*
X246430619Y-118050285D02*
X246430619Y-118164571D01*
X246430619Y-118164571D02*
X246392523Y-118240761D01*
X246392523Y-118240761D02*
X246354428Y-118278857D01*
X246354428Y-118278857D02*
X246278238Y-118316952D01*
X246278238Y-118316952D02*
X245973476Y-118316952D01*
X247192523Y-118697904D02*
X246735380Y-118697904D01*
X246963952Y-118697904D02*
X246963952Y-117897904D01*
X246963952Y-117897904D02*
X246887761Y-118012190D01*
X246887761Y-118012190D02*
X246811571Y-118088380D01*
X246811571Y-118088380D02*
X246735380Y-118126476D01*
X247459190Y-117897904D02*
X247992524Y-117897904D01*
X247992524Y-117897904D02*
X247649666Y-118697904D01*
X191875400Y-147100476D02*
X191837304Y-147176666D01*
X191837304Y-147176666D02*
X191837304Y-147290952D01*
X191837304Y-147290952D02*
X191875400Y-147405238D01*
X191875400Y-147405238D02*
X191951590Y-147481428D01*
X191951590Y-147481428D02*
X192027780Y-147519523D01*
X192027780Y-147519523D02*
X192180161Y-147557619D01*
X192180161Y-147557619D02*
X192294447Y-147557619D01*
X192294447Y-147557619D02*
X192446828Y-147519523D01*
X192446828Y-147519523D02*
X192523019Y-147481428D01*
X192523019Y-147481428D02*
X192599209Y-147405238D01*
X192599209Y-147405238D02*
X192637304Y-147290952D01*
X192637304Y-147290952D02*
X192637304Y-147214761D01*
X192637304Y-147214761D02*
X192599209Y-147100476D01*
X192599209Y-147100476D02*
X192561114Y-147062380D01*
X192561114Y-147062380D02*
X192294447Y-147062380D01*
X192294447Y-147062380D02*
X192294447Y-147214761D01*
X192637304Y-146719523D02*
X191837304Y-146719523D01*
X191837304Y-146719523D02*
X192637304Y-146262380D01*
X192637304Y-146262380D02*
X191837304Y-146262380D01*
X192637304Y-145881428D02*
X191837304Y-145881428D01*
X191837304Y-145881428D02*
X191837304Y-145690952D01*
X191837304Y-145690952D02*
X191875400Y-145576666D01*
X191875400Y-145576666D02*
X191951590Y-145500476D01*
X191951590Y-145500476D02*
X192027780Y-145462381D01*
X192027780Y-145462381D02*
X192180161Y-145424285D01*
X192180161Y-145424285D02*
X192294447Y-145424285D01*
X192294447Y-145424285D02*
X192446828Y-145462381D01*
X192446828Y-145462381D02*
X192523019Y-145500476D01*
X192523019Y-145500476D02*
X192599209Y-145576666D01*
X192599209Y-145576666D02*
X192637304Y-145690952D01*
X192637304Y-145690952D02*
X192637304Y-145881428D01*
X207474000Y-147370476D02*
X207435904Y-147446666D01*
X207435904Y-147446666D02*
X207435904Y-147560952D01*
X207435904Y-147560952D02*
X207474000Y-147675238D01*
X207474000Y-147675238D02*
X207550190Y-147751428D01*
X207550190Y-147751428D02*
X207626380Y-147789523D01*
X207626380Y-147789523D02*
X207778761Y-147827619D01*
X207778761Y-147827619D02*
X207893047Y-147827619D01*
X207893047Y-147827619D02*
X208045428Y-147789523D01*
X208045428Y-147789523D02*
X208121619Y-147751428D01*
X208121619Y-147751428D02*
X208197809Y-147675238D01*
X208197809Y-147675238D02*
X208235904Y-147560952D01*
X208235904Y-147560952D02*
X208235904Y-147484761D01*
X208235904Y-147484761D02*
X208197809Y-147370476D01*
X208197809Y-147370476D02*
X208159714Y-147332380D01*
X208159714Y-147332380D02*
X207893047Y-147332380D01*
X207893047Y-147332380D02*
X207893047Y-147484761D01*
X208235904Y-146989523D02*
X207435904Y-146989523D01*
X207435904Y-146989523D02*
X207435904Y-146684761D01*
X207435904Y-146684761D02*
X207474000Y-146608571D01*
X207474000Y-146608571D02*
X207512095Y-146570476D01*
X207512095Y-146570476D02*
X207588285Y-146532380D01*
X207588285Y-146532380D02*
X207702571Y-146532380D01*
X207702571Y-146532380D02*
X207778761Y-146570476D01*
X207778761Y-146570476D02*
X207816857Y-146608571D01*
X207816857Y-146608571D02*
X207854952Y-146684761D01*
X207854952Y-146684761D02*
X207854952Y-146989523D01*
X207435904Y-145808571D02*
X207435904Y-146189523D01*
X207435904Y-146189523D02*
X207816857Y-146227619D01*
X207816857Y-146227619D02*
X207778761Y-146189523D01*
X207778761Y-146189523D02*
X207740666Y-146113333D01*
X207740666Y-146113333D02*
X207740666Y-145922857D01*
X207740666Y-145922857D02*
X207778761Y-145846666D01*
X207778761Y-145846666D02*
X207816857Y-145808571D01*
X207816857Y-145808571D02*
X207893047Y-145770476D01*
X207893047Y-145770476D02*
X208083523Y-145770476D01*
X208083523Y-145770476D02*
X208159714Y-145808571D01*
X208159714Y-145808571D02*
X208197809Y-145846666D01*
X208197809Y-145846666D02*
X208235904Y-145922857D01*
X208235904Y-145922857D02*
X208235904Y-146113333D01*
X208235904Y-146113333D02*
X208197809Y-146189523D01*
X208197809Y-146189523D02*
X208159714Y-146227619D01*
X222019800Y-106742066D02*
X222453133Y-106742066D01*
X222453133Y-106742066D02*
X222219800Y-107008733D01*
X222219800Y-107008733D02*
X222319800Y-107008733D01*
X222319800Y-107008733D02*
X222386466Y-107042066D01*
X222386466Y-107042066D02*
X222419800Y-107075400D01*
X222419800Y-107075400D02*
X222453133Y-107142066D01*
X222453133Y-107142066D02*
X222453133Y-107308733D01*
X222453133Y-107308733D02*
X222419800Y-107375400D01*
X222419800Y-107375400D02*
X222386466Y-107408733D01*
X222386466Y-107408733D02*
X222319800Y-107442066D01*
X222319800Y-107442066D02*
X222119800Y-107442066D01*
X222119800Y-107442066D02*
X222053133Y-107408733D01*
X222053133Y-107408733D02*
X222019800Y-107375400D01*
X222653133Y-106742066D02*
X222886467Y-107442066D01*
X222886467Y-107442066D02*
X223119800Y-106742066D01*
X223286467Y-106742066D02*
X223719800Y-106742066D01*
X223719800Y-106742066D02*
X223486467Y-107008733D01*
X223486467Y-107008733D02*
X223586467Y-107008733D01*
X223586467Y-107008733D02*
X223653133Y-107042066D01*
X223653133Y-107042066D02*
X223686467Y-107075400D01*
X223686467Y-107075400D02*
X223719800Y-107142066D01*
X223719800Y-107142066D02*
X223719800Y-107308733D01*
X223719800Y-107308733D02*
X223686467Y-107375400D01*
X223686467Y-107375400D02*
X223653133Y-107408733D01*
X223653133Y-107408733D02*
X223586467Y-107442066D01*
X223586467Y-107442066D02*
X223386467Y-107442066D01*
X223386467Y-107442066D02*
X223319800Y-107408733D01*
X223319800Y-107408733D02*
X223286467Y-107375400D01*
X202184000Y-147310476D02*
X202145904Y-147386666D01*
X202145904Y-147386666D02*
X202145904Y-147500952D01*
X202145904Y-147500952D02*
X202184000Y-147615238D01*
X202184000Y-147615238D02*
X202260190Y-147691428D01*
X202260190Y-147691428D02*
X202336380Y-147729523D01*
X202336380Y-147729523D02*
X202488761Y-147767619D01*
X202488761Y-147767619D02*
X202603047Y-147767619D01*
X202603047Y-147767619D02*
X202755428Y-147729523D01*
X202755428Y-147729523D02*
X202831619Y-147691428D01*
X202831619Y-147691428D02*
X202907809Y-147615238D01*
X202907809Y-147615238D02*
X202945904Y-147500952D01*
X202945904Y-147500952D02*
X202945904Y-147424761D01*
X202945904Y-147424761D02*
X202907809Y-147310476D01*
X202907809Y-147310476D02*
X202869714Y-147272380D01*
X202869714Y-147272380D02*
X202603047Y-147272380D01*
X202603047Y-147272380D02*
X202603047Y-147424761D01*
X202945904Y-146929523D02*
X202145904Y-146929523D01*
X202145904Y-146929523D02*
X202145904Y-146624761D01*
X202145904Y-146624761D02*
X202184000Y-146548571D01*
X202184000Y-146548571D02*
X202222095Y-146510476D01*
X202222095Y-146510476D02*
X202298285Y-146472380D01*
X202298285Y-146472380D02*
X202412571Y-146472380D01*
X202412571Y-146472380D02*
X202488761Y-146510476D01*
X202488761Y-146510476D02*
X202526857Y-146548571D01*
X202526857Y-146548571D02*
X202564952Y-146624761D01*
X202564952Y-146624761D02*
X202564952Y-146929523D01*
X202145904Y-146205714D02*
X202145904Y-145710476D01*
X202145904Y-145710476D02*
X202450666Y-145977142D01*
X202450666Y-145977142D02*
X202450666Y-145862857D01*
X202450666Y-145862857D02*
X202488761Y-145786666D01*
X202488761Y-145786666D02*
X202526857Y-145748571D01*
X202526857Y-145748571D02*
X202603047Y-145710476D01*
X202603047Y-145710476D02*
X202793523Y-145710476D01*
X202793523Y-145710476D02*
X202869714Y-145748571D01*
X202869714Y-145748571D02*
X202907809Y-145786666D01*
X202907809Y-145786666D02*
X202945904Y-145862857D01*
X202945904Y-145862857D02*
X202945904Y-146091428D01*
X202945904Y-146091428D02*
X202907809Y-146167619D01*
X202907809Y-146167619D02*
X202869714Y-146205714D01*
X178824895Y-125387085D02*
X178824895Y-125882323D01*
X178824895Y-125882323D02*
X178520133Y-125615657D01*
X178520133Y-125615657D02*
X178520133Y-125729942D01*
X178520133Y-125729942D02*
X178482038Y-125806133D01*
X178482038Y-125806133D02*
X178443942Y-125844228D01*
X178443942Y-125844228D02*
X178367752Y-125882323D01*
X178367752Y-125882323D02*
X178177276Y-125882323D01*
X178177276Y-125882323D02*
X178101085Y-125844228D01*
X178101085Y-125844228D02*
X178062990Y-125806133D01*
X178062990Y-125806133D02*
X178024895Y-125729942D01*
X178024895Y-125729942D02*
X178024895Y-125501371D01*
X178024895Y-125501371D02*
X178062990Y-125425180D01*
X178062990Y-125425180D02*
X178101085Y-125387085D01*
X178824895Y-126110895D02*
X178024895Y-126377562D01*
X178024895Y-126377562D02*
X178824895Y-126644228D01*
X178824895Y-126834704D02*
X178824895Y-127329942D01*
X178824895Y-127329942D02*
X178520133Y-127063276D01*
X178520133Y-127063276D02*
X178520133Y-127177561D01*
X178520133Y-127177561D02*
X178482038Y-127253752D01*
X178482038Y-127253752D02*
X178443942Y-127291847D01*
X178443942Y-127291847D02*
X178367752Y-127329942D01*
X178367752Y-127329942D02*
X178177276Y-127329942D01*
X178177276Y-127329942D02*
X178101085Y-127291847D01*
X178101085Y-127291847D02*
X178062990Y-127253752D01*
X178062990Y-127253752D02*
X178024895Y-127177561D01*
X178024895Y-127177561D02*
X178024895Y-126948990D01*
X178024895Y-126948990D02*
X178062990Y-126872799D01*
X178062990Y-126872799D02*
X178101085Y-126834704D01*
X178443942Y-128152800D02*
X178443942Y-128419466D01*
X178024895Y-128533752D02*
X178024895Y-128152800D01*
X178024895Y-128152800D02*
X178824895Y-128152800D01*
X178824895Y-128152800D02*
X178824895Y-128533752D01*
X178024895Y-128876610D02*
X178824895Y-128876610D01*
X178824895Y-128876610D02*
X178024895Y-129333753D01*
X178024895Y-129333753D02*
X178824895Y-129333753D01*
X209844000Y-147490476D02*
X209805904Y-147566666D01*
X209805904Y-147566666D02*
X209805904Y-147680952D01*
X209805904Y-147680952D02*
X209844000Y-147795238D01*
X209844000Y-147795238D02*
X209920190Y-147871428D01*
X209920190Y-147871428D02*
X209996380Y-147909523D01*
X209996380Y-147909523D02*
X210148761Y-147947619D01*
X210148761Y-147947619D02*
X210263047Y-147947619D01*
X210263047Y-147947619D02*
X210415428Y-147909523D01*
X210415428Y-147909523D02*
X210491619Y-147871428D01*
X210491619Y-147871428D02*
X210567809Y-147795238D01*
X210567809Y-147795238D02*
X210605904Y-147680952D01*
X210605904Y-147680952D02*
X210605904Y-147604761D01*
X210605904Y-147604761D02*
X210567809Y-147490476D01*
X210567809Y-147490476D02*
X210529714Y-147452380D01*
X210529714Y-147452380D02*
X210263047Y-147452380D01*
X210263047Y-147452380D02*
X210263047Y-147604761D01*
X210605904Y-147109523D02*
X209805904Y-147109523D01*
X209805904Y-147109523D02*
X209805904Y-146804761D01*
X209805904Y-146804761D02*
X209844000Y-146728571D01*
X209844000Y-146728571D02*
X209882095Y-146690476D01*
X209882095Y-146690476D02*
X209958285Y-146652380D01*
X209958285Y-146652380D02*
X210072571Y-146652380D01*
X210072571Y-146652380D02*
X210148761Y-146690476D01*
X210148761Y-146690476D02*
X210186857Y-146728571D01*
X210186857Y-146728571D02*
X210224952Y-146804761D01*
X210224952Y-146804761D02*
X210224952Y-147109523D01*
X209805904Y-145966666D02*
X209805904Y-146119047D01*
X209805904Y-146119047D02*
X209844000Y-146195238D01*
X209844000Y-146195238D02*
X209882095Y-146233333D01*
X209882095Y-146233333D02*
X209996380Y-146309523D01*
X209996380Y-146309523D02*
X210148761Y-146347619D01*
X210148761Y-146347619D02*
X210453523Y-146347619D01*
X210453523Y-146347619D02*
X210529714Y-146309523D01*
X210529714Y-146309523D02*
X210567809Y-146271428D01*
X210567809Y-146271428D02*
X210605904Y-146195238D01*
X210605904Y-146195238D02*
X210605904Y-146042857D01*
X210605904Y-146042857D02*
X210567809Y-145966666D01*
X210567809Y-145966666D02*
X210529714Y-145928571D01*
X210529714Y-145928571D02*
X210453523Y-145890476D01*
X210453523Y-145890476D02*
X210263047Y-145890476D01*
X210263047Y-145890476D02*
X210186857Y-145928571D01*
X210186857Y-145928571D02*
X210148761Y-145966666D01*
X210148761Y-145966666D02*
X210110666Y-146042857D01*
X210110666Y-146042857D02*
X210110666Y-146195238D01*
X210110666Y-146195238D02*
X210148761Y-146271428D01*
X210148761Y-146271428D02*
X210186857Y-146309523D01*
X210186857Y-146309523D02*
X210263047Y-146347619D01*
X246759400Y-106716666D02*
X247192733Y-106716666D01*
X247192733Y-106716666D02*
X246959400Y-106983333D01*
X246959400Y-106983333D02*
X247059400Y-106983333D01*
X247059400Y-106983333D02*
X247126066Y-107016666D01*
X247126066Y-107016666D02*
X247159400Y-107050000D01*
X247159400Y-107050000D02*
X247192733Y-107116666D01*
X247192733Y-107116666D02*
X247192733Y-107283333D01*
X247192733Y-107283333D02*
X247159400Y-107350000D01*
X247159400Y-107350000D02*
X247126066Y-107383333D01*
X247126066Y-107383333D02*
X247059400Y-107416666D01*
X247059400Y-107416666D02*
X246859400Y-107416666D01*
X246859400Y-107416666D02*
X246792733Y-107383333D01*
X246792733Y-107383333D02*
X246759400Y-107350000D01*
X247392733Y-106716666D02*
X247626067Y-107416666D01*
X247626067Y-107416666D02*
X247859400Y-106716666D01*
X248026067Y-106716666D02*
X248459400Y-106716666D01*
X248459400Y-106716666D02*
X248226067Y-106983333D01*
X248226067Y-106983333D02*
X248326067Y-106983333D01*
X248326067Y-106983333D02*
X248392733Y-107016666D01*
X248392733Y-107016666D02*
X248426067Y-107050000D01*
X248426067Y-107050000D02*
X248459400Y-107116666D01*
X248459400Y-107116666D02*
X248459400Y-107283333D01*
X248459400Y-107283333D02*
X248426067Y-107350000D01*
X248426067Y-107350000D02*
X248392733Y-107383333D01*
X248392733Y-107383333D02*
X248326067Y-107416666D01*
X248326067Y-107416666D02*
X248126067Y-107416666D01*
X248126067Y-107416666D02*
X248059400Y-107383333D01*
X248059400Y-107383333D02*
X248026067Y-107350000D01*
X176170600Y-126110923D02*
X176208695Y-126034733D01*
X176208695Y-126034733D02*
X176208695Y-125920447D01*
X176208695Y-125920447D02*
X176170600Y-125806161D01*
X176170600Y-125806161D02*
X176094409Y-125729971D01*
X176094409Y-125729971D02*
X176018219Y-125691876D01*
X176018219Y-125691876D02*
X175865838Y-125653780D01*
X175865838Y-125653780D02*
X175751552Y-125653780D01*
X175751552Y-125653780D02*
X175599171Y-125691876D01*
X175599171Y-125691876D02*
X175522980Y-125729971D01*
X175522980Y-125729971D02*
X175446790Y-125806161D01*
X175446790Y-125806161D02*
X175408695Y-125920447D01*
X175408695Y-125920447D02*
X175408695Y-125996638D01*
X175408695Y-125996638D02*
X175446790Y-126110923D01*
X175446790Y-126110923D02*
X175484885Y-126149019D01*
X175484885Y-126149019D02*
X175751552Y-126149019D01*
X175751552Y-126149019D02*
X175751552Y-125996638D01*
X175408695Y-126491876D02*
X176208695Y-126491876D01*
X176208695Y-126491876D02*
X176208695Y-126796638D01*
X176208695Y-126796638D02*
X176170600Y-126872828D01*
X176170600Y-126872828D02*
X176132504Y-126910923D01*
X176132504Y-126910923D02*
X176056314Y-126949019D01*
X176056314Y-126949019D02*
X175942028Y-126949019D01*
X175942028Y-126949019D02*
X175865838Y-126910923D01*
X175865838Y-126910923D02*
X175827742Y-126872828D01*
X175827742Y-126872828D02*
X175789647Y-126796638D01*
X175789647Y-126796638D02*
X175789647Y-126491876D01*
X176132504Y-127253780D02*
X176170600Y-127291876D01*
X176170600Y-127291876D02*
X176208695Y-127368066D01*
X176208695Y-127368066D02*
X176208695Y-127558542D01*
X176208695Y-127558542D02*
X176170600Y-127634733D01*
X176170600Y-127634733D02*
X176132504Y-127672828D01*
X176132504Y-127672828D02*
X176056314Y-127710923D01*
X176056314Y-127710923D02*
X175980123Y-127710923D01*
X175980123Y-127710923D02*
X175865838Y-127672828D01*
X175865838Y-127672828D02*
X175408695Y-127215685D01*
X175408695Y-127215685D02*
X175408695Y-127710923D01*
X175865838Y-128168066D02*
X175903933Y-128091876D01*
X175903933Y-128091876D02*
X175942028Y-128053781D01*
X175942028Y-128053781D02*
X176018219Y-128015685D01*
X176018219Y-128015685D02*
X176056314Y-128015685D01*
X176056314Y-128015685D02*
X176132504Y-128053781D01*
X176132504Y-128053781D02*
X176170600Y-128091876D01*
X176170600Y-128091876D02*
X176208695Y-128168066D01*
X176208695Y-128168066D02*
X176208695Y-128320447D01*
X176208695Y-128320447D02*
X176170600Y-128396638D01*
X176170600Y-128396638D02*
X176132504Y-128434733D01*
X176132504Y-128434733D02*
X176056314Y-128472828D01*
X176056314Y-128472828D02*
X176018219Y-128472828D01*
X176018219Y-128472828D02*
X175942028Y-128434733D01*
X175942028Y-128434733D02*
X175903933Y-128396638D01*
X175903933Y-128396638D02*
X175865838Y-128320447D01*
X175865838Y-128320447D02*
X175865838Y-128168066D01*
X175865838Y-128168066D02*
X175827742Y-128091876D01*
X175827742Y-128091876D02*
X175789647Y-128053781D01*
X175789647Y-128053781D02*
X175713457Y-128015685D01*
X175713457Y-128015685D02*
X175561076Y-128015685D01*
X175561076Y-128015685D02*
X175484885Y-128053781D01*
X175484885Y-128053781D02*
X175446790Y-128091876D01*
X175446790Y-128091876D02*
X175408695Y-128168066D01*
X175408695Y-128168066D02*
X175408695Y-128320447D01*
X175408695Y-128320447D02*
X175446790Y-128396638D01*
X175446790Y-128396638D02*
X175484885Y-128434733D01*
X175484885Y-128434733D02*
X175561076Y-128472828D01*
X175561076Y-128472828D02*
X175713457Y-128472828D01*
X175713457Y-128472828D02*
X175789647Y-128434733D01*
X175789647Y-128434733D02*
X175827742Y-128396638D01*
X175827742Y-128396638D02*
X175865838Y-128320447D01*
X177342895Y-79729800D02*
X177247657Y-79682180D01*
X177247657Y-79682180D02*
X177104800Y-79682180D01*
X177104800Y-79682180D02*
X176961943Y-79729800D01*
X176961943Y-79729800D02*
X176866705Y-79825038D01*
X176866705Y-79825038D02*
X176819086Y-79920276D01*
X176819086Y-79920276D02*
X176771467Y-80110752D01*
X176771467Y-80110752D02*
X176771467Y-80253609D01*
X176771467Y-80253609D02*
X176819086Y-80444085D01*
X176819086Y-80444085D02*
X176866705Y-80539323D01*
X176866705Y-80539323D02*
X176961943Y-80634561D01*
X176961943Y-80634561D02*
X177104800Y-80682180D01*
X177104800Y-80682180D02*
X177200038Y-80682180D01*
X177200038Y-80682180D02*
X177342895Y-80634561D01*
X177342895Y-80634561D02*
X177390514Y-80586942D01*
X177390514Y-80586942D02*
X177390514Y-80253609D01*
X177390514Y-80253609D02*
X177200038Y-80253609D01*
X177819086Y-80682180D02*
X177819086Y-79682180D01*
X177819086Y-79682180D02*
X178390514Y-80682180D01*
X178390514Y-80682180D02*
X178390514Y-79682180D01*
X178866705Y-80682180D02*
X178866705Y-79682180D01*
X178866705Y-79682180D02*
X179104800Y-79682180D01*
X179104800Y-79682180D02*
X179247657Y-79729800D01*
X179247657Y-79729800D02*
X179342895Y-79825038D01*
X179342895Y-79825038D02*
X179390514Y-79920276D01*
X179390514Y-79920276D02*
X179438133Y-80110752D01*
X179438133Y-80110752D02*
X179438133Y-80253609D01*
X179438133Y-80253609D02*
X179390514Y-80444085D01*
X179390514Y-80444085D02*
X179342895Y-80539323D01*
X179342895Y-80539323D02*
X179247657Y-80634561D01*
X179247657Y-80634561D02*
X179104800Y-80682180D01*
X179104800Y-80682180D02*
X178866705Y-80682180D01*
X245287723Y-130331200D02*
X245211533Y-130293104D01*
X245211533Y-130293104D02*
X245097247Y-130293104D01*
X245097247Y-130293104D02*
X244982961Y-130331200D01*
X244982961Y-130331200D02*
X244906771Y-130407390D01*
X244906771Y-130407390D02*
X244868676Y-130483580D01*
X244868676Y-130483580D02*
X244830580Y-130635961D01*
X244830580Y-130635961D02*
X244830580Y-130750247D01*
X244830580Y-130750247D02*
X244868676Y-130902628D01*
X244868676Y-130902628D02*
X244906771Y-130978819D01*
X244906771Y-130978819D02*
X244982961Y-131055009D01*
X244982961Y-131055009D02*
X245097247Y-131093104D01*
X245097247Y-131093104D02*
X245173438Y-131093104D01*
X245173438Y-131093104D02*
X245287723Y-131055009D01*
X245287723Y-131055009D02*
X245325819Y-131016914D01*
X245325819Y-131016914D02*
X245325819Y-130750247D01*
X245325819Y-130750247D02*
X245173438Y-130750247D01*
X245668676Y-131093104D02*
X245668676Y-130293104D01*
X245668676Y-130293104D02*
X245973438Y-130293104D01*
X245973438Y-130293104D02*
X246049628Y-130331200D01*
X246049628Y-130331200D02*
X246087723Y-130369295D01*
X246087723Y-130369295D02*
X246125819Y-130445485D01*
X246125819Y-130445485D02*
X246125819Y-130559771D01*
X246125819Y-130559771D02*
X246087723Y-130635961D01*
X246087723Y-130635961D02*
X246049628Y-130674057D01*
X246049628Y-130674057D02*
X245973438Y-130712152D01*
X245973438Y-130712152D02*
X245668676Y-130712152D01*
X246430580Y-130369295D02*
X246468676Y-130331200D01*
X246468676Y-130331200D02*
X246544866Y-130293104D01*
X246544866Y-130293104D02*
X246735342Y-130293104D01*
X246735342Y-130293104D02*
X246811533Y-130331200D01*
X246811533Y-130331200D02*
X246849628Y-130369295D01*
X246849628Y-130369295D02*
X246887723Y-130445485D01*
X246887723Y-130445485D02*
X246887723Y-130521676D01*
X246887723Y-130521676D02*
X246849628Y-130635961D01*
X246849628Y-130635961D02*
X246392485Y-131093104D01*
X246392485Y-131093104D02*
X246887723Y-131093104D01*
X247154390Y-130293104D02*
X247687724Y-130293104D01*
X247687724Y-130293104D02*
X247344866Y-131093104D01*
X223062733Y-114497000D02*
X222996066Y-114463666D01*
X222996066Y-114463666D02*
X222896066Y-114463666D01*
X222896066Y-114463666D02*
X222796066Y-114497000D01*
X222796066Y-114497000D02*
X222729400Y-114563666D01*
X222729400Y-114563666D02*
X222696066Y-114630333D01*
X222696066Y-114630333D02*
X222662733Y-114763666D01*
X222662733Y-114763666D02*
X222662733Y-114863666D01*
X222662733Y-114863666D02*
X222696066Y-114997000D01*
X222696066Y-114997000D02*
X222729400Y-115063666D01*
X222729400Y-115063666D02*
X222796066Y-115130333D01*
X222796066Y-115130333D02*
X222896066Y-115163666D01*
X222896066Y-115163666D02*
X222962733Y-115163666D01*
X222962733Y-115163666D02*
X223062733Y-115130333D01*
X223062733Y-115130333D02*
X223096066Y-115097000D01*
X223096066Y-115097000D02*
X223096066Y-114863666D01*
X223096066Y-114863666D02*
X222962733Y-114863666D01*
X223396066Y-115163666D02*
X223396066Y-114463666D01*
X223396066Y-114463666D02*
X223662733Y-114463666D01*
X223662733Y-114463666D02*
X223729400Y-114497000D01*
X223729400Y-114497000D02*
X223762733Y-114530333D01*
X223762733Y-114530333D02*
X223796066Y-114597000D01*
X223796066Y-114597000D02*
X223796066Y-114697000D01*
X223796066Y-114697000D02*
X223762733Y-114763666D01*
X223762733Y-114763666D02*
X223729400Y-114797000D01*
X223729400Y-114797000D02*
X223662733Y-114830333D01*
X223662733Y-114830333D02*
X223396066Y-114830333D01*
X199734000Y-147250476D02*
X199695904Y-147326666D01*
X199695904Y-147326666D02*
X199695904Y-147440952D01*
X199695904Y-147440952D02*
X199734000Y-147555238D01*
X199734000Y-147555238D02*
X199810190Y-147631428D01*
X199810190Y-147631428D02*
X199886380Y-147669523D01*
X199886380Y-147669523D02*
X200038761Y-147707619D01*
X200038761Y-147707619D02*
X200153047Y-147707619D01*
X200153047Y-147707619D02*
X200305428Y-147669523D01*
X200305428Y-147669523D02*
X200381619Y-147631428D01*
X200381619Y-147631428D02*
X200457809Y-147555238D01*
X200457809Y-147555238D02*
X200495904Y-147440952D01*
X200495904Y-147440952D02*
X200495904Y-147364761D01*
X200495904Y-147364761D02*
X200457809Y-147250476D01*
X200457809Y-147250476D02*
X200419714Y-147212380D01*
X200419714Y-147212380D02*
X200153047Y-147212380D01*
X200153047Y-147212380D02*
X200153047Y-147364761D01*
X200495904Y-146869523D02*
X199695904Y-146869523D01*
X199695904Y-146869523D02*
X199695904Y-146564761D01*
X199695904Y-146564761D02*
X199734000Y-146488571D01*
X199734000Y-146488571D02*
X199772095Y-146450476D01*
X199772095Y-146450476D02*
X199848285Y-146412380D01*
X199848285Y-146412380D02*
X199962571Y-146412380D01*
X199962571Y-146412380D02*
X200038761Y-146450476D01*
X200038761Y-146450476D02*
X200076857Y-146488571D01*
X200076857Y-146488571D02*
X200114952Y-146564761D01*
X200114952Y-146564761D02*
X200114952Y-146869523D01*
X199772095Y-146107619D02*
X199734000Y-146069523D01*
X199734000Y-146069523D02*
X199695904Y-145993333D01*
X199695904Y-145993333D02*
X199695904Y-145802857D01*
X199695904Y-145802857D02*
X199734000Y-145726666D01*
X199734000Y-145726666D02*
X199772095Y-145688571D01*
X199772095Y-145688571D02*
X199848285Y-145650476D01*
X199848285Y-145650476D02*
X199924476Y-145650476D01*
X199924476Y-145650476D02*
X200038761Y-145688571D01*
X200038761Y-145688571D02*
X200495904Y-146145714D01*
X200495904Y-146145714D02*
X200495904Y-145650476D01*
X243738323Y-116310304D02*
X243281180Y-116310304D01*
X243509752Y-116310304D02*
X243509752Y-115510304D01*
X243509752Y-115510304D02*
X243433561Y-115624590D01*
X243433561Y-115624590D02*
X243357371Y-115700780D01*
X243357371Y-115700780D02*
X243281180Y-115738876D01*
X244195466Y-115853161D02*
X244119276Y-115815066D01*
X244119276Y-115815066D02*
X244081181Y-115776971D01*
X244081181Y-115776971D02*
X244043085Y-115700780D01*
X244043085Y-115700780D02*
X244043085Y-115662685D01*
X244043085Y-115662685D02*
X244081181Y-115586495D01*
X244081181Y-115586495D02*
X244119276Y-115548400D01*
X244119276Y-115548400D02*
X244195466Y-115510304D01*
X244195466Y-115510304D02*
X244347847Y-115510304D01*
X244347847Y-115510304D02*
X244424038Y-115548400D01*
X244424038Y-115548400D02*
X244462133Y-115586495D01*
X244462133Y-115586495D02*
X244500228Y-115662685D01*
X244500228Y-115662685D02*
X244500228Y-115700780D01*
X244500228Y-115700780D02*
X244462133Y-115776971D01*
X244462133Y-115776971D02*
X244424038Y-115815066D01*
X244424038Y-115815066D02*
X244347847Y-115853161D01*
X244347847Y-115853161D02*
X244195466Y-115853161D01*
X244195466Y-115853161D02*
X244119276Y-115891257D01*
X244119276Y-115891257D02*
X244081181Y-115929352D01*
X244081181Y-115929352D02*
X244043085Y-116005542D01*
X244043085Y-116005542D02*
X244043085Y-116157923D01*
X244043085Y-116157923D02*
X244081181Y-116234114D01*
X244081181Y-116234114D02*
X244119276Y-116272209D01*
X244119276Y-116272209D02*
X244195466Y-116310304D01*
X244195466Y-116310304D02*
X244347847Y-116310304D01*
X244347847Y-116310304D02*
X244424038Y-116272209D01*
X244424038Y-116272209D02*
X244462133Y-116234114D01*
X244462133Y-116234114D02*
X244500228Y-116157923D01*
X244500228Y-116157923D02*
X244500228Y-116005542D01*
X244500228Y-116005542D02*
X244462133Y-115929352D01*
X244462133Y-115929352D02*
X244424038Y-115891257D01*
X244424038Y-115891257D02*
X244347847Y-115853161D01*
X235404000Y-147050476D02*
X235365904Y-147126666D01*
X235365904Y-147126666D02*
X235365904Y-147240952D01*
X235365904Y-147240952D02*
X235404000Y-147355238D01*
X235404000Y-147355238D02*
X235480190Y-147431428D01*
X235480190Y-147431428D02*
X235556380Y-147469523D01*
X235556380Y-147469523D02*
X235708761Y-147507619D01*
X235708761Y-147507619D02*
X235823047Y-147507619D01*
X235823047Y-147507619D02*
X235975428Y-147469523D01*
X235975428Y-147469523D02*
X236051619Y-147431428D01*
X236051619Y-147431428D02*
X236127809Y-147355238D01*
X236127809Y-147355238D02*
X236165904Y-147240952D01*
X236165904Y-147240952D02*
X236165904Y-147164761D01*
X236165904Y-147164761D02*
X236127809Y-147050476D01*
X236127809Y-147050476D02*
X236089714Y-147012380D01*
X236089714Y-147012380D02*
X235823047Y-147012380D01*
X235823047Y-147012380D02*
X235823047Y-147164761D01*
X236165904Y-146669523D02*
X235365904Y-146669523D01*
X235365904Y-146669523D02*
X236165904Y-146212380D01*
X236165904Y-146212380D02*
X235365904Y-146212380D01*
X236165904Y-145831428D02*
X235365904Y-145831428D01*
X235365904Y-145831428D02*
X235365904Y-145640952D01*
X235365904Y-145640952D02*
X235404000Y-145526666D01*
X235404000Y-145526666D02*
X235480190Y-145450476D01*
X235480190Y-145450476D02*
X235556380Y-145412381D01*
X235556380Y-145412381D02*
X235708761Y-145374285D01*
X235708761Y-145374285D02*
X235823047Y-145374285D01*
X235823047Y-145374285D02*
X235975428Y-145412381D01*
X235975428Y-145412381D02*
X236051619Y-145450476D01*
X236051619Y-145450476D02*
X236127809Y-145526666D01*
X236127809Y-145526666D02*
X236165904Y-145640952D01*
X236165904Y-145640952D02*
X236165904Y-145831428D01*
X222045200Y-108935466D02*
X222478533Y-108935466D01*
X222478533Y-108935466D02*
X222245200Y-109202133D01*
X222245200Y-109202133D02*
X222345200Y-109202133D01*
X222345200Y-109202133D02*
X222411866Y-109235466D01*
X222411866Y-109235466D02*
X222445200Y-109268800D01*
X222445200Y-109268800D02*
X222478533Y-109335466D01*
X222478533Y-109335466D02*
X222478533Y-109502133D01*
X222478533Y-109502133D02*
X222445200Y-109568800D01*
X222445200Y-109568800D02*
X222411866Y-109602133D01*
X222411866Y-109602133D02*
X222345200Y-109635466D01*
X222345200Y-109635466D02*
X222145200Y-109635466D01*
X222145200Y-109635466D02*
X222078533Y-109602133D01*
X222078533Y-109602133D02*
X222045200Y-109568800D01*
X222678533Y-108935466D02*
X222911867Y-109635466D01*
X222911867Y-109635466D02*
X223145200Y-108935466D01*
X223311867Y-108935466D02*
X223745200Y-108935466D01*
X223745200Y-108935466D02*
X223511867Y-109202133D01*
X223511867Y-109202133D02*
X223611867Y-109202133D01*
X223611867Y-109202133D02*
X223678533Y-109235466D01*
X223678533Y-109235466D02*
X223711867Y-109268800D01*
X223711867Y-109268800D02*
X223745200Y-109335466D01*
X223745200Y-109335466D02*
X223745200Y-109502133D01*
X223745200Y-109502133D02*
X223711867Y-109568800D01*
X223711867Y-109568800D02*
X223678533Y-109602133D01*
X223678533Y-109602133D02*
X223611867Y-109635466D01*
X223611867Y-109635466D02*
X223411867Y-109635466D01*
X223411867Y-109635466D02*
X223345200Y-109602133D01*
X223345200Y-109602133D02*
X223311867Y-109568800D01*
X222245200Y-110069466D02*
X222378533Y-110069466D01*
X222378533Y-110069466D02*
X222445200Y-110102800D01*
X222445200Y-110102800D02*
X222511866Y-110169466D01*
X222511866Y-110169466D02*
X222545200Y-110302800D01*
X222545200Y-110302800D02*
X222545200Y-110536133D01*
X222545200Y-110536133D02*
X222511866Y-110669466D01*
X222511866Y-110669466D02*
X222445200Y-110736133D01*
X222445200Y-110736133D02*
X222378533Y-110769466D01*
X222378533Y-110769466D02*
X222245200Y-110769466D01*
X222245200Y-110769466D02*
X222178533Y-110736133D01*
X222178533Y-110736133D02*
X222111866Y-110669466D01*
X222111866Y-110669466D02*
X222078533Y-110536133D01*
X222078533Y-110536133D02*
X222078533Y-110302800D01*
X222078533Y-110302800D02*
X222111866Y-110169466D01*
X222111866Y-110169466D02*
X222178533Y-110102800D01*
X222178533Y-110102800D02*
X222245200Y-110069466D01*
X222845199Y-110069466D02*
X222845199Y-110636133D01*
X222845199Y-110636133D02*
X222878533Y-110702800D01*
X222878533Y-110702800D02*
X222911866Y-110736133D01*
X222911866Y-110736133D02*
X222978533Y-110769466D01*
X222978533Y-110769466D02*
X223111866Y-110769466D01*
X223111866Y-110769466D02*
X223178533Y-110736133D01*
X223178533Y-110736133D02*
X223211866Y-110702800D01*
X223211866Y-110702800D02*
X223245199Y-110636133D01*
X223245199Y-110636133D02*
X223245199Y-110069466D01*
X223478532Y-110069466D02*
X223878532Y-110069466D01*
X223678532Y-110769466D02*
X223678532Y-110069466D01*
X232744000Y-147610476D02*
X232705904Y-147686666D01*
X232705904Y-147686666D02*
X232705904Y-147800952D01*
X232705904Y-147800952D02*
X232744000Y-147915238D01*
X232744000Y-147915238D02*
X232820190Y-147991428D01*
X232820190Y-147991428D02*
X232896380Y-148029523D01*
X232896380Y-148029523D02*
X233048761Y-148067619D01*
X233048761Y-148067619D02*
X233163047Y-148067619D01*
X233163047Y-148067619D02*
X233315428Y-148029523D01*
X233315428Y-148029523D02*
X233391619Y-147991428D01*
X233391619Y-147991428D02*
X233467809Y-147915238D01*
X233467809Y-147915238D02*
X233505904Y-147800952D01*
X233505904Y-147800952D02*
X233505904Y-147724761D01*
X233505904Y-147724761D02*
X233467809Y-147610476D01*
X233467809Y-147610476D02*
X233429714Y-147572380D01*
X233429714Y-147572380D02*
X233163047Y-147572380D01*
X233163047Y-147572380D02*
X233163047Y-147724761D01*
X233505904Y-147229523D02*
X232705904Y-147229523D01*
X232705904Y-147229523D02*
X232705904Y-146924761D01*
X232705904Y-146924761D02*
X232744000Y-146848571D01*
X232744000Y-146848571D02*
X232782095Y-146810476D01*
X232782095Y-146810476D02*
X232858285Y-146772380D01*
X232858285Y-146772380D02*
X232972571Y-146772380D01*
X232972571Y-146772380D02*
X233048761Y-146810476D01*
X233048761Y-146810476D02*
X233086857Y-146848571D01*
X233086857Y-146848571D02*
X233124952Y-146924761D01*
X233124952Y-146924761D02*
X233124952Y-147229523D01*
X233505904Y-146010476D02*
X233505904Y-146467619D01*
X233505904Y-146239047D02*
X232705904Y-146239047D01*
X232705904Y-146239047D02*
X232820190Y-146315238D01*
X232820190Y-146315238D02*
X232896380Y-146391428D01*
X232896380Y-146391428D02*
X232934476Y-146467619D01*
X232705904Y-145286666D02*
X232705904Y-145667618D01*
X232705904Y-145667618D02*
X233086857Y-145705714D01*
X233086857Y-145705714D02*
X233048761Y-145667618D01*
X233048761Y-145667618D02*
X233010666Y-145591428D01*
X233010666Y-145591428D02*
X233010666Y-145400952D01*
X233010666Y-145400952D02*
X233048761Y-145324761D01*
X233048761Y-145324761D02*
X233086857Y-145286666D01*
X233086857Y-145286666D02*
X233163047Y-145248571D01*
X233163047Y-145248571D02*
X233353523Y-145248571D01*
X233353523Y-145248571D02*
X233429714Y-145286666D01*
X233429714Y-145286666D02*
X233467809Y-145324761D01*
X233467809Y-145324761D02*
X233505904Y-145400952D01*
X233505904Y-145400952D02*
X233505904Y-145591428D01*
X233505904Y-145591428D02*
X233467809Y-145667618D01*
X233467809Y-145667618D02*
X233429714Y-145705714D01*
X246841000Y-116357476D02*
X246802904Y-116433666D01*
X246802904Y-116433666D02*
X246802904Y-116547952D01*
X246802904Y-116547952D02*
X246841000Y-116662238D01*
X246841000Y-116662238D02*
X246917190Y-116738428D01*
X246917190Y-116738428D02*
X246993380Y-116776523D01*
X246993380Y-116776523D02*
X247145761Y-116814619D01*
X247145761Y-116814619D02*
X247260047Y-116814619D01*
X247260047Y-116814619D02*
X247412428Y-116776523D01*
X247412428Y-116776523D02*
X247488619Y-116738428D01*
X247488619Y-116738428D02*
X247564809Y-116662238D01*
X247564809Y-116662238D02*
X247602904Y-116547952D01*
X247602904Y-116547952D02*
X247602904Y-116471761D01*
X247602904Y-116471761D02*
X247564809Y-116357476D01*
X247564809Y-116357476D02*
X247526714Y-116319380D01*
X247526714Y-116319380D02*
X247260047Y-116319380D01*
X247260047Y-116319380D02*
X247260047Y-116471761D01*
X247602904Y-115976523D02*
X246802904Y-115976523D01*
X246802904Y-115976523D02*
X247602904Y-115519380D01*
X247602904Y-115519380D02*
X246802904Y-115519380D01*
X247602904Y-115138428D02*
X246802904Y-115138428D01*
X246802904Y-115138428D02*
X246802904Y-114947952D01*
X246802904Y-114947952D02*
X246841000Y-114833666D01*
X246841000Y-114833666D02*
X246917190Y-114757476D01*
X246917190Y-114757476D02*
X246993380Y-114719381D01*
X246993380Y-114719381D02*
X247145761Y-114681285D01*
X247145761Y-114681285D02*
X247260047Y-114681285D01*
X247260047Y-114681285D02*
X247412428Y-114719381D01*
X247412428Y-114719381D02*
X247488619Y-114757476D01*
X247488619Y-114757476D02*
X247564809Y-114833666D01*
X247564809Y-114833666D02*
X247602904Y-114947952D01*
X247602904Y-114947952D02*
X247602904Y-115138428D01*
X204814000Y-147370476D02*
X204775904Y-147446666D01*
X204775904Y-147446666D02*
X204775904Y-147560952D01*
X204775904Y-147560952D02*
X204814000Y-147675238D01*
X204814000Y-147675238D02*
X204890190Y-147751428D01*
X204890190Y-147751428D02*
X204966380Y-147789523D01*
X204966380Y-147789523D02*
X205118761Y-147827619D01*
X205118761Y-147827619D02*
X205233047Y-147827619D01*
X205233047Y-147827619D02*
X205385428Y-147789523D01*
X205385428Y-147789523D02*
X205461619Y-147751428D01*
X205461619Y-147751428D02*
X205537809Y-147675238D01*
X205537809Y-147675238D02*
X205575904Y-147560952D01*
X205575904Y-147560952D02*
X205575904Y-147484761D01*
X205575904Y-147484761D02*
X205537809Y-147370476D01*
X205537809Y-147370476D02*
X205499714Y-147332380D01*
X205499714Y-147332380D02*
X205233047Y-147332380D01*
X205233047Y-147332380D02*
X205233047Y-147484761D01*
X205575904Y-146989523D02*
X204775904Y-146989523D01*
X204775904Y-146989523D02*
X204775904Y-146684761D01*
X204775904Y-146684761D02*
X204814000Y-146608571D01*
X204814000Y-146608571D02*
X204852095Y-146570476D01*
X204852095Y-146570476D02*
X204928285Y-146532380D01*
X204928285Y-146532380D02*
X205042571Y-146532380D01*
X205042571Y-146532380D02*
X205118761Y-146570476D01*
X205118761Y-146570476D02*
X205156857Y-146608571D01*
X205156857Y-146608571D02*
X205194952Y-146684761D01*
X205194952Y-146684761D02*
X205194952Y-146989523D01*
X205042571Y-145846666D02*
X205575904Y-145846666D01*
X204737809Y-146037142D02*
X205309238Y-146227619D01*
X205309238Y-146227619D02*
X205309238Y-145732380D01*
X240670466Y-95349771D02*
X240670466Y-94873581D01*
X240956180Y-95445009D02*
X239956180Y-95111676D01*
X239956180Y-95111676D02*
X240956180Y-94778343D01*
X240860942Y-93873581D02*
X240908561Y-93921200D01*
X240908561Y-93921200D02*
X240956180Y-94064057D01*
X240956180Y-94064057D02*
X240956180Y-94159295D01*
X240956180Y-94159295D02*
X240908561Y-94302152D01*
X240908561Y-94302152D02*
X240813323Y-94397390D01*
X240813323Y-94397390D02*
X240718085Y-94445009D01*
X240718085Y-94445009D02*
X240527609Y-94492628D01*
X240527609Y-94492628D02*
X240384752Y-94492628D01*
X240384752Y-94492628D02*
X240194276Y-94445009D01*
X240194276Y-94445009D02*
X240099038Y-94397390D01*
X240099038Y-94397390D02*
X240003800Y-94302152D01*
X240003800Y-94302152D02*
X239956180Y-94159295D01*
X239956180Y-94159295D02*
X239956180Y-94064057D01*
X239956180Y-94064057D02*
X240003800Y-93921200D01*
X240003800Y-93921200D02*
X240051419Y-93873581D01*
X241337133Y-93159295D02*
X241289514Y-93206914D01*
X241289514Y-93206914D02*
X241146657Y-93302152D01*
X241146657Y-93302152D02*
X241051419Y-93349771D01*
X241051419Y-93349771D02*
X240908561Y-93397390D01*
X240908561Y-93397390D02*
X240670466Y-93445009D01*
X240670466Y-93445009D02*
X240479990Y-93445009D01*
X240479990Y-93445009D02*
X240241895Y-93397390D01*
X240241895Y-93397390D02*
X240099038Y-93349771D01*
X240099038Y-93349771D02*
X240003800Y-93302152D01*
X240003800Y-93302152D02*
X239860942Y-93206914D01*
X239860942Y-93206914D02*
X239813323Y-93159295D01*
X240956180Y-92778342D02*
X239956180Y-92778342D01*
X239956180Y-92778342D02*
X240956180Y-92206914D01*
X240956180Y-92206914D02*
X239956180Y-92206914D01*
X241337133Y-91825961D02*
X241289514Y-91778342D01*
X241289514Y-91778342D02*
X241146657Y-91683104D01*
X241146657Y-91683104D02*
X241051419Y-91635485D01*
X241051419Y-91635485D02*
X240908561Y-91587866D01*
X240908561Y-91587866D02*
X240670466Y-91540247D01*
X240670466Y-91540247D02*
X240479990Y-91540247D01*
X240479990Y-91540247D02*
X240241895Y-91587866D01*
X240241895Y-91587866D02*
X240099038Y-91635485D01*
X240099038Y-91635485D02*
X240003800Y-91683104D01*
X240003800Y-91683104D02*
X239860942Y-91778342D01*
X239860942Y-91778342D02*
X239813323Y-91825961D01*
X240543466Y-83699123D02*
X240543466Y-83222933D01*
X240829180Y-83794361D02*
X239829180Y-83461028D01*
X239829180Y-83461028D02*
X240829180Y-83127695D01*
X240733942Y-82222933D02*
X240781561Y-82270552D01*
X240781561Y-82270552D02*
X240829180Y-82413409D01*
X240829180Y-82413409D02*
X240829180Y-82508647D01*
X240829180Y-82508647D02*
X240781561Y-82651504D01*
X240781561Y-82651504D02*
X240686323Y-82746742D01*
X240686323Y-82746742D02*
X240591085Y-82794361D01*
X240591085Y-82794361D02*
X240400609Y-82841980D01*
X240400609Y-82841980D02*
X240257752Y-82841980D01*
X240257752Y-82841980D02*
X240067276Y-82794361D01*
X240067276Y-82794361D02*
X239972038Y-82746742D01*
X239972038Y-82746742D02*
X239876800Y-82651504D01*
X239876800Y-82651504D02*
X239829180Y-82508647D01*
X239829180Y-82508647D02*
X239829180Y-82413409D01*
X239829180Y-82413409D02*
X239876800Y-82270552D01*
X239876800Y-82270552D02*
X239924419Y-82222933D01*
X241210133Y-81508647D02*
X241162514Y-81556266D01*
X241162514Y-81556266D02*
X241019657Y-81651504D01*
X241019657Y-81651504D02*
X240924419Y-81699123D01*
X240924419Y-81699123D02*
X240781561Y-81746742D01*
X240781561Y-81746742D02*
X240543466Y-81794361D01*
X240543466Y-81794361D02*
X240352990Y-81794361D01*
X240352990Y-81794361D02*
X240114895Y-81746742D01*
X240114895Y-81746742D02*
X239972038Y-81699123D01*
X239972038Y-81699123D02*
X239876800Y-81651504D01*
X239876800Y-81651504D02*
X239733942Y-81556266D01*
X239733942Y-81556266D02*
X239686323Y-81508647D01*
X240829180Y-80651504D02*
X240829180Y-81127694D01*
X240829180Y-81127694D02*
X239829180Y-81127694D01*
X241210133Y-80413408D02*
X241162514Y-80365789D01*
X241162514Y-80365789D02*
X241019657Y-80270551D01*
X241019657Y-80270551D02*
X240924419Y-80222932D01*
X240924419Y-80222932D02*
X240781561Y-80175313D01*
X240781561Y-80175313D02*
X240543466Y-80127694D01*
X240543466Y-80127694D02*
X240352990Y-80127694D01*
X240352990Y-80127694D02*
X240114895Y-80175313D01*
X240114895Y-80175313D02*
X239972038Y-80222932D01*
X239972038Y-80222932D02*
X239876800Y-80270551D01*
X239876800Y-80270551D02*
X239733942Y-80365789D01*
X239733942Y-80365789D02*
X239686323Y-80413408D01*
X180124971Y-91973448D02*
X180124971Y-92735353D01*
X225114000Y-147650476D02*
X225075904Y-147726666D01*
X225075904Y-147726666D02*
X225075904Y-147840952D01*
X225075904Y-147840952D02*
X225114000Y-147955238D01*
X225114000Y-147955238D02*
X225190190Y-148031428D01*
X225190190Y-148031428D02*
X225266380Y-148069523D01*
X225266380Y-148069523D02*
X225418761Y-148107619D01*
X225418761Y-148107619D02*
X225533047Y-148107619D01*
X225533047Y-148107619D02*
X225685428Y-148069523D01*
X225685428Y-148069523D02*
X225761619Y-148031428D01*
X225761619Y-148031428D02*
X225837809Y-147955238D01*
X225837809Y-147955238D02*
X225875904Y-147840952D01*
X225875904Y-147840952D02*
X225875904Y-147764761D01*
X225875904Y-147764761D02*
X225837809Y-147650476D01*
X225837809Y-147650476D02*
X225799714Y-147612380D01*
X225799714Y-147612380D02*
X225533047Y-147612380D01*
X225533047Y-147612380D02*
X225533047Y-147764761D01*
X225875904Y-147269523D02*
X225075904Y-147269523D01*
X225075904Y-147269523D02*
X225075904Y-146964761D01*
X225075904Y-146964761D02*
X225114000Y-146888571D01*
X225114000Y-146888571D02*
X225152095Y-146850476D01*
X225152095Y-146850476D02*
X225228285Y-146812380D01*
X225228285Y-146812380D02*
X225342571Y-146812380D01*
X225342571Y-146812380D02*
X225418761Y-146850476D01*
X225418761Y-146850476D02*
X225456857Y-146888571D01*
X225456857Y-146888571D02*
X225494952Y-146964761D01*
X225494952Y-146964761D02*
X225494952Y-147269523D01*
X225875904Y-146050476D02*
X225875904Y-146507619D01*
X225875904Y-146279047D02*
X225075904Y-146279047D01*
X225075904Y-146279047D02*
X225190190Y-146355238D01*
X225190190Y-146355238D02*
X225266380Y-146431428D01*
X225266380Y-146431428D02*
X225304476Y-146507619D01*
X225152095Y-145745714D02*
X225114000Y-145707618D01*
X225114000Y-145707618D02*
X225075904Y-145631428D01*
X225075904Y-145631428D02*
X225075904Y-145440952D01*
X225075904Y-145440952D02*
X225114000Y-145364761D01*
X225114000Y-145364761D02*
X225152095Y-145326666D01*
X225152095Y-145326666D02*
X225228285Y-145288571D01*
X225228285Y-145288571D02*
X225304476Y-145288571D01*
X225304476Y-145288571D02*
X225418761Y-145326666D01*
X225418761Y-145326666D02*
X225875904Y-145783809D01*
X225875904Y-145783809D02*
X225875904Y-145288571D01*
X219964000Y-147640476D02*
X219925904Y-147716666D01*
X219925904Y-147716666D02*
X219925904Y-147830952D01*
X219925904Y-147830952D02*
X219964000Y-147945238D01*
X219964000Y-147945238D02*
X220040190Y-148021428D01*
X220040190Y-148021428D02*
X220116380Y-148059523D01*
X220116380Y-148059523D02*
X220268761Y-148097619D01*
X220268761Y-148097619D02*
X220383047Y-148097619D01*
X220383047Y-148097619D02*
X220535428Y-148059523D01*
X220535428Y-148059523D02*
X220611619Y-148021428D01*
X220611619Y-148021428D02*
X220687809Y-147945238D01*
X220687809Y-147945238D02*
X220725904Y-147830952D01*
X220725904Y-147830952D02*
X220725904Y-147754761D01*
X220725904Y-147754761D02*
X220687809Y-147640476D01*
X220687809Y-147640476D02*
X220649714Y-147602380D01*
X220649714Y-147602380D02*
X220383047Y-147602380D01*
X220383047Y-147602380D02*
X220383047Y-147754761D01*
X220725904Y-147259523D02*
X219925904Y-147259523D01*
X219925904Y-147259523D02*
X219925904Y-146954761D01*
X219925904Y-146954761D02*
X219964000Y-146878571D01*
X219964000Y-146878571D02*
X220002095Y-146840476D01*
X220002095Y-146840476D02*
X220078285Y-146802380D01*
X220078285Y-146802380D02*
X220192571Y-146802380D01*
X220192571Y-146802380D02*
X220268761Y-146840476D01*
X220268761Y-146840476D02*
X220306857Y-146878571D01*
X220306857Y-146878571D02*
X220344952Y-146954761D01*
X220344952Y-146954761D02*
X220344952Y-147259523D01*
X220725904Y-146040476D02*
X220725904Y-146497619D01*
X220725904Y-146269047D02*
X219925904Y-146269047D01*
X219925904Y-146269047D02*
X220040190Y-146345238D01*
X220040190Y-146345238D02*
X220116380Y-146421428D01*
X220116380Y-146421428D02*
X220154476Y-146497619D01*
X219925904Y-145545237D02*
X219925904Y-145469047D01*
X219925904Y-145469047D02*
X219964000Y-145392856D01*
X219964000Y-145392856D02*
X220002095Y-145354761D01*
X220002095Y-145354761D02*
X220078285Y-145316666D01*
X220078285Y-145316666D02*
X220230666Y-145278571D01*
X220230666Y-145278571D02*
X220421142Y-145278571D01*
X220421142Y-145278571D02*
X220573523Y-145316666D01*
X220573523Y-145316666D02*
X220649714Y-145354761D01*
X220649714Y-145354761D02*
X220687809Y-145392856D01*
X220687809Y-145392856D02*
X220725904Y-145469047D01*
X220725904Y-145469047D02*
X220725904Y-145545237D01*
X220725904Y-145545237D02*
X220687809Y-145621428D01*
X220687809Y-145621428D02*
X220649714Y-145659523D01*
X220649714Y-145659523D02*
X220573523Y-145697618D01*
X220573523Y-145697618D02*
X220421142Y-145735714D01*
X220421142Y-145735714D02*
X220230666Y-145735714D01*
X220230666Y-145735714D02*
X220078285Y-145697618D01*
X220078285Y-145697618D02*
X220002095Y-145659523D01*
X220002095Y-145659523D02*
X219964000Y-145621428D01*
X219964000Y-145621428D02*
X219925904Y-145545237D01*
X245236923Y-128096000D02*
X245160733Y-128057904D01*
X245160733Y-128057904D02*
X245046447Y-128057904D01*
X245046447Y-128057904D02*
X244932161Y-128096000D01*
X244932161Y-128096000D02*
X244855971Y-128172190D01*
X244855971Y-128172190D02*
X244817876Y-128248380D01*
X244817876Y-128248380D02*
X244779780Y-128400761D01*
X244779780Y-128400761D02*
X244779780Y-128515047D01*
X244779780Y-128515047D02*
X244817876Y-128667428D01*
X244817876Y-128667428D02*
X244855971Y-128743619D01*
X244855971Y-128743619D02*
X244932161Y-128819809D01*
X244932161Y-128819809D02*
X245046447Y-128857904D01*
X245046447Y-128857904D02*
X245122638Y-128857904D01*
X245122638Y-128857904D02*
X245236923Y-128819809D01*
X245236923Y-128819809D02*
X245275019Y-128781714D01*
X245275019Y-128781714D02*
X245275019Y-128515047D01*
X245275019Y-128515047D02*
X245122638Y-128515047D01*
X245617876Y-128857904D02*
X245617876Y-128057904D01*
X245617876Y-128057904D02*
X245922638Y-128057904D01*
X245922638Y-128057904D02*
X245998828Y-128096000D01*
X245998828Y-128096000D02*
X246036923Y-128134095D01*
X246036923Y-128134095D02*
X246075019Y-128210285D01*
X246075019Y-128210285D02*
X246075019Y-128324571D01*
X246075019Y-128324571D02*
X246036923Y-128400761D01*
X246036923Y-128400761D02*
X245998828Y-128438857D01*
X245998828Y-128438857D02*
X245922638Y-128476952D01*
X245922638Y-128476952D02*
X245617876Y-128476952D01*
X246379780Y-128134095D02*
X246417876Y-128096000D01*
X246417876Y-128096000D02*
X246494066Y-128057904D01*
X246494066Y-128057904D02*
X246684542Y-128057904D01*
X246684542Y-128057904D02*
X246760733Y-128096000D01*
X246760733Y-128096000D02*
X246798828Y-128134095D01*
X246798828Y-128134095D02*
X246836923Y-128210285D01*
X246836923Y-128210285D02*
X246836923Y-128286476D01*
X246836923Y-128286476D02*
X246798828Y-128400761D01*
X246798828Y-128400761D02*
X246341685Y-128857904D01*
X246341685Y-128857904D02*
X246836923Y-128857904D01*
X247522638Y-128057904D02*
X247370257Y-128057904D01*
X247370257Y-128057904D02*
X247294066Y-128096000D01*
X247294066Y-128096000D02*
X247255971Y-128134095D01*
X247255971Y-128134095D02*
X247179781Y-128248380D01*
X247179781Y-128248380D02*
X247141685Y-128400761D01*
X247141685Y-128400761D02*
X247141685Y-128705523D01*
X247141685Y-128705523D02*
X247179781Y-128781714D01*
X247179781Y-128781714D02*
X247217876Y-128819809D01*
X247217876Y-128819809D02*
X247294066Y-128857904D01*
X247294066Y-128857904D02*
X247446447Y-128857904D01*
X247446447Y-128857904D02*
X247522638Y-128819809D01*
X247522638Y-128819809D02*
X247560733Y-128781714D01*
X247560733Y-128781714D02*
X247598828Y-128705523D01*
X247598828Y-128705523D02*
X247598828Y-128515047D01*
X247598828Y-128515047D02*
X247560733Y-128438857D01*
X247560733Y-128438857D02*
X247522638Y-128400761D01*
X247522638Y-128400761D02*
X247446447Y-128362666D01*
X247446447Y-128362666D02*
X247294066Y-128362666D01*
X247294066Y-128362666D02*
X247217876Y-128400761D01*
X247217876Y-128400761D02*
X247179781Y-128438857D01*
X247179781Y-128438857D02*
X247141685Y-128515047D01*
X245998923Y-142955000D02*
X245922733Y-142916904D01*
X245922733Y-142916904D02*
X245808447Y-142916904D01*
X245808447Y-142916904D02*
X245694161Y-142955000D01*
X245694161Y-142955000D02*
X245617971Y-143031190D01*
X245617971Y-143031190D02*
X245579876Y-143107380D01*
X245579876Y-143107380D02*
X245541780Y-143259761D01*
X245541780Y-143259761D02*
X245541780Y-143374047D01*
X245541780Y-143374047D02*
X245579876Y-143526428D01*
X245579876Y-143526428D02*
X245617971Y-143602619D01*
X245617971Y-143602619D02*
X245694161Y-143678809D01*
X245694161Y-143678809D02*
X245808447Y-143716904D01*
X245808447Y-143716904D02*
X245884638Y-143716904D01*
X245884638Y-143716904D02*
X245998923Y-143678809D01*
X245998923Y-143678809D02*
X246037019Y-143640714D01*
X246037019Y-143640714D02*
X246037019Y-143374047D01*
X246037019Y-143374047D02*
X245884638Y-143374047D01*
X246379876Y-143716904D02*
X246379876Y-142916904D01*
X246379876Y-142916904D02*
X246837019Y-143716904D01*
X246837019Y-143716904D02*
X246837019Y-142916904D01*
X247217971Y-143716904D02*
X247217971Y-142916904D01*
X247217971Y-142916904D02*
X247408447Y-142916904D01*
X247408447Y-142916904D02*
X247522733Y-142955000D01*
X247522733Y-142955000D02*
X247598923Y-143031190D01*
X247598923Y-143031190D02*
X247637018Y-143107380D01*
X247637018Y-143107380D02*
X247675114Y-143259761D01*
X247675114Y-143259761D02*
X247675114Y-143374047D01*
X247675114Y-143374047D02*
X247637018Y-143526428D01*
X247637018Y-143526428D02*
X247598923Y-143602619D01*
X247598923Y-143602619D02*
X247522733Y-143678809D01*
X247522733Y-143678809D02*
X247408447Y-143716904D01*
X247408447Y-143716904D02*
X247217971Y-143716904D01*
X178199000Y-117203333D02*
X178232333Y-117136666D01*
X178232333Y-117136666D02*
X178232333Y-117036666D01*
X178232333Y-117036666D02*
X178199000Y-116936666D01*
X178199000Y-116936666D02*
X178132333Y-116870000D01*
X178132333Y-116870000D02*
X178065666Y-116836666D01*
X178065666Y-116836666D02*
X177932333Y-116803333D01*
X177932333Y-116803333D02*
X177832333Y-116803333D01*
X177832333Y-116803333D02*
X177699000Y-116836666D01*
X177699000Y-116836666D02*
X177632333Y-116870000D01*
X177632333Y-116870000D02*
X177565666Y-116936666D01*
X177565666Y-116936666D02*
X177532333Y-117036666D01*
X177532333Y-117036666D02*
X177532333Y-117103333D01*
X177532333Y-117103333D02*
X177565666Y-117203333D01*
X177565666Y-117203333D02*
X177599000Y-117236666D01*
X177599000Y-117236666D02*
X177832333Y-117236666D01*
X177832333Y-117236666D02*
X177832333Y-117103333D01*
X177532333Y-117536666D02*
X178232333Y-117536666D01*
X178232333Y-117536666D02*
X177532333Y-117936666D01*
X177532333Y-117936666D02*
X178232333Y-117936666D01*
X177532333Y-118269999D02*
X178232333Y-118269999D01*
X178232333Y-118269999D02*
X178232333Y-118436666D01*
X178232333Y-118436666D02*
X178199000Y-118536666D01*
X178199000Y-118536666D02*
X178132333Y-118603333D01*
X178132333Y-118603333D02*
X178065666Y-118636666D01*
X178065666Y-118636666D02*
X177932333Y-118669999D01*
X177932333Y-118669999D02*
X177832333Y-118669999D01*
X177832333Y-118669999D02*
X177699000Y-118636666D01*
X177699000Y-118636666D02*
X177632333Y-118603333D01*
X177632333Y-118603333D02*
X177565666Y-118536666D01*
X177565666Y-118536666D02*
X177532333Y-118436666D01*
X177532333Y-118436666D02*
X177532333Y-118269999D01*
X244866190Y-140503904D02*
X245132857Y-141303904D01*
X245132857Y-141303904D02*
X245399523Y-140503904D01*
X245932856Y-140884857D02*
X246047142Y-140922952D01*
X246047142Y-140922952D02*
X246085237Y-140961047D01*
X246085237Y-140961047D02*
X246123333Y-141037238D01*
X246123333Y-141037238D02*
X246123333Y-141151523D01*
X246123333Y-141151523D02*
X246085237Y-141227714D01*
X246085237Y-141227714D02*
X246047142Y-141265809D01*
X246047142Y-141265809D02*
X245970952Y-141303904D01*
X245970952Y-141303904D02*
X245666190Y-141303904D01*
X245666190Y-141303904D02*
X245666190Y-140503904D01*
X245666190Y-140503904D02*
X245932856Y-140503904D01*
X245932856Y-140503904D02*
X246009047Y-140542000D01*
X246009047Y-140542000D02*
X246047142Y-140580095D01*
X246047142Y-140580095D02*
X246085237Y-140656285D01*
X246085237Y-140656285D02*
X246085237Y-140732476D01*
X246085237Y-140732476D02*
X246047142Y-140808666D01*
X246047142Y-140808666D02*
X246009047Y-140846761D01*
X246009047Y-140846761D02*
X245932856Y-140884857D01*
X245932856Y-140884857D02*
X245666190Y-140884857D01*
X246466190Y-140503904D02*
X246466190Y-141151523D01*
X246466190Y-141151523D02*
X246504285Y-141227714D01*
X246504285Y-141227714D02*
X246542380Y-141265809D01*
X246542380Y-141265809D02*
X246618571Y-141303904D01*
X246618571Y-141303904D02*
X246770952Y-141303904D01*
X246770952Y-141303904D02*
X246847142Y-141265809D01*
X246847142Y-141265809D02*
X246885237Y-141227714D01*
X246885237Y-141227714D02*
X246923333Y-141151523D01*
X246923333Y-141151523D02*
X246923333Y-140503904D01*
X247266189Y-141265809D02*
X247380475Y-141303904D01*
X247380475Y-141303904D02*
X247570951Y-141303904D01*
X247570951Y-141303904D02*
X247647142Y-141265809D01*
X247647142Y-141265809D02*
X247685237Y-141227714D01*
X247685237Y-141227714D02*
X247723332Y-141151523D01*
X247723332Y-141151523D02*
X247723332Y-141075333D01*
X247723332Y-141075333D02*
X247685237Y-140999142D01*
X247685237Y-140999142D02*
X247647142Y-140961047D01*
X247647142Y-140961047D02*
X247570951Y-140922952D01*
X247570951Y-140922952D02*
X247418570Y-140884857D01*
X247418570Y-140884857D02*
X247342380Y-140846761D01*
X247342380Y-140846761D02*
X247304285Y-140808666D01*
X247304285Y-140808666D02*
X247266189Y-140732476D01*
X247266189Y-140732476D02*
X247266189Y-140656285D01*
X247266189Y-140656285D02*
X247304285Y-140580095D01*
X247304285Y-140580095D02*
X247342380Y-140542000D01*
X247342380Y-140542000D02*
X247418570Y-140503904D01*
X247418570Y-140503904D02*
X247609047Y-140503904D01*
X247609047Y-140503904D02*
X247723332Y-140542000D01*
X245478285Y-138090904D02*
X245973523Y-138090904D01*
X245973523Y-138090904D02*
X245706857Y-138395666D01*
X245706857Y-138395666D02*
X245821142Y-138395666D01*
X245821142Y-138395666D02*
X245897333Y-138433761D01*
X245897333Y-138433761D02*
X245935428Y-138471857D01*
X245935428Y-138471857D02*
X245973523Y-138548047D01*
X245973523Y-138548047D02*
X245973523Y-138738523D01*
X245973523Y-138738523D02*
X245935428Y-138814714D01*
X245935428Y-138814714D02*
X245897333Y-138852809D01*
X245897333Y-138852809D02*
X245821142Y-138890904D01*
X245821142Y-138890904D02*
X245592571Y-138890904D01*
X245592571Y-138890904D02*
X245516380Y-138852809D01*
X245516380Y-138852809D02*
X245478285Y-138814714D01*
X246202095Y-138090904D02*
X246468762Y-138890904D01*
X246468762Y-138890904D02*
X246735428Y-138090904D01*
X246925904Y-138090904D02*
X247421142Y-138090904D01*
X247421142Y-138090904D02*
X247154476Y-138395666D01*
X247154476Y-138395666D02*
X247268761Y-138395666D01*
X247268761Y-138395666D02*
X247344952Y-138433761D01*
X247344952Y-138433761D02*
X247383047Y-138471857D01*
X247383047Y-138471857D02*
X247421142Y-138548047D01*
X247421142Y-138548047D02*
X247421142Y-138738523D01*
X247421142Y-138738523D02*
X247383047Y-138814714D01*
X247383047Y-138814714D02*
X247344952Y-138852809D01*
X247344952Y-138852809D02*
X247268761Y-138890904D01*
X247268761Y-138890904D02*
X247040190Y-138890904D01*
X247040190Y-138890904D02*
X246963999Y-138852809D01*
X246963999Y-138852809D02*
X246925904Y-138814714D01*
%TO.C,LDR1*%
X181713333Y-119823580D02*
X181237143Y-119823580D01*
X181237143Y-119823580D02*
X181237143Y-118823580D01*
X182046667Y-119823580D02*
X182046667Y-118823580D01*
X182046667Y-118823580D02*
X182284762Y-118823580D01*
X182284762Y-118823580D02*
X182427619Y-118871200D01*
X182427619Y-118871200D02*
X182522857Y-118966438D01*
X182522857Y-118966438D02*
X182570476Y-119061676D01*
X182570476Y-119061676D02*
X182618095Y-119252152D01*
X182618095Y-119252152D02*
X182618095Y-119395009D01*
X182618095Y-119395009D02*
X182570476Y-119585485D01*
X182570476Y-119585485D02*
X182522857Y-119680723D01*
X182522857Y-119680723D02*
X182427619Y-119775961D01*
X182427619Y-119775961D02*
X182284762Y-119823580D01*
X182284762Y-119823580D02*
X182046667Y-119823580D01*
X183618095Y-119823580D02*
X183284762Y-119347390D01*
X183046667Y-119823580D02*
X183046667Y-118823580D01*
X183046667Y-118823580D02*
X183427619Y-118823580D01*
X183427619Y-118823580D02*
X183522857Y-118871200D01*
X183522857Y-118871200D02*
X183570476Y-118918819D01*
X183570476Y-118918819D02*
X183618095Y-119014057D01*
X183618095Y-119014057D02*
X183618095Y-119156914D01*
X183618095Y-119156914D02*
X183570476Y-119252152D01*
X183570476Y-119252152D02*
X183522857Y-119299771D01*
X183522857Y-119299771D02*
X183427619Y-119347390D01*
X183427619Y-119347390D02*
X183046667Y-119347390D01*
X184570476Y-119823580D02*
X183999048Y-119823580D01*
X184284762Y-119823580D02*
X184284762Y-118823580D01*
X184284762Y-118823580D02*
X184189524Y-118966438D01*
X184189524Y-118966438D02*
X184094286Y-119061676D01*
X184094286Y-119061676D02*
X183999048Y-119109295D01*
%TO.C,U2*%
X194228095Y-111592380D02*
X194228095Y-112401904D01*
X194228095Y-112401904D02*
X194275714Y-112497142D01*
X194275714Y-112497142D02*
X194323333Y-112544761D01*
X194323333Y-112544761D02*
X194418571Y-112592380D01*
X194418571Y-112592380D02*
X194609047Y-112592380D01*
X194609047Y-112592380D02*
X194704285Y-112544761D01*
X194704285Y-112544761D02*
X194751904Y-112497142D01*
X194751904Y-112497142D02*
X194799523Y-112401904D01*
X194799523Y-112401904D02*
X194799523Y-111592380D01*
X195228095Y-111687619D02*
X195275714Y-111640000D01*
X195275714Y-111640000D02*
X195370952Y-111592380D01*
X195370952Y-111592380D02*
X195609047Y-111592380D01*
X195609047Y-111592380D02*
X195704285Y-111640000D01*
X195704285Y-111640000D02*
X195751904Y-111687619D01*
X195751904Y-111687619D02*
X195799523Y-111782857D01*
X195799523Y-111782857D02*
X195799523Y-111878095D01*
X195799523Y-111878095D02*
X195751904Y-112020952D01*
X195751904Y-112020952D02*
X195180476Y-112592380D01*
X195180476Y-112592380D02*
X195799523Y-112592380D01*
%TO.C,C10*%
X204893942Y-112768742D02*
X204846323Y-112816361D01*
X204846323Y-112816361D02*
X204703466Y-112863980D01*
X204703466Y-112863980D02*
X204608228Y-112863980D01*
X204608228Y-112863980D02*
X204465371Y-112816361D01*
X204465371Y-112816361D02*
X204370133Y-112721123D01*
X204370133Y-112721123D02*
X204322514Y-112625885D01*
X204322514Y-112625885D02*
X204274895Y-112435409D01*
X204274895Y-112435409D02*
X204274895Y-112292552D01*
X204274895Y-112292552D02*
X204322514Y-112102076D01*
X204322514Y-112102076D02*
X204370133Y-112006838D01*
X204370133Y-112006838D02*
X204465371Y-111911600D01*
X204465371Y-111911600D02*
X204608228Y-111863980D01*
X204608228Y-111863980D02*
X204703466Y-111863980D01*
X204703466Y-111863980D02*
X204846323Y-111911600D01*
X204846323Y-111911600D02*
X204893942Y-111959219D01*
X205846323Y-112863980D02*
X205274895Y-112863980D01*
X205560609Y-112863980D02*
X205560609Y-111863980D01*
X205560609Y-111863980D02*
X205465371Y-112006838D01*
X205465371Y-112006838D02*
X205370133Y-112102076D01*
X205370133Y-112102076D02*
X205274895Y-112149695D01*
X206465371Y-111863980D02*
X206560609Y-111863980D01*
X206560609Y-111863980D02*
X206655847Y-111911600D01*
X206655847Y-111911600D02*
X206703466Y-111959219D01*
X206703466Y-111959219D02*
X206751085Y-112054457D01*
X206751085Y-112054457D02*
X206798704Y-112244933D01*
X206798704Y-112244933D02*
X206798704Y-112483028D01*
X206798704Y-112483028D02*
X206751085Y-112673504D01*
X206751085Y-112673504D02*
X206703466Y-112768742D01*
X206703466Y-112768742D02*
X206655847Y-112816361D01*
X206655847Y-112816361D02*
X206560609Y-112863980D01*
X206560609Y-112863980D02*
X206465371Y-112863980D01*
X206465371Y-112863980D02*
X206370133Y-112816361D01*
X206370133Y-112816361D02*
X206322514Y-112768742D01*
X206322514Y-112768742D02*
X206274895Y-112673504D01*
X206274895Y-112673504D02*
X206227276Y-112483028D01*
X206227276Y-112483028D02*
X206227276Y-112244933D01*
X206227276Y-112244933D02*
X206274895Y-112054457D01*
X206274895Y-112054457D02*
X206322514Y-111959219D01*
X206322514Y-111959219D02*
X206370133Y-111911600D01*
X206370133Y-111911600D02*
X206465371Y-111863980D01*
%TO.C,C9*%
X206944933Y-115791342D02*
X206897314Y-115838961D01*
X206897314Y-115838961D02*
X206754457Y-115886580D01*
X206754457Y-115886580D02*
X206659219Y-115886580D01*
X206659219Y-115886580D02*
X206516362Y-115838961D01*
X206516362Y-115838961D02*
X206421124Y-115743723D01*
X206421124Y-115743723D02*
X206373505Y-115648485D01*
X206373505Y-115648485D02*
X206325886Y-115458009D01*
X206325886Y-115458009D02*
X206325886Y-115315152D01*
X206325886Y-115315152D02*
X206373505Y-115124676D01*
X206373505Y-115124676D02*
X206421124Y-115029438D01*
X206421124Y-115029438D02*
X206516362Y-114934200D01*
X206516362Y-114934200D02*
X206659219Y-114886580D01*
X206659219Y-114886580D02*
X206754457Y-114886580D01*
X206754457Y-114886580D02*
X206897314Y-114934200D01*
X206897314Y-114934200D02*
X206944933Y-114981819D01*
X207421124Y-115886580D02*
X207611600Y-115886580D01*
X207611600Y-115886580D02*
X207706838Y-115838961D01*
X207706838Y-115838961D02*
X207754457Y-115791342D01*
X207754457Y-115791342D02*
X207849695Y-115648485D01*
X207849695Y-115648485D02*
X207897314Y-115458009D01*
X207897314Y-115458009D02*
X207897314Y-115077057D01*
X207897314Y-115077057D02*
X207849695Y-114981819D01*
X207849695Y-114981819D02*
X207802076Y-114934200D01*
X207802076Y-114934200D02*
X207706838Y-114886580D01*
X207706838Y-114886580D02*
X207516362Y-114886580D01*
X207516362Y-114886580D02*
X207421124Y-114934200D01*
X207421124Y-114934200D02*
X207373505Y-114981819D01*
X207373505Y-114981819D02*
X207325886Y-115077057D01*
X207325886Y-115077057D02*
X207325886Y-115315152D01*
X207325886Y-115315152D02*
X207373505Y-115410390D01*
X207373505Y-115410390D02*
X207421124Y-115458009D01*
X207421124Y-115458009D02*
X207516362Y-115505628D01*
X207516362Y-115505628D02*
X207706838Y-115505628D01*
X207706838Y-115505628D02*
X207802076Y-115458009D01*
X207802076Y-115458009D02*
X207849695Y-115410390D01*
X207849695Y-115410390D02*
X207897314Y-115315152D01*
%TO.C,F1*%
X231364571Y-93932333D02*
X231364571Y-94265666D01*
X231888380Y-94265666D02*
X230888380Y-94265666D01*
X230888380Y-94265666D02*
X230888380Y-93789476D01*
X231888380Y-92884714D02*
X231888380Y-93456142D01*
X231888380Y-93170428D02*
X230888380Y-93170428D01*
X230888380Y-93170428D02*
X231031238Y-93265666D01*
X231031238Y-93265666D02*
X231126476Y-93360904D01*
X231126476Y-93360904D02*
X231174095Y-93456142D01*
%TO.C,C3*%
X218807333Y-111482342D02*
X218759714Y-111529961D01*
X218759714Y-111529961D02*
X218616857Y-111577580D01*
X218616857Y-111577580D02*
X218521619Y-111577580D01*
X218521619Y-111577580D02*
X218378762Y-111529961D01*
X218378762Y-111529961D02*
X218283524Y-111434723D01*
X218283524Y-111434723D02*
X218235905Y-111339485D01*
X218235905Y-111339485D02*
X218188286Y-111149009D01*
X218188286Y-111149009D02*
X218188286Y-111006152D01*
X218188286Y-111006152D02*
X218235905Y-110815676D01*
X218235905Y-110815676D02*
X218283524Y-110720438D01*
X218283524Y-110720438D02*
X218378762Y-110625200D01*
X218378762Y-110625200D02*
X218521619Y-110577580D01*
X218521619Y-110577580D02*
X218616857Y-110577580D01*
X218616857Y-110577580D02*
X218759714Y-110625200D01*
X218759714Y-110625200D02*
X218807333Y-110672819D01*
X219140667Y-110577580D02*
X219759714Y-110577580D01*
X219759714Y-110577580D02*
X219426381Y-110958533D01*
X219426381Y-110958533D02*
X219569238Y-110958533D01*
X219569238Y-110958533D02*
X219664476Y-111006152D01*
X219664476Y-111006152D02*
X219712095Y-111053771D01*
X219712095Y-111053771D02*
X219759714Y-111149009D01*
X219759714Y-111149009D02*
X219759714Y-111387104D01*
X219759714Y-111387104D02*
X219712095Y-111482342D01*
X219712095Y-111482342D02*
X219664476Y-111529961D01*
X219664476Y-111529961D02*
X219569238Y-111577580D01*
X219569238Y-111577580D02*
X219283524Y-111577580D01*
X219283524Y-111577580D02*
X219188286Y-111529961D01*
X219188286Y-111529961D02*
X219140667Y-111482342D01*
%TO.C,C1*%
X191712142Y-112301666D02*
X191759761Y-112349285D01*
X191759761Y-112349285D02*
X191807380Y-112492142D01*
X191807380Y-112492142D02*
X191807380Y-112587380D01*
X191807380Y-112587380D02*
X191759761Y-112730237D01*
X191759761Y-112730237D02*
X191664523Y-112825475D01*
X191664523Y-112825475D02*
X191569285Y-112873094D01*
X191569285Y-112873094D02*
X191378809Y-112920713D01*
X191378809Y-112920713D02*
X191235952Y-112920713D01*
X191235952Y-112920713D02*
X191045476Y-112873094D01*
X191045476Y-112873094D02*
X190950238Y-112825475D01*
X190950238Y-112825475D02*
X190855000Y-112730237D01*
X190855000Y-112730237D02*
X190807380Y-112587380D01*
X190807380Y-112587380D02*
X190807380Y-112492142D01*
X190807380Y-112492142D02*
X190855000Y-112349285D01*
X190855000Y-112349285D02*
X190902619Y-112301666D01*
X191807380Y-111349285D02*
X191807380Y-111920713D01*
X191807380Y-111634999D02*
X190807380Y-111634999D01*
X190807380Y-111634999D02*
X190950238Y-111730237D01*
X190950238Y-111730237D02*
X191045476Y-111825475D01*
X191045476Y-111825475D02*
X191093095Y-111920713D01*
%TO.C,D3*%
X212977505Y-109765180D02*
X212977505Y-108765180D01*
X212977505Y-108765180D02*
X213215600Y-108765180D01*
X213215600Y-108765180D02*
X213358457Y-108812800D01*
X213358457Y-108812800D02*
X213453695Y-108908038D01*
X213453695Y-108908038D02*
X213501314Y-109003276D01*
X213501314Y-109003276D02*
X213548933Y-109193752D01*
X213548933Y-109193752D02*
X213548933Y-109336609D01*
X213548933Y-109336609D02*
X213501314Y-109527085D01*
X213501314Y-109527085D02*
X213453695Y-109622323D01*
X213453695Y-109622323D02*
X213358457Y-109717561D01*
X213358457Y-109717561D02*
X213215600Y-109765180D01*
X213215600Y-109765180D02*
X212977505Y-109765180D01*
X213882267Y-108765180D02*
X214501314Y-108765180D01*
X214501314Y-108765180D02*
X214167981Y-109146133D01*
X214167981Y-109146133D02*
X214310838Y-109146133D01*
X214310838Y-109146133D02*
X214406076Y-109193752D01*
X214406076Y-109193752D02*
X214453695Y-109241371D01*
X214453695Y-109241371D02*
X214501314Y-109336609D01*
X214501314Y-109336609D02*
X214501314Y-109574704D01*
X214501314Y-109574704D02*
X214453695Y-109669942D01*
X214453695Y-109669942D02*
X214406076Y-109717561D01*
X214406076Y-109717561D02*
X214310838Y-109765180D01*
X214310838Y-109765180D02*
X214025124Y-109765180D01*
X214025124Y-109765180D02*
X213929886Y-109717561D01*
X213929886Y-109717561D02*
X213882267Y-109669942D01*
%TO.C,3V3*%
X177397380Y-114808094D02*
X177397380Y-114189047D01*
X177397380Y-114189047D02*
X177778333Y-114522380D01*
X177778333Y-114522380D02*
X177778333Y-114379523D01*
X177778333Y-114379523D02*
X177825952Y-114284285D01*
X177825952Y-114284285D02*
X177873571Y-114236666D01*
X177873571Y-114236666D02*
X177968809Y-114189047D01*
X177968809Y-114189047D02*
X178206904Y-114189047D01*
X178206904Y-114189047D02*
X178302142Y-114236666D01*
X178302142Y-114236666D02*
X178349761Y-114284285D01*
X178349761Y-114284285D02*
X178397380Y-114379523D01*
X178397380Y-114379523D02*
X178397380Y-114665237D01*
X178397380Y-114665237D02*
X178349761Y-114760475D01*
X178349761Y-114760475D02*
X178302142Y-114808094D01*
X177397380Y-113903332D02*
X178397380Y-113569999D01*
X178397380Y-113569999D02*
X177397380Y-113236666D01*
X177397380Y-112998570D02*
X177397380Y-112379523D01*
X177397380Y-112379523D02*
X177778333Y-112712856D01*
X177778333Y-112712856D02*
X177778333Y-112569999D01*
X177778333Y-112569999D02*
X177825952Y-112474761D01*
X177825952Y-112474761D02*
X177873571Y-112427142D01*
X177873571Y-112427142D02*
X177968809Y-112379523D01*
X177968809Y-112379523D02*
X178206904Y-112379523D01*
X178206904Y-112379523D02*
X178302142Y-112427142D01*
X178302142Y-112427142D02*
X178349761Y-112474761D01*
X178349761Y-112474761D02*
X178397380Y-112569999D01*
X178397380Y-112569999D02*
X178397380Y-112855713D01*
X178397380Y-112855713D02*
X178349761Y-112950951D01*
X178349761Y-112950951D02*
X178302142Y-112998570D01*
%TO.C,U5*%
X213238095Y-101187380D02*
X213238095Y-101996904D01*
X213238095Y-101996904D02*
X213285714Y-102092142D01*
X213285714Y-102092142D02*
X213333333Y-102139761D01*
X213333333Y-102139761D02*
X213428571Y-102187380D01*
X213428571Y-102187380D02*
X213619047Y-102187380D01*
X213619047Y-102187380D02*
X213714285Y-102139761D01*
X213714285Y-102139761D02*
X213761904Y-102092142D01*
X213761904Y-102092142D02*
X213809523Y-101996904D01*
X213809523Y-101996904D02*
X213809523Y-101187380D01*
X214761904Y-101187380D02*
X214285714Y-101187380D01*
X214285714Y-101187380D02*
X214238095Y-101663571D01*
X214238095Y-101663571D02*
X214285714Y-101615952D01*
X214285714Y-101615952D02*
X214380952Y-101568333D01*
X214380952Y-101568333D02*
X214619047Y-101568333D01*
X214619047Y-101568333D02*
X214714285Y-101615952D01*
X214714285Y-101615952D02*
X214761904Y-101663571D01*
X214761904Y-101663571D02*
X214809523Y-101758809D01*
X214809523Y-101758809D02*
X214809523Y-101996904D01*
X214809523Y-101996904D02*
X214761904Y-102092142D01*
X214761904Y-102092142D02*
X214714285Y-102139761D01*
X214714285Y-102139761D02*
X214619047Y-102187380D01*
X214619047Y-102187380D02*
X214380952Y-102187380D01*
X214380952Y-102187380D02*
X214285714Y-102139761D01*
X214285714Y-102139761D02*
X214238095Y-102092142D01*
%TO.C,C5*%
X198517342Y-116559266D02*
X198564961Y-116606885D01*
X198564961Y-116606885D02*
X198612580Y-116749742D01*
X198612580Y-116749742D02*
X198612580Y-116844980D01*
X198612580Y-116844980D02*
X198564961Y-116987837D01*
X198564961Y-116987837D02*
X198469723Y-117083075D01*
X198469723Y-117083075D02*
X198374485Y-117130694D01*
X198374485Y-117130694D02*
X198184009Y-117178313D01*
X198184009Y-117178313D02*
X198041152Y-117178313D01*
X198041152Y-117178313D02*
X197850676Y-117130694D01*
X197850676Y-117130694D02*
X197755438Y-117083075D01*
X197755438Y-117083075D02*
X197660200Y-116987837D01*
X197660200Y-116987837D02*
X197612580Y-116844980D01*
X197612580Y-116844980D02*
X197612580Y-116749742D01*
X197612580Y-116749742D02*
X197660200Y-116606885D01*
X197660200Y-116606885D02*
X197707819Y-116559266D01*
X197612580Y-115654504D02*
X197612580Y-116130694D01*
X197612580Y-116130694D02*
X198088771Y-116178313D01*
X198088771Y-116178313D02*
X198041152Y-116130694D01*
X198041152Y-116130694D02*
X197993533Y-116035456D01*
X197993533Y-116035456D02*
X197993533Y-115797361D01*
X197993533Y-115797361D02*
X198041152Y-115702123D01*
X198041152Y-115702123D02*
X198088771Y-115654504D01*
X198088771Y-115654504D02*
X198184009Y-115606885D01*
X198184009Y-115606885D02*
X198422104Y-115606885D01*
X198422104Y-115606885D02*
X198517342Y-115654504D01*
X198517342Y-115654504D02*
X198564961Y-115702123D01*
X198564961Y-115702123D02*
X198612580Y-115797361D01*
X198612580Y-115797361D02*
X198612580Y-116035456D01*
X198612580Y-116035456D02*
X198564961Y-116130694D01*
X198564961Y-116130694D02*
X198517342Y-116178313D01*
%TO.C,U4*%
X178409695Y-105082180D02*
X178409695Y-105891704D01*
X178409695Y-105891704D02*
X178457314Y-105986942D01*
X178457314Y-105986942D02*
X178504933Y-106034561D01*
X178504933Y-106034561D02*
X178600171Y-106082180D01*
X178600171Y-106082180D02*
X178790647Y-106082180D01*
X178790647Y-106082180D02*
X178885885Y-106034561D01*
X178885885Y-106034561D02*
X178933504Y-105986942D01*
X178933504Y-105986942D02*
X178981123Y-105891704D01*
X178981123Y-105891704D02*
X178981123Y-105082180D01*
X179885885Y-105415514D02*
X179885885Y-106082180D01*
X179647790Y-105034561D02*
X179409695Y-105748847D01*
X179409695Y-105748847D02*
X180028742Y-105748847D01*
D12*
%TO.C,PS1*%
X215443573Y-90373143D02*
X214173573Y-90373143D01*
X214173573Y-90373143D02*
X214173573Y-89889333D01*
X214173573Y-89889333D02*
X214234050Y-89768381D01*
X214234050Y-89768381D02*
X214294526Y-89707904D01*
X214294526Y-89707904D02*
X214415478Y-89647428D01*
X214415478Y-89647428D02*
X214596907Y-89647428D01*
X214596907Y-89647428D02*
X214717859Y-89707904D01*
X214717859Y-89707904D02*
X214778335Y-89768381D01*
X214778335Y-89768381D02*
X214838811Y-89889333D01*
X214838811Y-89889333D02*
X214838811Y-90373143D01*
X215383097Y-89163619D02*
X215443573Y-88982190D01*
X215443573Y-88982190D02*
X215443573Y-88679809D01*
X215443573Y-88679809D02*
X215383097Y-88558857D01*
X215383097Y-88558857D02*
X215322621Y-88498381D01*
X215322621Y-88498381D02*
X215201669Y-88437904D01*
X215201669Y-88437904D02*
X215080716Y-88437904D01*
X215080716Y-88437904D02*
X214959764Y-88498381D01*
X214959764Y-88498381D02*
X214899288Y-88558857D01*
X214899288Y-88558857D02*
X214838811Y-88679809D01*
X214838811Y-88679809D02*
X214778335Y-88921714D01*
X214778335Y-88921714D02*
X214717859Y-89042666D01*
X214717859Y-89042666D02*
X214657383Y-89103143D01*
X214657383Y-89103143D02*
X214536430Y-89163619D01*
X214536430Y-89163619D02*
X214415478Y-89163619D01*
X214415478Y-89163619D02*
X214294526Y-89103143D01*
X214294526Y-89103143D02*
X214234050Y-89042666D01*
X214234050Y-89042666D02*
X214173573Y-88921714D01*
X214173573Y-88921714D02*
X214173573Y-88619333D01*
X214173573Y-88619333D02*
X214234050Y-88437904D01*
X215443573Y-87228380D02*
X215443573Y-87954095D01*
X215443573Y-87591238D02*
X214173573Y-87591238D01*
X214173573Y-87591238D02*
X214355002Y-87712190D01*
X214355002Y-87712190D02*
X214475954Y-87833142D01*
X214475954Y-87833142D02*
X214536430Y-87954095D01*
D10*
%TO.C,Batterij1*%
X174318942Y-97557371D02*
X174461799Y-97604990D01*
X174461799Y-97604990D02*
X174509418Y-97652609D01*
X174509418Y-97652609D02*
X174557037Y-97747847D01*
X174557037Y-97747847D02*
X174557037Y-97890704D01*
X174557037Y-97890704D02*
X174509418Y-97985942D01*
X174509418Y-97985942D02*
X174461799Y-98033561D01*
X174461799Y-98033561D02*
X174366561Y-98081180D01*
X174366561Y-98081180D02*
X173985609Y-98081180D01*
X173985609Y-98081180D02*
X173985609Y-97081180D01*
X173985609Y-97081180D02*
X174318942Y-97081180D01*
X174318942Y-97081180D02*
X174414180Y-97128800D01*
X174414180Y-97128800D02*
X174461799Y-97176419D01*
X174461799Y-97176419D02*
X174509418Y-97271657D01*
X174509418Y-97271657D02*
X174509418Y-97366895D01*
X174509418Y-97366895D02*
X174461799Y-97462133D01*
X174461799Y-97462133D02*
X174414180Y-97509752D01*
X174414180Y-97509752D02*
X174318942Y-97557371D01*
X174318942Y-97557371D02*
X173985609Y-97557371D01*
X175414180Y-98081180D02*
X175414180Y-97557371D01*
X175414180Y-97557371D02*
X175366561Y-97462133D01*
X175366561Y-97462133D02*
X175271323Y-97414514D01*
X175271323Y-97414514D02*
X175080847Y-97414514D01*
X175080847Y-97414514D02*
X174985609Y-97462133D01*
X175414180Y-98033561D02*
X175318942Y-98081180D01*
X175318942Y-98081180D02*
X175080847Y-98081180D01*
X175080847Y-98081180D02*
X174985609Y-98033561D01*
X174985609Y-98033561D02*
X174937990Y-97938323D01*
X174937990Y-97938323D02*
X174937990Y-97843085D01*
X174937990Y-97843085D02*
X174985609Y-97747847D01*
X174985609Y-97747847D02*
X175080847Y-97700228D01*
X175080847Y-97700228D02*
X175318942Y-97700228D01*
X175318942Y-97700228D02*
X175414180Y-97652609D01*
X175747514Y-97414514D02*
X176128466Y-97414514D01*
X175890371Y-97081180D02*
X175890371Y-97938323D01*
X175890371Y-97938323D02*
X175937990Y-98033561D01*
X175937990Y-98033561D02*
X176033228Y-98081180D01*
X176033228Y-98081180D02*
X176128466Y-98081180D01*
X176318943Y-97414514D02*
X176699895Y-97414514D01*
X176461800Y-97081180D02*
X176461800Y-97938323D01*
X176461800Y-97938323D02*
X176509419Y-98033561D01*
X176509419Y-98033561D02*
X176604657Y-98081180D01*
X176604657Y-98081180D02*
X176699895Y-98081180D01*
X177414181Y-98033561D02*
X177318943Y-98081180D01*
X177318943Y-98081180D02*
X177128467Y-98081180D01*
X177128467Y-98081180D02*
X177033229Y-98033561D01*
X177033229Y-98033561D02*
X176985610Y-97938323D01*
X176985610Y-97938323D02*
X176985610Y-97557371D01*
X176985610Y-97557371D02*
X177033229Y-97462133D01*
X177033229Y-97462133D02*
X177128467Y-97414514D01*
X177128467Y-97414514D02*
X177318943Y-97414514D01*
X177318943Y-97414514D02*
X177414181Y-97462133D01*
X177414181Y-97462133D02*
X177461800Y-97557371D01*
X177461800Y-97557371D02*
X177461800Y-97652609D01*
X177461800Y-97652609D02*
X176985610Y-97747847D01*
X177890372Y-98081180D02*
X177890372Y-97414514D01*
X177890372Y-97604990D02*
X177937991Y-97509752D01*
X177937991Y-97509752D02*
X177985610Y-97462133D01*
X177985610Y-97462133D02*
X178080848Y-97414514D01*
X178080848Y-97414514D02*
X178176086Y-97414514D01*
X178509420Y-98081180D02*
X178509420Y-97414514D01*
X178509420Y-97081180D02*
X178461801Y-97128800D01*
X178461801Y-97128800D02*
X178509420Y-97176419D01*
X178509420Y-97176419D02*
X178557039Y-97128800D01*
X178557039Y-97128800D02*
X178509420Y-97081180D01*
X178509420Y-97081180D02*
X178509420Y-97176419D01*
X178985610Y-97414514D02*
X178985610Y-98271657D01*
X178985610Y-98271657D02*
X178937991Y-98366895D01*
X178937991Y-98366895D02*
X178842753Y-98414514D01*
X178842753Y-98414514D02*
X178795134Y-98414514D01*
X178985610Y-97081180D02*
X178937991Y-97128800D01*
X178937991Y-97128800D02*
X178985610Y-97176419D01*
X178985610Y-97176419D02*
X179033229Y-97128800D01*
X179033229Y-97128800D02*
X178985610Y-97081180D01*
X178985610Y-97081180D02*
X178985610Y-97176419D01*
X179985609Y-98081180D02*
X179414181Y-98081180D01*
X179699895Y-98081180D02*
X179699895Y-97081180D01*
X179699895Y-97081180D02*
X179604657Y-97224038D01*
X179604657Y-97224038D02*
X179509419Y-97319276D01*
X179509419Y-97319276D02*
X179414181Y-97366895D01*
%TO.C,C2*%
X194927333Y-129684142D02*
X194879714Y-129731761D01*
X194879714Y-129731761D02*
X194736857Y-129779380D01*
X194736857Y-129779380D02*
X194641619Y-129779380D01*
X194641619Y-129779380D02*
X194498762Y-129731761D01*
X194498762Y-129731761D02*
X194403524Y-129636523D01*
X194403524Y-129636523D02*
X194355905Y-129541285D01*
X194355905Y-129541285D02*
X194308286Y-129350809D01*
X194308286Y-129350809D02*
X194308286Y-129207952D01*
X194308286Y-129207952D02*
X194355905Y-129017476D01*
X194355905Y-129017476D02*
X194403524Y-128922238D01*
X194403524Y-128922238D02*
X194498762Y-128827000D01*
X194498762Y-128827000D02*
X194641619Y-128779380D01*
X194641619Y-128779380D02*
X194736857Y-128779380D01*
X194736857Y-128779380D02*
X194879714Y-128827000D01*
X194879714Y-128827000D02*
X194927333Y-128874619D01*
X195308286Y-128874619D02*
X195355905Y-128827000D01*
X195355905Y-128827000D02*
X195451143Y-128779380D01*
X195451143Y-128779380D02*
X195689238Y-128779380D01*
X195689238Y-128779380D02*
X195784476Y-128827000D01*
X195784476Y-128827000D02*
X195832095Y-128874619D01*
X195832095Y-128874619D02*
X195879714Y-128969857D01*
X195879714Y-128969857D02*
X195879714Y-129065095D01*
X195879714Y-129065095D02*
X195832095Y-129207952D01*
X195832095Y-129207952D02*
X195260667Y-129779380D01*
X195260667Y-129779380D02*
X195879714Y-129779380D01*
%TO.C,PIR1*%
X238949580Y-103380989D02*
X237949580Y-103380989D01*
X237949580Y-103380989D02*
X237949580Y-103000037D01*
X237949580Y-103000037D02*
X237997200Y-102904799D01*
X237997200Y-102904799D02*
X238044819Y-102857180D01*
X238044819Y-102857180D02*
X238140057Y-102809561D01*
X238140057Y-102809561D02*
X238282914Y-102809561D01*
X238282914Y-102809561D02*
X238378152Y-102857180D01*
X238378152Y-102857180D02*
X238425771Y-102904799D01*
X238425771Y-102904799D02*
X238473390Y-103000037D01*
X238473390Y-103000037D02*
X238473390Y-103380989D01*
X238949580Y-102380989D02*
X237949580Y-102380989D01*
X238949580Y-101333371D02*
X238473390Y-101666704D01*
X238949580Y-101904799D02*
X237949580Y-101904799D01*
X237949580Y-101904799D02*
X237949580Y-101523847D01*
X237949580Y-101523847D02*
X237997200Y-101428609D01*
X237997200Y-101428609D02*
X238044819Y-101380990D01*
X238044819Y-101380990D02*
X238140057Y-101333371D01*
X238140057Y-101333371D02*
X238282914Y-101333371D01*
X238282914Y-101333371D02*
X238378152Y-101380990D01*
X238378152Y-101380990D02*
X238425771Y-101428609D01*
X238425771Y-101428609D02*
X238473390Y-101523847D01*
X238473390Y-101523847D02*
X238473390Y-101904799D01*
X238949580Y-100380990D02*
X238949580Y-100952418D01*
X238949580Y-100666704D02*
X237949580Y-100666704D01*
X237949580Y-100666704D02*
X238092438Y-100761942D01*
X238092438Y-100761942D02*
X238187676Y-100857180D01*
X238187676Y-100857180D02*
X238235295Y-100952418D01*
%TO.C,J1*%
X243791580Y-87760133D02*
X244505866Y-87760133D01*
X244505866Y-87760133D02*
X244648723Y-87807752D01*
X244648723Y-87807752D02*
X244743961Y-87902990D01*
X244743961Y-87902990D02*
X244791580Y-88045847D01*
X244791580Y-88045847D02*
X244791580Y-88141085D01*
X244791580Y-86760133D02*
X244791580Y-87331561D01*
X244791580Y-87045847D02*
X243791580Y-87045847D01*
X243791580Y-87045847D02*
X243934438Y-87141085D01*
X243934438Y-87141085D02*
X244029676Y-87236323D01*
X244029676Y-87236323D02*
X244077295Y-87331561D01*
%TO.C,C7*%
X198664533Y-103853342D02*
X198616914Y-103900961D01*
X198616914Y-103900961D02*
X198474057Y-103948580D01*
X198474057Y-103948580D02*
X198378819Y-103948580D01*
X198378819Y-103948580D02*
X198235962Y-103900961D01*
X198235962Y-103900961D02*
X198140724Y-103805723D01*
X198140724Y-103805723D02*
X198093105Y-103710485D01*
X198093105Y-103710485D02*
X198045486Y-103520009D01*
X198045486Y-103520009D02*
X198045486Y-103377152D01*
X198045486Y-103377152D02*
X198093105Y-103186676D01*
X198093105Y-103186676D02*
X198140724Y-103091438D01*
X198140724Y-103091438D02*
X198235962Y-102996200D01*
X198235962Y-102996200D02*
X198378819Y-102948580D01*
X198378819Y-102948580D02*
X198474057Y-102948580D01*
X198474057Y-102948580D02*
X198616914Y-102996200D01*
X198616914Y-102996200D02*
X198664533Y-103043819D01*
X198997867Y-102948580D02*
X199664533Y-102948580D01*
X199664533Y-102948580D02*
X199235962Y-103948580D01*
%TO.C,U1*%
X190705695Y-80540980D02*
X190705695Y-81350504D01*
X190705695Y-81350504D02*
X190753314Y-81445742D01*
X190753314Y-81445742D02*
X190800933Y-81493361D01*
X190800933Y-81493361D02*
X190896171Y-81540980D01*
X190896171Y-81540980D02*
X191086647Y-81540980D01*
X191086647Y-81540980D02*
X191181885Y-81493361D01*
X191181885Y-81493361D02*
X191229504Y-81445742D01*
X191229504Y-81445742D02*
X191277123Y-81350504D01*
X191277123Y-81350504D02*
X191277123Y-80540980D01*
X192277123Y-81540980D02*
X191705695Y-81540980D01*
X191991409Y-81540980D02*
X191991409Y-80540980D01*
X191991409Y-80540980D02*
X191896171Y-80683838D01*
X191896171Y-80683838D02*
X191800933Y-80779076D01*
X191800933Y-80779076D02*
X191705695Y-80826695D01*
%TO.C,J3*%
X237587380Y-149953333D02*
X238301666Y-149953333D01*
X238301666Y-149953333D02*
X238444523Y-150000952D01*
X238444523Y-150000952D02*
X238539761Y-150096190D01*
X238539761Y-150096190D02*
X238587380Y-150239047D01*
X238587380Y-150239047D02*
X238587380Y-150334285D01*
X237587380Y-149572380D02*
X237587380Y-148953333D01*
X237587380Y-148953333D02*
X237968333Y-149286666D01*
X237968333Y-149286666D02*
X237968333Y-149143809D01*
X237968333Y-149143809D02*
X238015952Y-149048571D01*
X238015952Y-149048571D02*
X238063571Y-149000952D01*
X238063571Y-149000952D02*
X238158809Y-148953333D01*
X238158809Y-148953333D02*
X238396904Y-148953333D01*
X238396904Y-148953333D02*
X238492142Y-149000952D01*
X238492142Y-149000952D02*
X238539761Y-149048571D01*
X238539761Y-149048571D02*
X238587380Y-149143809D01*
X238587380Y-149143809D02*
X238587380Y-149429523D01*
X238587380Y-149429523D02*
X238539761Y-149524761D01*
X238539761Y-149524761D02*
X238492142Y-149572380D01*
%TO.C,C4*%
X215349502Y-118890142D02*
X215301883Y-118937761D01*
X215301883Y-118937761D02*
X215159026Y-118985380D01*
X215159026Y-118985380D02*
X215063788Y-118985380D01*
X215063788Y-118985380D02*
X214920931Y-118937761D01*
X214920931Y-118937761D02*
X214825693Y-118842523D01*
X214825693Y-118842523D02*
X214778074Y-118747285D01*
X214778074Y-118747285D02*
X214730455Y-118556809D01*
X214730455Y-118556809D02*
X214730455Y-118413952D01*
X214730455Y-118413952D02*
X214778074Y-118223476D01*
X214778074Y-118223476D02*
X214825693Y-118128238D01*
X214825693Y-118128238D02*
X214920931Y-118033000D01*
X214920931Y-118033000D02*
X215063788Y-117985380D01*
X215063788Y-117985380D02*
X215159026Y-117985380D01*
X215159026Y-117985380D02*
X215301883Y-118033000D01*
X215301883Y-118033000D02*
X215349502Y-118080619D01*
X216206645Y-118318714D02*
X216206645Y-118985380D01*
X215968550Y-117937761D02*
X215730455Y-118652047D01*
X215730455Y-118652047D02*
X216349502Y-118652047D01*
%TO.C,C8*%
X180307342Y-101360266D02*
X180354961Y-101407885D01*
X180354961Y-101407885D02*
X180402580Y-101550742D01*
X180402580Y-101550742D02*
X180402580Y-101645980D01*
X180402580Y-101645980D02*
X180354961Y-101788837D01*
X180354961Y-101788837D02*
X180259723Y-101884075D01*
X180259723Y-101884075D02*
X180164485Y-101931694D01*
X180164485Y-101931694D02*
X179974009Y-101979313D01*
X179974009Y-101979313D02*
X179831152Y-101979313D01*
X179831152Y-101979313D02*
X179640676Y-101931694D01*
X179640676Y-101931694D02*
X179545438Y-101884075D01*
X179545438Y-101884075D02*
X179450200Y-101788837D01*
X179450200Y-101788837D02*
X179402580Y-101645980D01*
X179402580Y-101645980D02*
X179402580Y-101550742D01*
X179402580Y-101550742D02*
X179450200Y-101407885D01*
X179450200Y-101407885D02*
X179497819Y-101360266D01*
X179831152Y-100788837D02*
X179783533Y-100884075D01*
X179783533Y-100884075D02*
X179735914Y-100931694D01*
X179735914Y-100931694D02*
X179640676Y-100979313D01*
X179640676Y-100979313D02*
X179593057Y-100979313D01*
X179593057Y-100979313D02*
X179497819Y-100931694D01*
X179497819Y-100931694D02*
X179450200Y-100884075D01*
X179450200Y-100884075D02*
X179402580Y-100788837D01*
X179402580Y-100788837D02*
X179402580Y-100598361D01*
X179402580Y-100598361D02*
X179450200Y-100503123D01*
X179450200Y-100503123D02*
X179497819Y-100455504D01*
X179497819Y-100455504D02*
X179593057Y-100407885D01*
X179593057Y-100407885D02*
X179640676Y-100407885D01*
X179640676Y-100407885D02*
X179735914Y-100455504D01*
X179735914Y-100455504D02*
X179783533Y-100503123D01*
X179783533Y-100503123D02*
X179831152Y-100598361D01*
X179831152Y-100598361D02*
X179831152Y-100788837D01*
X179831152Y-100788837D02*
X179878771Y-100884075D01*
X179878771Y-100884075D02*
X179926390Y-100931694D01*
X179926390Y-100931694D02*
X180021628Y-100979313D01*
X180021628Y-100979313D02*
X180212104Y-100979313D01*
X180212104Y-100979313D02*
X180307342Y-100931694D01*
X180307342Y-100931694D02*
X180354961Y-100884075D01*
X180354961Y-100884075D02*
X180402580Y-100788837D01*
X180402580Y-100788837D02*
X180402580Y-100598361D01*
X180402580Y-100598361D02*
X180354961Y-100503123D01*
X180354961Y-100503123D02*
X180307342Y-100455504D01*
X180307342Y-100455504D02*
X180212104Y-100407885D01*
X180212104Y-100407885D02*
X180021628Y-100407885D01*
X180021628Y-100407885D02*
X179926390Y-100455504D01*
X179926390Y-100455504D02*
X179878771Y-100503123D01*
X179878771Y-100503123D02*
X179831152Y-100598361D01*
D13*
%TO.C,U-PICO1*%
X210537380Y-136302856D02*
X211346904Y-136302856D01*
X211346904Y-136302856D02*
X211442142Y-136255237D01*
X211442142Y-136255237D02*
X211489761Y-136207618D01*
X211489761Y-136207618D02*
X211537380Y-136112380D01*
X211537380Y-136112380D02*
X211537380Y-135921904D01*
X211537380Y-135921904D02*
X211489761Y-135826666D01*
X211489761Y-135826666D02*
X211442142Y-135779047D01*
X211442142Y-135779047D02*
X211346904Y-135731428D01*
X211346904Y-135731428D02*
X210537380Y-135731428D01*
X211156428Y-135255237D02*
X211156428Y-134493333D01*
X211537380Y-134017142D02*
X210537380Y-134017142D01*
X210537380Y-134017142D02*
X210537380Y-133636190D01*
X210537380Y-133636190D02*
X210585000Y-133540952D01*
X210585000Y-133540952D02*
X210632619Y-133493333D01*
X210632619Y-133493333D02*
X210727857Y-133445714D01*
X210727857Y-133445714D02*
X210870714Y-133445714D01*
X210870714Y-133445714D02*
X210965952Y-133493333D01*
X210965952Y-133493333D02*
X211013571Y-133540952D01*
X211013571Y-133540952D02*
X211061190Y-133636190D01*
X211061190Y-133636190D02*
X211061190Y-134017142D01*
X211537380Y-133017142D02*
X210537380Y-133017142D01*
X211442142Y-131969524D02*
X211489761Y-132017143D01*
X211489761Y-132017143D02*
X211537380Y-132160000D01*
X211537380Y-132160000D02*
X211537380Y-132255238D01*
X211537380Y-132255238D02*
X211489761Y-132398095D01*
X211489761Y-132398095D02*
X211394523Y-132493333D01*
X211394523Y-132493333D02*
X211299285Y-132540952D01*
X211299285Y-132540952D02*
X211108809Y-132588571D01*
X211108809Y-132588571D02*
X210965952Y-132588571D01*
X210965952Y-132588571D02*
X210775476Y-132540952D01*
X210775476Y-132540952D02*
X210680238Y-132493333D01*
X210680238Y-132493333D02*
X210585000Y-132398095D01*
X210585000Y-132398095D02*
X210537380Y-132255238D01*
X210537380Y-132255238D02*
X210537380Y-132160000D01*
X210537380Y-132160000D02*
X210585000Y-132017143D01*
X210585000Y-132017143D02*
X210632619Y-131969524D01*
X210537380Y-131350476D02*
X210537380Y-131160000D01*
X210537380Y-131160000D02*
X210585000Y-131064762D01*
X210585000Y-131064762D02*
X210680238Y-130969524D01*
X210680238Y-130969524D02*
X210870714Y-130921905D01*
X210870714Y-130921905D02*
X211204047Y-130921905D01*
X211204047Y-130921905D02*
X211394523Y-130969524D01*
X211394523Y-130969524D02*
X211489761Y-131064762D01*
X211489761Y-131064762D02*
X211537380Y-131160000D01*
X211537380Y-131160000D02*
X211537380Y-131350476D01*
X211537380Y-131350476D02*
X211489761Y-131445714D01*
X211489761Y-131445714D02*
X211394523Y-131540952D01*
X211394523Y-131540952D02*
X211204047Y-131588571D01*
X211204047Y-131588571D02*
X210870714Y-131588571D01*
X210870714Y-131588571D02*
X210680238Y-131540952D01*
X210680238Y-131540952D02*
X210585000Y-131445714D01*
X210585000Y-131445714D02*
X210537380Y-131350476D01*
X211537380Y-129969524D02*
X211537380Y-130540952D01*
X211537380Y-130255238D02*
X210537380Y-130255238D01*
X210537380Y-130255238D02*
X210680238Y-130350476D01*
X210680238Y-130350476D02*
X210775476Y-130445714D01*
X210775476Y-130445714D02*
X210823095Y-130540952D01*
D10*
%TO.C,5V1*%
X177514333Y-87606980D02*
X177038143Y-87606980D01*
X177038143Y-87606980D02*
X176990524Y-88083171D01*
X176990524Y-88083171D02*
X177038143Y-88035552D01*
X177038143Y-88035552D02*
X177133381Y-87987933D01*
X177133381Y-87987933D02*
X177371476Y-87987933D01*
X177371476Y-87987933D02*
X177466714Y-88035552D01*
X177466714Y-88035552D02*
X177514333Y-88083171D01*
X177514333Y-88083171D02*
X177561952Y-88178409D01*
X177561952Y-88178409D02*
X177561952Y-88416504D01*
X177561952Y-88416504D02*
X177514333Y-88511742D01*
X177514333Y-88511742D02*
X177466714Y-88559361D01*
X177466714Y-88559361D02*
X177371476Y-88606980D01*
X177371476Y-88606980D02*
X177133381Y-88606980D01*
X177133381Y-88606980D02*
X177038143Y-88559361D01*
X177038143Y-88559361D02*
X176990524Y-88511742D01*
X177847667Y-87606980D02*
X178181000Y-88606980D01*
X178181000Y-88606980D02*
X178514333Y-87606980D01*
X179371476Y-88606980D02*
X178800048Y-88606980D01*
X179085762Y-88606980D02*
X179085762Y-87606980D01*
X179085762Y-87606980D02*
X178990524Y-87749838D01*
X178990524Y-87749838D02*
X178895286Y-87845076D01*
X178895286Y-87845076D02*
X178800048Y-87892695D01*
%TO.C,RGB1*%
X220905533Y-118223380D02*
X220572200Y-117747190D01*
X220334105Y-118223380D02*
X220334105Y-117223380D01*
X220334105Y-117223380D02*
X220715057Y-117223380D01*
X220715057Y-117223380D02*
X220810295Y-117271000D01*
X220810295Y-117271000D02*
X220857914Y-117318619D01*
X220857914Y-117318619D02*
X220905533Y-117413857D01*
X220905533Y-117413857D02*
X220905533Y-117556714D01*
X220905533Y-117556714D02*
X220857914Y-117651952D01*
X220857914Y-117651952D02*
X220810295Y-117699571D01*
X220810295Y-117699571D02*
X220715057Y-117747190D01*
X220715057Y-117747190D02*
X220334105Y-117747190D01*
X221857914Y-117271000D02*
X221762676Y-117223380D01*
X221762676Y-117223380D02*
X221619819Y-117223380D01*
X221619819Y-117223380D02*
X221476962Y-117271000D01*
X221476962Y-117271000D02*
X221381724Y-117366238D01*
X221381724Y-117366238D02*
X221334105Y-117461476D01*
X221334105Y-117461476D02*
X221286486Y-117651952D01*
X221286486Y-117651952D02*
X221286486Y-117794809D01*
X221286486Y-117794809D02*
X221334105Y-117985285D01*
X221334105Y-117985285D02*
X221381724Y-118080523D01*
X221381724Y-118080523D02*
X221476962Y-118175761D01*
X221476962Y-118175761D02*
X221619819Y-118223380D01*
X221619819Y-118223380D02*
X221715057Y-118223380D01*
X221715057Y-118223380D02*
X221857914Y-118175761D01*
X221857914Y-118175761D02*
X221905533Y-118128142D01*
X221905533Y-118128142D02*
X221905533Y-117794809D01*
X221905533Y-117794809D02*
X221715057Y-117794809D01*
X222667438Y-117699571D02*
X222810295Y-117747190D01*
X222810295Y-117747190D02*
X222857914Y-117794809D01*
X222857914Y-117794809D02*
X222905533Y-117890047D01*
X222905533Y-117890047D02*
X222905533Y-118032904D01*
X222905533Y-118032904D02*
X222857914Y-118128142D01*
X222857914Y-118128142D02*
X222810295Y-118175761D01*
X222810295Y-118175761D02*
X222715057Y-118223380D01*
X222715057Y-118223380D02*
X222334105Y-118223380D01*
X222334105Y-118223380D02*
X222334105Y-117223380D01*
X222334105Y-117223380D02*
X222667438Y-117223380D01*
X222667438Y-117223380D02*
X222762676Y-117271000D01*
X222762676Y-117271000D02*
X222810295Y-117318619D01*
X222810295Y-117318619D02*
X222857914Y-117413857D01*
X222857914Y-117413857D02*
X222857914Y-117509095D01*
X222857914Y-117509095D02*
X222810295Y-117604333D01*
X222810295Y-117604333D02*
X222762676Y-117651952D01*
X222762676Y-117651952D02*
X222667438Y-117699571D01*
X222667438Y-117699571D02*
X222334105Y-117699571D01*
X223857914Y-118223380D02*
X223286486Y-118223380D01*
X223572200Y-118223380D02*
X223572200Y-117223380D01*
X223572200Y-117223380D02*
X223476962Y-117366238D01*
X223476962Y-117366238D02*
X223381724Y-117461476D01*
X223381724Y-117461476D02*
X223286486Y-117509095D01*
%TO.C,D1*%
X201662380Y-79473094D02*
X200662380Y-79473094D01*
X200662380Y-79473094D02*
X200662380Y-79234999D01*
X200662380Y-79234999D02*
X200710000Y-79092142D01*
X200710000Y-79092142D02*
X200805238Y-78996904D01*
X200805238Y-78996904D02*
X200900476Y-78949285D01*
X200900476Y-78949285D02*
X201090952Y-78901666D01*
X201090952Y-78901666D02*
X201233809Y-78901666D01*
X201233809Y-78901666D02*
X201424285Y-78949285D01*
X201424285Y-78949285D02*
X201519523Y-78996904D01*
X201519523Y-78996904D02*
X201614761Y-79092142D01*
X201614761Y-79092142D02*
X201662380Y-79234999D01*
X201662380Y-79234999D02*
X201662380Y-79473094D01*
X201662380Y-77949285D02*
X201662380Y-78520713D01*
X201662380Y-78234999D02*
X200662380Y-78234999D01*
X200662380Y-78234999D02*
X200805238Y-78330237D01*
X200805238Y-78330237D02*
X200900476Y-78425475D01*
X200900476Y-78425475D02*
X200948095Y-78520713D01*
%TO.C,Shock1*%
X245048761Y-103160199D02*
X245096380Y-103017342D01*
X245096380Y-103017342D02*
X245096380Y-102779247D01*
X245096380Y-102779247D02*
X245048761Y-102684009D01*
X245048761Y-102684009D02*
X245001142Y-102636390D01*
X245001142Y-102636390D02*
X244905904Y-102588771D01*
X244905904Y-102588771D02*
X244810666Y-102588771D01*
X244810666Y-102588771D02*
X244715428Y-102636390D01*
X244715428Y-102636390D02*
X244667809Y-102684009D01*
X244667809Y-102684009D02*
X244620190Y-102779247D01*
X244620190Y-102779247D02*
X244572571Y-102969723D01*
X244572571Y-102969723D02*
X244524952Y-103064961D01*
X244524952Y-103064961D02*
X244477333Y-103112580D01*
X244477333Y-103112580D02*
X244382095Y-103160199D01*
X244382095Y-103160199D02*
X244286857Y-103160199D01*
X244286857Y-103160199D02*
X244191619Y-103112580D01*
X244191619Y-103112580D02*
X244144000Y-103064961D01*
X244144000Y-103064961D02*
X244096380Y-102969723D01*
X244096380Y-102969723D02*
X244096380Y-102731628D01*
X244096380Y-102731628D02*
X244144000Y-102588771D01*
X245096380Y-102160199D02*
X244096380Y-102160199D01*
X245096380Y-101731628D02*
X244572571Y-101731628D01*
X244572571Y-101731628D02*
X244477333Y-101779247D01*
X244477333Y-101779247D02*
X244429714Y-101874485D01*
X244429714Y-101874485D02*
X244429714Y-102017342D01*
X244429714Y-102017342D02*
X244477333Y-102112580D01*
X244477333Y-102112580D02*
X244524952Y-102160199D01*
X245096380Y-101112580D02*
X245048761Y-101207818D01*
X245048761Y-101207818D02*
X245001142Y-101255437D01*
X245001142Y-101255437D02*
X244905904Y-101303056D01*
X244905904Y-101303056D02*
X244620190Y-101303056D01*
X244620190Y-101303056D02*
X244524952Y-101255437D01*
X244524952Y-101255437D02*
X244477333Y-101207818D01*
X244477333Y-101207818D02*
X244429714Y-101112580D01*
X244429714Y-101112580D02*
X244429714Y-100969723D01*
X244429714Y-100969723D02*
X244477333Y-100874485D01*
X244477333Y-100874485D02*
X244524952Y-100826866D01*
X244524952Y-100826866D02*
X244620190Y-100779247D01*
X244620190Y-100779247D02*
X244905904Y-100779247D01*
X244905904Y-100779247D02*
X245001142Y-100826866D01*
X245001142Y-100826866D02*
X245048761Y-100874485D01*
X245048761Y-100874485D02*
X245096380Y-100969723D01*
X245096380Y-100969723D02*
X245096380Y-101112580D01*
X245048761Y-99922104D02*
X245096380Y-100017342D01*
X245096380Y-100017342D02*
X245096380Y-100207818D01*
X245096380Y-100207818D02*
X245048761Y-100303056D01*
X245048761Y-100303056D02*
X245001142Y-100350675D01*
X245001142Y-100350675D02*
X244905904Y-100398294D01*
X244905904Y-100398294D02*
X244620190Y-100398294D01*
X244620190Y-100398294D02*
X244524952Y-100350675D01*
X244524952Y-100350675D02*
X244477333Y-100303056D01*
X244477333Y-100303056D02*
X244429714Y-100207818D01*
X244429714Y-100207818D02*
X244429714Y-100017342D01*
X244429714Y-100017342D02*
X244477333Y-99922104D01*
X245096380Y-99493532D02*
X244096380Y-99493532D01*
X244715428Y-99398294D02*
X245096380Y-99112580D01*
X244429714Y-99112580D02*
X244810666Y-99493532D01*
X245096380Y-98160199D02*
X245096380Y-98731627D01*
X245096380Y-98445913D02*
X244096380Y-98445913D01*
X244096380Y-98445913D02*
X244239238Y-98541151D01*
X244239238Y-98541151D02*
X244334476Y-98636389D01*
X244334476Y-98636389D02*
X244382095Y-98731627D01*
%TO.C,PIR2*%
X233132980Y-103431789D02*
X232132980Y-103431789D01*
X232132980Y-103431789D02*
X232132980Y-103050837D01*
X232132980Y-103050837D02*
X232180600Y-102955599D01*
X232180600Y-102955599D02*
X232228219Y-102907980D01*
X232228219Y-102907980D02*
X232323457Y-102860361D01*
X232323457Y-102860361D02*
X232466314Y-102860361D01*
X232466314Y-102860361D02*
X232561552Y-102907980D01*
X232561552Y-102907980D02*
X232609171Y-102955599D01*
X232609171Y-102955599D02*
X232656790Y-103050837D01*
X232656790Y-103050837D02*
X232656790Y-103431789D01*
X233132980Y-102431789D02*
X232132980Y-102431789D01*
X233132980Y-101384171D02*
X232656790Y-101717504D01*
X233132980Y-101955599D02*
X232132980Y-101955599D01*
X232132980Y-101955599D02*
X232132980Y-101574647D01*
X232132980Y-101574647D02*
X232180600Y-101479409D01*
X232180600Y-101479409D02*
X232228219Y-101431790D01*
X232228219Y-101431790D02*
X232323457Y-101384171D01*
X232323457Y-101384171D02*
X232466314Y-101384171D01*
X232466314Y-101384171D02*
X232561552Y-101431790D01*
X232561552Y-101431790D02*
X232609171Y-101479409D01*
X232609171Y-101479409D02*
X232656790Y-101574647D01*
X232656790Y-101574647D02*
X232656790Y-101955599D01*
X232228219Y-101003218D02*
X232180600Y-100955599D01*
X232180600Y-100955599D02*
X232132980Y-100860361D01*
X232132980Y-100860361D02*
X232132980Y-100622266D01*
X232132980Y-100622266D02*
X232180600Y-100527028D01*
X232180600Y-100527028D02*
X232228219Y-100479409D01*
X232228219Y-100479409D02*
X232323457Y-100431790D01*
X232323457Y-100431790D02*
X232418695Y-100431790D01*
X232418695Y-100431790D02*
X232561552Y-100479409D01*
X232561552Y-100479409D02*
X233132980Y-101050837D01*
X233132980Y-101050837D02*
X233132980Y-100431790D01*
%TO.C,R1*%
X189557380Y-112311666D02*
X189081190Y-112644999D01*
X189557380Y-112883094D02*
X188557380Y-112883094D01*
X188557380Y-112883094D02*
X188557380Y-112502142D01*
X188557380Y-112502142D02*
X188605000Y-112406904D01*
X188605000Y-112406904D02*
X188652619Y-112359285D01*
X188652619Y-112359285D02*
X188747857Y-112311666D01*
X188747857Y-112311666D02*
X188890714Y-112311666D01*
X188890714Y-112311666D02*
X188985952Y-112359285D01*
X188985952Y-112359285D02*
X189033571Y-112406904D01*
X189033571Y-112406904D02*
X189081190Y-112502142D01*
X189081190Y-112502142D02*
X189081190Y-112883094D01*
X189557380Y-111359285D02*
X189557380Y-111930713D01*
X189557380Y-111644999D02*
X188557380Y-111644999D01*
X188557380Y-111644999D02*
X188700238Y-111740237D01*
X188700238Y-111740237D02*
X188795476Y-111835475D01*
X188795476Y-111835475D02*
X188843095Y-111930713D01*
%TO.C,C6*%
X185856742Y-114054866D02*
X185904361Y-114102485D01*
X185904361Y-114102485D02*
X185951980Y-114245342D01*
X185951980Y-114245342D02*
X185951980Y-114340580D01*
X185951980Y-114340580D02*
X185904361Y-114483437D01*
X185904361Y-114483437D02*
X185809123Y-114578675D01*
X185809123Y-114578675D02*
X185713885Y-114626294D01*
X185713885Y-114626294D02*
X185523409Y-114673913D01*
X185523409Y-114673913D02*
X185380552Y-114673913D01*
X185380552Y-114673913D02*
X185190076Y-114626294D01*
X185190076Y-114626294D02*
X185094838Y-114578675D01*
X185094838Y-114578675D02*
X184999600Y-114483437D01*
X184999600Y-114483437D02*
X184951980Y-114340580D01*
X184951980Y-114340580D02*
X184951980Y-114245342D01*
X184951980Y-114245342D02*
X184999600Y-114102485D01*
X184999600Y-114102485D02*
X185047219Y-114054866D01*
X184951980Y-113197723D02*
X184951980Y-113388199D01*
X184951980Y-113388199D02*
X184999600Y-113483437D01*
X184999600Y-113483437D02*
X185047219Y-113531056D01*
X185047219Y-113531056D02*
X185190076Y-113626294D01*
X185190076Y-113626294D02*
X185380552Y-113673913D01*
X185380552Y-113673913D02*
X185761504Y-113673913D01*
X185761504Y-113673913D02*
X185856742Y-113626294D01*
X185856742Y-113626294D02*
X185904361Y-113578675D01*
X185904361Y-113578675D02*
X185951980Y-113483437D01*
X185951980Y-113483437D02*
X185951980Y-113292961D01*
X185951980Y-113292961D02*
X185904361Y-113197723D01*
X185904361Y-113197723D02*
X185856742Y-113150104D01*
X185856742Y-113150104D02*
X185761504Y-113102485D01*
X185761504Y-113102485D02*
X185523409Y-113102485D01*
X185523409Y-113102485D02*
X185428171Y-113150104D01*
X185428171Y-113150104D02*
X185380552Y-113197723D01*
X185380552Y-113197723D02*
X185332933Y-113292961D01*
X185332933Y-113292961D02*
X185332933Y-113483437D01*
X185332933Y-113483437D02*
X185380552Y-113578675D01*
X185380552Y-113578675D02*
X185428171Y-113626294D01*
X185428171Y-113626294D02*
X185523409Y-113673913D01*
%TO.C,D2*%
X195567380Y-117324094D02*
X194567380Y-117324094D01*
X194567380Y-117324094D02*
X194567380Y-117085999D01*
X194567380Y-117085999D02*
X194615000Y-116943142D01*
X194615000Y-116943142D02*
X194710238Y-116847904D01*
X194710238Y-116847904D02*
X194805476Y-116800285D01*
X194805476Y-116800285D02*
X194995952Y-116752666D01*
X194995952Y-116752666D02*
X195138809Y-116752666D01*
X195138809Y-116752666D02*
X195329285Y-116800285D01*
X195329285Y-116800285D02*
X195424523Y-116847904D01*
X195424523Y-116847904D02*
X195519761Y-116943142D01*
X195519761Y-116943142D02*
X195567380Y-117085999D01*
X195567380Y-117085999D02*
X195567380Y-117324094D01*
X194662619Y-116371713D02*
X194615000Y-116324094D01*
X194615000Y-116324094D02*
X194567380Y-116228856D01*
X194567380Y-116228856D02*
X194567380Y-115990761D01*
X194567380Y-115990761D02*
X194615000Y-115895523D01*
X194615000Y-115895523D02*
X194662619Y-115847904D01*
X194662619Y-115847904D02*
X194757857Y-115800285D01*
X194757857Y-115800285D02*
X194853095Y-115800285D01*
X194853095Y-115800285D02*
X194995952Y-115847904D01*
X194995952Y-115847904D02*
X195567380Y-116419332D01*
X195567380Y-116419332D02*
X195567380Y-115800285D01*
%TO.C,R2*%
X191363333Y-106942380D02*
X191030000Y-106466190D01*
X190791905Y-106942380D02*
X190791905Y-105942380D01*
X190791905Y-105942380D02*
X191172857Y-105942380D01*
X191172857Y-105942380D02*
X191268095Y-105990000D01*
X191268095Y-105990000D02*
X191315714Y-106037619D01*
X191315714Y-106037619D02*
X191363333Y-106132857D01*
X191363333Y-106132857D02*
X191363333Y-106275714D01*
X191363333Y-106275714D02*
X191315714Y-106370952D01*
X191315714Y-106370952D02*
X191268095Y-106418571D01*
X191268095Y-106418571D02*
X191172857Y-106466190D01*
X191172857Y-106466190D02*
X190791905Y-106466190D01*
X191744286Y-106037619D02*
X191791905Y-105990000D01*
X191791905Y-105990000D02*
X191887143Y-105942380D01*
X191887143Y-105942380D02*
X192125238Y-105942380D01*
X192125238Y-105942380D02*
X192220476Y-105990000D01*
X192220476Y-105990000D02*
X192268095Y-106037619D01*
X192268095Y-106037619D02*
X192315714Y-106132857D01*
X192315714Y-106132857D02*
X192315714Y-106228095D01*
X192315714Y-106228095D02*
X192268095Y-106370952D01*
X192268095Y-106370952D02*
X191696667Y-106942380D01*
X191696667Y-106942380D02*
X192315714Y-106942380D01*
%TO.C,U3*%
X200722089Y-105032446D02*
X200722089Y-105552117D01*
X200722089Y-105552117D02*
X200752658Y-105613255D01*
X200752658Y-105613255D02*
X200783227Y-105643824D01*
X200783227Y-105643824D02*
X200844365Y-105674393D01*
X200844365Y-105674393D02*
X200966640Y-105674393D01*
X200966640Y-105674393D02*
X201027778Y-105643824D01*
X201027778Y-105643824D02*
X201058347Y-105613255D01*
X201058347Y-105613255D02*
X201088916Y-105552117D01*
X201088916Y-105552117D02*
X201088916Y-105032446D01*
X201333467Y-105032446D02*
X201730863Y-105032446D01*
X201730863Y-105032446D02*
X201516881Y-105276997D01*
X201516881Y-105276997D02*
X201608587Y-105276997D01*
X201608587Y-105276997D02*
X201669725Y-105307566D01*
X201669725Y-105307566D02*
X201700294Y-105338135D01*
X201700294Y-105338135D02*
X201730863Y-105399272D01*
X201730863Y-105399272D02*
X201730863Y-105552117D01*
X201730863Y-105552117D02*
X201700294Y-105613255D01*
X201700294Y-105613255D02*
X201669725Y-105643824D01*
X201669725Y-105643824D02*
X201608587Y-105674393D01*
X201608587Y-105674393D02*
X201425174Y-105674393D01*
X201425174Y-105674393D02*
X201364036Y-105643824D01*
X201364036Y-105643824D02*
X201333467Y-105613255D01*
D14*
%TO.C,LDR1*%
X186181800Y-122851400D02*
X186181800Y-120351400D01*
X186181800Y-120351400D02*
X183681800Y-120351400D01*
X185881800Y-124671400D02*
X185881800Y-120651400D01*
X185881800Y-122961400D02*
X185381800Y-122961400D01*
X185881800Y-122151400D02*
X184881800Y-122151400D01*
X185881800Y-120651400D02*
X173161800Y-120651400D01*
X185381800Y-124171400D02*
X173661800Y-124171400D01*
X185381800Y-122961400D02*
X185381800Y-124171400D01*
X184881800Y-122151400D02*
X184881800Y-120651400D01*
X174161800Y-122151400D02*
X174161800Y-120651400D01*
X173661800Y-124171400D02*
X173661800Y-122961400D01*
X173661800Y-122961400D02*
X173161800Y-122961400D01*
X173161800Y-124671400D02*
X185881800Y-124671400D01*
X173161800Y-122151400D02*
X174161800Y-122151400D01*
X173161800Y-120651400D02*
X173161800Y-124671400D01*
%TO.C,U2*%
X194607500Y-107775000D02*
X192807500Y-107775000D01*
X194607500Y-107775000D02*
X195407500Y-107775000D01*
X194607500Y-110895000D02*
X193807500Y-110895000D01*
X194607500Y-110895000D02*
X195407500Y-110895000D01*
%TO.C,C10*%
X213025831Y-112790800D02*
X212475831Y-112790800D01*
X212750831Y-113065800D02*
X212750831Y-112515800D01*
X212823569Y-111175800D02*
G75*
G03*
X212823569Y-111175800I-2870000J0D01*
G01*
%TO.C,C9*%
X210210980Y-115800600D02*
X209929820Y-115800600D01*
X210210980Y-114780600D02*
X209929820Y-114780600D01*
D15*
%TO.C,F1*%
X232601000Y-96519000D02*
X239331000Y-96519000D01*
X239331000Y-96519000D02*
X239331000Y-76709000D01*
X232601000Y-76709000D02*
X232601000Y-96519000D01*
X239331000Y-76709000D02*
X232601000Y-76709000D01*
D14*
%TO.C,C3*%
X216078980Y-111330200D02*
X215797820Y-111330200D01*
X216078980Y-110310200D02*
X215797820Y-110310200D01*
%TO.C,C1*%
X191810000Y-109509420D02*
X191810000Y-109790580D01*
X190790000Y-109509420D02*
X190790000Y-109790580D01*
%TO.C,D3*%
X214933600Y-108467600D02*
X214933600Y-109667600D01*
X216893600Y-108467600D02*
X214933600Y-108467600D01*
X216893600Y-109667600D02*
X214933600Y-109667600D01*
%TO.C,3V3*%
X173820000Y-114810000D02*
X173820000Y-113480000D01*
X175150000Y-114810000D02*
X173820000Y-114810000D01*
X176420000Y-114810000D02*
X176480000Y-114810000D01*
X176420000Y-114810000D02*
X176420000Y-112150000D01*
X176480000Y-114810000D02*
X176480000Y-112150000D01*
X176420000Y-112150000D02*
X176480000Y-112150000D01*
%TO.C,U5*%
X208880000Y-102820000D02*
X208880000Y-107461000D01*
X208880000Y-102820000D02*
X219120000Y-102820000D01*
X208880000Y-104330000D02*
X219120000Y-104330000D01*
X208880000Y-107461000D02*
X219120000Y-107461000D01*
X212150000Y-102820000D02*
X212150000Y-104330000D01*
X215851000Y-102820000D02*
X215851000Y-104330000D01*
X219120000Y-102820000D02*
X219120000Y-107461000D01*
%TO.C,C5*%
X196035200Y-116828180D02*
X196035200Y-116547020D01*
X197055200Y-116828180D02*
X197055200Y-116547020D01*
%TO.C,U4*%
X173950000Y-104910000D02*
X173950000Y-109551000D01*
X173950000Y-104910000D02*
X184190000Y-104910000D01*
X173950000Y-106420000D02*
X184190000Y-106420000D01*
X173950000Y-109551000D02*
X184190000Y-109551000D01*
X177220000Y-104910000D02*
X177220000Y-106420000D01*
X180921000Y-104910000D02*
X180921000Y-106420000D01*
X184190000Y-104910000D02*
X184190000Y-109551000D01*
D12*
%TO.C,PS1*%
X202210000Y-101180000D02*
X202210000Y-75780000D01*
X227610000Y-101180000D02*
X202210000Y-101180000D01*
X202210000Y-75780000D02*
X227610000Y-75780000D01*
X227610000Y-75780000D02*
X227610000Y-101180000D01*
X225506980Y-102695000D02*
G75*
G03*
X225506980Y-102695000I-172980J0D01*
G01*
D14*
%TO.C,Batterij1*%
X173230000Y-90730000D02*
X172590000Y-90730000D01*
X172590000Y-90730000D02*
X172590000Y-91130000D01*
X179570000Y-90970000D02*
X172830000Y-90970000D01*
X179570000Y-90970000D02*
X179570000Y-96750000D01*
X178450000Y-90970000D02*
X178450000Y-96750000D01*
X173350000Y-90970000D02*
X173350000Y-96750000D01*
X172830000Y-90970000D02*
X172830000Y-96750000D01*
X179570000Y-96750000D02*
X172830000Y-96750000D01*
%TO.C,C2*%
X194918420Y-127252000D02*
X195199580Y-127252000D01*
X194918420Y-128272000D02*
X195199580Y-128272000D01*
%TO.C,J4*%
X248400000Y-116690000D02*
X248400000Y-144690000D01*
X248400000Y-116690000D02*
X251060000Y-116690000D01*
X248400000Y-144690000D02*
X251060000Y-144690000D01*
X249730000Y-114090000D02*
X251060000Y-114090000D01*
X251060000Y-114090000D02*
X251060000Y-115420000D01*
X251060000Y-116690000D02*
X251060000Y-144690000D01*
%TO.C,PIR1*%
X238319800Y-104307200D02*
X235819800Y-104307200D01*
X235819800Y-104307200D02*
X235819800Y-106807200D01*
X240139800Y-104607200D02*
X236119800Y-104607200D01*
X238429800Y-104607200D02*
X238429800Y-105107200D01*
X237619800Y-104607200D02*
X237619800Y-105607200D01*
X236119800Y-104607200D02*
X236119800Y-114827200D01*
X239639800Y-105107200D02*
X239639800Y-114327200D01*
X238429800Y-105107200D02*
X239639800Y-105107200D01*
X237619800Y-105607200D02*
X236119800Y-105607200D01*
X237619800Y-113827200D02*
X236119800Y-113827200D01*
X239639800Y-114327200D02*
X238429800Y-114327200D01*
X238429800Y-114327200D02*
X238429800Y-114827200D01*
X240139800Y-114827200D02*
X240139800Y-104607200D01*
X237619800Y-114827200D02*
X237619800Y-113827200D01*
X236119800Y-114827200D02*
X240139800Y-114827200D01*
%TO.C,J1*%
X243332000Y-96012000D02*
X243332000Y-80772000D01*
X249682000Y-96012000D02*
X249682000Y-80772000D01*
X250952000Y-96012000D02*
X243332000Y-96012000D01*
X250952000Y-96012000D02*
X250952000Y-80772000D01*
X250952000Y-80772000D02*
X243332000Y-80772000D01*
%TO.C,C7*%
X195871220Y-102918800D02*
X196152380Y-102918800D01*
X195871220Y-103938800D02*
X196152380Y-103938800D01*
%TO.C,U1*%
X180217600Y-75173600D02*
X200217600Y-75173600D01*
X200217600Y-75173600D02*
X200217600Y-102173600D01*
X200217600Y-102173600D02*
X180217600Y-102173600D01*
X180217600Y-102173600D02*
X180217600Y-75173600D01*
X187167600Y-74073600D02*
X193692600Y-74073600D01*
X193692600Y-74073600D02*
X193692600Y-75198600D01*
X193692600Y-75198600D02*
X187167600Y-75198600D01*
X187167600Y-75198600D02*
X187167600Y-74073600D01*
%TO.C,J3*%
X234180000Y-148290000D02*
X190940000Y-148290000D01*
X234180000Y-148290000D02*
X234180000Y-150950000D01*
X190940000Y-148290000D02*
X190940000Y-150950000D01*
X236780000Y-149620000D02*
X236780000Y-150950000D01*
X236780000Y-150950000D02*
X235450000Y-150950000D01*
X234180000Y-150950000D02*
X190940000Y-150950000D01*
%TO.C,C4*%
X218588431Y-116575400D02*
X218038431Y-116575400D01*
X218313431Y-116850400D02*
X218313431Y-116300400D01*
X218386169Y-114960400D02*
G75*
G03*
X218386169Y-114960400I-2870000J0D01*
G01*
%TO.C,C8*%
X179243831Y-102808600D02*
X178693831Y-102808600D01*
X178968831Y-103083600D02*
X178968831Y-102533600D01*
X179041569Y-101193600D02*
G75*
G03*
X179041569Y-101193600I-2870000J0D01*
G01*
%TO.C,U-PICO1*%
X188710000Y-143660000D02*
X189010000Y-143660000D01*
X188710000Y-143660000D02*
X188710000Y-122660000D01*
X191110000Y-143660000D02*
X191510000Y-143660000D01*
X191377000Y-143660000D02*
X191377000Y-140653000D01*
X193710000Y-143660000D02*
X194110000Y-143660000D01*
X196210000Y-143660000D02*
X196610000Y-143660000D01*
X198810000Y-143660000D02*
X199210000Y-143660000D01*
X201310000Y-143660000D02*
X201710000Y-143660000D01*
X203810000Y-143660000D02*
X204210000Y-143660000D01*
X206410000Y-143660000D02*
X206810000Y-143660000D01*
X208910000Y-143660000D02*
X209310000Y-143660000D01*
X211510000Y-143660000D02*
X211910000Y-143660000D01*
X214010000Y-143660000D02*
X214410000Y-143660000D01*
X216510000Y-143660000D02*
X216910000Y-143660000D01*
X219110000Y-143660000D02*
X219510000Y-143660000D01*
X221610000Y-143660000D02*
X222010000Y-143660000D01*
X224210000Y-143660000D02*
X224610000Y-143660000D01*
X226710000Y-143660000D02*
X227110000Y-143660000D01*
X229310000Y-143660000D02*
X229710000Y-143660000D01*
X231810000Y-143660000D02*
X232210000Y-143660000D01*
X234310000Y-143660000D02*
X234710000Y-143660000D01*
X236910000Y-143660000D02*
X237310000Y-143660000D01*
X191377000Y-140653000D02*
X188710000Y-140653000D01*
X239710000Y-136860000D02*
X239710000Y-143660000D01*
X239710000Y-134660000D02*
X239710000Y-134260000D01*
X239710000Y-132060000D02*
X239710000Y-131660000D01*
X188710000Y-122660000D02*
X189010000Y-122660000D01*
X191110000Y-122660000D02*
X191510000Y-122660000D01*
X193710000Y-122660000D02*
X194110000Y-122660000D01*
X196210000Y-122660000D02*
X196610000Y-122660000D01*
X198810000Y-122660000D02*
X199210000Y-122660000D01*
X201310000Y-122660000D02*
X201710000Y-122660000D01*
X203810000Y-122660000D02*
X204210000Y-122660000D01*
X206410000Y-122660000D02*
X206810000Y-122660000D01*
X208910000Y-122660000D02*
X209310000Y-122660000D01*
X211510000Y-122660000D02*
X211910000Y-122660000D01*
X214010000Y-122660000D02*
X214410000Y-122660000D01*
X216510000Y-122660000D02*
X216910000Y-122660000D01*
X219110000Y-122660000D02*
X219510000Y-122660000D01*
X221610000Y-122660000D02*
X222010000Y-122660000D01*
X224210000Y-122660000D02*
X224610000Y-122660000D01*
X226710000Y-122660000D02*
X227110000Y-122660000D01*
X229310000Y-122660000D02*
X229710000Y-122660000D01*
X231810000Y-122660000D02*
X232210000Y-122660000D01*
X234310000Y-122660000D02*
X234710000Y-122660000D01*
X236910000Y-122660000D02*
X237310000Y-122660000D01*
X239710000Y-122660000D02*
X239710000Y-129460000D01*
%TO.C,5V1*%
X173306000Y-80944000D02*
X172666000Y-80944000D01*
X172666000Y-80944000D02*
X172666000Y-81344000D01*
X179646000Y-81184000D02*
X172906000Y-81184000D01*
X179646000Y-81184000D02*
X179646000Y-86964000D01*
X178526000Y-81184000D02*
X178526000Y-86964000D01*
X173426000Y-81184000D02*
X173426000Y-86964000D01*
X172906000Y-81184000D02*
X172906000Y-86964000D01*
X179646000Y-86964000D02*
X172906000Y-86964000D01*
%TO.C,RGB1*%
X226585000Y-104245600D02*
X224085000Y-104245600D01*
X224085000Y-104245600D02*
X224085000Y-106745600D01*
X228405000Y-104545600D02*
X224385000Y-104545600D01*
X226695000Y-104545600D02*
X226695000Y-105045600D01*
X225885000Y-104545600D02*
X225885000Y-105545600D01*
X224385000Y-104545600D02*
X224385000Y-117265600D01*
X227905000Y-105045600D02*
X227905000Y-116765600D01*
X226695000Y-105045600D02*
X227905000Y-105045600D01*
X225885000Y-105545600D02*
X224385000Y-105545600D01*
X225885000Y-116265600D02*
X224385000Y-116265600D01*
X227905000Y-116765600D02*
X226695000Y-116765600D01*
X226695000Y-116765600D02*
X226695000Y-117265600D01*
X228405000Y-117265600D02*
X228405000Y-104545600D01*
X225885000Y-117265600D02*
X225885000Y-116265600D01*
X224385000Y-117265600D02*
X228405000Y-117265600D01*
%TO.C,D1*%
X200695000Y-82475000D02*
X201895000Y-82475000D01*
X200695000Y-80515000D02*
X200695000Y-82475000D01*
X201895000Y-80515000D02*
X201895000Y-82475000D01*
%TO.C,Shock1*%
X244441200Y-104281800D02*
X241941200Y-104281800D01*
X241941200Y-104281800D02*
X241941200Y-106781800D01*
X246261200Y-104581800D02*
X242241200Y-104581800D01*
X244551200Y-104581800D02*
X244551200Y-105081800D01*
X243741200Y-104581800D02*
X243741200Y-105581800D01*
X242241200Y-104581800D02*
X242241200Y-114801800D01*
X245761200Y-105081800D02*
X245761200Y-114301800D01*
X244551200Y-105081800D02*
X245761200Y-105081800D01*
X243741200Y-105581800D02*
X242241200Y-105581800D01*
X243741200Y-113801800D02*
X242241200Y-113801800D01*
X245761200Y-114301800D02*
X244551200Y-114301800D01*
X244551200Y-114301800D02*
X244551200Y-114801800D01*
X246261200Y-114801800D02*
X246261200Y-104581800D01*
X243741200Y-114801800D02*
X243741200Y-113801800D01*
X242241200Y-114801800D02*
X246261200Y-114801800D01*
%TO.C,PIR2*%
X232452400Y-104281800D02*
X229952400Y-104281800D01*
X229952400Y-104281800D02*
X229952400Y-106781800D01*
X234272400Y-104581800D02*
X230252400Y-104581800D01*
X232562400Y-104581800D02*
X232562400Y-105081800D01*
X231752400Y-104581800D02*
X231752400Y-105581800D01*
X230252400Y-104581800D02*
X230252400Y-114801800D01*
X233772400Y-105081800D02*
X233772400Y-114301800D01*
X232562400Y-105081800D02*
X233772400Y-105081800D01*
X231752400Y-105581800D02*
X230252400Y-105581800D01*
X231752400Y-113801800D02*
X230252400Y-113801800D01*
X233772400Y-114301800D02*
X232562400Y-114301800D01*
X232562400Y-114301800D02*
X232562400Y-114801800D01*
X234272400Y-114801800D02*
X234272400Y-104581800D01*
X231752400Y-114801800D02*
X231752400Y-113801800D01*
X230252400Y-114801800D02*
X234272400Y-114801800D01*
%TO.C,R1*%
X188767500Y-109887258D02*
X188767500Y-109412742D01*
X189812500Y-109887258D02*
X189812500Y-109412742D01*
%TO.C,P-1*%
X173930000Y-116018000D02*
X175260000Y-116018000D01*
X173930000Y-117348000D02*
X173930000Y-116018000D01*
X173930000Y-118618000D02*
X173930000Y-118678000D01*
X173930000Y-118618000D02*
X176590000Y-118618000D01*
X173930000Y-118678000D02*
X176590000Y-118678000D01*
X176590000Y-118618000D02*
X176590000Y-118678000D01*
%TO.C,C6*%
X183199600Y-110815938D02*
X183199600Y-111365938D01*
X183474600Y-111090938D02*
X182924600Y-111090938D01*
X184454600Y-113888200D02*
G75*
G03*
X184454600Y-113888200I-2870000J0D01*
G01*
%TO.C,D2*%
X194500000Y-115326000D02*
X193300000Y-115326000D01*
X194500000Y-117286000D02*
X194500000Y-115326000D01*
X193300000Y-117286000D02*
X193300000Y-115326000D01*
%TO.C,R2*%
X194342258Y-107097500D02*
X193867742Y-107097500D01*
X194342258Y-106052500D02*
X193867742Y-106052500D01*
D15*
%TO.C,U3*%
X199480000Y-106155000D02*
X203480000Y-106155000D01*
X199480000Y-111355000D02*
X203480000Y-111355000D01*
D16*
X197280000Y-106855000D02*
G75*
G03*
X197280000Y-106855000I-100000J0D01*
G01*
%TD*%
M02*
