%TF.GenerationSoftware,KiCad,Pcbnew,(7.0.0)*%
%TF.CreationDate,2023-12-21T13:58:15+01:00*%
%TF.ProjectId,PCB-light-challenge,5043422d-6c69-4676-9874-2d6368616c6c,rev?*%
%TF.SameCoordinates,Original*%
%TF.FileFunction,Soldermask,Bot*%
%TF.FilePolarity,Negative*%
%FSLAX46Y46*%
G04 Gerber Fmt 4.6, Leading zero omitted, Abs format (unit mm)*
G04 Created by KiCad (PCBNEW (7.0.0)) date 2023-12-21 13:58:15*
%MOMM*%
%LPD*%
G01*
G04 APERTURE LIST*
G04 Aperture macros list*
%AMRoundRect*
0 Rectangle with rounded corners*
0 $1 Rounding radius*
0 $2 $3 $4 $5 $6 $7 $8 $9 X,Y pos of 4 corners*
0 Add a 4 corners polygon primitive as box body*
4,1,4,$2,$3,$4,$5,$6,$7,$8,$9,$2,$3,0*
0 Add four circle primitives for the rounded corners*
1,1,$1+$1,$2,$3*
1,1,$1+$1,$4,$5*
1,1,$1+$1,$6,$7*
1,1,$1+$1,$8,$9*
0 Add four rect primitives between the rounded corners*
20,1,$1+$1,$2,$3,$4,$5,0*
20,1,$1+$1,$4,$5,$6,$7,0*
20,1,$1+$1,$6,$7,$8,$9,0*
20,1,$1+$1,$8,$9,$2,$3,0*%
G04 Aperture macros list end*
%ADD10C,5.600000*%
%ADD11RoundRect,0.250000X0.600000X0.725000X-0.600000X0.725000X-0.600000X-0.725000X0.600000X-0.725000X0*%
%ADD12O,1.700000X1.950000*%
%ADD13R,1.600000X1.600000*%
%ADD14C,1.600000*%
%ADD15C,2.604000*%
%ADD16R,1.700000X1.700000*%
%ADD17R,1.905000X2.000000*%
%ADD18O,1.905000X2.000000*%
%ADD19C,1.750000*%
%ADD20R,2.100000X2.100000*%
%ADD21C,2.100000*%
%ADD22O,1.700000X1.700000*%
%ADD23RoundRect,0.250000X-0.725000X0.600000X-0.725000X-0.600000X0.725000X-0.600000X0.725000X0.600000X0*%
%ADD24O,1.950000X1.700000*%
%ADD25R,3.000000X3.000000*%
%ADD26C,3.000000*%
%ADD27R,2.000000X2.000000*%
G04 APERTURE END LIST*
D10*
%TO.C,H1*%
X175691800Y-148894800D03*
%TD*%
D11*
%TO.C,LDR1*%
X183271800Y-122961400D03*
D12*
X180771799Y-122961399D03*
X178271799Y-122961399D03*
X175771799Y-122961399D03*
%TD*%
D13*
%TO.C,C10*%
X211203568Y-111175799D03*
D14*
X208703569Y-111175800D03*
%TD*%
D15*
%TO.C,F1*%
X234266000Y-93349000D03*
X237666000Y-93349000D03*
X234266000Y-79879000D03*
X237666000Y-79879000D03*
%TD*%
D16*
%TO.C,3V3*%
X175149999Y-113479999D03*
%TD*%
D17*
%TO.C,U5*%
X211459999Y-106089999D03*
D18*
X213999999Y-106089999D03*
X216539999Y-106089999D03*
%TD*%
D17*
%TO.C,U4*%
X176529999Y-108179999D03*
D18*
X179069999Y-108179999D03*
X181609999Y-108179999D03*
%TD*%
D19*
%TO.C,PS1*%
X225060000Y-98640000D03*
X225060000Y-93560000D03*
X204760000Y-78320000D03*
X204760000Y-88480000D03*
X204760000Y-98640000D03*
%TD*%
D20*
%TO.C,Batterij1*%
X176199999Y-92589999D03*
D21*
X176200000Y-95130000D03*
%TD*%
D16*
%TO.C,J4*%
X249729999Y-115419999D03*
D22*
X249729999Y-117959999D03*
X249729999Y-120499999D03*
X249729999Y-123039999D03*
X249729999Y-125579999D03*
X249729999Y-128119999D03*
X249729999Y-130659999D03*
X249729999Y-133199999D03*
X249729999Y-135739999D03*
X249729999Y-138279999D03*
X249729999Y-140819999D03*
X249729999Y-143359999D03*
%TD*%
D23*
%TO.C,PIR1*%
X238429800Y-107217200D03*
D24*
X238429799Y-109717199D03*
X238429799Y-112217199D03*
%TD*%
D10*
%TO.C,H3*%
X249097800Y-76377800D03*
%TD*%
D25*
%TO.C,J1*%
X247141999Y-93471999D03*
D26*
X247142000Y-88392000D03*
X247142000Y-83312000D03*
%TD*%
D27*
%TO.C,U1*%
X183567599Y-99923599D03*
X197967599Y-99923599D03*
X186367599Y-99923599D03*
X195217599Y-99923599D03*
X183717599Y-76873599D03*
X197917599Y-76998599D03*
%TD*%
D16*
%TO.C,J3*%
X235449999Y-149619999D03*
D22*
X232909999Y-149619999D03*
X230369999Y-149619999D03*
X227829999Y-149619999D03*
X225289999Y-149619999D03*
X222749999Y-149619999D03*
X220209999Y-149619999D03*
X217669999Y-149619999D03*
X215129999Y-149619999D03*
X212589999Y-149619999D03*
X210049999Y-149619999D03*
X207509999Y-149619999D03*
X204969999Y-149619999D03*
X202429999Y-149619999D03*
X199889999Y-149619999D03*
X197349999Y-149619999D03*
X194809999Y-149619999D03*
X192269999Y-149619999D03*
%TD*%
D13*
%TO.C,C4*%
X216766168Y-114960399D03*
D14*
X214266169Y-114960400D03*
%TD*%
D13*
%TO.C,C8*%
X177421568Y-101193599D03*
D14*
X174921569Y-101193600D03*
%TD*%
D22*
%TO.C,U-PICO1*%
X190079999Y-142049999D03*
X192619999Y-142049999D03*
D16*
X195159999Y-142049999D03*
D22*
X197699999Y-142049999D03*
X200239999Y-142049999D03*
X202779999Y-142049999D03*
X205319999Y-142049999D03*
D16*
X207859999Y-142049999D03*
D22*
X210399999Y-142049999D03*
X212939999Y-142049999D03*
X215479999Y-142049999D03*
X218019999Y-142049999D03*
D16*
X220559999Y-142049999D03*
D22*
X223099999Y-142049999D03*
X225639999Y-142049999D03*
X228179999Y-142049999D03*
X230719999Y-142049999D03*
D16*
X233259999Y-142049999D03*
D22*
X235799999Y-142049999D03*
X238339999Y-142049999D03*
X238339999Y-124269999D03*
X235799999Y-124269999D03*
D16*
X233259999Y-124269999D03*
D22*
X230719999Y-124269999D03*
X228179999Y-124269999D03*
X225639999Y-124269999D03*
X223099999Y-124269999D03*
D16*
X220559999Y-124269999D03*
D22*
X218019999Y-124269999D03*
X215479999Y-124269999D03*
X212939999Y-124269999D03*
X210399999Y-124269999D03*
D16*
X207859999Y-124269999D03*
D22*
X205319999Y-124269999D03*
X202779999Y-124269999D03*
X200239999Y-124269999D03*
X197699999Y-124269999D03*
D16*
X195159999Y-124269999D03*
D22*
X192619999Y-124269999D03*
X190079999Y-124269999D03*
%TD*%
D20*
%TO.C,5V1*%
X176275999Y-82803999D03*
D21*
X176276000Y-85344000D03*
%TD*%
D23*
%TO.C,RGB1*%
X226695000Y-107155600D03*
D24*
X226694999Y-109655599D03*
X226694999Y-112155599D03*
X226694999Y-114655599D03*
%TD*%
D10*
%TO.C,H2*%
X175691800Y-76377800D03*
%TD*%
D23*
%TO.C,Shock1*%
X244551200Y-107191800D03*
D24*
X244551199Y-109691799D03*
X244551199Y-112191799D03*
%TD*%
D10*
%TO.C,H4*%
X249072400Y-148894800D03*
%TD*%
D23*
%TO.C,PIR2*%
X232562400Y-107191800D03*
D24*
X232562399Y-109691799D03*
X232562399Y-112191799D03*
%TD*%
D16*
%TO.C,P-1*%
X175259999Y-117347999D03*
%TD*%
D13*
%TO.C,C6*%
X181584599Y-112638199D03*
D14*
X181584600Y-115138200D03*
%TD*%
M02*
