M48
; DRILL file {KiCad (7.0.0)} date Thu Dec 21 13:58:19 2023
; FORMAT={-:-/ absolute / metric / decimal}
; #@! TF.CreationDate,2023-12-21T13:58:19+01:00
; #@! TF.GenerationSoftware,Kicad,Pcbnew,(7.0.0)
; #@! TF.FileFunction,Plated,1,2,PTH
FMAT,2
METRIC
; #@! TA.AperFunction,Plated,PTH,ViaDrill
T1C0.250
; #@! TA.AperFunction,Plated,PTH,ViaDrill
T2C0.400
; #@! TA.AperFunction,Plated,PTH,ViaDrill
T3C0.450
; #@! TA.AperFunction,Plated,PTH,ViaDrill
T4C0.600
; #@! TA.AperFunction,Plated,PTH,ComponentDrill
T5C0.800
; #@! TA.AperFunction,Plated,PTH,ComponentDrill
T6C0.950
; #@! TA.AperFunction,Plated,PTH,ComponentDrill
T7C1.000
; #@! TA.AperFunction,Plated,PTH,ComponentDrill
T8C1.020
; #@! TA.AperFunction,Plated,PTH,ComponentDrill
T9C1.100
; #@! TA.AperFunction,Plated,PTH,ComponentDrill
T10C1.150
; #@! TA.AperFunction,Plated,PTH,ComponentDrill
T11C1.520
; #@! TA.AperFunction,Plated,PTH,ComponentDrill
T12C1.600
; #@! TA.AperFunction,Plated,PTH,ComponentDrill
T13C3.200
%
G90
G05
T1
X173.761Y-141.808
X180.924Y-130.48
X181.61Y-128.321
X182.042Y-126.086
X182.14Y-148.86
X185.826Y-111.963
X187.96Y-148.72
X188.316Y-106.451
X188.45Y-129.4
X188.46Y-127.31
X188.595Y-146.558
X190.271Y-112.37
X190.322Y-105.74
X191.39Y-145.81
X192.938Y-112.166
X195.707Y-147.32
X197.74Y-127.35
X197.993Y-113.157
X198.374Y-147.574
X198.653Y-104.597
X199.136Y-146.05
X201.066Y-118.897
X201.879Y-146.507
X202.082Y-109.779
X204.292Y-146.253
X205.18Y-128.74
X207.264Y-118.897
X208.915Y-146.05
X211.53Y-146.08
X212.242Y-118.872
X214.11Y-145.92
X216.76Y-145.91
X217.018Y-118.669
X219.15Y-145.96
X220.726Y-139.446
X221.996Y-147.32
X224.028Y-137.795
X224.155Y-132.461
X224.536Y-147.447
X226.085Y-119.431
X226.441Y-128.905
X226.949Y-147.32
X227.584Y-135.89
X228.905Y-119.405
X229.616Y-130.683
X229.616Y-147.32
X229.743Y-134.239
X231.216Y-116.891
X231.318Y-119.355
X231.93Y-147.86
X233.426Y-126.873
X235.356Y-117.653
X236.85Y-145.82
X237.95Y-147.93
X239.243Y-119.329
X242.316Y-132.207
X242.418Y-146.177
X242.443Y-126.873
X242.443Y-128.778
X242.443Y-130.556
X242.443Y-134.112
X242.443Y-135.763
X242.443Y-137.795
X242.57Y-139.446
X242.57Y-141.097
X242.697Y-122.809
X250.114Y-109.525
X250.139Y-106.883
X250.266Y-111.912
T2
X174.371Y-88.773
X179.172Y-79.019
X181.356Y-74.549
X182.09Y-137.07
X185.928Y-74.295
X190.754Y-74.549
X193.04Y-137.795
X195.199Y-74.422
X199.009Y-74.422
X202.946Y-74.676
X207.899Y-74.676
X212.18Y-74.55
X216.8Y-74.55
X221.33Y-74.55
X222.428Y-83.388
X225.81Y-74.55
X229.42Y-91.55
X230.14Y-74.6
X230.57Y-77.78
X230.86Y-83.7
X236.01Y-84.455
X236.22Y-91.44
X236.45Y-74.41
X241.6Y-84.28
X247.57Y-100.41
X247.91Y-98.0
T3
X220.091Y-109.576
X220.396Y-95.682
X230.403Y-96.342
T4
X184.08Y-97.02
X184.45Y-91.51
X187.16Y-97.0
X187.22Y-120.84
X195.98Y-119.59
X196.18Y-89.77
X196.48Y-93.36
X205.42Y-104.01
X208.36Y-93.54
X212.89Y-83.5
T5
X174.922Y-101.194
X177.422Y-101.194
X181.585Y-112.638
X181.585Y-115.138
X208.704Y-111.176
X211.204Y-111.176
X214.266Y-114.96
X216.766Y-114.96
T6
X175.772Y-122.961
X178.272Y-122.961
X180.772Y-122.961
X183.272Y-122.961
X226.695Y-107.156
X226.695Y-109.656
X226.695Y-112.156
X226.695Y-114.656
X232.562Y-107.192
X232.562Y-109.692
X232.562Y-112.192
X238.43Y-107.217
X238.43Y-109.717
X238.43Y-112.217
X244.551Y-107.192
X244.551Y-109.692
X244.551Y-112.192
T7
X175.15Y-113.48
X175.26Y-117.348
X192.27Y-149.62
X194.81Y-149.62
X197.35Y-149.62
X199.89Y-149.62
X202.43Y-149.62
X204.97Y-149.62
X207.51Y-149.62
X210.05Y-149.62
X212.59Y-149.62
X215.13Y-149.62
X217.67Y-149.62
X220.21Y-149.62
X222.75Y-149.62
X225.29Y-149.62
X227.83Y-149.62
X230.37Y-149.62
X232.91Y-149.62
X235.45Y-149.62
X249.73Y-115.42
X249.73Y-117.96
X249.73Y-120.5
X249.73Y-123.04
X249.73Y-125.58
X249.73Y-128.12
X249.73Y-130.66
X249.73Y-133.2
X249.73Y-135.74
X249.73Y-138.28
X249.73Y-140.82
X249.73Y-143.36
T8
X190.08Y-124.27
X190.08Y-142.05
X192.62Y-124.27
X192.62Y-142.05
X195.16Y-124.27
X195.16Y-142.05
X197.7Y-124.27
X197.7Y-142.05
X200.24Y-124.27
X200.24Y-142.05
X202.78Y-124.27
X202.78Y-142.05
X205.32Y-124.27
X205.32Y-142.05
X207.86Y-124.27
X207.86Y-142.05
X210.4Y-124.27
X210.4Y-142.05
X212.94Y-124.27
X212.94Y-142.05
X215.48Y-124.27
X215.48Y-142.05
X218.02Y-124.27
X218.02Y-142.05
X220.56Y-124.27
X220.56Y-142.05
X223.1Y-124.27
X223.1Y-142.05
X225.64Y-124.27
X225.64Y-142.05
X228.18Y-124.27
X228.18Y-142.05
X230.72Y-124.27
X230.72Y-142.05
X233.26Y-124.27
X233.26Y-142.05
X235.8Y-124.27
X235.8Y-142.05
X238.34Y-124.27
X238.34Y-142.05
T9
X176.2Y-92.59
X176.2Y-95.13
X176.276Y-82.804
X176.276Y-85.344
X176.53Y-108.18
X179.07Y-108.18
X181.61Y-108.18
X183.568Y-99.924
X183.718Y-76.874
X186.368Y-99.924
X195.218Y-99.924
X197.918Y-76.999
X197.968Y-99.924
X211.46Y-106.09
X214.0Y-106.09
X216.54Y-106.09
T10
X204.76Y-78.32
X204.76Y-88.48
X204.76Y-98.64
X225.06Y-93.56
X225.06Y-98.64
T11
X247.142Y-83.312
X247.142Y-88.392
X247.142Y-93.472
T12
X234.266Y-79.879
X234.266Y-93.349
X237.666Y-79.879
X237.666Y-93.349
T13
X175.692Y-76.378
X175.692Y-148.895
X249.072Y-148.895
X249.098Y-76.378
T0
M30
