M48
; DRILL file {KiCad (7.0.0)} date Tue Nov 14 13:40:50 2023
; FORMAT={-:-/ absolute / metric / decimal}
; #@! TF.CreationDate,2023-11-14T13:40:50+01:00
; #@! TF.GenerationSoftware,Kicad,Pcbnew,(7.0.0)
; #@! TF.FileFunction,Plated,1,4,PTH
FMAT,2
METRIC
; #@! TA.AperFunction,Plated,PTH,ViaDrill
T1C0.450
; #@! TA.AperFunction,Plated,PTH,ViaDrill
T2C0.600
; #@! TA.AperFunction,Plated,PTH,ComponentDrill
T3C0.762
; #@! TA.AperFunction,Plated,PTH,ComponentDrill
T4C1.000
; #@! TA.AperFunction,Plated,PTH,ComponentDrill
T5C1.020
; #@! TA.AperFunction,Plated,PTH,ComponentDrill
T6C1.100
; #@! TA.AperFunction,Plated,PTH,ComponentDrill
T7C1.150
; #@! TA.AperFunction,Plated,PTH,ComponentDrill
T8C1.600
; #@! TA.AperFunction,Plated,PTH,ComponentDrill
T9C2.200
%
G90
G05
T1
X182.18Y-88.06
X182.75Y-98.47
X184.86Y-133.47
X185.38Y-126.77
X187.46Y-116.23
X189.63Y-81.08
X191.36Y-128.61
X195.47Y-128.83
X198.93Y-128.9
X200.04Y-78.88
X201.41Y-128.83
X202.86Y-139.51
X204.07Y-128.85
X207.92Y-128.83
X211.67Y-127.83
X214.29Y-126.84
X216.84Y-126.28
X220.63Y-139.82
X224.22Y-120.06
X226.92Y-120.12
X229.56Y-120.15
X229.7Y-103.31
X230.26Y-83.43
X231.47Y-79.11
X232.88Y-91.99
X233.31Y-120.12
X233.8Y-139.84
X234.98Y-114.99
X236.15Y-99.96
X240.8Y-108.7
X241.37Y-121.58
X243.51Y-141.74
X243.73Y-145.72
X244.05Y-114.52
X246.87Y-106.5
X247.24Y-111.64
T2
X183.59Y-103.81
X184.71Y-112.1
X191.64Y-98.8
X193.9Y-113.44
X194.73Y-104.84
X199.25Y-117.55
T3
X175.75Y-108.56
X178.29Y-108.56
X180.83Y-108.56
T4
X174.72Y-82.01
X174.72Y-84.55
X175.1Y-121.11
X175.15Y-113.48
X175.21Y-128.32
X175.36Y-135.93
X177.64Y-121.11
X177.75Y-128.32
X177.9Y-135.93
X180.18Y-121.11
X180.29Y-128.32
X180.44Y-135.93
X207.7Y-150.22
X210.24Y-150.22
X212.78Y-150.22
X215.32Y-150.22
X217.86Y-150.22
X220.4Y-150.22
X222.94Y-150.22
X225.48Y-150.22
X228.02Y-150.22
X230.56Y-150.22
X233.1Y-150.22
X235.64Y-150.22
X238.18Y-150.22
X250.07Y-105.13
X250.07Y-107.67
X250.07Y-110.21
X250.07Y-112.75
X250.07Y-115.29
X250.07Y-117.83
X250.07Y-120.37
X250.07Y-122.91
X250.07Y-125.45
X250.07Y-127.99
X250.07Y-130.53
X250.07Y-133.07
X250.07Y-135.61
X250.07Y-138.15
X250.07Y-140.69
X250.07Y-143.23
T5
X190.08Y-124.27
X190.08Y-142.05
X192.62Y-124.27
X192.62Y-142.05
X195.16Y-124.27
X195.16Y-142.05
X197.7Y-124.27
X197.7Y-142.05
X200.24Y-124.27
X200.24Y-142.05
X202.78Y-124.27
X202.78Y-142.05
X205.32Y-124.27
X205.32Y-142.05
X207.86Y-124.27
X207.86Y-142.05
X210.4Y-124.27
X210.4Y-142.05
X212.94Y-124.27
X212.94Y-142.05
X215.48Y-124.27
X215.48Y-142.05
X218.02Y-124.27
X218.02Y-142.05
X220.56Y-124.27
X220.56Y-142.05
X223.1Y-124.27
X223.1Y-142.05
X225.64Y-124.27
X225.64Y-142.05
X228.18Y-124.27
X228.18Y-142.05
X230.72Y-124.27
X230.72Y-142.05
X233.26Y-124.27
X233.26Y-142.05
X235.8Y-124.27
X235.8Y-142.05
X238.34Y-124.27
X238.34Y-142.05
T6
X176.2Y-92.59
X176.2Y-95.13
X248.5Y-82.3
X248.5Y-84.84
T7
X204.76Y-78.32
X204.76Y-88.48
X204.76Y-98.64
X225.06Y-93.56
X225.06Y-98.64
T8
X239.09Y-80.195
X239.09Y-93.665
X242.49Y-80.195
X242.49Y-93.665
T9
X175.12Y-149.42
X175.24Y-75.83
X249.53Y-149.46
X249.67Y-75.84
T0
M30
