%TF.GenerationSoftware,KiCad,Pcbnew,(7.0.0)*%
%TF.CreationDate,2023-11-14T13:40:16+01:00*%
%TF.ProjectId,PCB-light-challenge,5043422d-6c69-4676-9874-2d6368616c6c,rev?*%
%TF.SameCoordinates,Original*%
%TF.FileFunction,Legend,Top*%
%TF.FilePolarity,Positive*%
%FSLAX46Y46*%
G04 Gerber Fmt 4.6, Leading zero omitted, Abs format (unit mm)*
G04 Created by KiCad (PCBNEW (7.0.0)) date 2023-11-14 13:40:16*
%MOMM*%
%LPD*%
G01*
G04 APERTURE LIST*
%ADD10C,0.150000*%
%ADD11C,0.300000*%
%ADD12C,0.254000*%
%ADD13C,0.100000*%
%ADD14C,0.120000*%
%ADD15C,0.127000*%
%ADD16C,0.200000*%
G04 APERTURE END LIST*
D10*
X245959523Y-107384000D02*
X245883333Y-107345904D01*
X245883333Y-107345904D02*
X245769047Y-107345904D01*
X245769047Y-107345904D02*
X245654761Y-107384000D01*
X245654761Y-107384000D02*
X245578571Y-107460190D01*
X245578571Y-107460190D02*
X245540476Y-107536380D01*
X245540476Y-107536380D02*
X245502380Y-107688761D01*
X245502380Y-107688761D02*
X245502380Y-107803047D01*
X245502380Y-107803047D02*
X245540476Y-107955428D01*
X245540476Y-107955428D02*
X245578571Y-108031619D01*
X245578571Y-108031619D02*
X245654761Y-108107809D01*
X245654761Y-108107809D02*
X245769047Y-108145904D01*
X245769047Y-108145904D02*
X245845238Y-108145904D01*
X245845238Y-108145904D02*
X245959523Y-108107809D01*
X245959523Y-108107809D02*
X245997619Y-108069714D01*
X245997619Y-108069714D02*
X245997619Y-107803047D01*
X245997619Y-107803047D02*
X245845238Y-107803047D01*
X246340476Y-108145904D02*
X246340476Y-107345904D01*
X246340476Y-107345904D02*
X246645238Y-107345904D01*
X246645238Y-107345904D02*
X246721428Y-107384000D01*
X246721428Y-107384000D02*
X246759523Y-107422095D01*
X246759523Y-107422095D02*
X246797619Y-107498285D01*
X246797619Y-107498285D02*
X246797619Y-107612571D01*
X246797619Y-107612571D02*
X246759523Y-107688761D01*
X246759523Y-107688761D02*
X246721428Y-107726857D01*
X246721428Y-107726857D02*
X246645238Y-107764952D01*
X246645238Y-107764952D02*
X246340476Y-107764952D01*
X247102380Y-107422095D02*
X247140476Y-107384000D01*
X247140476Y-107384000D02*
X247216666Y-107345904D01*
X247216666Y-107345904D02*
X247407142Y-107345904D01*
X247407142Y-107345904D02*
X247483333Y-107384000D01*
X247483333Y-107384000D02*
X247521428Y-107422095D01*
X247521428Y-107422095D02*
X247559523Y-107498285D01*
X247559523Y-107498285D02*
X247559523Y-107574476D01*
X247559523Y-107574476D02*
X247521428Y-107688761D01*
X247521428Y-107688761D02*
X247064285Y-108145904D01*
X247064285Y-108145904D02*
X247559523Y-108145904D01*
X248054762Y-107345904D02*
X248130952Y-107345904D01*
X248130952Y-107345904D02*
X248207143Y-107384000D01*
X248207143Y-107384000D02*
X248245238Y-107422095D01*
X248245238Y-107422095D02*
X248283333Y-107498285D01*
X248283333Y-107498285D02*
X248321428Y-107650666D01*
X248321428Y-107650666D02*
X248321428Y-107841142D01*
X248321428Y-107841142D02*
X248283333Y-107993523D01*
X248283333Y-107993523D02*
X248245238Y-108069714D01*
X248245238Y-108069714D02*
X248207143Y-108107809D01*
X248207143Y-108107809D02*
X248130952Y-108145904D01*
X248130952Y-108145904D02*
X248054762Y-108145904D01*
X248054762Y-108145904D02*
X247978571Y-108107809D01*
X247978571Y-108107809D02*
X247940476Y-108069714D01*
X247940476Y-108069714D02*
X247902381Y-107993523D01*
X247902381Y-107993523D02*
X247864285Y-107841142D01*
X247864285Y-107841142D02*
X247864285Y-107650666D01*
X247864285Y-107650666D02*
X247902381Y-107498285D01*
X247902381Y-107498285D02*
X247940476Y-107422095D01*
X247940476Y-107422095D02*
X247978571Y-107384000D01*
X247978571Y-107384000D02*
X248054762Y-107345904D01*
X177363333Y-138301000D02*
X177296666Y-138267666D01*
X177296666Y-138267666D02*
X177196666Y-138267666D01*
X177196666Y-138267666D02*
X177096666Y-138301000D01*
X177096666Y-138301000D02*
X177030000Y-138367666D01*
X177030000Y-138367666D02*
X176996666Y-138434333D01*
X176996666Y-138434333D02*
X176963333Y-138567666D01*
X176963333Y-138567666D02*
X176963333Y-138667666D01*
X176963333Y-138667666D02*
X176996666Y-138801000D01*
X176996666Y-138801000D02*
X177030000Y-138867666D01*
X177030000Y-138867666D02*
X177096666Y-138934333D01*
X177096666Y-138934333D02*
X177196666Y-138967666D01*
X177196666Y-138967666D02*
X177263333Y-138967666D01*
X177263333Y-138967666D02*
X177363333Y-138934333D01*
X177363333Y-138934333D02*
X177396666Y-138901000D01*
X177396666Y-138901000D02*
X177396666Y-138667666D01*
X177396666Y-138667666D02*
X177263333Y-138667666D01*
X177696666Y-138967666D02*
X177696666Y-138267666D01*
X177696666Y-138267666D02*
X178096666Y-138967666D01*
X178096666Y-138967666D02*
X178096666Y-138267666D01*
X178429999Y-138967666D02*
X178429999Y-138267666D01*
X178429999Y-138267666D02*
X178596666Y-138267666D01*
X178596666Y-138267666D02*
X178696666Y-138301000D01*
X178696666Y-138301000D02*
X178763333Y-138367666D01*
X178763333Y-138367666D02*
X178796666Y-138434333D01*
X178796666Y-138434333D02*
X178829999Y-138567666D01*
X178829999Y-138567666D02*
X178829999Y-138667666D01*
X178829999Y-138667666D02*
X178796666Y-138801000D01*
X178796666Y-138801000D02*
X178763333Y-138867666D01*
X178763333Y-138867666D02*
X178696666Y-138934333D01*
X178696666Y-138934333D02*
X178596666Y-138967666D01*
X178596666Y-138967666D02*
X178429999Y-138967666D01*
X235614000Y-148170476D02*
X235575904Y-148246666D01*
X235575904Y-148246666D02*
X235575904Y-148360952D01*
X235575904Y-148360952D02*
X235614000Y-148475238D01*
X235614000Y-148475238D02*
X235690190Y-148551428D01*
X235690190Y-148551428D02*
X235766380Y-148589523D01*
X235766380Y-148589523D02*
X235918761Y-148627619D01*
X235918761Y-148627619D02*
X236033047Y-148627619D01*
X236033047Y-148627619D02*
X236185428Y-148589523D01*
X236185428Y-148589523D02*
X236261619Y-148551428D01*
X236261619Y-148551428D02*
X236337809Y-148475238D01*
X236337809Y-148475238D02*
X236375904Y-148360952D01*
X236375904Y-148360952D02*
X236375904Y-148284761D01*
X236375904Y-148284761D02*
X236337809Y-148170476D01*
X236337809Y-148170476D02*
X236299714Y-148132380D01*
X236299714Y-148132380D02*
X236033047Y-148132380D01*
X236033047Y-148132380D02*
X236033047Y-148284761D01*
X236375904Y-147789523D02*
X235575904Y-147789523D01*
X235575904Y-147789523D02*
X235575904Y-147484761D01*
X235575904Y-147484761D02*
X235614000Y-147408571D01*
X235614000Y-147408571D02*
X235652095Y-147370476D01*
X235652095Y-147370476D02*
X235728285Y-147332380D01*
X235728285Y-147332380D02*
X235842571Y-147332380D01*
X235842571Y-147332380D02*
X235918761Y-147370476D01*
X235918761Y-147370476D02*
X235956857Y-147408571D01*
X235956857Y-147408571D02*
X235994952Y-147484761D01*
X235994952Y-147484761D02*
X235994952Y-147789523D01*
X236375904Y-146570476D02*
X236375904Y-147027619D01*
X236375904Y-146799047D02*
X235575904Y-146799047D01*
X235575904Y-146799047D02*
X235690190Y-146875238D01*
X235690190Y-146875238D02*
X235766380Y-146951428D01*
X235766380Y-146951428D02*
X235804476Y-147027619D01*
X235842571Y-145884761D02*
X236375904Y-145884761D01*
X235537809Y-146075237D02*
X236109238Y-146265714D01*
X236109238Y-146265714D02*
X236109238Y-145770475D01*
X220374000Y-148170476D02*
X220335904Y-148246666D01*
X220335904Y-148246666D02*
X220335904Y-148360952D01*
X220335904Y-148360952D02*
X220374000Y-148475238D01*
X220374000Y-148475238D02*
X220450190Y-148551428D01*
X220450190Y-148551428D02*
X220526380Y-148589523D01*
X220526380Y-148589523D02*
X220678761Y-148627619D01*
X220678761Y-148627619D02*
X220793047Y-148627619D01*
X220793047Y-148627619D02*
X220945428Y-148589523D01*
X220945428Y-148589523D02*
X221021619Y-148551428D01*
X221021619Y-148551428D02*
X221097809Y-148475238D01*
X221097809Y-148475238D02*
X221135904Y-148360952D01*
X221135904Y-148360952D02*
X221135904Y-148284761D01*
X221135904Y-148284761D02*
X221097809Y-148170476D01*
X221097809Y-148170476D02*
X221059714Y-148132380D01*
X221059714Y-148132380D02*
X220793047Y-148132380D01*
X220793047Y-148132380D02*
X220793047Y-148284761D01*
X221135904Y-147789523D02*
X220335904Y-147789523D01*
X220335904Y-147789523D02*
X220335904Y-147484761D01*
X220335904Y-147484761D02*
X220374000Y-147408571D01*
X220374000Y-147408571D02*
X220412095Y-147370476D01*
X220412095Y-147370476D02*
X220488285Y-147332380D01*
X220488285Y-147332380D02*
X220602571Y-147332380D01*
X220602571Y-147332380D02*
X220678761Y-147370476D01*
X220678761Y-147370476D02*
X220716857Y-147408571D01*
X220716857Y-147408571D02*
X220754952Y-147484761D01*
X220754952Y-147484761D02*
X220754952Y-147789523D01*
X220678761Y-146875238D02*
X220640666Y-146951428D01*
X220640666Y-146951428D02*
X220602571Y-146989523D01*
X220602571Y-146989523D02*
X220526380Y-147027619D01*
X220526380Y-147027619D02*
X220488285Y-147027619D01*
X220488285Y-147027619D02*
X220412095Y-146989523D01*
X220412095Y-146989523D02*
X220374000Y-146951428D01*
X220374000Y-146951428D02*
X220335904Y-146875238D01*
X220335904Y-146875238D02*
X220335904Y-146722857D01*
X220335904Y-146722857D02*
X220374000Y-146646666D01*
X220374000Y-146646666D02*
X220412095Y-146608571D01*
X220412095Y-146608571D02*
X220488285Y-146570476D01*
X220488285Y-146570476D02*
X220526380Y-146570476D01*
X220526380Y-146570476D02*
X220602571Y-146608571D01*
X220602571Y-146608571D02*
X220640666Y-146646666D01*
X220640666Y-146646666D02*
X220678761Y-146722857D01*
X220678761Y-146722857D02*
X220678761Y-146875238D01*
X220678761Y-146875238D02*
X220716857Y-146951428D01*
X220716857Y-146951428D02*
X220754952Y-146989523D01*
X220754952Y-146989523D02*
X220831142Y-147027619D01*
X220831142Y-147027619D02*
X220983523Y-147027619D01*
X220983523Y-147027619D02*
X221059714Y-146989523D01*
X221059714Y-146989523D02*
X221097809Y-146951428D01*
X221097809Y-146951428D02*
X221135904Y-146875238D01*
X221135904Y-146875238D02*
X221135904Y-146722857D01*
X221135904Y-146722857D02*
X221097809Y-146646666D01*
X221097809Y-146646666D02*
X221059714Y-146608571D01*
X221059714Y-146608571D02*
X220983523Y-146570476D01*
X220983523Y-146570476D02*
X220831142Y-146570476D01*
X220831142Y-146570476D02*
X220754952Y-146608571D01*
X220754952Y-146608571D02*
X220716857Y-146646666D01*
X220716857Y-146646666D02*
X220678761Y-146722857D01*
X177193333Y-123331000D02*
X177126666Y-123297666D01*
X177126666Y-123297666D02*
X177026666Y-123297666D01*
X177026666Y-123297666D02*
X176926666Y-123331000D01*
X176926666Y-123331000D02*
X176860000Y-123397666D01*
X176860000Y-123397666D02*
X176826666Y-123464333D01*
X176826666Y-123464333D02*
X176793333Y-123597666D01*
X176793333Y-123597666D02*
X176793333Y-123697666D01*
X176793333Y-123697666D02*
X176826666Y-123831000D01*
X176826666Y-123831000D02*
X176860000Y-123897666D01*
X176860000Y-123897666D02*
X176926666Y-123964333D01*
X176926666Y-123964333D02*
X177026666Y-123997666D01*
X177026666Y-123997666D02*
X177093333Y-123997666D01*
X177093333Y-123997666D02*
X177193333Y-123964333D01*
X177193333Y-123964333D02*
X177226666Y-123931000D01*
X177226666Y-123931000D02*
X177226666Y-123697666D01*
X177226666Y-123697666D02*
X177093333Y-123697666D01*
X177526666Y-123997666D02*
X177526666Y-123297666D01*
X177526666Y-123297666D02*
X177926666Y-123997666D01*
X177926666Y-123997666D02*
X177926666Y-123297666D01*
X178259999Y-123997666D02*
X178259999Y-123297666D01*
X178259999Y-123297666D02*
X178426666Y-123297666D01*
X178426666Y-123297666D02*
X178526666Y-123331000D01*
X178526666Y-123331000D02*
X178593333Y-123397666D01*
X178593333Y-123397666D02*
X178626666Y-123464333D01*
X178626666Y-123464333D02*
X178659999Y-123597666D01*
X178659999Y-123597666D02*
X178659999Y-123697666D01*
X178659999Y-123697666D02*
X178626666Y-123831000D01*
X178626666Y-123831000D02*
X178593333Y-123897666D01*
X178593333Y-123897666D02*
X178526666Y-123964333D01*
X178526666Y-123964333D02*
X178426666Y-123997666D01*
X178426666Y-123997666D02*
X178259999Y-123997666D01*
X179913333Y-123331000D02*
X179846666Y-123297666D01*
X179846666Y-123297666D02*
X179746666Y-123297666D01*
X179746666Y-123297666D02*
X179646666Y-123331000D01*
X179646666Y-123331000D02*
X179580000Y-123397666D01*
X179580000Y-123397666D02*
X179546666Y-123464333D01*
X179546666Y-123464333D02*
X179513333Y-123597666D01*
X179513333Y-123597666D02*
X179513333Y-123697666D01*
X179513333Y-123697666D02*
X179546666Y-123831000D01*
X179546666Y-123831000D02*
X179580000Y-123897666D01*
X179580000Y-123897666D02*
X179646666Y-123964333D01*
X179646666Y-123964333D02*
X179746666Y-123997666D01*
X179746666Y-123997666D02*
X179813333Y-123997666D01*
X179813333Y-123997666D02*
X179913333Y-123964333D01*
X179913333Y-123964333D02*
X179946666Y-123931000D01*
X179946666Y-123931000D02*
X179946666Y-123697666D01*
X179946666Y-123697666D02*
X179813333Y-123697666D01*
X180246666Y-123997666D02*
X180246666Y-123297666D01*
X180246666Y-123297666D02*
X180513333Y-123297666D01*
X180513333Y-123297666D02*
X180580000Y-123331000D01*
X180580000Y-123331000D02*
X180613333Y-123364333D01*
X180613333Y-123364333D02*
X180646666Y-123431000D01*
X180646666Y-123431000D02*
X180646666Y-123531000D01*
X180646666Y-123531000D02*
X180613333Y-123597666D01*
X180613333Y-123597666D02*
X180580000Y-123631000D01*
X180580000Y-123631000D02*
X180513333Y-123664333D01*
X180513333Y-123664333D02*
X180246666Y-123664333D01*
X180913333Y-123364333D02*
X180946666Y-123331000D01*
X180946666Y-123331000D02*
X181013333Y-123297666D01*
X181013333Y-123297666D02*
X181180000Y-123297666D01*
X181180000Y-123297666D02*
X181246666Y-123331000D01*
X181246666Y-123331000D02*
X181280000Y-123364333D01*
X181280000Y-123364333D02*
X181313333Y-123431000D01*
X181313333Y-123431000D02*
X181313333Y-123497666D01*
X181313333Y-123497666D02*
X181280000Y-123597666D01*
X181280000Y-123597666D02*
X180880000Y-123997666D01*
X180880000Y-123997666D02*
X181313333Y-123997666D01*
X243152380Y-133207333D02*
X243533333Y-133207333D01*
X243076190Y-133435904D02*
X243342857Y-132635904D01*
X243342857Y-132635904D02*
X243609523Y-133435904D01*
X243876190Y-133435904D02*
X243876190Y-132635904D01*
X243876190Y-132635904D02*
X244066666Y-132635904D01*
X244066666Y-132635904D02*
X244180952Y-132674000D01*
X244180952Y-132674000D02*
X244257142Y-132750190D01*
X244257142Y-132750190D02*
X244295237Y-132826380D01*
X244295237Y-132826380D02*
X244333333Y-132978761D01*
X244333333Y-132978761D02*
X244333333Y-133093047D01*
X244333333Y-133093047D02*
X244295237Y-133245428D01*
X244295237Y-133245428D02*
X244257142Y-133321619D01*
X244257142Y-133321619D02*
X244180952Y-133397809D01*
X244180952Y-133397809D02*
X244066666Y-133435904D01*
X244066666Y-133435904D02*
X243876190Y-133435904D01*
X245133333Y-133359714D02*
X245095237Y-133397809D01*
X245095237Y-133397809D02*
X244980952Y-133435904D01*
X244980952Y-133435904D02*
X244904761Y-133435904D01*
X244904761Y-133435904D02*
X244790475Y-133397809D01*
X244790475Y-133397809D02*
X244714285Y-133321619D01*
X244714285Y-133321619D02*
X244676190Y-133245428D01*
X244676190Y-133245428D02*
X244638094Y-133093047D01*
X244638094Y-133093047D02*
X244638094Y-132978761D01*
X244638094Y-132978761D02*
X244676190Y-132826380D01*
X244676190Y-132826380D02*
X244714285Y-132750190D01*
X244714285Y-132750190D02*
X244790475Y-132674000D01*
X244790475Y-132674000D02*
X244904761Y-132635904D01*
X244904761Y-132635904D02*
X244980952Y-132635904D01*
X244980952Y-132635904D02*
X245095237Y-132674000D01*
X245095237Y-132674000D02*
X245133333Y-132712095D01*
X245841904Y-132635904D02*
X246108571Y-133435904D01*
X246108571Y-133435904D02*
X246375237Y-132635904D01*
X247099047Y-133435904D02*
X246832380Y-133054952D01*
X246641904Y-133435904D02*
X246641904Y-132635904D01*
X246641904Y-132635904D02*
X246946666Y-132635904D01*
X246946666Y-132635904D02*
X247022856Y-132674000D01*
X247022856Y-132674000D02*
X247060951Y-132712095D01*
X247060951Y-132712095D02*
X247099047Y-132788285D01*
X247099047Y-132788285D02*
X247099047Y-132902571D01*
X247099047Y-132902571D02*
X247060951Y-132978761D01*
X247060951Y-132978761D02*
X247022856Y-133016857D01*
X247022856Y-133016857D02*
X246946666Y-133054952D01*
X246946666Y-133054952D02*
X246641904Y-133054952D01*
X247441904Y-133016857D02*
X247708570Y-133016857D01*
X247822856Y-133435904D02*
X247441904Y-133435904D01*
X247441904Y-133435904D02*
X247441904Y-132635904D01*
X247441904Y-132635904D02*
X247822856Y-132635904D01*
X248432380Y-133016857D02*
X248165714Y-133016857D01*
X248165714Y-133435904D02*
X248165714Y-132635904D01*
X248165714Y-132635904D02*
X248546666Y-132635904D01*
X245949523Y-120064000D02*
X245873333Y-120025904D01*
X245873333Y-120025904D02*
X245759047Y-120025904D01*
X245759047Y-120025904D02*
X245644761Y-120064000D01*
X245644761Y-120064000D02*
X245568571Y-120140190D01*
X245568571Y-120140190D02*
X245530476Y-120216380D01*
X245530476Y-120216380D02*
X245492380Y-120368761D01*
X245492380Y-120368761D02*
X245492380Y-120483047D01*
X245492380Y-120483047D02*
X245530476Y-120635428D01*
X245530476Y-120635428D02*
X245568571Y-120711619D01*
X245568571Y-120711619D02*
X245644761Y-120787809D01*
X245644761Y-120787809D02*
X245759047Y-120825904D01*
X245759047Y-120825904D02*
X245835238Y-120825904D01*
X245835238Y-120825904D02*
X245949523Y-120787809D01*
X245949523Y-120787809D02*
X245987619Y-120749714D01*
X245987619Y-120749714D02*
X245987619Y-120483047D01*
X245987619Y-120483047D02*
X245835238Y-120483047D01*
X246330476Y-120825904D02*
X246330476Y-120025904D01*
X246330476Y-120025904D02*
X246635238Y-120025904D01*
X246635238Y-120025904D02*
X246711428Y-120064000D01*
X246711428Y-120064000D02*
X246749523Y-120102095D01*
X246749523Y-120102095D02*
X246787619Y-120178285D01*
X246787619Y-120178285D02*
X246787619Y-120292571D01*
X246787619Y-120292571D02*
X246749523Y-120368761D01*
X246749523Y-120368761D02*
X246711428Y-120406857D01*
X246711428Y-120406857D02*
X246635238Y-120444952D01*
X246635238Y-120444952D02*
X246330476Y-120444952D01*
X247092380Y-120102095D02*
X247130476Y-120064000D01*
X247130476Y-120064000D02*
X247206666Y-120025904D01*
X247206666Y-120025904D02*
X247397142Y-120025904D01*
X247397142Y-120025904D02*
X247473333Y-120064000D01*
X247473333Y-120064000D02*
X247511428Y-120102095D01*
X247511428Y-120102095D02*
X247549523Y-120178285D01*
X247549523Y-120178285D02*
X247549523Y-120254476D01*
X247549523Y-120254476D02*
X247511428Y-120368761D01*
X247511428Y-120368761D02*
X247054285Y-120825904D01*
X247054285Y-120825904D02*
X247549523Y-120825904D01*
X247854285Y-120102095D02*
X247892381Y-120064000D01*
X247892381Y-120064000D02*
X247968571Y-120025904D01*
X247968571Y-120025904D02*
X248159047Y-120025904D01*
X248159047Y-120025904D02*
X248235238Y-120064000D01*
X248235238Y-120064000D02*
X248273333Y-120102095D01*
X248273333Y-120102095D02*
X248311428Y-120178285D01*
X248311428Y-120178285D02*
X248311428Y-120254476D01*
X248311428Y-120254476D02*
X248273333Y-120368761D01*
X248273333Y-120368761D02*
X247816190Y-120825904D01*
X247816190Y-120825904D02*
X248311428Y-120825904D01*
D11*
X211042857Y-106833571D02*
X211900000Y-106833571D01*
X211471428Y-108333571D02*
X211471428Y-106833571D01*
X212399999Y-108333571D02*
X212399999Y-106833571D01*
X213042857Y-108333571D02*
X213042857Y-107547857D01*
X213042857Y-107547857D02*
X212971428Y-107405000D01*
X212971428Y-107405000D02*
X212828571Y-107333571D01*
X212828571Y-107333571D02*
X212614285Y-107333571D01*
X212614285Y-107333571D02*
X212471428Y-107405000D01*
X212471428Y-107405000D02*
X212399999Y-107476428D01*
X214328571Y-108262142D02*
X214185714Y-108333571D01*
X214185714Y-108333571D02*
X213900000Y-108333571D01*
X213900000Y-108333571D02*
X213757142Y-108262142D01*
X213757142Y-108262142D02*
X213685714Y-108119285D01*
X213685714Y-108119285D02*
X213685714Y-107547857D01*
X213685714Y-107547857D02*
X213757142Y-107405000D01*
X213757142Y-107405000D02*
X213900000Y-107333571D01*
X213900000Y-107333571D02*
X214185714Y-107333571D01*
X214185714Y-107333571D02*
X214328571Y-107405000D01*
X214328571Y-107405000D02*
X214400000Y-107547857D01*
X214400000Y-107547857D02*
X214400000Y-107690714D01*
X214400000Y-107690714D02*
X213685714Y-107833571D01*
X216657142Y-108333571D02*
X215942856Y-108333571D01*
X215942856Y-108333571D02*
X215942856Y-106833571D01*
X217157142Y-108333571D02*
X217157142Y-107333571D01*
X217157142Y-106833571D02*
X217085714Y-106905000D01*
X217085714Y-106905000D02*
X217157142Y-106976428D01*
X217157142Y-106976428D02*
X217228571Y-106905000D01*
X217228571Y-106905000D02*
X217157142Y-106833571D01*
X217157142Y-106833571D02*
X217157142Y-106976428D01*
X218514286Y-107333571D02*
X218514286Y-108547857D01*
X218514286Y-108547857D02*
X218442857Y-108690714D01*
X218442857Y-108690714D02*
X218371428Y-108762142D01*
X218371428Y-108762142D02*
X218228571Y-108833571D01*
X218228571Y-108833571D02*
X218014286Y-108833571D01*
X218014286Y-108833571D02*
X217871428Y-108762142D01*
X218514286Y-108262142D02*
X218371428Y-108333571D01*
X218371428Y-108333571D02*
X218085714Y-108333571D01*
X218085714Y-108333571D02*
X217942857Y-108262142D01*
X217942857Y-108262142D02*
X217871428Y-108190714D01*
X217871428Y-108190714D02*
X217800000Y-108047857D01*
X217800000Y-108047857D02*
X217800000Y-107619285D01*
X217800000Y-107619285D02*
X217871428Y-107476428D01*
X217871428Y-107476428D02*
X217942857Y-107405000D01*
X217942857Y-107405000D02*
X218085714Y-107333571D01*
X218085714Y-107333571D02*
X218371428Y-107333571D01*
X218371428Y-107333571D02*
X218514286Y-107405000D01*
X219228571Y-108333571D02*
X219228571Y-106833571D01*
X219871429Y-108333571D02*
X219871429Y-107547857D01*
X219871429Y-107547857D02*
X219800000Y-107405000D01*
X219800000Y-107405000D02*
X219657143Y-107333571D01*
X219657143Y-107333571D02*
X219442857Y-107333571D01*
X219442857Y-107333571D02*
X219300000Y-107405000D01*
X219300000Y-107405000D02*
X219228571Y-107476428D01*
X220371429Y-107333571D02*
X220942857Y-107333571D01*
X220585714Y-106833571D02*
X220585714Y-108119285D01*
X220585714Y-108119285D02*
X220657143Y-108262142D01*
X220657143Y-108262142D02*
X220800000Y-108333571D01*
X220800000Y-108333571D02*
X220942857Y-108333571D01*
X223200000Y-108190714D02*
X223128572Y-108262142D01*
X223128572Y-108262142D02*
X222914286Y-108333571D01*
X222914286Y-108333571D02*
X222771429Y-108333571D01*
X222771429Y-108333571D02*
X222557143Y-108262142D01*
X222557143Y-108262142D02*
X222414286Y-108119285D01*
X222414286Y-108119285D02*
X222342857Y-107976428D01*
X222342857Y-107976428D02*
X222271429Y-107690714D01*
X222271429Y-107690714D02*
X222271429Y-107476428D01*
X222271429Y-107476428D02*
X222342857Y-107190714D01*
X222342857Y-107190714D02*
X222414286Y-107047857D01*
X222414286Y-107047857D02*
X222557143Y-106905000D01*
X222557143Y-106905000D02*
X222771429Y-106833571D01*
X222771429Y-106833571D02*
X222914286Y-106833571D01*
X222914286Y-106833571D02*
X223128572Y-106905000D01*
X223128572Y-106905000D02*
X223200000Y-106976428D01*
X223842857Y-108333571D02*
X223842857Y-106833571D01*
X224485715Y-108333571D02*
X224485715Y-107547857D01*
X224485715Y-107547857D02*
X224414286Y-107405000D01*
X224414286Y-107405000D02*
X224271429Y-107333571D01*
X224271429Y-107333571D02*
X224057143Y-107333571D01*
X224057143Y-107333571D02*
X223914286Y-107405000D01*
X223914286Y-107405000D02*
X223842857Y-107476428D01*
X225842858Y-108333571D02*
X225842858Y-107547857D01*
X225842858Y-107547857D02*
X225771429Y-107405000D01*
X225771429Y-107405000D02*
X225628572Y-107333571D01*
X225628572Y-107333571D02*
X225342858Y-107333571D01*
X225342858Y-107333571D02*
X225200000Y-107405000D01*
X225842858Y-108262142D02*
X225700000Y-108333571D01*
X225700000Y-108333571D02*
X225342858Y-108333571D01*
X225342858Y-108333571D02*
X225200000Y-108262142D01*
X225200000Y-108262142D02*
X225128572Y-108119285D01*
X225128572Y-108119285D02*
X225128572Y-107976428D01*
X225128572Y-107976428D02*
X225200000Y-107833571D01*
X225200000Y-107833571D02*
X225342858Y-107762142D01*
X225342858Y-107762142D02*
X225700000Y-107762142D01*
X225700000Y-107762142D02*
X225842858Y-107690714D01*
X226771429Y-108333571D02*
X226628572Y-108262142D01*
X226628572Y-108262142D02*
X226557143Y-108119285D01*
X226557143Y-108119285D02*
X226557143Y-106833571D01*
X227557143Y-108333571D02*
X227414286Y-108262142D01*
X227414286Y-108262142D02*
X227342857Y-108119285D01*
X227342857Y-108119285D02*
X227342857Y-106833571D01*
X228700000Y-108262142D02*
X228557143Y-108333571D01*
X228557143Y-108333571D02*
X228271429Y-108333571D01*
X228271429Y-108333571D02*
X228128571Y-108262142D01*
X228128571Y-108262142D02*
X228057143Y-108119285D01*
X228057143Y-108119285D02*
X228057143Y-107547857D01*
X228057143Y-107547857D02*
X228128571Y-107405000D01*
X228128571Y-107405000D02*
X228271429Y-107333571D01*
X228271429Y-107333571D02*
X228557143Y-107333571D01*
X228557143Y-107333571D02*
X228700000Y-107405000D01*
X228700000Y-107405000D02*
X228771429Y-107547857D01*
X228771429Y-107547857D02*
X228771429Y-107690714D01*
X228771429Y-107690714D02*
X228057143Y-107833571D01*
X229414285Y-107333571D02*
X229414285Y-108333571D01*
X229414285Y-107476428D02*
X229485714Y-107405000D01*
X229485714Y-107405000D02*
X229628571Y-107333571D01*
X229628571Y-107333571D02*
X229842857Y-107333571D01*
X229842857Y-107333571D02*
X229985714Y-107405000D01*
X229985714Y-107405000D02*
X230057143Y-107547857D01*
X230057143Y-107547857D02*
X230057143Y-108333571D01*
X231414286Y-107333571D02*
X231414286Y-108547857D01*
X231414286Y-108547857D02*
X231342857Y-108690714D01*
X231342857Y-108690714D02*
X231271428Y-108762142D01*
X231271428Y-108762142D02*
X231128571Y-108833571D01*
X231128571Y-108833571D02*
X230914286Y-108833571D01*
X230914286Y-108833571D02*
X230771428Y-108762142D01*
X231414286Y-108262142D02*
X231271428Y-108333571D01*
X231271428Y-108333571D02*
X230985714Y-108333571D01*
X230985714Y-108333571D02*
X230842857Y-108262142D01*
X230842857Y-108262142D02*
X230771428Y-108190714D01*
X230771428Y-108190714D02*
X230700000Y-108047857D01*
X230700000Y-108047857D02*
X230700000Y-107619285D01*
X230700000Y-107619285D02*
X230771428Y-107476428D01*
X230771428Y-107476428D02*
X230842857Y-107405000D01*
X230842857Y-107405000D02*
X230985714Y-107333571D01*
X230985714Y-107333571D02*
X231271428Y-107333571D01*
X231271428Y-107333571D02*
X231414286Y-107405000D01*
X232700000Y-108262142D02*
X232557143Y-108333571D01*
X232557143Y-108333571D02*
X232271429Y-108333571D01*
X232271429Y-108333571D02*
X232128571Y-108262142D01*
X232128571Y-108262142D02*
X232057143Y-108119285D01*
X232057143Y-108119285D02*
X232057143Y-107547857D01*
X232057143Y-107547857D02*
X232128571Y-107405000D01*
X232128571Y-107405000D02*
X232271429Y-107333571D01*
X232271429Y-107333571D02*
X232557143Y-107333571D01*
X232557143Y-107333571D02*
X232700000Y-107405000D01*
X232700000Y-107405000D02*
X232771429Y-107547857D01*
X232771429Y-107547857D02*
X232771429Y-107690714D01*
X232771429Y-107690714D02*
X232057143Y-107833571D01*
X234100000Y-106833571D02*
X234600000Y-108333571D01*
X234600000Y-108333571D02*
X235100000Y-106833571D01*
X236385714Y-108333571D02*
X235528571Y-108333571D01*
X235957142Y-108333571D02*
X235957142Y-106833571D01*
X235957142Y-106833571D02*
X235814285Y-107047857D01*
X235814285Y-107047857D02*
X235671428Y-107190714D01*
X235671428Y-107190714D02*
X235528571Y-107262142D01*
X237028570Y-108190714D02*
X237099999Y-108262142D01*
X237099999Y-108262142D02*
X237028570Y-108333571D01*
X237028570Y-108333571D02*
X236957142Y-108262142D01*
X236957142Y-108262142D02*
X237028570Y-108190714D01*
X237028570Y-108190714D02*
X237028570Y-108333571D01*
X238028571Y-106833571D02*
X238171428Y-106833571D01*
X238171428Y-106833571D02*
X238314285Y-106905000D01*
X238314285Y-106905000D02*
X238385714Y-106976428D01*
X238385714Y-106976428D02*
X238457142Y-107119285D01*
X238457142Y-107119285D02*
X238528571Y-107405000D01*
X238528571Y-107405000D02*
X238528571Y-107762142D01*
X238528571Y-107762142D02*
X238457142Y-108047857D01*
X238457142Y-108047857D02*
X238385714Y-108190714D01*
X238385714Y-108190714D02*
X238314285Y-108262142D01*
X238314285Y-108262142D02*
X238171428Y-108333571D01*
X238171428Y-108333571D02*
X238028571Y-108333571D01*
X238028571Y-108333571D02*
X237885714Y-108262142D01*
X237885714Y-108262142D02*
X237814285Y-108190714D01*
X237814285Y-108190714D02*
X237742856Y-108047857D01*
X237742856Y-108047857D02*
X237671428Y-107762142D01*
X237671428Y-107762142D02*
X237671428Y-107405000D01*
X237671428Y-107405000D02*
X237742856Y-107119285D01*
X237742856Y-107119285D02*
X237814285Y-106976428D01*
X237814285Y-106976428D02*
X237885714Y-106905000D01*
X237885714Y-106905000D02*
X238028571Y-106833571D01*
D10*
X246217619Y-123355904D02*
X245950952Y-122974952D01*
X245760476Y-123355904D02*
X245760476Y-122555904D01*
X245760476Y-122555904D02*
X246065238Y-122555904D01*
X246065238Y-122555904D02*
X246141428Y-122594000D01*
X246141428Y-122594000D02*
X246179523Y-122632095D01*
X246179523Y-122632095D02*
X246217619Y-122708285D01*
X246217619Y-122708285D02*
X246217619Y-122822571D01*
X246217619Y-122822571D02*
X246179523Y-122898761D01*
X246179523Y-122898761D02*
X246141428Y-122936857D01*
X246141428Y-122936857D02*
X246065238Y-122974952D01*
X246065238Y-122974952D02*
X245760476Y-122974952D01*
X246560476Y-122555904D02*
X246560476Y-123203523D01*
X246560476Y-123203523D02*
X246598571Y-123279714D01*
X246598571Y-123279714D02*
X246636666Y-123317809D01*
X246636666Y-123317809D02*
X246712857Y-123355904D01*
X246712857Y-123355904D02*
X246865238Y-123355904D01*
X246865238Y-123355904D02*
X246941428Y-123317809D01*
X246941428Y-123317809D02*
X246979523Y-123279714D01*
X246979523Y-123279714D02*
X247017619Y-123203523D01*
X247017619Y-123203523D02*
X247017619Y-122555904D01*
X247398571Y-123355904D02*
X247398571Y-122555904D01*
X247398571Y-122555904D02*
X247855714Y-123355904D01*
X247855714Y-123355904D02*
X247855714Y-122555904D01*
X246029523Y-117544000D02*
X245953333Y-117505904D01*
X245953333Y-117505904D02*
X245839047Y-117505904D01*
X245839047Y-117505904D02*
X245724761Y-117544000D01*
X245724761Y-117544000D02*
X245648571Y-117620190D01*
X245648571Y-117620190D02*
X245610476Y-117696380D01*
X245610476Y-117696380D02*
X245572380Y-117848761D01*
X245572380Y-117848761D02*
X245572380Y-117963047D01*
X245572380Y-117963047D02*
X245610476Y-118115428D01*
X245610476Y-118115428D02*
X245648571Y-118191619D01*
X245648571Y-118191619D02*
X245724761Y-118267809D01*
X245724761Y-118267809D02*
X245839047Y-118305904D01*
X245839047Y-118305904D02*
X245915238Y-118305904D01*
X245915238Y-118305904D02*
X246029523Y-118267809D01*
X246029523Y-118267809D02*
X246067619Y-118229714D01*
X246067619Y-118229714D02*
X246067619Y-117963047D01*
X246067619Y-117963047D02*
X245915238Y-117963047D01*
X246410476Y-118305904D02*
X246410476Y-117505904D01*
X246410476Y-117505904D02*
X246715238Y-117505904D01*
X246715238Y-117505904D02*
X246791428Y-117544000D01*
X246791428Y-117544000D02*
X246829523Y-117582095D01*
X246829523Y-117582095D02*
X246867619Y-117658285D01*
X246867619Y-117658285D02*
X246867619Y-117772571D01*
X246867619Y-117772571D02*
X246829523Y-117848761D01*
X246829523Y-117848761D02*
X246791428Y-117886857D01*
X246791428Y-117886857D02*
X246715238Y-117924952D01*
X246715238Y-117924952D02*
X246410476Y-117924952D01*
X247629523Y-118305904D02*
X247172380Y-118305904D01*
X247400952Y-118305904D02*
X247400952Y-117505904D01*
X247400952Y-117505904D02*
X247324761Y-117620190D01*
X247324761Y-117620190D02*
X247248571Y-117696380D01*
X247248571Y-117696380D02*
X247172380Y-117734476D01*
X248315238Y-117505904D02*
X248162857Y-117505904D01*
X248162857Y-117505904D02*
X248086666Y-117544000D01*
X248086666Y-117544000D02*
X248048571Y-117582095D01*
X248048571Y-117582095D02*
X247972381Y-117696380D01*
X247972381Y-117696380D02*
X247934285Y-117848761D01*
X247934285Y-117848761D02*
X247934285Y-118153523D01*
X247934285Y-118153523D02*
X247972381Y-118229714D01*
X247972381Y-118229714D02*
X248010476Y-118267809D01*
X248010476Y-118267809D02*
X248086666Y-118305904D01*
X248086666Y-118305904D02*
X248239047Y-118305904D01*
X248239047Y-118305904D02*
X248315238Y-118267809D01*
X248315238Y-118267809D02*
X248353333Y-118229714D01*
X248353333Y-118229714D02*
X248391428Y-118153523D01*
X248391428Y-118153523D02*
X248391428Y-117963047D01*
X248391428Y-117963047D02*
X248353333Y-117886857D01*
X248353333Y-117886857D02*
X248315238Y-117848761D01*
X248315238Y-117848761D02*
X248239047Y-117810666D01*
X248239047Y-117810666D02*
X248086666Y-117810666D01*
X248086666Y-117810666D02*
X248010476Y-117848761D01*
X248010476Y-117848761D02*
X247972381Y-117886857D01*
X247972381Y-117886857D02*
X247934285Y-117963047D01*
X211238095Y-110062380D02*
X211238095Y-109062380D01*
X211238095Y-109062380D02*
X211571428Y-109776666D01*
X211571428Y-109776666D02*
X211904761Y-109062380D01*
X211904761Y-109062380D02*
X211904761Y-110062380D01*
X212809523Y-110062380D02*
X212809523Y-109538571D01*
X212809523Y-109538571D02*
X212761904Y-109443333D01*
X212761904Y-109443333D02*
X212666666Y-109395714D01*
X212666666Y-109395714D02*
X212476190Y-109395714D01*
X212476190Y-109395714D02*
X212380952Y-109443333D01*
X212809523Y-110014761D02*
X212714285Y-110062380D01*
X212714285Y-110062380D02*
X212476190Y-110062380D01*
X212476190Y-110062380D02*
X212380952Y-110014761D01*
X212380952Y-110014761D02*
X212333333Y-109919523D01*
X212333333Y-109919523D02*
X212333333Y-109824285D01*
X212333333Y-109824285D02*
X212380952Y-109729047D01*
X212380952Y-109729047D02*
X212476190Y-109681428D01*
X212476190Y-109681428D02*
X212714285Y-109681428D01*
X212714285Y-109681428D02*
X212809523Y-109633809D01*
X213285714Y-110062380D02*
X213285714Y-109395714D01*
X213285714Y-109062380D02*
X213238095Y-109110000D01*
X213238095Y-109110000D02*
X213285714Y-109157619D01*
X213285714Y-109157619D02*
X213333333Y-109110000D01*
X213333333Y-109110000D02*
X213285714Y-109062380D01*
X213285714Y-109062380D02*
X213285714Y-109157619D01*
X213761904Y-109395714D02*
X213761904Y-110062380D01*
X213761904Y-109490952D02*
X213809523Y-109443333D01*
X213809523Y-109443333D02*
X213904761Y-109395714D01*
X213904761Y-109395714D02*
X214047618Y-109395714D01*
X214047618Y-109395714D02*
X214142856Y-109443333D01*
X214142856Y-109443333D02*
X214190475Y-109538571D01*
X214190475Y-109538571D02*
X214190475Y-110062380D01*
X215266666Y-110062380D02*
X215266666Y-109062380D01*
X215266666Y-109443333D02*
X215361904Y-109395714D01*
X215361904Y-109395714D02*
X215552380Y-109395714D01*
X215552380Y-109395714D02*
X215647618Y-109443333D01*
X215647618Y-109443333D02*
X215695237Y-109490952D01*
X215695237Y-109490952D02*
X215742856Y-109586190D01*
X215742856Y-109586190D02*
X215742856Y-109871904D01*
X215742856Y-109871904D02*
X215695237Y-109967142D01*
X215695237Y-109967142D02*
X215647618Y-110014761D01*
X215647618Y-110014761D02*
X215552380Y-110062380D01*
X215552380Y-110062380D02*
X215361904Y-110062380D01*
X215361904Y-110062380D02*
X215266666Y-110014761D01*
X216314285Y-110062380D02*
X216219047Y-110014761D01*
X216219047Y-110014761D02*
X216171428Y-109967142D01*
X216171428Y-109967142D02*
X216123809Y-109871904D01*
X216123809Y-109871904D02*
X216123809Y-109586190D01*
X216123809Y-109586190D02*
X216171428Y-109490952D01*
X216171428Y-109490952D02*
X216219047Y-109443333D01*
X216219047Y-109443333D02*
X216314285Y-109395714D01*
X216314285Y-109395714D02*
X216457142Y-109395714D01*
X216457142Y-109395714D02*
X216552380Y-109443333D01*
X216552380Y-109443333D02*
X216599999Y-109490952D01*
X216599999Y-109490952D02*
X216647618Y-109586190D01*
X216647618Y-109586190D02*
X216647618Y-109871904D01*
X216647618Y-109871904D02*
X216599999Y-109967142D01*
X216599999Y-109967142D02*
X216552380Y-110014761D01*
X216552380Y-110014761D02*
X216457142Y-110062380D01*
X216457142Y-110062380D02*
X216314285Y-110062380D01*
X217504761Y-110062380D02*
X217504761Y-109538571D01*
X217504761Y-109538571D02*
X217457142Y-109443333D01*
X217457142Y-109443333D02*
X217361904Y-109395714D01*
X217361904Y-109395714D02*
X217171428Y-109395714D01*
X217171428Y-109395714D02*
X217076190Y-109443333D01*
X217504761Y-110014761D02*
X217409523Y-110062380D01*
X217409523Y-110062380D02*
X217171428Y-110062380D01*
X217171428Y-110062380D02*
X217076190Y-110014761D01*
X217076190Y-110014761D02*
X217028571Y-109919523D01*
X217028571Y-109919523D02*
X217028571Y-109824285D01*
X217028571Y-109824285D02*
X217076190Y-109729047D01*
X217076190Y-109729047D02*
X217171428Y-109681428D01*
X217171428Y-109681428D02*
X217409523Y-109681428D01*
X217409523Y-109681428D02*
X217504761Y-109633809D01*
X217980952Y-110062380D02*
X217980952Y-109395714D01*
X217980952Y-109586190D02*
X218028571Y-109490952D01*
X218028571Y-109490952D02*
X218076190Y-109443333D01*
X218076190Y-109443333D02*
X218171428Y-109395714D01*
X218171428Y-109395714D02*
X218266666Y-109395714D01*
X219028571Y-110062380D02*
X219028571Y-109062380D01*
X219028571Y-110014761D02*
X218933333Y-110062380D01*
X218933333Y-110062380D02*
X218742857Y-110062380D01*
X218742857Y-110062380D02*
X218647619Y-110014761D01*
X218647619Y-110014761D02*
X218600000Y-109967142D01*
X218600000Y-109967142D02*
X218552381Y-109871904D01*
X218552381Y-109871904D02*
X218552381Y-109586190D01*
X218552381Y-109586190D02*
X218600000Y-109490952D01*
X218600000Y-109490952D02*
X218647619Y-109443333D01*
X218647619Y-109443333D02*
X218742857Y-109395714D01*
X218742857Y-109395714D02*
X218933333Y-109395714D01*
X218933333Y-109395714D02*
X219028571Y-109443333D01*
X211238095Y-111682380D02*
X211238095Y-110682380D01*
X211238095Y-110682380D02*
X211571428Y-111396666D01*
X211571428Y-111396666D02*
X211904761Y-110682380D01*
X211904761Y-110682380D02*
X211904761Y-111682380D01*
X212809523Y-111682380D02*
X212809523Y-111158571D01*
X212809523Y-111158571D02*
X212761904Y-111063333D01*
X212761904Y-111063333D02*
X212666666Y-111015714D01*
X212666666Y-111015714D02*
X212476190Y-111015714D01*
X212476190Y-111015714D02*
X212380952Y-111063333D01*
X212809523Y-111634761D02*
X212714285Y-111682380D01*
X212714285Y-111682380D02*
X212476190Y-111682380D01*
X212476190Y-111682380D02*
X212380952Y-111634761D01*
X212380952Y-111634761D02*
X212333333Y-111539523D01*
X212333333Y-111539523D02*
X212333333Y-111444285D01*
X212333333Y-111444285D02*
X212380952Y-111349047D01*
X212380952Y-111349047D02*
X212476190Y-111301428D01*
X212476190Y-111301428D02*
X212714285Y-111301428D01*
X212714285Y-111301428D02*
X212809523Y-111253809D01*
X213714285Y-111682380D02*
X213714285Y-110682380D01*
X213714285Y-111634761D02*
X213619047Y-111682380D01*
X213619047Y-111682380D02*
X213428571Y-111682380D01*
X213428571Y-111682380D02*
X213333333Y-111634761D01*
X213333333Y-111634761D02*
X213285714Y-111587142D01*
X213285714Y-111587142D02*
X213238095Y-111491904D01*
X213238095Y-111491904D02*
X213238095Y-111206190D01*
X213238095Y-111206190D02*
X213285714Y-111110952D01*
X213285714Y-111110952D02*
X213333333Y-111063333D01*
X213333333Y-111063333D02*
X213428571Y-111015714D01*
X213428571Y-111015714D02*
X213619047Y-111015714D01*
X213619047Y-111015714D02*
X213714285Y-111063333D01*
X214571428Y-111634761D02*
X214476190Y-111682380D01*
X214476190Y-111682380D02*
X214285714Y-111682380D01*
X214285714Y-111682380D02*
X214190476Y-111634761D01*
X214190476Y-111634761D02*
X214142857Y-111539523D01*
X214142857Y-111539523D02*
X214142857Y-111158571D01*
X214142857Y-111158571D02*
X214190476Y-111063333D01*
X214190476Y-111063333D02*
X214285714Y-111015714D01*
X214285714Y-111015714D02*
X214476190Y-111015714D01*
X214476190Y-111015714D02*
X214571428Y-111063333D01*
X214571428Y-111063333D02*
X214619047Y-111158571D01*
X214619047Y-111158571D02*
X214619047Y-111253809D01*
X214619047Y-111253809D02*
X214142857Y-111349047D01*
X215647619Y-111682380D02*
X215647619Y-110682380D01*
X215647619Y-111063333D02*
X215742857Y-111015714D01*
X215742857Y-111015714D02*
X215933333Y-111015714D01*
X215933333Y-111015714D02*
X216028571Y-111063333D01*
X216028571Y-111063333D02*
X216076190Y-111110952D01*
X216076190Y-111110952D02*
X216123809Y-111206190D01*
X216123809Y-111206190D02*
X216123809Y-111491904D01*
X216123809Y-111491904D02*
X216076190Y-111587142D01*
X216076190Y-111587142D02*
X216028571Y-111634761D01*
X216028571Y-111634761D02*
X215933333Y-111682380D01*
X215933333Y-111682380D02*
X215742857Y-111682380D01*
X215742857Y-111682380D02*
X215647619Y-111634761D01*
X216457143Y-111015714D02*
X216695238Y-111682380D01*
X216933333Y-111015714D02*
X216695238Y-111682380D01*
X216695238Y-111682380D02*
X216600000Y-111920476D01*
X216600000Y-111920476D02*
X216552381Y-111968095D01*
X216552381Y-111968095D02*
X216457143Y-112015714D01*
X217314286Y-111587142D02*
X217361905Y-111634761D01*
X217361905Y-111634761D02*
X217314286Y-111682380D01*
X217314286Y-111682380D02*
X217266667Y-111634761D01*
X217266667Y-111634761D02*
X217314286Y-111587142D01*
X217314286Y-111587142D02*
X217314286Y-111682380D01*
X217314286Y-111063333D02*
X217361905Y-111110952D01*
X217361905Y-111110952D02*
X217314286Y-111158571D01*
X217314286Y-111158571D02*
X217266667Y-111110952D01*
X217266667Y-111110952D02*
X217314286Y-111063333D01*
X217314286Y-111063333D02*
X217314286Y-111158571D01*
X218390476Y-111682380D02*
X218390476Y-110682380D01*
X218390476Y-110682380D02*
X218961904Y-111682380D01*
X218961904Y-111682380D02*
X218961904Y-110682380D01*
X219866666Y-111682380D02*
X219866666Y-111158571D01*
X219866666Y-111158571D02*
X219819047Y-111063333D01*
X219819047Y-111063333D02*
X219723809Y-111015714D01*
X219723809Y-111015714D02*
X219533333Y-111015714D01*
X219533333Y-111015714D02*
X219438095Y-111063333D01*
X219866666Y-111634761D02*
X219771428Y-111682380D01*
X219771428Y-111682380D02*
X219533333Y-111682380D01*
X219533333Y-111682380D02*
X219438095Y-111634761D01*
X219438095Y-111634761D02*
X219390476Y-111539523D01*
X219390476Y-111539523D02*
X219390476Y-111444285D01*
X219390476Y-111444285D02*
X219438095Y-111349047D01*
X219438095Y-111349047D02*
X219533333Y-111301428D01*
X219533333Y-111301428D02*
X219771428Y-111301428D01*
X219771428Y-111301428D02*
X219866666Y-111253809D01*
X220342857Y-111682380D02*
X220342857Y-111015714D01*
X220342857Y-111206190D02*
X220390476Y-111110952D01*
X220390476Y-111110952D02*
X220438095Y-111063333D01*
X220438095Y-111063333D02*
X220533333Y-111015714D01*
X220533333Y-111015714D02*
X220628571Y-111015714D01*
X220866667Y-111015714D02*
X221057143Y-111682380D01*
X221057143Y-111682380D02*
X221247619Y-111206190D01*
X221247619Y-111206190D02*
X221438095Y-111682380D01*
X221438095Y-111682380D02*
X221628571Y-111015714D01*
X222009524Y-111682380D02*
X222009524Y-111015714D01*
X222009524Y-110682380D02*
X221961905Y-110730000D01*
X221961905Y-110730000D02*
X222009524Y-110777619D01*
X222009524Y-110777619D02*
X222057143Y-110730000D01*
X222057143Y-110730000D02*
X222009524Y-110682380D01*
X222009524Y-110682380D02*
X222009524Y-110777619D01*
X222485714Y-111015714D02*
X222485714Y-111682380D01*
X222485714Y-111110952D02*
X222533333Y-111063333D01*
X222533333Y-111063333D02*
X222628571Y-111015714D01*
X222628571Y-111015714D02*
X222771428Y-111015714D01*
X222771428Y-111015714D02*
X222866666Y-111063333D01*
X222866666Y-111063333D02*
X222914285Y-111158571D01*
X222914285Y-111158571D02*
X222914285Y-111682380D01*
X224514285Y-110730000D02*
X224419047Y-110682380D01*
X224419047Y-110682380D02*
X224276190Y-110682380D01*
X224276190Y-110682380D02*
X224133333Y-110730000D01*
X224133333Y-110730000D02*
X224038095Y-110825238D01*
X224038095Y-110825238D02*
X223990476Y-110920476D01*
X223990476Y-110920476D02*
X223942857Y-111110952D01*
X223942857Y-111110952D02*
X223942857Y-111253809D01*
X223942857Y-111253809D02*
X223990476Y-111444285D01*
X223990476Y-111444285D02*
X224038095Y-111539523D01*
X224038095Y-111539523D02*
X224133333Y-111634761D01*
X224133333Y-111634761D02*
X224276190Y-111682380D01*
X224276190Y-111682380D02*
X224371428Y-111682380D01*
X224371428Y-111682380D02*
X224514285Y-111634761D01*
X224514285Y-111634761D02*
X224561904Y-111587142D01*
X224561904Y-111587142D02*
X224561904Y-111253809D01*
X224561904Y-111253809D02*
X224371428Y-111253809D01*
X225419047Y-111682380D02*
X225419047Y-111158571D01*
X225419047Y-111158571D02*
X225371428Y-111063333D01*
X225371428Y-111063333D02*
X225276190Y-111015714D01*
X225276190Y-111015714D02*
X225085714Y-111015714D01*
X225085714Y-111015714D02*
X224990476Y-111063333D01*
X225419047Y-111634761D02*
X225323809Y-111682380D01*
X225323809Y-111682380D02*
X225085714Y-111682380D01*
X225085714Y-111682380D02*
X224990476Y-111634761D01*
X224990476Y-111634761D02*
X224942857Y-111539523D01*
X224942857Y-111539523D02*
X224942857Y-111444285D01*
X224942857Y-111444285D02*
X224990476Y-111349047D01*
X224990476Y-111349047D02*
X225085714Y-111301428D01*
X225085714Y-111301428D02*
X225323809Y-111301428D01*
X225323809Y-111301428D02*
X225419047Y-111253809D01*
X225895238Y-111015714D02*
X225895238Y-111682380D01*
X225895238Y-111110952D02*
X225942857Y-111063333D01*
X225942857Y-111063333D02*
X226038095Y-111015714D01*
X226038095Y-111015714D02*
X226180952Y-111015714D01*
X226180952Y-111015714D02*
X226276190Y-111063333D01*
X226276190Y-111063333D02*
X226323809Y-111158571D01*
X226323809Y-111158571D02*
X226323809Y-111682380D01*
X227228571Y-111015714D02*
X227228571Y-111825238D01*
X227228571Y-111825238D02*
X227180952Y-111920476D01*
X227180952Y-111920476D02*
X227133333Y-111968095D01*
X227133333Y-111968095D02*
X227038095Y-112015714D01*
X227038095Y-112015714D02*
X226895238Y-112015714D01*
X226895238Y-112015714D02*
X226800000Y-111968095D01*
X227228571Y-111634761D02*
X227133333Y-111682380D01*
X227133333Y-111682380D02*
X226942857Y-111682380D01*
X226942857Y-111682380D02*
X226847619Y-111634761D01*
X226847619Y-111634761D02*
X226800000Y-111587142D01*
X226800000Y-111587142D02*
X226752381Y-111491904D01*
X226752381Y-111491904D02*
X226752381Y-111206190D01*
X226752381Y-111206190D02*
X226800000Y-111110952D01*
X226800000Y-111110952D02*
X226847619Y-111063333D01*
X226847619Y-111063333D02*
X226942857Y-111015714D01*
X226942857Y-111015714D02*
X227133333Y-111015714D01*
X227133333Y-111015714D02*
X227228571Y-111063333D01*
X228133333Y-111682380D02*
X228133333Y-111158571D01*
X228133333Y-111158571D02*
X228085714Y-111063333D01*
X228085714Y-111063333D02*
X227990476Y-111015714D01*
X227990476Y-111015714D02*
X227800000Y-111015714D01*
X227800000Y-111015714D02*
X227704762Y-111063333D01*
X228133333Y-111634761D02*
X228038095Y-111682380D01*
X228038095Y-111682380D02*
X227800000Y-111682380D01*
X227800000Y-111682380D02*
X227704762Y-111634761D01*
X227704762Y-111634761D02*
X227657143Y-111539523D01*
X227657143Y-111539523D02*
X227657143Y-111444285D01*
X227657143Y-111444285D02*
X227704762Y-111349047D01*
X227704762Y-111349047D02*
X227800000Y-111301428D01*
X227800000Y-111301428D02*
X228038095Y-111301428D01*
X228038095Y-111301428D02*
X228133333Y-111253809D01*
X229638095Y-111682380D02*
X229638095Y-111158571D01*
X229638095Y-111158571D02*
X229590476Y-111063333D01*
X229590476Y-111063333D02*
X229495238Y-111015714D01*
X229495238Y-111015714D02*
X229304762Y-111015714D01*
X229304762Y-111015714D02*
X229209524Y-111063333D01*
X229638095Y-111634761D02*
X229542857Y-111682380D01*
X229542857Y-111682380D02*
X229304762Y-111682380D01*
X229304762Y-111682380D02*
X229209524Y-111634761D01*
X229209524Y-111634761D02*
X229161905Y-111539523D01*
X229161905Y-111539523D02*
X229161905Y-111444285D01*
X229161905Y-111444285D02*
X229209524Y-111349047D01*
X229209524Y-111349047D02*
X229304762Y-111301428D01*
X229304762Y-111301428D02*
X229542857Y-111301428D01*
X229542857Y-111301428D02*
X229638095Y-111253809D01*
X230114286Y-111015714D02*
X230114286Y-111682380D01*
X230114286Y-111110952D02*
X230161905Y-111063333D01*
X230161905Y-111063333D02*
X230257143Y-111015714D01*
X230257143Y-111015714D02*
X230400000Y-111015714D01*
X230400000Y-111015714D02*
X230495238Y-111063333D01*
X230495238Y-111063333D02*
X230542857Y-111158571D01*
X230542857Y-111158571D02*
X230542857Y-111682380D01*
X231447619Y-111682380D02*
X231447619Y-110682380D01*
X231447619Y-111634761D02*
X231352381Y-111682380D01*
X231352381Y-111682380D02*
X231161905Y-111682380D01*
X231161905Y-111682380D02*
X231066667Y-111634761D01*
X231066667Y-111634761D02*
X231019048Y-111587142D01*
X231019048Y-111587142D02*
X230971429Y-111491904D01*
X230971429Y-111491904D02*
X230971429Y-111206190D01*
X230971429Y-111206190D02*
X231019048Y-111110952D01*
X231019048Y-111110952D02*
X231066667Y-111063333D01*
X231066667Y-111063333D02*
X231161905Y-111015714D01*
X231161905Y-111015714D02*
X231352381Y-111015714D01*
X231352381Y-111015714D02*
X231447619Y-111063333D01*
X232476191Y-111396666D02*
X232952381Y-111396666D01*
X232380953Y-111682380D02*
X232714286Y-110682380D01*
X232714286Y-110682380D02*
X233047619Y-111682380D01*
X233285715Y-111015714D02*
X233523810Y-111682380D01*
X233761905Y-111015714D02*
X233523810Y-111682380D01*
X233523810Y-111682380D02*
X233428572Y-111920476D01*
X233428572Y-111920476D02*
X233380953Y-111968095D01*
X233380953Y-111968095D02*
X233285715Y-112015714D01*
X234285715Y-111682380D02*
X234190477Y-111634761D01*
X234190477Y-111634761D02*
X234142858Y-111587142D01*
X234142858Y-111587142D02*
X234095239Y-111491904D01*
X234095239Y-111491904D02*
X234095239Y-111206190D01*
X234095239Y-111206190D02*
X234142858Y-111110952D01*
X234142858Y-111110952D02*
X234190477Y-111063333D01*
X234190477Y-111063333D02*
X234285715Y-111015714D01*
X234285715Y-111015714D02*
X234428572Y-111015714D01*
X234428572Y-111015714D02*
X234523810Y-111063333D01*
X234523810Y-111063333D02*
X234571429Y-111110952D01*
X234571429Y-111110952D02*
X234619048Y-111206190D01*
X234619048Y-111206190D02*
X234619048Y-111491904D01*
X234619048Y-111491904D02*
X234571429Y-111587142D01*
X234571429Y-111587142D02*
X234523810Y-111634761D01*
X234523810Y-111634761D02*
X234428572Y-111682380D01*
X234428572Y-111682380D02*
X234285715Y-111682380D01*
X235476191Y-111015714D02*
X235476191Y-111682380D01*
X235047620Y-111015714D02*
X235047620Y-111539523D01*
X235047620Y-111539523D02*
X235095239Y-111634761D01*
X235095239Y-111634761D02*
X235190477Y-111682380D01*
X235190477Y-111682380D02*
X235333334Y-111682380D01*
X235333334Y-111682380D02*
X235428572Y-111634761D01*
X235428572Y-111634761D02*
X235476191Y-111587142D01*
X235952382Y-111682380D02*
X235952382Y-110682380D01*
X235952382Y-111063333D02*
X236047620Y-111015714D01*
X236047620Y-111015714D02*
X236238096Y-111015714D01*
X236238096Y-111015714D02*
X236333334Y-111063333D01*
X236333334Y-111063333D02*
X236380953Y-111110952D01*
X236380953Y-111110952D02*
X236428572Y-111206190D01*
X236428572Y-111206190D02*
X236428572Y-111491904D01*
X236428572Y-111491904D02*
X236380953Y-111587142D01*
X236380953Y-111587142D02*
X236333334Y-111634761D01*
X236333334Y-111634761D02*
X236238096Y-111682380D01*
X236238096Y-111682380D02*
X236047620Y-111682380D01*
X236047620Y-111682380D02*
X235952382Y-111634761D01*
X237790477Y-111158571D02*
X237933334Y-111206190D01*
X237933334Y-111206190D02*
X237980953Y-111253809D01*
X237980953Y-111253809D02*
X238028572Y-111349047D01*
X238028572Y-111349047D02*
X238028572Y-111491904D01*
X238028572Y-111491904D02*
X237980953Y-111587142D01*
X237980953Y-111587142D02*
X237933334Y-111634761D01*
X237933334Y-111634761D02*
X237838096Y-111682380D01*
X237838096Y-111682380D02*
X237457144Y-111682380D01*
X237457144Y-111682380D02*
X237457144Y-110682380D01*
X237457144Y-110682380D02*
X237790477Y-110682380D01*
X237790477Y-110682380D02*
X237885715Y-110730000D01*
X237885715Y-110730000D02*
X237933334Y-110777619D01*
X237933334Y-110777619D02*
X237980953Y-110872857D01*
X237980953Y-110872857D02*
X237980953Y-110968095D01*
X237980953Y-110968095D02*
X237933334Y-111063333D01*
X237933334Y-111063333D02*
X237885715Y-111110952D01*
X237885715Y-111110952D02*
X237790477Y-111158571D01*
X237790477Y-111158571D02*
X237457144Y-111158571D01*
X238838096Y-111634761D02*
X238742858Y-111682380D01*
X238742858Y-111682380D02*
X238552382Y-111682380D01*
X238552382Y-111682380D02*
X238457144Y-111634761D01*
X238457144Y-111634761D02*
X238409525Y-111539523D01*
X238409525Y-111539523D02*
X238409525Y-111158571D01*
X238409525Y-111158571D02*
X238457144Y-111063333D01*
X238457144Y-111063333D02*
X238552382Y-111015714D01*
X238552382Y-111015714D02*
X238742858Y-111015714D01*
X238742858Y-111015714D02*
X238838096Y-111063333D01*
X238838096Y-111063333D02*
X238885715Y-111158571D01*
X238885715Y-111158571D02*
X238885715Y-111253809D01*
X238885715Y-111253809D02*
X238409525Y-111349047D01*
X239314287Y-111015714D02*
X239314287Y-111682380D01*
X239314287Y-111110952D02*
X239361906Y-111063333D01*
X239361906Y-111063333D02*
X239457144Y-111015714D01*
X239457144Y-111015714D02*
X239600001Y-111015714D01*
X239600001Y-111015714D02*
X239695239Y-111063333D01*
X239695239Y-111063333D02*
X239742858Y-111158571D01*
X239742858Y-111158571D02*
X239742858Y-111682380D01*
X240647620Y-111682380D02*
X240647620Y-111158571D01*
X240647620Y-111158571D02*
X240600001Y-111063333D01*
X240600001Y-111063333D02*
X240504763Y-111015714D01*
X240504763Y-111015714D02*
X240314287Y-111015714D01*
X240314287Y-111015714D02*
X240219049Y-111063333D01*
X240647620Y-111634761D02*
X240552382Y-111682380D01*
X240552382Y-111682380D02*
X240314287Y-111682380D01*
X240314287Y-111682380D02*
X240219049Y-111634761D01*
X240219049Y-111634761D02*
X240171430Y-111539523D01*
X240171430Y-111539523D02*
X240171430Y-111444285D01*
X240171430Y-111444285D02*
X240219049Y-111349047D01*
X240219049Y-111349047D02*
X240314287Y-111301428D01*
X240314287Y-111301428D02*
X240552382Y-111301428D01*
X240552382Y-111301428D02*
X240647620Y-111253809D01*
X241123811Y-111682380D02*
X241123811Y-111015714D01*
X241123811Y-110682380D02*
X241076192Y-110730000D01*
X241076192Y-110730000D02*
X241123811Y-110777619D01*
X241123811Y-110777619D02*
X241171430Y-110730000D01*
X241171430Y-110730000D02*
X241123811Y-110682380D01*
X241123811Y-110682380D02*
X241123811Y-110777619D01*
X241552382Y-111634761D02*
X241647620Y-111682380D01*
X241647620Y-111682380D02*
X241838096Y-111682380D01*
X241838096Y-111682380D02*
X241933334Y-111634761D01*
X241933334Y-111634761D02*
X241980953Y-111539523D01*
X241980953Y-111539523D02*
X241980953Y-111491904D01*
X241980953Y-111491904D02*
X241933334Y-111396666D01*
X241933334Y-111396666D02*
X241838096Y-111349047D01*
X241838096Y-111349047D02*
X241695239Y-111349047D01*
X241695239Y-111349047D02*
X241600001Y-111301428D01*
X241600001Y-111301428D02*
X241552382Y-111206190D01*
X241552382Y-111206190D02*
X241552382Y-111158571D01*
X241552382Y-111158571D02*
X241600001Y-111063333D01*
X241600001Y-111063333D02*
X241695239Y-111015714D01*
X241695239Y-111015714D02*
X241838096Y-111015714D01*
X241838096Y-111015714D02*
X241933334Y-111063333D01*
X242361906Y-111634761D02*
X242457144Y-111682380D01*
X242457144Y-111682380D02*
X242647620Y-111682380D01*
X242647620Y-111682380D02*
X242742858Y-111634761D01*
X242742858Y-111634761D02*
X242790477Y-111539523D01*
X242790477Y-111539523D02*
X242790477Y-111491904D01*
X242790477Y-111491904D02*
X242742858Y-111396666D01*
X242742858Y-111396666D02*
X242647620Y-111349047D01*
X242647620Y-111349047D02*
X242504763Y-111349047D01*
X242504763Y-111349047D02*
X242409525Y-111301428D01*
X242409525Y-111301428D02*
X242361906Y-111206190D01*
X242361906Y-111206190D02*
X242361906Y-111158571D01*
X242361906Y-111158571D02*
X242409525Y-111063333D01*
X242409525Y-111063333D02*
X242504763Y-111015714D01*
X242504763Y-111015714D02*
X242647620Y-111015714D01*
X242647620Y-111015714D02*
X242742858Y-111063333D01*
X243647620Y-111682380D02*
X243647620Y-111158571D01*
X243647620Y-111158571D02*
X243600001Y-111063333D01*
X243600001Y-111063333D02*
X243504763Y-111015714D01*
X243504763Y-111015714D02*
X243314287Y-111015714D01*
X243314287Y-111015714D02*
X243219049Y-111063333D01*
X243647620Y-111634761D02*
X243552382Y-111682380D01*
X243552382Y-111682380D02*
X243314287Y-111682380D01*
X243314287Y-111682380D02*
X243219049Y-111634761D01*
X243219049Y-111634761D02*
X243171430Y-111539523D01*
X243171430Y-111539523D02*
X243171430Y-111444285D01*
X243171430Y-111444285D02*
X243219049Y-111349047D01*
X243219049Y-111349047D02*
X243314287Y-111301428D01*
X243314287Y-111301428D02*
X243552382Y-111301428D01*
X243552382Y-111301428D02*
X243647620Y-111253809D01*
X174070000Y-123377666D02*
X174503333Y-123377666D01*
X174503333Y-123377666D02*
X174270000Y-123644333D01*
X174270000Y-123644333D02*
X174370000Y-123644333D01*
X174370000Y-123644333D02*
X174436666Y-123677666D01*
X174436666Y-123677666D02*
X174470000Y-123711000D01*
X174470000Y-123711000D02*
X174503333Y-123777666D01*
X174503333Y-123777666D02*
X174503333Y-123944333D01*
X174503333Y-123944333D02*
X174470000Y-124011000D01*
X174470000Y-124011000D02*
X174436666Y-124044333D01*
X174436666Y-124044333D02*
X174370000Y-124077666D01*
X174370000Y-124077666D02*
X174170000Y-124077666D01*
X174170000Y-124077666D02*
X174103333Y-124044333D01*
X174103333Y-124044333D02*
X174070000Y-124011000D01*
X174703333Y-123377666D02*
X174936667Y-124077666D01*
X174936667Y-124077666D02*
X175170000Y-123377666D01*
X175336667Y-123377666D02*
X175770000Y-123377666D01*
X175770000Y-123377666D02*
X175536667Y-123644333D01*
X175536667Y-123644333D02*
X175636667Y-123644333D01*
X175636667Y-123644333D02*
X175703333Y-123677666D01*
X175703333Y-123677666D02*
X175736667Y-123711000D01*
X175736667Y-123711000D02*
X175770000Y-123777666D01*
X175770000Y-123777666D02*
X175770000Y-123944333D01*
X175770000Y-123944333D02*
X175736667Y-124011000D01*
X175736667Y-124011000D02*
X175703333Y-124044333D01*
X175703333Y-124044333D02*
X175636667Y-124077666D01*
X175636667Y-124077666D02*
X175436667Y-124077666D01*
X175436667Y-124077666D02*
X175370000Y-124044333D01*
X175370000Y-124044333D02*
X175336667Y-124011000D01*
X232964000Y-148140476D02*
X232925904Y-148216666D01*
X232925904Y-148216666D02*
X232925904Y-148330952D01*
X232925904Y-148330952D02*
X232964000Y-148445238D01*
X232964000Y-148445238D02*
X233040190Y-148521428D01*
X233040190Y-148521428D02*
X233116380Y-148559523D01*
X233116380Y-148559523D02*
X233268761Y-148597619D01*
X233268761Y-148597619D02*
X233383047Y-148597619D01*
X233383047Y-148597619D02*
X233535428Y-148559523D01*
X233535428Y-148559523D02*
X233611619Y-148521428D01*
X233611619Y-148521428D02*
X233687809Y-148445238D01*
X233687809Y-148445238D02*
X233725904Y-148330952D01*
X233725904Y-148330952D02*
X233725904Y-148254761D01*
X233725904Y-148254761D02*
X233687809Y-148140476D01*
X233687809Y-148140476D02*
X233649714Y-148102380D01*
X233649714Y-148102380D02*
X233383047Y-148102380D01*
X233383047Y-148102380D02*
X233383047Y-148254761D01*
X233725904Y-147759523D02*
X232925904Y-147759523D01*
X232925904Y-147759523D02*
X232925904Y-147454761D01*
X232925904Y-147454761D02*
X232964000Y-147378571D01*
X232964000Y-147378571D02*
X233002095Y-147340476D01*
X233002095Y-147340476D02*
X233078285Y-147302380D01*
X233078285Y-147302380D02*
X233192571Y-147302380D01*
X233192571Y-147302380D02*
X233268761Y-147340476D01*
X233268761Y-147340476D02*
X233306857Y-147378571D01*
X233306857Y-147378571D02*
X233344952Y-147454761D01*
X233344952Y-147454761D02*
X233344952Y-147759523D01*
X233725904Y-146540476D02*
X233725904Y-146997619D01*
X233725904Y-146769047D02*
X232925904Y-146769047D01*
X232925904Y-146769047D02*
X233040190Y-146845238D01*
X233040190Y-146845238D02*
X233116380Y-146921428D01*
X233116380Y-146921428D02*
X233154476Y-146997619D01*
X232925904Y-146273809D02*
X232925904Y-145778571D01*
X232925904Y-145778571D02*
X233230666Y-146045237D01*
X233230666Y-146045237D02*
X233230666Y-145930952D01*
X233230666Y-145930952D02*
X233268761Y-145854761D01*
X233268761Y-145854761D02*
X233306857Y-145816666D01*
X233306857Y-145816666D02*
X233383047Y-145778571D01*
X233383047Y-145778571D02*
X233573523Y-145778571D01*
X233573523Y-145778571D02*
X233649714Y-145816666D01*
X233649714Y-145816666D02*
X233687809Y-145854761D01*
X233687809Y-145854761D02*
X233725904Y-145930952D01*
X233725904Y-145930952D02*
X233725904Y-146159523D01*
X233725904Y-146159523D02*
X233687809Y-146235714D01*
X233687809Y-146235714D02*
X233649714Y-146273809D01*
X228064000Y-148190476D02*
X228025904Y-148266666D01*
X228025904Y-148266666D02*
X228025904Y-148380952D01*
X228025904Y-148380952D02*
X228064000Y-148495238D01*
X228064000Y-148495238D02*
X228140190Y-148571428D01*
X228140190Y-148571428D02*
X228216380Y-148609523D01*
X228216380Y-148609523D02*
X228368761Y-148647619D01*
X228368761Y-148647619D02*
X228483047Y-148647619D01*
X228483047Y-148647619D02*
X228635428Y-148609523D01*
X228635428Y-148609523D02*
X228711619Y-148571428D01*
X228711619Y-148571428D02*
X228787809Y-148495238D01*
X228787809Y-148495238D02*
X228825904Y-148380952D01*
X228825904Y-148380952D02*
X228825904Y-148304761D01*
X228825904Y-148304761D02*
X228787809Y-148190476D01*
X228787809Y-148190476D02*
X228749714Y-148152380D01*
X228749714Y-148152380D02*
X228483047Y-148152380D01*
X228483047Y-148152380D02*
X228483047Y-148304761D01*
X228825904Y-147809523D02*
X228025904Y-147809523D01*
X228025904Y-147809523D02*
X228025904Y-147504761D01*
X228025904Y-147504761D02*
X228064000Y-147428571D01*
X228064000Y-147428571D02*
X228102095Y-147390476D01*
X228102095Y-147390476D02*
X228178285Y-147352380D01*
X228178285Y-147352380D02*
X228292571Y-147352380D01*
X228292571Y-147352380D02*
X228368761Y-147390476D01*
X228368761Y-147390476D02*
X228406857Y-147428571D01*
X228406857Y-147428571D02*
X228444952Y-147504761D01*
X228444952Y-147504761D02*
X228444952Y-147809523D01*
X228102095Y-147047619D02*
X228064000Y-147009523D01*
X228064000Y-147009523D02*
X228025904Y-146933333D01*
X228025904Y-146933333D02*
X228025904Y-146742857D01*
X228025904Y-146742857D02*
X228064000Y-146666666D01*
X228064000Y-146666666D02*
X228102095Y-146628571D01*
X228102095Y-146628571D02*
X228178285Y-146590476D01*
X228178285Y-146590476D02*
X228254476Y-146590476D01*
X228254476Y-146590476D02*
X228368761Y-146628571D01*
X228368761Y-146628571D02*
X228825904Y-147085714D01*
X228825904Y-147085714D02*
X228825904Y-146590476D01*
X228025904Y-145904761D02*
X228025904Y-146057142D01*
X228025904Y-146057142D02*
X228064000Y-146133333D01*
X228064000Y-146133333D02*
X228102095Y-146171428D01*
X228102095Y-146171428D02*
X228216380Y-146247618D01*
X228216380Y-146247618D02*
X228368761Y-146285714D01*
X228368761Y-146285714D02*
X228673523Y-146285714D01*
X228673523Y-146285714D02*
X228749714Y-146247618D01*
X228749714Y-146247618D02*
X228787809Y-146209523D01*
X228787809Y-146209523D02*
X228825904Y-146133333D01*
X228825904Y-146133333D02*
X228825904Y-145980952D01*
X228825904Y-145980952D02*
X228787809Y-145904761D01*
X228787809Y-145904761D02*
X228749714Y-145866666D01*
X228749714Y-145866666D02*
X228673523Y-145828571D01*
X228673523Y-145828571D02*
X228483047Y-145828571D01*
X228483047Y-145828571D02*
X228406857Y-145866666D01*
X228406857Y-145866666D02*
X228368761Y-145904761D01*
X228368761Y-145904761D02*
X228330666Y-145980952D01*
X228330666Y-145980952D02*
X228330666Y-146133333D01*
X228330666Y-146133333D02*
X228368761Y-146209523D01*
X228368761Y-146209523D02*
X228406857Y-146247618D01*
X228406857Y-146247618D02*
X228483047Y-146285714D01*
X246049523Y-112344000D02*
X245973333Y-112305904D01*
X245973333Y-112305904D02*
X245859047Y-112305904D01*
X245859047Y-112305904D02*
X245744761Y-112344000D01*
X245744761Y-112344000D02*
X245668571Y-112420190D01*
X245668571Y-112420190D02*
X245630476Y-112496380D01*
X245630476Y-112496380D02*
X245592380Y-112648761D01*
X245592380Y-112648761D02*
X245592380Y-112763047D01*
X245592380Y-112763047D02*
X245630476Y-112915428D01*
X245630476Y-112915428D02*
X245668571Y-112991619D01*
X245668571Y-112991619D02*
X245744761Y-113067809D01*
X245744761Y-113067809D02*
X245859047Y-113105904D01*
X245859047Y-113105904D02*
X245935238Y-113105904D01*
X245935238Y-113105904D02*
X246049523Y-113067809D01*
X246049523Y-113067809D02*
X246087619Y-113029714D01*
X246087619Y-113029714D02*
X246087619Y-112763047D01*
X246087619Y-112763047D02*
X245935238Y-112763047D01*
X246430476Y-113105904D02*
X246430476Y-112305904D01*
X246430476Y-112305904D02*
X246735238Y-112305904D01*
X246735238Y-112305904D02*
X246811428Y-112344000D01*
X246811428Y-112344000D02*
X246849523Y-112382095D01*
X246849523Y-112382095D02*
X246887619Y-112458285D01*
X246887619Y-112458285D02*
X246887619Y-112572571D01*
X246887619Y-112572571D02*
X246849523Y-112648761D01*
X246849523Y-112648761D02*
X246811428Y-112686857D01*
X246811428Y-112686857D02*
X246735238Y-112724952D01*
X246735238Y-112724952D02*
X246430476Y-112724952D01*
X247649523Y-113105904D02*
X247192380Y-113105904D01*
X247420952Y-113105904D02*
X247420952Y-112305904D01*
X247420952Y-112305904D02*
X247344761Y-112420190D01*
X247344761Y-112420190D02*
X247268571Y-112496380D01*
X247268571Y-112496380D02*
X247192380Y-112534476D01*
X248106666Y-112648761D02*
X248030476Y-112610666D01*
X248030476Y-112610666D02*
X247992381Y-112572571D01*
X247992381Y-112572571D02*
X247954285Y-112496380D01*
X247954285Y-112496380D02*
X247954285Y-112458285D01*
X247954285Y-112458285D02*
X247992381Y-112382095D01*
X247992381Y-112382095D02*
X248030476Y-112344000D01*
X248030476Y-112344000D02*
X248106666Y-112305904D01*
X248106666Y-112305904D02*
X248259047Y-112305904D01*
X248259047Y-112305904D02*
X248335238Y-112344000D01*
X248335238Y-112344000D02*
X248373333Y-112382095D01*
X248373333Y-112382095D02*
X248411428Y-112458285D01*
X248411428Y-112458285D02*
X248411428Y-112496380D01*
X248411428Y-112496380D02*
X248373333Y-112572571D01*
X248373333Y-112572571D02*
X248335238Y-112610666D01*
X248335238Y-112610666D02*
X248259047Y-112648761D01*
X248259047Y-112648761D02*
X248106666Y-112648761D01*
X248106666Y-112648761D02*
X248030476Y-112686857D01*
X248030476Y-112686857D02*
X247992381Y-112724952D01*
X247992381Y-112724952D02*
X247954285Y-112801142D01*
X247954285Y-112801142D02*
X247954285Y-112953523D01*
X247954285Y-112953523D02*
X247992381Y-113029714D01*
X247992381Y-113029714D02*
X248030476Y-113067809D01*
X248030476Y-113067809D02*
X248106666Y-113105904D01*
X248106666Y-113105904D02*
X248259047Y-113105904D01*
X248259047Y-113105904D02*
X248335238Y-113067809D01*
X248335238Y-113067809D02*
X248373333Y-113029714D01*
X248373333Y-113029714D02*
X248411428Y-112953523D01*
X248411428Y-112953523D02*
X248411428Y-112801142D01*
X248411428Y-112801142D02*
X248373333Y-112724952D01*
X248373333Y-112724952D02*
X248335238Y-112686857D01*
X248335238Y-112686857D02*
X248259047Y-112648761D01*
X217854000Y-148080476D02*
X217815904Y-148156666D01*
X217815904Y-148156666D02*
X217815904Y-148270952D01*
X217815904Y-148270952D02*
X217854000Y-148385238D01*
X217854000Y-148385238D02*
X217930190Y-148461428D01*
X217930190Y-148461428D02*
X218006380Y-148499523D01*
X218006380Y-148499523D02*
X218158761Y-148537619D01*
X218158761Y-148537619D02*
X218273047Y-148537619D01*
X218273047Y-148537619D02*
X218425428Y-148499523D01*
X218425428Y-148499523D02*
X218501619Y-148461428D01*
X218501619Y-148461428D02*
X218577809Y-148385238D01*
X218577809Y-148385238D02*
X218615904Y-148270952D01*
X218615904Y-148270952D02*
X218615904Y-148194761D01*
X218615904Y-148194761D02*
X218577809Y-148080476D01*
X218577809Y-148080476D02*
X218539714Y-148042380D01*
X218539714Y-148042380D02*
X218273047Y-148042380D01*
X218273047Y-148042380D02*
X218273047Y-148194761D01*
X218615904Y-147699523D02*
X217815904Y-147699523D01*
X217815904Y-147699523D02*
X217815904Y-147394761D01*
X217815904Y-147394761D02*
X217854000Y-147318571D01*
X217854000Y-147318571D02*
X217892095Y-147280476D01*
X217892095Y-147280476D02*
X217968285Y-147242380D01*
X217968285Y-147242380D02*
X218082571Y-147242380D01*
X218082571Y-147242380D02*
X218158761Y-147280476D01*
X218158761Y-147280476D02*
X218196857Y-147318571D01*
X218196857Y-147318571D02*
X218234952Y-147394761D01*
X218234952Y-147394761D02*
X218234952Y-147699523D01*
X217815904Y-146975714D02*
X217815904Y-146442380D01*
X217815904Y-146442380D02*
X218615904Y-146785238D01*
X180183333Y-138271000D02*
X180116666Y-138237666D01*
X180116666Y-138237666D02*
X180016666Y-138237666D01*
X180016666Y-138237666D02*
X179916666Y-138271000D01*
X179916666Y-138271000D02*
X179850000Y-138337666D01*
X179850000Y-138337666D02*
X179816666Y-138404333D01*
X179816666Y-138404333D02*
X179783333Y-138537666D01*
X179783333Y-138537666D02*
X179783333Y-138637666D01*
X179783333Y-138637666D02*
X179816666Y-138771000D01*
X179816666Y-138771000D02*
X179850000Y-138837666D01*
X179850000Y-138837666D02*
X179916666Y-138904333D01*
X179916666Y-138904333D02*
X180016666Y-138937666D01*
X180016666Y-138937666D02*
X180083333Y-138937666D01*
X180083333Y-138937666D02*
X180183333Y-138904333D01*
X180183333Y-138904333D02*
X180216666Y-138871000D01*
X180216666Y-138871000D02*
X180216666Y-138637666D01*
X180216666Y-138637666D02*
X180083333Y-138637666D01*
X180516666Y-138937666D02*
X180516666Y-138237666D01*
X180516666Y-138237666D02*
X180783333Y-138237666D01*
X180783333Y-138237666D02*
X180850000Y-138271000D01*
X180850000Y-138271000D02*
X180883333Y-138304333D01*
X180883333Y-138304333D02*
X180916666Y-138371000D01*
X180916666Y-138371000D02*
X180916666Y-138471000D01*
X180916666Y-138471000D02*
X180883333Y-138537666D01*
X180883333Y-138537666D02*
X180850000Y-138571000D01*
X180850000Y-138571000D02*
X180783333Y-138604333D01*
X180783333Y-138604333D02*
X180516666Y-138604333D01*
X181350000Y-138237666D02*
X181416666Y-138237666D01*
X181416666Y-138237666D02*
X181483333Y-138271000D01*
X181483333Y-138271000D02*
X181516666Y-138304333D01*
X181516666Y-138304333D02*
X181550000Y-138371000D01*
X181550000Y-138371000D02*
X181583333Y-138504333D01*
X181583333Y-138504333D02*
X181583333Y-138671000D01*
X181583333Y-138671000D02*
X181550000Y-138804333D01*
X181550000Y-138804333D02*
X181516666Y-138871000D01*
X181516666Y-138871000D02*
X181483333Y-138904333D01*
X181483333Y-138904333D02*
X181416666Y-138937666D01*
X181416666Y-138937666D02*
X181350000Y-138937666D01*
X181350000Y-138937666D02*
X181283333Y-138904333D01*
X181283333Y-138904333D02*
X181250000Y-138871000D01*
X181250000Y-138871000D02*
X181216666Y-138804333D01*
X181216666Y-138804333D02*
X181183333Y-138671000D01*
X181183333Y-138671000D02*
X181183333Y-138504333D01*
X181183333Y-138504333D02*
X181216666Y-138371000D01*
X181216666Y-138371000D02*
X181250000Y-138304333D01*
X181250000Y-138304333D02*
X181283333Y-138271000D01*
X181283333Y-138271000D02*
X181350000Y-138237666D01*
X222944000Y-148090476D02*
X222905904Y-148166666D01*
X222905904Y-148166666D02*
X222905904Y-148280952D01*
X222905904Y-148280952D02*
X222944000Y-148395238D01*
X222944000Y-148395238D02*
X223020190Y-148471428D01*
X223020190Y-148471428D02*
X223096380Y-148509523D01*
X223096380Y-148509523D02*
X223248761Y-148547619D01*
X223248761Y-148547619D02*
X223363047Y-148547619D01*
X223363047Y-148547619D02*
X223515428Y-148509523D01*
X223515428Y-148509523D02*
X223591619Y-148471428D01*
X223591619Y-148471428D02*
X223667809Y-148395238D01*
X223667809Y-148395238D02*
X223705904Y-148280952D01*
X223705904Y-148280952D02*
X223705904Y-148204761D01*
X223705904Y-148204761D02*
X223667809Y-148090476D01*
X223667809Y-148090476D02*
X223629714Y-148052380D01*
X223629714Y-148052380D02*
X223363047Y-148052380D01*
X223363047Y-148052380D02*
X223363047Y-148204761D01*
X223705904Y-147709523D02*
X222905904Y-147709523D01*
X222905904Y-147709523D02*
X222905904Y-147404761D01*
X222905904Y-147404761D02*
X222944000Y-147328571D01*
X222944000Y-147328571D02*
X222982095Y-147290476D01*
X222982095Y-147290476D02*
X223058285Y-147252380D01*
X223058285Y-147252380D02*
X223172571Y-147252380D01*
X223172571Y-147252380D02*
X223248761Y-147290476D01*
X223248761Y-147290476D02*
X223286857Y-147328571D01*
X223286857Y-147328571D02*
X223324952Y-147404761D01*
X223324952Y-147404761D02*
X223324952Y-147709523D01*
X223705904Y-146871428D02*
X223705904Y-146719047D01*
X223705904Y-146719047D02*
X223667809Y-146642857D01*
X223667809Y-146642857D02*
X223629714Y-146604761D01*
X223629714Y-146604761D02*
X223515428Y-146528571D01*
X223515428Y-146528571D02*
X223363047Y-146490476D01*
X223363047Y-146490476D02*
X223058285Y-146490476D01*
X223058285Y-146490476D02*
X222982095Y-146528571D01*
X222982095Y-146528571D02*
X222944000Y-146566666D01*
X222944000Y-146566666D02*
X222905904Y-146642857D01*
X222905904Y-146642857D02*
X222905904Y-146795238D01*
X222905904Y-146795238D02*
X222944000Y-146871428D01*
X222944000Y-146871428D02*
X222982095Y-146909523D01*
X222982095Y-146909523D02*
X223058285Y-146947619D01*
X223058285Y-146947619D02*
X223248761Y-146947619D01*
X223248761Y-146947619D02*
X223324952Y-146909523D01*
X223324952Y-146909523D02*
X223363047Y-146871428D01*
X223363047Y-146871428D02*
X223401142Y-146795238D01*
X223401142Y-146795238D02*
X223401142Y-146642857D01*
X223401142Y-146642857D02*
X223363047Y-146566666D01*
X223363047Y-146566666D02*
X223324952Y-146528571D01*
X223324952Y-146528571D02*
X223248761Y-146490476D01*
X243624285Y-134995904D02*
X244119523Y-134995904D01*
X244119523Y-134995904D02*
X243852857Y-135300666D01*
X243852857Y-135300666D02*
X243967142Y-135300666D01*
X243967142Y-135300666D02*
X244043333Y-135338761D01*
X244043333Y-135338761D02*
X244081428Y-135376857D01*
X244081428Y-135376857D02*
X244119523Y-135453047D01*
X244119523Y-135453047D02*
X244119523Y-135643523D01*
X244119523Y-135643523D02*
X244081428Y-135719714D01*
X244081428Y-135719714D02*
X244043333Y-135757809D01*
X244043333Y-135757809D02*
X243967142Y-135795904D01*
X243967142Y-135795904D02*
X243738571Y-135795904D01*
X243738571Y-135795904D02*
X243662380Y-135757809D01*
X243662380Y-135757809D02*
X243624285Y-135719714D01*
X244348095Y-134995904D02*
X244614762Y-135795904D01*
X244614762Y-135795904D02*
X244881428Y-134995904D01*
X245071904Y-134995904D02*
X245567142Y-134995904D01*
X245567142Y-134995904D02*
X245300476Y-135300666D01*
X245300476Y-135300666D02*
X245414761Y-135300666D01*
X245414761Y-135300666D02*
X245490952Y-135338761D01*
X245490952Y-135338761D02*
X245529047Y-135376857D01*
X245529047Y-135376857D02*
X245567142Y-135453047D01*
X245567142Y-135453047D02*
X245567142Y-135643523D01*
X245567142Y-135643523D02*
X245529047Y-135719714D01*
X245529047Y-135719714D02*
X245490952Y-135757809D01*
X245490952Y-135757809D02*
X245414761Y-135795904D01*
X245414761Y-135795904D02*
X245186190Y-135795904D01*
X245186190Y-135795904D02*
X245109999Y-135757809D01*
X245109999Y-135757809D02*
X245071904Y-135719714D01*
X246542381Y-134995904D02*
X246694762Y-134995904D01*
X246694762Y-134995904D02*
X246770952Y-135034000D01*
X246770952Y-135034000D02*
X246847143Y-135110190D01*
X246847143Y-135110190D02*
X246885238Y-135262571D01*
X246885238Y-135262571D02*
X246885238Y-135529238D01*
X246885238Y-135529238D02*
X246847143Y-135681619D01*
X246847143Y-135681619D02*
X246770952Y-135757809D01*
X246770952Y-135757809D02*
X246694762Y-135795904D01*
X246694762Y-135795904D02*
X246542381Y-135795904D01*
X246542381Y-135795904D02*
X246466190Y-135757809D01*
X246466190Y-135757809D02*
X246390000Y-135681619D01*
X246390000Y-135681619D02*
X246351904Y-135529238D01*
X246351904Y-135529238D02*
X246351904Y-135262571D01*
X246351904Y-135262571D02*
X246390000Y-135110190D01*
X246390000Y-135110190D02*
X246466190Y-135034000D01*
X246466190Y-135034000D02*
X246542381Y-134995904D01*
X247228095Y-134995904D02*
X247228095Y-135643523D01*
X247228095Y-135643523D02*
X247266190Y-135719714D01*
X247266190Y-135719714D02*
X247304285Y-135757809D01*
X247304285Y-135757809D02*
X247380476Y-135795904D01*
X247380476Y-135795904D02*
X247532857Y-135795904D01*
X247532857Y-135795904D02*
X247609047Y-135757809D01*
X247609047Y-135757809D02*
X247647142Y-135719714D01*
X247647142Y-135719714D02*
X247685238Y-135643523D01*
X247685238Y-135643523D02*
X247685238Y-134995904D01*
X247951904Y-134995904D02*
X248409047Y-134995904D01*
X248180475Y-135795904D02*
X248180475Y-134995904D01*
X245419523Y-130244000D02*
X245343333Y-130205904D01*
X245343333Y-130205904D02*
X245229047Y-130205904D01*
X245229047Y-130205904D02*
X245114761Y-130244000D01*
X245114761Y-130244000D02*
X245038571Y-130320190D01*
X245038571Y-130320190D02*
X245000476Y-130396380D01*
X245000476Y-130396380D02*
X244962380Y-130548761D01*
X244962380Y-130548761D02*
X244962380Y-130663047D01*
X244962380Y-130663047D02*
X245000476Y-130815428D01*
X245000476Y-130815428D02*
X245038571Y-130891619D01*
X245038571Y-130891619D02*
X245114761Y-130967809D01*
X245114761Y-130967809D02*
X245229047Y-131005904D01*
X245229047Y-131005904D02*
X245305238Y-131005904D01*
X245305238Y-131005904D02*
X245419523Y-130967809D01*
X245419523Y-130967809D02*
X245457619Y-130929714D01*
X245457619Y-130929714D02*
X245457619Y-130663047D01*
X245457619Y-130663047D02*
X245305238Y-130663047D01*
X245800476Y-131005904D02*
X245800476Y-130205904D01*
X245800476Y-130205904D02*
X246105238Y-130205904D01*
X246105238Y-130205904D02*
X246181428Y-130244000D01*
X246181428Y-130244000D02*
X246219523Y-130282095D01*
X246219523Y-130282095D02*
X246257619Y-130358285D01*
X246257619Y-130358285D02*
X246257619Y-130472571D01*
X246257619Y-130472571D02*
X246219523Y-130548761D01*
X246219523Y-130548761D02*
X246181428Y-130586857D01*
X246181428Y-130586857D02*
X246105238Y-130624952D01*
X246105238Y-130624952D02*
X245800476Y-130624952D01*
X246562380Y-130282095D02*
X246600476Y-130244000D01*
X246600476Y-130244000D02*
X246676666Y-130205904D01*
X246676666Y-130205904D02*
X246867142Y-130205904D01*
X246867142Y-130205904D02*
X246943333Y-130244000D01*
X246943333Y-130244000D02*
X246981428Y-130282095D01*
X246981428Y-130282095D02*
X247019523Y-130358285D01*
X247019523Y-130358285D02*
X247019523Y-130434476D01*
X247019523Y-130434476D02*
X246981428Y-130548761D01*
X246981428Y-130548761D02*
X246524285Y-131005904D01*
X246524285Y-131005904D02*
X247019523Y-131005904D01*
X247476666Y-130548761D02*
X247400476Y-130510666D01*
X247400476Y-130510666D02*
X247362381Y-130472571D01*
X247362381Y-130472571D02*
X247324285Y-130396380D01*
X247324285Y-130396380D02*
X247324285Y-130358285D01*
X247324285Y-130358285D02*
X247362381Y-130282095D01*
X247362381Y-130282095D02*
X247400476Y-130244000D01*
X247400476Y-130244000D02*
X247476666Y-130205904D01*
X247476666Y-130205904D02*
X247629047Y-130205904D01*
X247629047Y-130205904D02*
X247705238Y-130244000D01*
X247705238Y-130244000D02*
X247743333Y-130282095D01*
X247743333Y-130282095D02*
X247781428Y-130358285D01*
X247781428Y-130358285D02*
X247781428Y-130396380D01*
X247781428Y-130396380D02*
X247743333Y-130472571D01*
X247743333Y-130472571D02*
X247705238Y-130510666D01*
X247705238Y-130510666D02*
X247629047Y-130548761D01*
X247629047Y-130548761D02*
X247476666Y-130548761D01*
X247476666Y-130548761D02*
X247400476Y-130586857D01*
X247400476Y-130586857D02*
X247362381Y-130624952D01*
X247362381Y-130624952D02*
X247324285Y-130701142D01*
X247324285Y-130701142D02*
X247324285Y-130853523D01*
X247324285Y-130853523D02*
X247362381Y-130929714D01*
X247362381Y-130929714D02*
X247400476Y-130967809D01*
X247400476Y-130967809D02*
X247476666Y-131005904D01*
X247476666Y-131005904D02*
X247629047Y-131005904D01*
X247629047Y-131005904D02*
X247705238Y-130967809D01*
X247705238Y-130967809D02*
X247743333Y-130929714D01*
X247743333Y-130929714D02*
X247781428Y-130853523D01*
X247781428Y-130853523D02*
X247781428Y-130701142D01*
X247781428Y-130701142D02*
X247743333Y-130624952D01*
X247743333Y-130624952D02*
X247705238Y-130586857D01*
X247705238Y-130586857D02*
X247629047Y-130548761D01*
X246139523Y-115094000D02*
X246063333Y-115055904D01*
X246063333Y-115055904D02*
X245949047Y-115055904D01*
X245949047Y-115055904D02*
X245834761Y-115094000D01*
X245834761Y-115094000D02*
X245758571Y-115170190D01*
X245758571Y-115170190D02*
X245720476Y-115246380D01*
X245720476Y-115246380D02*
X245682380Y-115398761D01*
X245682380Y-115398761D02*
X245682380Y-115513047D01*
X245682380Y-115513047D02*
X245720476Y-115665428D01*
X245720476Y-115665428D02*
X245758571Y-115741619D01*
X245758571Y-115741619D02*
X245834761Y-115817809D01*
X245834761Y-115817809D02*
X245949047Y-115855904D01*
X245949047Y-115855904D02*
X246025238Y-115855904D01*
X246025238Y-115855904D02*
X246139523Y-115817809D01*
X246139523Y-115817809D02*
X246177619Y-115779714D01*
X246177619Y-115779714D02*
X246177619Y-115513047D01*
X246177619Y-115513047D02*
X246025238Y-115513047D01*
X246520476Y-115855904D02*
X246520476Y-115055904D01*
X246520476Y-115055904D02*
X246825238Y-115055904D01*
X246825238Y-115055904D02*
X246901428Y-115094000D01*
X246901428Y-115094000D02*
X246939523Y-115132095D01*
X246939523Y-115132095D02*
X246977619Y-115208285D01*
X246977619Y-115208285D02*
X246977619Y-115322571D01*
X246977619Y-115322571D02*
X246939523Y-115398761D01*
X246939523Y-115398761D02*
X246901428Y-115436857D01*
X246901428Y-115436857D02*
X246825238Y-115474952D01*
X246825238Y-115474952D02*
X246520476Y-115474952D01*
X247739523Y-115855904D02*
X247282380Y-115855904D01*
X247510952Y-115855904D02*
X247510952Y-115055904D01*
X247510952Y-115055904D02*
X247434761Y-115170190D01*
X247434761Y-115170190D02*
X247358571Y-115246380D01*
X247358571Y-115246380D02*
X247282380Y-115284476D01*
X248006190Y-115055904D02*
X248539524Y-115055904D01*
X248539524Y-115055904D02*
X248196666Y-115855904D01*
X246289523Y-109624000D02*
X246213333Y-109585904D01*
X246213333Y-109585904D02*
X246099047Y-109585904D01*
X246099047Y-109585904D02*
X245984761Y-109624000D01*
X245984761Y-109624000D02*
X245908571Y-109700190D01*
X245908571Y-109700190D02*
X245870476Y-109776380D01*
X245870476Y-109776380D02*
X245832380Y-109928761D01*
X245832380Y-109928761D02*
X245832380Y-110043047D01*
X245832380Y-110043047D02*
X245870476Y-110195428D01*
X245870476Y-110195428D02*
X245908571Y-110271619D01*
X245908571Y-110271619D02*
X245984761Y-110347809D01*
X245984761Y-110347809D02*
X246099047Y-110385904D01*
X246099047Y-110385904D02*
X246175238Y-110385904D01*
X246175238Y-110385904D02*
X246289523Y-110347809D01*
X246289523Y-110347809D02*
X246327619Y-110309714D01*
X246327619Y-110309714D02*
X246327619Y-110043047D01*
X246327619Y-110043047D02*
X246175238Y-110043047D01*
X246670476Y-110385904D02*
X246670476Y-109585904D01*
X246670476Y-109585904D02*
X246975238Y-109585904D01*
X246975238Y-109585904D02*
X247051428Y-109624000D01*
X247051428Y-109624000D02*
X247089523Y-109662095D01*
X247089523Y-109662095D02*
X247127619Y-109738285D01*
X247127619Y-109738285D02*
X247127619Y-109852571D01*
X247127619Y-109852571D02*
X247089523Y-109928761D01*
X247089523Y-109928761D02*
X247051428Y-109966857D01*
X247051428Y-109966857D02*
X246975238Y-110004952D01*
X246975238Y-110004952D02*
X246670476Y-110004952D01*
X247889523Y-110385904D02*
X247432380Y-110385904D01*
X247660952Y-110385904D02*
X247660952Y-109585904D01*
X247660952Y-109585904D02*
X247584761Y-109700190D01*
X247584761Y-109700190D02*
X247508571Y-109776380D01*
X247508571Y-109776380D02*
X247432380Y-109814476D01*
X248270476Y-110385904D02*
X248422857Y-110385904D01*
X248422857Y-110385904D02*
X248499047Y-110347809D01*
X248499047Y-110347809D02*
X248537143Y-110309714D01*
X248537143Y-110309714D02*
X248613333Y-110195428D01*
X248613333Y-110195428D02*
X248651428Y-110043047D01*
X248651428Y-110043047D02*
X248651428Y-109738285D01*
X248651428Y-109738285D02*
X248613333Y-109662095D01*
X248613333Y-109662095D02*
X248575238Y-109624000D01*
X248575238Y-109624000D02*
X248499047Y-109585904D01*
X248499047Y-109585904D02*
X248346666Y-109585904D01*
X248346666Y-109585904D02*
X248270476Y-109624000D01*
X248270476Y-109624000D02*
X248232381Y-109662095D01*
X248232381Y-109662095D02*
X248194285Y-109738285D01*
X248194285Y-109738285D02*
X248194285Y-109928761D01*
X248194285Y-109928761D02*
X248232381Y-110004952D01*
X248232381Y-110004952D02*
X248270476Y-110043047D01*
X248270476Y-110043047D02*
X248346666Y-110081142D01*
X248346666Y-110081142D02*
X248499047Y-110081142D01*
X248499047Y-110081142D02*
X248575238Y-110043047D01*
X248575238Y-110043047D02*
X248613333Y-110004952D01*
X248613333Y-110004952D02*
X248651428Y-109928761D01*
X212764000Y-148220476D02*
X212725904Y-148296666D01*
X212725904Y-148296666D02*
X212725904Y-148410952D01*
X212725904Y-148410952D02*
X212764000Y-148525238D01*
X212764000Y-148525238D02*
X212840190Y-148601428D01*
X212840190Y-148601428D02*
X212916380Y-148639523D01*
X212916380Y-148639523D02*
X213068761Y-148677619D01*
X213068761Y-148677619D02*
X213183047Y-148677619D01*
X213183047Y-148677619D02*
X213335428Y-148639523D01*
X213335428Y-148639523D02*
X213411619Y-148601428D01*
X213411619Y-148601428D02*
X213487809Y-148525238D01*
X213487809Y-148525238D02*
X213525904Y-148410952D01*
X213525904Y-148410952D02*
X213525904Y-148334761D01*
X213525904Y-148334761D02*
X213487809Y-148220476D01*
X213487809Y-148220476D02*
X213449714Y-148182380D01*
X213449714Y-148182380D02*
X213183047Y-148182380D01*
X213183047Y-148182380D02*
X213183047Y-148334761D01*
X213525904Y-147839523D02*
X212725904Y-147839523D01*
X212725904Y-147839523D02*
X212725904Y-147534761D01*
X212725904Y-147534761D02*
X212764000Y-147458571D01*
X212764000Y-147458571D02*
X212802095Y-147420476D01*
X212802095Y-147420476D02*
X212878285Y-147382380D01*
X212878285Y-147382380D02*
X212992571Y-147382380D01*
X212992571Y-147382380D02*
X213068761Y-147420476D01*
X213068761Y-147420476D02*
X213106857Y-147458571D01*
X213106857Y-147458571D02*
X213144952Y-147534761D01*
X213144952Y-147534761D02*
X213144952Y-147839523D01*
X212725904Y-146658571D02*
X212725904Y-147039523D01*
X212725904Y-147039523D02*
X213106857Y-147077619D01*
X213106857Y-147077619D02*
X213068761Y-147039523D01*
X213068761Y-147039523D02*
X213030666Y-146963333D01*
X213030666Y-146963333D02*
X213030666Y-146772857D01*
X213030666Y-146772857D02*
X213068761Y-146696666D01*
X213068761Y-146696666D02*
X213106857Y-146658571D01*
X213106857Y-146658571D02*
X213183047Y-146620476D01*
X213183047Y-146620476D02*
X213373523Y-146620476D01*
X213373523Y-146620476D02*
X213449714Y-146658571D01*
X213449714Y-146658571D02*
X213487809Y-146696666D01*
X213487809Y-146696666D02*
X213525904Y-146772857D01*
X213525904Y-146772857D02*
X213525904Y-146963333D01*
X213525904Y-146963333D02*
X213487809Y-147039523D01*
X213487809Y-147039523D02*
X213449714Y-147077619D01*
X177293333Y-130721000D02*
X177226666Y-130687666D01*
X177226666Y-130687666D02*
X177126666Y-130687666D01*
X177126666Y-130687666D02*
X177026666Y-130721000D01*
X177026666Y-130721000D02*
X176960000Y-130787666D01*
X176960000Y-130787666D02*
X176926666Y-130854333D01*
X176926666Y-130854333D02*
X176893333Y-130987666D01*
X176893333Y-130987666D02*
X176893333Y-131087666D01*
X176893333Y-131087666D02*
X176926666Y-131221000D01*
X176926666Y-131221000D02*
X176960000Y-131287666D01*
X176960000Y-131287666D02*
X177026666Y-131354333D01*
X177026666Y-131354333D02*
X177126666Y-131387666D01*
X177126666Y-131387666D02*
X177193333Y-131387666D01*
X177193333Y-131387666D02*
X177293333Y-131354333D01*
X177293333Y-131354333D02*
X177326666Y-131321000D01*
X177326666Y-131321000D02*
X177326666Y-131087666D01*
X177326666Y-131087666D02*
X177193333Y-131087666D01*
X177626666Y-131387666D02*
X177626666Y-130687666D01*
X177626666Y-130687666D02*
X178026666Y-131387666D01*
X178026666Y-131387666D02*
X178026666Y-130687666D01*
X178359999Y-131387666D02*
X178359999Y-130687666D01*
X178359999Y-130687666D02*
X178526666Y-130687666D01*
X178526666Y-130687666D02*
X178626666Y-130721000D01*
X178626666Y-130721000D02*
X178693333Y-130787666D01*
X178693333Y-130787666D02*
X178726666Y-130854333D01*
X178726666Y-130854333D02*
X178759999Y-130987666D01*
X178759999Y-130987666D02*
X178759999Y-131087666D01*
X178759999Y-131087666D02*
X178726666Y-131221000D01*
X178726666Y-131221000D02*
X178693333Y-131287666D01*
X178693333Y-131287666D02*
X178626666Y-131354333D01*
X178626666Y-131354333D02*
X178526666Y-131387666D01*
X178526666Y-131387666D02*
X178359999Y-131387666D01*
X174500000Y-138357666D02*
X174933333Y-138357666D01*
X174933333Y-138357666D02*
X174700000Y-138624333D01*
X174700000Y-138624333D02*
X174800000Y-138624333D01*
X174800000Y-138624333D02*
X174866666Y-138657666D01*
X174866666Y-138657666D02*
X174900000Y-138691000D01*
X174900000Y-138691000D02*
X174933333Y-138757666D01*
X174933333Y-138757666D02*
X174933333Y-138924333D01*
X174933333Y-138924333D02*
X174900000Y-138991000D01*
X174900000Y-138991000D02*
X174866666Y-139024333D01*
X174866666Y-139024333D02*
X174800000Y-139057666D01*
X174800000Y-139057666D02*
X174600000Y-139057666D01*
X174600000Y-139057666D02*
X174533333Y-139024333D01*
X174533333Y-139024333D02*
X174500000Y-138991000D01*
X175133333Y-138357666D02*
X175366667Y-139057666D01*
X175366667Y-139057666D02*
X175600000Y-138357666D01*
X175766667Y-138357666D02*
X176200000Y-138357666D01*
X176200000Y-138357666D02*
X175966667Y-138624333D01*
X175966667Y-138624333D02*
X176066667Y-138624333D01*
X176066667Y-138624333D02*
X176133333Y-138657666D01*
X176133333Y-138657666D02*
X176166667Y-138691000D01*
X176166667Y-138691000D02*
X176200000Y-138757666D01*
X176200000Y-138757666D02*
X176200000Y-138924333D01*
X176200000Y-138924333D02*
X176166667Y-138991000D01*
X176166667Y-138991000D02*
X176133333Y-139024333D01*
X176133333Y-139024333D02*
X176066667Y-139057666D01*
X176066667Y-139057666D02*
X175866667Y-139057666D01*
X175866667Y-139057666D02*
X175800000Y-139024333D01*
X175800000Y-139024333D02*
X175766667Y-138991000D01*
X207844000Y-148120476D02*
X207805904Y-148196666D01*
X207805904Y-148196666D02*
X207805904Y-148310952D01*
X207805904Y-148310952D02*
X207844000Y-148425238D01*
X207844000Y-148425238D02*
X207920190Y-148501428D01*
X207920190Y-148501428D02*
X207996380Y-148539523D01*
X207996380Y-148539523D02*
X208148761Y-148577619D01*
X208148761Y-148577619D02*
X208263047Y-148577619D01*
X208263047Y-148577619D02*
X208415428Y-148539523D01*
X208415428Y-148539523D02*
X208491619Y-148501428D01*
X208491619Y-148501428D02*
X208567809Y-148425238D01*
X208567809Y-148425238D02*
X208605904Y-148310952D01*
X208605904Y-148310952D02*
X208605904Y-148234761D01*
X208605904Y-148234761D02*
X208567809Y-148120476D01*
X208567809Y-148120476D02*
X208529714Y-148082380D01*
X208529714Y-148082380D02*
X208263047Y-148082380D01*
X208263047Y-148082380D02*
X208263047Y-148234761D01*
X208605904Y-147739523D02*
X207805904Y-147739523D01*
X207805904Y-147739523D02*
X207805904Y-147434761D01*
X207805904Y-147434761D02*
X207844000Y-147358571D01*
X207844000Y-147358571D02*
X207882095Y-147320476D01*
X207882095Y-147320476D02*
X207958285Y-147282380D01*
X207958285Y-147282380D02*
X208072571Y-147282380D01*
X208072571Y-147282380D02*
X208148761Y-147320476D01*
X208148761Y-147320476D02*
X208186857Y-147358571D01*
X208186857Y-147358571D02*
X208224952Y-147434761D01*
X208224952Y-147434761D02*
X208224952Y-147739523D01*
X207805904Y-147015714D02*
X207805904Y-146520476D01*
X207805904Y-146520476D02*
X208110666Y-146787142D01*
X208110666Y-146787142D02*
X208110666Y-146672857D01*
X208110666Y-146672857D02*
X208148761Y-146596666D01*
X208148761Y-146596666D02*
X208186857Y-146558571D01*
X208186857Y-146558571D02*
X208263047Y-146520476D01*
X208263047Y-146520476D02*
X208453523Y-146520476D01*
X208453523Y-146520476D02*
X208529714Y-146558571D01*
X208529714Y-146558571D02*
X208567809Y-146596666D01*
X208567809Y-146596666D02*
X208605904Y-146672857D01*
X208605904Y-146672857D02*
X208605904Y-146901428D01*
X208605904Y-146901428D02*
X208567809Y-146977619D01*
X208567809Y-146977619D02*
X208529714Y-147015714D01*
X215424000Y-148160476D02*
X215385904Y-148236666D01*
X215385904Y-148236666D02*
X215385904Y-148350952D01*
X215385904Y-148350952D02*
X215424000Y-148465238D01*
X215424000Y-148465238D02*
X215500190Y-148541428D01*
X215500190Y-148541428D02*
X215576380Y-148579523D01*
X215576380Y-148579523D02*
X215728761Y-148617619D01*
X215728761Y-148617619D02*
X215843047Y-148617619D01*
X215843047Y-148617619D02*
X215995428Y-148579523D01*
X215995428Y-148579523D02*
X216071619Y-148541428D01*
X216071619Y-148541428D02*
X216147809Y-148465238D01*
X216147809Y-148465238D02*
X216185904Y-148350952D01*
X216185904Y-148350952D02*
X216185904Y-148274761D01*
X216185904Y-148274761D02*
X216147809Y-148160476D01*
X216147809Y-148160476D02*
X216109714Y-148122380D01*
X216109714Y-148122380D02*
X215843047Y-148122380D01*
X215843047Y-148122380D02*
X215843047Y-148274761D01*
X216185904Y-147779523D02*
X215385904Y-147779523D01*
X215385904Y-147779523D02*
X215385904Y-147474761D01*
X215385904Y-147474761D02*
X215424000Y-147398571D01*
X215424000Y-147398571D02*
X215462095Y-147360476D01*
X215462095Y-147360476D02*
X215538285Y-147322380D01*
X215538285Y-147322380D02*
X215652571Y-147322380D01*
X215652571Y-147322380D02*
X215728761Y-147360476D01*
X215728761Y-147360476D02*
X215766857Y-147398571D01*
X215766857Y-147398571D02*
X215804952Y-147474761D01*
X215804952Y-147474761D02*
X215804952Y-147779523D01*
X215385904Y-146636666D02*
X215385904Y-146789047D01*
X215385904Y-146789047D02*
X215424000Y-146865238D01*
X215424000Y-146865238D02*
X215462095Y-146903333D01*
X215462095Y-146903333D02*
X215576380Y-146979523D01*
X215576380Y-146979523D02*
X215728761Y-147017619D01*
X215728761Y-147017619D02*
X216033523Y-147017619D01*
X216033523Y-147017619D02*
X216109714Y-146979523D01*
X216109714Y-146979523D02*
X216147809Y-146941428D01*
X216147809Y-146941428D02*
X216185904Y-146865238D01*
X216185904Y-146865238D02*
X216185904Y-146712857D01*
X216185904Y-146712857D02*
X216147809Y-146636666D01*
X216147809Y-146636666D02*
X216109714Y-146598571D01*
X216109714Y-146598571D02*
X216033523Y-146560476D01*
X216033523Y-146560476D02*
X215843047Y-146560476D01*
X215843047Y-146560476D02*
X215766857Y-146598571D01*
X215766857Y-146598571D02*
X215728761Y-146636666D01*
X215728761Y-146636666D02*
X215690666Y-146712857D01*
X215690666Y-146712857D02*
X215690666Y-146865238D01*
X215690666Y-146865238D02*
X215728761Y-146941428D01*
X215728761Y-146941428D02*
X215766857Y-146979523D01*
X215766857Y-146979523D02*
X215843047Y-147017619D01*
X177175000Y-85611904D02*
X177127380Y-85707142D01*
X177127380Y-85707142D02*
X177127380Y-85849999D01*
X177127380Y-85849999D02*
X177175000Y-85992856D01*
X177175000Y-85992856D02*
X177270238Y-86088094D01*
X177270238Y-86088094D02*
X177365476Y-86135713D01*
X177365476Y-86135713D02*
X177555952Y-86183332D01*
X177555952Y-86183332D02*
X177698809Y-86183332D01*
X177698809Y-86183332D02*
X177889285Y-86135713D01*
X177889285Y-86135713D02*
X177984523Y-86088094D01*
X177984523Y-86088094D02*
X178079761Y-85992856D01*
X178079761Y-85992856D02*
X178127380Y-85849999D01*
X178127380Y-85849999D02*
X178127380Y-85754761D01*
X178127380Y-85754761D02*
X178079761Y-85611904D01*
X178079761Y-85611904D02*
X178032142Y-85564285D01*
X178032142Y-85564285D02*
X177698809Y-85564285D01*
X177698809Y-85564285D02*
X177698809Y-85754761D01*
X178127380Y-85135713D02*
X177127380Y-85135713D01*
X177127380Y-85135713D02*
X178127380Y-84564285D01*
X178127380Y-84564285D02*
X177127380Y-84564285D01*
X178127380Y-84088094D02*
X177127380Y-84088094D01*
X177127380Y-84088094D02*
X177127380Y-83849999D01*
X177127380Y-83849999D02*
X177175000Y-83707142D01*
X177175000Y-83707142D02*
X177270238Y-83611904D01*
X177270238Y-83611904D02*
X177365476Y-83564285D01*
X177365476Y-83564285D02*
X177555952Y-83516666D01*
X177555952Y-83516666D02*
X177698809Y-83516666D01*
X177698809Y-83516666D02*
X177889285Y-83564285D01*
X177889285Y-83564285D02*
X177984523Y-83611904D01*
X177984523Y-83611904D02*
X178079761Y-83707142D01*
X178079761Y-83707142D02*
X178127380Y-83849999D01*
X178127380Y-83849999D02*
X178127380Y-84088094D01*
X245719523Y-127684000D02*
X245643333Y-127645904D01*
X245643333Y-127645904D02*
X245529047Y-127645904D01*
X245529047Y-127645904D02*
X245414761Y-127684000D01*
X245414761Y-127684000D02*
X245338571Y-127760190D01*
X245338571Y-127760190D02*
X245300476Y-127836380D01*
X245300476Y-127836380D02*
X245262380Y-127988761D01*
X245262380Y-127988761D02*
X245262380Y-128103047D01*
X245262380Y-128103047D02*
X245300476Y-128255428D01*
X245300476Y-128255428D02*
X245338571Y-128331619D01*
X245338571Y-128331619D02*
X245414761Y-128407809D01*
X245414761Y-128407809D02*
X245529047Y-128445904D01*
X245529047Y-128445904D02*
X245605238Y-128445904D01*
X245605238Y-128445904D02*
X245719523Y-128407809D01*
X245719523Y-128407809D02*
X245757619Y-128369714D01*
X245757619Y-128369714D02*
X245757619Y-128103047D01*
X245757619Y-128103047D02*
X245605238Y-128103047D01*
X246100476Y-128445904D02*
X246100476Y-127645904D01*
X246100476Y-127645904D02*
X246405238Y-127645904D01*
X246405238Y-127645904D02*
X246481428Y-127684000D01*
X246481428Y-127684000D02*
X246519523Y-127722095D01*
X246519523Y-127722095D02*
X246557619Y-127798285D01*
X246557619Y-127798285D02*
X246557619Y-127912571D01*
X246557619Y-127912571D02*
X246519523Y-127988761D01*
X246519523Y-127988761D02*
X246481428Y-128026857D01*
X246481428Y-128026857D02*
X246405238Y-128064952D01*
X246405238Y-128064952D02*
X246100476Y-128064952D01*
X246862380Y-127722095D02*
X246900476Y-127684000D01*
X246900476Y-127684000D02*
X246976666Y-127645904D01*
X246976666Y-127645904D02*
X247167142Y-127645904D01*
X247167142Y-127645904D02*
X247243333Y-127684000D01*
X247243333Y-127684000D02*
X247281428Y-127722095D01*
X247281428Y-127722095D02*
X247319523Y-127798285D01*
X247319523Y-127798285D02*
X247319523Y-127874476D01*
X247319523Y-127874476D02*
X247281428Y-127988761D01*
X247281428Y-127988761D02*
X246824285Y-128445904D01*
X246824285Y-128445904D02*
X247319523Y-128445904D01*
X247586190Y-127645904D02*
X248119524Y-127645904D01*
X248119524Y-127645904D02*
X247776666Y-128445904D01*
X180193333Y-130641000D02*
X180126666Y-130607666D01*
X180126666Y-130607666D02*
X180026666Y-130607666D01*
X180026666Y-130607666D02*
X179926666Y-130641000D01*
X179926666Y-130641000D02*
X179860000Y-130707666D01*
X179860000Y-130707666D02*
X179826666Y-130774333D01*
X179826666Y-130774333D02*
X179793333Y-130907666D01*
X179793333Y-130907666D02*
X179793333Y-131007666D01*
X179793333Y-131007666D02*
X179826666Y-131141000D01*
X179826666Y-131141000D02*
X179860000Y-131207666D01*
X179860000Y-131207666D02*
X179926666Y-131274333D01*
X179926666Y-131274333D02*
X180026666Y-131307666D01*
X180026666Y-131307666D02*
X180093333Y-131307666D01*
X180093333Y-131307666D02*
X180193333Y-131274333D01*
X180193333Y-131274333D02*
X180226666Y-131241000D01*
X180226666Y-131241000D02*
X180226666Y-131007666D01*
X180226666Y-131007666D02*
X180093333Y-131007666D01*
X180526666Y-131307666D02*
X180526666Y-130607666D01*
X180526666Y-130607666D02*
X180793333Y-130607666D01*
X180793333Y-130607666D02*
X180860000Y-130641000D01*
X180860000Y-130641000D02*
X180893333Y-130674333D01*
X180893333Y-130674333D02*
X180926666Y-130741000D01*
X180926666Y-130741000D02*
X180926666Y-130841000D01*
X180926666Y-130841000D02*
X180893333Y-130907666D01*
X180893333Y-130907666D02*
X180860000Y-130941000D01*
X180860000Y-130941000D02*
X180793333Y-130974333D01*
X180793333Y-130974333D02*
X180526666Y-130974333D01*
X181593333Y-131307666D02*
X181193333Y-131307666D01*
X181393333Y-131307666D02*
X181393333Y-130607666D01*
X181393333Y-130607666D02*
X181326666Y-130707666D01*
X181326666Y-130707666D02*
X181260000Y-130774333D01*
X181260000Y-130774333D02*
X181193333Y-130807666D01*
X238239000Y-148260476D02*
X238200904Y-148336666D01*
X238200904Y-148336666D02*
X238200904Y-148450952D01*
X238200904Y-148450952D02*
X238239000Y-148565238D01*
X238239000Y-148565238D02*
X238315190Y-148641428D01*
X238315190Y-148641428D02*
X238391380Y-148679523D01*
X238391380Y-148679523D02*
X238543761Y-148717619D01*
X238543761Y-148717619D02*
X238658047Y-148717619D01*
X238658047Y-148717619D02*
X238810428Y-148679523D01*
X238810428Y-148679523D02*
X238886619Y-148641428D01*
X238886619Y-148641428D02*
X238962809Y-148565238D01*
X238962809Y-148565238D02*
X239000904Y-148450952D01*
X239000904Y-148450952D02*
X239000904Y-148374761D01*
X239000904Y-148374761D02*
X238962809Y-148260476D01*
X238962809Y-148260476D02*
X238924714Y-148222380D01*
X238924714Y-148222380D02*
X238658047Y-148222380D01*
X238658047Y-148222380D02*
X238658047Y-148374761D01*
X239000904Y-147879523D02*
X238200904Y-147879523D01*
X238200904Y-147879523D02*
X238200904Y-147574761D01*
X238200904Y-147574761D02*
X238239000Y-147498571D01*
X238239000Y-147498571D02*
X238277095Y-147460476D01*
X238277095Y-147460476D02*
X238353285Y-147422380D01*
X238353285Y-147422380D02*
X238467571Y-147422380D01*
X238467571Y-147422380D02*
X238543761Y-147460476D01*
X238543761Y-147460476D02*
X238581857Y-147498571D01*
X238581857Y-147498571D02*
X238619952Y-147574761D01*
X238619952Y-147574761D02*
X238619952Y-147879523D01*
X239000904Y-146660476D02*
X239000904Y-147117619D01*
X239000904Y-146889047D02*
X238200904Y-146889047D01*
X238200904Y-146889047D02*
X238315190Y-146965238D01*
X238315190Y-146965238D02*
X238391380Y-147041428D01*
X238391380Y-147041428D02*
X238429476Y-147117619D01*
X238200904Y-145936666D02*
X238200904Y-146317618D01*
X238200904Y-146317618D02*
X238581857Y-146355714D01*
X238581857Y-146355714D02*
X238543761Y-146317618D01*
X238543761Y-146317618D02*
X238505666Y-146241428D01*
X238505666Y-146241428D02*
X238505666Y-146050952D01*
X238505666Y-146050952D02*
X238543761Y-145974761D01*
X238543761Y-145974761D02*
X238581857Y-145936666D01*
X238581857Y-145936666D02*
X238658047Y-145898571D01*
X238658047Y-145898571D02*
X238848523Y-145898571D01*
X238848523Y-145898571D02*
X238924714Y-145936666D01*
X238924714Y-145936666D02*
X238962809Y-145974761D01*
X238962809Y-145974761D02*
X239000904Y-146050952D01*
X239000904Y-146050952D02*
X239000904Y-146241428D01*
X239000904Y-146241428D02*
X238962809Y-146317618D01*
X238962809Y-146317618D02*
X238924714Y-146355714D01*
X210224000Y-148100476D02*
X210185904Y-148176666D01*
X210185904Y-148176666D02*
X210185904Y-148290952D01*
X210185904Y-148290952D02*
X210224000Y-148405238D01*
X210224000Y-148405238D02*
X210300190Y-148481428D01*
X210300190Y-148481428D02*
X210376380Y-148519523D01*
X210376380Y-148519523D02*
X210528761Y-148557619D01*
X210528761Y-148557619D02*
X210643047Y-148557619D01*
X210643047Y-148557619D02*
X210795428Y-148519523D01*
X210795428Y-148519523D02*
X210871619Y-148481428D01*
X210871619Y-148481428D02*
X210947809Y-148405238D01*
X210947809Y-148405238D02*
X210985904Y-148290952D01*
X210985904Y-148290952D02*
X210985904Y-148214761D01*
X210985904Y-148214761D02*
X210947809Y-148100476D01*
X210947809Y-148100476D02*
X210909714Y-148062380D01*
X210909714Y-148062380D02*
X210643047Y-148062380D01*
X210643047Y-148062380D02*
X210643047Y-148214761D01*
X210985904Y-147719523D02*
X210185904Y-147719523D01*
X210185904Y-147719523D02*
X210185904Y-147414761D01*
X210185904Y-147414761D02*
X210224000Y-147338571D01*
X210224000Y-147338571D02*
X210262095Y-147300476D01*
X210262095Y-147300476D02*
X210338285Y-147262380D01*
X210338285Y-147262380D02*
X210452571Y-147262380D01*
X210452571Y-147262380D02*
X210528761Y-147300476D01*
X210528761Y-147300476D02*
X210566857Y-147338571D01*
X210566857Y-147338571D02*
X210604952Y-147414761D01*
X210604952Y-147414761D02*
X210604952Y-147719523D01*
X210452571Y-146576666D02*
X210985904Y-146576666D01*
X210147809Y-146767142D02*
X210719238Y-146957619D01*
X210719238Y-146957619D02*
X210719238Y-146462380D01*
X230584000Y-148110476D02*
X230545904Y-148186666D01*
X230545904Y-148186666D02*
X230545904Y-148300952D01*
X230545904Y-148300952D02*
X230584000Y-148415238D01*
X230584000Y-148415238D02*
X230660190Y-148491428D01*
X230660190Y-148491428D02*
X230736380Y-148529523D01*
X230736380Y-148529523D02*
X230888761Y-148567619D01*
X230888761Y-148567619D02*
X231003047Y-148567619D01*
X231003047Y-148567619D02*
X231155428Y-148529523D01*
X231155428Y-148529523D02*
X231231619Y-148491428D01*
X231231619Y-148491428D02*
X231307809Y-148415238D01*
X231307809Y-148415238D02*
X231345904Y-148300952D01*
X231345904Y-148300952D02*
X231345904Y-148224761D01*
X231345904Y-148224761D02*
X231307809Y-148110476D01*
X231307809Y-148110476D02*
X231269714Y-148072380D01*
X231269714Y-148072380D02*
X231003047Y-148072380D01*
X231003047Y-148072380D02*
X231003047Y-148224761D01*
X231345904Y-147729523D02*
X230545904Y-147729523D01*
X230545904Y-147729523D02*
X230545904Y-147424761D01*
X230545904Y-147424761D02*
X230584000Y-147348571D01*
X230584000Y-147348571D02*
X230622095Y-147310476D01*
X230622095Y-147310476D02*
X230698285Y-147272380D01*
X230698285Y-147272380D02*
X230812571Y-147272380D01*
X230812571Y-147272380D02*
X230888761Y-147310476D01*
X230888761Y-147310476D02*
X230926857Y-147348571D01*
X230926857Y-147348571D02*
X230964952Y-147424761D01*
X230964952Y-147424761D02*
X230964952Y-147729523D01*
X231345904Y-146510476D02*
X231345904Y-146967619D01*
X231345904Y-146739047D02*
X230545904Y-146739047D01*
X230545904Y-146739047D02*
X230660190Y-146815238D01*
X230660190Y-146815238D02*
X230736380Y-146891428D01*
X230736380Y-146891428D02*
X230774476Y-146967619D01*
X230622095Y-146205714D02*
X230584000Y-146167618D01*
X230584000Y-146167618D02*
X230545904Y-146091428D01*
X230545904Y-146091428D02*
X230545904Y-145900952D01*
X230545904Y-145900952D02*
X230584000Y-145824761D01*
X230584000Y-145824761D02*
X230622095Y-145786666D01*
X230622095Y-145786666D02*
X230698285Y-145748571D01*
X230698285Y-145748571D02*
X230774476Y-145748571D01*
X230774476Y-145748571D02*
X230888761Y-145786666D01*
X230888761Y-145786666D02*
X231345904Y-146243809D01*
X231345904Y-146243809D02*
X231345904Y-145748571D01*
X174100000Y-130667666D02*
X174533333Y-130667666D01*
X174533333Y-130667666D02*
X174300000Y-130934333D01*
X174300000Y-130934333D02*
X174400000Y-130934333D01*
X174400000Y-130934333D02*
X174466666Y-130967666D01*
X174466666Y-130967666D02*
X174500000Y-131001000D01*
X174500000Y-131001000D02*
X174533333Y-131067666D01*
X174533333Y-131067666D02*
X174533333Y-131234333D01*
X174533333Y-131234333D02*
X174500000Y-131301000D01*
X174500000Y-131301000D02*
X174466666Y-131334333D01*
X174466666Y-131334333D02*
X174400000Y-131367666D01*
X174400000Y-131367666D02*
X174200000Y-131367666D01*
X174200000Y-131367666D02*
X174133333Y-131334333D01*
X174133333Y-131334333D02*
X174100000Y-131301000D01*
X174733333Y-130667666D02*
X174966667Y-131367666D01*
X174966667Y-131367666D02*
X175200000Y-130667666D01*
X175366667Y-130667666D02*
X175800000Y-130667666D01*
X175800000Y-130667666D02*
X175566667Y-130934333D01*
X175566667Y-130934333D02*
X175666667Y-130934333D01*
X175666667Y-130934333D02*
X175733333Y-130967666D01*
X175733333Y-130967666D02*
X175766667Y-131001000D01*
X175766667Y-131001000D02*
X175800000Y-131067666D01*
X175800000Y-131067666D02*
X175800000Y-131234333D01*
X175800000Y-131234333D02*
X175766667Y-131301000D01*
X175766667Y-131301000D02*
X175733333Y-131334333D01*
X175733333Y-131334333D02*
X175666667Y-131367666D01*
X175666667Y-131367666D02*
X175466667Y-131367666D01*
X175466667Y-131367666D02*
X175400000Y-131334333D01*
X175400000Y-131334333D02*
X175366667Y-131301000D01*
X225494000Y-148170476D02*
X225455904Y-148246666D01*
X225455904Y-148246666D02*
X225455904Y-148360952D01*
X225455904Y-148360952D02*
X225494000Y-148475238D01*
X225494000Y-148475238D02*
X225570190Y-148551428D01*
X225570190Y-148551428D02*
X225646380Y-148589523D01*
X225646380Y-148589523D02*
X225798761Y-148627619D01*
X225798761Y-148627619D02*
X225913047Y-148627619D01*
X225913047Y-148627619D02*
X226065428Y-148589523D01*
X226065428Y-148589523D02*
X226141619Y-148551428D01*
X226141619Y-148551428D02*
X226217809Y-148475238D01*
X226217809Y-148475238D02*
X226255904Y-148360952D01*
X226255904Y-148360952D02*
X226255904Y-148284761D01*
X226255904Y-148284761D02*
X226217809Y-148170476D01*
X226217809Y-148170476D02*
X226179714Y-148132380D01*
X226179714Y-148132380D02*
X225913047Y-148132380D01*
X225913047Y-148132380D02*
X225913047Y-148284761D01*
X226255904Y-147789523D02*
X225455904Y-147789523D01*
X225455904Y-147789523D02*
X225455904Y-147484761D01*
X225455904Y-147484761D02*
X225494000Y-147408571D01*
X225494000Y-147408571D02*
X225532095Y-147370476D01*
X225532095Y-147370476D02*
X225608285Y-147332380D01*
X225608285Y-147332380D02*
X225722571Y-147332380D01*
X225722571Y-147332380D02*
X225798761Y-147370476D01*
X225798761Y-147370476D02*
X225836857Y-147408571D01*
X225836857Y-147408571D02*
X225874952Y-147484761D01*
X225874952Y-147484761D02*
X225874952Y-147789523D01*
X226255904Y-146570476D02*
X226255904Y-147027619D01*
X226255904Y-146799047D02*
X225455904Y-146799047D01*
X225455904Y-146799047D02*
X225570190Y-146875238D01*
X225570190Y-146875238D02*
X225646380Y-146951428D01*
X225646380Y-146951428D02*
X225684476Y-147027619D01*
X225455904Y-146075237D02*
X225455904Y-145999047D01*
X225455904Y-145999047D02*
X225494000Y-145922856D01*
X225494000Y-145922856D02*
X225532095Y-145884761D01*
X225532095Y-145884761D02*
X225608285Y-145846666D01*
X225608285Y-145846666D02*
X225760666Y-145808571D01*
X225760666Y-145808571D02*
X225951142Y-145808571D01*
X225951142Y-145808571D02*
X226103523Y-145846666D01*
X226103523Y-145846666D02*
X226179714Y-145884761D01*
X226179714Y-145884761D02*
X226217809Y-145922856D01*
X226217809Y-145922856D02*
X226255904Y-145999047D01*
X226255904Y-145999047D02*
X226255904Y-146075237D01*
X226255904Y-146075237D02*
X226217809Y-146151428D01*
X226217809Y-146151428D02*
X226179714Y-146189523D01*
X226179714Y-146189523D02*
X226103523Y-146227618D01*
X226103523Y-146227618D02*
X225951142Y-146265714D01*
X225951142Y-146265714D02*
X225760666Y-146265714D01*
X225760666Y-146265714D02*
X225608285Y-146227618D01*
X225608285Y-146227618D02*
X225532095Y-146189523D01*
X225532095Y-146189523D02*
X225494000Y-146151428D01*
X225494000Y-146151428D02*
X225455904Y-146075237D01*
X245869523Y-125454000D02*
X245793333Y-125415904D01*
X245793333Y-125415904D02*
X245679047Y-125415904D01*
X245679047Y-125415904D02*
X245564761Y-125454000D01*
X245564761Y-125454000D02*
X245488571Y-125530190D01*
X245488571Y-125530190D02*
X245450476Y-125606380D01*
X245450476Y-125606380D02*
X245412380Y-125758761D01*
X245412380Y-125758761D02*
X245412380Y-125873047D01*
X245412380Y-125873047D02*
X245450476Y-126025428D01*
X245450476Y-126025428D02*
X245488571Y-126101619D01*
X245488571Y-126101619D02*
X245564761Y-126177809D01*
X245564761Y-126177809D02*
X245679047Y-126215904D01*
X245679047Y-126215904D02*
X245755238Y-126215904D01*
X245755238Y-126215904D02*
X245869523Y-126177809D01*
X245869523Y-126177809D02*
X245907619Y-126139714D01*
X245907619Y-126139714D02*
X245907619Y-125873047D01*
X245907619Y-125873047D02*
X245755238Y-125873047D01*
X246250476Y-126215904D02*
X246250476Y-125415904D01*
X246250476Y-125415904D02*
X246555238Y-125415904D01*
X246555238Y-125415904D02*
X246631428Y-125454000D01*
X246631428Y-125454000D02*
X246669523Y-125492095D01*
X246669523Y-125492095D02*
X246707619Y-125568285D01*
X246707619Y-125568285D02*
X246707619Y-125682571D01*
X246707619Y-125682571D02*
X246669523Y-125758761D01*
X246669523Y-125758761D02*
X246631428Y-125796857D01*
X246631428Y-125796857D02*
X246555238Y-125834952D01*
X246555238Y-125834952D02*
X246250476Y-125834952D01*
X247012380Y-125492095D02*
X247050476Y-125454000D01*
X247050476Y-125454000D02*
X247126666Y-125415904D01*
X247126666Y-125415904D02*
X247317142Y-125415904D01*
X247317142Y-125415904D02*
X247393333Y-125454000D01*
X247393333Y-125454000D02*
X247431428Y-125492095D01*
X247431428Y-125492095D02*
X247469523Y-125568285D01*
X247469523Y-125568285D02*
X247469523Y-125644476D01*
X247469523Y-125644476D02*
X247431428Y-125758761D01*
X247431428Y-125758761D02*
X246974285Y-126215904D01*
X246974285Y-126215904D02*
X247469523Y-126215904D01*
X248155238Y-125415904D02*
X248002857Y-125415904D01*
X248002857Y-125415904D02*
X247926666Y-125454000D01*
X247926666Y-125454000D02*
X247888571Y-125492095D01*
X247888571Y-125492095D02*
X247812381Y-125606380D01*
X247812381Y-125606380D02*
X247774285Y-125758761D01*
X247774285Y-125758761D02*
X247774285Y-126063523D01*
X247774285Y-126063523D02*
X247812381Y-126139714D01*
X247812381Y-126139714D02*
X247850476Y-126177809D01*
X247850476Y-126177809D02*
X247926666Y-126215904D01*
X247926666Y-126215904D02*
X248079047Y-126215904D01*
X248079047Y-126215904D02*
X248155238Y-126177809D01*
X248155238Y-126177809D02*
X248193333Y-126139714D01*
X248193333Y-126139714D02*
X248231428Y-126063523D01*
X248231428Y-126063523D02*
X248231428Y-125873047D01*
X248231428Y-125873047D02*
X248193333Y-125796857D01*
X248193333Y-125796857D02*
X248155238Y-125758761D01*
X248155238Y-125758761D02*
X248079047Y-125720666D01*
X248079047Y-125720666D02*
X247926666Y-125720666D01*
X247926666Y-125720666D02*
X247850476Y-125758761D01*
X247850476Y-125758761D02*
X247812381Y-125796857D01*
X247812381Y-125796857D02*
X247774285Y-125873047D01*
X246009523Y-104794000D02*
X245933333Y-104755904D01*
X245933333Y-104755904D02*
X245819047Y-104755904D01*
X245819047Y-104755904D02*
X245704761Y-104794000D01*
X245704761Y-104794000D02*
X245628571Y-104870190D01*
X245628571Y-104870190D02*
X245590476Y-104946380D01*
X245590476Y-104946380D02*
X245552380Y-105098761D01*
X245552380Y-105098761D02*
X245552380Y-105213047D01*
X245552380Y-105213047D02*
X245590476Y-105365428D01*
X245590476Y-105365428D02*
X245628571Y-105441619D01*
X245628571Y-105441619D02*
X245704761Y-105517809D01*
X245704761Y-105517809D02*
X245819047Y-105555904D01*
X245819047Y-105555904D02*
X245895238Y-105555904D01*
X245895238Y-105555904D02*
X246009523Y-105517809D01*
X246009523Y-105517809D02*
X246047619Y-105479714D01*
X246047619Y-105479714D02*
X246047619Y-105213047D01*
X246047619Y-105213047D02*
X245895238Y-105213047D01*
X246390476Y-105555904D02*
X246390476Y-104755904D01*
X246390476Y-104755904D02*
X246695238Y-104755904D01*
X246695238Y-104755904D02*
X246771428Y-104794000D01*
X246771428Y-104794000D02*
X246809523Y-104832095D01*
X246809523Y-104832095D02*
X246847619Y-104908285D01*
X246847619Y-104908285D02*
X246847619Y-105022571D01*
X246847619Y-105022571D02*
X246809523Y-105098761D01*
X246809523Y-105098761D02*
X246771428Y-105136857D01*
X246771428Y-105136857D02*
X246695238Y-105174952D01*
X246695238Y-105174952D02*
X246390476Y-105174952D01*
X247152380Y-104832095D02*
X247190476Y-104794000D01*
X247190476Y-104794000D02*
X247266666Y-104755904D01*
X247266666Y-104755904D02*
X247457142Y-104755904D01*
X247457142Y-104755904D02*
X247533333Y-104794000D01*
X247533333Y-104794000D02*
X247571428Y-104832095D01*
X247571428Y-104832095D02*
X247609523Y-104908285D01*
X247609523Y-104908285D02*
X247609523Y-104984476D01*
X247609523Y-104984476D02*
X247571428Y-105098761D01*
X247571428Y-105098761D02*
X247114285Y-105555904D01*
X247114285Y-105555904D02*
X247609523Y-105555904D01*
X248371428Y-105555904D02*
X247914285Y-105555904D01*
X248142857Y-105555904D02*
X248142857Y-104755904D01*
X248142857Y-104755904D02*
X248066666Y-104870190D01*
X248066666Y-104870190D02*
X247990476Y-104946380D01*
X247990476Y-104946380D02*
X247914285Y-104984476D01*
X245206190Y-142885904D02*
X245472857Y-143685904D01*
X245472857Y-143685904D02*
X245739523Y-142885904D01*
X246272856Y-143266857D02*
X246387142Y-143304952D01*
X246387142Y-143304952D02*
X246425237Y-143343047D01*
X246425237Y-143343047D02*
X246463333Y-143419238D01*
X246463333Y-143419238D02*
X246463333Y-143533523D01*
X246463333Y-143533523D02*
X246425237Y-143609714D01*
X246425237Y-143609714D02*
X246387142Y-143647809D01*
X246387142Y-143647809D02*
X246310952Y-143685904D01*
X246310952Y-143685904D02*
X246006190Y-143685904D01*
X246006190Y-143685904D02*
X246006190Y-142885904D01*
X246006190Y-142885904D02*
X246272856Y-142885904D01*
X246272856Y-142885904D02*
X246349047Y-142924000D01*
X246349047Y-142924000D02*
X246387142Y-142962095D01*
X246387142Y-142962095D02*
X246425237Y-143038285D01*
X246425237Y-143038285D02*
X246425237Y-143114476D01*
X246425237Y-143114476D02*
X246387142Y-143190666D01*
X246387142Y-143190666D02*
X246349047Y-143228761D01*
X246349047Y-143228761D02*
X246272856Y-143266857D01*
X246272856Y-143266857D02*
X246006190Y-143266857D01*
X246806190Y-142885904D02*
X246806190Y-143533523D01*
X246806190Y-143533523D02*
X246844285Y-143609714D01*
X246844285Y-143609714D02*
X246882380Y-143647809D01*
X246882380Y-143647809D02*
X246958571Y-143685904D01*
X246958571Y-143685904D02*
X247110952Y-143685904D01*
X247110952Y-143685904D02*
X247187142Y-143647809D01*
X247187142Y-143647809D02*
X247225237Y-143609714D01*
X247225237Y-143609714D02*
X247263333Y-143533523D01*
X247263333Y-143533523D02*
X247263333Y-142885904D01*
X247606189Y-143647809D02*
X247720475Y-143685904D01*
X247720475Y-143685904D02*
X247910951Y-143685904D01*
X247910951Y-143685904D02*
X247987142Y-143647809D01*
X247987142Y-143647809D02*
X248025237Y-143609714D01*
X248025237Y-143609714D02*
X248063332Y-143533523D01*
X248063332Y-143533523D02*
X248063332Y-143457333D01*
X248063332Y-143457333D02*
X248025237Y-143381142D01*
X248025237Y-143381142D02*
X247987142Y-143343047D01*
X247987142Y-143343047D02*
X247910951Y-143304952D01*
X247910951Y-143304952D02*
X247758570Y-143266857D01*
X247758570Y-143266857D02*
X247682380Y-143228761D01*
X247682380Y-143228761D02*
X247644285Y-143190666D01*
X247644285Y-143190666D02*
X247606189Y-143114476D01*
X247606189Y-143114476D02*
X247606189Y-143038285D01*
X247606189Y-143038285D02*
X247644285Y-142962095D01*
X247644285Y-142962095D02*
X247682380Y-142924000D01*
X247682380Y-142924000D02*
X247758570Y-142885904D01*
X247758570Y-142885904D02*
X247949047Y-142885904D01*
X247949047Y-142885904D02*
X248063332Y-142924000D01*
X245194285Y-140525904D02*
X245689523Y-140525904D01*
X245689523Y-140525904D02*
X245422857Y-140830666D01*
X245422857Y-140830666D02*
X245537142Y-140830666D01*
X245537142Y-140830666D02*
X245613333Y-140868761D01*
X245613333Y-140868761D02*
X245651428Y-140906857D01*
X245651428Y-140906857D02*
X245689523Y-140983047D01*
X245689523Y-140983047D02*
X245689523Y-141173523D01*
X245689523Y-141173523D02*
X245651428Y-141249714D01*
X245651428Y-141249714D02*
X245613333Y-141287809D01*
X245613333Y-141287809D02*
X245537142Y-141325904D01*
X245537142Y-141325904D02*
X245308571Y-141325904D01*
X245308571Y-141325904D02*
X245232380Y-141287809D01*
X245232380Y-141287809D02*
X245194285Y-141249714D01*
X245918095Y-140525904D02*
X246184762Y-141325904D01*
X246184762Y-141325904D02*
X246451428Y-140525904D01*
X246641904Y-140525904D02*
X247137142Y-140525904D01*
X247137142Y-140525904D02*
X246870476Y-140830666D01*
X246870476Y-140830666D02*
X246984761Y-140830666D01*
X246984761Y-140830666D02*
X247060952Y-140868761D01*
X247060952Y-140868761D02*
X247099047Y-140906857D01*
X247099047Y-140906857D02*
X247137142Y-140983047D01*
X247137142Y-140983047D02*
X247137142Y-141173523D01*
X247137142Y-141173523D02*
X247099047Y-141249714D01*
X247099047Y-141249714D02*
X247060952Y-141287809D01*
X247060952Y-141287809D02*
X246984761Y-141325904D01*
X246984761Y-141325904D02*
X246756190Y-141325904D01*
X246756190Y-141325904D02*
X246679999Y-141287809D01*
X246679999Y-141287809D02*
X246641904Y-141249714D01*
X244004285Y-137545904D02*
X244499523Y-137545904D01*
X244499523Y-137545904D02*
X244232857Y-137850666D01*
X244232857Y-137850666D02*
X244347142Y-137850666D01*
X244347142Y-137850666D02*
X244423333Y-137888761D01*
X244423333Y-137888761D02*
X244461428Y-137926857D01*
X244461428Y-137926857D02*
X244499523Y-138003047D01*
X244499523Y-138003047D02*
X244499523Y-138193523D01*
X244499523Y-138193523D02*
X244461428Y-138269714D01*
X244461428Y-138269714D02*
X244423333Y-138307809D01*
X244423333Y-138307809D02*
X244347142Y-138345904D01*
X244347142Y-138345904D02*
X244118571Y-138345904D01*
X244118571Y-138345904D02*
X244042380Y-138307809D01*
X244042380Y-138307809D02*
X244004285Y-138269714D01*
X244728095Y-137545904D02*
X244994762Y-138345904D01*
X244994762Y-138345904D02*
X245261428Y-137545904D01*
X245451904Y-137545904D02*
X245947142Y-137545904D01*
X245947142Y-137545904D02*
X245680476Y-137850666D01*
X245680476Y-137850666D02*
X245794761Y-137850666D01*
X245794761Y-137850666D02*
X245870952Y-137888761D01*
X245870952Y-137888761D02*
X245909047Y-137926857D01*
X245909047Y-137926857D02*
X245947142Y-138003047D01*
X245947142Y-138003047D02*
X245947142Y-138193523D01*
X245947142Y-138193523D02*
X245909047Y-138269714D01*
X245909047Y-138269714D02*
X245870952Y-138307809D01*
X245870952Y-138307809D02*
X245794761Y-138345904D01*
X245794761Y-138345904D02*
X245566190Y-138345904D01*
X245566190Y-138345904D02*
X245489999Y-138307809D01*
X245489999Y-138307809D02*
X245451904Y-138269714D01*
X246770000Y-137926857D02*
X247036666Y-137926857D01*
X247150952Y-138345904D02*
X246770000Y-138345904D01*
X246770000Y-138345904D02*
X246770000Y-137545904D01*
X246770000Y-137545904D02*
X247150952Y-137545904D01*
X247493810Y-138345904D02*
X247493810Y-137545904D01*
X247493810Y-137545904D02*
X247950953Y-138345904D01*
X247950953Y-138345904D02*
X247950953Y-137545904D01*
%TO.C,U4*%
X177738095Y-104467380D02*
X177738095Y-105276904D01*
X177738095Y-105276904D02*
X177785714Y-105372142D01*
X177785714Y-105372142D02*
X177833333Y-105419761D01*
X177833333Y-105419761D02*
X177928571Y-105467380D01*
X177928571Y-105467380D02*
X178119047Y-105467380D01*
X178119047Y-105467380D02*
X178214285Y-105419761D01*
X178214285Y-105419761D02*
X178261904Y-105372142D01*
X178261904Y-105372142D02*
X178309523Y-105276904D01*
X178309523Y-105276904D02*
X178309523Y-104467380D01*
X179214285Y-104800714D02*
X179214285Y-105467380D01*
X178976190Y-104419761D02*
X178738095Y-105134047D01*
X178738095Y-105134047D02*
X179357142Y-105134047D01*
%TO.C,U2*%
X194228095Y-111592380D02*
X194228095Y-112401904D01*
X194228095Y-112401904D02*
X194275714Y-112497142D01*
X194275714Y-112497142D02*
X194323333Y-112544761D01*
X194323333Y-112544761D02*
X194418571Y-112592380D01*
X194418571Y-112592380D02*
X194609047Y-112592380D01*
X194609047Y-112592380D02*
X194704285Y-112544761D01*
X194704285Y-112544761D02*
X194751904Y-112497142D01*
X194751904Y-112497142D02*
X194799523Y-112401904D01*
X194799523Y-112401904D02*
X194799523Y-111592380D01*
X195228095Y-111687619D02*
X195275714Y-111640000D01*
X195275714Y-111640000D02*
X195370952Y-111592380D01*
X195370952Y-111592380D02*
X195609047Y-111592380D01*
X195609047Y-111592380D02*
X195704285Y-111640000D01*
X195704285Y-111640000D02*
X195751904Y-111687619D01*
X195751904Y-111687619D02*
X195799523Y-111782857D01*
X195799523Y-111782857D02*
X195799523Y-111878095D01*
X195799523Y-111878095D02*
X195751904Y-112020952D01*
X195751904Y-112020952D02*
X195180476Y-112592380D01*
X195180476Y-112592380D02*
X195799523Y-112592380D01*
%TO.C,230VAC1*%
X245328571Y-87462619D02*
X245376190Y-87415000D01*
X245376190Y-87415000D02*
X245471428Y-87367380D01*
X245471428Y-87367380D02*
X245709523Y-87367380D01*
X245709523Y-87367380D02*
X245804761Y-87415000D01*
X245804761Y-87415000D02*
X245852380Y-87462619D01*
X245852380Y-87462619D02*
X245899999Y-87557857D01*
X245899999Y-87557857D02*
X245899999Y-87653095D01*
X245899999Y-87653095D02*
X245852380Y-87795952D01*
X245852380Y-87795952D02*
X245280952Y-88367380D01*
X245280952Y-88367380D02*
X245899999Y-88367380D01*
X246233333Y-87367380D02*
X246852380Y-87367380D01*
X246852380Y-87367380D02*
X246519047Y-87748333D01*
X246519047Y-87748333D02*
X246661904Y-87748333D01*
X246661904Y-87748333D02*
X246757142Y-87795952D01*
X246757142Y-87795952D02*
X246804761Y-87843571D01*
X246804761Y-87843571D02*
X246852380Y-87938809D01*
X246852380Y-87938809D02*
X246852380Y-88176904D01*
X246852380Y-88176904D02*
X246804761Y-88272142D01*
X246804761Y-88272142D02*
X246757142Y-88319761D01*
X246757142Y-88319761D02*
X246661904Y-88367380D01*
X246661904Y-88367380D02*
X246376190Y-88367380D01*
X246376190Y-88367380D02*
X246280952Y-88319761D01*
X246280952Y-88319761D02*
X246233333Y-88272142D01*
X247471428Y-87367380D02*
X247566666Y-87367380D01*
X247566666Y-87367380D02*
X247661904Y-87415000D01*
X247661904Y-87415000D02*
X247709523Y-87462619D01*
X247709523Y-87462619D02*
X247757142Y-87557857D01*
X247757142Y-87557857D02*
X247804761Y-87748333D01*
X247804761Y-87748333D02*
X247804761Y-87986428D01*
X247804761Y-87986428D02*
X247757142Y-88176904D01*
X247757142Y-88176904D02*
X247709523Y-88272142D01*
X247709523Y-88272142D02*
X247661904Y-88319761D01*
X247661904Y-88319761D02*
X247566666Y-88367380D01*
X247566666Y-88367380D02*
X247471428Y-88367380D01*
X247471428Y-88367380D02*
X247376190Y-88319761D01*
X247376190Y-88319761D02*
X247328571Y-88272142D01*
X247328571Y-88272142D02*
X247280952Y-88176904D01*
X247280952Y-88176904D02*
X247233333Y-87986428D01*
X247233333Y-87986428D02*
X247233333Y-87748333D01*
X247233333Y-87748333D02*
X247280952Y-87557857D01*
X247280952Y-87557857D02*
X247328571Y-87462619D01*
X247328571Y-87462619D02*
X247376190Y-87415000D01*
X247376190Y-87415000D02*
X247471428Y-87367380D01*
X248090476Y-87367380D02*
X248423809Y-88367380D01*
X248423809Y-88367380D02*
X248757142Y-87367380D01*
X249042857Y-88081666D02*
X249519047Y-88081666D01*
X248947619Y-88367380D02*
X249280952Y-87367380D01*
X249280952Y-87367380D02*
X249614285Y-88367380D01*
X250519047Y-88272142D02*
X250471428Y-88319761D01*
X250471428Y-88319761D02*
X250328571Y-88367380D01*
X250328571Y-88367380D02*
X250233333Y-88367380D01*
X250233333Y-88367380D02*
X250090476Y-88319761D01*
X250090476Y-88319761D02*
X249995238Y-88224523D01*
X249995238Y-88224523D02*
X249947619Y-88129285D01*
X249947619Y-88129285D02*
X249900000Y-87938809D01*
X249900000Y-87938809D02*
X249900000Y-87795952D01*
X249900000Y-87795952D02*
X249947619Y-87605476D01*
X249947619Y-87605476D02*
X249995238Y-87510238D01*
X249995238Y-87510238D02*
X250090476Y-87415000D01*
X250090476Y-87415000D02*
X250233333Y-87367380D01*
X250233333Y-87367380D02*
X250328571Y-87367380D01*
X250328571Y-87367380D02*
X250471428Y-87415000D01*
X250471428Y-87415000D02*
X250519047Y-87462619D01*
X251471428Y-88367380D02*
X250900000Y-88367380D01*
X251185714Y-88367380D02*
X251185714Y-87367380D01*
X251185714Y-87367380D02*
X251090476Y-87510238D01*
X251090476Y-87510238D02*
X250995238Y-87605476D01*
X250995238Y-87605476D02*
X250900000Y-87653095D01*
%TO.C,F1*%
X236188571Y-94248333D02*
X236188571Y-94581666D01*
X236712380Y-94581666D02*
X235712380Y-94581666D01*
X235712380Y-94581666D02*
X235712380Y-94105476D01*
X236712380Y-93200714D02*
X236712380Y-93772142D01*
X236712380Y-93486428D02*
X235712380Y-93486428D01*
X235712380Y-93486428D02*
X235855238Y-93581666D01*
X235855238Y-93581666D02*
X235950476Y-93676904D01*
X235950476Y-93676904D02*
X235998095Y-93772142D01*
%TO.C,C1*%
X191712142Y-112301666D02*
X191759761Y-112349285D01*
X191759761Y-112349285D02*
X191807380Y-112492142D01*
X191807380Y-112492142D02*
X191807380Y-112587380D01*
X191807380Y-112587380D02*
X191759761Y-112730237D01*
X191759761Y-112730237D02*
X191664523Y-112825475D01*
X191664523Y-112825475D02*
X191569285Y-112873094D01*
X191569285Y-112873094D02*
X191378809Y-112920713D01*
X191378809Y-112920713D02*
X191235952Y-112920713D01*
X191235952Y-112920713D02*
X191045476Y-112873094D01*
X191045476Y-112873094D02*
X190950238Y-112825475D01*
X190950238Y-112825475D02*
X190855000Y-112730237D01*
X190855000Y-112730237D02*
X190807380Y-112587380D01*
X190807380Y-112587380D02*
X190807380Y-112492142D01*
X190807380Y-112492142D02*
X190855000Y-112349285D01*
X190855000Y-112349285D02*
X190902619Y-112301666D01*
X191807380Y-111349285D02*
X191807380Y-111920713D01*
X191807380Y-111634999D02*
X190807380Y-111634999D01*
X190807380Y-111634999D02*
X190950238Y-111730237D01*
X190950238Y-111730237D02*
X191045476Y-111825475D01*
X191045476Y-111825475D02*
X191093095Y-111920713D01*
%TO.C,3V3*%
X177107380Y-114708094D02*
X177107380Y-114089047D01*
X177107380Y-114089047D02*
X177488333Y-114422380D01*
X177488333Y-114422380D02*
X177488333Y-114279523D01*
X177488333Y-114279523D02*
X177535952Y-114184285D01*
X177535952Y-114184285D02*
X177583571Y-114136666D01*
X177583571Y-114136666D02*
X177678809Y-114089047D01*
X177678809Y-114089047D02*
X177916904Y-114089047D01*
X177916904Y-114089047D02*
X178012142Y-114136666D01*
X178012142Y-114136666D02*
X178059761Y-114184285D01*
X178059761Y-114184285D02*
X178107380Y-114279523D01*
X178107380Y-114279523D02*
X178107380Y-114565237D01*
X178107380Y-114565237D02*
X178059761Y-114660475D01*
X178059761Y-114660475D02*
X178012142Y-114708094D01*
X177107380Y-113803332D02*
X178107380Y-113469999D01*
X178107380Y-113469999D02*
X177107380Y-113136666D01*
X177107380Y-112898570D02*
X177107380Y-112279523D01*
X177107380Y-112279523D02*
X177488333Y-112612856D01*
X177488333Y-112612856D02*
X177488333Y-112469999D01*
X177488333Y-112469999D02*
X177535952Y-112374761D01*
X177535952Y-112374761D02*
X177583571Y-112327142D01*
X177583571Y-112327142D02*
X177678809Y-112279523D01*
X177678809Y-112279523D02*
X177916904Y-112279523D01*
X177916904Y-112279523D02*
X178012142Y-112327142D01*
X178012142Y-112327142D02*
X178059761Y-112374761D01*
X178059761Y-112374761D02*
X178107380Y-112469999D01*
X178107380Y-112469999D02*
X178107380Y-112755713D01*
X178107380Y-112755713D02*
X178059761Y-112850951D01*
X178059761Y-112850951D02*
X178012142Y-112898570D01*
%TO.C,C5*%
X196043333Y-119882142D02*
X195995714Y-119929761D01*
X195995714Y-119929761D02*
X195852857Y-119977380D01*
X195852857Y-119977380D02*
X195757619Y-119977380D01*
X195757619Y-119977380D02*
X195614762Y-119929761D01*
X195614762Y-119929761D02*
X195519524Y-119834523D01*
X195519524Y-119834523D02*
X195471905Y-119739285D01*
X195471905Y-119739285D02*
X195424286Y-119548809D01*
X195424286Y-119548809D02*
X195424286Y-119405952D01*
X195424286Y-119405952D02*
X195471905Y-119215476D01*
X195471905Y-119215476D02*
X195519524Y-119120238D01*
X195519524Y-119120238D02*
X195614762Y-119025000D01*
X195614762Y-119025000D02*
X195757619Y-118977380D01*
X195757619Y-118977380D02*
X195852857Y-118977380D01*
X195852857Y-118977380D02*
X195995714Y-119025000D01*
X195995714Y-119025000D02*
X196043333Y-119072619D01*
X196948095Y-118977380D02*
X196471905Y-118977380D01*
X196471905Y-118977380D02*
X196424286Y-119453571D01*
X196424286Y-119453571D02*
X196471905Y-119405952D01*
X196471905Y-119405952D02*
X196567143Y-119358333D01*
X196567143Y-119358333D02*
X196805238Y-119358333D01*
X196805238Y-119358333D02*
X196900476Y-119405952D01*
X196900476Y-119405952D02*
X196948095Y-119453571D01*
X196948095Y-119453571D02*
X196995714Y-119548809D01*
X196995714Y-119548809D02*
X196995714Y-119786904D01*
X196995714Y-119786904D02*
X196948095Y-119882142D01*
X196948095Y-119882142D02*
X196900476Y-119929761D01*
X196900476Y-119929761D02*
X196805238Y-119977380D01*
X196805238Y-119977380D02*
X196567143Y-119977380D01*
X196567143Y-119977380D02*
X196471905Y-119929761D01*
X196471905Y-119929761D02*
X196424286Y-119882142D01*
D12*
%TO.C,PS1*%
X215443573Y-90373143D02*
X214173573Y-90373143D01*
X214173573Y-90373143D02*
X214173573Y-89889333D01*
X214173573Y-89889333D02*
X214234050Y-89768381D01*
X214234050Y-89768381D02*
X214294526Y-89707904D01*
X214294526Y-89707904D02*
X214415478Y-89647428D01*
X214415478Y-89647428D02*
X214596907Y-89647428D01*
X214596907Y-89647428D02*
X214717859Y-89707904D01*
X214717859Y-89707904D02*
X214778335Y-89768381D01*
X214778335Y-89768381D02*
X214838811Y-89889333D01*
X214838811Y-89889333D02*
X214838811Y-90373143D01*
X215383097Y-89163619D02*
X215443573Y-88982190D01*
X215443573Y-88982190D02*
X215443573Y-88679809D01*
X215443573Y-88679809D02*
X215383097Y-88558857D01*
X215383097Y-88558857D02*
X215322621Y-88498381D01*
X215322621Y-88498381D02*
X215201669Y-88437904D01*
X215201669Y-88437904D02*
X215080716Y-88437904D01*
X215080716Y-88437904D02*
X214959764Y-88498381D01*
X214959764Y-88498381D02*
X214899288Y-88558857D01*
X214899288Y-88558857D02*
X214838811Y-88679809D01*
X214838811Y-88679809D02*
X214778335Y-88921714D01*
X214778335Y-88921714D02*
X214717859Y-89042666D01*
X214717859Y-89042666D02*
X214657383Y-89103143D01*
X214657383Y-89103143D02*
X214536430Y-89163619D01*
X214536430Y-89163619D02*
X214415478Y-89163619D01*
X214415478Y-89163619D02*
X214294526Y-89103143D01*
X214294526Y-89103143D02*
X214234050Y-89042666D01*
X214234050Y-89042666D02*
X214173573Y-88921714D01*
X214173573Y-88921714D02*
X214173573Y-88619333D01*
X214173573Y-88619333D02*
X214234050Y-88437904D01*
X215443573Y-87228380D02*
X215443573Y-87954095D01*
X215443573Y-87591238D02*
X214173573Y-87591238D01*
X214173573Y-87591238D02*
X214355002Y-87712190D01*
X214355002Y-87712190D02*
X214475954Y-87833142D01*
X214475954Y-87833142D02*
X214536430Y-87954095D01*
D10*
%TO.C,Batterij1*%
X174227142Y-97743571D02*
X174369999Y-97791190D01*
X174369999Y-97791190D02*
X174417618Y-97838809D01*
X174417618Y-97838809D02*
X174465237Y-97934047D01*
X174465237Y-97934047D02*
X174465237Y-98076904D01*
X174465237Y-98076904D02*
X174417618Y-98172142D01*
X174417618Y-98172142D02*
X174369999Y-98219761D01*
X174369999Y-98219761D02*
X174274761Y-98267380D01*
X174274761Y-98267380D02*
X173893809Y-98267380D01*
X173893809Y-98267380D02*
X173893809Y-97267380D01*
X173893809Y-97267380D02*
X174227142Y-97267380D01*
X174227142Y-97267380D02*
X174322380Y-97315000D01*
X174322380Y-97315000D02*
X174369999Y-97362619D01*
X174369999Y-97362619D02*
X174417618Y-97457857D01*
X174417618Y-97457857D02*
X174417618Y-97553095D01*
X174417618Y-97553095D02*
X174369999Y-97648333D01*
X174369999Y-97648333D02*
X174322380Y-97695952D01*
X174322380Y-97695952D02*
X174227142Y-97743571D01*
X174227142Y-97743571D02*
X173893809Y-97743571D01*
X175322380Y-98267380D02*
X175322380Y-97743571D01*
X175322380Y-97743571D02*
X175274761Y-97648333D01*
X175274761Y-97648333D02*
X175179523Y-97600714D01*
X175179523Y-97600714D02*
X174989047Y-97600714D01*
X174989047Y-97600714D02*
X174893809Y-97648333D01*
X175322380Y-98219761D02*
X175227142Y-98267380D01*
X175227142Y-98267380D02*
X174989047Y-98267380D01*
X174989047Y-98267380D02*
X174893809Y-98219761D01*
X174893809Y-98219761D02*
X174846190Y-98124523D01*
X174846190Y-98124523D02*
X174846190Y-98029285D01*
X174846190Y-98029285D02*
X174893809Y-97934047D01*
X174893809Y-97934047D02*
X174989047Y-97886428D01*
X174989047Y-97886428D02*
X175227142Y-97886428D01*
X175227142Y-97886428D02*
X175322380Y-97838809D01*
X175655714Y-97600714D02*
X176036666Y-97600714D01*
X175798571Y-97267380D02*
X175798571Y-98124523D01*
X175798571Y-98124523D02*
X175846190Y-98219761D01*
X175846190Y-98219761D02*
X175941428Y-98267380D01*
X175941428Y-98267380D02*
X176036666Y-98267380D01*
X176227143Y-97600714D02*
X176608095Y-97600714D01*
X176370000Y-97267380D02*
X176370000Y-98124523D01*
X176370000Y-98124523D02*
X176417619Y-98219761D01*
X176417619Y-98219761D02*
X176512857Y-98267380D01*
X176512857Y-98267380D02*
X176608095Y-98267380D01*
X177322381Y-98219761D02*
X177227143Y-98267380D01*
X177227143Y-98267380D02*
X177036667Y-98267380D01*
X177036667Y-98267380D02*
X176941429Y-98219761D01*
X176941429Y-98219761D02*
X176893810Y-98124523D01*
X176893810Y-98124523D02*
X176893810Y-97743571D01*
X176893810Y-97743571D02*
X176941429Y-97648333D01*
X176941429Y-97648333D02*
X177036667Y-97600714D01*
X177036667Y-97600714D02*
X177227143Y-97600714D01*
X177227143Y-97600714D02*
X177322381Y-97648333D01*
X177322381Y-97648333D02*
X177370000Y-97743571D01*
X177370000Y-97743571D02*
X177370000Y-97838809D01*
X177370000Y-97838809D02*
X176893810Y-97934047D01*
X177798572Y-98267380D02*
X177798572Y-97600714D01*
X177798572Y-97791190D02*
X177846191Y-97695952D01*
X177846191Y-97695952D02*
X177893810Y-97648333D01*
X177893810Y-97648333D02*
X177989048Y-97600714D01*
X177989048Y-97600714D02*
X178084286Y-97600714D01*
X178417620Y-98267380D02*
X178417620Y-97600714D01*
X178417620Y-97267380D02*
X178370001Y-97315000D01*
X178370001Y-97315000D02*
X178417620Y-97362619D01*
X178417620Y-97362619D02*
X178465239Y-97315000D01*
X178465239Y-97315000D02*
X178417620Y-97267380D01*
X178417620Y-97267380D02*
X178417620Y-97362619D01*
X178893810Y-97600714D02*
X178893810Y-98457857D01*
X178893810Y-98457857D02*
X178846191Y-98553095D01*
X178846191Y-98553095D02*
X178750953Y-98600714D01*
X178750953Y-98600714D02*
X178703334Y-98600714D01*
X178893810Y-97267380D02*
X178846191Y-97315000D01*
X178846191Y-97315000D02*
X178893810Y-97362619D01*
X178893810Y-97362619D02*
X178941429Y-97315000D01*
X178941429Y-97315000D02*
X178893810Y-97267380D01*
X178893810Y-97267380D02*
X178893810Y-97362619D01*
X179893809Y-98267380D02*
X179322381Y-98267380D01*
X179608095Y-98267380D02*
X179608095Y-97267380D01*
X179608095Y-97267380D02*
X179512857Y-97410238D01*
X179512857Y-97410238D02*
X179417619Y-97505476D01*
X179417619Y-97505476D02*
X179322381Y-97553095D01*
%TO.C,C2*%
X182133333Y-114022142D02*
X182085714Y-114069761D01*
X182085714Y-114069761D02*
X181942857Y-114117380D01*
X181942857Y-114117380D02*
X181847619Y-114117380D01*
X181847619Y-114117380D02*
X181704762Y-114069761D01*
X181704762Y-114069761D02*
X181609524Y-113974523D01*
X181609524Y-113974523D02*
X181561905Y-113879285D01*
X181561905Y-113879285D02*
X181514286Y-113688809D01*
X181514286Y-113688809D02*
X181514286Y-113545952D01*
X181514286Y-113545952D02*
X181561905Y-113355476D01*
X181561905Y-113355476D02*
X181609524Y-113260238D01*
X181609524Y-113260238D02*
X181704762Y-113165000D01*
X181704762Y-113165000D02*
X181847619Y-113117380D01*
X181847619Y-113117380D02*
X181942857Y-113117380D01*
X181942857Y-113117380D02*
X182085714Y-113165000D01*
X182085714Y-113165000D02*
X182133333Y-113212619D01*
X182514286Y-113212619D02*
X182561905Y-113165000D01*
X182561905Y-113165000D02*
X182657143Y-113117380D01*
X182657143Y-113117380D02*
X182895238Y-113117380D01*
X182895238Y-113117380D02*
X182990476Y-113165000D01*
X182990476Y-113165000D02*
X183038095Y-113212619D01*
X183038095Y-113212619D02*
X183085714Y-113307857D01*
X183085714Y-113307857D02*
X183085714Y-113403095D01*
X183085714Y-113403095D02*
X183038095Y-113545952D01*
X183038095Y-113545952D02*
X182466667Y-114117380D01*
X182466667Y-114117380D02*
X183085714Y-114117380D01*
%TO.C,U1*%
X187618095Y-81927380D02*
X187618095Y-82736904D01*
X187618095Y-82736904D02*
X187665714Y-82832142D01*
X187665714Y-82832142D02*
X187713333Y-82879761D01*
X187713333Y-82879761D02*
X187808571Y-82927380D01*
X187808571Y-82927380D02*
X187999047Y-82927380D01*
X187999047Y-82927380D02*
X188094285Y-82879761D01*
X188094285Y-82879761D02*
X188141904Y-82832142D01*
X188141904Y-82832142D02*
X188189523Y-82736904D01*
X188189523Y-82736904D02*
X188189523Y-81927380D01*
X189189523Y-82927380D02*
X188618095Y-82927380D01*
X188903809Y-82927380D02*
X188903809Y-81927380D01*
X188903809Y-81927380D02*
X188808571Y-82070238D01*
X188808571Y-82070238D02*
X188713333Y-82165476D01*
X188713333Y-82165476D02*
X188618095Y-82213095D01*
%TO.C,PIR_sens1*%
X174352381Y-132842380D02*
X174352381Y-131842380D01*
X174352381Y-131842380D02*
X174733333Y-131842380D01*
X174733333Y-131842380D02*
X174828571Y-131890000D01*
X174828571Y-131890000D02*
X174876190Y-131937619D01*
X174876190Y-131937619D02*
X174923809Y-132032857D01*
X174923809Y-132032857D02*
X174923809Y-132175714D01*
X174923809Y-132175714D02*
X174876190Y-132270952D01*
X174876190Y-132270952D02*
X174828571Y-132318571D01*
X174828571Y-132318571D02*
X174733333Y-132366190D01*
X174733333Y-132366190D02*
X174352381Y-132366190D01*
X175352381Y-132842380D02*
X175352381Y-131842380D01*
X176399999Y-132842380D02*
X176066666Y-132366190D01*
X175828571Y-132842380D02*
X175828571Y-131842380D01*
X175828571Y-131842380D02*
X176209523Y-131842380D01*
X176209523Y-131842380D02*
X176304761Y-131890000D01*
X176304761Y-131890000D02*
X176352380Y-131937619D01*
X176352380Y-131937619D02*
X176399999Y-132032857D01*
X176399999Y-132032857D02*
X176399999Y-132175714D01*
X176399999Y-132175714D02*
X176352380Y-132270952D01*
X176352380Y-132270952D02*
X176304761Y-132318571D01*
X176304761Y-132318571D02*
X176209523Y-132366190D01*
X176209523Y-132366190D02*
X175828571Y-132366190D01*
X176590476Y-132937619D02*
X177352380Y-132937619D01*
X177542857Y-132794761D02*
X177638095Y-132842380D01*
X177638095Y-132842380D02*
X177828571Y-132842380D01*
X177828571Y-132842380D02*
X177923809Y-132794761D01*
X177923809Y-132794761D02*
X177971428Y-132699523D01*
X177971428Y-132699523D02*
X177971428Y-132651904D01*
X177971428Y-132651904D02*
X177923809Y-132556666D01*
X177923809Y-132556666D02*
X177828571Y-132509047D01*
X177828571Y-132509047D02*
X177685714Y-132509047D01*
X177685714Y-132509047D02*
X177590476Y-132461428D01*
X177590476Y-132461428D02*
X177542857Y-132366190D01*
X177542857Y-132366190D02*
X177542857Y-132318571D01*
X177542857Y-132318571D02*
X177590476Y-132223333D01*
X177590476Y-132223333D02*
X177685714Y-132175714D01*
X177685714Y-132175714D02*
X177828571Y-132175714D01*
X177828571Y-132175714D02*
X177923809Y-132223333D01*
X178780952Y-132794761D02*
X178685714Y-132842380D01*
X178685714Y-132842380D02*
X178495238Y-132842380D01*
X178495238Y-132842380D02*
X178400000Y-132794761D01*
X178400000Y-132794761D02*
X178352381Y-132699523D01*
X178352381Y-132699523D02*
X178352381Y-132318571D01*
X178352381Y-132318571D02*
X178400000Y-132223333D01*
X178400000Y-132223333D02*
X178495238Y-132175714D01*
X178495238Y-132175714D02*
X178685714Y-132175714D01*
X178685714Y-132175714D02*
X178780952Y-132223333D01*
X178780952Y-132223333D02*
X178828571Y-132318571D01*
X178828571Y-132318571D02*
X178828571Y-132413809D01*
X178828571Y-132413809D02*
X178352381Y-132509047D01*
X179257143Y-132175714D02*
X179257143Y-132842380D01*
X179257143Y-132270952D02*
X179304762Y-132223333D01*
X179304762Y-132223333D02*
X179400000Y-132175714D01*
X179400000Y-132175714D02*
X179542857Y-132175714D01*
X179542857Y-132175714D02*
X179638095Y-132223333D01*
X179638095Y-132223333D02*
X179685714Y-132318571D01*
X179685714Y-132318571D02*
X179685714Y-132842380D01*
X180114286Y-132794761D02*
X180209524Y-132842380D01*
X180209524Y-132842380D02*
X180400000Y-132842380D01*
X180400000Y-132842380D02*
X180495238Y-132794761D01*
X180495238Y-132794761D02*
X180542857Y-132699523D01*
X180542857Y-132699523D02*
X180542857Y-132651904D01*
X180542857Y-132651904D02*
X180495238Y-132556666D01*
X180495238Y-132556666D02*
X180400000Y-132509047D01*
X180400000Y-132509047D02*
X180257143Y-132509047D01*
X180257143Y-132509047D02*
X180161905Y-132461428D01*
X180161905Y-132461428D02*
X180114286Y-132366190D01*
X180114286Y-132366190D02*
X180114286Y-132318571D01*
X180114286Y-132318571D02*
X180161905Y-132223333D01*
X180161905Y-132223333D02*
X180257143Y-132175714D01*
X180257143Y-132175714D02*
X180400000Y-132175714D01*
X180400000Y-132175714D02*
X180495238Y-132223333D01*
X181495238Y-132842380D02*
X180923810Y-132842380D01*
X181209524Y-132842380D02*
X181209524Y-131842380D01*
X181209524Y-131842380D02*
X181114286Y-131985238D01*
X181114286Y-131985238D02*
X181019048Y-132080476D01*
X181019048Y-132080476D02*
X180923810Y-132128095D01*
%TO.C,J1*%
X249736666Y-102167380D02*
X249736666Y-102881666D01*
X249736666Y-102881666D02*
X249689047Y-103024523D01*
X249689047Y-103024523D02*
X249593809Y-103119761D01*
X249593809Y-103119761D02*
X249450952Y-103167380D01*
X249450952Y-103167380D02*
X249355714Y-103167380D01*
X250736666Y-103167380D02*
X250165238Y-103167380D01*
X250450952Y-103167380D02*
X250450952Y-102167380D01*
X250450952Y-102167380D02*
X250355714Y-102310238D01*
X250355714Y-102310238D02*
X250260476Y-102405476D01*
X250260476Y-102405476D02*
X250165238Y-102453095D01*
%TO.C,J3*%
X239877380Y-150553333D02*
X240591666Y-150553333D01*
X240591666Y-150553333D02*
X240734523Y-150600952D01*
X240734523Y-150600952D02*
X240829761Y-150696190D01*
X240829761Y-150696190D02*
X240877380Y-150839047D01*
X240877380Y-150839047D02*
X240877380Y-150934285D01*
X239877380Y-150172380D02*
X239877380Y-149553333D01*
X239877380Y-149553333D02*
X240258333Y-149886666D01*
X240258333Y-149886666D02*
X240258333Y-149743809D01*
X240258333Y-149743809D02*
X240305952Y-149648571D01*
X240305952Y-149648571D02*
X240353571Y-149600952D01*
X240353571Y-149600952D02*
X240448809Y-149553333D01*
X240448809Y-149553333D02*
X240686904Y-149553333D01*
X240686904Y-149553333D02*
X240782142Y-149600952D01*
X240782142Y-149600952D02*
X240829761Y-149648571D01*
X240829761Y-149648571D02*
X240877380Y-149743809D01*
X240877380Y-149743809D02*
X240877380Y-150029523D01*
X240877380Y-150029523D02*
X240829761Y-150124761D01*
X240829761Y-150124761D02*
X240782142Y-150172380D01*
D13*
%TO.C,U-PICO1*%
X210537380Y-136302856D02*
X211346904Y-136302856D01*
X211346904Y-136302856D02*
X211442142Y-136255237D01*
X211442142Y-136255237D02*
X211489761Y-136207618D01*
X211489761Y-136207618D02*
X211537380Y-136112380D01*
X211537380Y-136112380D02*
X211537380Y-135921904D01*
X211537380Y-135921904D02*
X211489761Y-135826666D01*
X211489761Y-135826666D02*
X211442142Y-135779047D01*
X211442142Y-135779047D02*
X211346904Y-135731428D01*
X211346904Y-135731428D02*
X210537380Y-135731428D01*
X211156428Y-135255237D02*
X211156428Y-134493333D01*
X211537380Y-134017142D02*
X210537380Y-134017142D01*
X210537380Y-134017142D02*
X210537380Y-133636190D01*
X210537380Y-133636190D02*
X210585000Y-133540952D01*
X210585000Y-133540952D02*
X210632619Y-133493333D01*
X210632619Y-133493333D02*
X210727857Y-133445714D01*
X210727857Y-133445714D02*
X210870714Y-133445714D01*
X210870714Y-133445714D02*
X210965952Y-133493333D01*
X210965952Y-133493333D02*
X211013571Y-133540952D01*
X211013571Y-133540952D02*
X211061190Y-133636190D01*
X211061190Y-133636190D02*
X211061190Y-134017142D01*
X211537380Y-133017142D02*
X210537380Y-133017142D01*
X211442142Y-131969524D02*
X211489761Y-132017143D01*
X211489761Y-132017143D02*
X211537380Y-132160000D01*
X211537380Y-132160000D02*
X211537380Y-132255238D01*
X211537380Y-132255238D02*
X211489761Y-132398095D01*
X211489761Y-132398095D02*
X211394523Y-132493333D01*
X211394523Y-132493333D02*
X211299285Y-132540952D01*
X211299285Y-132540952D02*
X211108809Y-132588571D01*
X211108809Y-132588571D02*
X210965952Y-132588571D01*
X210965952Y-132588571D02*
X210775476Y-132540952D01*
X210775476Y-132540952D02*
X210680238Y-132493333D01*
X210680238Y-132493333D02*
X210585000Y-132398095D01*
X210585000Y-132398095D02*
X210537380Y-132255238D01*
X210537380Y-132255238D02*
X210537380Y-132160000D01*
X210537380Y-132160000D02*
X210585000Y-132017143D01*
X210585000Y-132017143D02*
X210632619Y-131969524D01*
X210537380Y-131350476D02*
X210537380Y-131160000D01*
X210537380Y-131160000D02*
X210585000Y-131064762D01*
X210585000Y-131064762D02*
X210680238Y-130969524D01*
X210680238Y-130969524D02*
X210870714Y-130921905D01*
X210870714Y-130921905D02*
X211204047Y-130921905D01*
X211204047Y-130921905D02*
X211394523Y-130969524D01*
X211394523Y-130969524D02*
X211489761Y-131064762D01*
X211489761Y-131064762D02*
X211537380Y-131160000D01*
X211537380Y-131160000D02*
X211537380Y-131350476D01*
X211537380Y-131350476D02*
X211489761Y-131445714D01*
X211489761Y-131445714D02*
X211394523Y-131540952D01*
X211394523Y-131540952D02*
X211204047Y-131588571D01*
X211204047Y-131588571D02*
X210870714Y-131588571D01*
X210870714Y-131588571D02*
X210680238Y-131540952D01*
X210680238Y-131540952D02*
X210585000Y-131445714D01*
X210585000Y-131445714D02*
X210537380Y-131350476D01*
X211537380Y-129969524D02*
X211537380Y-130540952D01*
X211537380Y-130255238D02*
X210537380Y-130255238D01*
X210537380Y-130255238D02*
X210680238Y-130350476D01*
X210680238Y-130350476D02*
X210775476Y-130445714D01*
X210775476Y-130445714D02*
X210823095Y-130540952D01*
D10*
%TO.C,5V1*%
X177057380Y-82406666D02*
X177057380Y-82882856D01*
X177057380Y-82882856D02*
X177533571Y-82930475D01*
X177533571Y-82930475D02*
X177485952Y-82882856D01*
X177485952Y-82882856D02*
X177438333Y-82787618D01*
X177438333Y-82787618D02*
X177438333Y-82549523D01*
X177438333Y-82549523D02*
X177485952Y-82454285D01*
X177485952Y-82454285D02*
X177533571Y-82406666D01*
X177533571Y-82406666D02*
X177628809Y-82359047D01*
X177628809Y-82359047D02*
X177866904Y-82359047D01*
X177866904Y-82359047D02*
X177962142Y-82406666D01*
X177962142Y-82406666D02*
X178009761Y-82454285D01*
X178009761Y-82454285D02*
X178057380Y-82549523D01*
X178057380Y-82549523D02*
X178057380Y-82787618D01*
X178057380Y-82787618D02*
X178009761Y-82882856D01*
X178009761Y-82882856D02*
X177962142Y-82930475D01*
X177057380Y-82073332D02*
X178057380Y-81739999D01*
X178057380Y-81739999D02*
X177057380Y-81406666D01*
X178057380Y-80549523D02*
X178057380Y-81120951D01*
X178057380Y-80835237D02*
X177057380Y-80835237D01*
X177057380Y-80835237D02*
X177200238Y-80930475D01*
X177200238Y-80930475D02*
X177295476Y-81025713D01*
X177295476Y-81025713D02*
X177343095Y-81120951D01*
%TO.C,D1*%
X198667380Y-85438094D02*
X197667380Y-85438094D01*
X197667380Y-85438094D02*
X197667380Y-85199999D01*
X197667380Y-85199999D02*
X197715000Y-85057142D01*
X197715000Y-85057142D02*
X197810238Y-84961904D01*
X197810238Y-84961904D02*
X197905476Y-84914285D01*
X197905476Y-84914285D02*
X198095952Y-84866666D01*
X198095952Y-84866666D02*
X198238809Y-84866666D01*
X198238809Y-84866666D02*
X198429285Y-84914285D01*
X198429285Y-84914285D02*
X198524523Y-84961904D01*
X198524523Y-84961904D02*
X198619761Y-85057142D01*
X198619761Y-85057142D02*
X198667380Y-85199999D01*
X198667380Y-85199999D02*
X198667380Y-85438094D01*
X198667380Y-83914285D02*
X198667380Y-84485713D01*
X198667380Y-84199999D02*
X197667380Y-84199999D01*
X197667380Y-84199999D02*
X197810238Y-84295237D01*
X197810238Y-84295237D02*
X197905476Y-84390475D01*
X197905476Y-84390475D02*
X197953095Y-84485713D01*
%TO.C,Shock_sens1*%
X173503571Y-140419761D02*
X173646428Y-140467380D01*
X173646428Y-140467380D02*
X173884523Y-140467380D01*
X173884523Y-140467380D02*
X173979761Y-140419761D01*
X173979761Y-140419761D02*
X174027380Y-140372142D01*
X174027380Y-140372142D02*
X174074999Y-140276904D01*
X174074999Y-140276904D02*
X174074999Y-140181666D01*
X174074999Y-140181666D02*
X174027380Y-140086428D01*
X174027380Y-140086428D02*
X173979761Y-140038809D01*
X173979761Y-140038809D02*
X173884523Y-139991190D01*
X173884523Y-139991190D02*
X173694047Y-139943571D01*
X173694047Y-139943571D02*
X173598809Y-139895952D01*
X173598809Y-139895952D02*
X173551190Y-139848333D01*
X173551190Y-139848333D02*
X173503571Y-139753095D01*
X173503571Y-139753095D02*
X173503571Y-139657857D01*
X173503571Y-139657857D02*
X173551190Y-139562619D01*
X173551190Y-139562619D02*
X173598809Y-139515000D01*
X173598809Y-139515000D02*
X173694047Y-139467380D01*
X173694047Y-139467380D02*
X173932142Y-139467380D01*
X173932142Y-139467380D02*
X174074999Y-139515000D01*
X174503571Y-140467380D02*
X174503571Y-139467380D01*
X174932142Y-140467380D02*
X174932142Y-139943571D01*
X174932142Y-139943571D02*
X174884523Y-139848333D01*
X174884523Y-139848333D02*
X174789285Y-139800714D01*
X174789285Y-139800714D02*
X174646428Y-139800714D01*
X174646428Y-139800714D02*
X174551190Y-139848333D01*
X174551190Y-139848333D02*
X174503571Y-139895952D01*
X175551190Y-140467380D02*
X175455952Y-140419761D01*
X175455952Y-140419761D02*
X175408333Y-140372142D01*
X175408333Y-140372142D02*
X175360714Y-140276904D01*
X175360714Y-140276904D02*
X175360714Y-139991190D01*
X175360714Y-139991190D02*
X175408333Y-139895952D01*
X175408333Y-139895952D02*
X175455952Y-139848333D01*
X175455952Y-139848333D02*
X175551190Y-139800714D01*
X175551190Y-139800714D02*
X175694047Y-139800714D01*
X175694047Y-139800714D02*
X175789285Y-139848333D01*
X175789285Y-139848333D02*
X175836904Y-139895952D01*
X175836904Y-139895952D02*
X175884523Y-139991190D01*
X175884523Y-139991190D02*
X175884523Y-140276904D01*
X175884523Y-140276904D02*
X175836904Y-140372142D01*
X175836904Y-140372142D02*
X175789285Y-140419761D01*
X175789285Y-140419761D02*
X175694047Y-140467380D01*
X175694047Y-140467380D02*
X175551190Y-140467380D01*
X176741666Y-140419761D02*
X176646428Y-140467380D01*
X176646428Y-140467380D02*
X176455952Y-140467380D01*
X176455952Y-140467380D02*
X176360714Y-140419761D01*
X176360714Y-140419761D02*
X176313095Y-140372142D01*
X176313095Y-140372142D02*
X176265476Y-140276904D01*
X176265476Y-140276904D02*
X176265476Y-139991190D01*
X176265476Y-139991190D02*
X176313095Y-139895952D01*
X176313095Y-139895952D02*
X176360714Y-139848333D01*
X176360714Y-139848333D02*
X176455952Y-139800714D01*
X176455952Y-139800714D02*
X176646428Y-139800714D01*
X176646428Y-139800714D02*
X176741666Y-139848333D01*
X177170238Y-140467380D02*
X177170238Y-139467380D01*
X177265476Y-140086428D02*
X177551190Y-140467380D01*
X177551190Y-139800714D02*
X177170238Y-140181666D01*
X177741667Y-140562619D02*
X178503571Y-140562619D01*
X178694048Y-140419761D02*
X178789286Y-140467380D01*
X178789286Y-140467380D02*
X178979762Y-140467380D01*
X178979762Y-140467380D02*
X179075000Y-140419761D01*
X179075000Y-140419761D02*
X179122619Y-140324523D01*
X179122619Y-140324523D02*
X179122619Y-140276904D01*
X179122619Y-140276904D02*
X179075000Y-140181666D01*
X179075000Y-140181666D02*
X178979762Y-140134047D01*
X178979762Y-140134047D02*
X178836905Y-140134047D01*
X178836905Y-140134047D02*
X178741667Y-140086428D01*
X178741667Y-140086428D02*
X178694048Y-139991190D01*
X178694048Y-139991190D02*
X178694048Y-139943571D01*
X178694048Y-139943571D02*
X178741667Y-139848333D01*
X178741667Y-139848333D02*
X178836905Y-139800714D01*
X178836905Y-139800714D02*
X178979762Y-139800714D01*
X178979762Y-139800714D02*
X179075000Y-139848333D01*
X179932143Y-140419761D02*
X179836905Y-140467380D01*
X179836905Y-140467380D02*
X179646429Y-140467380D01*
X179646429Y-140467380D02*
X179551191Y-140419761D01*
X179551191Y-140419761D02*
X179503572Y-140324523D01*
X179503572Y-140324523D02*
X179503572Y-139943571D01*
X179503572Y-139943571D02*
X179551191Y-139848333D01*
X179551191Y-139848333D02*
X179646429Y-139800714D01*
X179646429Y-139800714D02*
X179836905Y-139800714D01*
X179836905Y-139800714D02*
X179932143Y-139848333D01*
X179932143Y-139848333D02*
X179979762Y-139943571D01*
X179979762Y-139943571D02*
X179979762Y-140038809D01*
X179979762Y-140038809D02*
X179503572Y-140134047D01*
X180408334Y-139800714D02*
X180408334Y-140467380D01*
X180408334Y-139895952D02*
X180455953Y-139848333D01*
X180455953Y-139848333D02*
X180551191Y-139800714D01*
X180551191Y-139800714D02*
X180694048Y-139800714D01*
X180694048Y-139800714D02*
X180789286Y-139848333D01*
X180789286Y-139848333D02*
X180836905Y-139943571D01*
X180836905Y-139943571D02*
X180836905Y-140467380D01*
X181265477Y-140419761D02*
X181360715Y-140467380D01*
X181360715Y-140467380D02*
X181551191Y-140467380D01*
X181551191Y-140467380D02*
X181646429Y-140419761D01*
X181646429Y-140419761D02*
X181694048Y-140324523D01*
X181694048Y-140324523D02*
X181694048Y-140276904D01*
X181694048Y-140276904D02*
X181646429Y-140181666D01*
X181646429Y-140181666D02*
X181551191Y-140134047D01*
X181551191Y-140134047D02*
X181408334Y-140134047D01*
X181408334Y-140134047D02*
X181313096Y-140086428D01*
X181313096Y-140086428D02*
X181265477Y-139991190D01*
X181265477Y-139991190D02*
X181265477Y-139943571D01*
X181265477Y-139943571D02*
X181313096Y-139848333D01*
X181313096Y-139848333D02*
X181408334Y-139800714D01*
X181408334Y-139800714D02*
X181551191Y-139800714D01*
X181551191Y-139800714D02*
X181646429Y-139848333D01*
X182646429Y-140467380D02*
X182075001Y-140467380D01*
X182360715Y-140467380D02*
X182360715Y-139467380D01*
X182360715Y-139467380D02*
X182265477Y-139610238D01*
X182265477Y-139610238D02*
X182170239Y-139705476D01*
X182170239Y-139705476D02*
X182075001Y-139753095D01*
%TO.C,PIR_sens2*%
X174302381Y-125467380D02*
X174302381Y-124467380D01*
X174302381Y-124467380D02*
X174683333Y-124467380D01*
X174683333Y-124467380D02*
X174778571Y-124515000D01*
X174778571Y-124515000D02*
X174826190Y-124562619D01*
X174826190Y-124562619D02*
X174873809Y-124657857D01*
X174873809Y-124657857D02*
X174873809Y-124800714D01*
X174873809Y-124800714D02*
X174826190Y-124895952D01*
X174826190Y-124895952D02*
X174778571Y-124943571D01*
X174778571Y-124943571D02*
X174683333Y-124991190D01*
X174683333Y-124991190D02*
X174302381Y-124991190D01*
X175302381Y-125467380D02*
X175302381Y-124467380D01*
X176349999Y-125467380D02*
X176016666Y-124991190D01*
X175778571Y-125467380D02*
X175778571Y-124467380D01*
X175778571Y-124467380D02*
X176159523Y-124467380D01*
X176159523Y-124467380D02*
X176254761Y-124515000D01*
X176254761Y-124515000D02*
X176302380Y-124562619D01*
X176302380Y-124562619D02*
X176349999Y-124657857D01*
X176349999Y-124657857D02*
X176349999Y-124800714D01*
X176349999Y-124800714D02*
X176302380Y-124895952D01*
X176302380Y-124895952D02*
X176254761Y-124943571D01*
X176254761Y-124943571D02*
X176159523Y-124991190D01*
X176159523Y-124991190D02*
X175778571Y-124991190D01*
X176540476Y-125562619D02*
X177302380Y-125562619D01*
X177492857Y-125419761D02*
X177588095Y-125467380D01*
X177588095Y-125467380D02*
X177778571Y-125467380D01*
X177778571Y-125467380D02*
X177873809Y-125419761D01*
X177873809Y-125419761D02*
X177921428Y-125324523D01*
X177921428Y-125324523D02*
X177921428Y-125276904D01*
X177921428Y-125276904D02*
X177873809Y-125181666D01*
X177873809Y-125181666D02*
X177778571Y-125134047D01*
X177778571Y-125134047D02*
X177635714Y-125134047D01*
X177635714Y-125134047D02*
X177540476Y-125086428D01*
X177540476Y-125086428D02*
X177492857Y-124991190D01*
X177492857Y-124991190D02*
X177492857Y-124943571D01*
X177492857Y-124943571D02*
X177540476Y-124848333D01*
X177540476Y-124848333D02*
X177635714Y-124800714D01*
X177635714Y-124800714D02*
X177778571Y-124800714D01*
X177778571Y-124800714D02*
X177873809Y-124848333D01*
X178730952Y-125419761D02*
X178635714Y-125467380D01*
X178635714Y-125467380D02*
X178445238Y-125467380D01*
X178445238Y-125467380D02*
X178350000Y-125419761D01*
X178350000Y-125419761D02*
X178302381Y-125324523D01*
X178302381Y-125324523D02*
X178302381Y-124943571D01*
X178302381Y-124943571D02*
X178350000Y-124848333D01*
X178350000Y-124848333D02*
X178445238Y-124800714D01*
X178445238Y-124800714D02*
X178635714Y-124800714D01*
X178635714Y-124800714D02*
X178730952Y-124848333D01*
X178730952Y-124848333D02*
X178778571Y-124943571D01*
X178778571Y-124943571D02*
X178778571Y-125038809D01*
X178778571Y-125038809D02*
X178302381Y-125134047D01*
X179207143Y-124800714D02*
X179207143Y-125467380D01*
X179207143Y-124895952D02*
X179254762Y-124848333D01*
X179254762Y-124848333D02*
X179350000Y-124800714D01*
X179350000Y-124800714D02*
X179492857Y-124800714D01*
X179492857Y-124800714D02*
X179588095Y-124848333D01*
X179588095Y-124848333D02*
X179635714Y-124943571D01*
X179635714Y-124943571D02*
X179635714Y-125467380D01*
X180064286Y-125419761D02*
X180159524Y-125467380D01*
X180159524Y-125467380D02*
X180350000Y-125467380D01*
X180350000Y-125467380D02*
X180445238Y-125419761D01*
X180445238Y-125419761D02*
X180492857Y-125324523D01*
X180492857Y-125324523D02*
X180492857Y-125276904D01*
X180492857Y-125276904D02*
X180445238Y-125181666D01*
X180445238Y-125181666D02*
X180350000Y-125134047D01*
X180350000Y-125134047D02*
X180207143Y-125134047D01*
X180207143Y-125134047D02*
X180111905Y-125086428D01*
X180111905Y-125086428D02*
X180064286Y-124991190D01*
X180064286Y-124991190D02*
X180064286Y-124943571D01*
X180064286Y-124943571D02*
X180111905Y-124848333D01*
X180111905Y-124848333D02*
X180207143Y-124800714D01*
X180207143Y-124800714D02*
X180350000Y-124800714D01*
X180350000Y-124800714D02*
X180445238Y-124848333D01*
X180873810Y-124562619D02*
X180921429Y-124515000D01*
X180921429Y-124515000D02*
X181016667Y-124467380D01*
X181016667Y-124467380D02*
X181254762Y-124467380D01*
X181254762Y-124467380D02*
X181350000Y-124515000D01*
X181350000Y-124515000D02*
X181397619Y-124562619D01*
X181397619Y-124562619D02*
X181445238Y-124657857D01*
X181445238Y-124657857D02*
X181445238Y-124753095D01*
X181445238Y-124753095D02*
X181397619Y-124895952D01*
X181397619Y-124895952D02*
X180826191Y-125467380D01*
X180826191Y-125467380D02*
X181445238Y-125467380D01*
%TO.C,R1*%
X189557380Y-112311666D02*
X189081190Y-112644999D01*
X189557380Y-112883094D02*
X188557380Y-112883094D01*
X188557380Y-112883094D02*
X188557380Y-112502142D01*
X188557380Y-112502142D02*
X188605000Y-112406904D01*
X188605000Y-112406904D02*
X188652619Y-112359285D01*
X188652619Y-112359285D02*
X188747857Y-112311666D01*
X188747857Y-112311666D02*
X188890714Y-112311666D01*
X188890714Y-112311666D02*
X188985952Y-112359285D01*
X188985952Y-112359285D02*
X189033571Y-112406904D01*
X189033571Y-112406904D02*
X189081190Y-112502142D01*
X189081190Y-112502142D02*
X189081190Y-112883094D01*
X189557380Y-111359285D02*
X189557380Y-111930713D01*
X189557380Y-111644999D02*
X188557380Y-111644999D01*
X188557380Y-111644999D02*
X188700238Y-111740237D01*
X188700238Y-111740237D02*
X188795476Y-111835475D01*
X188795476Y-111835475D02*
X188843095Y-111930713D01*
%TO.C,D2*%
X195567380Y-117008094D02*
X194567380Y-117008094D01*
X194567380Y-117008094D02*
X194567380Y-116769999D01*
X194567380Y-116769999D02*
X194615000Y-116627142D01*
X194615000Y-116627142D02*
X194710238Y-116531904D01*
X194710238Y-116531904D02*
X194805476Y-116484285D01*
X194805476Y-116484285D02*
X194995952Y-116436666D01*
X194995952Y-116436666D02*
X195138809Y-116436666D01*
X195138809Y-116436666D02*
X195329285Y-116484285D01*
X195329285Y-116484285D02*
X195424523Y-116531904D01*
X195424523Y-116531904D02*
X195519761Y-116627142D01*
X195519761Y-116627142D02*
X195567380Y-116769999D01*
X195567380Y-116769999D02*
X195567380Y-117008094D01*
X194662619Y-116055713D02*
X194615000Y-116008094D01*
X194615000Y-116008094D02*
X194567380Y-115912856D01*
X194567380Y-115912856D02*
X194567380Y-115674761D01*
X194567380Y-115674761D02*
X194615000Y-115579523D01*
X194615000Y-115579523D02*
X194662619Y-115531904D01*
X194662619Y-115531904D02*
X194757857Y-115484285D01*
X194757857Y-115484285D02*
X194853095Y-115484285D01*
X194853095Y-115484285D02*
X194995952Y-115531904D01*
X194995952Y-115531904D02*
X195567380Y-116103332D01*
X195567380Y-116103332D02*
X195567380Y-115484285D01*
%TO.C,R2*%
X191363333Y-106942380D02*
X191030000Y-106466190D01*
X190791905Y-106942380D02*
X190791905Y-105942380D01*
X190791905Y-105942380D02*
X191172857Y-105942380D01*
X191172857Y-105942380D02*
X191268095Y-105990000D01*
X191268095Y-105990000D02*
X191315714Y-106037619D01*
X191315714Y-106037619D02*
X191363333Y-106132857D01*
X191363333Y-106132857D02*
X191363333Y-106275714D01*
X191363333Y-106275714D02*
X191315714Y-106370952D01*
X191315714Y-106370952D02*
X191268095Y-106418571D01*
X191268095Y-106418571D02*
X191172857Y-106466190D01*
X191172857Y-106466190D02*
X190791905Y-106466190D01*
X191744286Y-106037619D02*
X191791905Y-105990000D01*
X191791905Y-105990000D02*
X191887143Y-105942380D01*
X191887143Y-105942380D02*
X192125238Y-105942380D01*
X192125238Y-105942380D02*
X192220476Y-105990000D01*
X192220476Y-105990000D02*
X192268095Y-106037619D01*
X192268095Y-106037619D02*
X192315714Y-106132857D01*
X192315714Y-106132857D02*
X192315714Y-106228095D01*
X192315714Y-106228095D02*
X192268095Y-106370952D01*
X192268095Y-106370952D02*
X191696667Y-106942380D01*
X191696667Y-106942380D02*
X192315714Y-106942380D01*
%TO.C,U3*%
X200722089Y-105032446D02*
X200722089Y-105552117D01*
X200722089Y-105552117D02*
X200752658Y-105613255D01*
X200752658Y-105613255D02*
X200783227Y-105643824D01*
X200783227Y-105643824D02*
X200844365Y-105674393D01*
X200844365Y-105674393D02*
X200966640Y-105674393D01*
X200966640Y-105674393D02*
X201027778Y-105643824D01*
X201027778Y-105643824D02*
X201058347Y-105613255D01*
X201058347Y-105613255D02*
X201088916Y-105552117D01*
X201088916Y-105552117D02*
X201088916Y-105032446D01*
X201333467Y-105032446D02*
X201730863Y-105032446D01*
X201730863Y-105032446D02*
X201516881Y-105276997D01*
X201516881Y-105276997D02*
X201608587Y-105276997D01*
X201608587Y-105276997D02*
X201669725Y-105307566D01*
X201669725Y-105307566D02*
X201700294Y-105338135D01*
X201700294Y-105338135D02*
X201730863Y-105399272D01*
X201730863Y-105399272D02*
X201730863Y-105552117D01*
X201730863Y-105552117D02*
X201700294Y-105613255D01*
X201700294Y-105613255D02*
X201669725Y-105643824D01*
X201669725Y-105643824D02*
X201608587Y-105674393D01*
X201608587Y-105674393D02*
X201425174Y-105674393D01*
X201425174Y-105674393D02*
X201364036Y-105643824D01*
X201364036Y-105643824D02*
X201333467Y-105613255D01*
D14*
%TO.C,U4*%
X173250000Y-105940000D02*
X183750000Y-105940000D01*
X183750000Y-105940000D02*
X183750000Y-110940000D01*
X183750000Y-110940000D02*
X173250000Y-110940000D01*
X173250000Y-110940000D02*
X173250000Y-105940000D01*
%TO.C,U2*%
X194607500Y-107775000D02*
X192807500Y-107775000D01*
X194607500Y-107775000D02*
X195407500Y-107775000D01*
X194607500Y-110895000D02*
X193807500Y-110895000D01*
X194607500Y-110895000D02*
X195407500Y-110895000D01*
%TO.C,230VAC1*%
X251470000Y-86700000D02*
X252110000Y-86700000D01*
X252110000Y-86700000D02*
X252110000Y-86300000D01*
X245130000Y-86460000D02*
X251870000Y-86460000D01*
X245130000Y-86460000D02*
X245130000Y-80680000D01*
X246250000Y-86460000D02*
X246250000Y-80680000D01*
X251350000Y-86460000D02*
X251350000Y-80680000D01*
X251870000Y-86460000D02*
X251870000Y-80680000D01*
X245130000Y-80680000D02*
X251870000Y-80680000D01*
D15*
%TO.C,F1*%
X237425000Y-96835000D02*
X244155000Y-96835000D01*
X244155000Y-96835000D02*
X244155000Y-77025000D01*
X237425000Y-77025000D02*
X237425000Y-96835000D01*
X244155000Y-77025000D02*
X237425000Y-77025000D01*
D14*
%TO.C,C1*%
X191810000Y-109509420D02*
X191810000Y-109790580D01*
X190790000Y-109509420D02*
X190790000Y-109790580D01*
%TO.C,3V3*%
X173820000Y-114810000D02*
X173820000Y-113480000D01*
X175150000Y-114810000D02*
X173820000Y-114810000D01*
X176420000Y-114810000D02*
X176480000Y-114810000D01*
X176420000Y-114810000D02*
X176420000Y-112150000D01*
X176480000Y-114810000D02*
X176480000Y-112150000D01*
X176420000Y-112150000D02*
X176480000Y-112150000D01*
%TO.C,C5*%
X196524420Y-117060000D02*
X196805580Y-117060000D01*
X196524420Y-118080000D02*
X196805580Y-118080000D01*
D12*
%TO.C,PS1*%
X202210000Y-101180000D02*
X202210000Y-75780000D01*
X227610000Y-101180000D02*
X202210000Y-101180000D01*
X202210000Y-75780000D02*
X227610000Y-75780000D01*
X227610000Y-75780000D02*
X227610000Y-101180000D01*
X225506980Y-102695000D02*
G75*
G03*
X225506980Y-102695000I-172980J0D01*
G01*
D14*
%TO.C,Batterij1*%
X173230000Y-90730000D02*
X172590000Y-90730000D01*
X172590000Y-90730000D02*
X172590000Y-91130000D01*
X179570000Y-90970000D02*
X172830000Y-90970000D01*
X179570000Y-90970000D02*
X179570000Y-96750000D01*
X178450000Y-90970000D02*
X178450000Y-96750000D01*
X173350000Y-90970000D02*
X173350000Y-96750000D01*
X172830000Y-90970000D02*
X172830000Y-96750000D01*
X179570000Y-96750000D02*
X172830000Y-96750000D01*
%TO.C,C2*%
X182124420Y-111590000D02*
X182405580Y-111590000D01*
X182124420Y-112610000D02*
X182405580Y-112610000D01*
%TO.C,U1*%
X180630000Y-76560000D02*
X197130000Y-76560000D01*
X197130000Y-76560000D02*
X197130000Y-103560000D01*
X197130000Y-103560000D02*
X180630000Y-103560000D01*
X180630000Y-103560000D02*
X180630000Y-76560000D01*
%TO.C,PIR_sens1*%
X173880000Y-129650000D02*
X173880000Y-128320000D01*
X175210000Y-129650000D02*
X173880000Y-129650000D01*
X176480000Y-129650000D02*
X181620000Y-129650000D01*
X176480000Y-129650000D02*
X176480000Y-126990000D01*
X181620000Y-129650000D02*
X181620000Y-126990000D01*
X176480000Y-126990000D02*
X181620000Y-126990000D01*
%TO.C,J1*%
X248740000Y-103800000D02*
X250070000Y-103800000D01*
X248740000Y-105130000D02*
X248740000Y-103800000D01*
X248740000Y-106400000D02*
X248740000Y-144560000D01*
X248740000Y-106400000D02*
X251400000Y-106400000D01*
X248740000Y-144560000D02*
X251400000Y-144560000D01*
X251400000Y-106400000D02*
X251400000Y-144560000D01*
%TO.C,J3*%
X239510000Y-148890000D02*
X239510000Y-150220000D01*
X238180000Y-148890000D02*
X239510000Y-148890000D01*
X236910000Y-148890000D02*
X206370000Y-148890000D01*
X236910000Y-148890000D02*
X236910000Y-151550000D01*
X206370000Y-148890000D02*
X206370000Y-151550000D01*
X236910000Y-151550000D02*
X206370000Y-151550000D01*
%TO.C,U-PICO1*%
X188710000Y-143660000D02*
X189010000Y-143660000D01*
X188710000Y-143660000D02*
X188710000Y-122660000D01*
X191110000Y-143660000D02*
X191510000Y-143660000D01*
X191377000Y-143660000D02*
X191377000Y-140653000D01*
X193710000Y-143660000D02*
X194110000Y-143660000D01*
X196210000Y-143660000D02*
X196610000Y-143660000D01*
X198810000Y-143660000D02*
X199210000Y-143660000D01*
X201310000Y-143660000D02*
X201710000Y-143660000D01*
X203810000Y-143660000D02*
X204210000Y-143660000D01*
X206410000Y-143660000D02*
X206810000Y-143660000D01*
X208910000Y-143660000D02*
X209310000Y-143660000D01*
X211510000Y-143660000D02*
X211910000Y-143660000D01*
X214010000Y-143660000D02*
X214410000Y-143660000D01*
X216510000Y-143660000D02*
X216910000Y-143660000D01*
X219110000Y-143660000D02*
X219510000Y-143660000D01*
X221610000Y-143660000D02*
X222010000Y-143660000D01*
X224210000Y-143660000D02*
X224610000Y-143660000D01*
X226710000Y-143660000D02*
X227110000Y-143660000D01*
X229310000Y-143660000D02*
X229710000Y-143660000D01*
X231810000Y-143660000D02*
X232210000Y-143660000D01*
X234310000Y-143660000D02*
X234710000Y-143660000D01*
X236910000Y-143660000D02*
X237310000Y-143660000D01*
X191377000Y-140653000D02*
X188710000Y-140653000D01*
X239710000Y-136860000D02*
X239710000Y-143660000D01*
X239710000Y-134660000D02*
X239710000Y-134260000D01*
X239710000Y-132060000D02*
X239710000Y-131660000D01*
X188710000Y-122660000D02*
X189010000Y-122660000D01*
X191110000Y-122660000D02*
X191510000Y-122660000D01*
X193710000Y-122660000D02*
X194110000Y-122660000D01*
X196210000Y-122660000D02*
X196610000Y-122660000D01*
X198810000Y-122660000D02*
X199210000Y-122660000D01*
X201310000Y-122660000D02*
X201710000Y-122660000D01*
X203810000Y-122660000D02*
X204210000Y-122660000D01*
X206410000Y-122660000D02*
X206810000Y-122660000D01*
X208910000Y-122660000D02*
X209310000Y-122660000D01*
X211510000Y-122660000D02*
X211910000Y-122660000D01*
X214010000Y-122660000D02*
X214410000Y-122660000D01*
X216510000Y-122660000D02*
X216910000Y-122660000D01*
X219110000Y-122660000D02*
X219510000Y-122660000D01*
X221610000Y-122660000D02*
X222010000Y-122660000D01*
X224210000Y-122660000D02*
X224610000Y-122660000D01*
X226710000Y-122660000D02*
X227110000Y-122660000D01*
X229310000Y-122660000D02*
X229710000Y-122660000D01*
X231810000Y-122660000D02*
X232210000Y-122660000D01*
X234310000Y-122660000D02*
X234710000Y-122660000D01*
X236910000Y-122660000D02*
X237310000Y-122660000D01*
X239710000Y-122660000D02*
X239710000Y-129460000D01*
%TO.C,5V1*%
X176050000Y-85880000D02*
X174720000Y-85880000D01*
X176050000Y-84550000D02*
X176050000Y-85880000D01*
X176050000Y-83280000D02*
X176050000Y-80680000D01*
X176050000Y-83280000D02*
X173390000Y-83280000D01*
X176050000Y-80680000D02*
X173390000Y-80680000D01*
X173390000Y-83280000D02*
X173390000Y-80680000D01*
%TO.C,D1*%
X200200000Y-84000000D02*
X200200000Y-85960000D01*
X199000000Y-84000000D02*
X199000000Y-85960000D01*
X199000000Y-85960000D02*
X200200000Y-85960000D01*
%TO.C,Shock_sens1*%
X174030000Y-137260000D02*
X174030000Y-135930000D01*
X175360000Y-137260000D02*
X174030000Y-137260000D01*
X176630000Y-137260000D02*
X181770000Y-137260000D01*
X176630000Y-137260000D02*
X176630000Y-134600000D01*
X181770000Y-137260000D02*
X181770000Y-134600000D01*
X176630000Y-134600000D02*
X181770000Y-134600000D01*
%TO.C,PIR_sens2*%
X173770000Y-122440000D02*
X173770000Y-121110000D01*
X175100000Y-122440000D02*
X173770000Y-122440000D01*
X176370000Y-122440000D02*
X181510000Y-122440000D01*
X176370000Y-122440000D02*
X176370000Y-119780000D01*
X181510000Y-122440000D02*
X181510000Y-119780000D01*
X176370000Y-119780000D02*
X181510000Y-119780000D01*
%TO.C,R1*%
X188767500Y-109887258D02*
X188767500Y-109412742D01*
X189812500Y-109887258D02*
X189812500Y-109412742D01*
%TO.C,D2*%
X194500000Y-115010000D02*
X193300000Y-115010000D01*
X194500000Y-116970000D02*
X194500000Y-115010000D01*
X193300000Y-116970000D02*
X193300000Y-115010000D01*
%TO.C,R2*%
X194342258Y-107097500D02*
X193867742Y-107097500D01*
X194342258Y-106052500D02*
X193867742Y-106052500D01*
D15*
%TO.C,U3*%
X199480000Y-106155000D02*
X203480000Y-106155000D01*
X199480000Y-111355000D02*
X203480000Y-111355000D01*
D16*
X197280000Y-106855000D02*
G75*
G03*
X197280000Y-106855000I-100000J0D01*
G01*
%TD*%
M02*
