%TF.GenerationSoftware,KiCad,Pcbnew,(7.0.0)*%
%TF.CreationDate,2023-11-14T13:40:17+01:00*%
%TF.ProjectId,PCB-light-challenge,5043422d-6c69-4676-9874-2d6368616c6c,rev?*%
%TF.SameCoordinates,Original*%
%TF.FileFunction,Soldermask,Top*%
%TF.FilePolarity,Negative*%
%FSLAX46Y46*%
G04 Gerber Fmt 4.6, Leading zero omitted, Abs format (unit mm)*
G04 Created by KiCad (PCBNEW (7.0.0)) date 2023-11-14 13:40:17*
%MOMM*%
%LPD*%
G01*
G04 APERTURE LIST*
G04 Aperture macros list*
%AMRoundRect*
0 Rectangle with rounded corners*
0 $1 Rounding radius*
0 $2 $3 $4 $5 $6 $7 $8 $9 X,Y pos of 4 corners*
0 Add a 4 corners polygon primitive as box body*
4,1,4,$2,$3,$4,$5,$6,$7,$8,$9,$2,$3,0*
0 Add four circle primitives for the rounded corners*
1,1,$1+$1,$2,$3*
1,1,$1+$1,$4,$5*
1,1,$1+$1,$6,$7*
1,1,$1+$1,$8,$9*
0 Add four rect primitives between the rounded corners*
20,1,$1+$1,$2,$3,$4,$5,0*
20,1,$1+$1,$4,$5,$6,$7,0*
20,1,$1+$1,$6,$7,$8,$9,0*
20,1,$1+$1,$8,$9,$2,$3,0*%
G04 Aperture macros list end*
%ADD10C,1.524000*%
%ADD11RoundRect,0.150000X-0.512500X-0.150000X0.512500X-0.150000X0.512500X0.150000X-0.512500X0.150000X0*%
%ADD12C,3.800000*%
%ADD13R,2.100000X2.100000*%
%ADD14C,2.100000*%
%ADD15C,2.604000*%
%ADD16RoundRect,0.225000X-0.250000X0.225000X-0.250000X-0.225000X0.250000X-0.225000X0.250000X0.225000X0*%
%ADD17R,1.700000X1.700000*%
%ADD18RoundRect,0.225000X-0.225000X-0.250000X0.225000X-0.250000X0.225000X0.250000X-0.225000X0.250000X0*%
%ADD19C,1.750000*%
%ADD20R,1.524000X1.524000*%
%ADD21O,1.700000X1.700000*%
%ADD22R,1.700000X3.500000*%
%ADD23RoundRect,0.150000X-0.200000X0.150000X-0.200000X-0.150000X0.200000X-0.150000X0.200000X0.150000X0*%
%ADD24RoundRect,0.200000X0.275000X-0.200000X0.275000X0.200000X-0.275000X0.200000X-0.275000X-0.200000X0*%
%ADD25RoundRect,0.150000X0.200000X-0.150000X0.200000X0.150000X-0.200000X0.150000X-0.200000X-0.150000X0*%
%ADD26RoundRect,0.200000X0.200000X0.275000X-0.200000X0.275000X-0.200000X-0.275000X0.200000X-0.275000X0*%
%ADD27RoundRect,0.125600X-0.741400X-0.271400X0.741400X-0.271400X0.741400X0.271400X-0.741400X0.271400X0*%
%ADD28RoundRect,0.125600X0.741400X0.271400X-0.741400X0.271400X-0.741400X-0.271400X0.741400X-0.271400X0*%
G04 APERTURE END LIST*
D10*
%TO.C,U4*%
X175750000Y-108560000D03*
X178290000Y-108560000D03*
X180830000Y-108560000D03*
%TD*%
D11*
%TO.C,U2*%
X193470000Y-108385000D03*
X193470000Y-109335000D03*
X193470000Y-110285000D03*
X195745000Y-110285000D03*
X195745000Y-108385000D03*
%TD*%
D12*
%TO.C,H1*%
X175240000Y-75830000D03*
%TD*%
D13*
%TO.C,230VAC1*%
X248499999Y-84839999D03*
D14*
X248500000Y-82300000D03*
%TD*%
D15*
%TO.C,F1*%
X239090000Y-93665000D03*
X242490000Y-93665000D03*
X239090000Y-80195000D03*
X242490000Y-80195000D03*
%TD*%
D16*
%TO.C,C1*%
X191300000Y-108875000D03*
X191300000Y-110425000D03*
%TD*%
D17*
%TO.C,3V3*%
X175149999Y-113479999D03*
%TD*%
D18*
%TO.C,C5*%
X195890000Y-117570000D03*
X197440000Y-117570000D03*
%TD*%
D12*
%TO.C,H3*%
X249670000Y-75840000D03*
%TD*%
D19*
%TO.C,PS1*%
X225060000Y-98640000D03*
X225060000Y-93560000D03*
X204760000Y-78320000D03*
X204760000Y-88480000D03*
X204760000Y-98640000D03*
%TD*%
D13*
%TO.C,Batterij1*%
X176199999Y-92589999D03*
D14*
X176200000Y-95130000D03*
%TD*%
D18*
%TO.C,C2*%
X181490000Y-112100000D03*
X183040000Y-112100000D03*
%TD*%
D20*
%TO.C,U1*%
X183629999Y-101309999D03*
X194879999Y-101309999D03*
X186879999Y-101309999D03*
X191629999Y-101309999D03*
X183629999Y-79309999D03*
X194879999Y-79309999D03*
%TD*%
D17*
%TO.C,PIR_sens1*%
X175209999Y-128319999D03*
D21*
X177749999Y-128319999D03*
X180289999Y-128319999D03*
%TD*%
D17*
%TO.C,J1*%
X250069999Y-105129999D03*
D21*
X250069999Y-107669999D03*
X250069999Y-110209999D03*
X250069999Y-112749999D03*
X250069999Y-115289999D03*
X250069999Y-117829999D03*
X250069999Y-120369999D03*
X250069999Y-122909999D03*
X250069999Y-125449999D03*
X250069999Y-127989999D03*
X250069999Y-130529999D03*
X250069999Y-133069999D03*
X250069999Y-135609999D03*
X250069999Y-138149999D03*
X250069999Y-140689999D03*
X250069999Y-143229999D03*
%TD*%
D12*
%TO.C,H4*%
X175120000Y-149420000D03*
%TD*%
D17*
%TO.C,J3*%
X238179999Y-150219999D03*
D21*
X235639999Y-150219999D03*
X233099999Y-150219999D03*
X230559999Y-150219999D03*
X228019999Y-150219999D03*
X225479999Y-150219999D03*
X222939999Y-150219999D03*
X220399999Y-150219999D03*
X217859999Y-150219999D03*
X215319999Y-150219999D03*
X212779999Y-150219999D03*
X210239999Y-150219999D03*
X207699999Y-150219999D03*
%TD*%
D12*
%TO.C,H2*%
X249530000Y-149460000D03*
%TD*%
D21*
%TO.C,U-PICO1*%
X190079999Y-142049999D03*
D22*
X190079999Y-142949999D03*
D21*
X192619999Y-142049999D03*
D22*
X192619999Y-142949999D03*
D17*
X195159999Y-142049999D03*
D22*
X195159999Y-142949999D03*
D21*
X197699999Y-142049999D03*
D22*
X197699999Y-142949999D03*
D21*
X200239999Y-142049999D03*
D22*
X200239999Y-142949999D03*
D21*
X202779999Y-142049999D03*
D22*
X202779999Y-142949999D03*
D21*
X205319999Y-142049999D03*
D22*
X205319999Y-142949999D03*
D17*
X207859999Y-142049999D03*
D22*
X207859999Y-142949999D03*
D21*
X210399999Y-142049999D03*
D22*
X210399999Y-142949999D03*
D21*
X212939999Y-142049999D03*
D22*
X212939999Y-142949999D03*
D21*
X215479999Y-142049999D03*
D22*
X215479999Y-142949999D03*
D21*
X218019999Y-142049999D03*
D22*
X218019999Y-142949999D03*
D17*
X220559999Y-142049999D03*
D22*
X220559999Y-142949999D03*
D21*
X223099999Y-142049999D03*
D22*
X223099999Y-142949999D03*
D21*
X225639999Y-142049999D03*
D22*
X225639999Y-142949999D03*
D21*
X228179999Y-142049999D03*
D22*
X228179999Y-142949999D03*
D21*
X230719999Y-142049999D03*
D22*
X230719999Y-142949999D03*
D17*
X233259999Y-142049999D03*
D22*
X233259999Y-142949999D03*
D21*
X235799999Y-142049999D03*
D22*
X235799999Y-142949999D03*
D21*
X238339999Y-142049999D03*
D22*
X238339999Y-142949999D03*
D21*
X238339999Y-124269999D03*
D22*
X238339999Y-123369999D03*
D21*
X235799999Y-124269999D03*
D22*
X235799999Y-123369999D03*
D17*
X233259999Y-124269999D03*
D22*
X233259999Y-123369999D03*
D21*
X230719999Y-124269999D03*
D22*
X230719999Y-123369999D03*
D21*
X228179999Y-124269999D03*
D22*
X228179999Y-123369999D03*
D21*
X225639999Y-124269999D03*
D22*
X225639999Y-123369999D03*
D21*
X223099999Y-124269999D03*
D22*
X223099999Y-123369999D03*
D17*
X220559999Y-124269999D03*
D22*
X220559999Y-123369999D03*
D21*
X218019999Y-124269999D03*
D22*
X218019999Y-123369999D03*
D21*
X215479999Y-124269999D03*
D22*
X215479999Y-123369999D03*
D21*
X212939999Y-124269999D03*
D22*
X212939999Y-123369999D03*
D21*
X210399999Y-124269999D03*
D22*
X210399999Y-123369999D03*
D17*
X207859999Y-124269999D03*
D22*
X207859999Y-123369999D03*
D21*
X205319999Y-124269999D03*
D22*
X205319999Y-123369999D03*
D21*
X202779999Y-124269999D03*
D22*
X202779999Y-123369999D03*
D21*
X200239999Y-124269999D03*
D22*
X200239999Y-123369999D03*
D21*
X197699999Y-124269999D03*
D22*
X197699999Y-123369999D03*
D17*
X195159999Y-124269999D03*
D22*
X195159999Y-123369999D03*
D21*
X192619999Y-124269999D03*
D22*
X192619999Y-123369999D03*
D21*
X190079999Y-124269999D03*
D22*
X190079999Y-123369999D03*
%TD*%
D17*
%TO.C,5V1*%
X174719999Y-84549999D03*
D21*
X174719999Y-82009999D03*
%TD*%
D23*
%TO.C,D1*%
X199600000Y-84000000D03*
X199600000Y-85400000D03*
%TD*%
D17*
%TO.C,Shock_sens1*%
X175359999Y-135929999D03*
D21*
X177899999Y-135929999D03*
X180439999Y-135929999D03*
%TD*%
D17*
%TO.C,PIR_sens2*%
X175099999Y-121109999D03*
D21*
X177639999Y-121109999D03*
X180179999Y-121109999D03*
%TD*%
D24*
%TO.C,R1*%
X189290000Y-110475000D03*
X189290000Y-108825000D03*
%TD*%
D25*
%TO.C,D2*%
X193900000Y-115570000D03*
X193900000Y-116970000D03*
%TD*%
D26*
%TO.C,R2*%
X194930000Y-106575000D03*
X193280000Y-106575000D03*
%TD*%
D27*
%TO.C,U3*%
X198740000Y-106850000D03*
X198740000Y-108120000D03*
X198740000Y-109390000D03*
X198740000Y-110660000D03*
D28*
X204220000Y-110660000D03*
X204220000Y-109390000D03*
X204220000Y-108120000D03*
X204220000Y-106850000D03*
%TD*%
M02*
