%TF.GenerationSoftware,KiCad,Pcbnew,(7.0.0)*%
%TF.CreationDate,2023-12-21T14:53:24+01:00*%
%TF.ProjectId,LDR,4c44522e-6b69-4636-9164-5f7063625858,rev?*%
%TF.SameCoordinates,Original*%
%TF.FileFunction,Legend,Top*%
%TF.FilePolarity,Positive*%
%FSLAX46Y46*%
G04 Gerber Fmt 4.6, Leading zero omitted, Abs format (unit mm)*
G04 Created by KiCad (PCBNEW (7.0.0)) date 2023-12-21 14:53:24*
%MOMM*%
%LPD*%
G01*
G04 APERTURE LIST*
%ADD10C,0.125000*%
%ADD11C,0.150000*%
%ADD12C,0.200000*%
%ADD13C,0.120000*%
%ADD14C,0.127000*%
G04 APERTURE END LIST*
D10*
X205708342Y-62786828D02*
X206079770Y-62786828D01*
X206079770Y-62786828D02*
X205879770Y-63015400D01*
X205879770Y-63015400D02*
X205965485Y-63015400D01*
X205965485Y-63015400D02*
X206022628Y-63043971D01*
X206022628Y-63043971D02*
X206051199Y-63072542D01*
X206051199Y-63072542D02*
X206079770Y-63129685D01*
X206079770Y-63129685D02*
X206079770Y-63272542D01*
X206079770Y-63272542D02*
X206051199Y-63329685D01*
X206051199Y-63329685D02*
X206022628Y-63358257D01*
X206022628Y-63358257D02*
X205965485Y-63386828D01*
X205965485Y-63386828D02*
X205794056Y-63386828D01*
X205794056Y-63386828D02*
X205736913Y-63358257D01*
X205736913Y-63358257D02*
X205708342Y-63329685D01*
X206251199Y-62786828D02*
X206451199Y-63386828D01*
X206451199Y-63386828D02*
X206651199Y-62786828D01*
X206794057Y-62786828D02*
X207165485Y-62786828D01*
X207165485Y-62786828D02*
X206965485Y-63015400D01*
X206965485Y-63015400D02*
X207051200Y-63015400D01*
X207051200Y-63015400D02*
X207108343Y-63043971D01*
X207108343Y-63043971D02*
X207136914Y-63072542D01*
X207136914Y-63072542D02*
X207165485Y-63129685D01*
X207165485Y-63129685D02*
X207165485Y-63272542D01*
X207165485Y-63272542D02*
X207136914Y-63329685D01*
X207136914Y-63329685D02*
X207108343Y-63358257D01*
X207108343Y-63358257D02*
X207051200Y-63386828D01*
X207051200Y-63386828D02*
X206879771Y-63386828D01*
X206879771Y-63386828D02*
X206822628Y-63358257D01*
X206822628Y-63358257D02*
X206794057Y-63329685D01*
X206008343Y-64044542D02*
X206208343Y-64044542D01*
X206294057Y-64358828D02*
X206008343Y-64358828D01*
X206008343Y-64358828D02*
X206008343Y-63758828D01*
X206008343Y-63758828D02*
X206294057Y-63758828D01*
X206551200Y-64358828D02*
X206551200Y-63758828D01*
X206551200Y-63758828D02*
X206894057Y-64358828D01*
X206894057Y-64358828D02*
X206894057Y-63758828D01*
D11*
X205089257Y-68876657D02*
X205546400Y-68876657D01*
X205317828Y-69105228D02*
X205317828Y-68648085D01*
X205774971Y-68505228D02*
X206146399Y-68505228D01*
X206146399Y-68505228D02*
X205946399Y-68733800D01*
X205946399Y-68733800D02*
X206032114Y-68733800D01*
X206032114Y-68733800D02*
X206089257Y-68762371D01*
X206089257Y-68762371D02*
X206117828Y-68790942D01*
X206117828Y-68790942D02*
X206146399Y-68848085D01*
X206146399Y-68848085D02*
X206146399Y-68990942D01*
X206146399Y-68990942D02*
X206117828Y-69048085D01*
X206117828Y-69048085D02*
X206089257Y-69076657D01*
X206089257Y-69076657D02*
X206032114Y-69105228D01*
X206032114Y-69105228D02*
X205860685Y-69105228D01*
X205860685Y-69105228D02*
X205803542Y-69076657D01*
X205803542Y-69076657D02*
X205774971Y-69048085D01*
X206317828Y-68505228D02*
X206517828Y-69105228D01*
X206517828Y-69105228D02*
X206717828Y-68505228D01*
X206860686Y-68505228D02*
X207232114Y-68505228D01*
X207232114Y-68505228D02*
X207032114Y-68733800D01*
X207032114Y-68733800D02*
X207117829Y-68733800D01*
X207117829Y-68733800D02*
X207174972Y-68762371D01*
X207174972Y-68762371D02*
X207203543Y-68790942D01*
X207203543Y-68790942D02*
X207232114Y-68848085D01*
X207232114Y-68848085D02*
X207232114Y-68990942D01*
X207232114Y-68990942D02*
X207203543Y-69048085D01*
X207203543Y-69048085D02*
X207174972Y-69076657D01*
X207174972Y-69076657D02*
X207117829Y-69105228D01*
X207117829Y-69105228D02*
X206946400Y-69105228D01*
X206946400Y-69105228D02*
X206889257Y-69076657D01*
X206889257Y-69076657D02*
X206860686Y-69048085D01*
D12*
X222896780Y-63098276D02*
X222896780Y-63574466D01*
X222896780Y-63574466D02*
X221896780Y-63574466D01*
X222896780Y-62764942D02*
X221896780Y-62764942D01*
X221896780Y-62764942D02*
X221896780Y-62526847D01*
X221896780Y-62526847D02*
X221944400Y-62383990D01*
X221944400Y-62383990D02*
X222039638Y-62288752D01*
X222039638Y-62288752D02*
X222134876Y-62241133D01*
X222134876Y-62241133D02*
X222325352Y-62193514D01*
X222325352Y-62193514D02*
X222468209Y-62193514D01*
X222468209Y-62193514D02*
X222658685Y-62241133D01*
X222658685Y-62241133D02*
X222753923Y-62288752D01*
X222753923Y-62288752D02*
X222849161Y-62383990D01*
X222849161Y-62383990D02*
X222896780Y-62526847D01*
X222896780Y-62526847D02*
X222896780Y-62764942D01*
X222896780Y-61193514D02*
X222420590Y-61526847D01*
X222896780Y-61764942D02*
X221896780Y-61764942D01*
X221896780Y-61764942D02*
X221896780Y-61383990D01*
X221896780Y-61383990D02*
X221944400Y-61288752D01*
X221944400Y-61288752D02*
X221992019Y-61241133D01*
X221992019Y-61241133D02*
X222087257Y-61193514D01*
X222087257Y-61193514D02*
X222230114Y-61193514D01*
X222230114Y-61193514D02*
X222325352Y-61241133D01*
X222325352Y-61241133D02*
X222372971Y-61288752D01*
X222372971Y-61288752D02*
X222420590Y-61383990D01*
X222420590Y-61383990D02*
X222420590Y-61764942D01*
D11*
X206019457Y-65638200D02*
X205962315Y-65609628D01*
X205962315Y-65609628D02*
X205876600Y-65609628D01*
X205876600Y-65609628D02*
X205790886Y-65638200D01*
X205790886Y-65638200D02*
X205733743Y-65695342D01*
X205733743Y-65695342D02*
X205705172Y-65752485D01*
X205705172Y-65752485D02*
X205676600Y-65866771D01*
X205676600Y-65866771D02*
X205676600Y-65952485D01*
X205676600Y-65952485D02*
X205705172Y-66066771D01*
X205705172Y-66066771D02*
X205733743Y-66123914D01*
X205733743Y-66123914D02*
X205790886Y-66181057D01*
X205790886Y-66181057D02*
X205876600Y-66209628D01*
X205876600Y-66209628D02*
X205933743Y-66209628D01*
X205933743Y-66209628D02*
X206019457Y-66181057D01*
X206019457Y-66181057D02*
X206048029Y-66152485D01*
X206048029Y-66152485D02*
X206048029Y-65952485D01*
X206048029Y-65952485D02*
X205933743Y-65952485D01*
X206305172Y-66209628D02*
X206305172Y-65609628D01*
X206305172Y-65609628D02*
X206648029Y-66209628D01*
X206648029Y-66209628D02*
X206648029Y-65609628D01*
X206933743Y-66209628D02*
X206933743Y-65609628D01*
X206933743Y-65609628D02*
X207076600Y-65609628D01*
X207076600Y-65609628D02*
X207162314Y-65638200D01*
X207162314Y-65638200D02*
X207219457Y-65695342D01*
X207219457Y-65695342D02*
X207248028Y-65752485D01*
X207248028Y-65752485D02*
X207276600Y-65866771D01*
X207276600Y-65866771D02*
X207276600Y-65952485D01*
X207276600Y-65952485D02*
X207248028Y-66066771D01*
X207248028Y-66066771D02*
X207219457Y-66123914D01*
X207219457Y-66123914D02*
X207162314Y-66181057D01*
X207162314Y-66181057D02*
X207076600Y-66209628D01*
X207076600Y-66209628D02*
X206933743Y-66209628D01*
D10*
X206054342Y-60456600D02*
X205997200Y-60428028D01*
X205997200Y-60428028D02*
X205911485Y-60428028D01*
X205911485Y-60428028D02*
X205825771Y-60456600D01*
X205825771Y-60456600D02*
X205768628Y-60513742D01*
X205768628Y-60513742D02*
X205740057Y-60570885D01*
X205740057Y-60570885D02*
X205711485Y-60685171D01*
X205711485Y-60685171D02*
X205711485Y-60770885D01*
X205711485Y-60770885D02*
X205740057Y-60885171D01*
X205740057Y-60885171D02*
X205768628Y-60942314D01*
X205768628Y-60942314D02*
X205825771Y-60999457D01*
X205825771Y-60999457D02*
X205911485Y-61028028D01*
X205911485Y-61028028D02*
X205968628Y-61028028D01*
X205968628Y-61028028D02*
X206054342Y-60999457D01*
X206054342Y-60999457D02*
X206082914Y-60970885D01*
X206082914Y-60970885D02*
X206082914Y-60770885D01*
X206082914Y-60770885D02*
X205968628Y-60770885D01*
X206340057Y-61028028D02*
X206340057Y-60428028D01*
X206340057Y-60428028D02*
X206568628Y-60428028D01*
X206568628Y-60428028D02*
X206625771Y-60456600D01*
X206625771Y-60456600D02*
X206654342Y-60485171D01*
X206654342Y-60485171D02*
X206682914Y-60542314D01*
X206682914Y-60542314D02*
X206682914Y-60628028D01*
X206682914Y-60628028D02*
X206654342Y-60685171D01*
X206654342Y-60685171D02*
X206625771Y-60713742D01*
X206625771Y-60713742D02*
X206568628Y-60742314D01*
X206568628Y-60742314D02*
X206340057Y-60742314D01*
D11*
%TO.C,R1*%
X222998380Y-65393866D02*
X222522190Y-65727199D01*
X222998380Y-65965294D02*
X221998380Y-65965294D01*
X221998380Y-65965294D02*
X221998380Y-65584342D01*
X221998380Y-65584342D02*
X222046000Y-65489104D01*
X222046000Y-65489104D02*
X222093619Y-65441485D01*
X222093619Y-65441485D02*
X222188857Y-65393866D01*
X222188857Y-65393866D02*
X222331714Y-65393866D01*
X222331714Y-65393866D02*
X222426952Y-65441485D01*
X222426952Y-65441485D02*
X222474571Y-65489104D01*
X222474571Y-65489104D02*
X222522190Y-65584342D01*
X222522190Y-65584342D02*
X222522190Y-65965294D01*
X222998380Y-64441485D02*
X222998380Y-65012913D01*
X222998380Y-64727199D02*
X221998380Y-64727199D01*
X221998380Y-64727199D02*
X222141238Y-64822437D01*
X222141238Y-64822437D02*
X222236476Y-64917675D01*
X222236476Y-64917675D02*
X222284095Y-65012913D01*
%TO.C,R2*%
X218070780Y-54344866D02*
X217594590Y-54678199D01*
X218070780Y-54916294D02*
X217070780Y-54916294D01*
X217070780Y-54916294D02*
X217070780Y-54535342D01*
X217070780Y-54535342D02*
X217118400Y-54440104D01*
X217118400Y-54440104D02*
X217166019Y-54392485D01*
X217166019Y-54392485D02*
X217261257Y-54344866D01*
X217261257Y-54344866D02*
X217404114Y-54344866D01*
X217404114Y-54344866D02*
X217499352Y-54392485D01*
X217499352Y-54392485D02*
X217546971Y-54440104D01*
X217546971Y-54440104D02*
X217594590Y-54535342D01*
X217594590Y-54535342D02*
X217594590Y-54916294D01*
X217166019Y-53963913D02*
X217118400Y-53916294D01*
X217118400Y-53916294D02*
X217070780Y-53821056D01*
X217070780Y-53821056D02*
X217070780Y-53582961D01*
X217070780Y-53582961D02*
X217118400Y-53487723D01*
X217118400Y-53487723D02*
X217166019Y-53440104D01*
X217166019Y-53440104D02*
X217261257Y-53392485D01*
X217261257Y-53392485D02*
X217356495Y-53392485D01*
X217356495Y-53392485D02*
X217499352Y-53440104D01*
X217499352Y-53440104D02*
X218070780Y-54011532D01*
X218070780Y-54011532D02*
X218070780Y-53392485D01*
%TO.C,R3*%
X218705780Y-62625266D02*
X218229590Y-62958599D01*
X218705780Y-63196694D02*
X217705780Y-63196694D01*
X217705780Y-63196694D02*
X217705780Y-62815742D01*
X217705780Y-62815742D02*
X217753400Y-62720504D01*
X217753400Y-62720504D02*
X217801019Y-62672885D01*
X217801019Y-62672885D02*
X217896257Y-62625266D01*
X217896257Y-62625266D02*
X218039114Y-62625266D01*
X218039114Y-62625266D02*
X218134352Y-62672885D01*
X218134352Y-62672885D02*
X218181971Y-62720504D01*
X218181971Y-62720504D02*
X218229590Y-62815742D01*
X218229590Y-62815742D02*
X218229590Y-63196694D01*
X217705780Y-62291932D02*
X217705780Y-61672885D01*
X217705780Y-61672885D02*
X218086733Y-62006218D01*
X218086733Y-62006218D02*
X218086733Y-61863361D01*
X218086733Y-61863361D02*
X218134352Y-61768123D01*
X218134352Y-61768123D02*
X218181971Y-61720504D01*
X218181971Y-61720504D02*
X218277209Y-61672885D01*
X218277209Y-61672885D02*
X218515304Y-61672885D01*
X218515304Y-61672885D02*
X218610542Y-61720504D01*
X218610542Y-61720504D02*
X218658161Y-61768123D01*
X218658161Y-61768123D02*
X218705780Y-61863361D01*
X218705780Y-61863361D02*
X218705780Y-62149075D01*
X218705780Y-62149075D02*
X218658161Y-62244313D01*
X218658161Y-62244313D02*
X218610542Y-62291932D01*
%TO.C,R4*%
X218045380Y-57088066D02*
X217569190Y-57421399D01*
X218045380Y-57659494D02*
X217045380Y-57659494D01*
X217045380Y-57659494D02*
X217045380Y-57278542D01*
X217045380Y-57278542D02*
X217093000Y-57183304D01*
X217093000Y-57183304D02*
X217140619Y-57135685D01*
X217140619Y-57135685D02*
X217235857Y-57088066D01*
X217235857Y-57088066D02*
X217378714Y-57088066D01*
X217378714Y-57088066D02*
X217473952Y-57135685D01*
X217473952Y-57135685D02*
X217521571Y-57183304D01*
X217521571Y-57183304D02*
X217569190Y-57278542D01*
X217569190Y-57278542D02*
X217569190Y-57659494D01*
X217378714Y-56230923D02*
X218045380Y-56230923D01*
X216997761Y-56469018D02*
X217712047Y-56707113D01*
X217712047Y-56707113D02*
X217712047Y-56088066D01*
%TO.C,Q1*%
X206025761Y-57739619D02*
X205930523Y-57692000D01*
X205930523Y-57692000D02*
X205835285Y-57596761D01*
X205835285Y-57596761D02*
X205692428Y-57453904D01*
X205692428Y-57453904D02*
X205597190Y-57406285D01*
X205597190Y-57406285D02*
X205501952Y-57406285D01*
X205549571Y-57644380D02*
X205454333Y-57596761D01*
X205454333Y-57596761D02*
X205359095Y-57501523D01*
X205359095Y-57501523D02*
X205311476Y-57311047D01*
X205311476Y-57311047D02*
X205311476Y-56977714D01*
X205311476Y-56977714D02*
X205359095Y-56787238D01*
X205359095Y-56787238D02*
X205454333Y-56692000D01*
X205454333Y-56692000D02*
X205549571Y-56644380D01*
X205549571Y-56644380D02*
X205740047Y-56644380D01*
X205740047Y-56644380D02*
X205835285Y-56692000D01*
X205835285Y-56692000D02*
X205930523Y-56787238D01*
X205930523Y-56787238D02*
X205978142Y-56977714D01*
X205978142Y-56977714D02*
X205978142Y-57311047D01*
X205978142Y-57311047D02*
X205930523Y-57501523D01*
X205930523Y-57501523D02*
X205835285Y-57596761D01*
X205835285Y-57596761D02*
X205740047Y-57644380D01*
X205740047Y-57644380D02*
X205549571Y-57644380D01*
X206930523Y-57644380D02*
X206359095Y-57644380D01*
X206644809Y-57644380D02*
X206644809Y-56644380D01*
X206644809Y-56644380D02*
X206549571Y-56787238D01*
X206549571Y-56787238D02*
X206454333Y-56882476D01*
X206454333Y-56882476D02*
X206359095Y-56930095D01*
%TO.C,J2*%
X204192980Y-65052533D02*
X204907266Y-65052533D01*
X204907266Y-65052533D02*
X205050123Y-65100152D01*
X205050123Y-65100152D02*
X205145361Y-65195390D01*
X205145361Y-65195390D02*
X205192980Y-65338247D01*
X205192980Y-65338247D02*
X205192980Y-65433485D01*
X204288219Y-64623961D02*
X204240600Y-64576342D01*
X204240600Y-64576342D02*
X204192980Y-64481104D01*
X204192980Y-64481104D02*
X204192980Y-64243009D01*
X204192980Y-64243009D02*
X204240600Y-64147771D01*
X204240600Y-64147771D02*
X204288219Y-64100152D01*
X204288219Y-64100152D02*
X204383457Y-64052533D01*
X204383457Y-64052533D02*
X204478695Y-64052533D01*
X204478695Y-64052533D02*
X204621552Y-64100152D01*
X204621552Y-64100152D02*
X205192980Y-64671580D01*
X205192980Y-64671580D02*
X205192980Y-64052533D01*
%TO.C,U1*%
X211157895Y-59692380D02*
X211157895Y-60501904D01*
X211157895Y-60501904D02*
X211205514Y-60597142D01*
X211205514Y-60597142D02*
X211253133Y-60644761D01*
X211253133Y-60644761D02*
X211348371Y-60692380D01*
X211348371Y-60692380D02*
X211538847Y-60692380D01*
X211538847Y-60692380D02*
X211634085Y-60644761D01*
X211634085Y-60644761D02*
X211681704Y-60597142D01*
X211681704Y-60597142D02*
X211729323Y-60501904D01*
X211729323Y-60501904D02*
X211729323Y-59692380D01*
X212729323Y-60692380D02*
X212157895Y-60692380D01*
X212443609Y-60692380D02*
X212443609Y-59692380D01*
X212443609Y-59692380D02*
X212348371Y-59835238D01*
X212348371Y-59835238D02*
X212253133Y-59930476D01*
X212253133Y-59930476D02*
X212157895Y-59978095D01*
D13*
%TO.C,R1*%
X219653600Y-64226200D02*
X219653600Y-60386200D01*
X221493600Y-64226200D02*
X221493600Y-60386200D01*
%TO.C,R2*%
X219674200Y-55276000D02*
X215834200Y-55276000D01*
X219674200Y-53436000D02*
X215834200Y-53436000D01*
%TO.C,R3*%
X219131400Y-60411600D02*
X219131400Y-64251600D01*
X217291400Y-60411600D02*
X217291400Y-64251600D01*
%TO.C,R4*%
X215834200Y-56026800D02*
X219674200Y-56026800D01*
X215834200Y-57866800D02*
X219674200Y-57866800D01*
%TO.C,Q1*%
X211781800Y-53365200D02*
X208181800Y-53365200D01*
X209981800Y-57815200D02*
G75*
G03*
X211820278Y-53376722I0J2600000D01*
G01*
X208143322Y-53376722D02*
G75*
G03*
X209981800Y-57815200I1838478J-1838478D01*
G01*
%TO.C,J2*%
X203183000Y-71283000D02*
X205683000Y-71283000D01*
X205683000Y-71283000D02*
X205683000Y-68783000D01*
X201363000Y-70983000D02*
X205383000Y-70983000D01*
X203073000Y-70983000D02*
X203073000Y-70483000D01*
X203883000Y-70983000D02*
X203883000Y-69983000D01*
X205383000Y-70983000D02*
X205383000Y-58263000D01*
X201863000Y-70483000D02*
X201863000Y-58763000D01*
X203073000Y-70483000D02*
X201863000Y-70483000D01*
X203883000Y-69983000D02*
X205383000Y-69983000D01*
X203883000Y-59263000D02*
X205383000Y-59263000D01*
X201863000Y-58763000D02*
X203073000Y-58763000D01*
X203073000Y-58763000D02*
X203073000Y-58263000D01*
X201363000Y-58263000D02*
X201363000Y-70983000D01*
X203883000Y-58263000D02*
X203883000Y-59263000D01*
X205383000Y-58263000D02*
X201363000Y-58263000D01*
D14*
%TO.C,U1*%
X208991200Y-58984400D02*
X215341200Y-58984400D01*
X208991200Y-68574400D02*
X215341200Y-68574400D01*
D12*
X207231200Y-59969400D02*
G75*
G03*
X207231200Y-59969400I-100000J0D01*
G01*
%TD*%
M02*
