%TF.GenerationSoftware,KiCad,Pcbnew,(7.0.0)*%
%TF.CreationDate,2023-12-21T13:59:44+01:00*%
%TF.ProjectId,LDR,4c44522e-6b69-4636-9164-5f7063625858,rev?*%
%TF.SameCoordinates,Original*%
%TF.FileFunction,Copper,L1,Top*%
%TF.FilePolarity,Positive*%
%FSLAX46Y46*%
G04 Gerber Fmt 4.6, Leading zero omitted, Abs format (unit mm)*
G04 Created by KiCad (PCBNEW (7.0.0)) date 2023-12-21 13:59:44*
%MOMM*%
%LPD*%
G01*
G04 APERTURE LIST*
G04 Aperture macros list*
%AMRoundRect*
0 Rectangle with rounded corners*
0 $1 Rounding radius*
0 $2 $3 $4 $5 $6 $7 $8 $9 X,Y pos of 4 corners*
0 Add a 4 corners polygon primitive as box body*
4,1,4,$2,$3,$4,$5,$6,$7,$8,$9,$2,$3,0*
0 Add four circle primitives for the rounded corners*
1,1,$1+$1,$2,$3*
1,1,$1+$1,$4,$5*
1,1,$1+$1,$6,$7*
1,1,$1+$1,$8,$9*
0 Add four rect primitives between the rounded corners*
20,1,$1+$1,$2,$3,$4,$5,0*
20,1,$1+$1,$4,$5,$6,$7,0*
20,1,$1+$1,$6,$7,$8,$9,0*
20,1,$1+$1,$8,$9,$2,$3,0*%
G04 Aperture macros list end*
%TA.AperFunction,ComponentPad*%
%ADD10C,3.800000*%
%TD*%
%TA.AperFunction,ComponentPad*%
%ADD11C,1.400000*%
%TD*%
%TA.AperFunction,ComponentPad*%
%ADD12O,1.400000X1.400000*%
%TD*%
%TA.AperFunction,ComponentPad*%
%ADD13R,1.050000X1.500000*%
%TD*%
%TA.AperFunction,ComponentPad*%
%ADD14O,1.050000X1.500000*%
%TD*%
%TA.AperFunction,ComponentPad*%
%ADD15RoundRect,0.250000X0.725000X-0.600000X0.725000X0.600000X-0.725000X0.600000X-0.725000X-0.600000X0*%
%TD*%
%TA.AperFunction,ComponentPad*%
%ADD16O,1.950000X1.700000*%
%TD*%
%TA.AperFunction,ComponentPad*%
%ADD17R,1.130000X1.130000*%
%TD*%
%TA.AperFunction,ComponentPad*%
%ADD18C,1.130000*%
%TD*%
%TA.AperFunction,Conductor*%
%ADD19C,0.250000*%
%TD*%
G04 APERTURE END LIST*
D10*
%TO.P,H1,1,1*%
%TO.N,GND*%
X203250000Y-54900000D03*
%TD*%
D11*
%TO.P,R1,1*%
%TO.N,Net-(U1-IN-)*%
X220573600Y-64846200D03*
D12*
%TO.P,R1,2*%
%TO.N,GND*%
X220573599Y-59766199D03*
%TD*%
D11*
%TO.P,R2,1*%
%TO.N,+3V3*%
X220294200Y-54356000D03*
D12*
%TO.P,R2,2*%
%TO.N,Net-(U1-IN+)*%
X215214199Y-54355999D03*
%TD*%
D11*
%TO.P,R3,1*%
%TO.N,+3V3*%
X218211400Y-59791600D03*
D12*
%TO.P,R3,2*%
%TO.N,Net-(U1-IN-)*%
X218211399Y-64871599D03*
%TD*%
D11*
%TO.P,R4,1*%
%TO.N,Net-(U1-IN+)*%
X215214200Y-56946800D03*
D12*
%TO.P,R4,2*%
%TO.N,GND*%
X220294199Y-56946799D03*
%TD*%
D13*
%TO.P,Q1,1,E*%
%TO.N,GND*%
X211251799Y-55215199D03*
D14*
%TO.P,Q1,2,B*%
%TO.N,Net-(Q1-B)*%
X209981799Y-55215199D03*
%TO.P,Q1,3,C*%
%TO.N,3V3_en*%
X208711799Y-55215199D03*
%TD*%
D10*
%TO.P,H2,1,1*%
%TO.N,GND*%
X220900000Y-70300000D03*
%TD*%
D15*
%TO.P,J2,1,Pin_1*%
%TO.N,+3V3*%
X203073000Y-68373000D03*
D16*
%TO.P,J2,2,Pin_2*%
%TO.N,GND*%
X203072999Y-65872999D03*
%TO.P,J2,3,Pin_3*%
%TO.N,3V3_en*%
X203072999Y-63372999D03*
%TO.P,J2,4,Pin_4*%
%TO.N,unconnected-(J2-Pin_4-Pad4)*%
X203072999Y-60872999D03*
%TD*%
D17*
%TO.P,U1,1,EMIT_OUT*%
%TO.N,Net-(Q1-B)*%
X208196199Y-59969399D03*
D18*
%TO.P,U1,2,IN+*%
%TO.N,Net-(U1-IN+)*%
X208196200Y-62509400D03*
%TO.P,U1,3,IN-*%
%TO.N,Net-(U1-IN-)*%
X208196200Y-65049400D03*
%TO.P,U1,4,VCC-*%
%TO.N,GND*%
X208196200Y-67589400D03*
%TO.P,U1,5,BALANCE*%
%TO.N,unconnected-(U1-BALANCE-Pad5)*%
X216136200Y-67589400D03*
%TO.P,U1,6,BAL/STRB*%
%TO.N,unconnected-(U1-BAL{slash}STRB-Pad6)*%
X216136200Y-65049400D03*
%TO.P,U1,7,COL_OUT*%
%TO.N,+3V3*%
X216136200Y-62509400D03*
%TO.P,U1,8,VCC+*%
X216136200Y-59969400D03*
%TD*%
D19*
%TO.N,3V3_en*%
X204876400Y-63373000D02*
X205765400Y-62484000D01*
X205765400Y-58161600D02*
X208711800Y-55215200D01*
X205765400Y-62484000D02*
X205765400Y-58161600D01*
X203073000Y-63373000D02*
X204876400Y-63373000D01*
%TO.N,Net-(Q1-B)*%
X209981800Y-58183800D02*
X209981800Y-55215200D01*
X208196200Y-59969400D02*
X209981800Y-58183800D01*
%TO.N,+3V3*%
X203073000Y-68373000D02*
X204524600Y-68373000D01*
X218211400Y-59791600D02*
X216314000Y-59791600D01*
X214866200Y-63779400D02*
X216136200Y-62509400D01*
X204524600Y-68373000D02*
X206197200Y-66700400D01*
X217830400Y-60172600D02*
X218211400Y-59791600D01*
X216136200Y-62509400D02*
X216136200Y-59969400D01*
X219049600Y-54356000D02*
X218211400Y-55194200D01*
X220294200Y-54356000D02*
X219049600Y-54356000D01*
X216314000Y-59791600D02*
X216136200Y-59969400D01*
X206197200Y-66700400D02*
X206197200Y-64414400D01*
X218211400Y-55194200D02*
X218211400Y-59791600D01*
X206197200Y-64414400D02*
X206832200Y-63779400D01*
X206832200Y-63779400D02*
X214866200Y-63779400D01*
%TO.N,Net-(U1-IN-)*%
X218211400Y-65963800D02*
X218211400Y-64871600D01*
X210362800Y-66344800D02*
X217830400Y-66344800D01*
X218211400Y-64871600D02*
X220548200Y-64871600D01*
X209067400Y-65049400D02*
X210362800Y-66344800D01*
X220548200Y-64871600D02*
X220573600Y-64846200D01*
X217830400Y-66344800D02*
X218211400Y-65963800D01*
X208196200Y-65049400D02*
X209067400Y-65049400D01*
%TO.N,Net-(U1-IN+)*%
X211226400Y-62509400D02*
X215214200Y-58521600D01*
X215214200Y-54356000D02*
X215214200Y-56946800D01*
X215214200Y-58521600D02*
X215214200Y-56946800D01*
X208196200Y-62509400D02*
X211226400Y-62509400D01*
%TD*%
M02*
